<?xml version="1.0" standalone="no"?>
<!DOCTYPE svg PUBLIC "-//W3C//DTD SVG 1.1//EN" "http://www.w3.org/Graphics/SVG/1.1/DTD/svg11.dtd" >
<svg xmlns="http://www.w3.org/2000/svg" xmlns:xlink="http://www.w3.org/1999/xlink" version="1.1">
<metadata>
Created by FontForge 20201107 at Fri Jul  5 11:45:18 2024
 By 
Initial Copyright: 2021 The Red Hat Project Authors (https://github.com/RedHatOfficial/RedHatFont). Modified in 2023 for Grodrej &#38; Boyce under the name G1B Sans.
</metadata>
<defs>
<font id="GEG-BodyCopyHighlightItalic" horiz-adv-x="630" >
  <font-face 
    font-family="GEG Body Copy"
    font-weight="700"
    font-style="italic"
    font-stretch="normal"
    units-per-em="1000"
    panose-1="0 0 0 0 0 0 0 0 0 0"
    ascent="800"
    descent="-200"
    x-height="521"
    cap-height="700"
    bbox="-155 -286 1188 1004"
    underline-thickness="100"
    underline-position="-250"
    slope="-12"
    unicode-range="U+000D-FFFD"
  />
<missing-glyph horiz-adv-x="544" 
d="M75 750h394v-850h-394v850z" />
    <glyph glyph-name="fi" unicode="fi" horiz-adv-x="698" 
d="M270.5 680.5q51.5 44.5 123.5 44.5q128 0 155 -116l-118 -38q-5 38 -41 38q-41 0 -52 -57l-7 -31h142l-24 -114h-141l-86 -407h-137l86 407h-117l24 114h117l8 37q16 78 67.5 122.5zM551 521h134l-110 -521h-134zM596.5 713q25.5 26 59.5 26q29 0 49 -19.5t20 -48.5
q0 -35 -26 -61.5t-60 -26.5q-29 0 -48.5 20t-19.5 49q0 35 25.5 61z" />
    <glyph glyph-name="fl" unicode="fl" horiz-adv-x="698" 
d="M270.5 680.5q51.5 44.5 123.5 44.5q128 0 155 -116l-118 -38q-5 38 -41 38q-41 0 -52 -57l-7 -31h142l-24 -114h-141l-86 -407h-137l86 407h-117l24 114h117l8 37q16 78 67.5 122.5zM590 700l140 30l-155 -730h-134z" />
    <glyph glyph-name=".notdef" horiz-adv-x="544" 
d="M75 750h394v-850h-394v850z" />
    <glyph glyph-name=".null" horiz-adv-x="231" 
 />
    <glyph glyph-name="nonmarkingreturn" unicode="&#xd;" horiz-adv-x="231" 
 />
    <glyph glyph-name="space" unicode=" " horiz-adv-x="231" 
 />
    <glyph glyph-name="exclam" unicode="!" horiz-adv-x="265" 
d="M158 700h136l-121 -491h-103zM38 124.5q27 27.5 64 27.5q30 0 49.5 -20.5t19.5 -51.5q0 -35 -27 -62.5t-61 -27.5q-31 0 -51.5 20.5t-20.5 50.5q0 36 27 63.5z" />
    <glyph glyph-name="quotedbl" unicode="&#x22;" horiz-adv-x="465" 
d="M167 705h131l-77 -280h-98zM351 705h131l-77 -280h-98z" />
    <glyph glyph-name="numbersign" unicode="#" horiz-adv-x="753" 
d="M120 194h-96l21 98h123l57 116h-107l22 98h133l96 194h121l-96 -194h148l95 194h121l-96 -194h95l-21 -98h-122l-57 -116h105l-21 -98h-132l-96 -194h-120l96 194h-148l-96 -194h-121zM437 292l57 116h-148l-57 -116h148z" />
    <glyph glyph-name="dollar" unicode="$" horiz-adv-x="611" 
d="M276 8l-16 -75h-67l18 85q-74 20 -126.5 69.5t-68.5 116.5l140 31q7 -31 28.5 -55t52.5 -37l34 160l-27 7q-73 18 -113 65.5t-40 111.5q0 59 31.5 105.5t88 72.5t130.5 26h12l16 76h67l-18 -85q69 -17 119 -61.5t70 -109.5l-136 -31q-21 60 -79 80l-31 -147l32 -7
q81 -20 122 -65.5t41 -111.5q0 -63 -34.5 -113.5t-94.5 -79t-134 -28.5h-17zM250.5 453.5q15.5 -15.5 47.5 -24.5l29 140q-42 -2 -67 -22.5t-25 -52.5q0 -25 15.5 -40.5zM379 156q30 23 30 57q0 54 -73 74h-1l-33 -155q47 1 77 24z" />
    <glyph glyph-name="percent" unicode="%" horiz-adv-x="832" 
d="M125 383q-37 38 -37 103q0 60 25 110.5t67.5 80t93.5 29.5q62 0 99 -38t37 -103q0 -60 -25 -110.5t-67.5 -80t-93.5 -29.5q-62 0 -99 38zM649 700h97l-538 -700h-96zM186.5 437.5q16.5 -19.5 45.5 -19.5q26 0 48.5 19t35.5 51.5t13 70.5q0 35 -17 54.5t-47 19.5
q-26 0 -47.5 -19t-34.5 -51.5t-13 -70.5q0 -35 16.5 -54.5zM482.5 246.5q24.5 50.5 67 80t93.5 29.5q63 0 100 -38t37 -103q0 -60 -25 -110.5t-67.5 -80t-93.5 -29.5q-62 0 -99 38t-37 103q0 60 24.5 110.5zM556.5 87.5q16.5 -19.5 45.5 -19.5q26 0 48.5 19t35.5 51.5
t13 70.5q0 35 -17 54.5t-47 19.5q-26 0 -47.5 -19t-34.5 -51.5t-13 -70.5q0 -35 16.5 -54.5z" />
    <glyph glyph-name="ampersand" unicode="&#x26;" horiz-adv-x="700" 
d="M92 39.5q-63 49.5 -63 132.5q0 72 42 124t134 95q-30 57 -30 118q0 58 27 103.5t74.5 71t108.5 25.5q77 0 125.5 -40.5t48.5 -104.5q0 -111 -132 -176l-55 -28q38 -58 107 -135q45 59 83 148l111 -29q-53 -123 -118 -198q38 -40 161 -146h-190q-17 13 -61 55
q-92 -65 -204 -65q-106 0 -169 49.5zM188 122q33 -25 89 -25q58 0 113 35q-75 82 -135 175q-53 -26 -76.5 -54t-23.5 -63q0 -43 33 -68zM322 441l47 23q33 15 50 37.5t17 47.5q0 27 -17 43t-46 16q-34 0 -55 -22.5t-21 -58.5q0 -37 25 -86z" />
    <glyph glyph-name="quotesingle" unicode="'" horiz-adv-x="276" 
d="M167 705h131l-77 -280h-98z" />
    <glyph glyph-name="parenleft" unicode="(" horiz-adv-x="434" 
d="M97.5 -65q-43.5 91 -43.5 202q0 123 44.5 235.5t126.5 200t192 138.5l56 -91q-89 -44 -155.5 -116t-102 -163t-35.5 -191q0 -89 34 -163t99 -127l-90 -78q-82 62 -125.5 153z" />
    <glyph glyph-name="parenright" unicode=")" horiz-adv-x="434" 
d="M336 560q43 -91 43 -202q0 -123 -44.5 -235t-126.5 -199.5t-192 -139.5l-56 91q89 44 155.5 116t102 163t35.5 191q0 89 -34 163t-99 127l90 79q83 -63 126 -154z" />
    <glyph glyph-name="asterisk" unicode="*" horiz-adv-x="496" 
d="M243 434l-113 -58l-32 80l124 58l-97 75l61 68l89 -73l23 116h87l-27 -118l116 58l34 -77l-127 -62l95 -72l-63 -70l-86 71l-22 -113h-88z" />
    <glyph glyph-name="plus" unicode="+" 
d="M276 304h-166l23 106h166l37 174h103l-38 -174h166l-22 -106h-166l-37 -175h-103z" />
    <glyph glyph-name="comma" unicode="," horiz-adv-x="267" 
d="M72 0h-68l31 148h149l-24 -111q-12 -61 -49.5 -111t-100.5 -78l-41 56q80 34 103 96z" />
    <glyph glyph-name="hyphen" unicode="-" horiz-adv-x="479" 
d="M442 343l-24 -116h-370l24 116h370z" />
    <glyph glyph-name="period" unicode="." horiz-adv-x="280" 
d="M40 10.5q-20 20.5 -20 50.5q0 37 27 64t63 27q30 0 50 -20.5t20 -50.5q0 -36 -27 -63.5t-62 -27.5q-31 0 -51 20.5z" />
    <glyph glyph-name="slash" unicode="/" horiz-adv-x="538" 
d="M454 700h143l-609 -909h-143z" />
    <glyph glyph-name="zero" unicode="0" horiz-adv-x="703" 
d="M184.5 24.5q-59.5 34.5 -92 97.5t-32.5 147q0 120 48.5 221.5t130.5 161t179 59.5q79 0 139 -34.5t92.5 -97.5t32.5 -147q0 -119 -48.5 -221t-131 -161.5t-179.5 -59.5q-79 0 -138.5 34.5zM230 153q39 -45 106 -45q58 0 107 43t78 115.5t29 157.5q0 79 -38.5 124
t-106.5 45q-57 0 -106.5 -43t-78.5 -116t-29 -158q0 -78 39 -123z" />
    <glyph glyph-name="one" unicode="1" horiz-adv-x="373" 
d="M234 561l-146 -56l25 119l200 76h85l-149 -700h-134z" />
    <glyph glyph-name="two" unicode="2" 
d="M231 328l160 72q98 45 98 114q0 34 -24 54.5t-66 20.5q-46 0 -77 -26.5t-44 -76.5l-136 31q26 93 93.5 143.5t169.5 50.5q100 0 162.5 -51.5t62.5 -139.5q0 -152 -184 -233l-136 -59q-47 -21 -68 -45t-32 -65h337l-26 -118h-495l18 81q38 179 187 247z" />
    <glyph glyph-name="three" unicode="3" 
d="M121 40q-68 51 -90 150l136 31q12 -56 45.5 -83t90.5 -27q54 0 89.5 27t35.5 73q0 39 -26 63t-70 24h-86l23 113h85q56 0 89 26t33 70q0 38 -26 60t-73 22q-46 0 -78.5 -26t-49.5 -76l-136 31q28 92 100 142.5t170 50.5q71 0 123 -24t79.5 -65.5t27.5 -93.5
q0 -67 -43 -116.5t-118 -67.5q114 -36 114 -141q0 -59 -35.5 -108t-97 -77.5t-135.5 -28.5q-109 0 -177 51z" />
    <glyph glyph-name="four" unicode="4" 
d="M375 159h-362l24 114l437 427h143l-90 -423h81l-25 -118h-81l-34 -159h-127zM400 277l57 264l-270 -264h213z" />
    <glyph glyph-name="five" unicode="5" 
d="M133 41.5q-65 51.5 -87 148.5l136 31q24 -110 129 -110q50 0 81.5 34.5t31.5 84.5q0 49 -35 79.5t-94 30.5q-47 0 -107 -27l-90 36l89 351h438l-26 -118h-320l-43 -164q56 22 110 22q64 0 113.5 -24.5t76.5 -69.5t27 -105q0 -69 -32.5 -126.5t-93.5 -91t-141 -33.5
q-98 0 -163 51.5z" />
    <glyph glyph-name="six" unicode="6" 
d="M182 24q-59 35 -92.5 101.5t-33.5 158.5q0 120 46 217.5t125.5 153.5t176.5 56q87 0 147.5 -45t80.5 -122l-134 -30q-25 75 -108 75q-76 0 -131.5 -67.5t-71.5 -183.5q40 49 85.5 72t101.5 23q60 0 107 -26t73 -71.5t26 -101.5q0 -70 -34.5 -126t-95 -87.5t-135.5 -31.5
q-74 0 -133 35zM221.5 146.5q38.5 -44.5 102.5 -44.5q57 0 94 35t37 90q0 49 -32.5 77t-88.5 28q-42 0 -81.5 -16.5t-70.5 -46.5q1 -78 39.5 -122.5z" />
    <glyph glyph-name="seven" unicode="7" 
d="M501 582h-379l26 118h524l-22 -98l-418 -602h-161z" />
    <glyph glyph-name="eight" unicode="8" 
d="M161 13q-57 24 -88.5 67t-31.5 97q0 68 48 121.5t124 71.5q-40 19 -62 52.5t-22 73.5q0 60 35 109t94.5 77.5t129.5 28.5q66 0 116.5 -23.5t78.5 -64t28 -91.5q0 -60 -41.5 -109t-108.5 -69q48 -21 77 -59t29 -85q0 -62 -37 -112.5t-100 -79.5t-139 -29q-73 0 -130 24z
M208.5 126.5q35.5 -28.5 92.5 -28.5q59 0 98 32t39 81q0 43 -35.5 71.5t-91.5 28.5q-59 0 -98.5 -32.5t-39.5 -79.5q0 -44 35.5 -72.5zM284 433q30 -25 78 -25q49 0 84.5 31.5t35.5 74.5q0 40 -28.5 65t-77.5 25q-50 0 -86 -31.5t-36 -76.5q0 -38 30 -63z" />
    <glyph glyph-name="nine" unicode="9" 
d="M486 676q59 -35 92.5 -101.5t33.5 -158.5q0 -120 -46 -217.5t-125.5 -153.5t-176.5 -56q-87 0 -147.5 45t-80.5 122l134 30q26 -75 108 -75q76 0 131.5 67.5t71.5 183.5q-40 -49 -85.5 -72t-101.5 -23q-60 0 -107 26t-73 71.5t-26 101.5q0 70 34.5 126t95 87.5
t135.5 31.5q74 0 133 -35zM245.5 396q32.5 -28 88.5 -28q42 0 81.5 16.5t70.5 46.5q-1 78 -39.5 122.5t-102.5 44.5q-57 0 -94 -35t-37 -90q0 -49 32.5 -77z" />
    <glyph glyph-name="colon" unicode=":" horiz-adv-x="280" 
d="M41 10.5q-20 20.5 -20 50.5q0 37 27 64t63 27q30 0 50 -20.5t20 -50.5q0 -36 -27 -63.5t-62 -27.5q-31 0 -51 20.5zM121 388.5q-20 20.5 -20 50.5q0 37 27 64t63 27q30 0 50 -20.5t20 -50.5q0 -36 -27 -63.5t-62 -27.5q-31 0 -51 20.5z" />
    <glyph glyph-name="semicolon" unicode=";" horiz-adv-x="267" 
d="M108 388.5q-20 20.5 -20 50.5q0 37 27 64t63 27q30 0 50 -20.5t20 -50.5q0 -36 -27 -63.5t-62 -27.5q-31 0 -51 20.5zM72 0h-68l31 148h149l-24 -111q-12 -61 -49.5 -111t-100.5 -78l-41 56q80 34 103 96z" />
    <glyph glyph-name="less" unicode="&#x3c;" 
d="M129 348l404 288l55 -84l-299 -209l207 -204l-84 -78z" />
    <glyph glyph-name="equal" unicode="=" 
d="M111 309h434l-22 -106h-434zM152 500h434l-22 -106h-434z" />
    <glyph glyph-name="greater" unicode="&#x3e;" 
d="M546 349l-404 -288l-55 84l299 209l-207 204l84 78z" />
    <glyph glyph-name="question" unicode="?" horiz-adv-x="545" 
d="M216 323q25 40 78 73l62 37q63 38 63 91q0 31 -26 51t-67 20q-50 0 -84 -25t-46 -69l-123 27q19 83 90 132.5t169 49.5q64 0 114 -22.5t78.5 -62.5t28.5 -90q0 -60 -32 -103t-115 -90l-37 -22q-36 -20 -52.5 -44t-23.5 -64h-113q11 71 36 111zM154.5 126q26.5 27 63.5 27
q30 0 50 -20.5t20 -51.5q0 -35 -27 -62.5t-62 -27.5q-31 0 -51 20.5t-20 50.5q0 37 26.5 64z" />
    <glyph glyph-name="at" unicode="@" horiz-adv-x="806" 
d="M225 -98.5q-84 45.5 -132 125.5t-48 180q0 106 48.5 191.5t133 134.5t189.5 49q94 0 171.5 -40t122 -110t44.5 -154q0 -67 -24 -119.5t-67.5 -82t-99.5 -29.5q-74 0 -103 41q-23 -20 -50 -30.5t-55 -10.5q-40 0 -73.5 21t-52.5 56.5t-19 78.5q0 51 23.5 93t64.5 66.5
t90 24.5q54 0 92 -33l4 20h96l-44 -206q-2 -10 -2 -14q0 -18 11.5 -28t32.5 -10q46 0 75 43.5t29 111.5q0 71 -35 128t-96.5 89.5t-137.5 32.5q-83 0 -151 -40.5t-107.5 -111t-39.5 -156.5q0 -85 38 -151t106 -103t156 -37q92 0 164 36l27 -58q-96 -44 -191 -44
q-106 0 -190 45.5zM323.5 150q21.5 -24 54.5 -24q36 0 64 25q0 15 3 31l18 89q-24 34 -72 34q-37 0 -63 -27.5t-26 -66.5q0 -37 21.5 -61z" />
    <glyph glyph-name="A" unicode="A" horiz-adv-x="747" 
d="M384 700h164l133 -700h-146l-32 184h-284l-108 -184h-155zM484 300l-45 258l-152 -258h197z" />
    <glyph glyph-name="B" unicode="B" horiz-adv-x="708" 
d="M171 700h301q95 0 152 -45.5t57 -121.5q0 -58 -32.5 -104.5t-92.5 -73.5q45 -22 68.5 -55.5t23.5 -76.5q0 -63 -35 -114t-96 -80t-136 -29h-359zM384 120q53 0 87 29t34 75q0 36 -25.5 56.5t-70.5 20.5h-181l-39 -181h195zM425 414q48 0 79.5 27t31.5 68q0 34 -23 52.5
t-64 18.5h-162l-35 -166h173z" />
    <glyph glyph-name="C" unicode="C" horiz-adv-x="790" 
d="M230 29.5q-76 40.5 -118 115t-42 172.5q0 111 51 201t141 141.5t200 51.5q82 0 149 -29.5t109.5 -83.5t53.5 -126l-147 -34q-13 67 -58.5 103.5t-115.5 36.5q-67 0 -119.5 -32.5t-82.5 -90.5t-30 -130q0 -93 52 -148t139 -55q69 0 117 36.5t67 104.5l147 -35
q-27 -109 -117 -174t-219 -65q-101 0 -177 40.5z" />
    <glyph glyph-name="D" unicode="D" horiz-adv-x="753" 
d="M171 700h229q93 0 167 -40t115.5 -111.5t41.5 -160.5q0 -104 -55 -193.5t-148 -142t-201 -52.5h-298zM332 129q67 0 123 33t88.5 90.5t32.5 125.5q0 56 -24.5 100t-68.5 68.5t-99 24.5h-99l-94 -442h141z" />
    <glyph glyph-name="E" unicode="E" horiz-adv-x="664" 
d="M171 700h527l-27 -126h-385l-35 -160h254l-26 -122h-253l-36 -166h390l-27 -126h-531z" />
    <glyph glyph-name="F" unicode="F" horiz-adv-x="658" 
d="M171 700h530l-28 -126h-387l-36 -165h257l-25 -122h-257l-62 -287h-141z" />
    <glyph glyph-name="G" unicode="G" horiz-adv-x="811" 
d="M230.5 31q-76.5 42 -119 117t-42.5 170q0 109 52.5 198.5t143.5 141.5t202 52q82 0 149 -28t110 -78.5t54 -115.5l-147 -34q-14 58 -60 90.5t-115 32.5t-124.5 -33t-87 -90.5t-31.5 -128.5q0 -61 26 -107.5t72 -71.5t105 -25q77 0 131 39t68 107h-207l26 126h353l-13 -80
q-18 -103 -71.5 -176t-132 -110.5t-169.5 -37.5q-96 0 -172.5 42z" />
    <glyph glyph-name="H" unicode="H" horiz-adv-x="754" 
d="M171 700h141l-59 -282h316l60 282h141l-149 -700h-141l60 287h-316l-61 -287h-141z" />
    <glyph glyph-name="I" unicode="I" horiz-adv-x="296" 
d="M171 700h141l-149 -700h-141z" />
    <glyph glyph-name="J" unicode="J" horiz-adv-x="649" 
d="M102 45.5q-68 55.5 -83 158.5l132 46q18 -129 126 -129q61 0 106 41t60 111l90 427h144l-97 -451q-26 -120 -106.5 -189.5t-193.5 -69.5q-110 0 -178 55.5z" />
    <glyph glyph-name="K" unicode="K" horiz-adv-x="713" 
d="M171 700h141l-64 -302l358 302h185l-411 -338l267 -362h-179l-234 332l-71 -332h-141z" />
    <glyph glyph-name="L" unicode="L" horiz-adv-x="646" 
d="M171 700h141l-121 -572h375l-27 -128h-517z" />
    <glyph glyph-name="M" unicode="M" horiz-adv-x="894" 
d="M171 700h178l107 -377l269 377h186l-149 -700h-131l109 515l-335 -465l-140 467l-109 -517h-134z" />
    <glyph glyph-name="N" unicode="N" horiz-adv-x="764" 
d="M171 700h134l243 -466l98 466h134l-149 -700h-124l-249 481l-102 -481h-134z" />
    <glyph glyph-name="O" unicode="O" horiz-adv-x="827" 
d="M234.5 32.5q-77.5 43.5 -121.5 119t-44 168.5q0 105 52.5 195t142 143t194.5 53q95 0 172.5 -43.5t121.5 -119t44 -168.5q0 -105 -52.5 -195t-142 -143t-194.5 -53q-95 0 -172.5 43.5zM240 223q26 -47 72 -74t104 -27q64 0 118 33.5t85.5 91t31.5 124.5q0 59 -26 106
t-72 74t-104 27q-64 0 -118 -33.5t-85.5 -91t-31.5 -124.5q0 -59 26 -106z" />
    <glyph glyph-name="P" unicode="P" horiz-adv-x="698" 
d="M171 700h312q64 0 112.5 -25t75.5 -70t27 -103q0 -66 -34.5 -120.5t-94 -86t-131.5 -31.5h-219l-56 -264h-141zM435 384q52 0 85.5 30t33.5 76q0 40 -26 62.5t-70 22.5h-172l-41 -191h190z" />
    <glyph glyph-name="Q" unicode="Q" horiz-adv-x="827" 
d="M234.5 32.5q-77.5 43.5 -121.5 119t-44 168.5q0 105 52.5 195t142 143t194.5 53q95 0 172.5 -43.5t121.5 -119t44 -168.5q0 -77 -29 -147.5t-82 -124.5l66 -108h-147l-20 32q-84 -43 -177 -43q-95 0 -172.5 43.5zM240 223q26 -47 72 -74t104 -27q53 0 99 23l-88 142
l105 72l78 -128q41 63 41 140q0 59 -26 106t-72 74t-104 27q-64 0 -118 -33.5t-85.5 -91t-31.5 -124.5q0 -59 26 -106z" />
    <glyph glyph-name="R" unicode="R" horiz-adv-x="704" 
d="M172 700h337q93 0 148.5 -43t55.5 -117q0 -15 -3 -33q-11 -66 -59.5 -116.5t-119.5 -72.5q70 -21 70 -118q0 -9 -2 -31l-1 -18q-2 -26 -2 -39q0 -70 23 -112h-166q-11 22 -11 59q0 34 8 80l2 18q4 28 4 39q0 38 -19.5 55.5t-62.5 17.5h-150l-56 -269h-145zM432 388
q55 0 92 32.5t37 80.5q0 34 -24.5 54.5t-65.5 20.5h-182l-40 -188h183z" />
    <glyph glyph-name="S" unicode="S" horiz-adv-x="650" 
d="M114 42.5q-81 54.5 -101 148.5l140 31q18 -57 58 -83.5t111 -26.5q55 0 89 25t34 67q0 28 -21 47t-65 30l-112 29q-78 20 -118.5 65t-40.5 111q0 68 34.5 119t95.5 78.5t137 27.5q113 0 187.5 -48t101.5 -139l-136 -31q-36 96 -157 96q-47 0 -83.5 -23.5t-36.5 -61.5
q0 -53 79 -74l106 -26q90 -22 133.5 -65.5t43.5 -116.5q0 -67 -36.5 -120.5t-100 -83.5t-143.5 -30q-118 0 -199 54.5z" />
    <glyph glyph-name="T" unicode="T" horiz-adv-x="669" 
d="M330 572h-232l28 128h604l-28 -128h-230l-122 -572h-142z" />
    <glyph glyph-name="U" unicode="U" horiz-adv-x="740" 
d="M198.5 21.5q-61.5 31.5 -94 88.5t-32.5 134q0 39 9 84l79 372h142l-82 -386q-6 -27 -6 -51q0 -64 37 -101.5t103 -37.5q68 0 118 45t67 122l87 409h141l-90 -422q-29 -136 -117 -212t-216 -76q-84 0 -145.5 31.5z" />
    <glyph glyph-name="V" unicode="V" horiz-adv-x="747" 
d="M105 700h148l95 -552l329 552h153l-427 -700h-165z" />
    <glyph glyph-name="W" unicode="W" horiz-adv-x="956" 
d="M135 700h140l-7 -474l234 474h134l34 -472l193 472h145l-299 -700h-150l-33 489l-240 -489h-148z" />
    <glyph glyph-name="X" unicode="X" horiz-adv-x="716" 
d="M301 365l-172 335h159l115 -230l211 230h172l-322 -342l183 -358h-159l-127 254l-233 -254h-171z" />
    <glyph glyph-name="Y" unicode="Y" horiz-adv-x="721" 
d="M290 269l-188 431h151l130 -304l256 304h167l-373 -434l-57 -266h-142z" />
    <glyph glyph-name="Z" unicode="Z" horiz-adv-x="634" 
d="M2 99l469 475h-365l27 126h560l-22 -99l-470 -475h374l-27 -126h-567z" />
    <glyph glyph-name="bracketleft" unicode="[" horiz-adv-x="416" 
d="M164 700h293l-23 -107h-166l-148 -699h166l-23 -107h-294z" />
    <glyph glyph-name="backslash" unicode="\" horiz-adv-x="517" 
d="M343 -209l-220 909h132l222 -909h-134z" />
    <glyph glyph-name="bracketright" unicode="]" horiz-adv-x="416" 
d="M245 -213h-293l23 107h166l148 699h-166l23 107h294z" />
    <glyph glyph-name="asciicircum" unicode="^" 
d="M356 700h112l99 -350h-105l-70 248l-175 -248h-110z" />
    <glyph glyph-name="underscore" unicode="_" horiz-adv-x="514" 
d="M-58 -80h486l-21 -96h-486z" />
    <glyph glyph-name="grave" unicode="`" 
d="M214 738h153l87 -130h-109z" />
    <glyph glyph-name="a" unicode="a" horiz-adv-x="590" 
d="M109 8q-37 17 -59 49.5t-22 75.5q0 73 56.5 115t180.5 52q94 8 141 28l1 11q0 33 -24.5 53t-65.5 20q-39 0 -68.5 -20t-42.5 -58l-132 30q28 81 92 124t156 43q67 0 117 -22.5t77 -62t27 -89.5q0 -22 -4 -39l-68 -318h-135l13 58q-30 -32 -71.5 -49.5t-87.5 -17.5
q-44 0 -81 17zM180.5 103.5q19.5 -14.5 53.5 -14.5q54 0 94.5 34t52.5 89l5 24q-23 -10 -48.5 -15t-64.5 -8q-62 -5 -87 -21t-25 -46q0 -28 19.5 -42.5z" />
    <glyph glyph-name="b" unicode="b" horiz-adv-x="649" 
d="M227.5 7.5q-40.5 15.5 -71.5 44.5l-11 -52h-132l149 700l140 30l-50 -234q56 32 120 32q65 0 118 -31.5t83.5 -86.5t30.5 -123q0 -80 -39 -148t-105.5 -107.5t-145.5 -39.5q-46 0 -86.5 15.5zM236 126q34 -16 73 -16q45 0 82.5 22t59.5 60t22 83q0 59 -39 98t-97 39
q-63 0 -112 -41l-43 -202q20 -27 54 -43z" />
    <glyph glyph-name="c" unicode="c" horiz-adv-x="606" 
d="M171.5 21q-59.5 31 -93 88t-33.5 132q0 82 38.5 148t105.5 104t149 38q87 0 149.5 -44.5t89.5 -131.5l-131 -32q-14 43 -44.5 66t-73.5 23q-41 0 -74.5 -20t-53 -57.5t-19.5 -87.5q0 -63 35 -100.5t93 -37.5q85 0 123 94l122 -43q-35 -84 -97.5 -127t-150.5 -43
q-75 0 -134.5 31z" />
    <glyph glyph-name="d" unicode="d" horiz-adv-x="649" 
d="M159 24.5q-53 31.5 -83.5 87t-30.5 122.5q0 80 39 147.5t105.5 107t145.5 39.5q46 0 86.5 -14.5t70.5 -40.5l48 227l140 30l-154 -730h-133l5 26q-55 -33 -121 -33q-65 0 -118 31.5zM215.5 148q38.5 -39 97.5 -39q64 0 110 40l44 206q-20 26 -54 41t-73 15
q-45 0 -82.5 -22t-59 -60t-21.5 -83q0 -59 38.5 -98z" />
    <glyph glyph-name="e" unicode="e" horiz-adv-x="618" 
d="M167 20.5q-58 30.5 -90 86.5t-32 129q0 78 37 146t103.5 108.5t149.5 40.5q70 0 124 -30.5t84 -84.5t30 -124q0 -26 -8 -68h-389q1 -53 36 -87t91 -34q45 0 79 21.5t52 59.5l112 -50q-37 -70 -101 -107t-146 -37q-74 0 -132 30.5zM449 311q-5 50 -37 78.5t-84 28.5
q-53 0 -91.5 -29t-51.5 -78h264z" />
    <glyph glyph-name="f" unicode="f" horiz-adv-x="448" 
d="M270.5 680.5q51.5 44.5 123.5 44.5q128 0 155 -116l-118 -38q-5 38 -41 38q-41 0 -52 -57l-7 -31h142l-24 -114h-141l-86 -407h-137l86 407h-117l24 114h117l8 37q16 78 67.5 122.5z" />
    <glyph glyph-name="g" unicode="g" horiz-adv-x="649" 
d="M86.5 -173q-69.5 41 -91.5 112l147 28q31 -68 115 -68q54 0 88 25t44 71l7 33q-53 -31 -119 -31q-65 0 -117.5 31t-82.5 86t-30 122q0 80 38.5 147t105 106.5t144.5 39.5q93 0 156 -55l10 47h133l-113 -540q-20 -94 -88.5 -144.5t-178.5 -50.5q-98 0 -167.5 41z
M216.5 150.5q37.5 -38.5 96.5 -38.5q62 0 109 38l44 207q-21 25 -54.5 39.5t-71.5 14.5q-44 0 -81 -22t-58.5 -59.5t-21.5 -81.5q0 -59 37.5 -97.5z" />
    <glyph glyph-name="h" unicode="h" horiz-adv-x="612" 
d="M162 700l140 30l-53 -247q64 46 142 46q79 0 126 -46t47 -121q0 -28 -5 -51l-67 -311h-134l64 298q3 15 3 29q0 39 -24.5 62.5t-66.5 23.5q-64 0 -109 -48l-78 -365h-134z" />
    <glyph glyph-name="i" unicode="i" horiz-adv-x="270" 
d="M123 521h134l-110 -521h-134zM168.5 713q25.5 26 59.5 26q29 0 49 -19.5t20 -48.5q0 -35 -26 -61.5t-60 -26.5q-29 0 -48.5 20t-19.5 49q0 35 25.5 61z" />
    <glyph glyph-name="j" unicode="j" horiz-adv-x="270" 
d="M-96.5 -202.5q-27.5 9.5 -44.5 24.5l44 102q20 -17 43 -17q25 0 39 14t20 45l118 555h135l-124 -579q-17 -78 -62 -116t-109 -38q-32 0 -59.5 9.5zM169 713q26 26 60 26q29 0 48.5 -19.5t19.5 -48.5q0 -35 -25.5 -61.5t-59.5 -26.5q-29 0 -49 20t-20 49q0 35 26 61z" />
    <glyph glyph-name="k" unicode="k" horiz-adv-x="586" 
d="M162 700l140 30l-92 -433l256 224h167l-307 -260l208 -261h-162l-176 231l-49 -231h-134z" />
    <glyph glyph-name="l" unicode="l" horiz-adv-x="270" 
d="M162 700l140 30l-155 -730h-134z" />
    <glyph glyph-name="m" unicode="m" horiz-adv-x="918" 
d="M123 521h134l-9 -41q61 49 135 49q50 0 87 -22t57 -62q79 84 181 84q74 0 118.5 -45.5t44.5 -118.5q0 -25 -6 -52l-67 -313h-134l64 301q3 15 3 30q0 37 -21.5 59.5t-58.5 22.5q-59 0 -106 -56q-2 -23 -6 -44l-67 -313h-134l64 299q3 17 3 31q0 38 -21.5 60.5t-59.5 22.5
q-53 0 -100 -48l-77 -365h-134z" />
    <glyph glyph-name="n" unicode="n" horiz-adv-x="612" 
d="M123 521h134l-8 -38q64 46 142 46q79 0 126 -46t47 -121q0 -28 -5 -51l-67 -311h-134l64 298q3 15 3 29q0 39 -24.5 62.5t-66.5 23.5q-65 0 -110 -48l-77 -365h-134z" />
    <glyph glyph-name="o" unicode="o" horiz-adv-x="637" 
d="M170.5 23q-58.5 33 -92 90t-33.5 127q0 78 39.5 145t106.5 106.5t145 39.5q72 0 130.5 -33t92 -90t33.5 -127q0 -78 -39.5 -145t-106.5 -106.5t-145 -39.5q-72 0 -130.5 33zM213 148q37 -39 94 -39q41 0 76.5 22.5t56 60.5t20.5 82q0 60 -37 99t-94 39q-41 0 -76.5 -22.5
t-56 -60.5t-20.5 -82q0 -60 37 -99z" />
    <glyph glyph-name="p" unicode="p" horiz-adv-x="649" 
d="M123 521h133l-6 -27q56 34 122 34q65 0 118 -31.5t83.5 -86.5t30.5 -123q0 -80 -39 -148t-105.5 -107.5t-145.5 -39.5q-46 0 -86 15t-70 43l-55 -254h-134zM236.5 126q33.5 -16 72.5 -16q45 0 82.5 22t59.5 60t22 83q0 59 -39 98t-97 39q-63 0 -111 -40l-43 -203
q20 -27 53.5 -43z" />
    <glyph glyph-name="q" unicode="q" horiz-adv-x="649" 
d="M277 -7q-65 0 -118 31.5t-83.5 87t-30.5 122.5q0 80 39 147.5t105.5 107t145.5 39.5q47 0 87.5 -14.5t70.5 -41.5l10 49h133l-153 -725h-135l49 229q-56 -32 -120 -32zM215.5 148q38.5 -39 97.5 -39q64 0 110 40l44 205q-20 26 -54 41.5t-73 15.5q-45 0 -82.5 -22
t-59 -60t-21.5 -83q0 -59 38.5 -98z" />
    <glyph glyph-name="r" unicode="r" horiz-adv-x="511" 
d="M123 521h134l-8 -39q25 23 57.5 36t65.5 13q61 0 92 -47t29 -133l-128 -25q1 42 -14 64.5t-45 22.5q-23 0 -44 -12.5t-38 -35.5l-77 -365h-134z" />
    <glyph glyph-name="s" unicode="s" horiz-adv-x="528" 
d="M91 29q-62 40 -83 115l123 23q29 -75 121 -75q43 0 67 16t24 43q0 19 -13 29.5t-45 18.5l-97 22q-61 14 -93.5 50.5t-32.5 91.5q0 48 26.5 86t75.5 59.5t113 21.5q86 0 145.5 -36.5t81.5 -106.5l-119 -23q-31 63 -118 63q-38 0 -59.5 -14.5t-21.5 -38.5q0 -19 14 -30.5
t47 -18.5l86 -19q138 -30 138 -134q0 -52 -28.5 -93.5t-79.5 -65.5t-115 -24q-95 0 -157 40z" />
    <glyph glyph-name="t" unicode="t" horiz-adv-x="452" 
d="M146.5 28.5q-41.5 37.5 -41.5 102.5q0 19 5 46l47 230h-106l24 114h107l27 133l144 31l-35 -164h148l-25 -114h-147l-49 -232q-2 -14 -2 -19q0 -21 11.5 -32t29.5 -11q14 0 24.5 4t25.5 15l43 -93q-23 -22 -54.5 -35t-64.5 -13q-70 0 -111.5 37.5z" />
    <glyph glyph-name="u" unicode="u" horiz-adv-x="612" 
d="M94 37.5q-47 45.5 -47 120.5q0 25 6 52l66 311h134l-63 -298q-3 -15 -3 -30q0 -39 24 -62t67 -23q64 0 109 48l78 365h134l-111 -521h-134l8 38q-62 -46 -142 -46q-79 0 -126 45.5z" />
    <glyph glyph-name="v" unicode="v" horiz-adv-x="598" 
d="M70 521h143l65 -347l213 347h147l-330 -521h-129z" />
    <glyph glyph-name="w" unicode="w" horiz-adv-x="786" 
d="M80 521h125l13 -336l172 336h113l30 -336l156 336h128l-251 -521h-129l-28 334l-170 -334h-128z" />
    <glyph glyph-name="x" unicode="x" horiz-adv-x="573" 
d="M214 267l-135 254h150l80 -155l145 155h156l-245 -256l139 -265h-149l-85 166l-156 -166h-157z" />
    <glyph glyph-name="y" unicode="y" horiz-adv-x="595" 
d="M-10 -202.5q-34 11.5 -56 31.5l53 106q15 -13 30 -18.5t34 -5.5q56 0 88 56l21 33l-90 521h143l54 -366l224 366h147l-371 -590q-47 -75 -98 -110t-110 -35q-35 0 -69 11.5z" />
    <glyph glyph-name="z" unicode="z" horiz-adv-x="519" 
d="M7 97l314 309h-247l24 115h427l-20 -97l-315 -309h256l-25 -115h-435z" />
    <glyph glyph-name="braceleft" unicode="{" horiz-adv-x="450" 
d="M94.5 -181q-41.5 33 -41.5 86q0 48 34 98l53 80q21 32 21 61q0 25 -16.5 40.5t-47.5 15.5h-83l22 102h82q43 0 68 24t25 64q0 7 -2 21l-16 92q-3 20 -3 37q0 49 23.5 87.5t66 60.5t97.5 22q62 0 109 -22l-40 -97q-33 15 -62 15q-34 0 -56.5 -21.5t-22.5 -60.5q0 -7 2 -23
l17 -101q2 -14 2 -22q0 -51 -37 -87.5t-93 -46.5q40 -11 63 -36.5t23 -60.5q0 -33 -22 -68l-56 -88q-19 -31 -19 -54t17 -35.5t44 -12.5q25 0 51 8v-100q-45 -11 -87 -11q-74 0 -115.5 33z" />
    <glyph glyph-name="bar" unicode="|" horiz-adv-x="348" 
d="M205 700h125l-194 -911h-124z" />
    <glyph glyph-name="braceright" unicode="}" horiz-adv-x="450" 
d="M347.5 677q41.5 -33 41.5 -86q0 -48 -34 -98l-53 -80q-21 -31 -21 -61q0 -25 16.5 -40.5t47.5 -15.5h83l-22 -102h-82q-43 0 -68 -24t-25 -64q0 -7 2 -21l16 -92q3 -20 3 -37q0 -49 -23.5 -87.5t-66 -60.5t-97.5 -22q-62 0 -110 22l41 97q33 -15 62 -15q34 0 56.5 21.5
t22.5 60.5q0 7 -2 23l-17 101q-2 14 -2 22q0 51 37 87.5t93 46.5q-40 11 -63 36.5t-23 60.5q0 33 22 68l56 88q19 31 19 54t-17 35.5t-44 12.5q-25 0 -52 -8l1 100q45 11 86 11q75 0 116.5 -33z" />
    <glyph glyph-name="asciitilde" unicode="~" 
d="M136.5 432q39.5 40 89.5 40q45 0 100 -33l68 -43q34 -22 57 -22q22 0 39 17.5t31 54.5l89 -21q-25 -75 -64.5 -115t-89.5 -40q-47 0 -99 34l-68 42q-20 13 -33 18t-25 5q-43 0 -69 -72l-89 20q24 75 63.5 115z" />
    <glyph glyph-name="uni00A0" unicode="&#xa0;" horiz-adv-x="231" 
 />
    <glyph glyph-name="exclamdown" unicode="&#xa1;" horiz-adv-x="265" 
d="M103 -204h-136l120 491h103zM116 478.5q27 27.5 62 27.5q31 0 51.5 -20.5t20.5 -50.5q0 -36 -27 -63.5t-64 -27.5q-30 0 -50 20.5t-20 51.5q0 35 27 62.5z" />
    <glyph glyph-name="cent" unicode="&#xa2;" horiz-adv-x="606" 
d="M412 608l-17 -82q66 -13 112.5 -56t69.5 -115l-131 -32q-21 65 -77 83l-62 -297h2q85 0 123 94l122 -43q-35 -84 -97.5 -127t-150.5 -43q-16 0 -24 1l-22 -107h-62l25 117q-81 23 -129.5 86.5t-48.5 153.5q0 81 38 147t104 104t147 39l16 77h62zM198.5 170.5
q17.5 -32.5 49.5 -48.5l61 289q-56 -7 -92 -51t-36 -113q0 -44 17.5 -76.5z" />
    <glyph glyph-name="sterling" unicode="&#xa3;" horiz-adv-x="678" 
d="M36.5 22q-37.5 32 -37.5 84q0 36 19 65t52.5 46t75.5 17q32 0 60 -11q0 37 -10 75h-134l19 89h90q-11 46 -11 84q0 70 32 124.5t90 85t133 30.5q96 0 163 -51t89 -143l-136 -31q-10 50 -41 76.5t-79 26.5q-55 0 -87 -34t-32 -95q0 -38 11 -73h190l-19 -89h-142
q11 -35 11 -73q0 -40 -13 -81q47 -31 91 -31q38 0 58 26t22 81l130 -5q-2 -108 -52 -166.5t-132 -58.5q-57 0 -97.5 17.5t-73.5 46.5q-29 -30 -66 -47t-77 -17q-59 0 -96.5 32zM110.5 83.5q11.5 -10.5 31.5 -10.5q41 0 56 57q-27 21 -54 21q-20 0 -32.5 -12t-12.5 -30
q0 -15 11.5 -25.5z" />
    <glyph glyph-name="currency" unicode="&#xa4;" horiz-adv-x="715" 
d="M42 111l95 96q-51 69 -51 156t50 156l-94 97l66 67l97 -98q67 45 152 45q87 0 154 -46l97 98l65 -65l-96 -97q51 -69 51 -157t-50 -155l96 -96l-67 -67l-96 98q-69 -47 -154 -47q-87 0 -154 47l-96 -97zM232 286.5q19 -34.5 52 -54.5t73 -20t73.5 20t52.5 54.5t19 76.5
t-19.5 77t-52.5 55t-73 20q-39 0 -72.5 -20t-52.5 -55t-19 -77t19 -76.5z" />
    <glyph glyph-name="yen" unicode="&#xa5;" horiz-adv-x="726" 
d="M261 130h-172l15 74h172l13 59h-171l15 73h132l-163 364h151l130 -304l256 304h167l-317 -364h131l-15 -73h-173l-13 -59h172l-15 -74h-172l-28 -130h-142z" />
    <glyph glyph-name="brokenbar" unicode="&#xa6;" horiz-adv-x="350" 
d="M117 284l89 416h126l-89 -416h-126zM100 204h126l-87 -415h-126z" />
    <glyph glyph-name="section" unicode="&#xa7;" horiz-adv-x="544" 
d="M104.5 -15q-56.5 37 -77.5 105l119 24q16 -33 40.5 -48t60.5 -15q34 0 54 14t20 38q0 32 -42 51l-99 42q-62 26 -89.5 58.5t-27.5 79.5q0 46 23.5 81.5t67.5 56.5q-23 34 -23 75q0 47 25 84.5t70.5 58.5t103.5 21q82 0 138.5 -37.5t78.5 -105.5l-120 -23q-16 33 -40 48
t-60 15q-35 0 -54.5 -14.5t-19.5 -38.5q0 -32 42 -50l99 -42q61 -26 89 -59t28 -79t-23.5 -82t-67.5 -57q23 -32 23 -75q0 -47 -25 -84t-70.5 -58t-104.5 -21q-82 0 -138.5 37zM230 291l108 -44l11 -5q23 9 36 25.5t13 37.5q0 40 -55 62l-107 45q-2 1 -5 2t-6 3
q-23 -9 -36 -25.5t-13 -37.5q0 -40 54 -63z" />
    <glyph glyph-name="dieresis" unicode="&#xa8;" 
d="M242.5 620.5q-17.5 18.5 -17.5 45.5q0 33 24 57t56 24q25 0 42.5 -18.5t17.5 -45.5q0 -32 -23.5 -56.5t-54.5 -24.5q-27 0 -44.5 18.5zM460 722.5q24 24.5 56 24.5q25 0 42.5 -18.5t17.5 -45.5q0 -32 -23.5 -56.5t-54.5 -24.5q-26 0 -44 18.5t-18 45.5q0 32 24 56.5z" />
    <glyph glyph-name="copyright" unicode="&#xa9;" horiz-adv-x="803" 
d="M220.5 31q-72.5 41 -113.5 113t-41 161q0 109 53.5 202t144 148.5t195.5 55.5q89 0 161.5 -41t113.5 -113.5t41 -161.5q0 -108 -53.5 -201t-144 -148.5t-195.5 -55.5q-89 0 -161.5 41zM169.5 180.5q32.5 -59.5 90 -93t128.5 -33.5q83 0 156 46t116.5 123t43.5 164
q0 73 -32.5 132t-90.5 92.5t-129 33.5q-82 0 -154.5 -46t-116.5 -122.5t-44 -162.5q0 -74 32.5 -133.5zM262.5 441.5q26.5 47.5 73.5 74t106 26.5q66 0 109.5 -33t54.5 -90l-100 -20q-8 22 -26 34.5t-44 12.5q-41 0 -67 -29.5t-26 -75.5q0 -40 22 -63t55 -23q51 0 68 50
l99 -21q-13 -58 -58.5 -90.5t-113.5 -32.5q-83 0 -131 47t-48 127q0 59 26.5 106.5z" />
    <glyph glyph-name="ordfeminine" unicode="&#xaa;" horiz-adv-x="459" 
d="M110.5 332q-33.5 29 -33.5 73q0 62 50.5 95t135.5 37q54 3 98 18q1 4 1 11q0 25 -18 39.5t-51 14.5q-28 0 -49.5 -15t-30.5 -42l-105 24q19 59 68.5 91.5t118.5 32.5q79 0 125.5 -37t46.5 -94q0 -10 -4 -30l-51 -240h-103l9 43q-23 -23 -53.5 -36.5t-63.5 -13.5
q-57 0 -90.5 29zM194 389q15 -10 41 -10q37 0 68 25.5t40 65.5l3 16q-34 -13 -84 -16q-37 -2 -60 -16t-23 -38q0 -17 15 -27z" />
    <glyph glyph-name="guillemotleft" unicode="&#xab;" horiz-adv-x="709" 
d="M176 259l177 -259h-137l-183 260l294 261h139zM423 259l177 -259h-137l-183 260l294 261h139z" />
    <glyph glyph-name="logicalnot" unicode="&#xac;" horiz-adv-x="588" 
d="M391 227h-341l24 116h476l-73 -343h-134z" />
    <glyph glyph-name="uni00AD" unicode="&#xad;" horiz-adv-x="488" 
d="M442 343l-24 -116h-370l24 116h370z" />
    <glyph glyph-name="registered" unicode="&#xae;" horiz-adv-x="507" 
d="M195 329.5q-41 23.5 -64 65t-23 93.5q0 61 31 114t83.5 85t111.5 32q51 0 92 -23.5t64.5 -65t23.5 -93.5q0 -60 -31.5 -113.5t-83.5 -85.5t-112 -32q-51 0 -92 23.5zM194 389.5q37 -38.5 97 -38.5q48 0 88 24.5t63.5 67t23.5 92.5q0 63 -37.5 101.5t-98.5 38.5
q-47 0 -87 -25t-63 -67t-23 -92q0 -63 37 -101.5zM262 608h77q30 0 47 -14t17 -38q0 -38 -43 -51q21 -4 18 -23l-4 -41l-1 -10q0 -5 2 -11h-45q-2 6 -1 19l4 32v3q0 7 -4 9.5t-13 2.5h-32l-14 -66h-48zM325 520q13 0 22 8.5t9 21.5q0 21 -23 21h-31l-10 -51h33z" />
    <glyph glyph-name="macron" unicode="&#xaf;" 
d="M257 711h310l-20 -86h-309z" />
    <glyph glyph-name="degree" unicode="&#xb0;" horiz-adv-x="397" 
d="M156.5 454.5q-36.5 36.5 -36.5 92.5q0 43 21.5 80t58 59.5t78.5 22.5q56 0 93 -36.5t37 -92.5q0 -43 -22 -80t-58.5 -59.5t-78.5 -22.5q-56 0 -92.5 36.5zM211.5 510q17.5 -19 42.5 -19q32 0 56 23.5t24 56.5q0 28 -17.5 46.5t-43.5 18.5q-32 0 -55.5 -23.5t-23.5 -56.5
q0 -27 17.5 -46z" />
    <glyph glyph-name="plusminus" unicode="&#xb1;" 
d="M68 105h434l-22 -106h-434zM144 460h166l33 156h103l-34 -156h166l-23 -105h-165l-34 -156h-102l34 156h-167z" />
    <glyph glyph-name="uni00B2" unicode="&#xb2;" horiz-adv-x="330" 
d="M163 515l83 38q46 20 46 50q0 16 -11 25t-30 9q-44 0 -56 -48l-75 17q13 48 47.5 73.5t86.5 25.5q54 0 84.5 -26t30.5 -72q0 -78 -94 -117l-66 -28q-21 -9 -30.5 -19.5t-14.5 -26.5h165l-14 -66h-253l10 44q19 91 91 121z" />
    <glyph glyph-name="uni00B3" unicode="&#xb3;" horiz-adv-x="352" 
d="M127 366q-35 27 -46 79l77 17q9 -53 64 -53q24 0 40 12t16 32q0 18 -12 28.5t-32 10.5h-45l13 65h44q27 0 42.5 11.5t15.5 31.5q0 17 -12.5 27t-32.5 10q-44 0 -61 -49l-77 18q15 47 52 73t88 26q55 0 87.5 -26.5t32.5 -67.5q0 -34 -22.5 -59.5t-59.5 -32.5q28 -8 43 -26
t15 -44q0 -30 -19 -55t-50.5 -40t-68.5 -15q-57 0 -92 27z" />
    <glyph glyph-name="acute" unicode="&#xb4;" 
d="M438 738h154l-159 -130h-112z" />
    <glyph glyph-name="uni00B5" unicode="&#xb5;" horiz-adv-x="623" 
d="M120 521h137l-64 -303q-4 -22 -4 -30q0 -37 23.5 -58.5t65.5 -21.5q34 0 64.5 13.5t53.5 38.5l77 361h137l-111 -521h-136l9 42q-72 -52 -158 -52q-38 0 -66 14l-46 -213h-137z" />
    <glyph glyph-name="paragraph" unicode="&#xb6;" horiz-adv-x="754" 
d="M340 253h-13q-66 0 -116.5 24t-78 68t-27.5 101q0 73 35 130.5t96.5 90.5t138.5 33h375l-149 -700h-110l54 253h-95l-54 -253h-110zM254 388.5q30 -27.5 80 -27.5h28l49 228h-54q-57 0 -95 -36t-38 -91q0 -46 30 -73.5zM568 361l48 228h-95l-48 -228h95z" />
    <glyph glyph-name="periodcentered" unicode="&#xb7;" horiz-adv-x="280" 
d="M85 225q-20 20 -20 50q0 37 27 64t63 27q30 0 50 -20.5t20 -50.5q0 -36 -27 -63t-62 -27q-31 0 -51 20z" />
    <glyph glyph-name="cedilla" unicode="&#xb8;" horiz-adv-x="30" 
d="M138.5 -214q-32.5 21 -45.5 60l74 15q15 -32 56 -32q23 0 36.5 11t13.5 29q0 17 -13 26.5t-35 9.5h-39l47 95h67l-24 -47q36 -6 56 -27t20 -53q0 -50 -35.5 -79t-96.5 -29q-49 0 -81.5 21z" />
    <glyph glyph-name="uni00B9" unicode="&#xb9;" horiz-adv-x="221" 
d="M179 615l-79 -29l16 72l111 42h52l-75 -350h-82z" />
    <glyph glyph-name="ordmasculine" unicode="&#xba;" horiz-adv-x="505" 
d="M193 327.5q-44 24.5 -69.5 68t-25.5 96.5q0 59 29.5 109t80.5 79.5t110 29.5q55 0 99 -24.5t69.5 -68t25.5 -96.5q0 -58 -30 -108t-81 -80t-109 -30q-55 0 -99 24.5zM229 424.5q27 -28.5 68 -28.5q46 0 78.5 35.5t32.5 85.5q0 43 -27 71t-69 28q-45 0 -77.5 -35
t-32.5 -84q0 -44 27 -72.5z" />
    <glyph glyph-name="guillemotright" unicode="&#xbb;" horiz-adv-x="709" 
d="M532 262l-176 259h137l182 -260l-293 -261h-139zM285 262l-177 259h137l183 -260l-293 -261h-140z" />
    <glyph glyph-name="onequarter" unicode="&#xbc;" horiz-adv-x="695" 
d="M498 77h-193l15 68l222 205h97l-43 -204h43l-15 -69h-43l-16 -77h-83zM554 700h97l-538 -700h-96zM116 658l111 42h52l-75 -350h-82l57 265l-79 -29zM514 146l24 115l-124 -115h100z" />
    <glyph glyph-name="onehalf" unicode="&#xbd;" horiz-adv-x="723" 
d="M179 615l-79 -29l16 72l111 42h52l-75 -350h-82zM552 700h98l-539 -700h-96zM384 44q19 91 91 121l83 38q46 20 46 50q0 16 -11 25t-30 9q-44 0 -56 -48l-75 17q13 48 47.5 73.5t86.5 25.5q54 0 84.5 -26t30.5 -72q0 -78 -94 -117l-66 -28q-21 -9 -30.5 -19.5
t-14.5 -26.5h165l-14 -66h-253z" />
    <glyph glyph-name="threequarters" unicode="&#xbe;" horiz-adv-x="788" 
d="M592 77h-193l14 68l223 205h97l-44 -204h43l-15 -69h-42l-16 -77h-84zM158 462q9 -53 64 -53q24 0 40 12t16 32q0 18 -12 28.5t-32 10.5h-45l13 65h44q27 0 42.5 11.5t15.5 31.5q0 17 -12.5 27t-32.5 10q-44 0 -61 -49l-77 18q15 47 52 73t88 26q55 0 87.5 -26.5
t32.5 -67.5q0 -34 -22.5 -59.5t-59.5 -32.5q28 -8 43 -26t15 -44q0 -30 -19 -55t-50.5 -40t-68.5 -15q-57 0 -92 27t-46 79zM647 700h97l-538 -700h-96zM607 146l24 115l-124 -115h100z" />
    <glyph glyph-name="questiondown" unicode="&#xbf;" horiz-adv-x="545" 
d="M328 173.5q-25 -40.5 -78 -72.5l-62 -38q-63 -36 -63 -91q0 -31 26 -51t67 -20q50 0 84 25t46 70l123 -27q-20 -83 -90.5 -133t-168.5 -50q-64 0 -114.5 22.5t-79 62.5t-28.5 90q0 59 32 102.5t115 91.5l38 21q36 21 52.5 45t23.5 64h113q-11 -71 -36 -111.5zM283 477.5
q27 27.5 62 27.5q31 0 51 -20.5t20 -50.5q0 -37 -27 -64t-63 -27q-30 0 -50 20.5t-20 51.5q0 35 27 62.5z" />
    <glyph glyph-name="Agrave" unicode="&#xc0;" horiz-adv-x="747" 
d="M384 700h164l133 -700h-146l-32 184h-284l-108 -184h-155zM484 300l-45 258l-152 -258h197zM298 917h153l87 -130h-109z" />
    <glyph glyph-name="Aacute" unicode="&#xc1;" horiz-adv-x="747" 
d="M384 700h164l133 -700h-146l-32 184h-284l-108 -184h-155zM484 300l-45 258l-152 -258h197zM522 917h154l-159 -130h-112z" />
    <glyph glyph-name="Acircumflex" unicode="&#xc2;" horiz-adv-x="747" 
d="M384 700h164l133 -700h-146l-32 184h-284l-108 -184h-155zM484 300l-45 258l-152 -258h197zM434 920h138l83 -136h-105l-56 74l-89 -74h-112z" />
    <glyph glyph-name="Atilde" unicode="&#xc3;" horiz-adv-x="747" 
d="M384 700h164l133 -700h-146l-32 184h-284l-108 -184h-155zM484 300l-45 258l-152 -258h197zM345 892.5q30 27.5 67 27.5q23 0 43.5 -9t47.5 -26q19 -12 32 -18t25 -6q14 0 24.5 11.5t24.5 41.5l77 -26q-25 -58 -55 -86t-68 -28q-23 0 -42.5 8.5t-45.5 25.5
q-21 13 -33.5 19t-25.5 6t-24.5 -12.5t-23.5 -40.5l-78 27q25 58 55 85.5z" />
    <glyph glyph-name="Adieresis" unicode="&#xc4;" horiz-adv-x="747" 
d="M384 700h164l133 -700h-146l-32 184h-284l-108 -184h-155zM484 300l-45 258l-152 -258h197zM326.5 799.5q-17.5 18.5 -17.5 45.5q0 33 24 57t56 24q25 0 42.5 -18.5t17.5 -45.5q0 -32 -23.5 -56.5t-54.5 -24.5q-27 0 -44.5 18.5zM544 901.5q24 24.5 56 24.5
q25 0 42.5 -18.5t17.5 -45.5q0 -32 -23.5 -56.5t-54.5 -24.5q-26 0 -44 18.5t-18 45.5q0 32 24 56.5z" />
    <glyph glyph-name="Aring" unicode="&#xc5;" horiz-adv-x="747" 
d="M384 700h164l133 -700h-146l-32 184h-284l-108 -184h-155zM484 300l-45 258l-152 -258h197zM402 795q-31 30 -31 76q0 34 18.5 65t48.5 49.5t64 18.5q49 0 80 -30t31 -76q0 -34 -18.5 -65t-49 -49.5t-64.5 -18.5q-48 0 -79 30zM446.5 837.5q15.5 -15.5 38.5 -15.5
q28 0 48 20.5t20 49.5q0 24 -15.5 39.5t-38.5 15.5q-28 0 -48 -20.5t-20 -49.5q0 -24 15.5 -39.5z" />
    <glyph glyph-name="AE" unicode="&#xc6;" horiz-adv-x="994" 
d="M386 700h645l-26 -126h-426l26 -160h240l-27 -122h-196l26 -166h261l-26 -126h-357l-27 184h-284l-112 -184h-147zM483 300l-38 258l-159 -258h197z" />
    <glyph glyph-name="Ccedilla" unicode="&#xc7;" horiz-adv-x="790" 
d="M264.5 -214q-32.5 21 -45.5 60l74 15q15 -32 56 -32q23 0 36.5 11t13.5 29q0 17 -13 26.5t-35 9.5h-39l43 87q-86 10 -150.5 52.5t-99.5 112.5t-35 160q0 111 51 201t141 141.5t200 51.5q82 0 149 -29.5t109.5 -83.5t53.5 -126l-147 -34q-13 67 -58.5 103.5t-115.5 36.5
q-67 0 -119.5 -32.5t-82.5 -90.5t-30 -130q0 -93 52 -148t139 -55q69 0 117 36.5t67 104.5l147 -35q-26 -106 -112.5 -170.5t-210.5 -68.5l-18 -36q36 -6 56 -27t20 -53q0 -50 -35.5 -79t-96.5 -29q-49 0 -81.5 21z" />
    <glyph glyph-name="Egrave" unicode="&#xc8;" horiz-adv-x="664" 
d="M171 700h527l-27 -126h-385l-35 -160h254l-26 -122h-253l-36 -166h390l-27 -126h-531zM270 917h153l87 -130h-109z" />
    <glyph glyph-name="Eacute" unicode="&#xc9;" horiz-adv-x="664" 
d="M171 700h527l-27 -126h-385l-35 -160h254l-26 -122h-253l-36 -166h390l-27 -126h-531zM494 917h154l-159 -130h-112z" />
    <glyph glyph-name="Ecircumflex" unicode="&#xca;" horiz-adv-x="664" 
d="M171 700h527l-27 -126h-385l-35 -160h254l-26 -122h-253l-36 -166h390l-27 -126h-531zM405 920h138l83 -136h-105l-56 74l-89 -74h-112z" />
    <glyph glyph-name="Edieresis" unicode="&#xcb;" horiz-adv-x="664" 
d="M171 700h527l-27 -126h-385l-35 -160h254l-26 -122h-253l-36 -166h390l-27 -126h-531zM298.5 799.5q-17.5 18.5 -17.5 45.5q0 33 24 57t56 24q25 0 42.5 -18.5t17.5 -45.5q0 -32 -23.5 -56.5t-54.5 -24.5q-27 0 -44.5 18.5zM516 901.5q24 24.5 56 24.5q25 0 42.5 -18.5
t17.5 -45.5q0 -32 -23.5 -56.5t-54.5 -24.5q-26 0 -44 18.5t-18 45.5q0 32 24 56.5z" />
    <glyph glyph-name="Igrave" unicode="&#xcc;" horiz-adv-x="296" 
d="M171 700h141l-149 -700h-141zM82 917h153l87 -130h-109z" />
    <glyph glyph-name="Iacute" unicode="&#xcd;" horiz-adv-x="296" 
d="M171 700h141l-149 -700h-141zM306 917h154l-159 -130h-112z" />
    <glyph glyph-name="Icircumflex" unicode="&#xce;" horiz-adv-x="296" 
d="M171 700h141l-149 -700h-141zM217 920h138l83 -136h-105l-56 74l-89 -74h-112z" />
    <glyph glyph-name="Idieresis" unicode="&#xcf;" horiz-adv-x="296" 
d="M171 700h141l-149 -700h-141zM110.5 799.5q-17.5 18.5 -17.5 45.5q0 33 24 57t56 24q25 0 42.5 -18.5t17.5 -45.5q0 -32 -23.5 -56.5t-54.5 -24.5q-27 0 -44.5 18.5zM328 901.5q24 24.5 56 24.5q25 0 42.5 -18.5t17.5 -45.5q0 -32 -23.5 -56.5t-54.5 -24.5
q-26 0 -44 18.5t-18 45.5q0 32 24 56.5z" />
    <glyph glyph-name="Eth" unicode="&#xd0;" horiz-adv-x="777" 
d="M108 293h-77l24 115h78l62 292h229q92 0 166 -40t116 -111.5t42 -160.5q0 -104 -55 -193.5t-148 -142t-201 -52.5h-298zM355 129q67 0 123 33t89 90.5t33 125.5q0 56 -24.5 100t-68.5 68.5t-100 24.5h-98l-35 -163h168l-24 -115h-169l-35 -164h141z" />
    <glyph glyph-name="Ntilde" unicode="&#xd1;" horiz-adv-x="764" 
d="M171 700h134l243 -466l98 466h134l-149 -700h-124l-249 481l-102 -481h-134zM362 892.5q30 27.5 67 27.5q23 0 43.5 -9t47.5 -26q19 -12 32 -18t25 -6q14 0 24.5 11.5t24.5 41.5l77 -26q-25 -58 -55 -86t-68 -28q-23 0 -42.5 8.5t-45.5 25.5q-21 13 -33.5 19t-25.5 6
t-24.5 -12.5t-23.5 -40.5l-78 27q25 58 55 85.5z" />
    <glyph glyph-name="Ograve" unicode="&#xd2;" horiz-adv-x="827" 
d="M234.5 32.5q-77.5 43.5 -121.5 119t-44 168.5q0 105 52.5 195t142 143t194.5 53q95 0 172.5 -43.5t121.5 -119t44 -168.5q0 -105 -52.5 -195t-142 -143t-194.5 -53q-95 0 -172.5 43.5zM240 223q26 -47 72 -74t104 -27q64 0 118 33.5t85.5 91t31.5 124.5q0 59 -26 106
t-72 74t-104 27q-64 0 -118 -33.5t-85.5 -91t-31.5 -124.5q0 -59 26 -106zM304 917h153l87 -130h-109z" />
    <glyph glyph-name="Oacute" unicode="&#xd3;" horiz-adv-x="827" 
d="M234.5 32.5q-77.5 43.5 -121.5 119t-44 168.5q0 105 52.5 195t142 143t194.5 53q95 0 172.5 -43.5t121.5 -119t44 -168.5q0 -105 -52.5 -195t-142 -143t-194.5 -53q-95 0 -172.5 43.5zM240 223q26 -47 72 -74t104 -27q64 0 118 33.5t85.5 91t31.5 124.5q0 59 -26 106
t-72 74t-104 27q-64 0 -118 -33.5t-85.5 -91t-31.5 -124.5q0 -59 26 -106zM528 917h154l-159 -130h-112z" />
    <glyph glyph-name="Ocircumflex" unicode="&#xd4;" horiz-adv-x="827" 
d="M234.5 32.5q-77.5 43.5 -121.5 119t-44 168.5q0 105 52.5 195t142 143t194.5 53q95 0 172.5 -43.5t121.5 -119t44 -168.5q0 -105 -52.5 -195t-142 -143t-194.5 -53q-95 0 -172.5 43.5zM240 223q26 -47 72 -74t104 -27q64 0 118 33.5t85.5 91t31.5 124.5q0 59 -26 106
t-72 74t-104 27q-64 0 -118 -33.5t-85.5 -91t-31.5 -124.5q0 -59 26 -106zM439 920h138l83 -136h-105l-56 74l-89 -74h-112z" />
    <glyph glyph-name="Otilde" unicode="&#xd5;" horiz-adv-x="827" 
d="M234.5 32.5q-77.5 43.5 -121.5 119t-44 168.5q0 105 52.5 195t142 143t194.5 53q95 0 172.5 -43.5t121.5 -119t44 -168.5q0 -105 -52.5 -195t-142 -143t-194.5 -53q-95 0 -172.5 43.5zM240 223q26 -47 72 -74t104 -27q64 0 118 33.5t85.5 91t31.5 124.5q0 59 -26 106
t-72 74t-104 27q-64 0 -118 -33.5t-85.5 -91t-31.5 -124.5q0 -59 26 -106zM351 892.5q30 27.5 67 27.5q23 0 43.5 -9t47.5 -26q19 -12 32 -18t25 -6q14 0 24.5 11.5t24.5 41.5l77 -26q-25 -58 -55 -86t-68 -28q-23 0 -42.5 8.5t-45.5 25.5q-21 13 -33.5 19t-25.5 6
t-24.5 -12.5t-23.5 -40.5l-78 27q25 58 55 85.5z" />
    <glyph glyph-name="Odieresis" unicode="&#xd6;" horiz-adv-x="827" 
d="M234.5 32.5q-77.5 43.5 -121.5 119t-44 168.5q0 105 52.5 195t142 143t194.5 53q95 0 172.5 -43.5t121.5 -119t44 -168.5q0 -105 -52.5 -195t-142 -143t-194.5 -53q-95 0 -172.5 43.5zM240 223q26 -47 72 -74t104 -27q64 0 118 33.5t85.5 91t31.5 124.5q0 59 -26 106
t-72 74t-104 27q-64 0 -118 -33.5t-85.5 -91t-31.5 -124.5q0 -59 26 -106zM332.5 799.5q-17.5 18.5 -17.5 45.5q0 33 24 57t56 24q25 0 42.5 -18.5t17.5 -45.5q0 -32 -23.5 -56.5t-54.5 -24.5q-27 0 -44.5 18.5zM550 901.5q24 24.5 56 24.5q25 0 42.5 -18.5t17.5 -45.5
q0 -32 -23.5 -56.5t-54.5 -24.5q-26 0 -44 18.5t-18 45.5q0 32 24 56.5z" />
    <glyph glyph-name="multiply" unicode="&#xd7;" 
d="M101 206l175 152l-110 153l77 66l110 -152l174 152l49 -65l-175 -153l110 -153l-77 -66l-110 153l-174 -152z" />
    <glyph glyph-name="Oslash" unicode="&#xd8;" horiz-adv-x="828" 
d="M294 6q-53 17 -95 50l-57 -56h-132l123 121q-64 86 -64 199q0 105 52.5 195t142 143t194.5 53q119 0 207 -66l56 55h133l-122 -120q31 -42 47.5 -93t16.5 -107q0 -105 -52.5 -195t-142 -143t-194.5 -53q-60 0 -113 17zM240 227l323 317q-49 34 -114 34q-64 0 -118 -33.5
t-85.5 -91t-31.5 -124.5q0 -55 26 -102zM416 122q64 0 118 33.5t85.5 91t31.5 124.5q0 56 -26 103l-324 -316q50 -36 115 -36z" />
    <glyph glyph-name="Ugrave" unicode="&#xd9;" horiz-adv-x="740" 
d="M198.5 21.5q-61.5 31.5 -94 88.5t-32.5 134q0 39 9 84l79 372h142l-82 -386q-6 -27 -6 -51q0 -64 37 -101.5t103 -37.5q68 0 118 45t67 122l87 409h141l-90 -422q-29 -136 -117 -212t-216 -76q-84 0 -145.5 31.5zM297 917h153l87 -130h-109z" />
    <glyph glyph-name="Uacute" unicode="&#xda;" horiz-adv-x="740" 
d="M198.5 21.5q-61.5 31.5 -94 88.5t-32.5 134q0 39 9 84l79 372h142l-82 -386q-6 -27 -6 -51q0 -64 37 -101.5t103 -37.5q68 0 118 45t67 122l87 409h141l-90 -422q-29 -136 -117 -212t-216 -76q-84 0 -145.5 31.5zM521 917h154l-159 -130h-112z" />
    <glyph glyph-name="Ucircumflex" unicode="&#xdb;" horiz-adv-x="740" 
d="M198.5 21.5q-61.5 31.5 -94 88.5t-32.5 134q0 39 9 84l79 372h142l-82 -386q-6 -27 -6 -51q0 -64 37 -101.5t103 -37.5q68 0 118 45t67 122l87 409h141l-90 -422q-29 -136 -117 -212t-216 -76q-84 0 -145.5 31.5zM432 920h138l83 -136h-105l-56 74l-89 -74h-112z" />
    <glyph glyph-name="Udieresis" unicode="&#xdc;" horiz-adv-x="740" 
d="M198.5 21.5q-61.5 31.5 -94 88.5t-32.5 134q0 39 9 84l79 372h142l-82 -386q-6 -27 -6 -51q0 -64 37 -101.5t103 -37.5q68 0 118 45t67 122l87 409h141l-90 -422q-29 -136 -117 -212t-216 -76q-84 0 -145.5 31.5zM325.5 799.5q-17.5 18.5 -17.5 45.5q0 33 24 57t56 24
q25 0 42.5 -18.5t17.5 -45.5q0 -32 -23.5 -56.5t-54.5 -24.5q-27 0 -44.5 18.5zM543 901.5q24 24.5 56 24.5q25 0 42.5 -18.5t17.5 -45.5q0 -32 -23.5 -56.5t-54.5 -24.5q-26 0 -44 18.5t-18 45.5q0 32 24 56.5z" />
    <glyph glyph-name="Yacute" unicode="&#xdd;" horiz-adv-x="721" 
d="M290 269l-188 431h151l130 -304l256 304h167l-373 -434l-57 -266h-142zM511 917h154l-159 -130h-112z" />
    <glyph glyph-name="Thorn" unicode="&#xde;" horiz-adv-x="698" 
d="M172 700h141l-28 -130h153q62 0 109.5 -24.5t73.5 -69t26 -101.5q0 -68 -33.5 -124t-91.5 -88t-129 -32h-201l-28 -131h-141zM389 251q50 0 81.5 31.5t31.5 81.5q0 38 -24.5 60t-65.5 22h-153l-42 -195h172z" />
    <glyph glyph-name="germandbls" unicode="&#xdf;" horiz-adv-x="702" 
d="M315.5 21q-55.5 32 -80.5 85l102 57q35 -71 117 -71q37 0 57 14t20 39q0 16 -10.5 28t-35.5 22l-76 30q-42 16 -64 44t-22 64q0 32 17 54.5t40.5 37t61.5 33.5q45 22 66 37.5t21 39.5q0 29 -30 47.5t-82 18.5q-72 0 -114 -34.5t-57 -105.5l-99 -461h-134l101 475
q24 115 102.5 175.5t201.5 60.5q71 0 127 -21.5t87 -59.5t31 -87q0 -40 -19 -66.5t-45 -41t-67 -31.5q-39 -15 -57.5 -27.5t-18.5 -31.5q0 -25 38 -40l60 -24q51 -20 75 -51.5t24 -77.5q0 -73 -55.5 -118t-148.5 -45q-78 0 -133.5 32z" />
    <glyph glyph-name="agrave" unicode="&#xe0;" horiz-adv-x="590" 
d="M109 8q-37 17 -59 49.5t-22 75.5q0 73 56.5 115t180.5 52q94 8 141 28l1 11q0 33 -24.5 53t-65.5 20q-39 0 -68.5 -20t-42.5 -58l-132 30q28 81 92 124t156 43q67 0 117 -22.5t77 -62t27 -89.5q0 -22 -4 -39l-68 -318h-135l13 58q-30 -32 -71.5 -49.5t-87.5 -17.5
q-44 0 -81 17zM180.5 103.5q19.5 -14.5 53.5 -14.5q54 0 94.5 34t52.5 89l5 24q-23 -10 -48.5 -15t-64.5 -8q-62 -5 -87 -21t-25 -46q0 -28 19.5 -42.5zM186 738h153l87 -130h-109z" />
    <glyph glyph-name="aacute" unicode="&#xe1;" horiz-adv-x="590" 
d="M109 8q-37 17 -59 49.5t-22 75.5q0 73 56.5 115t180.5 52q94 8 141 28l1 11q0 33 -24.5 53t-65.5 20q-39 0 -68.5 -20t-42.5 -58l-132 30q28 81 92 124t156 43q67 0 117 -22.5t77 -62t27 -89.5q0 -22 -4 -39l-68 -318h-135l13 58q-30 -32 -71.5 -49.5t-87.5 -17.5
q-44 0 -81 17zM180.5 103.5q19.5 -14.5 53.5 -14.5q54 0 94.5 34t52.5 89l5 24q-23 -10 -48.5 -15t-64.5 -8q-62 -5 -87 -21t-25 -46q0 -28 19.5 -42.5zM410 738h154l-159 -130h-112z" />
    <glyph glyph-name="acircumflex" unicode="&#xe2;" horiz-adv-x="590" 
d="M109 8q-37 17 -59 49.5t-22 75.5q0 73 56.5 115t180.5 52q94 8 141 28l1 11q0 33 -24.5 53t-65.5 20q-39 0 -68.5 -20t-42.5 -58l-132 30q28 81 92 124t156 43q67 0 117 -22.5t77 -62t27 -89.5q0 -22 -4 -39l-68 -318h-135l13 58q-30 -32 -71.5 -49.5t-87.5 -17.5
q-44 0 -81 17zM180.5 103.5q19.5 -14.5 53.5 -14.5q54 0 94.5 34t52.5 89l5 24q-23 -10 -48.5 -15t-64.5 -8q-62 -5 -87 -21t-25 -46q0 -28 19.5 -42.5zM322 741h138l83 -136h-105l-56 74l-89 -74h-112z" />
    <glyph glyph-name="atilde" unicode="&#xe3;" horiz-adv-x="590" 
d="M109 8q-37 17 -59 49.5t-22 75.5q0 73 56.5 115t180.5 52q94 8 141 28l1 11q0 33 -24.5 53t-65.5 20q-39 0 -68.5 -20t-42.5 -58l-132 30q28 81 92 124t156 43q67 0 117 -22.5t77 -62t27 -89.5q0 -22 -4 -39l-68 -318h-135l13 58q-30 -32 -71.5 -49.5t-87.5 -17.5
q-44 0 -81 17zM180.5 103.5q19.5 -14.5 53.5 -14.5q54 0 94.5 34t52.5 89l5 24q-23 -10 -48.5 -15t-64.5 -8q-62 -5 -87 -21t-25 -46q0 -28 19.5 -42.5zM233 713.5q30 27.5 67 27.5q23 0 43.5 -9t47.5 -26q19 -12 32 -18t25 -6q14 0 24.5 11.5t24.5 41.5l77 -26
q-25 -58 -55 -86t-68 -28q-23 0 -42.5 8.5t-45.5 25.5q-21 13 -33.5 19t-25.5 6t-24.5 -12.5t-23.5 -40.5l-78 27q25 58 55 85.5z" />
    <glyph glyph-name="adieresis" unicode="&#xe4;" horiz-adv-x="590" 
d="M109 8q-37 17 -59 49.5t-22 75.5q0 73 56.5 115t180.5 52q94 8 141 28l1 11q0 33 -24.5 53t-65.5 20q-39 0 -68.5 -20t-42.5 -58l-132 30q28 81 92 124t156 43q67 0 117 -22.5t77 -62t27 -89.5q0 -22 -4 -39l-68 -318h-135l13 58q-30 -32 -71.5 -49.5t-87.5 -17.5
q-44 0 -81 17zM180.5 103.5q19.5 -14.5 53.5 -14.5q54 0 94.5 34t52.5 89l5 24q-23 -10 -48.5 -15t-64.5 -8q-62 -5 -87 -21t-25 -46q0 -28 19.5 -42.5zM214.5 620.5q-17.5 18.5 -17.5 45.5q0 33 24 57t56 24q25 0 42.5 -18.5t17.5 -45.5q0 -32 -23.5 -56.5t-54.5 -24.5
q-27 0 -44.5 18.5zM432 722.5q24 24.5 56 24.5q25 0 42.5 -18.5t17.5 -45.5q0 -32 -23.5 -56.5t-54.5 -24.5q-26 0 -44 18.5t-18 45.5q0 32 24 56.5z" />
    <glyph glyph-name="aring" unicode="&#xe5;" horiz-adv-x="590" 
d="M109 8q-37 17 -59 49.5t-22 75.5q0 73 56.5 115t180.5 52q94 8 141 28l1 11q0 33 -24.5 53t-65.5 20q-39 0 -68.5 -20t-42.5 -58l-132 30q28 81 92 124t156 43q67 0 117 -22.5t77 -62t27 -89.5q0 -22 -4 -39l-68 -318h-135l13 58q-30 -32 -71.5 -49.5t-87.5 -17.5
q-44 0 -81 17zM180.5 103.5q19.5 -14.5 53.5 -14.5q54 0 94.5 34t52.5 89l5 24q-23 -10 -48.5 -15t-64.5 -8q-62 -5 -87 -21t-25 -46q0 -28 19.5 -42.5zM290 616q-31 30 -31 76q0 34 18.5 65t48.5 49.5t64 18.5q49 0 80 -30t31 -76q0 -34 -18.5 -65t-49 -49.5t-64.5 -18.5
q-48 0 -79 30zM334.5 658.5q15.5 -15.5 38.5 -15.5q28 0 48 20.5t20 49.5q0 24 -15.5 39.5t-38.5 15.5q-28 0 -48 -20.5t-20 -49.5q0 -24 15.5 -39.5z" />
    <glyph glyph-name="ae" unicode="&#xe6;" horiz-adv-x="965" 
d="M507 25.5q-59 35.5 -86 99.5q-31 -66 -95 -100t-133 -34t-117 38.5t-48 103.5q0 73 56.5 115t180.5 52q94 8 141 28l1 11q0 33 -24.5 53t-65.5 20q-39 0 -68.5 -20t-42.5 -58l-132 30q28 81 92 124t156 43q60 0 104.5 -18t70.5 -51q77 69 186 69q70 0 124 -30.5t84 -84.5
t30 -124q0 -26 -8 -68h-390q2 -53 37 -87t91 -34q45 0 78 21.5t52 59.5l113 -50q-38 -71 -102 -107.5t-146 -36.5q-80 0 -139 35.5zM180.5 103.5q19.5 -14.5 53.5 -14.5q54 0 94.5 34t52.5 89l5 24q-23 -10 -48.5 -15t-64.5 -8q-62 -5 -87 -21t-25 -46q0 -28 19.5 -42.5z
M796 311q-5 50 -37 78.5t-84 28.5t-90.5 -29t-51.5 -78h263z" />
    <glyph glyph-name="ccedilla" unicode="&#xe7;" horiz-adv-x="606" 
d="M162.5 -214q-32.5 21 -45.5 60l74 15q15 -32 56 -32q23 0 36.5 11t13.5 29q0 17 -13 26.5t-35 9.5h-39l44 89q-94 15 -151.5 81.5t-57.5 165.5q0 82 38.5 148t105.5 104t149 38q87 0 149.5 -44.5t89.5 -131.5l-131 -32q-14 43 -44.5 66t-73.5 23q-41 0 -74.5 -20
t-53 -57.5t-19.5 -87.5q0 -63 35 -100.5t93 -37.5q85 0 123 94l122 -43q-33 -81 -92.5 -124t-142.5 -46l-19 -37q36 -6 56 -27t20 -53q0 -50 -35.5 -79t-96.5 -29q-49 0 -81.5 21z" />
    <glyph glyph-name="egrave" unicode="&#xe8;" horiz-adv-x="618" 
d="M167 20.5q-58 30.5 -90 86.5t-32 129q0 78 37 146t103.5 108.5t149.5 40.5q70 0 124 -30.5t84 -84.5t30 -124q0 -26 -8 -68h-389q1 -53 36 -87t91 -34q45 0 79 21.5t52 59.5l112 -50q-37 -70 -101 -107t-146 -37q-74 0 -132 30.5zM449 311q-5 50 -37 78.5t-84 28.5
q-53 0 -91.5 -29t-51.5 -78h264zM172 738h153l87 -130h-109z" />
    <glyph glyph-name="eacute" unicode="&#xe9;" horiz-adv-x="618" 
d="M167 20.5q-58 30.5 -90 86.5t-32 129q0 78 37 146t103.5 108.5t149.5 40.5q70 0 124 -30.5t84 -84.5t30 -124q0 -26 -8 -68h-389q1 -53 36 -87t91 -34q45 0 79 21.5t52 59.5l112 -50q-37 -70 -101 -107t-146 -37q-74 0 -132 30.5zM449 311q-5 50 -37 78.5t-84 28.5
q-53 0 -91.5 -29t-51.5 -78h264zM396 738h154l-159 -130h-112z" />
    <glyph glyph-name="ecircumflex" unicode="&#xea;" horiz-adv-x="618" 
d="M167 20.5q-58 30.5 -90 86.5t-32 129q0 78 37 146t103.5 108.5t149.5 40.5q70 0 124 -30.5t84 -84.5t30 -124q0 -26 -8 -68h-389q1 -53 36 -87t91 -34q45 0 79 21.5t52 59.5l112 -50q-37 -70 -101 -107t-146 -37q-74 0 -132 30.5zM449 311q-5 50 -37 78.5t-84 28.5
q-53 0 -91.5 -29t-51.5 -78h264zM307 741h138l83 -136h-105l-56 74l-89 -74h-112z" />
    <glyph glyph-name="edieresis" unicode="&#xeb;" horiz-adv-x="618" 
d="M167 20.5q-58 30.5 -90 86.5t-32 129q0 78 37 146t103.5 108.5t149.5 40.5q70 0 124 -30.5t84 -84.5t30 -124q0 -26 -8 -68h-389q1 -53 36 -87t91 -34q45 0 79 21.5t52 59.5l112 -50q-37 -70 -101 -107t-146 -37q-74 0 -132 30.5zM449 311q-5 50 -37 78.5t-84 28.5
q-53 0 -91.5 -29t-51.5 -78h264zM200.5 620.5q-17.5 18.5 -17.5 45.5q0 33 24 57t56 24q25 0 42.5 -18.5t17.5 -45.5q0 -32 -23.5 -56.5t-54.5 -24.5q-27 0 -44.5 18.5zM418 722.5q24 24.5 56 24.5q25 0 42.5 -18.5t17.5 -45.5q0 -32 -23.5 -56.5t-54.5 -24.5
q-26 0 -44 18.5t-18 45.5q0 32 24 56.5z" />
    <glyph glyph-name="igrave" unicode="&#xec;" horiz-adv-x="270" 
d="M123 521h134l-110 -521h-134zM30 738h153l87 -130h-109z" />
    <glyph glyph-name="iacute" unicode="&#xed;" horiz-adv-x="270" 
d="M123 521h134l-110 -521h-134zM254 738h154l-159 -130h-112z" />
    <glyph glyph-name="icircumflex" unicode="&#xee;" horiz-adv-x="270" 
d="M123 521h134l-110 -521h-134zM165 741h138l83 -136h-105l-56 74l-89 -74h-112z" />
    <glyph glyph-name="idieresis" unicode="&#xef;" horiz-adv-x="270" 
d="M123 521h134l-110 -521h-134zM58.5 620.5q-17.5 18.5 -17.5 45.5q0 33 24 57t56 24q25 0 42.5 -18.5t17.5 -45.5q0 -32 -23.5 -56.5t-54.5 -24.5q-27 0 -44.5 18.5zM276 722.5q24 24.5 56 24.5q25 0 42.5 -18.5t17.5 -45.5q0 -32 -23.5 -56.5t-54.5 -24.5q-26 0 -44 18.5
t-18 45.5q0 32 24 56.5z" />
    <glyph glyph-name="eth" unicode="&#xf0;" horiz-adv-x="612" 
d="M158.5 20.5q-53.5 29.5 -83.5 82.5t-30 121q0 70 36 130.5t97 96t132 35.5q48 0 85 -16.5t61 -47.5q-3 75 -49 142l-96 -47l-35 76l75 36q-24 23 -71 50l87 84q60 -36 99 -78l107 52l36 -75l-90 -44q66 -107 66 -246q0 -108 -39.5 -195t-109 -136.5t-155.5 -49.5
q-69 0 -122.5 29.5zM204.5 144.5q32.5 -32.5 81.5 -32.5q37 0 69.5 20t52 53.5t19.5 71.5q0 50 -32 82.5t-81 32.5q-37 0 -70 -20t-52.5 -53.5t-19.5 -71.5q0 -50 32.5 -82.5z" />
    <glyph glyph-name="ntilde" unicode="&#xf1;" horiz-adv-x="612" 
d="M123 521h134l-8 -38q64 46 142 46q79 0 126 -46t47 -121q0 -28 -5 -51l-67 -311h-134l64 298q3 15 3 29q0 39 -24.5 62.5t-66.5 23.5q-65 0 -110 -48l-77 -365h-134zM248 713.5q30 27.5 67 27.5q23 0 43.5 -9t47.5 -26q19 -12 32 -18t25 -6q14 0 24.5 11.5t24.5 41.5
l77 -26q-25 -58 -55 -86t-68 -28q-23 0 -42.5 8.5t-45.5 25.5q-21 13 -33.5 19t-25.5 6t-24.5 -12.5t-23.5 -40.5l-78 27q25 58 55 85.5z" />
    <glyph glyph-name="ograve" unicode="&#xf2;" horiz-adv-x="637" 
d="M170.5 23q-58.5 33 -92 90t-33.5 127q0 78 39.5 145t106.5 106.5t145 39.5q72 0 130.5 -33t92 -90t33.5 -127q0 -78 -39.5 -145t-106.5 -106.5t-145 -39.5q-72 0 -130.5 33zM213 148q37 -39 94 -39q41 0 76.5 22.5t56 60.5t20.5 82q0 60 -37 99t-94 39q-41 0 -76.5 -22.5
t-56 -60.5t-20.5 -82q0 -60 37 -99zM184 738h153l87 -130h-109z" />
    <glyph glyph-name="oacute" unicode="&#xf3;" horiz-adv-x="637" 
d="M170.5 23q-58.5 33 -92 90t-33.5 127q0 78 39.5 145t106.5 106.5t145 39.5q72 0 130.5 -33t92 -90t33.5 -127q0 -78 -39.5 -145t-106.5 -106.5t-145 -39.5q-72 0 -130.5 33zM213 148q37 -39 94 -39q41 0 76.5 22.5t56 60.5t20.5 82q0 60 -37 99t-94 39q-41 0 -76.5 -22.5
t-56 -60.5t-20.5 -82q0 -60 37 -99zM408 738h154l-159 -130h-112z" />
    <glyph glyph-name="ocircumflex" unicode="&#xf4;" horiz-adv-x="637" 
d="M170.5 23q-58.5 33 -92 90t-33.5 127q0 78 39.5 145t106.5 106.5t145 39.5q72 0 130.5 -33t92 -90t33.5 -127q0 -78 -39.5 -145t-106.5 -106.5t-145 -39.5q-72 0 -130.5 33zM213 148q37 -39 94 -39q41 0 76.5 22.5t56 60.5t20.5 82q0 60 -37 99t-94 39q-41 0 -76.5 -22.5
t-56 -60.5t-20.5 -82q0 -60 37 -99zM319 741h138l83 -136h-105l-56 74l-89 -74h-112z" />
    <glyph glyph-name="otilde" unicode="&#xf5;" horiz-adv-x="637" 
d="M170.5 23q-58.5 33 -92 90t-33.5 127q0 78 39.5 145t106.5 106.5t145 39.5q72 0 130.5 -33t92 -90t33.5 -127q0 -78 -39.5 -145t-106.5 -106.5t-145 -39.5q-72 0 -130.5 33zM213 148q37 -39 94 -39q41 0 76.5 22.5t56 60.5t20.5 82q0 60 -37 99t-94 39q-41 0 -76.5 -22.5
t-56 -60.5t-20.5 -82q0 -60 37 -99zM231 713.5q30 27.5 67 27.5q23 0 43.5 -9t47.5 -26q19 -12 32 -18t25 -6q14 0 24.5 11.5t24.5 41.5l77 -26q-25 -58 -55 -86t-68 -28q-23 0 -42.5 8.5t-45.5 25.5q-21 13 -33.5 19t-25.5 6t-24.5 -12.5t-23.5 -40.5l-78 27q25 58 55 85.5
z" />
    <glyph glyph-name="odieresis" unicode="&#xf6;" horiz-adv-x="637" 
d="M170.5 23q-58.5 33 -92 90t-33.5 127q0 78 39.5 145t106.5 106.5t145 39.5q72 0 130.5 -33t92 -90t33.5 -127q0 -78 -39.5 -145t-106.5 -106.5t-145 -39.5q-72 0 -130.5 33zM213 148q37 -39 94 -39q41 0 76.5 22.5t56 60.5t20.5 82q0 60 -37 99t-94 39q-41 0 -76.5 -22.5
t-56 -60.5t-20.5 -82q0 -60 37 -99zM212.5 620.5q-17.5 18.5 -17.5 45.5q0 33 24 57t56 24q25 0 42.5 -18.5t17.5 -45.5q0 -32 -23.5 -56.5t-54.5 -24.5q-27 0 -44.5 18.5zM430 722.5q24 24.5 56 24.5q25 0 42.5 -18.5t17.5 -45.5q0 -32 -23.5 -56.5t-54.5 -24.5
q-26 0 -44 18.5t-18 45.5q0 32 24 56.5z" />
    <glyph glyph-name="divide" unicode="&#xf7;" 
d="M133 411h434l-22 -105h-434zM238.5 200q26.5 26 63.5 26q31 0 52 -21.5t21 -54.5q0 -35 -26 -61.5t-62 -26.5q-32 0 -53.5 22t-21.5 55q0 35 26.5 61zM330.5 634q26.5 26 63.5 26q31 0 52.5 -22t21.5 -54q0 -35 -26 -61.5t-62 -26.5q-32 0 -54 22t-22 54q0 36 26.5 62z
" />
    <glyph glyph-name="oslash" unicode="&#xf8;" horiz-adv-x="637" 
d="M146 39l-40 -39h-100l89 88q-50 64 -50 152q0 78 39.5 145t106.5 106.5t145 39.5q86 0 155 -48l38 38h101l-88 -88q24 -31 37 -70t13 -82q0 -78 -39.5 -145t-106.5 -106.5t-145 -39.5q-89 0 -155 49zM190 183l209 208q-31 21 -70 21q-41 0 -76.5 -22.5t-56 -60.5
t-20.5 -82q0 -34 14 -64zM307 109q41 0 76.5 22.5t56 60.5t20.5 82q0 34 -14 64l-210 -208q34 -21 71 -21z" />
    <glyph glyph-name="ugrave" unicode="&#xf9;" horiz-adv-x="612" 
d="M94 37.5q-47 45.5 -47 120.5q0 25 6 52l66 311h134l-63 -298q-3 -15 -3 -30q0 -39 24 -62t67 -23q64 0 109 48l78 365h134l-111 -521h-134l8 38q-62 -46 -142 -46q-79 0 -126 45.5zM191 738h153l87 -130h-109z" />
    <glyph glyph-name="uacute" unicode="&#xfa;" horiz-adv-x="612" 
d="M94 37.5q-47 45.5 -47 120.5q0 25 6 52l66 311h134l-63 -298q-3 -15 -3 -30q0 -39 24 -62t67 -23q64 0 109 48l78 365h134l-111 -521h-134l8 38q-62 -46 -142 -46q-79 0 -126 45.5zM415 738h154l-159 -130h-112z" />
    <glyph glyph-name="ucircumflex" unicode="&#xfb;" horiz-adv-x="612" 
d="M94 37.5q-47 45.5 -47 120.5q0 25 6 52l66 311h134l-63 -298q-3 -15 -3 -30q0 -39 24 -62t67 -23q64 0 109 48l78 365h134l-111 -521h-134l8 38q-62 -46 -142 -46q-79 0 -126 45.5zM326 741h138l83 -136h-105l-56 74l-89 -74h-112z" />
    <glyph glyph-name="udieresis" unicode="&#xfc;" horiz-adv-x="612" 
d="M94 37.5q-47 45.5 -47 120.5q0 25 6 52l66 311h134l-63 -298q-3 -15 -3 -30q0 -39 24 -62t67 -23q64 0 109 48l78 365h134l-111 -521h-134l8 38q-62 -46 -142 -46q-79 0 -126 45.5zM219.5 620.5q-17.5 18.5 -17.5 45.5q0 33 24 57t56 24q25 0 42.5 -18.5t17.5 -45.5
q0 -32 -23.5 -56.5t-54.5 -24.5q-27 0 -44.5 18.5zM437 722.5q24 24.5 56 24.5q25 0 42.5 -18.5t17.5 -45.5q0 -32 -23.5 -56.5t-54.5 -24.5q-26 0 -44 18.5t-18 45.5q0 32 24 56.5z" />
    <glyph glyph-name="yacute" unicode="&#xfd;" horiz-adv-x="595" 
d="M-10 -202.5q-34 11.5 -56 31.5l53 106q15 -13 30 -18.5t34 -5.5q56 0 88 56l21 33l-90 521h143l54 -366l224 366h147l-371 -590q-47 -75 -98 -110t-110 -35q-35 0 -69 11.5zM411 738h154l-159 -130h-112z" />
    <glyph glyph-name="thorn" unicode="&#xfe;" horiz-adv-x="648" 
d="M162 700l140 30l-50 -234q56 32 120 32q65 0 118 -31.5t83.5 -86.5t30.5 -123q0 -80 -39 -148t-105.5 -107.5t-145.5 -39.5q-93 0 -157 58l-55 -259h-134zM236 126q34 -16 73 -16q45 0 82.5 22t59.5 60t22 83q0 59 -39 98t-97 39q-63 0 -112 -40l-43 -203q20 -27 54 -43z
" />
    <glyph glyph-name="ydieresis" unicode="&#xff;" horiz-adv-x="595" 
d="M-10 -202.5q-34 11.5 -56 31.5l53 106q15 -13 30 -18.5t34 -5.5q56 0 88 56l21 33l-90 521h143l54 -366l224 366h147l-371 -590q-47 -75 -98 -110t-110 -35q-35 0 -69 11.5zM215.5 620.5q-17.5 18.5 -17.5 45.5q0 33 24 57t56 24q25 0 42.5 -18.5t17.5 -45.5
q0 -32 -23.5 -56.5t-54.5 -24.5q-27 0 -44.5 18.5zM433 722.5q24 24.5 56 24.5q25 0 42.5 -18.5t17.5 -45.5q0 -32 -23.5 -56.5t-54.5 -24.5q-26 0 -44 18.5t-18 45.5q0 32 24 56.5z" />
    <glyph glyph-name="Amacron" unicode="&#x100;" horiz-adv-x="747" 
d="M384 700h164l133 -700h-146l-32 184h-284l-108 -184h-155zM484 300l-45 258l-152 -258h197zM341 890h310l-20 -86h-309z" />
    <glyph glyph-name="amacron" unicode="&#x101;" horiz-adv-x="590" 
d="M109 8q-37 17 -59 49.5t-22 75.5q0 73 56.5 115t180.5 52q94 8 141 28l1 11q0 33 -24.5 53t-65.5 20q-39 0 -68.5 -20t-42.5 -58l-132 30q28 81 92 124t156 43q67 0 117 -22.5t77 -62t27 -89.5q0 -22 -4 -39l-68 -318h-135l13 58q-30 -32 -71.5 -49.5t-87.5 -17.5
q-44 0 -81 17zM180.5 103.5q19.5 -14.5 53.5 -14.5q54 0 94.5 34t52.5 89l5 24q-23 -10 -48.5 -15t-64.5 -8q-62 -5 -87 -21t-25 -46q0 -28 19.5 -42.5zM229 711h310l-20 -86h-309z" />
    <glyph glyph-name="Abreve" unicode="&#x102;" horiz-adv-x="747" 
d="M384 700h164l133 -700h-146l-32 184h-284l-108 -184h-155zM484 300l-45 258l-152 -258h197zM372.5 817.5q-41.5 38.5 -43.5 104.5l81 17q6 -83 75 -83q63 0 102 76l83 -26q-29 -62 -77 -94.5t-110 -32.5q-69 0 -110.5 38.5z" />
    <glyph glyph-name="abreve" unicode="&#x103;" horiz-adv-x="590" 
d="M109 8q-37 17 -59 49.5t-22 75.5q0 73 56.5 115t180.5 52q94 8 141 28l1 11q0 33 -24.5 53t-65.5 20q-39 0 -68.5 -20t-42.5 -58l-132 30q28 81 92 124t156 43q67 0 117 -22.5t77 -62t27 -89.5q0 -22 -4 -39l-68 -318h-135l13 58q-30 -32 -71.5 -49.5t-87.5 -17.5
q-44 0 -81 17zM180.5 103.5q19.5 -14.5 53.5 -14.5q54 0 94.5 34t52.5 89l5 24q-23 -10 -48.5 -15t-64.5 -8q-62 -5 -87 -21t-25 -46q0 -28 19.5 -42.5zM260.5 638.5q-41.5 38.5 -43.5 104.5l81 17q6 -83 75 -83q63 0 102 76l83 -26q-29 -62 -77 -94.5t-110 -32.5
q-69 0 -110.5 38.5z" />
    <glyph glyph-name="Aogonek" unicode="&#x104;" horiz-adv-x="747" 
d="M384 700h164l133 -699l2 -1q-112 -59 -112 -115q0 -16 11 -25.5t30 -9.5q20 0 37 11l17 -58q-17 -11 -41 -17.5t-47 -6.5q-41 0 -66 19.5t-25 53.5q0 80 117 148h-69l-32 184h-284l-108 -184h-155zM484 300l-45 258l-152 -258h197z" />
    <glyph glyph-name="aogonek" unicode="&#x105;" horiz-adv-x="590" 
d="M109 8q-37 17 -59 49.5t-22 75.5q0 73 56.5 115t180.5 52q94 8 141 28l1 11q0 33 -24.5 53t-65.5 20q-39 0 -68.5 -20t-42.5 -58l-132 30q28 81 92 124t156 43q67 0 117 -22.5t77 -62t27 -89.5q0 -22 -4 -39l-68 -317l2 -1q-112 -59 -112 -115q0 -16 11 -25.5t30 -9.5
q20 0 37 11l17 -58q-17 -11 -41 -17.5t-47 -6.5q-41 0 -66 19.5t-25 53.5q0 80 117 148h-58l13 58q-30 -32 -71.5 -49.5t-87.5 -17.5q-44 0 -81 17zM180.5 103.5q19.5 -14.5 53.5 -14.5q54 0 94.5 34t52.5 89l5 24q-23 -10 -48.5 -15t-64.5 -8q-62 -5 -87 -21t-25 -46
q0 -28 19.5 -42.5z" />
    <glyph glyph-name="Cacute" unicode="&#x106;" horiz-adv-x="790" 
d="M230 29.5q-76 40.5 -118 115t-42 172.5q0 111 51 201t141 141.5t200 51.5q82 0 149 -29.5t109.5 -83.5t53.5 -126l-147 -34q-13 67 -58.5 103.5t-115.5 36.5q-67 0 -119.5 -32.5t-82.5 -90.5t-30 -130q0 -93 52 -148t139 -55q69 0 117 36.5t67 104.5l147 -35
q-27 -109 -117 -174t-219 -65q-101 0 -177 40.5zM536 917h154l-159 -130h-112z" />
    <glyph glyph-name="cacute" unicode="&#x107;" horiz-adv-x="606" 
d="M171.5 21q-59.5 31 -93 88t-33.5 132q0 82 38.5 148t105.5 104t149 38q87 0 149.5 -44.5t89.5 -131.5l-131 -32q-14 43 -44.5 66t-73.5 23q-41 0 -74.5 -20t-53 -57.5t-19.5 -87.5q0 -63 35 -100.5t93 -37.5q85 0 123 94l122 -43q-35 -84 -97.5 -127t-150.5 -43
q-75 0 -134.5 31zM412 738h154l-159 -130h-112z" />
    <glyph glyph-name="Ccircumflex" unicode="&#x108;" horiz-adv-x="790" 
d="M230 29.5q-76 40.5 -118 115t-42 172.5q0 111 51 201t141 141.5t200 51.5q82 0 149 -29.5t109.5 -83.5t53.5 -126l-147 -34q-13 67 -58.5 103.5t-115.5 36.5q-67 0 -119.5 -32.5t-82.5 -90.5t-30 -130q0 -93 52 -148t139 -55q69 0 117 36.5t67 104.5l147 -35
q-27 -109 -117 -174t-219 -65q-101 0 -177 40.5zM447 920h138l83 -136h-105l-56 74l-89 -74h-112z" />
    <glyph glyph-name="ccircumflex" unicode="&#x109;" horiz-adv-x="606" 
d="M171.5 21q-59.5 31 -93 88t-33.5 132q0 82 38.5 148t105.5 104t149 38q87 0 149.5 -44.5t89.5 -131.5l-131 -32q-14 43 -44.5 66t-73.5 23q-41 0 -74.5 -20t-53 -57.5t-19.5 -87.5q0 -63 35 -100.5t93 -37.5q85 0 123 94l122 -43q-35 -84 -97.5 -127t-150.5 -43
q-75 0 -134.5 31zM323 741h138l83 -136h-105l-56 74l-89 -74h-112z" />
    <glyph glyph-name="Cdotaccent" unicode="&#x10a;" horiz-adv-x="790" 
d="M230 29.5q-76 40.5 -118 115t-42 172.5q0 111 51 201t141 141.5t200 51.5q82 0 149 -29.5t109.5 -83.5t53.5 -126l-147 -34q-13 67 -58.5 103.5t-115.5 36.5q-67 0 -119.5 -32.5t-82.5 -90.5t-30 -130q0 -93 52 -148t139 -55q69 0 117 36.5t67 104.5l147 -35
q-27 -109 -117 -174t-219 -65q-101 0 -177 40.5zM444.5 782q-19.5 20 -19.5 49q0 35 25.5 61t60.5 26q29 0 48.5 -19.5t19.5 -48.5q0 -35 -26 -61.5t-60 -26.5q-29 0 -48.5 20z" />
    <glyph glyph-name="cdotaccent" unicode="&#x10b;" horiz-adv-x="606" 
d="M171.5 21q-59.5 31 -93 88t-33.5 132q0 82 38.5 148t105.5 104t149 38q87 0 149.5 -44.5t89.5 -131.5l-131 -32q-14 43 -44.5 66t-73.5 23q-41 0 -74.5 -20t-53 -57.5t-19.5 -87.5q0 -63 35 -100.5t93 -37.5q85 0 123 94l122 -43q-35 -84 -97.5 -127t-150.5 -43
q-75 0 -134.5 31zM320.5 603q-19.5 20 -19.5 49q0 35 25.5 61t60.5 26q29 0 48.5 -19.5t19.5 -48.5q0 -35 -26 -61.5t-60 -26.5q-29 0 -48.5 20z" />
    <glyph glyph-name="Ccaron" unicode="&#x10c;" horiz-adv-x="790" 
d="M230 29.5q-76 40.5 -118 115t-42 172.5q0 111 51 201t141 141.5t200 51.5q82 0 149 -29.5t109.5 -83.5t53.5 -126l-147 -34q-13 67 -58.5 103.5t-115.5 36.5q-67 0 -119.5 -32.5t-82.5 -90.5t-30 -130q0 -93 52 -148t139 -55q69 0 117 36.5t67 104.5l147 -35
q-27 -109 -117 -174t-219 -65q-101 0 -177 40.5zM338 920h105l57 -73l87 73h113l-141 -135h-138z" />
    <glyph glyph-name="ccaron" unicode="&#x10d;" horiz-adv-x="606" 
d="M171.5 21q-59.5 31 -93 88t-33.5 132q0 82 38.5 148t105.5 104t149 38q87 0 149.5 -44.5t89.5 -131.5l-131 -32q-14 43 -44.5 66t-73.5 23q-41 0 -74.5 -20t-53 -57.5t-19.5 -87.5q0 -63 35 -100.5t93 -37.5q85 0 123 94l122 -43q-35 -84 -97.5 -127t-150.5 -43
q-75 0 -134.5 31zM214 741h105l57 -73l87 73h113l-141 -135h-138z" />
    <glyph glyph-name="Dcaron" unicode="&#x10e;" horiz-adv-x="753" 
d="M171 700h229q93 0 167 -40t115.5 -111.5t41.5 -160.5q0 -104 -55 -193.5t-148 -142t-201 -52.5h-298zM332 129q67 0 123 33t88.5 90.5t32.5 125.5q0 56 -24.5 100t-68.5 68.5t-99 24.5h-99l-94 -442h141zM335 920h105l57 -73l87 73h113l-141 -135h-138z" />
    <glyph glyph-name="dcaron" unicode="&#x10f;" horiz-adv-x="797" 
d="M159 24.5q-53 31.5 -83.5 87t-30.5 122.5q0 80 39 147.5t105.5 107t145.5 39.5q46 0 86.5 -14.5t70.5 -40.5l48 227l140 30l-154 -730h-133l5 26q-55 -33 -121 -33q-65 0 -118 31.5zM215.5 148q38.5 -39 97.5 -39q64 0 110 40l44 206q-20 26 -54 41t-73 15
q-45 0 -82.5 -22t-59 -60t-21.5 -83q0 -59 38.5 -98zM761 702l118 22l-90 -223h-80z" />
    <glyph glyph-name="Dcroat" unicode="&#x110;" horiz-adv-x="777" 
d="M108 293h-77l24 115h78l62 292h229q92 0 166 -40t116 -111.5t42 -160.5q0 -104 -55 -193.5t-148 -142t-201 -52.5h-298zM355 129q67 0 123 33t89 90.5t33 125.5q0 56 -24.5 100t-68.5 68.5t-100 24.5h-98l-35 -163h168l-24 -115h-169l-35 -164h141z" />
    <glyph glyph-name="dcroat" unicode="&#x111;" horiz-adv-x="647" 
d="M159 24.5q-53 31.5 -83.5 87t-30.5 122.5q0 80 39 147.5t105.5 107t145.5 39.5q46 0 86.5 -14.5t70.5 -40.5l23 106h-135l18 84h135l7 37l140 30l-14 -67h53l-18 -84h-53l-122 -579h-133l5 26q-55 -33 -121 -33q-65 0 -118 31.5zM215.5 148q38.5 -39 97.5 -39
q64 0 110 40l44 206q-20 26 -54 41t-73 15q-45 0 -82.5 -22t-59 -60t-21.5 -83q0 -59 38.5 -98z" />
    <glyph glyph-name="Emacron" unicode="&#x112;" horiz-adv-x="664" 
d="M171 700h527l-27 -126h-385l-35 -160h254l-26 -122h-253l-36 -166h390l-27 -126h-531zM313 890h310l-20 -86h-309z" />
    <glyph glyph-name="emacron" unicode="&#x113;" horiz-adv-x="618" 
d="M167 20.5q-58 30.5 -90 86.5t-32 129q0 78 37 146t103.5 108.5t149.5 40.5q70 0 124 -30.5t84 -84.5t30 -124q0 -26 -8 -68h-389q1 -53 36 -87t91 -34q45 0 79 21.5t52 59.5l112 -50q-37 -70 -101 -107t-146 -37q-74 0 -132 30.5zM449 311q-5 50 -37 78.5t-84 28.5
q-53 0 -91.5 -29t-51.5 -78h264zM215 711h310l-20 -86h-309z" />
    <glyph glyph-name="Ebreve" unicode="&#x114;" horiz-adv-x="664" 
d="M171 700h527l-27 -126h-385l-35 -160h254l-26 -122h-253l-36 -166h390l-27 -126h-531zM344.5 817.5q-41.5 38.5 -43.5 104.5l81 17q6 -83 75 -83q63 0 102 76l83 -26q-29 -62 -77 -94.5t-110 -32.5q-69 0 -110.5 38.5z" />
    <glyph glyph-name="ebreve" unicode="&#x115;" horiz-adv-x="618" 
d="M167 20.5q-58 30.5 -90 86.5t-32 129q0 78 37 146t103.5 108.5t149.5 40.5q70 0 124 -30.5t84 -84.5t30 -124q0 -26 -8 -68h-389q1 -53 36 -87t91 -34q45 0 79 21.5t52 59.5l112 -50q-37 -70 -101 -107t-146 -37q-74 0 -132 30.5zM449 311q-5 50 -37 78.5t-84 28.5
q-53 0 -91.5 -29t-51.5 -78h264zM246.5 638.5q-41.5 38.5 -43.5 104.5l81 17q6 -83 75 -83q63 0 102 76l83 -26q-29 -62 -77 -94.5t-110 -32.5q-69 0 -110.5 38.5z" />
    <glyph glyph-name="Edotaccent" unicode="&#x116;" horiz-adv-x="664" 
d="M171 700h527l-27 -126h-385l-35 -160h254l-26 -122h-253l-36 -166h390l-27 -126h-531zM402.5 782q-19.5 20 -19.5 49q0 35 25.5 61t60.5 26q29 0 48.5 -19.5t19.5 -48.5q0 -35 -26 -61.5t-60 -26.5q-29 0 -48.5 20z" />
    <glyph glyph-name="edotaccent" unicode="&#x117;" horiz-adv-x="618" 
d="M167 20.5q-58 30.5 -90 86.5t-32 129q0 78 37 146t103.5 108.5t149.5 40.5q70 0 124 -30.5t84 -84.5t30 -124q0 -26 -8 -68h-389q1 -53 36 -87t91 -34q45 0 79 21.5t52 59.5l112 -50q-37 -70 -101 -107t-146 -37q-74 0 -132 30.5zM449 311q-5 50 -37 78.5t-84 28.5
q-53 0 -91.5 -29t-51.5 -78h264zM304.5 603q-19.5 20 -19.5 49q0 35 25.5 61t60.5 26q29 0 48.5 -19.5t19.5 -48.5q0 -35 -26 -61.5t-60 -26.5q-29 0 -48.5 20z" />
    <glyph glyph-name="Eogonek" unicode="&#x118;" horiz-adv-x="664" 
d="M171 700h527l-27 -126h-385l-35 -160h254l-26 -122h-253l-36 -166h390l-27 -125l2 -1q-112 -59 -112 -115q0 -16 11 -25.5t30 -9.5q20 0 37 11l17 -58q-17 -11 -41 -17.5t-47 -6.5q-41 0 -66 19.5t-25 53.5q0 80 117 148h-454z" />
    <glyph glyph-name="eogonek" unicode="&#x119;" horiz-adv-x="618" 
d="M212 -201.5q-25 19.5 -25 53.5q0 76 101 138q-72 2 -127 33.5t-85.5 86.5t-30.5 126q0 78 37 146t103.5 108.5t149.5 40.5q70 0 124 -30.5t84 -84.5t30 -124q0 -26 -8 -68h-389q1 -53 36 -87t91 -34q45 0 79 21.5t52 59.5l112 -50q-28 -51 -69.5 -85t-94.5 -48l1 -1
q-112 -59 -112 -115q0 -16 11 -25.5t30 -9.5q20 0 37 11l17 -58q-17 -11 -41 -17.5t-47 -6.5q-41 0 -66 19.5zM449 311q-5 50 -37 78.5t-84 28.5q-53 0 -91.5 -29t-51.5 -78h264z" />
    <glyph glyph-name="Ecaron" unicode="&#x11a;" horiz-adv-x="664" 
d="M171 700h527l-27 -126h-385l-35 -160h254l-26 -122h-253l-36 -166h390l-27 -126h-531zM296 920h105l57 -73l87 73h113l-141 -135h-138z" />
    <glyph glyph-name="ecaron" unicode="&#x11b;" horiz-adv-x="618" 
d="M167 20.5q-58 30.5 -90 86.5t-32 129q0 78 37 146t103.5 108.5t149.5 40.5q70 0 124 -30.5t84 -84.5t30 -124q0 -26 -8 -68h-389q1 -53 36 -87t91 -34q45 0 79 21.5t52 59.5l112 -50q-37 -70 -101 -107t-146 -37q-74 0 -132 30.5zM449 311q-5 50 -37 78.5t-84 28.5
q-53 0 -91.5 -29t-51.5 -78h264zM198 741h105l57 -73l87 73h113l-141 -135h-138z" />
    <glyph glyph-name="Gcircumflex" unicode="&#x11c;" horiz-adv-x="811" 
d="M230.5 31q-76.5 42 -119 117t-42.5 170q0 109 52.5 198.5t143.5 141.5t202 52q82 0 149 -28t110 -78.5t54 -115.5l-147 -34q-14 58 -60 90.5t-115 32.5t-124.5 -33t-87 -90.5t-31.5 -128.5q0 -61 26 -107.5t72 -71.5t105 -25q77 0 131 39t68 107h-207l26 126h353l-13 -80
q-18 -103 -71.5 -176t-132 -110.5t-169.5 -37.5q-96 0 -172.5 42zM447 921h138l83 -136h-105l-56 74l-89 -74h-112z" />
    <glyph glyph-name="gcircumflex" unicode="&#x11d;" horiz-adv-x="649" 
d="M86.5 -173q-69.5 41 -91.5 112l147 28q31 -68 115 -68q54 0 88 25t44 71l7 33q-53 -31 -119 -31q-65 0 -117.5 31t-82.5 86t-30 122q0 80 38.5 147t105 106.5t144.5 39.5q93 0 156 -55l10 47h133l-113 -540q-20 -94 -88.5 -144.5t-178.5 -50.5q-98 0 -167.5 41z
M216.5 150.5q37.5 -38.5 96.5 -38.5q62 0 109 38l44 207q-21 25 -54.5 39.5t-71.5 14.5q-44 0 -81 -22t-58.5 -59.5t-21.5 -81.5q0 -59 37.5 -97.5zM329 741h138l83 -136h-105l-56 74l-89 -74h-112z" />
    <glyph glyph-name="Gbreve" unicode="&#x11e;" horiz-adv-x="811" 
d="M230.5 31q-76.5 42 -119 117t-42.5 170q0 109 52.5 198.5t143.5 141.5t202 52q82 0 149 -28t110 -78.5t54 -115.5l-147 -34q-14 58 -60 90.5t-115 32.5t-124.5 -33t-87 -90.5t-31.5 -128.5q0 -61 26 -107.5t72 -71.5t105 -25q77 0 131 39t68 107h-207l26 126h353l-13 -80
q-18 -103 -71.5 -176t-132 -110.5t-169.5 -37.5q-96 0 -172.5 42zM385.5 818.5q-41.5 38.5 -43.5 104.5l81 17q6 -83 75 -83q63 0 102 76l83 -26q-29 -62 -77 -94.5t-110 -32.5q-69 0 -110.5 38.5z" />
    <glyph glyph-name="gbreve" unicode="&#x11f;" horiz-adv-x="649" 
d="M86.5 -173q-69.5 41 -91.5 112l147 28q31 -68 115 -68q54 0 88 25t44 71l7 33q-53 -31 -119 -31q-65 0 -117.5 31t-82.5 86t-30 122q0 80 38.5 147t105 106.5t144.5 39.5q93 0 156 -55l10 47h133l-113 -540q-20 -94 -88.5 -144.5t-178.5 -50.5q-98 0 -167.5 41z
M216.5 150.5q37.5 -38.5 96.5 -38.5q62 0 109 38l44 207q-21 25 -54.5 39.5t-71.5 14.5q-44 0 -81 -22t-58.5 -59.5t-21.5 -81.5q0 -59 37.5 -97.5zM268.5 638.5q-41.5 38.5 -43.5 104.5l81 17q6 -83 75 -83q63 0 102 76l83 -26q-29 -62 -77 -94.5t-110 -32.5
q-69 0 -110.5 38.5z" />
    <glyph glyph-name="Gdotaccent" unicode="&#x120;" horiz-adv-x="811" 
d="M230.5 31q-76.5 42 -119 117t-42.5 170q0 109 52.5 198.5t143.5 141.5t202 52q82 0 149 -28t110 -78.5t54 -115.5l-147 -34q-14 58 -60 90.5t-115 32.5t-124.5 -33t-87 -90.5t-31.5 -128.5q0 -61 26 -107.5t72 -71.5t105 -25q77 0 131 39t68 107h-207l26 126h353l-13 -80
q-18 -103 -71.5 -176t-132 -110.5t-169.5 -37.5q-96 0 -172.5 42zM443.5 783q-19.5 20 -19.5 49q0 35 25.5 61t60.5 26q29 0 48.5 -19.5t19.5 -48.5q0 -35 -26 -61.5t-60 -26.5q-29 0 -48.5 20z" />
    <glyph glyph-name="gdotaccent" unicode="&#x121;" horiz-adv-x="649" 
d="M86.5 -173q-69.5 41 -91.5 112l147 28q31 -68 115 -68q54 0 88 25t44 71l7 33q-53 -31 -119 -31q-65 0 -117.5 31t-82.5 86t-30 122q0 80 38.5 147t105 106.5t144.5 39.5q93 0 156 -55l10 47h133l-113 -540q-20 -94 -88.5 -144.5t-178.5 -50.5q-98 0 -167.5 41z
M216.5 150.5q37.5 -38.5 96.5 -38.5q62 0 109 38l44 207q-21 25 -54.5 39.5t-71.5 14.5q-44 0 -81 -22t-58.5 -59.5t-21.5 -81.5q0 -59 37.5 -97.5zM326.5 603q-19.5 20 -19.5 49q0 35 25.5 61t60.5 26q29 0 48.5 -19.5t19.5 -48.5q0 -35 -26 -61.5t-60 -26.5
q-29 0 -48.5 20z" />
    <glyph glyph-name="uni0122" unicode="&#x122;" horiz-adv-x="811" 
d="M230.5 31q-76.5 42 -119 117t-42.5 170q0 109 52.5 198.5t143.5 141.5t202 52q82 0 149 -28t110 -78.5t54 -115.5l-147 -34q-14 58 -60 90.5t-115 32.5t-124.5 -33t-87 -90.5t-31.5 -128.5q0 -61 26 -107.5t72 -71.5t105 -25q77 0 131 39t68 107h-207l26 126h353l-13 -80
q-18 -103 -71.5 -176t-132 -110.5t-169.5 -37.5q-96 0 -172.5 42zM335 -81h127l-124 -205h-97z" />
    <glyph glyph-name="uni0123" unicode="&#x123;" horiz-adv-x="649" 
d="M86.5 -173q-69.5 41 -91.5 112l147 28q31 -68 115 -68q54 0 88 25t44 71l7 33q-53 -31 -119 -31q-65 0 -117.5 31t-82.5 86t-30 122q0 80 38.5 147t105 106.5t144.5 39.5q93 0 156 -55l10 47h133l-113 -540q-20 -94 -88.5 -144.5t-178.5 -50.5q-98 0 -167.5 41z
M216.5 150.5q37.5 -38.5 96.5 -38.5q62 0 109 38l44 207q-21 25 -54.5 39.5t-71.5 14.5q-44 0 -81 -22t-58.5 -59.5t-21.5 -81.5q0 -59 37.5 -97.5zM433 807h97l-94 -205h-127z" />
    <glyph glyph-name="Hcircumflex" unicode="&#x124;" horiz-adv-x="754" 
d="M171 700h141l-59 -282h316l60 282h141l-149 -700h-141l60 287h-316l-61 -287h-141zM446 920h138l83 -136h-105l-56 74l-89 -74h-112z" />
    <glyph glyph-name="hcircumflex" unicode="&#x125;" horiz-adv-x="612" 
d="M162 700l140 30l-53 -247q64 46 142 46q79 0 126 -46t47 -121q0 -28 -5 -51l-67 -311h-134l64 298q3 15 3 29q0 39 -24.5 62.5t-66.5 23.5q-64 0 -109 -48l-78 -365h-134zM201 920h138l83 -136h-105l-56 74l-89 -74h-112z" />
    <glyph glyph-name="Hbar" unicode="&#x126;" horiz-adv-x="783" 
d="M142 498h-66l24 115h67l18 87h142l-19 -87h316l19 87h141l-18 -87h66l-24 -115h-67l-106 -498h-141l61 287h-317l-60 -287h-142zM583 418l17 80h-317l-16 -80h316z" />
    <glyph glyph-name="hbar" unicode="&#x127;" horiz-adv-x="611" 
d="M136 579h-57l18 84h57l8 37l140 30l-14 -67h134l-17 -84h-135l-21 -96q64 46 142 46q79 0 126 -46t47 -121q0 -28 -5 -51l-67 -311h-134l64 298q3 15 3 29q0 39 -24.5 62.5t-66.5 23.5q-64 0 -109 -48l-78 -365h-134z" />
    <glyph glyph-name="Itilde" unicode="&#x128;" horiz-adv-x="296" 
d="M171 700h141l-149 -700h-141zM129 892.5q30 27.5 67 27.5q23 0 43.5 -9t47.5 -26q19 -12 32 -18t25 -6q14 0 24.5 11.5t24.5 41.5l77 -26q-25 -58 -55 -86t-68 -28q-23 0 -42.5 8.5t-45.5 25.5q-21 13 -33.5 19t-25.5 6t-24.5 -12.5t-23.5 -40.5l-78 27q25 58 55 85.5z
" />
    <glyph glyph-name="itilde" unicode="&#x129;" horiz-adv-x="270" 
d="M123 521h134l-110 -521h-134zM77 713.5q30 27.5 67 27.5q23 0 43.5 -9t47.5 -26q19 -12 32 -18t25 -6q14 0 24.5 11.5t24.5 41.5l77 -26q-25 -58 -55 -86t-68 -28q-23 0 -42.5 8.5t-45.5 25.5q-21 13 -33.5 19t-25.5 6t-24.5 -12.5t-23.5 -40.5l-78 27q25 58 55 85.5z
" />
    <glyph glyph-name="Imacron" unicode="&#x12a;" horiz-adv-x="296" 
d="M171 700h141l-149 -700h-141zM125 890h310l-20 -86h-309z" />
    <glyph glyph-name="imacron" unicode="&#x12b;" horiz-adv-x="270" 
d="M123 521h134l-110 -521h-134zM73 711h310l-20 -86h-309z" />
    <glyph glyph-name="Ibreve" unicode="&#x12c;" horiz-adv-x="296" 
d="M171 700h141l-149 -700h-141zM156.5 817.5q-41.5 38.5 -43.5 104.5l81 17q6 -83 75 -83q63 0 102 76l83 -26q-29 -62 -77 -94.5t-110 -32.5q-69 0 -110.5 38.5z" />
    <glyph glyph-name="ibreve" unicode="&#x12d;" horiz-adv-x="270" 
d="M123 521h134l-110 -521h-134zM104.5 638.5q-41.5 38.5 -43.5 104.5l81 17q6 -83 75 -83q63 0 102 76l83 -26q-29 -62 -77 -94.5t-110 -32.5q-69 0 -110.5 38.5z" />
    <glyph glyph-name="Iogonek" unicode="&#x12e;" horiz-adv-x="296" 
d="M171 700h141l-149 -699l3 -1q-112 -59 -112 -115q0 -16 11 -25.5t30 -9.5q20 0 37 11l17 -58q-17 -11 -41 -17.5t-47 -6.5q-41 0 -66 19.5t-25 53.5q0 80 117 148h-65z" />
    <glyph glyph-name="iogonek" unicode="&#x12f;" horiz-adv-x="270" 
d="M123 521h134l-110 -520l2 -1q-112 -59 -112 -115q0 -16 11 -25.5t30 -9.5q20 0 37 11l17 -58q-17 -11 -41 -17.5t-47 -6.5q-41 0 -66 19.5t-25 53.5q0 80 117 148h-57zM168.5 713q25.5 26 60.5 26q29 0 48.5 -19.5t19.5 -48.5q0 -35 -26 -61.5t-60 -26.5q-29 0 -48.5 20
t-19.5 49q0 35 25.5 61z" />
    <glyph glyph-name="Idotaccent" unicode="&#x130;" horiz-adv-x="296" 
d="M171 700h141l-149 -700h-141zM214.5 782q-19.5 20 -19.5 49q0 35 25.5 61t60.5 26q29 0 48.5 -19.5t19.5 -48.5q0 -35 -26 -61.5t-60 -26.5q-29 0 -48.5 20z" />
    <glyph glyph-name="dotlessi" unicode="&#x131;" horiz-adv-x="270" 
d="M123 521h134l-110 -521h-134z" />
    <glyph glyph-name="IJ" unicode="&#x132;" horiz-adv-x="915" 
d="M171 700h141l-149 -700h-141zM368 45.5q-68 55.5 -83 158.5l132 46q18 -129 126 -129q61 0 106 41t60 111l90 427h144l-97 -451q-26 -120 -106.5 -189.5t-193.5 -69.5q-110 0 -178 55.5z" />
    <glyph glyph-name="ij" unicode="&#x133;" horiz-adv-x="510" 
d="M123 521h134l-110 -521h-134zM168.5 713q25.5 26 59.5 26q29 0 49 -19.5t20 -48.5q0 -35 -26 -61.5t-60 -26.5q-29 0 -48.5 20t-19.5 49q0 35 25.5 61zM143.5 -202.5q-27.5 9.5 -44.5 24.5l44 102q20 -17 43 -17q25 0 39 14t20 45l118 555h135l-124 -579
q-17 -78 -62 -116t-109 -38q-32 0 -59.5 9.5zM409 713q26 26 60 26q29 0 48.5 -19.5t19.5 -48.5q0 -35 -25.5 -61.5t-59.5 -26.5q-29 0 -49 20t-20 49q0 35 26 61z" />
    <glyph glyph-name="Jcircumflex" unicode="&#x134;" horiz-adv-x="649" 
d="M102 45.5q-68 55.5 -83 158.5l132 46q18 -129 126 -129q61 0 106 41t60 111l90 427h144l-97 -451q-26 -120 -106.5 -189.5t-193.5 -69.5q-110 0 -178 55.5zM582 920h138l83 -136h-105l-56 74l-89 -74h-112z" />
    <glyph glyph-name="jcircumflex" unicode="&#x135;" horiz-adv-x="270" 
d="M-96.5 -202.5q-27.5 9.5 -44.5 24.5l44 102q20 -17 43 -17q25 0 39 14t20 45l118 555h135l-124 -579q-17 -78 -62 -116t-109 -38q-32 0 -59.5 9.5zM166 741h138l83 -136h-105l-56 74l-89 -74h-112z" />
    <glyph glyph-name="uni0136" unicode="&#x136;" horiz-adv-x="713" 
d="M171 700h141l-64 -302l358 302h185l-411 -338l267 -362h-179l-234 332l-71 -332h-141zM218 -81h127l-124 -205h-97z" />
    <glyph glyph-name="uni0137" unicode="&#x137;" horiz-adv-x="586" 
d="M162 700l140 30l-92 -433l256 224h167l-307 -260l208 -261h-162l-176 231l-49 -231h-134zM162 -81h127l-124 -205h-97z" />
    <glyph glyph-name="kgreenlandic" unicode="&#x138;" horiz-adv-x="586" 
d="M124 521h133l-47 -225l258 225h166l-308 -261l206 -260h-162l-174 230l-49 -230h-134z" />
    <glyph glyph-name="Lacute" unicode="&#x139;" horiz-adv-x="646" 
d="M171 700h141l-121 -572h375l-27 -128h-517zM305 917h154l-159 -130h-112z" />
    <glyph glyph-name="lacute" unicode="&#x13a;" horiz-adv-x="270" 
d="M162 700l140 30l-155 -730h-134zM292 917h154l-159 -130h-112z" />
    <glyph glyph-name="uni013B" unicode="&#x13b;" horiz-adv-x="646" 
d="M171 700h141l-121 -572h375l-27 -128h-517zM220 -81h127l-124 -205h-97z" />
    <glyph glyph-name="uni013C" unicode="&#x13c;" horiz-adv-x="270" 
d="M162 700l140 30l-155 -730h-134zM-3 -81h127l-124 -205h-97z" />
    <glyph glyph-name="Lcaron" unicode="&#x13d;" horiz-adv-x="646" 
d="M171 700h141l-121 -572h375l-27 -128h-517zM493 702l118 22l-90 -223h-80z" />
    <glyph glyph-name="lcaron" unicode="&#x13e;" horiz-adv-x="418" 
d="M162 700l140 30l-155 -730h-134zM382 702l118 22l-90 -223h-80z" />
    <glyph glyph-name="Ldot" unicode="&#x13f;" horiz-adv-x="646" 
d="M171 700h141l-121 -572h375l-27 -128h-517zM419.5 297q-19.5 20 -19.5 49q0 35 25.5 61t60.5 26q29 0 48.5 -19.5t19.5 -48.5q0 -35 -26 -61.5t-60 -26.5q-29 0 -48.5 20z" />
    <glyph glyph-name="ldot" unicode="&#x140;" horiz-adv-x="392" 
d="M162 700l140 30l-155 -730h-134zM277.5 286q-19.5 20 -19.5 49q0 35 25.5 61t60.5 26q29 0 48.5 -19.5t19.5 -48.5q0 -35 -26 -61.5t-60 -26.5q-29 0 -48.5 20z" />
    <glyph glyph-name="Lslash" unicode="&#x141;" horiz-adv-x="672" 
d="M91 208l-86 -49l25 123l88 49l78 369h142l-60 -281l204 116l-26 -123l-204 -116l-36 -168h375l-27 -128h-517z" />
    <glyph glyph-name="lslash" unicode="&#x142;" horiz-adv-x="313" 
d="M92 259l-79 -50l27 125l78 49l68 317l140 30l-54 -251l81 51l-27 -125l-80 -51l-75 -354h-134z" />
    <glyph glyph-name="Nacute" unicode="&#x143;" horiz-adv-x="764" 
d="M171 700h134l243 -466l98 466h134l-149 -700h-124l-249 481l-102 -481h-134zM539 917h154l-159 -130h-112z" />
    <glyph glyph-name="nacute" unicode="&#x144;" horiz-adv-x="612" 
d="M123 521h134l-8 -38q64 46 142 46q79 0 126 -46t47 -121q0 -28 -5 -51l-67 -311h-134l64 298q3 15 3 29q0 39 -24.5 62.5t-66.5 23.5q-65 0 -110 -48l-77 -365h-134zM425 738h154l-159 -130h-112z" />
    <glyph glyph-name="uni0145" unicode="&#x145;" horiz-adv-x="764" 
d="M171 700h134l243 -466l98 466h134l-149 -700h-124l-249 481l-102 -481h-134zM244 -81h127l-124 -205h-97z" />
    <glyph glyph-name="uni0146" unicode="&#x146;" horiz-adv-x="612" 
d="M123 521h134l-8 -38q64 46 142 46q79 0 126 -46t47 -121q0 -28 -5 -51l-67 -311h-134l64 298q3 15 3 29q0 39 -24.5 62.5t-66.5 23.5q-65 0 -110 -48l-77 -365h-134zM169 -81h127l-124 -205h-97z" />
    <glyph glyph-name="Ncaron" unicode="&#x147;" horiz-adv-x="764" 
d="M171 700h134l243 -466l98 466h134l-149 -700h-124l-249 481l-102 -481h-134zM341 920h105l57 -73l87 73h113l-141 -135h-138z" />
    <glyph glyph-name="ncaron" unicode="&#x148;" horiz-adv-x="612" 
d="M123 521h134l-8 -38q64 46 142 46q79 0 126 -46t47 -121q0 -28 -5 -51l-67 -311h-134l64 298q3 15 3 29q0 39 -24.5 62.5t-66.5 23.5q-65 0 -110 -48l-77 -365h-134zM227 741h105l57 -73l87 73h113l-141 -135h-138z" />
    <glyph glyph-name="Eng" unicode="&#x14a;" horiz-adv-x="764" 
d="M391.5 -208q-23.5 4 -38.5 9l23 104q28 -6 51 -6q25 0 39.5 12t20.5 38l13 63l-243 464l-101 -476h-134l149 700h134l243 -460l98 460h134l-163 -766q-15 -70 -62.5 -108t-119.5 -38q-20 0 -43.5 4z" />
    <glyph glyph-name="eng" unicode="&#x14b;" horiz-adv-x="611" 
d="M252 -211q-24 4 -38 9l23 104q21 -6 50 -6q25 0 39.5 12t20.5 38l75 352q3 15 3 28q0 40 -24.5 63.5t-66.5 23.5q-65 0 -110 -48l-77 -365h-134l110 521h134l-8 -38q64 46 142 46q79 0 126 -46t47 -121q0 -29 -5 -50l-81 -380q-15 -70 -62.5 -108.5t-119.5 -38.5
q-20 0 -44 4z" />
    <glyph glyph-name="Omacron" unicode="&#x14c;" horiz-adv-x="827" 
d="M234.5 32.5q-77.5 43.5 -121.5 119t-44 168.5q0 105 52.5 195t142 143t194.5 53q95 0 172.5 -43.5t121.5 -119t44 -168.5q0 -105 -52.5 -195t-142 -143t-194.5 -53q-95 0 -172.5 43.5zM240 223q26 -47 72 -74t104 -27q64 0 118 33.5t85.5 91t31.5 124.5q0 59 -26 106
t-72 74t-104 27q-64 0 -118 -33.5t-85.5 -91t-31.5 -124.5q0 -59 26 -106zM347 890h310l-20 -86h-309z" />
    <glyph glyph-name="omacron" unicode="&#x14d;" horiz-adv-x="637" 
d="M170.5 23q-58.5 33 -92 90t-33.5 127q0 78 39.5 145t106.5 106.5t145 39.5q72 0 130.5 -33t92 -90t33.5 -127q0 -78 -39.5 -145t-106.5 -106.5t-145 -39.5q-72 0 -130.5 33zM213 148q37 -39 94 -39q41 0 76.5 22.5t56 60.5t20.5 82q0 60 -37 99t-94 39q-41 0 -76.5 -22.5
t-56 -60.5t-20.5 -82q0 -60 37 -99zM227 711h310l-20 -86h-309z" />
    <glyph glyph-name="Obreve" unicode="&#x14e;" horiz-adv-x="827" 
d="M234.5 32.5q-77.5 43.5 -121.5 119t-44 168.5q0 105 52.5 195t142 143t194.5 53q95 0 172.5 -43.5t121.5 -119t44 -168.5q0 -105 -52.5 -195t-142 -143t-194.5 -53q-95 0 -172.5 43.5zM240 223q26 -47 72 -74t104 -27q64 0 118 33.5t85.5 91t31.5 124.5q0 59 -26 106
t-72 74t-104 27q-64 0 -118 -33.5t-85.5 -91t-31.5 -124.5q0 -59 26 -106zM378.5 817.5q-41.5 38.5 -43.5 104.5l81 17q6 -83 75 -83q63 0 102 76l83 -26q-29 -62 -77 -94.5t-110 -32.5q-69 0 -110.5 38.5z" />
    <glyph glyph-name="obreve" unicode="&#x14f;" horiz-adv-x="637" 
d="M170.5 23q-58.5 33 -92 90t-33.5 127q0 78 39.5 145t106.5 106.5t145 39.5q72 0 130.5 -33t92 -90t33.5 -127q0 -78 -39.5 -145t-106.5 -106.5t-145 -39.5q-72 0 -130.5 33zM213 148q37 -39 94 -39q41 0 76.5 22.5t56 60.5t20.5 82q0 60 -37 99t-94 39q-41 0 -76.5 -22.5
t-56 -60.5t-20.5 -82q0 -60 37 -99zM258.5 638.5q-41.5 38.5 -43.5 104.5l81 17q6 -83 75 -83q63 0 102 76l83 -26q-29 -62 -77 -94.5t-110 -32.5q-69 0 -110.5 38.5z" />
    <glyph glyph-name="Ohungarumlaut" unicode="&#x150;" horiz-adv-x="827" 
d="M234.5 32.5q-77.5 43.5 -121.5 119t-44 168.5q0 105 52.5 195t142 143t194.5 53q95 0 172.5 -43.5t121.5 -119t44 -168.5q0 -105 -52.5 -195t-142 -143t-194.5 -53q-95 0 -172.5 43.5zM240 223q26 -47 72 -74t104 -27q64 0 118 33.5t85.5 91t31.5 124.5q0 59 -26 106
t-72 74t-104 27q-64 0 -118 -33.5t-85.5 -91t-31.5 -124.5q0 -59 26 -106zM578 916l-156 -127h-104l127 127h133zM647 916h135l-165 -127h-97z" />
    <glyph glyph-name="ohungarumlaut" unicode="&#x151;" horiz-adv-x="637" 
d="M170.5 23q-58.5 33 -92 90t-33.5 127q0 78 39.5 145t106.5 106.5t145 39.5q72 0 130.5 -33t92 -90t33.5 -127q0 -78 -39.5 -145t-106.5 -106.5t-145 -39.5q-72 0 -130.5 33zM213 148q37 -39 94 -39q41 0 76.5 22.5t56 60.5t20.5 82q0 60 -37 99t-94 39q-41 0 -76.5 -22.5
t-56 -60.5t-20.5 -82q0 -60 37 -99zM458 737l-156 -127h-104l127 127h133zM527 737h135l-165 -127h-97z" />
    <glyph glyph-name="OE" unicode="&#x152;" horiz-adv-x="1124" 
d="M232 42q-76 42 -119.5 115t-43.5 163q0 102 52.5 189.5t141.5 139t192 51.5h706l-26 -126h-419q29 -32 46 -73t21 -87h193l-26 -122h-175q-11 -48 -35.5 -90.5t-59.5 -75.5h359l-26 -126h-611q-94 0 -170 42zM240.5 228q25.5 -45 70.5 -70.5t101 -25.5q61 0 113.5 32.5
t83 88t30.5 119.5q0 55 -25 99.5t-69.5 70t-99.5 25.5q-62 0 -115 -32.5t-84 -87.5t-31 -118q0 -56 25.5 -101z" />
    <glyph glyph-name="oe" unicode="&#x153;" horiz-adv-x="1034" 
d="M383.5 131.5q35.5 22.5 56 60.5t20.5 82q0 60 -37 99t-94 39q-41 0 -76.5 -22.5t-56 -60.5t-20.5 -82q0 -60 37 -99t94 -39q41 0 76.5 22.5zM84.5 385q39.5 67 106.5 106.5t145 39.5q63 0 115.5 -27.5t85.5 -75.5q38 49 92 76t122 27q70 0 124 -30.5t84 -84.5t30 -124
q0 -26 -8 -68h-389q1 -53 36 -87t91 -34q45 0 78 21.5t52 59.5l113 -50q-38 -71 -101.5 -107.5t-145.5 -36.5q-68 0 -119.5 27t-83.5 75q-40 -48 -95 -75t-119 -27q-71 0 -129 33t-91 90t-33 127q0 78 39.5 145zM864 311q-5 50 -36.5 78.5t-84.5 28.5q-52 0 -90.5 -29
t-51.5 -78h263z" />
    <glyph glyph-name="Racute" unicode="&#x154;" horiz-adv-x="704" 
d="M172 700h337q93 0 148.5 -43t55.5 -117q0 -15 -3 -33q-11 -66 -59.5 -116.5t-119.5 -72.5q70 -21 70 -118q0 -9 -2 -31l-1 -18q-2 -26 -2 -39q0 -70 23 -112h-166q-11 22 -11 59q0 34 8 80l2 18q4 28 4 39q0 38 -19.5 55.5t-62.5 17.5h-150l-56 -269h-145zM432 388
q55 0 92 32.5t37 80.5q0 34 -24.5 54.5t-65.5 20.5h-182l-40 -188h183zM509 917h154l-159 -130h-112z" />
    <glyph glyph-name="racute" unicode="&#x155;" horiz-adv-x="511" 
d="M123 521h134l-8 -39q25 23 57.5 36t65.5 13q61 0 92 -47t29 -133l-128 -25q1 42 -14 64.5t-45 22.5q-23 0 -44 -12.5t-38 -35.5l-77 -365h-134zM367 737h154l-159 -130h-112z" />
    <glyph glyph-name="uni0156" unicode="&#x156;" horiz-adv-x="704" 
d="M172 700h337q93 0 148.5 -43t55.5 -117q0 -15 -3 -33q-11 -66 -59.5 -116.5t-119.5 -72.5q70 -21 70 -118q0 -9 -2 -31l-1 -18q-2 -26 -2 -39q0 -70 23 -112h-166q-11 22 -11 59q0 34 8 80l2 18q4 28 4 39q0 38 -19.5 55.5t-62.5 17.5h-150l-56 -269h-145zM432 388
q55 0 92 32.5t37 80.5q0 34 -24.5 54.5t-65.5 20.5h-182l-40 -188h183zM219 -81h127l-124 -205h-97z" />
    <glyph glyph-name="uni0157" unicode="&#x157;" horiz-adv-x="511" 
d="M123 521h134l-8 -39q25 23 57.5 36t65.5 13q61 0 92 -47t29 -133l-128 -25q1 42 -14 64.5t-45 22.5q-23 0 -44 -12.5t-38 -35.5l-77 -365h-134zM-7 -81h127l-124 -205h-97z" />
    <glyph glyph-name="Rcaron" unicode="&#x158;" horiz-adv-x="704" 
d="M172 700h337q93 0 148.5 -43t55.5 -117q0 -15 -3 -33q-11 -66 -59.5 -116.5t-119.5 -72.5q70 -21 70 -118q0 -9 -2 -31l-1 -18q-2 -26 -2 -39q0 -70 23 -112h-166q-11 22 -11 59q0 34 8 80l2 18q4 28 4 39q0 38 -19.5 55.5t-62.5 17.5h-150l-56 -269h-145zM432 388
q55 0 92 32.5t37 80.5q0 34 -24.5 54.5t-65.5 20.5h-182l-40 -188h183zM311 920h105l57 -73l87 73h113l-141 -135h-138z" />
    <glyph glyph-name="rcaron" unicode="&#x159;" horiz-adv-x="511" 
d="M123 521h134l-8 -39q25 23 57.5 36t65.5 13q61 0 92 -47t29 -133l-128 -25q1 42 -14 64.5t-45 22.5q-23 0 -44 -12.5t-38 -35.5l-77 -365h-134zM169 740h105l57 -73l87 73h113l-141 -135h-138z" />
    <glyph glyph-name="Sacute" unicode="&#x15a;" horiz-adv-x="650" 
d="M114 42.5q-81 54.5 -101 148.5l140 31q18 -57 58 -83.5t111 -26.5q55 0 89 25t34 67q0 28 -21 47t-65 30l-112 29q-78 20 -118.5 65t-40.5 111q0 68 34.5 119t95.5 78.5t137 27.5q113 0 187.5 -48t101.5 -139l-136 -31q-36 96 -157 96q-47 0 -83.5 -23.5t-36.5 -61.5
q0 -53 79 -74l106 -26q90 -22 133.5 -65.5t43.5 -116.5q0 -67 -36.5 -120.5t-100 -83.5t-143.5 -30q-118 0 -199 54.5zM425 917h154l-159 -130h-112z" />
    <glyph glyph-name="sacute" unicode="&#x15b;" horiz-adv-x="528" 
d="M91 29q-62 40 -83 115l123 23q29 -75 121 -75q43 0 67 16t24 43q0 19 -13 29.5t-45 18.5l-97 22q-61 14 -93.5 50.5t-32.5 91.5q0 48 26.5 86t75.5 59.5t113 21.5q86 0 145.5 -36.5t81.5 -106.5l-119 -23q-31 63 -118 63q-38 0 -59.5 -14.5t-21.5 -38.5q0 -19 14 -30.5
t47 -18.5l86 -19q138 -30 138 -134q0 -52 -28.5 -93.5t-79.5 -65.5t-115 -24q-95 0 -157 40zM337 738h154l-159 -130h-112z" />
    <glyph glyph-name="Scircumflex" unicode="&#x15c;" horiz-adv-x="650" 
d="M114 42.5q-81 54.5 -101 148.5l140 31q18 -57 58 -83.5t111 -26.5q55 0 89 25t34 67q0 28 -21 47t-65 30l-112 29q-78 20 -118.5 65t-40.5 111q0 68 34.5 119t95.5 78.5t137 27.5q113 0 187.5 -48t101.5 -139l-136 -31q-36 96 -157 96q-47 0 -83.5 -23.5t-36.5 -61.5
q0 -53 79 -74l106 -26q90 -22 133.5 -65.5t43.5 -116.5q0 -67 -36.5 -120.5t-100 -83.5t-143.5 -30q-118 0 -199 54.5zM337 920h138l83 -136h-105l-56 74l-89 -74h-112z" />
    <glyph glyph-name="scircumflex" unicode="&#x15d;" horiz-adv-x="528" 
d="M91 29q-62 40 -83 115l123 23q29 -75 121 -75q43 0 67 16t24 43q0 19 -13 29.5t-45 18.5l-97 22q-61 14 -93.5 50.5t-32.5 91.5q0 48 26.5 86t75.5 59.5t113 21.5q86 0 145.5 -36.5t81.5 -106.5l-119 -23q-31 63 -118 63q-38 0 -59.5 -14.5t-21.5 -38.5q0 -19 14 -30.5
t47 -18.5l86 -19q138 -30 138 -134q0 -52 -28.5 -93.5t-79.5 -65.5t-115 -24q-95 0 -157 40zM248 741h138l83 -136h-105l-56 74l-89 -74h-112z" />
    <glyph glyph-name="Scedilla" unicode="&#x15e;" horiz-adv-x="650" 
d="M171.5 -214q-32.5 21 -45.5 60l74 15q15 -32 56 -32q23 0 36.5 11t13.5 29q0 17 -13 26.5t-35 9.5h-39l42 86q-99 11 -164.5 64t-83.5 136l140 31q18 -57 58 -83.5t111 -26.5q55 0 89 25t34 67q0 28 -21 47t-65 30l-112 29q-78 20 -118.5 65t-40.5 111q0 68 34.5 119
t95.5 78.5t137 27.5q113 0 187.5 -48t101.5 -139l-136 -31q-36 96 -157 96q-47 0 -83.5 -23.5t-36.5 -61.5q0 -53 79 -74l106 -26q90 -22 133.5 -65.5t43.5 -116.5q0 -65 -34 -117.5t-95 -83t-137 -33.5l-18 -35q36 -6 56 -27t20 -53q0 -50 -35.5 -79t-96.5 -29
q-49 0 -81.5 21z" />
    <glyph glyph-name="scedilla" unicode="&#x15f;" horiz-adv-x="528" 
d="M105.5 -214q-32.5 21 -45.5 60l74 15q15 -32 56 -32q23 0 36.5 11t13.5 29q0 17 -13 26.5t-35 9.5h-39l43 87q-74 11 -122 49.5t-66 102.5l123 23q29 -75 121 -75q43 0 67 16t24 43q0 19 -13 29.5t-45 18.5l-97 22q-61 14 -93.5 50.5t-32.5 91.5q0 48 26.5 86t75.5 59.5
t113 21.5q86 0 145.5 -36.5t81.5 -106.5l-119 -23q-31 63 -118 63q-38 0 -59.5 -14.5t-21.5 -38.5q0 -19 14 -30.5t47 -18.5l86 -19q138 -30 138 -134q0 -50 -27 -90.5t-74.5 -65t-107.5 -27.5l-19 -36q36 -6 56 -27t20 -53q0 -50 -35.5 -79t-96.5 -29q-49 0 -81.5 21z" />
    <glyph glyph-name="Scaron" unicode="&#x160;" horiz-adv-x="650" 
d="M114 42.5q-81 54.5 -101 148.5l140 31q18 -57 58 -83.5t111 -26.5q55 0 89 25t34 67q0 28 -21 47t-65 30l-112 29q-78 20 -118.5 65t-40.5 111q0 68 34.5 119t95.5 78.5t137 27.5q113 0 187.5 -48t101.5 -139l-136 -31q-36 96 -157 96q-47 0 -83.5 -23.5t-36.5 -61.5
q0 -53 79 -74l106 -26q90 -22 133.5 -65.5t43.5 -116.5q0 -67 -36.5 -120.5t-100 -83.5t-143.5 -30q-118 0 -199 54.5zM227 920h105l57 -73l87 73h113l-141 -135h-138z" />
    <glyph glyph-name="scaron" unicode="&#x161;" horiz-adv-x="528" 
d="M91 29q-62 40 -83 115l123 23q29 -75 121 -75q43 0 67 16t24 43q0 19 -13 29.5t-45 18.5l-97 22q-61 14 -93.5 50.5t-32.5 91.5q0 48 26.5 86t75.5 59.5t113 21.5q86 0 145.5 -36.5t81.5 -106.5l-119 -23q-31 63 -118 63q-38 0 -59.5 -14.5t-21.5 -38.5q0 -19 14 -30.5
t47 -18.5l86 -19q138 -30 138 -134q0 -52 -28.5 -93.5t-79.5 -65.5t-115 -24q-95 0 -157 40zM139 741h105l57 -73l87 73h113l-141 -135h-138z" />
    <glyph glyph-name="uni0162" unicode="&#x162;" horiz-adv-x="669" 
d="M330 572h-232l28 128h604l-28 -128h-230l-122 -572h-142zM152.5 -214q-32.5 21 -45.5 60l74 15q15 -32 56 -32q23 0 36.5 11t13.5 29q0 17 -13 26.5t-35 9.5h-39l47 95h67l-24 -47q36 -6 56 -27t20 -53q0 -50 -35.5 -79t-96.5 -29q-49 0 -81.5 21z" />
    <glyph glyph-name="uni0163" unicode="&#x163;" horiz-adv-x="452" 
d="M105.5 -214q-32.5 21 -45.5 60l74 15q15 -32 56 -32q23 0 36.5 11t13.5 29q0 17 -13 26.5t-35 9.5h-39l47 94q-45 14 -70 48.5t-25 83.5q0 19 5 46l47 230h-106l24 114h107l27 133l144 31l-35 -164h148l-25 -114h-147l-49 -232q-2 -14 -2 -19q0 -21 11.5 -32t29.5 -11
q14 0 24.5 4t25.5 15l43 -93q-23 -21 -53 -34t-62 -14l-19 -38q36 -6 56 -27t20 -53q0 -50 -35.5 -79t-96.5 -29q-49 0 -81.5 21z" />
    <glyph glyph-name="Tcaron" unicode="&#x164;" horiz-adv-x="669" 
d="M330 572h-232l28 128h604l-28 -128h-230l-122 -572h-142zM294 920h105l57 -73l87 73h113l-141 -135h-138z" />
    <glyph glyph-name="tcaron" unicode="&#x165;" horiz-adv-x="453" 
d="M456 787l118 22l-89 -221h-80zM75 521h107l27 133l144 31l-35 -164h148l-25 -114h-147l-49 -232q-2 -14 -2 -19q0 -21 11.5 -32t29.5 -11q14 0 24.5 4t25.5 15l43 -93q-23 -22 -54.5 -35t-64.5 -13q-70 0 -111.5 37.5t-41.5 102.5q0 19 5 46l47 230h-106z" />
    <glyph glyph-name="Tbar" unicode="&#x166;" horiz-adv-x="669" 
d="M267 280h-137l24 115h138l38 177h-232l28 128h604l-28 -128h-230l-38 -177h138l-24 -115h-138l-60 -280h-142z" />
    <glyph glyph-name="tbar" unicode="&#x167;" horiz-adv-x="455" 
d="M410 229h-153l-11 -54q-2 -14 -2 -19q0 -21 11.5 -32t29.5 -11q14 0 24.5 4t25.5 15l43 -93q-23 -22 -54.5 -35t-64.5 -13q-70 0 -111.5 37.5t-41.5 102.5q0 19 5 46l11 52h-95l20 99h95l16 79h-106l24 114h107l27 133l144 31l-35 -164h148l-25 -114h-147l-17 -79h152z
" />
    <glyph glyph-name="Utilde" unicode="&#x168;" horiz-adv-x="740" 
d="M198.5 21.5q-61.5 31.5 -94 88.5t-32.5 134q0 39 9 84l79 372h142l-82 -386q-6 -27 -6 -51q0 -64 37 -101.5t103 -37.5q68 0 118 45t67 122l87 409h141l-90 -422q-29 -136 -117 -212t-216 -76q-84 0 -145.5 31.5zM344 892.5q30 27.5 67 27.5q23 0 43.5 -9t47.5 -26
q19 -12 32 -18t25 -6q14 0 24.5 11.5t24.5 41.5l77 -26q-25 -58 -55 -86t-68 -28q-23 0 -42.5 8.5t-45.5 25.5q-21 13 -33.5 19t-25.5 6t-24.5 -12.5t-23.5 -40.5l-78 27q25 58 55 85.5z" />
    <glyph glyph-name="utilde" unicode="&#x169;" horiz-adv-x="612" 
d="M94 37.5q-47 45.5 -47 120.5q0 25 6 52l66 311h134l-63 -298q-3 -15 -3 -30q0 -39 24 -62t67 -23q64 0 109 48l78 365h134l-111 -521h-134l8 38q-62 -46 -142 -46q-79 0 -126 45.5zM238 713.5q30 27.5 67 27.5q23 0 43.5 -9t47.5 -26q19 -12 32 -18t25 -6q14 0 24.5 11.5
t24.5 41.5l77 -26q-25 -58 -55 -86t-68 -28q-23 0 -42.5 8.5t-45.5 25.5q-21 13 -33.5 19t-25.5 6t-24.5 -12.5t-23.5 -40.5l-78 27q25 58 55 85.5z" />
    <glyph glyph-name="Umacron" unicode="&#x16a;" horiz-adv-x="740" 
d="M198.5 21.5q-61.5 31.5 -94 88.5t-32.5 134q0 39 9 84l79 372h142l-82 -386q-6 -27 -6 -51q0 -64 37 -101.5t103 -37.5q68 0 118 45t67 122l87 409h141l-90 -422q-29 -136 -117 -212t-216 -76q-84 0 -145.5 31.5zM340 890h310l-20 -86h-309z" />
    <glyph glyph-name="umacron" unicode="&#x16b;" horiz-adv-x="612" 
d="M94 37.5q-47 45.5 -47 120.5q0 25 6 52l66 311h134l-63 -298q-3 -15 -3 -30q0 -39 24 -62t67 -23q64 0 109 48l78 365h134l-111 -521h-134l8 38q-62 -46 -142 -46q-79 0 -126 45.5zM234 711h310l-20 -86h-309z" />
    <glyph glyph-name="Ubreve" unicode="&#x16c;" horiz-adv-x="740" 
d="M198.5 21.5q-61.5 31.5 -94 88.5t-32.5 134q0 39 9 84l79 372h142l-82 -386q-6 -27 -6 -51q0 -64 37 -101.5t103 -37.5q68 0 118 45t67 122l87 409h141l-90 -422q-29 -136 -117 -212t-216 -76q-84 0 -145.5 31.5zM371.5 817.5q-41.5 38.5 -43.5 104.5l81 17q6 -83 75 -83
q63 0 102 76l83 -26q-29 -62 -77 -94.5t-110 -32.5q-69 0 -110.5 38.5z" />
    <glyph glyph-name="ubreve" unicode="&#x16d;" horiz-adv-x="612" 
d="M94 37.5q-47 45.5 -47 120.5q0 25 6 52l66 311h134l-63 -298q-3 -15 -3 -30q0 -39 24 -62t67 -23q64 0 109 48l78 365h134l-111 -521h-134l8 38q-62 -46 -142 -46q-79 0 -126 45.5zM265.5 638.5q-41.5 38.5 -43.5 104.5l81 17q6 -83 75 -83q63 0 102 76l83 -26
q-29 -62 -77 -94.5t-110 -32.5q-69 0 -110.5 38.5z" />
    <glyph glyph-name="Uring" unicode="&#x16e;" horiz-adv-x="740" 
d="M198.5 21.5q-61.5 31.5 -94 88.5t-32.5 134q0 39 9 84l79 372h142l-82 -386q-6 -27 -6 -51q0 -64 37 -101.5t103 -37.5q68 0 118 45t67 122l87 409h141l-90 -422q-29 -136 -117 -212t-216 -76q-84 0 -145.5 31.5zM400 795q-31 30 -31 76q0 34 18.5 65t48.5 49.5t64 18.5
q49 0 80 -30t31 -76q0 -34 -18.5 -65t-49 -49.5t-64.5 -18.5q-48 0 -79 30zM444.5 837.5q15.5 -15.5 38.5 -15.5q28 0 48 20.5t20 49.5q0 24 -15.5 39.5t-38.5 15.5q-28 0 -48 -20.5t-20 -49.5q0 -24 15.5 -39.5z" />
    <glyph glyph-name="uring" unicode="&#x16f;" horiz-adv-x="612" 
d="M94 37.5q-47 45.5 -47 120.5q0 25 6 52l66 311h134l-63 -298q-3 -15 -3 -30q0 -39 24 -62t67 -23q64 0 109 48l78 365h134l-111 -521h-134l8 38q-62 -46 -142 -46q-79 0 -126 45.5zM294 616q-31 30 -31 76q0 34 18.5 65t48.5 49.5t64 18.5q49 0 80 -30t31 -76
q0 -34 -18.5 -65t-49 -49.5t-64.5 -18.5q-48 0 -79 30zM338.5 658.5q15.5 -15.5 38.5 -15.5q28 0 48 20.5t20 49.5q0 24 -15.5 39.5t-38.5 15.5q-28 0 -48 -20.5t-20 -49.5q0 -24 15.5 -39.5z" />
    <glyph glyph-name="Uhungarumlaut" unicode="&#x170;" horiz-adv-x="740" 
d="M198.5 21.5q-61.5 31.5 -94 88.5t-32.5 134q0 39 9 84l79 372h142l-82 -386q-6 -27 -6 -51q0 -64 37 -101.5t103 -37.5q68 0 118 45t67 122l87 409h141l-90 -422q-29 -136 -117 -212t-216 -76q-84 0 -145.5 31.5zM571 916l-156 -127h-104l127 127h133zM640 916h135
l-165 -127h-97z" />
    <glyph glyph-name="uhungarumlaut" unicode="&#x171;" horiz-adv-x="612" 
d="M94 37.5q-47 45.5 -47 120.5q0 25 6 52l66 311h134l-63 -298q-3 -15 -3 -30q0 -39 24 -62t67 -23q64 0 109 48l78 365h134l-111 -521h-134l8 38q-62 -46 -142 -46q-79 0 -126 45.5zM465 737l-156 -127h-104l127 127h133zM534 737h135l-165 -127h-97z" />
    <glyph glyph-name="Uogonek" unicode="&#x172;" horiz-adv-x="740" 
d="M260 -201.5q-25 19.5 -25 53.5q0 76 101 138q-81 1 -141 33t-91.5 89t-31.5 132q0 41 9 84l79 372h142l-82 -386q-6 -27 -6 -51q0 -64 37 -101.5t103 -37.5q68 0 118 45t67 122l87 409h141l-90 -422q-24 -111 -88 -183t-158 -95q-112 -59 -112 -115q0 -16 11 -25.5
t30 -9.5q20 0 37 11l17 -58q-17 -11 -41 -17.5t-47 -6.5q-41 0 -66 19.5z" />
    <glyph glyph-name="uogonek" unicode="&#x173;" horiz-adv-x="612" 
d="M94 37.5q-47 45.5 -47 120.5q0 25 6 52l66 311h134l-63 -298q-3 -15 -3 -30q0 -39 24 -62t67 -23q64 0 109 48l78 365h134l-111 -520l2 -1q-112 -59 -112 -115q0 -16 11 -25.5t30 -9.5q20 0 37 11l17 -58q-17 -11 -41 -17.5t-47 -6.5q-41 0 -66 19.5t-25 53.5
q0 80 117 148h-57l8 38q-62 -46 -142 -46q-79 0 -126 45.5z" />
    <glyph glyph-name="Wcircumflex" unicode="&#x174;" horiz-adv-x="956" 
d="M135 700h140l-7 -474l234 474h134l34 -472l193 472h145l-299 -700h-150l-33 489l-240 -489h-148zM544 920h138l83 -136h-105l-56 74l-89 -74h-112z" />
    <glyph glyph-name="wcircumflex" unicode="&#x175;" horiz-adv-x="786" 
d="M80 521h125l13 -336l172 336h113l30 -336l156 336h128l-251 -521h-129l-28 334l-170 -334h-128zM422 741h138l83 -136h-105l-56 74l-89 -74h-112z" />
    <glyph glyph-name="Ycircumflex" unicode="&#x176;" horiz-adv-x="721" 
d="M290 269l-188 431h151l130 -304l256 304h167l-373 -434l-57 -266h-142zM422 920h138l83 -136h-105l-56 74l-89 -74h-112z" />
    <glyph glyph-name="ycircumflex" unicode="&#x177;" horiz-adv-x="595" 
d="M-10 -202.5q-34 11.5 -56 31.5l53 106q15 -13 30 -18.5t34 -5.5q56 0 88 56l21 33l-90 521h143l54 -366l224 366h147l-371 -590q-47 -75 -98 -110t-110 -35q-35 0 -69 11.5zM322 741h138l83 -136h-105l-56 74l-89 -74h-112z" />
    <glyph glyph-name="Ydieresis" unicode="&#x178;" horiz-adv-x="721" 
d="M290 269l-188 431h151l130 -304l256 304h167l-373 -434l-57 -266h-142zM315.5 799.5q-17.5 18.5 -17.5 45.5q0 33 24 57t56 24q25 0 42.5 -18.5t17.5 -45.5q0 -32 -23.5 -56.5t-54.5 -24.5q-27 0 -44.5 18.5zM533 901.5q24 24.5 56 24.5q25 0 42.5 -18.5t17.5 -45.5
q0 -32 -23.5 -56.5t-54.5 -24.5q-26 0 -44 18.5t-18 45.5q0 32 24 56.5z" />
    <glyph glyph-name="Zacute" unicode="&#x179;" horiz-adv-x="634" 
d="M2 99l469 475h-365l27 126h560l-22 -99l-470 -475h374l-27 -126h-567zM455 917h154l-159 -130h-112z" />
    <glyph glyph-name="zacute" unicode="&#x17a;" horiz-adv-x="519" 
d="M7 97l314 309h-247l24 115h427l-20 -97l-315 -309h256l-25 -115h-435zM366 738h154l-159 -130h-112z" />
    <glyph glyph-name="Zdotaccent" unicode="&#x17b;" horiz-adv-x="634" 
d="M2 99l469 475h-365l27 126h560l-22 -99l-470 -475h374l-27 -126h-567zM363.5 782q-19.5 20 -19.5 49q0 35 25.5 61t60.5 26q29 0 48.5 -19.5t19.5 -48.5q0 -35 -26 -61.5t-60 -26.5q-29 0 -48.5 20z" />
    <glyph glyph-name="zdotaccent" unicode="&#x17c;" horiz-adv-x="519" 
d="M7 97l314 309h-247l24 115h427l-20 -97l-315 -309h256l-25 -115h-435zM274.5 603q-19.5 20 -19.5 49q0 35 25.5 61t60.5 26q29 0 48.5 -19.5t19.5 -48.5q0 -35 -26 -61.5t-60 -26.5q-29 0 -48.5 20z" />
    <glyph glyph-name="Zcaron" unicode="&#x17d;" horiz-adv-x="634" 
d="M2 99l469 475h-365l27 126h560l-22 -99l-470 -475h374l-27 -126h-567zM257 920h105l57 -73l87 73h113l-141 -135h-138z" />
    <glyph glyph-name="zcaron" unicode="&#x17e;" horiz-adv-x="519" 
d="M7 97l314 309h-247l24 115h427l-20 -97l-315 -309h256l-25 -115h-435zM168 741h105l57 -73l87 73h113l-141 -135h-138z" />
    <glyph glyph-name="uni0218" unicode="&#x218;" horiz-adv-x="650" 
d="M114 42.5q-81 54.5 -101 148.5l140 31q18 -57 58 -83.5t111 -26.5q55 0 89 25t34 67q0 28 -21 47t-65 30l-112 29q-78 20 -118.5 65t-40.5 111q0 68 34.5 119t95.5 78.5t137 27.5q113 0 187.5 -48t101.5 -139l-136 -31q-36 96 -157 96q-47 0 -83.5 -23.5t-36.5 -61.5
q0 -53 79 -74l106 -26q90 -22 133.5 -65.5t43.5 -116.5q0 -67 -36.5 -120.5t-100 -83.5t-143.5 -30q-118 0 -199 54.5zM216 -81h127l-124 -205h-97z" />
    <glyph glyph-name="uni0219" unicode="&#x219;" horiz-adv-x="528" 
d="M91 29q-62 40 -83 115l123 23q29 -75 121 -75q43 0 67 16t24 43q0 19 -13 29.5t-45 18.5l-97 22q-61 14 -93.5 50.5t-32.5 91.5q0 48 26.5 86t75.5 59.5t113 21.5q86 0 145.5 -36.5t81.5 -106.5l-119 -23q-31 63 -118 63q-38 0 -59.5 -14.5t-21.5 -38.5q0 -19 14 -30.5
t47 -18.5l86 -19q138 -30 138 -134q0 -52 -28.5 -93.5t-79.5 -65.5t-115 -24q-95 0 -157 40zM150 -81h127l-124 -205h-97z" />
    <glyph glyph-name="uni021A" unicode="&#x21a;" horiz-adv-x="669" 
d="M330 572h-232l28 128h604l-28 -128h-230l-122 -572h-142zM197 -81h127l-124 -205h-97z" />
    <glyph glyph-name="uni021B" unicode="&#x21b;" horiz-adv-x="452" 
d="M146.5 28.5q-41.5 37.5 -41.5 102.5q0 19 5 46l47 230h-106l24 114h107l27 133l144 31l-35 -164h148l-25 -114h-147l-49 -232q-2 -14 -2 -19q0 -21 11.5 -32t29.5 -11q14 0 24.5 4t25.5 15l43 -93q-23 -22 -54.5 -35t-64.5 -13q-70 0 -111.5 37.5zM150 -81h127l-124 -205
h-97z" />
    <glyph glyph-name="uni0237" unicode="&#x237;" horiz-adv-x="270" 
d="M-96.5 -202.5q-27.5 9.5 -44.5 24.5l44 102q20 -17 43 -17q25 0 39 14t20 45l118 555h135l-124 -579q-17 -78 -62 -116t-109 -38q-32 0 -59.5 9.5z" />
    <glyph glyph-name="uni02BB" unicode="&#x2bb;" horiz-adv-x="267" 
d="M203 559h68l-31 -149h-148l23 111q13 61 50.5 111t100.5 79l40 -56q-80 -36 -103 -96z" />
    <glyph glyph-name="uni02BC" unicode="&#x2bc;" horiz-adv-x="267" 
d="M191 562h-68l31 148h149l-24 -111q-12 -61 -49.5 -111t-100.5 -78l-41 56q80 34 103 96z" />
    <glyph glyph-name="circumflex" unicode="&#x2c6;" 
d="M350 741h138l83 -136h-105l-56 74l-89 -74h-112z" />
    <glyph glyph-name="caron" unicode="&#x2c7;" 
d="M240 741h105l57 -73l87 73h113l-141 -135h-138z" />
    <glyph glyph-name="breve" unicode="&#x2d8;" 
d="M288.5 638.5q-41.5 38.5 -43.5 104.5l81 17q6 -83 75 -83q63 0 102 76l83 -26q-29 -62 -77 -94.5t-110 -32.5q-69 0 -110.5 38.5z" />
    <glyph glyph-name="dotaccent" unicode="&#x2d9;" 
d="M162.5 603q-19.5 20 -19.5 49q0 35 25.5 61t60.5 26q29 0 48.5 -19.5t19.5 -48.5q0 -35 -26 -61.5t-60 -26.5q-29 0 -48.5 20z" />
    <glyph glyph-name="ring" unicode="&#x2da;" 
d="M317 616q-31 30 -31 76q0 34 18.5 65t48.5 49.5t64 18.5q49 0 80 -30t31 -76q0 -34 -18.5 -65t-49 -49.5t-64.5 -18.5q-48 0 -79 30zM361.5 658.5q15.5 -15.5 38.5 -15.5q28 0 48 20.5t20 49.5q0 24 -15.5 39.5t-38.5 15.5q-28 0 -48 -20.5t-20 -49.5q0 -24 15.5 -39.5z
" />
    <glyph glyph-name="tilde" unicode="&#x2dc;" 
d="M261 713.5q30 27.5 67 27.5q23 0 43.5 -9t47.5 -26q19 -12 32 -18t25 -6q14 0 24.5 11.5t24.5 41.5l77 -26q-25 -58 -55 -86t-68 -28q-23 0 -42.5 8.5t-45.5 25.5q-21 13 -33.5 19t-25.5 6t-24.5 -12.5t-23.5 -40.5l-78 27q25 58 55 85.5z" />
    <glyph glyph-name="hungarumlaut" unicode="&#x2dd;" 
d="M488 737l-156 -127h-104l127 127h133zM557 737h135l-165 -127h-97z" />
    <glyph glyph-name="gravecomb" unicode="&#x300;" horiz-adv-x="0" 
d="M214 738h153l87 -130h-109z" />
    <glyph glyph-name="acutecomb" unicode="&#x301;" horiz-adv-x="0" 
d="M438 738h154l-159 -130h-112z" />
    <glyph glyph-name="uni0302" unicode="&#x302;" horiz-adv-x="0" 
d="M350 741h138l83 -136h-105l-56 74l-89 -74h-112z" />
    <glyph glyph-name="tildecomb" unicode="&#x303;" horiz-adv-x="0" 
d="M261 713.5q30 27.5 67 27.5q23 0 43.5 -9t47.5 -26q19 -12 32 -18t25 -6q14 0 24.5 11.5t24.5 41.5l77 -26q-25 -58 -55 -86t-68 -28q-23 0 -42.5 8.5t-45.5 25.5q-21 13 -33.5 19t-25.5 6t-24.5 -12.5t-23.5 -40.5l-78 27q25 58 55 85.5z" />
    <glyph glyph-name="uni0304" unicode="&#x304;" horiz-adv-x="0" 
d="M257 711h310l-20 -86h-309z" />
    <glyph glyph-name="uni0306" unicode="&#x306;" horiz-adv-x="0" 
d="M288.5 638.5q-41.5 38.5 -43.5 104.5l81 17q6 -83 75 -83q63 0 102 76l83 -26q-29 -62 -77 -94.5t-110 -32.5q-69 0 -110.5 38.5z" />
    <glyph glyph-name="uni0307" unicode="&#x307;" horiz-adv-x="0" 
d="M162.5 603q-19.5 20 -19.5 49q0 35 25.5 61t60.5 26q29 0 48.5 -19.5t19.5 -48.5q0 -35 -26 -61.5t-60 -26.5q-29 0 -48.5 20z" />
    <glyph glyph-name="uni0308" unicode="&#x308;" horiz-adv-x="0" 
d="M242.5 620.5q-17.5 18.5 -17.5 45.5q0 33 24 57t56 24q25 0 42.5 -18.5t17.5 -45.5q0 -32 -23.5 -56.5t-54.5 -24.5q-27 0 -44.5 18.5zM460 722.5q24 24.5 56 24.5q25 0 42.5 -18.5t17.5 -45.5q0 -32 -23.5 -56.5t-54.5 -24.5q-26 0 -44 18.5t-18 45.5q0 32 24 56.5z" />
    <glyph glyph-name="uni030A" unicode="&#x30a;" horiz-adv-x="0" 
d="M317 616q-31 30 -31 76q0 34 18.5 65t48.5 49.5t64 18.5q49 0 80 -30t31 -76q0 -34 -18.5 -65t-49 -49.5t-64.5 -18.5q-48 0 -79 30zM361.5 658.5q15.5 -15.5 38.5 -15.5q28 0 48 20.5t20 49.5q0 24 -15.5 39.5t-38.5 15.5q-28 0 -48 -20.5t-20 -49.5q0 -24 15.5 -39.5z
" />
    <glyph glyph-name="uni030B" unicode="&#x30b;" horiz-adv-x="0" 
d="M488 737l-156 -127h-104l127 127h133zM557 737h135l-165 -127h-97z" />
    <glyph glyph-name="uni030C" unicode="&#x30c;" horiz-adv-x="0" 
d="M240 741h105l57 -73l87 73h113l-141 -135h-138z" />
    <glyph glyph-name="uni0326" unicode="&#x326;" horiz-adv-x="0" 
d="M193 -81h127l-124 -205h-97z" />
    <glyph glyph-name="uni0327" unicode="&#x327;" horiz-adv-x="0" 
d="M138.5 -214q-32.5 21 -45.5 60l74 15q15 -32 56 -32q23 0 36.5 11t13.5 29q0 17 -13 26.5t-35 9.5h-39l47 95h67l-24 -47q36 -6 56 -27t20 -53q0 -50 -35.5 -79t-96.5 -29q-49 0 -81.5 21z" />
    <glyph glyph-name="uni0328" unicode="&#x328;" horiz-adv-x="0" 
d="M142 -201.5q-25 19.5 -25 53.5q0 93 157 169l39 -21q-112 -59 -112 -115q0 -16 11 -25.5t30 -9.5q20 0 37 11l17 -58q-17 -11 -41 -17.5t-47 -6.5q-41 0 -66 19.5z" />
    <glyph glyph-name="Wgrave" unicode="&#x1e80;" horiz-adv-x="956" 
d="M135 700h140l-7 -474l234 474h134l34 -472l193 472h145l-299 -700h-150l-33 489l-240 -489h-148zM409 917h153l87 -130h-109z" />
    <glyph glyph-name="wgrave" unicode="&#x1e81;" horiz-adv-x="786" 
d="M80 521h125l13 -336l172 336h113l30 -336l156 336h128l-251 -521h-129l-28 334l-170 -334h-128zM287 738h153l87 -130h-109z" />
    <glyph glyph-name="Wacute" unicode="&#x1e82;" horiz-adv-x="956" 
d="M135 700h140l-7 -474l234 474h134l34 -472l193 472h145l-299 -700h-150l-33 489l-240 -489h-148zM633 917h154l-159 -130h-112z" />
    <glyph glyph-name="wacute" unicode="&#x1e83;" horiz-adv-x="786" 
d="M80 521h125l13 -336l172 336h113l30 -336l156 336h128l-251 -521h-129l-28 334l-170 -334h-128zM511 738h154l-159 -130h-112z" />
    <glyph glyph-name="Wdieresis" unicode="&#x1e84;" horiz-adv-x="956" 
d="M135 700h140l-7 -474l234 474h134l34 -472l193 472h145l-299 -700h-150l-33 489l-240 -489h-148zM437.5 799.5q-17.5 18.5 -17.5 45.5q0 33 24 57t56 24q25 0 42.5 -18.5t17.5 -45.5q0 -32 -23.5 -56.5t-54.5 -24.5q-27 0 -44.5 18.5zM655 901.5q24 24.5 56 24.5
q25 0 42.5 -18.5t17.5 -45.5q0 -32 -23.5 -56.5t-54.5 -24.5q-26 0 -44 18.5t-18 45.5q0 32 24 56.5z" />
    <glyph glyph-name="wdieresis" unicode="&#x1e85;" horiz-adv-x="786" 
d="M80 521h125l13 -336l172 336h113l30 -336l156 336h128l-251 -521h-129l-28 334l-170 -334h-128zM315.5 620.5q-17.5 18.5 -17.5 45.5q0 33 24 57t56 24q25 0 42.5 -18.5t17.5 -45.5q0 -32 -23.5 -56.5t-54.5 -24.5q-27 0 -44.5 18.5zM533 722.5q24 24.5 56 24.5
q25 0 42.5 -18.5t17.5 -45.5q0 -32 -23.5 -56.5t-54.5 -24.5q-26 0 -44 18.5t-18 45.5q0 32 24 56.5z" />
    <glyph glyph-name="Ygrave" unicode="&#x1ef2;" horiz-adv-x="721" 
d="M290 269l-188 431h151l130 -304l256 304h167l-373 -434l-57 -266h-142zM287 917h153l87 -130h-109z" />
    <glyph glyph-name="ygrave" unicode="&#x1ef3;" horiz-adv-x="595" 
d="M-10 -202.5q-34 11.5 -56 31.5l53 106q15 -13 30 -18.5t34 -5.5q56 0 88 56l21 33l-90 521h143l54 -366l224 366h147l-371 -590q-47 -75 -98 -110t-110 -35q-35 0 -69 11.5zM187 738h153l87 -130h-109z" />
    <glyph glyph-name="uni2002" unicode="&#x2002;" horiz-adv-x="530" 
 />
    <glyph glyph-name="uni2003" unicode="&#x2003;" horiz-adv-x="1030" 
 />
    <glyph glyph-name="uni2009" unicode="&#x2009;" horiz-adv-x="205" 
 />
    <glyph glyph-name="uni200A" unicode="&#x200a;" horiz-adv-x="130" 
 />
    <glyph glyph-name="uni200B" unicode="&#x200b;" horiz-adv-x="30" 
 />
    <glyph glyph-name="endash" unicode="&#x2013;" horiz-adv-x="577" 
d="M540 343l-24 -116h-468l24 116h468z" />
    <glyph glyph-name="emdash" unicode="&#x2014;" horiz-adv-x="724" 
d="M687 343l-24 -116h-615l24 116h615z" />
    <glyph glyph-name="uni2015" unicode="&#x2015;" horiz-adv-x="969" 
d="M932 343l-24 -116h-860l24 116h860z" />
    <glyph glyph-name="quoteleft" unicode="&#x2018;" horiz-adv-x="267" 
d="M203 559h68l-31 -149h-148l23 111q13 61 50.5 111t100.5 79l40 -56q-80 -36 -103 -96z" />
    <glyph glyph-name="quoteright" unicode="&#x2019;" horiz-adv-x="267" 
d="M189 552h-68l31 148h149l-24 -111q-12 -61 -49.5 -111t-100.5 -78l-41 56q80 34 103 96z" />
    <glyph glyph-name="quotesinglbase" unicode="&#x201a;" horiz-adv-x="267" 
d="M72 0h-68l31 148h149l-24 -111q-12 -61 -49.5 -111t-100.5 -78l-41 56q80 34 103 96z" />
    <glyph glyph-name="quotedblleft" unicode="&#x201c;" horiz-adv-x="459" 
d="M203 559h68l-31 -148h-149l24 111q12 61 49.5 111t100.5 78l41 -56q-80 -34 -103 -96zM307 522q12 61 49.5 111t100.5 78l41 -56q-80 -34 -103 -96h68l-31 -148h-149z" />
    <glyph glyph-name="quotedblright" unicode="&#x201d;" horiz-adv-x="459" 
d="M381 552h-68l31 148h149l-24 -111q-12 -61 -49.5 -111t-100.5 -78l-41 56q80 34 103 96zM189 552h-68l31 148h149l-24 -111q-12 -61 -49.5 -111t-100.5 -78l-41 56q80 34 103 96z" />
    <glyph glyph-name="quotedblbase" unicode="&#x201e;" horiz-adv-x="459" 
d="M264 0h-68l31 148h149l-24 -111q-12 -61 -49.5 -111t-100.5 -78l-41 56q80 34 103 96zM72 0h-68l31 148h149l-24 -111q-12 -61 -49.5 -111t-100.5 -78l-41 56q80 34 103 96z" />
    <glyph glyph-name="dagger" unicode="&#x2020;" horiz-adv-x="470" 
d="M215 413h-120l23 106h119l39 181h108l-39 -181h119l-23 -106h-118l-88 -413h-108z" />
    <glyph glyph-name="daggerdbl" unicode="&#x2021;" horiz-adv-x="470" 
d="M165 181h-119l22 106h119l28 126h-120l23 106h119l39 181h108l-39 -181h119l-23 -106h-118l-27 -126h118l-22 -106h-119l-38 -181h-108z" />
    <glyph glyph-name="bullet" unicode="&#x2022;" horiz-adv-x="378" 
d="M118.5 246q-29.5 29 -29.5 71q0 35 17.5 65t47.5 48t65 18q43 0 72 -29t29 -73q0 -34 -18 -63.5t-48 -47.5t-63 -18q-43 0 -72.5 29z" />
    <glyph glyph-name="ellipsis" unicode="&#x2026;" horiz-adv-x="751" 
d="M40 10.5q-20 20.5 -20 50.5q0 37 27 64t63 27q30 0 50 -20.5t20 -50.5q0 -36 -27 -63.5t-62 -27.5q-31 0 -51 20.5zM275 10.5q-20 20.5 -20 50.5q0 37 27 64t63 27q30 0 50 -20.5t20 -50.5q0 -36 -27 -63.5t-62 -27.5q-31 0 -51 20.5zM511 10.5q-20 20.5 -20 50.5
q0 37 27 64t63 27q30 0 50 -20.5t20 -50.5q0 -36 -27 -63.5t-62 -27.5q-31 0 -51 20.5z" />
    <glyph glyph-name="perthousand" unicode="&#x2030;" horiz-adv-x="1186" 
d="M125 383q-37 38 -37 103q0 60 25 110.5t67.5 80t93.5 29.5q62 0 99 -38t37 -103q0 -60 -25 -110.5t-67.5 -80t-93.5 -29.5q-62 0 -99 38zM649 700h97l-538 -700h-96zM186.5 437.5q16.5 -19.5 45.5 -19.5q26 0 48.5 19t35.5 51.5t13 70.5q0 35 -17 54.5t-47 19.5
q-26 0 -47.5 -19t-34.5 -51.5t-13 -70.5q0 -35 16.5 -54.5zM482.5 246.5q24.5 50.5 67 80t93.5 29.5q63 0 100 -38t37 -103q0 -60 -25 -110.5t-67.5 -80t-93.5 -29.5q-62 0 -99 38t-37 103q0 60 24.5 110.5zM556.5 87.5q16.5 -19.5 45.5 -19.5q26 0 48.5 19t35.5 51.5
t13 70.5q0 35 -17 54.5t-47 19.5q-26 0 -47.5 -19t-34.5 -51.5t-13 -70.5q0 -35 16.5 -54.5zM836.5 246.5q24.5 50.5 67 80t93.5 29.5q62 0 99.5 -38.5t37.5 -102.5q0 -60 -25 -110.5t-67.5 -80t-93.5 -29.5q-63 0 -99.5 38t-36.5 103q0 60 24.5 110.5zM909.5 87.5
q16.5 -19.5 46.5 -19.5q26 0 48 19t35 51.5t13 70.5q0 34 -17 54t-46 20q-26 0 -48 -19t-35 -51.5t-13 -70.5q0 -35 16.5 -54.5z" />
    <glyph glyph-name="minute" unicode="&#x2032;" horiz-adv-x="280" 
d="M196 700h142l-164 -263h-103z" />
    <glyph glyph-name="second" unicode="&#x2033;" horiz-adv-x="472" 
d="M196 700h142l-164 -263h-103zM388 700h142l-164 -263h-103z" />
    <glyph glyph-name="guilsinglleft" unicode="&#x2039;" horiz-adv-x="452" 
d="M176 259l177 -259h-137l-183 260l294 261h139z" />
    <glyph glyph-name="guilsinglright" unicode="&#x203a;" horiz-adv-x="461" 
d="M285 262l-177 259h137l183 -260l-293 -261h-140z" />
    <glyph glyph-name="fraction" unicode="&#x2044;" horiz-adv-x="596" 
d="M523 700h98l-539 -700h-95z" />
    <glyph glyph-name="uni2070" unicode="&#x2070;" horiz-adv-x="386" 
d="M125 383q-37 38 -37 103q0 60 25 110.5t67.5 80t93.5 29.5q62 0 99 -38t37 -103q0 -60 -25 -110.5t-67.5 -80t-93.5 -29.5q-62 0 -99 38zM186.5 437.5q16.5 -19.5 45.5 -19.5q26 0 48.5 19t35.5 51.5t13 70.5q0 35 -17 54.5t-47 19.5q-26 0 -47.5 -19t-34.5 -51.5
t-13 -70.5q0 -35 16.5 -54.5z" />
    <glyph glyph-name="uni2074" unicode="&#x2074;" horiz-adv-x="380" 
d="M264 427h-193l14 68l223 205h97l-44 -204h43l-15 -69h-42l-16 -77h-84zM279 496l24 115l-124 -115h100z" />
    <glyph glyph-name="uni2075" unicode="&#x2075;" horiz-adv-x="345" 
d="M128.5 368q-33.5 27 -44.5 77l78 18q11 -54 59 -54q23 0 37 15.5t14 36.5q0 24 -16.5 38t-44.5 14q-22 0 -51 -13l-51 21l45 179h229l-15 -67h-161l-20 -74q23 10 53 10q50 0 81 -28t31 -73q0 -53 -38 -90t-101 -37q-51 0 -84.5 27z" />
    <glyph glyph-name="uni2076" unicode="&#x2076;" horiz-adv-x="362" 
d="M130.5 378.5q-36.5 39.5 -36.5 110.5q0 59 23 108.5t63.5 78t90.5 28.5q45 0 77 -24t43 -65l-76 -16q-13 36 -51 36q-36 0 -61.5 -30.5t-33.5 -79.5q41 38 91 38q46 0 74.5 -28.5t28.5 -72.5q0 -52 -39 -87.5t-98 -35.5t-95.5 39.5zM184 422.5q18 -20.5 48 -20.5
q26 0 43 16t17 41q0 22 -15 34.5t-41 12.5q-39 0 -72 -28q2 -35 20 -55.5z" />
    <glyph glyph-name="uni2077" unicode="&#x2077;" horiz-adv-x="344" 
d="M297 627h-186l16 73h284l-13 -62l-202 -288h-105z" />
    <glyph glyph-name="uni2078" unicode="&#x2078;" horiz-adv-x="360" 
d="M114.5 370q-36.5 26 -36.5 68q0 31 19.5 57t51.5 38q-29 24 -29 60q0 30 19.5 56t52.5 41t71 15q53 0 87.5 -26t34.5 -66q0 -28 -17 -51.5t-44 -38.5q17 -11 27 -28t10 -37q0 -31 -20 -57.5t-54 -41.5t-75 -15q-61 0 -97.5 26zM177.5 424q15.5 -10 40.5 -10
q26 0 43.5 12.5t17.5 31.5q0 17 -15.5 27.5t-40.5 10.5t-43 -13t-18 -32q0 -17 15.5 -27zM214.5 568q13.5 -10 33.5 -10q21 0 37.5 13.5t16.5 30.5q0 15 -13.5 25t-33.5 10q-22 0 -38 -13t-16 -31q0 -15 13.5 -25z" />
    <glyph glyph-name="uni2079" unicode="&#x2079;" horiz-adv-x="362" 
d="M343 671.5q37 -39.5 37 -110.5q0 -59 -23 -108.5t-64 -78t-91 -28.5q-45 0 -76.5 24t-42.5 65l76 16q14 -36 51 -36q36 0 61.5 30.5t33.5 79.5q-41 -38 -91 -38q-46 0 -74.5 28.5t-28.5 72.5q0 52 38.5 87.5t97.5 35.5t96 -39.5zM197 556.5q15 -12.5 41 -12.5q39 0 72 28
q-2 35 -20 55.5t-48 20.5q-26 0 -43 -16t-17 -41q0 -22 15 -34.5z" />
    <glyph glyph-name="uni2080" unicode="&#x2080;" horiz-adv-x="386" 
d="M51 33q-37 38 -37 103q0 60 25 110.5t67.5 80t93.5 29.5q62 0 99 -38t37 -103q0 -60 -25 -110.5t-67.5 -80t-93.5 -29.5q-62 0 -99 38zM112.5 87.5q16.5 -19.5 45.5 -19.5q26 0 48.5 19t35.5 51.5t13 70.5q0 35 -17 54.5t-47 19.5q-26 0 -47.5 -19t-34.5 -51.5t-13 -70.5
q0 -35 16.5 -54.5z" />
    <glyph glyph-name="uni2081" unicode="&#x2081;" horiz-adv-x="221" 
d="M105 265l-79 -29l16 72l111 42h52l-75 -350h-82z" />
    <glyph glyph-name="uni2082" unicode="&#x2082;" horiz-adv-x="330" 
d="M89 165l83 38q46 20 46 50q0 16 -11 25t-30 9q-44 0 -56 -48l-75 17q13 48 47.5 73.5t86.5 25.5q54 0 84.5 -26t30.5 -72q0 -78 -94 -117l-66 -28q-21 -9 -30.5 -19.5t-14.5 -26.5h165l-14 -66h-253l10 44q19 91 91 121z" />
    <glyph glyph-name="uni2083" unicode="&#x2083;" horiz-adv-x="352" 
d="M53 16q-35 27 -46 79l77 17q9 -53 64 -53q24 0 40 12t16 32q0 18 -12 28.5t-32 10.5h-45l13 65h44q27 0 42.5 11.5t15.5 31.5q0 17 -12.5 27t-32.5 10q-44 0 -61 -49l-77 18q15 47 52 73t88 26q55 0 87.5 -26.5t32.5 -67.5q0 -34 -22.5 -59.5t-59.5 -32.5q28 -8 43 -26
t15 -44q0 -30 -19 -55t-50.5 -40t-68.5 -15q-57 0 -92 27z" />
    <glyph glyph-name="uni2084" unicode="&#x2084;" horiz-adv-x="380" 
d="M190 77h-193l14 68l223 205h97l-44 -204h43l-15 -69h-42l-16 -77h-84zM205 146l24 115l-124 -115h100z" />
    <glyph glyph-name="uni2085" unicode="&#x2085;" horiz-adv-x="345" 
d="M54.5 18q-33.5 27 -44.5 77l78 18q11 -54 59 -54q23 0 37 15.5t14 36.5q0 24 -16.5 38t-44.5 14q-22 0 -51 -13l-51 21l45 179h229l-15 -67h-161l-20 -74q23 10 53 10q50 0 81 -28t31 -73q0 -53 -38 -90t-101 -37q-51 0 -84.5 27z" />
    <glyph glyph-name="uni2086" unicode="&#x2086;" horiz-adv-x="362" 
d="M56.5 28.5q-36.5 39.5 -36.5 110.5q0 59 23 108.5t63.5 78t90.5 28.5q45 0 77 -24t43 -65l-76 -16q-13 36 -51 36q-36 0 -61.5 -30.5t-33.5 -79.5q41 38 91 38q46 0 74.5 -28.5t28.5 -72.5q0 -52 -39 -87.5t-98 -35.5t-95.5 39.5zM110 72.5q18 -20.5 48 -20.5q26 0 43 16
t17 41q0 22 -15 34.5t-41 12.5q-39 0 -72 -28q2 -35 20 -55.5z" />
    <glyph glyph-name="uni2087" unicode="&#x2087;" horiz-adv-x="344" 
d="M223 277h-186l16 73h284l-13 -62l-202 -288h-105z" />
    <glyph glyph-name="uni2088" unicode="&#x2088;" horiz-adv-x="360" 
d="M40.5 20q-36.5 26 -36.5 68q0 31 19.5 57t51.5 38q-29 24 -29 60q0 30 19.5 56t52.5 41t71 15q53 0 87.5 -26t34.5 -66q0 -28 -17 -51.5t-44 -38.5q17 -11 27 -28t10 -37q0 -31 -20 -57.5t-54 -41.5t-75 -15q-61 0 -97.5 26zM103.5 74q15.5 -10 40.5 -10q26 0 43.5 12.5
t17.5 31.5q0 17 -15.5 27.5t-40.5 10.5t-43 -13t-18 -32q0 -17 15.5 -27zM140.5 218q13.5 -10 33.5 -10q21 0 37.5 13.5t16.5 30.5q0 15 -13.5 25t-33.5 10q-22 0 -38 -13t-16 -31q0 -15 13.5 -25z" />
    <glyph glyph-name="uni2089" unicode="&#x2089;" horiz-adv-x="362" 
d="M269 321.5q37 -39.5 37 -110.5q0 -59 -23 -108.5t-64 -78t-91 -28.5q-45 0 -76.5 24t-42.5 65l76 16q14 -36 51 -36q36 0 61.5 30.5t33.5 79.5q-41 -38 -91 -38q-46 0 -74.5 28.5t-28.5 72.5q0 52 38.5 87.5t97.5 35.5t96 -39.5zM123 206.5q15 -12.5 41 -12.5q39 0 72 28
q-2 35 -20 55.5t-48 20.5q-26 0 -43 -16t-17 -41q0 -22 15 -34.5z" />
    <glyph glyph-name="uni20A8" unicode="&#x20a8;" horiz-adv-x="1212" 
d="M172 700h337q93 0 148.5 -43t55.5 -117q0 -15 -3 -33q-11 -66 -59.5 -116.5t-119.5 -72.5q70 -21 70 -118q0 -9 -2 -31l-1 -18q-2 -26 -2 -39q0 -70 23 -112h-166q-11 22 -11 59q0 34 8 80l2 18q4 28 4 39q0 38 -19.5 55.5t-62.5 17.5h-150l-56 -269h-145zM432 388
q55 0 92 32.5t37 80.5q0 34 -24.5 54.5t-65.5 20.5h-182l-40 -188h183zM775 29q-62 40 -83 115l123 23q29 -75 121 -75q43 0 67 16t24 43q0 19 -13 29.5t-45 18.5l-97 22q-61 14 -93.5 50.5t-32.5 91.5q0 48 26.5 86t75.5 59.5t113 21.5q86 0 145.5 -36.5t81.5 -106.5
l-119 -23q-31 63 -118 63q-38 0 -59.5 -14.5t-21.5 -38.5q0 -19 14 -30.5t47 -18.5l86 -19q138 -30 138 -134q0 -52 -28.5 -93.5t-79.5 -65.5t-115 -24q-95 0 -157 40z" />
    <glyph glyph-name="Euro" unicode="&#x20ac;" horiz-adv-x="827" 
d="M310.5 21q-67.5 32 -111.5 90.5t-57 137.5h-95l15 70h75q2 32 6 62h-68l15 71h71q43 119 139.5 189t216.5 70q107 0 183.5 -52.5t105.5 -143.5l-139 -44q-20 51 -61 79t-97 28q-62 0 -114.5 -34t-80.5 -92h265l-42 -71h-248q-7 -35 -7 -62h221l-42 -70h-168
q12 -58 59 -92.5t115 -34.5q57 0 100 28.5t66 80.5l138 -45q-37 -92 -119 -144.5t-190 -52.5q-84 0 -151.5 32z" />
    <glyph glyph-name="uni20B9" unicode="&#x20b9;" horiz-adv-x="604" 
d="M86 368h178q97 0 129 61h-295l23 105h281q-8 31 -33 46t-68 15h-168l23 105h497l-23 -105h-124q26 -24 37 -61h74l-22 -105h-56q-23 -73 -94.5 -119.5t-169.5 -46.5h-31l218 -263h-180l-219 263z" />
    <glyph glyph-name="trademark" unicode="&#x2122;" horiz-adv-x="705" 
d="M429 700h82l41 -148l103 148h85l-60 -279h-64l43 193l-129 -175l-53 180l-41 -198h-67zM134 700h252l-12 -59h-91l-48 -220h-69l47 220h-91z" />
    <glyph glyph-name="arrowup" unicode="&#x2191;" horiz-adv-x="645" 
d="M258 514l-144 -179l-80 69l288 346l288 -345l-82 -71l-143 179v-513h-127v514z" />
    <glyph glyph-name="arrowdown" unicode="&#x2193;" horiz-adv-x="645" 
d="M386 186l143 179l81 -69l-289 -346l-287 345l82 71l142 -179v513h128v-514z" />
    <glyph glyph-name="minus" unicode="&#x2212;" 
d="M133 410h434l-22 -106h-434z" />
    <glyph glyph-name="uni2215" unicode="&#x2215;" horiz-adv-x="596" 
d="M523 700h98l-539 -700h-95z" />
    <glyph glyph-name="notequal" unicode="&#x2260;" 
d="M162 204h-73l22 105h138l72 85h-191l22 106h256l94 112h100l-93 -112h77l-22 -106h-141l-72 -85h194l-22 -105h-259l-92 -111h-103z" />
    <glyph glyph-name="uniFEFF" unicode="&#xfeff;" horiz-adv-x="30" 
 />
    <glyph glyph-name="uniFFFD" unicode="&#xfffd;" horiz-adv-x="544" 
d="M75 750h394v-850h-394v850z" />
    <glyph glyph-name="i.loclTRK" horiz-adv-x="270" 
d="M123 521h134l-110 -521h-134zM168.5 713q25.5 26 59.5 26q29 0 49 -19.5t20 -48.5q0 -35 -26 -61.5t-60 -26.5q-29 0 -48.5 20t-19.5 49q0 35 25.5 61z" />
    <glyph glyph-name="a.ss01" horiz-adv-x="649" 
d="M159 24.5q-53 31.5 -83.5 87t-30.5 122.5q0 80 39 147.5t105.5 107t145.5 39.5q46 0 86.5 -14.5t70.5 -41.5l11 49h133l-110 -521h-133l5 26q-55 -33 -121 -33q-65 0 -118 31.5zM215.5 148q38.5 -39 97.5 -39q64 0 110 40l44 206q-20 26 -54 41t-73 15q-45 0 -82.5 -22
t-59 -60t-21.5 -83q0 -59 38.5 -98z" />
    <glyph glyph-name="aacute.ss01" horiz-adv-x="649" 
d="M159 24.5q-53 31.5 -83.5 87t-30.5 122.5q0 80 39 147.5t105.5 107t145.5 39.5q46 0 86.5 -14.5t70.5 -41.5l11 49h133l-110 -521h-133l5 26q-55 -33 -121 -33q-65 0 -118 31.5zM215.5 148q38.5 -39 97.5 -39q64 0 110 40l44 206q-20 26 -54 41t-73 15q-45 0 -82.5 -22
t-59 -60t-21.5 -83q0 -59 38.5 -98zM413 738h154l-159 -130h-112z" />
    <glyph glyph-name="abreve.ss01" horiz-adv-x="649" 
d="M159 24.5q-53 31.5 -83.5 87t-30.5 122.5q0 80 39 147.5t105.5 107t145.5 39.5q46 0 86.5 -14.5t70.5 -41.5l11 49h133l-110 -521h-133l5 26q-55 -33 -121 -33q-65 0 -118 31.5zM215.5 148q38.5 -39 97.5 -39q64 0 110 40l44 206q-20 26 -54 41t-73 15q-45 0 -82.5 -22
t-59 -60t-21.5 -83q0 -59 38.5 -98zM263.5 638.5q-41.5 38.5 -43.5 104.5l81 17q6 -83 75 -83q63 0 102 76l83 -26q-29 -62 -77 -94.5t-110 -32.5q-69 0 -110.5 38.5z" />
    <glyph glyph-name="acircumflex.ss01" horiz-adv-x="649" 
d="M159 24.5q-53 31.5 -83.5 87t-30.5 122.5q0 80 39 147.5t105.5 107t145.5 39.5q46 0 86.5 -14.5t70.5 -41.5l11 49h133l-110 -521h-133l5 26q-55 -33 -121 -33q-65 0 -118 31.5zM215.5 148q38.5 -39 97.5 -39q64 0 110 40l44 206q-20 26 -54 41t-73 15q-45 0 -82.5 -22
t-59 -60t-21.5 -83q0 -59 38.5 -98zM325 741h138l83 -136h-105l-56 74l-89 -74h-112z" />
    <glyph glyph-name="adieresis.ss01" horiz-adv-x="649" 
d="M159 24.5q-53 31.5 -83.5 87t-30.5 122.5q0 80 39 147.5t105.5 107t145.5 39.5q46 0 86.5 -14.5t70.5 -41.5l11 49h133l-110 -521h-133l5 26q-55 -33 -121 -33q-65 0 -118 31.5zM215.5 148q38.5 -39 97.5 -39q64 0 110 40l44 206q-20 26 -54 41t-73 15q-45 0 -82.5 -22
t-59 -60t-21.5 -83q0 -59 38.5 -98zM217.5 620.5q-17.5 18.5 -17.5 45.5q0 33 24 57t56 24q25 0 42.5 -18.5t17.5 -45.5q0 -32 -23.5 -56.5t-54.5 -24.5q-27 0 -44.5 18.5zM435 722.5q24 24.5 56 24.5q25 0 42.5 -18.5t17.5 -45.5q0 -32 -23.5 -56.5t-54.5 -24.5
q-26 0 -44 18.5t-18 45.5q0 32 24 56.5z" />
    <glyph glyph-name="agrave.ss01" horiz-adv-x="649" 
d="M159 24.5q-53 31.5 -83.5 87t-30.5 122.5q0 80 39 147.5t105.5 107t145.5 39.5q46 0 86.5 -14.5t70.5 -41.5l11 49h133l-110 -521h-133l5 26q-55 -33 -121 -33q-65 0 -118 31.5zM215.5 148q38.5 -39 97.5 -39q64 0 110 40l44 206q-20 26 -54 41t-73 15q-45 0 -82.5 -22
t-59 -60t-21.5 -83q0 -59 38.5 -98zM189 738h153l87 -130h-109z" />
    <glyph glyph-name="amacron.ss01" horiz-adv-x="649" 
d="M159 24.5q-53 31.5 -83.5 87t-30.5 122.5q0 80 39 147.5t105.5 107t145.5 39.5q46 0 86.5 -14.5t70.5 -41.5l11 49h133l-110 -521h-133l5 26q-55 -33 -121 -33q-65 0 -118 31.5zM215.5 148q38.5 -39 97.5 -39q64 0 110 40l44 206q-20 26 -54 41t-73 15q-45 0 -82.5 -22
t-59 -60t-21.5 -83q0 -59 38.5 -98zM232 711h310l-20 -86h-309z" />
    <glyph glyph-name="aogonek.ss01" horiz-adv-x="649" 
d="M159 24.5q-53 31.5 -83.5 87t-30.5 122.5q0 80 39 147.5t105.5 107t145.5 39.5q46 0 86.5 -14.5t70.5 -41.5l11 49h133l-110 -520l2 -1q-112 -59 -112 -115q0 -16 11 -25.5t30 -9.5q20 0 37 11l17 -58q-17 -11 -41 -17.5t-47 -6.5q-41 0 -66 19.5t-25 53.5q0 80 117 148
h-56l5 26q-55 -33 -121 -33q-65 0 -118 31.5zM215.5 148q38.5 -39 97.5 -39q64 0 110 40l44 206q-20 26 -54 41t-73 15q-45 0 -82.5 -22t-59 -60t-21.5 -83q0 -59 38.5 -98z" />
    <glyph glyph-name="aring.ss01" horiz-adv-x="649" 
d="M159 24.5q-53 31.5 -83.5 87t-30.5 122.5q0 80 39 147.5t105.5 107t145.5 39.5q46 0 86.5 -14.5t70.5 -41.5l11 49h133l-110 -521h-133l5 26q-55 -33 -121 -33q-65 0 -118 31.5zM215.5 148q38.5 -39 97.5 -39q64 0 110 40l44 206q-20 26 -54 41t-73 15q-45 0 -82.5 -22
t-59 -60t-21.5 -83q0 -59 38.5 -98zM293 616q-31 30 -31 76q0 34 18.5 65t48.5 49.5t64 18.5q49 0 80 -30t31 -76q0 -34 -18.5 -65t-49 -49.5t-64.5 -18.5q-48 0 -79 30zM337.5 658.5q15.5 -15.5 38.5 -15.5q28 0 48 20.5t20 49.5q0 24 -15.5 39.5t-38.5 15.5
q-28 0 -48 -20.5t-20 -49.5q0 -24 15.5 -39.5z" />
    <glyph glyph-name="atilde.ss01" horiz-adv-x="649" 
d="M159 24.5q-53 31.5 -83.5 87t-30.5 122.5q0 80 39 147.5t105.5 107t145.5 39.5q46 0 86.5 -14.5t70.5 -41.5l11 49h133l-110 -521h-133l5 26q-55 -33 -121 -33q-65 0 -118 31.5zM215.5 148q38.5 -39 97.5 -39q64 0 110 40l44 206q-20 26 -54 41t-73 15q-45 0 -82.5 -22
t-59 -60t-21.5 -83q0 -59 38.5 -98zM236 713.5q30 27.5 67 27.5q23 0 43.5 -9t47.5 -26q19 -12 32 -18t25 -6q14 0 24.5 11.5t24.5 41.5l77 -26q-25 -58 -55 -86t-68 -28q-23 0 -42.5 8.5t-45.5 25.5q-21 13 -33.5 19t-25.5 6t-24.5 -12.5t-23.5 -40.5l-78 27q25 58 55 85.5
z" />
    <glyph glyph-name="g.ss02" horiz-adv-x="618" 
d="M38 -182.5q-76 32.5 -76 88.5q0 39 31 68.5t85 42.5q-21 23 -21 54q0 39 26.5 69t70.5 44q-34 25 -53 59.5t-19 74.5q0 57 33 106t89.5 77.5t123.5 28.5q48 0 89.5 -15t70.5 -42q58 69 130 69q24 0 39 -7l-20 -102q-15 5 -49 5q-37 0 -64 -13q19 -35 19 -74
q0 -58 -32.5 -105.5t-88.5 -75t-124 -27.5q-42 0 -75 10q-20 -4 -31.5 -14t-11.5 -24q0 -25 49 -31l169 -16q64 -7 99 -35.5t35 -73.5q0 -52 -36 -91.5t-101 -61t-151 -21.5q-130 0 -206 32.5zM130 -115.5q44 -15.5 123 -15.5q63 0 101 15.5t38 40.5q0 11 -10 19t-28 10
l-148 14q-24 2 -57 10q-29 -5 -46 -19t-17 -32q0 -27 44 -42.5zM234 263.5q27 -23.5 69 -23.5q46 0 80.5 31t34.5 73q0 36 -27.5 60.5t-67.5 24.5q-48 0 -82 -31t-34 -74q0 -37 27 -60.5z" />
    <glyph glyph-name="gbreve.ss02" horiz-adv-x="618" 
d="M38 -182.5q-76 32.5 -76 88.5q0 39 31 68.5t85 42.5q-21 23 -21 54q0 39 26.5 69t70.5 44q-34 25 -53 59.5t-19 74.5q0 57 33 106t89.5 77.5t123.5 28.5q48 0 89.5 -15t70.5 -42q58 69 130 69q24 0 39 -7l-20 -102q-15 5 -49 5q-37 0 -64 -13q19 -35 19 -74
q0 -58 -32.5 -105.5t-88.5 -75t-124 -27.5q-42 0 -75 10q-20 -4 -31.5 -14t-11.5 -24q0 -25 49 -31l169 -16q64 -7 99 -35.5t35 -73.5q0 -52 -36 -91.5t-101 -61t-151 -21.5q-130 0 -206 32.5zM130 -115.5q44 -15.5 123 -15.5q63 0 101 15.5t38 40.5q0 11 -10 19t-28 10
l-148 14q-24 2 -57 10q-29 -5 -46 -19t-17 -32q0 -27 44 -42.5zM234 263.5q27 -23.5 69 -23.5q46 0 80.5 31t34.5 73q0 36 -27.5 60.5t-67.5 24.5q-48 0 -82 -31t-34 -74q0 -37 27 -60.5zM249.5 638.5q-41.5 38.5 -43.5 104.5l81 17q6 -83 75 -83q63 0 102 76l83 -26
q-29 -62 -77 -94.5t-110 -32.5q-69 0 -110.5 38.5z" />
    <glyph glyph-name="gcircumflex.ss02" horiz-adv-x="618" 
d="M38 -182.5q-76 32.5 -76 88.5q0 39 31 68.5t85 42.5q-21 23 -21 54q0 39 26.5 69t70.5 44q-34 25 -53 59.5t-19 74.5q0 57 33 106t89.5 77.5t123.5 28.5q48 0 89.5 -15t70.5 -42q58 69 130 69q24 0 39 -7l-20 -102q-15 5 -49 5q-37 0 -64 -13q19 -35 19 -74
q0 -58 -32.5 -105.5t-88.5 -75t-124 -27.5q-42 0 -75 10q-20 -4 -31.5 -14t-11.5 -24q0 -25 49 -31l169 -16q64 -7 99 -35.5t35 -73.5q0 -52 -36 -91.5t-101 -61t-151 -21.5q-130 0 -206 32.5zM130 -115.5q44 -15.5 123 -15.5q63 0 101 15.5t38 40.5q0 11 -10 19t-28 10
l-148 14q-24 2 -57 10q-29 -5 -46 -19t-17 -32q0 -27 44 -42.5zM234 263.5q27 -23.5 69 -23.5q46 0 80.5 31t34.5 73q0 36 -27.5 60.5t-67.5 24.5q-48 0 -82 -31t-34 -74q0 -37 27 -60.5zM311 741h138l83 -136h-105l-56 74l-89 -74h-112z" />
    <glyph glyph-name="uni0123.ss02" horiz-adv-x="618" 
d="M38 -182.5q-76 32.5 -76 88.5q0 39 31 68.5t85 42.5q-21 23 -21 54q0 39 26.5 69t70.5 44q-34 25 -53 59.5t-19 74.5q0 57 33 106t89.5 77.5t123.5 28.5q48 0 89.5 -15t70.5 -42q58 69 130 69q24 0 39 -7l-20 -102q-15 5 -49 5q-37 0 -64 -13q19 -35 19 -74
q0 -58 -32.5 -105.5t-88.5 -75t-124 -27.5q-42 0 -75 10q-20 -4 -31.5 -14t-11.5 -24q0 -25 49 -31l169 -16q64 -7 99 -35.5t35 -73.5q0 -52 -36 -91.5t-101 -61t-151 -21.5q-130 0 -206 32.5zM130 -115.5q44 -15.5 123 -15.5q63 0 101 15.5t38 40.5q0 11 -10 19t-28 10
l-148 14q-24 2 -57 10q-29 -5 -46 -19t-17 -32q0 -27 44 -42.5zM234 263.5q27 -23.5 69 -23.5q46 0 80.5 31t34.5 73q0 36 -27.5 60.5t-67.5 24.5q-48 0 -82 -31t-34 -74q0 -37 27 -60.5zM415 807h97l-94 -205h-127z" />
    <glyph glyph-name="gdotaccent.ss02" horiz-adv-x="618" 
d="M38 -182.5q-76 32.5 -76 88.5q0 39 31 68.5t85 42.5q-21 23 -21 54q0 39 26.5 69t70.5 44q-34 25 -53 59.5t-19 74.5q0 57 33 106t89.5 77.5t123.5 28.5q48 0 89.5 -15t70.5 -42q58 69 130 69q24 0 39 -7l-20 -102q-15 5 -49 5q-37 0 -64 -13q19 -35 19 -74
q0 -58 -32.5 -105.5t-88.5 -75t-124 -27.5q-42 0 -75 10q-20 -4 -31.5 -14t-11.5 -24q0 -25 49 -31l169 -16q64 -7 99 -35.5t35 -73.5q0 -52 -36 -91.5t-101 -61t-151 -21.5q-130 0 -206 32.5zM130 -115.5q44 -15.5 123 -15.5q63 0 101 15.5t38 40.5q0 11 -10 19t-28 10
l-148 14q-24 2 -57 10q-29 -5 -46 -19t-17 -32q0 -27 44 -42.5zM234 263.5q27 -23.5 69 -23.5q46 0 80.5 31t34.5 73q0 36 -27.5 60.5t-67.5 24.5q-48 0 -82 -31t-34 -74q0 -37 27 -60.5zM307.5 603q-19.5 20 -19.5 49q0 35 25.5 61t60.5 26q29 0 48.5 -19.5t19.5 -48.5
q0 -35 -26 -61.5t-60 -26.5q-29 0 -48.5 20z" />
    <glyph glyph-name="zero.tf" 
d="M174 23q-51 33 -78.5 94.5t-27.5 146.5q0 123 42 225.5t114 161.5t158 59q67 0 118 -33t78.5 -94.5t27.5 -146.5q0 -123 -42 -225.5t-114 -161.5t-158 -59q-67 0 -118 33zM200 219l238 352q-25 24 -60 24q-49 0 -91 -44t-67 -120t-25 -165q0 -27 5 -47zM296 105
q49 0 91 44t67 120t25 165q0 31 -5 46l-237 -352q25 -23 59 -23z" />
    <glyph glyph-name="one.tf" 
d="M70 118h177l95 439l-193 -74l25 122l246 95h82l-124 -582h180l-25 -118h-488z" />
    <glyph glyph-name="two.tf" 
d="M231 328l160 72q98 45 98 114q0 34 -24 54.5t-66 20.5q-46 0 -77 -26.5t-44 -76.5l-136 31q26 93 93.5 143.5t169.5 50.5q100 0 162.5 -51.5t62.5 -139.5q0 -152 -184 -233l-136 -59q-47 -21 -68 -45t-32 -65h337l-26 -118h-495l18 81q38 179 187 247z" />
    <glyph glyph-name="three.tf" 
d="M121 40q-68 51 -90 150l136 31q12 -56 45.5 -83t90.5 -27q54 0 89.5 27t35.5 73q0 39 -26 63t-70 24h-86l23 113h85q56 0 89 26t33 70q0 38 -26 60t-73 22q-46 0 -78.5 -26t-49.5 -76l-136 31q28 92 100 142.5t170 50.5q71 0 123 -24t79.5 -65.5t27.5 -93.5
q0 -67 -43 -116.5t-118 -67.5q114 -36 114 -141q0 -59 -35.5 -108t-97 -77.5t-135.5 -28.5q-109 0 -177 51z" />
    <glyph glyph-name="four.tf" 
d="M375 159h-362l24 114l437 427h143l-90 -423h81l-25 -118h-81l-34 -159h-127zM400 277l57 264l-270 -264h213z" />
    <glyph glyph-name="five.tf" 
d="M133 41.5q-65 51.5 -87 148.5l136 31q24 -110 129 -110q50 0 81.5 34.5t31.5 84.5q0 49 -35 79.5t-94 30.5q-47 0 -107 -27l-90 36l89 351h438l-26 -118h-320l-43 -164q56 22 110 22q64 0 113.5 -24.5t76.5 -69.5t27 -105q0 -69 -32.5 -126.5t-93.5 -91t-141 -33.5
q-98 0 -163 51.5z" />
    <glyph glyph-name="six.tf" 
d="M182 24q-59 35 -92.5 101.5t-33.5 158.5q0 120 46 217.5t125.5 153.5t176.5 56q87 0 147.5 -45t80.5 -122l-134 -30q-25 75 -108 75q-76 0 -131.5 -67.5t-71.5 -183.5q40 49 85.5 72t101.5 23q60 0 107 -26t73 -71.5t26 -101.5q0 -70 -34.5 -126t-95 -87.5t-135.5 -31.5
q-74 0 -133 35zM221.5 146.5q38.5 -44.5 102.5 -44.5q57 0 94 35t37 90q0 49 -32.5 77t-88.5 28q-42 0 -81.5 -16.5t-70.5 -46.5q1 -78 39.5 -122.5z" />
    <glyph glyph-name="seven.tf" 
d="M501 582h-379l26 118h524l-22 -98l-418 -602h-161z" />
    <glyph glyph-name="eight.tf" 
d="M161 13q-57 24 -88.5 67t-31.5 97q0 68 48 121.5t124 71.5q-40 19 -62 52.5t-22 73.5q0 60 35 109t94.5 77.5t129.5 28.5q66 0 116.5 -23.5t78.5 -64t28 -91.5q0 -60 -41.5 -109t-108.5 -69q48 -21 77 -59t29 -85q0 -62 -37 -112.5t-100 -79.5t-139 -29q-73 0 -130 24z
M208.5 126.5q35.5 -28.5 92.5 -28.5q59 0 98 32t39 81q0 43 -35.5 71.5t-91.5 28.5q-59 0 -98.5 -32.5t-39.5 -79.5q0 -44 35.5 -72.5zM284 433q30 -25 78 -25q49 0 84.5 31.5t35.5 74.5q0 40 -28.5 65t-77.5 25q-50 0 -86 -31.5t-36 -76.5q0 -38 30 -63z" />
    <glyph glyph-name="nine.tf" 
d="M485.5 676q58.5 -35 92 -101.5t33.5 -158.5q0 -120 -46 -217.5t-125 -153.5t-176 -56q-88 0 -148 45t-80 122l133 30q27 -75 109 -75q75 0 130.5 67.5t72.5 183.5q-40 -49 -85.5 -72t-101.5 -23q-60 0 -107 26t-73 71.5t-26 101.5q0 70 34.5 126t95 87.5t135.5 31.5
q74 0 132.5 -35zM245.5 396q32.5 -28 88.5 -28q41 0 80.5 16.5t71.5 46.5q-1 77 -40 122t-102 45q-57 0 -94 -35t-37 -90q0 -49 32.5 -77z" />
    <glyph glyph-name="exclamdown.case" horiz-adv-x="266" 
d="M149 0h-137l121 491h103zM162 682.5q27 27.5 62 27.5q31 0 51 -20.5t20 -50.5q0 -36 -27 -63.5t-63 -27.5q-30 0 -50 20.5t-20 51.5q0 35 27 62.5z" />
    <glyph glyph-name="questiondown.case" horiz-adv-x="504" 
d="M349.5 376.5q-25.5 -40.5 -78.5 -72.5l-61 -37q-64 -38 -64 -92q0 -31 26.5 -51t67.5 -20q50 0 84 25t46 70l123 -27q-20 -83 -90.5 -133t-168.5 -50q-64 0 -114.5 22.5t-79 63t-28.5 90.5q0 59 31.5 102t115.5 91l38 21q36 21 52.5 45t23.5 64h113q-11 -71 -36.5 -111.5
zM305 681q27 27 62 27q30 0 50.5 -20t20.5 -50q0 -37 -27 -64.5t-63 -27.5q-30 0 -50 20.5t-20 51.5q0 36 27 63z" />
    <glyph glyph-name="periodcentered.case" horiz-adv-x="280" 
d="M99 290q-20 20 -20 50q0 37 27 64t63 27q30 0 50 -20.5t20 -50.5q0 -36 -27 -63t-62 -27q-31 0 -51 20z" />
    <glyph glyph-name="hyphen.case" horiz-adv-x="488" 
d="M446 408l-24 -116h-370l24 116h370z" />
    <glyph glyph-name="endash.case" horiz-adv-x="588" 
d="M544 408l-24 -116h-468l24 116h468z" />
    <glyph glyph-name="emdash.case" horiz-adv-x="738" 
d="M692 408l-24 -116h-615l24 116h615z" />
    <glyph glyph-name="uni2015.case" horiz-adv-x="988" 
d="M937 408l-24 -116h-860l24 116h860z" />
    <glyph glyph-name="at.case" horiz-adv-x="803" 
d="M253 32.5q-84 45.5 -132 125.5t-48 180q0 106 48.5 191.5t133 134.5t189.5 49q94 0 171.5 -40t122 -110t44.5 -154q0 -67 -24 -119.5t-67.5 -82t-99.5 -29.5q-74 0 -103 41q-23 -20 -50 -30.5t-55 -10.5q-40 0 -73.5 21t-52.5 56.5t-19 78.5q0 51 23.5 93t64.5 66.5
t90 24.5q54 0 92 -33l4 20h96l-44 -206q-2 -10 -2 -14q0 -18 11.5 -28t32.5 -10q46 0 75 43.5t29 111.5q0 71 -35 128t-96.5 89.5t-137.5 32.5q-83 0 -151 -40.5t-107.5 -111t-39.5 -156.5q0 -85 38 -151t106 -103t156 -37q92 0 164 36l27 -58q-96 -44 -191 -44
q-106 0 -190 45.5zM351.5 281q21.5 -24 54.5 -24q36 0 64 25q0 15 3 31l18 89q-24 34 -72 34q-37 0 -63 -27.5t-26 -66.5q0 -37 21.5 -61z" />
    <glyph glyph-name="caronSlovak" 
d="M359 702l118 22l-90 -223h-80z" />
    <glyph glyph-name="cordinal" horiz-adv-x="440" 
d="M187 326q-43 24 -67 66.5t-24 94.5q0 61 29 112t79 81t109 30q50 0 93 -21.5t68 -58.5l-72 -66q-36 52 -91 52q-29 0 -54.5 -16.5t-40.5 -45t-15 -61.5q0 -43 26 -70t67 -27q46 0 88 39l55 -71q-33 -30 -72.5 -46t-81.5 -16q-53 0 -96 24z" />
    <glyph glyph-name="reversequotedblleft" horiz-adv-x="471" 
d="M279 478h-103l-69 263h142zM440 741l30 -263h-103l-69 263h142z" />
    <glyph glyph-name="reversequoteleft" horiz-adv-x="280" 
d="M279 478h-103l-69 263h142z" />
    </font>
</defs>
</svg>
