<?xml version="1.0" standalone="no"?>
<!DOCTYPE svg PUBLIC "-//W3C//DTD SVG 1.1//EN" "http://www.w3.org/Graphics/SVG/1.1/DTD/svg11.dtd" >
<svg xmlns="http://www.w3.org/2000/svg" xmlns:xlink="http://www.w3.org/1999/xlink" version="1.1">
<metadata>
Created by FontForge 20201107 at Fri Jul  5 11:45:18 2024
 By 
Initial Copyright: 2021 The Red Hat Project Authors (https://github.com/RedHatOfficial/RedHatFont). Modified in 2023 for Grodrej &#38; Boyce under the name G1B Sans.
</metadata>
<defs>
<font id="GEG-BodyCopy" horiz-adv-x="610" >
  <font-face 
    font-family="GEG Body Copy"
    font-weight="400"
    font-stretch="normal"
    units-per-em="1000"
    panose-1="2 1 5 3 4 2 1 2 3 3"
    ascent="800"
    descent="-200"
    x-height="501"
    cap-height="700"
    bbox="-63 -264 1067 1004"
    underline-thickness="100"
    underline-position="-250"
    unicode-range="U+000D-FFFD"
  />
<missing-glyph horiz-adv-x="524" 
d="M65 750h394v-850h-394v850z" />
    <glyph glyph-name="fi" unicode="fi" horiz-adv-x="576" 
d="M166.5 667q36.5 44 99.5 44q49 0 81 -25.5t43 -72.5l-60 -16q-8 48 -64 48q-34 0 -48.5 -24.5t-14.5 -70.5v-49h149v-63h-149v-438h-73v438h-118v63h118v46q0 76 36.5 120zM434 501h74v-501h-74v501zM436 682.5q15 14.5 35 14.5q21 0 35.5 -14.5t14.5 -35.5
q0 -20 -14.5 -35t-35.5 -15q-20 0 -35 15t-15 35q0 21 15 35.5z" />
    <glyph glyph-name="fl" unicode="fl" horiz-adv-x="576" 
d="M166.5 667q36.5 44 99.5 44q49 0 81 -25.5t43 -72.5l-60 -16q-8 48 -64 48q-34 0 -48.5 -24.5t-14.5 -70.5v-49h149v-63h-149v-438h-73v438h-118v63h118v46q0 76 36.5 120zM434 700l74 17v-717h-74v700z" />
    <glyph glyph-name=".notdef" horiz-adv-x="524" 
d="M65 750h394v-850h-394v850z" />
    <glyph glyph-name=".null" horiz-adv-x="225" 
 />
    <glyph glyph-name="nonmarkingreturn" unicode="&#xd;" horiz-adv-x="225" 
 />
    <glyph glyph-name="space" unicode=" " horiz-adv-x="225" 
 />
    <glyph glyph-name="exclam" unicode="!" horiz-adv-x="208" 
d="M65 701h77l-9 -511h-59zM68 77q15 15 36 15t36 -15t15 -36t-15 -36t-36 -15t-36 15t-15 36t15 36z" />
    <glyph glyph-name="quotedbl" unicode="&#x22;" horiz-adv-x="328" 
d="M63 701h75l-11 -204h-53zM191 701h75l-11 -204h-53z" />
    <glyph glyph-name="numbersign" unicode="#" horiz-adv-x="702" 
d="M147 219h-112v58h128l42 146h-120v58h136l63 219h68l-63 -219h198l63 219h68l-63 -219h112v-58h-128l-42 -146h120v-58h-136l-63 -219h-68l63 219h-198l-63 -219h-68zM429 277l42 146h-198l-42 -146h198z" />
    <glyph glyph-name="dollar" unicode="$" horiz-adv-x="550" 
d="M241 11q-89 8 -149.5 58t-76.5 130l76 19q13 -60 52.5 -95.5t97.5 -43.5v251l-23 5q-86 18 -128.5 57.5t-42.5 108.5q0 76 54.5 127.5t139.5 60.5v78h51v-77q81 -5 140.5 -51t77.5 -124l-73 -19q-18 61 -53 91.5t-92 34.5v-228l24 -5q103 -21 150 -61.5t47 -116.5
q0 -57 -28.5 -102t-78.5 -71t-114 -29v-76h-51v78zM146.5 439q24.5 -20 85.5 -33l9 -2v217q-57 -6 -88 -37t-31 -81q0 -44 24.5 -64zM397.5 118.5q39.5 35.5 39.5 90.5q0 33 -13 53t-41.5 33t-80.5 23l-10 2v-242q66 5 105.5 40.5z" />
    <glyph glyph-name="percent" unicode="%" horiz-adv-x="749" 
d="M73 395q-41 50 -41 130t41 130t108 50q65 0 106 -50t42 -130q-1 -80 -42 -130t-106 -50q-67 0 -108 50zM110 427q26 -36 71 -36q44 0 70.5 36.5t26.5 97.5q0 62 -26.5 98.5t-70.5 36.5q-45 0 -71 -36.5t-27 -98.5q1 -62 27 -98zM540 700h62l-394 -700h-61zM463 305
q41 50 108 50q65 0 106 -50t42 -130q-1 -80 -42 -130t-106 -50q-67 0 -108 50t-41 130t41 130zM500 77q26 -36 71 -36q44 0 70.5 36.5t26.5 97.5q0 62 -26.5 98.5t-70.5 36.5q-45 0 -71 -36.5t-27 -98.5q1 -62 27 -98z" />
    <glyph glyph-name="ampersand" unicode="&#x26;" horiz-adv-x="663" 
d="M140.5 14.5q-52.5 24.5 -81 69.5t-28.5 104q0 63 34.5 108t120.5 93q-35 44 -49.5 80t-14.5 77q0 46 22 83.5t60.5 59t86.5 21.5q69 0 113.5 -40t44.5 -104q0 -48 -27.5 -87t-84.5 -74l-50 -30q80 -89 190 -189q47 76 68 188l68 -11q-26 -131 -86 -222q68 -58 178 -141
h-115q-38 28 -104 84q-44 -46 -101 -70t-123 -24q-69 0 -121.5 24.5zM146.5 90.5q45.5 -37.5 119.5 -37.5q50 0 93.5 19t77.5 56q-129 117 -212 213q-70 -38 -97 -71.5t-27 -79.5q0 -62 45.5 -99.5zM204.5 487.5q12.5 -28.5 43.5 -66.5l57 33q74 44 74 110q0 37 -26 61.5
t-64 24.5q-42 0 -69.5 -29t-27.5 -74q0 -31 12.5 -59.5z" />
    <glyph glyph-name="quotesingle" unicode="'" horiz-adv-x="201" 
d="M63 701h75l-11 -204h-53z" />
    <glyph glyph-name="parenleft" unicode="(" horiz-adv-x="399" 
d="M133 -22.5q-64 118.5 -64 271.5t64 271.5t185 189.5l39 -50q-104 -61 -160.5 -168t-56.5 -243q0 -137 56.5 -244t160.5 -167l-39 -51q-121 72 -185 190.5z" />
    <glyph glyph-name="parenright" unicode=")" horiz-adv-x="399" 
d="M266 525.5q64 -118.5 64 -271.5t-64 -271.5t-185 -189.5l-39 50q104 61 160.5 168t56.5 243q0 137 -56.5 244t-160.5 167l39 51q121 -72 185 -190.5z" />
    <glyph glyph-name="asterisk" unicode="*" horiz-adv-x="456" 
d="M203 479l-119 -73l-29 45l124 73l-120 72l29 44l114 -71l-1 131h54l-1 -130l113 70l30 -44l-120 -72l125 -73l-31 -45l-118 73l2 -138h-54z" />
    <glyph glyph-name="plus" unicode="+" 
d="M274 326h-167v60h167v181h62v-181h167v-60h-167v-181h-62v181z" />
    <glyph glyph-name="comma" unicode="," horiz-adv-x="252" 
d="M109 -52q12 20 14 52h-43v92h92v-69q0 -52 -13.5 -83.5t-58.5 -60.5l-28 35q25 14 37 34z" />
    <glyph glyph-name="hyphen" unicode="-" horiz-adv-x="457" 
d="M54 314h349v-66h-349v66z" />
    <glyph glyph-name="period" unicode="." horiz-adv-x="260" 
d="M94 9q-15 15 -15 36t15 36t36 15t36 -15t15 -36t-15 -36t-36 -15t-36 15z" />
    <glyph glyph-name="slash" unicode="/" horiz-adv-x="467" 
d="M359 700h75l-422 -904h-74z" />
    <glyph glyph-name="zero" unicode="0" horiz-adv-x="672" 
d="M188.5 35q-64.5 46 -101 128t-36.5 187t36.5 187t101 128t147.5 46t147.5 -46t101 -128t36.5 -187t-36.5 -187t-101 -128t-147.5 -46t-147.5 46zM150 194q26 -67 74 -103.5t112 -36.5t112 36.5t74 103.5t26 156t-26 156t-74 103.5t-112 36.5t-112 -36.5t-74 -103.5
t-26 -156t26 -156z" />
    <glyph glyph-name="one" unicode="1" horiz-adv-x="299" 
d="M151 623l-118 -52v67l144 62h47v-700h-73v623z" />
    <glyph glyph-name="two" unicode="2" 
d="M115.5 196q36.5 60 120.5 113l115 73q53 34 75.5 64t22.5 69q0 57 -38 92.5t-101 35.5q-121 0 -158 -127l-73 19q20 81 81.5 128.5t149.5 47.5q63 0 110.5 -24.5t73.5 -69t26 -102.5t-28.5 -101.5t-91.5 -83.5l-127 -80q-44 -28 -68 -52.5t-34.5 -55.5t-12.5 -79h372v-63
h-451v53q0 83 36.5 143z" />
    <glyph glyph-name="three" unicode="3" 
d="M126 35q-63 46 -84 130l73 19q20 -67 60 -97t108 -30q78 0 123 36.5t45 101.5q0 60 -37.5 96t-100.5 36h-93v62h90q55 0 88 34t33 88q0 59 -41.5 95.5t-106.5 36.5q-60 0 -100.5 -33t-57.5 -94l-73 19q18 80 81.5 128t151.5 48q62 0 112.5 -25t79 -68.5t28.5 -96.5
q0 -57 -31.5 -100.5t-84.5 -60.5q64 -16 100 -62t36 -109q0 -58 -30.5 -103.5t-85.5 -71t-126 -25.5q-94 0 -157 46z" />
    <glyph glyph-name="four" unicode="4" 
d="M412 187h-378v57l372 456h77v-450h97v-63h-97v-187h-71v187zM412 250v363l-294 -363h294z" />
    <glyph glyph-name="five" unicode="5" 
d="M134.5 35q-61.5 46 -82.5 130l73 19q20 -66 58.5 -96.5t99.5 -30.5q84 0 132.5 43t48.5 118q0 70 -47 113t-123 43q-78 0 -157 -40l-50 16l16 350h408v-63h-346l-11 -242q40 19 77 28t78 9q68 0 120 -26.5t80.5 -74.5t28.5 -110q0 -69 -31.5 -121.5t-89 -81.5t-134.5 -29
q-87 0 -148.5 46z" />
    <glyph glyph-name="six" unicode="6" 
d="M184 33q-62 43 -97 119.5t-35 173.5q0 120 36.5 206.5t103 132.5t154.5 46q78 0 130 -35.5t69 -100.5l-73 -19q-16 44 -49.5 65.5t-86.5 21.5q-99 0 -154.5 -83t-57.5 -227q39 50 93 78t112 28q67 0 120.5 -28t83.5 -78t30 -112q0 -66 -31 -118.5t-85 -82.5t-121 -30
q-80 0 -142 43zM191.5 114q54.5 -61 133.5 -61q47 0 85 21.5t59.5 59.5t21.5 85q0 46 -22 83t-61 57.5t-89 20.5q-54 0 -104.5 -27t-88.5 -76q11 -102 65.5 -163z" />
    <glyph glyph-name="seven" unicode="7" 
d="M476 637h-420v63h498v-56l-344 -644h-82z" />
    <glyph glyph-name="eight" unicode="8" 
d="M177 15q-57 26 -89 71.5t-32 102.5q0 63 46 113t119 67q-62 17 -100 61t-38 99q0 51 29 92.5t79.5 65.5t113.5 24t113.5 -24t79.5 -65.5t29 -92.5q0 -55 -38 -99t-100 -61q73 -17 119 -67t46 -113q0 -57 -32 -102.5t-89 -71.5t-128 -26t-128 26zM150.5 118.5
q23.5 -33.5 64 -52.5t90.5 -19t90.5 19t64 52.5t23.5 73.5t-23.5 73.5t-64 52.5t-90.5 19t-90.5 -19t-64 -52.5t-23.5 -73.5t23.5 -73.5zM173 461.5q20 -29.5 55 -46t77 -16.5t77 16.5t55 46t20 64.5t-20 64.5t-55 46t-77 16.5t-77 -16.5t-55 -46t-20 -64.5t20 -64.5z" />
    <glyph glyph-name="nine" unicode="9" 
d="M426 667q62 -43 97 -119.5t35 -173.5q0 -120 -36.5 -206.5t-103 -132.5t-154.5 -46q-78 0 -130 35.5t-69 100.5l73 19q16 -44 49.5 -65.5t86.5 -21.5q99 0 154.5 83t57.5 227q-39 -50 -93 -78t-112 -28q-67 0 -120.5 28t-83.5 78t-30 112q0 66 31 118.5t85 82.5t121 30
q80 0 142 -43zM141 398q22 -37 61 -57.5t89 -20.5q54 0 104.5 27t88.5 76q-11 102 -65.5 163t-133.5 61q-47 0 -85 -21.5t-59.5 -59.5t-21.5 -85q0 -46 22 -83z" />
    <glyph glyph-name="colon" unicode=":" horiz-adv-x="260" 
d="M94 9q-15 15 -15 36t15 36t36 15t36 -15t15 -36t-15 -36t-36 -15t-36 15zM94 425q-15 15 -15 36t15 36t36 15t36 -15t15 -36t-15 -36t-36 -15t-36 15z" />
    <glyph glyph-name="semicolon" unicode=";" horiz-adv-x="252" 
d="M90 425q-15 15 -15 36t15 36t36 15t36 -15t15 -36t-15 -36t-36 -15t-36 15zM109 -52q12 20 14 52h-43v92h92v-69q0 -52 -13.5 -83.5t-58.5 -60.5l-28 35q25 14 37 34z" />
    <glyph glyph-name="less" unicode="&#x3c;" 
d="M112 349l317 245l37 -47l-261 -197l261 -199l-38 -48z" />
    <glyph glyph-name="equal" unicode="=" 
d="M107 305h396v-60h-396v60zM107 468h396v-60h-396v60z" />
    <glyph glyph-name="greater" unicode="&#x3e;" 
d="M498 348l-317 -245l-37 47l261 197l-261 199l38 48z" />
    <glyph glyph-name="question" unicode="?" horiz-adv-x="516" 
d="M192 222q0 58 19 95.5t64 69.5l44 31q43 30 59.5 56.5t16.5 61.5q0 46 -39.5 76.5t-98.5 30.5q-66 0 -106.5 -28t-58.5 -85l-72 19q19 76 82 119t155 43q60 0 108 -22.5t75.5 -62t27.5 -89.5q0 -52 -24 -88.5t-90 -83.5l-34 -24q-37 -26 -52 -59.5t-11 -83.5h-64zM189 81
q15 15 36 15t36 -15t15 -36t-15 -36t-36 -15t-36 15t-15 36t15 36z" />
    <glyph glyph-name="at" unicode="@" horiz-adv-x="786" 
d="M225 -98q-82 46 -129 126t-47 179q0 104 46.5 188t128 132.5t181.5 48.5q93 0 169 -40.5t120 -110.5t44 -156q0 -61 -23 -109.5t-63.5 -76.5t-90.5 -28q-65 0 -93 41q-51 -45 -106 -45q-40 0 -73 20t-51.5 54.5t-18.5 76.5q0 48 22.5 88.5t61.5 64.5t85 24q29 0 55.5 -10
t45.5 -29l5 26h56l-39 -192q-2 -8 -2 -22q0 -26 15 -39.5t43 -13.5q34 0 62.5 22t44.5 60.5t16 85.5q0 75 -37.5 135.5t-103.5 95t-146 34.5q-85 0 -154.5 -42.5t-110 -116.5t-40.5 -164q0 -88 40.5 -158t112 -110t160.5 -40q94 0 170 41l18 -41q-88 -45 -191 -45
q-101 0 -183 46zM302 128q28 -30 72 -30q46 0 81 35q-1 6 -1 18q0 13 3 28l21 106q-14 22 -38 34t-53 12q-30 0 -56 -17t-41.5 -46t-15.5 -62q0 -48 28 -78z" />
    <glyph glyph-name="A" unicode="A" horiz-adv-x="689" 
d="M299 700h93l288 -700h-84l-88 220h-330l-89 -220h-80zM481 286l-138 343l-138 -343h276z" />
    <glyph glyph-name="B" unicode="B" horiz-adv-x="667" 
d="M82 700h284q101 0 161 -49t60 -131q0 -54 -30 -94t-87 -61q70 -19 108 -63t38 -105q0 -59 -29.5 -104t-83.5 -69t-125 -24h-296v700zM372 67q76 0 121 36t45 96t-45 96t-121 36h-213v-264h213zM362 395q68 0 108.5 32t40.5 87t-40.5 87t-108.5 32h-203v-238h203z" />
    <glyph glyph-name="C" unicode="C" horiz-adv-x="768" 
d="M222.5 36.5q-81.5 46.5 -127.5 128.5t-46 185q0 104 46 186t127.5 128.5t184.5 46.5q80 0 147 -28.5t111.5 -81.5t59.5 -123l-73 -16q-19 82 -84.5 130.5t-161.5 48.5q-84 0 -147 -37t-97 -103.5t-34 -150.5t34.5 -150t97.5 -103t147 -37q95 0 160.5 48.5t84.5 130.5
l73 -16q-15 -70 -59.5 -123t-111.5 -81.5t-147 -28.5q-103 0 -184.5 46.5z" />
    <glyph glyph-name="D" unicode="D" horiz-adv-x="730" 
d="M82 700h231q105 0 189 -45t131.5 -125t47.5 -180t-47.5 -180t-131 -125t-189.5 -45h-231v700zM317 70q80 0 145.5 37t103 101t37.5 142t-37.5 142t-103 101t-145.5 37h-158v-560h158z" />
    <glyph glyph-name="E" unicode="E" horiz-adv-x="626" 
d="M82 700h501v-68h-424v-245h277v-67h-277v-252h428v-68h-505v700z" />
    <glyph glyph-name="F" unicode="F" horiz-adv-x="617" 
d="M82 700h501v-68h-424v-250h278v-67h-278v-315h-77v700z" />
    <glyph glyph-name="G" unicode="G" horiz-adv-x="798" 
d="M224.5 37q-82.5 48 -129 130.5t-46.5 182.5q0 104 46.5 186t129 128t185.5 46q80 0 147 -28t111.5 -78.5t59.5 -116.5l-73 -16q-19 76 -85 122.5t-161 46.5q-84 0 -148 -37t-99 -103t-35 -150q0 -82 35.5 -148t100 -104t147.5 -38q74 0 131.5 30.5t91.5 84.5t40 123h-251
v68h329v-31q0 -97 -43 -176t-120.5 -124.5t-176.5 -45.5q-104 0 -186.5 48z" />
    <glyph glyph-name="H" unicode="H" horiz-adv-x="725" 
d="M82 700h77v-313h407v313h77v-700h-77v318h-407v-318h-77v700z" />
    <glyph glyph-name="I" unicode="I" horiz-adv-x="241" 
d="M82 700h77v-700h-77v700z" />
    <glyph glyph-name="J" unicode="J" 
d="M119.5 36q-66.5 47 -97.5 132l70 29q54 -137 185 -137q86 0 137 55.5t51 149.5v435h77v-436q0 -83 -32.5 -145.5t-92.5 -96t-141 -33.5q-90 0 -156.5 47z" />
    <glyph glyph-name="K" unicode="K" horiz-adv-x="627" 
d="M82 700h77v-332l362 332h101l-380 -343l388 -357h-108l-363 336v-336h-77v700z" />
    <glyph glyph-name="L" unicode="L" horiz-adv-x="614" 
d="M82 700h77v-631h417v-69h-494v700z" />
    <glyph glyph-name="M" unicode="M" horiz-adv-x="857" 
d="M82 700h108l239 -497l238 497h108v-700h-73v612l-274 -562l-274 561v-611h-72v700z" />
    <glyph glyph-name="N" unicode="N" horiz-adv-x="735" 
d="M82 700h77l421 -568v568h73v-700h-68l-430 583v-583h-73v700z" />
    <glyph glyph-name="O" unicode="O" horiz-adv-x="819" 
d="M228 37q-83 48 -131 131t-48 182t48 182t131 131t182 48t181.5 -48t130.5 -131t48 -182t-48 -182t-130.5 -131t-181.5 -48t-182 48zM164.5 203.5q37.5 -66.5 102 -105t143.5 -38.5q78 0 142.5 38.5t102 105t37.5 146.5q0 81 -37.5 147.5t-102 104.5t-142.5 38
q-79 0 -143.5 -38t-102 -104.5t-37.5 -147.5q0 -80 37.5 -146.5z" />
    <glyph glyph-name="P" unicode="P" horiz-adv-x="657" 
d="M82 700h304q68 0 119 -25t79 -71t28 -106t-28 -106t-79.5 -71.5t-118.5 -25.5h-227v-295h-77v700zM380 362q71 0 113 36.5t42 98.5t-42 98t-113 36h-221v-269h221z" />
    <glyph glyph-name="Q" unicode="Q" horiz-adv-x="819" 
d="M228 37q-83 48 -131 131t-48 182t48 182t131 131t182 48t181.5 -48t130.5 -131t48 -182q0 -73 -26 -137t-73 -113l84 -100h-98l-43 51q-92 -62 -204 -62q-99 0 -182 48zM164.5 203.5q37.5 -66.5 102 -105t143.5 -38.5q87 0 157 47l-130 155l57 49l129 -154q33 39 51 88.5
t18 104.5q0 81 -37.5 147.5t-102 104.5t-142.5 38q-79 0 -143.5 -38t-102 -104.5t-37.5 -147.5q0 -80 37.5 -146.5z" />
    <glyph glyph-name="R" unicode="R" horiz-adv-x="645" 
d="M82 700h295q100 0 161 -52t61 -141q0 -65 -39.5 -114t-103.5 -62q48 -12 72 -48t30 -112l1 -14q8 -109 43 -157h-91q-11 22 -17 51.5t-10 96.5l-1 16q-4 56 -15.5 85t-35 39.5t-66.5 10.5h-207v-299h-77v700zM370 365q68 0 109.5 37.5t41.5 98.5t-41 96t-110 35h-211
v-267h211z" />
    <glyph glyph-name="S" unicode="S" horiz-adv-x="590" 
d="M109.5 40q-76.5 51 -94.5 139l76 19q14 -69 66 -105t136 -36q87 0 135.5 37.5t48.5 104.5q0 34 -14 55.5t-47.5 36.5t-93.5 27l-84 17q-99 20 -145 62.5t-46 113.5q0 60 30.5 105t86.5 70t129 25q101 0 169 -46t88 -130l-73 -19q-19 65 -64.5 96t-120.5 31
q-80 0 -125 -33.5t-45 -96.5q0 -46 28 -69t102 -38l84 -17q116 -23 166.5 -67t50.5 -121q0 -64 -31.5 -112t-89.5 -74t-135 -26q-111 0 -187.5 51z" />
    <glyph glyph-name="T" unicode="T" horiz-adv-x="627" 
d="M275 631h-253v69h583v-69h-253v-631h-77v631z" />
    <glyph glyph-name="U" unicode="U" horiz-adv-x="714" 
d="M203.5 26.5q-65.5 37.5 -100.5 106.5t-35 163v404h77v-404q0 -71 26 -124.5t74 -82.5t112 -29t112 29t74 82.5t26 124.5v404h77v-404q0 -93 -35.5 -162.5t-100.5 -107t-153 -37.5t-153.5 37.5z" />
    <glyph glyph-name="V" unicode="V" horiz-adv-x="689" 
d="M9 700h83l253 -628l257 628h78l-291 -700h-93z" />
    <glyph glyph-name="W" unicode="W" horiz-adv-x="892" 
d="M40 700h78l119 -578l173 578h75l173 -576l120 576h75l-151 -700h-78l-177 593l-178 -593h-78z" />
    <glyph glyph-name="X" unicode="X" horiz-adv-x="648" 
d="M278 363l-253 337h94l205 -278l205 278h90l-250 -336l271 -364h-93l-224 305l-225 -305h-90z" />
    <glyph glyph-name="Y" unicode="Y" horiz-adv-x="649" 
d="M286 285l-278 415h90l229 -347l228 347h87l-279 -418v-282h-77v285z" />
    <glyph glyph-name="Z" unicode="Z" horiz-adv-x="614" 
d="M29 55l445 577h-441v68h542v-55l-447 -577h455v-68h-554v55z" />
    <glyph glyph-name="bracketleft" unicode="[" horiz-adv-x="357" 
d="M62 700h252v-60h-181v-787h181v-60h-252v907z" />
    <glyph glyph-name="backslash" unicode="\" horiz-adv-x="472" 
d="M35 700h77l422 -904h-78z" />
    <glyph glyph-name="bracketright" unicode="]" horiz-adv-x="357" 
d="M295 -207h-252v60h181v787h-181v60h252v-907z" />
    <glyph glyph-name="asciicircum" unicode="^" horiz-adv-x="546" 
d="M241 700h65l187 -350h-69l-151 285l-151 -285h-68z" />
    <glyph glyph-name="underscore" unicode="_" horiz-adv-x="492" 
d="M4 -80h484v-57h-484v57z" />
    <glyph glyph-name="grave" unicode="`" 
d="M172 716h96l92 -116h-65z" />
    <glyph glyph-name="a" unicode="a" horiz-adv-x="526" 
d="M87.5 28q-46.5 38 -46.5 105t49 105t152 48q92 9 147 39q-2 57 -35 88.5t-92 31.5q-55 0 -92.5 -27.5t-50.5 -76.5l-67 18q17 71 73 111.5t138 40.5q92 0 145 -49.5t53 -135.5v-326h-72v75q-26 -40 -73 -62.5t-104 -22.5q-78 0 -124.5 38zM144.5 69q31.5 -21 83.5 -21
q44 0 81 18.5t58.5 50t21.5 70.5v82q-28 -14 -61 -23t-79 -14q-73 -9 -104.5 -33t-31.5 -66q0 -43 31.5 -64z" />
    <glyph glyph-name="b" unicode="b" horiz-adv-x="600" 
d="M216.5 7q-41.5 15 -75.5 43v-50h-73v700l74 17v-269q64 61 161 61q70 0 127.5 -34t91 -93.5t33.5 -130.5q0 -72 -33.5 -131.5t-91.5 -93.5t-128 -34q-44 0 -85.5 15zM209 75.5q41 -18.5 87 -18.5q52 0 94.5 25.5t67 69.5t24.5 98t-24.5 98.5t-67 70t-94.5 25.5
q-47 0 -87.5 -18.5t-66.5 -51.5v-248q26 -32 67 -50.5z" />
    <glyph glyph-name="c" unicode="c" horiz-adv-x="551" 
d="M169.5 24q-58.5 34 -92 93.5t-33.5 132.5q0 74 33 133.5t92 93.5t132 34q83 0 142.5 -42.5t77.5 -112.5l-69 -18q-16 51 -55.5 79.5t-95.5 28.5q-53 0 -95 -25.5t-65.5 -70t-23.5 -100.5q0 -55 23.5 -99.5t65.5 -70t95 -25.5q56 0 95.5 28.5t53.5 78.5l71 -17
q-18 -71 -77.5 -113t-142.5 -42q-73 0 -131.5 34z" />
    <glyph glyph-name="d" unicode="d" horiz-adv-x="600" 
d="M169.5 26.5q-57.5 34.5 -91 93.5t-33.5 131q0 71 33.5 130.5t91.5 93.5t128 34q44 0 85 -14.5t75 -42.5v248l74 17v-717h-73v53q-66 -61 -162 -61q-70 0 -127.5 34.5zM142.5 153.5q24.5 -44.5 67 -70.5t94.5 -26q47 0 87.5 18.5t66.5 51.5v248q-26 32 -67 50.5t-87 18.5
q-52 0 -94.5 -25t-67 -69t-24.5 -98t24.5 -98.5z" />
    <glyph glyph-name="e" unicode="e" horiz-adv-x="574" 
d="M166 23.5q-57 33.5 -89 93t-32 134.5q0 74 32 133t89.5 93t128.5 34q68 0 121 -32t83 -89t30 -129v-25h-411q1 -50 25 -91.5t64.5 -65.5t88.5 -24q52 0 96 26.5t69 72.5l60 -30q-34 -66 -93 -100t-132 -34t-130 33.5zM455 294q-8 68 -51.5 110t-108.5 42q-69 0 -118 -43
t-57 -109h335z" />
    <glyph glyph-name="f" unicode="f" horiz-adv-x="366" 
d="M166.5 667q36.5 44 99.5 44q49 0 81 -25.5t43 -72.5l-60 -16q-8 48 -64 48q-34 0 -48.5 -24.5t-14.5 -70.5v-49h149v-63h-149v-438h-73v438h-118v63h118v46q0 76 36.5 120z" />
    <glyph glyph-name="g" unicode="g" horiz-adv-x="596" 
d="M149 -184q-56 30 -84 89l67 35q45 -87 155 -87q76 0 121.5 38.5t45.5 102.5v60q-69 -58 -159 -58q-69 0 -126.5 34t-90.5 93t-33 130t33.5 130t91 93t127.5 34q83 0 158 -59v50h73v-506q0 -63 -29.5 -110t-84 -73t-127.5 -26q-82 0 -138 30zM142 156q24 -44 66 -69.5
t93 -25.5q48 0 87.5 18t65.5 51v246q-26 32 -66 50t-87 18q-51 0 -93 -25t-66 -69t-24 -97t24 -97z" />
    <glyph glyph-name="h" unicode="h" horiz-adv-x="559" 
d="M68 700l74 17v-275q59 69 158 69q56 0 100 -24.5t68.5 -68.5t24.5 -101v-317h-73v302q0 67 -37.5 105.5t-102.5 38.5q-45 0 -80 -20t-58 -57v-369h-74v700z" />
    <glyph glyph-name="i" unicode="i" horiz-adv-x="210" 
d="M68 501h74v-501h-74v501zM70 682.5q15 14.5 35 14.5q21 0 35.5 -14.5t14.5 -35.5q0 -20 -14.5 -35t-35.5 -15q-20 0 -35 15t-15 35q0 21 15 35.5z" />
    <glyph glyph-name="j" unicode="j" horiz-adv-x="210" 
d="M-50 -191l26 58q15 -12 40 -12q29 0 40.5 16.5t11.5 49.5v580h74v-592q0 -57 -33 -89t-88 -32q-44 0 -71 21zM70 682.5q15 14.5 35 14.5q21 0 35.5 -14.5t14.5 -35.5q0 -20 -14.5 -35t-35.5 -15q-20 0 -35 15t-15 35q0 21 15 35.5z" />
    <glyph glyph-name="k" unicode="k" horiz-adv-x="504" 
d="M68 700l74 17v-442l262 226h90l-275 -238l288 -263h-101l-264 240v-240h-74v700z" />
    <glyph glyph-name="l" unicode="l" horiz-adv-x="210" 
d="M68 700l74 17v-717h-74v700z" />
    <glyph glyph-name="m" unicode="m" horiz-adv-x="869" 
d="M68 501h74v-55q57 65 147 65q52 0 93 -24t65 -67q61 91 172 91q54 0 96 -24.5t65 -68.5t23 -101v-317h-73v302q0 67 -35 105.5t-95 38.5q-41 0 -75 -21t-58 -61q5 -25 5 -47v-317h-73v302q0 67 -35 105.5t-94 38.5q-81 0 -128 -73v-373h-74v501z" />
    <glyph glyph-name="n" unicode="n" horiz-adv-x="559" 
d="M68 501h74v-59q59 69 158 69q56 0 100 -24.5t68.5 -68.5t24.5 -101v-317h-73v302q0 67 -37.5 105.5t-102.5 38.5q-45 0 -80 -20t-58 -57v-369h-74v501z" />
    <glyph glyph-name="o" unicode="o" horiz-adv-x="602" 
d="M172 24.5q-59 34.5 -93 94t-34 131.5t34 131.5t93 94t129 34.5t129 -34.5t93 -94t34 -131.5t-34 -131.5t-93 -94t-129 -34.5t-129 34.5zM142.5 151.5q24.5 -44.5 66.5 -70t92 -25.5t92 25.5t66.5 70t24.5 98.5t-24.5 98.5t-66.5 70t-92 25.5t-92 -25.5t-66.5 -70
t-24.5 -98.5t24.5 -98.5z" />
    <glyph glyph-name="p" unicode="p" horiz-adv-x="600" 
d="M68 501h73v-54q65 62 162 62q70 0 127.5 -34t91 -93.5t33.5 -130.5q0 -72 -33.5 -131.5t-91.5 -93.5t-128 -34q-44 0 -85 15t-75 43v-254h-74v705zM209 75.5q41 -18.5 87 -18.5q52 0 94.5 25.5t67 69.5t24.5 98t-24.5 98.5t-67 70t-94.5 25.5q-47 0 -87.5 -18.5
t-66.5 -51.5v-248q26 -32 67 -50.5z" />
    <glyph glyph-name="q" unicode="q" horiz-adv-x="600" 
d="M384.5 7.5q-41.5 -15.5 -87.5 -15.5q-70 0 -127.5 34.5t-91 93.5t-33.5 131q0 71 33.5 130.5t91.5 93.5t128 34q45 0 86.5 -15t74.5 -42v49h73v-705h-74v256q-32 -29 -73.5 -44.5zM142.5 153.5q24.5 -44.5 67 -70.5t94.5 -26q47 0 87.5 18.5t66.5 51.5v248
q-26 32 -67 50.5t-87 18.5q-52 0 -94.5 -25t-67 -69t-24.5 -98t24.5 -98.5z" />
    <glyph glyph-name="r" unicode="r" horiz-adv-x="436" 
d="M68 501h74v-61q19 33 51.5 52t69.5 19q56 0 90.5 -37t44.5 -107l-70 -17q-16 96 -86 96q-33 0 -58.5 -19.5t-41.5 -57.5v-369h-74v501z" />
    <glyph glyph-name="s" unicode="s" horiz-adv-x="463" 
d="M92.5 28q-55.5 38 -69.5 109l70 11q12 -49 50.5 -73t97.5 -24q55 0 88 23t33 63q0 37 -21.5 55.5t-75.5 25.5l-75 9q-71 8 -109 43.5t-38 91.5q0 67 51.5 106t138.5 39q152 0 193 -137l-68 -12q-28 88 -127 88q-53 0 -86 -23t-33 -60q0 -31 22 -48t69 -23l71 -9
q158 -20 158 -142q0 -68 -54 -109.5t-145 -41.5q-85 0 -140.5 38z" />
    <glyph glyph-name="t" unicode="t" horiz-adv-x="366" 
d="M153 29q-33 37 -33 108v301h-108v63h108v127l73 19v-146h151v-63h-151v-295q0 -45 15.5 -64.5t44.5 -19.5q20 0 35 5t31 15l23 -57q-22 -16 -46 -23t-53 -7q-57 0 -90 37z" />
    <glyph glyph-name="u" unicode="u" horiz-adv-x="559" 
d="M159 14.5q-44 24.5 -68.5 68.5t-24.5 101v317h73v-302q0 -67 37.5 -105.5t102.5 -38.5q45 0 80 20t58 58v368h74v-501h-74v58q-59 -68 -157 -68q-57 0 -101 24.5z" />
    <glyph glyph-name="v" unicode="v" horiz-adv-x="523" 
d="M10 501h82l171 -405l171 405h79l-216 -501h-70z" />
    <glyph glyph-name="w" unicode="w" horiz-adv-x="713" 
d="M19 501h73l108 -400l125 400h66l124 -400l109 400h70l-142 -501h-71l-124 401l-125 -401h-72z" />
    <glyph glyph-name="x" unicode="x" horiz-adv-x="501" 
d="M207 258l-187 243h88l142 -188l142 188h85l-185 -242l198 -259h-88l-153 204l-155 -204h-84z" />
    <glyph glyph-name="y" unicode="y" horiz-adv-x="520" 
d="M18 -193l26 59q21 -13 50 -13q30 0 51 19.5t39 59.5l30 69l-204 500h82l162 -411l175 411h80l-250 -579q-32 -73 -68.5 -104.5t-92.5 -31.5q-49 0 -80 21z" />
    <glyph glyph-name="z" unicode="z" horiz-adv-x="473" 
d="M36 58l302 377h-299v66h389v-57l-303 -378h306v-66h-395v58z" />
    <glyph glyph-name="braceleft" unicode="{" horiz-adv-x="392" 
d="M164 -180.5q-37 33.5 -37 88.5q0 37 16 76l42 101q12 29 12 54q0 36 -22.5 57.5t-62.5 21.5h-79v60h79q40 0 62.5 21.5t22.5 57.5q0 26 -12 54l-42 101q-16 39 -16 76q0 55 37 88.5t103 33.5q40 0 80 -15l-15 -56q-32 11 -62 11q-35 0 -54.5 -18.5t-19.5 -50.5
q0 -26 11 -52l48 -122q10 -24 10 -50q0 -38 -24 -67.5t-65 -40.5q42 -13 65.5 -42.5t23.5 -67.5q0 -26 -10 -50l-48 -122q-11 -26 -11 -52q0 -32 19.5 -50.5t54.5 -18.5q30 0 62 11l15 -56q-40 -15 -80 -15q-66 0 -103 33.5z" />
    <glyph glyph-name="bar" unicode="|" horiz-adv-x="284" 
d="M108 700h68v-904h-68v904z" />
    <glyph glyph-name="braceright" unicode="}" horiz-adv-x="392" 
d="M228 676.5q37 -33.5 37 -88.5q0 -37 -16 -76l-42 -101q-12 -28 -12 -54q0 -36 22.5 -57.5t62.5 -21.5h79v-60h-79q-40 0 -62.5 -21.5t-22.5 -57.5q0 -25 12 -54l42 -101q16 -39 16 -76q0 -55 -37 -88.5t-103 -33.5q-40 0 -80 15l15 56q32 -11 62 -11q35 0 54.5 18.5
t19.5 50.5q0 26 -11 52l-48 122q-10 24 -10 50q0 38 24 67.5t65 40.5q-42 13 -65.5 42.5t-23.5 67.5q0 26 10 50l48 122q11 26 11 52q0 32 -19.5 50.5t-54.5 18.5q-30 0 -62 -11l-15 56q40 15 80 15q66 0 103 -33.5z" />
    <glyph glyph-name="asciitilde" unicode="~" horiz-adv-x="588" 
d="M87 416q33 38 85 38q41 0 93 -29l80 -40q25 -12 39.5 -17t27.5 -5q62 0 75 91l56 -7q-8 -70 -41.5 -108t-85.5 -38q-40 0 -93 28l-80 40q-26 13 -40 18t-27 5q-61 0 -74 -91l-57 7q9 70 42 108z" />
    <glyph glyph-name="uni00A0" unicode="&#xa0;" horiz-adv-x="225" 
 />
    <glyph glyph-name="exclamdown" unicode="&#xa1;" horiz-adv-x="208" 
d="M143 -204h-77l9 511h59zM68 492q15 15 36 15t36 -15t15 -36t-15 -36t-36 -15t-36 15t-15 36t15 36z" />
    <glyph glyph-name="cent" unicode="&#xa2;" horiz-adv-x="553" 
d="M325 608v-98q74 -6 126.5 -47.5t69.5 -106.5l-69 -18q-14 45 -47.5 73t-79.5 34v-389q47 6 79.5 33.5t45.5 72.5l71 -17q-17 -65 -69.5 -106.5t-126.5 -47.5v-107h-51v107q-66 6 -118.5 41.5t-82 92t-29.5 125.5t29.5 126t81.5 92.5t119 41.5v98h51zM160.5 120.5
q43.5 -53.5 113.5 -63.5v387q-70 -10 -113.5 -63.5t-43.5 -130.5q0 -76 43.5 -129.5z" />
    <glyph glyph-name="sterling" unicode="&#xa3;" horiz-adv-x="625" 
d="M53 21.5q-33 31.5 -33 80.5q0 47 34 79.5t83 32.5q46 0 83 -21q-6 57 -41 119h-134v57h103q-18 36 -27.5 66.5t-9.5 66.5q0 60 29 107.5t80.5 74.5t116.5 27q88 0 150.5 -47.5t81.5 -128.5l-73 -19q-19 63 -59 95t-99 32q-67 0 -111.5 -38.5t-44.5 -100.5
q0 -32 11.5 -61.5t34.5 -73.5h194v-57h-165q32 -69 32 -134q0 -21 -3 -39q29 -29 47.5 -44t44.5 -26t60 -11q45 0 66.5 30.5t21.5 95.5l73 -5q0 -85 -44 -137t-116 -52q-56 0 -93 22.5t-77 64.5q-19 -41 -52 -64t-74 -23q-57 0 -90 31.5zM103 64q15 -15 40 -15
q28 0 47.5 20.5t26.5 57.5q-35 28 -76 28q-23 0 -38 -15.5t-15 -37.5q0 -23 15 -38z" />
    <glyph glyph-name="currency" unicode="&#xa4;" horiz-adv-x="692" 
d="M51 104l93 94q-26 33 -40 75t-14 88q0 93 55 162l-94 95l40 41l94 -95q33 27 74.5 42t86.5 15t86.5 -15t74.5 -42l94 95l39 -40l-95 -95q56 -70 56 -163q0 -92 -54 -162l94 -95l-40 -41l-94 94q-33 -27 -74.5 -42t-86.5 -15q-46 0 -87.5 15t-75.5 43l-93 -94z
M187.5 262.5q24.5 -44.5 66.5 -70t92 -25.5t92 25.5t66.5 70t24.5 98.5t-24.5 98.5t-66.5 70t-92 25.5t-92 -25.5t-66.5 -70t-24.5 -98.5t24.5 -98.5z" />
    <glyph glyph-name="yen" unicode="&#xa5;" horiz-adv-x="651" 
d="M287 134h-187v54h187v75h-187v54h166l-253 383h90l225 -347l223 347h87l-251 -383h164v-54h-187v-75h187v-54h-187v-134h-77v134z" />
    <glyph glyph-name="brokenbar" unicode="&#xa6;" horiz-adv-x="284" 
d="M108 700h68v-412h-68v412zM108 208h68v-412h-68v412z" />
    <glyph glyph-name="section" unicode="&#xa7;" horiz-adv-x="502" 
d="M61 87l68 12q28 -88 127 -88q50 0 78.5 20.5t28.5 53.5q0 29 -18.5 48.5t-58.5 32.5l-109 36q-77 26 -108.5 58.5t-31.5 86.5q0 43 23.5 74.5t66.5 47.5q-33 22 -44.5 47.5t-11.5 56.5q0 62 48.5 100t128.5 38q152 0 193 -137l-68 -12q-28 88 -127 88q-50 0 -78.5 -20.5
t-28.5 -53.5q0 -29 18.5 -48.5t58.5 -32.5l109 -36q77 -26 108.5 -58.5t31.5 -86.5q0 -43 -23.5 -74.5t-66.5 -47.5q33 -22 44.5 -47.5t11.5 -56.5q0 -62 -48.5 -100t-128.5 -38q-152 0 -193 137zM123.5 299q21.5 -21 69.5 -37l104 -34l18 -6q40 8 62.5 31t22.5 56
q0 32 -21.5 53t-69.5 37l-104 34l-18 6q-40 -8 -62.5 -31t-22.5 -56q0 -32 21.5 -53z" />
    <glyph glyph-name="dieresis" unicode="&#xa8;" 
d="M182.5 625q-14.5 14 -14.5 34t14.5 34t35.5 14t35.5 -14t14.5 -34t-14.5 -34t-35.5 -14t-35.5 14zM356.5 693q14.5 14 35.5 14t35.5 -14t14.5 -34t-14.5 -34t-35.5 -14t-35.5 14t-14.5 34t14.5 34z" />
    <glyph glyph-name="copyright" unicode="&#xa9;" horiz-adv-x="814" 
d="M226 37q-82 48 -129.5 130.5t-47.5 182.5t47.5 182.5t129.5 130.5t181 48q100 0 181.5 -47.5t129 -130.5t47.5 -183t-47.5 -183t-129 -130.5t-181.5 -47.5q-99 0 -181 48zM138.5 190q41.5 -73 112.5 -115.5t156 -42.5q86 0 157.5 42.5t113 115.5t41.5 160t-41.5 160
t-113 115.5t-157.5 42.5q-85 0 -156 -42.5t-112.5 -115.5t-41.5 -160t41.5 -160zM260 445q23 42 64.5 66t94.5 24q57 0 98.5 -29.5t53.5 -78.5l-54 -12q-10 33 -36 50.5t-64 17.5q-53 0 -88 -37.5t-35 -95.5q0 -56 35.5 -94.5t87.5 -38.5q38 0 64 17.5t36 50.5l54 -11
q-12 -50 -53 -79t-99 -29q-53 0 -94.5 24t-64.5 66t-23 94q0 53 23 95z" />
    <glyph glyph-name="ordfeminine" unicode="&#xaa;" horiz-adv-x="418" 
d="M76 347q-36 30 -36 78q0 52 38.5 82t113.5 35q63 5 109 24v3q0 85 -94 85q-77 0 -112 -69l-54 23q48 103 167 103q72 0 113 -37.5t41 -103.5v-246h-61v60q-19 -31 -53.5 -49t-76.5 -18q-59 0 -95 30zM123 382q23 -17 59 -17q50 0 84.5 35t34.5 87v30q-47 -16 -106 -20
q-48 -5 -71.5 -22.5t-23.5 -49.5q0 -26 23 -43z" />
    <glyph glyph-name="guillemotleft" unicode="&#xab;" horiz-adv-x="608" 
d="M36 251l234 250h79l-228 -248l231 -253h-82zM244 251l234 250h79l-228 -248l231 -253h-82z" />
    <glyph glyph-name="logicalnot" unicode="&#xac;" horiz-adv-x="593" 
d="M467 254h-395v60h457v-314h-62v254z" />
    <glyph glyph-name="uni00AD" unicode="&#xad;" horiz-adv-x="465" 
d="M54 314h349v-66h-349v66z" />
    <glyph glyph-name="registered" unicode="&#xae;" horiz-adv-x="499" 
d="M148.5 337.5q-45.5 26.5 -72 72.5t-26.5 102t26.5 102t72 72.5t100.5 26.5t101 -26.5t72.5 -72.5t26.5 -102t-26.5 -102t-72.5 -72.5t-101 -26.5t-100.5 26.5zM108 427q21 -38 58 -60t83 -22q47 0 84 21.5t58 60t21 85.5t-21 85.5t-58 60t-84 21.5q-46 0 -83 -21.5
t-58 -60t-21 -85.5t21 -85zM181 607h85q29 0 46 -14t17 -37q0 -16 -10 -29.5t-26 -18.5q18 -4 21 -23l5 -45q1 -13 4 -21h-32q-3 7 -5 19l-3 34q-1 16 -20 16h-48v-69h-34v188zM261 516q18 0 27 8.5t9 23.5t-10 23t-26 8h-46v-63h46z" />
    <glyph glyph-name="macron" unicode="&#xaf;" 
d="M163 674h284v-53h-284v53z" />
    <glyph glyph-name="degree" unicode="&#xb0;" horiz-adv-x="414" 
d="M135 442.5q-33 19.5 -52 52.5t-19 72t19 72t52 52.5t72 19.5t72 -19.5t52 -52.5t19 -72t-19 -72t-52 -52.5t-72 -19.5t-72 19.5zM141.5 500q27.5 -28 65.5 -28t65.5 28t27.5 67t-27.5 67t-65.5 28t-65.5 -28t-27.5 -67t27.5 -67z" />
    <glyph glyph-name="plusminus" unicode="&#xb1;" 
d="M107 59h396v-60h-396v60zM107 409h167v176h62v-176h167v-60h-167v-176h-62v176h-167v60z" />
    <glyph glyph-name="uni00B2" unicode="&#xb2;" horiz-adv-x="299" 
d="M55.5 456q17.5 30 56.5 52l66 37q23 14 33.5 27t10.5 31q0 24 -17 39.5t-44 15.5q-54 0 -71 -58l-52 13q11 43 43.5 67.5t79.5 24.5q52 0 82.5 -28t30.5 -76q0 -31 -15.5 -53.5t-48.5 -41.5l-64 -35q-28 -16 -38.5 -32.5t-12.5 -43.5h182v-45h-239v33q0 43 17.5 73z" />
    <glyph glyph-name="uni00B3" unicode="&#xb3;" horiz-adv-x="321" 
d="M78 365.5q-33 24.5 -44 70.5l53 13q8 -32 26.5 -46.5t50.5 -14.5q33 0 52.5 16t19.5 43t-16 42t-43 15h-48v44h45q25 0 40 14.5t15 37.5q0 26 -18 42t-47 16q-28 0 -46 -15t-25 -43l-52 12q10 43 43.5 68t80.5 25q50 0 82.5 -27.5t32.5 -68.5q0 -29 -15.5 -50t-42.5 -30
q32 -8 50 -30.5t18 -54.5q0 -45 -36 -74t-92 -29q-51 0 -84 24.5z" />
    <glyph glyph-name="acute" unicode="&#xb4;" 
d="M335 716h95l-124 -116h-65z" />
    <glyph glyph-name="uni00B5" unicode="&#xb5;" horiz-adv-x="561" 
d="M68 501h73v-302q0 -67 37.5 -105.5t102.5 -38.5q45 0 80 20t58 58v368h74v-501h-74v58q-59 -68 -157 -68q-72 0 -121 37v-231h-73v705z" />
    <glyph glyph-name="paragraph" unicode="&#xb6;" horiz-adv-x="661" 
d="M323 289h-59q-65 0 -115 26t-78 72.5t-28 106.5q0 61 28 107.5t78 72.5t114 26h316v-700h-69v289h-119v-289h-68v289zM155 391q41 -39 109 -39h59v285h-59q-67 0 -108.5 -39t-41.5 -103q0 -65 41 -104zM510 352v285h-119v-285h119z" />
    <glyph glyph-name="periodcentered" unicode="&#xb7;" horiz-adv-x="260" 
d="M94 246q-15 15 -15 36t15 36t36 15t36 -15t15 -36t-15 -36t-36 -15t-36 15z" />
    <glyph glyph-name="cedilla" unicode="&#xb8;" horiz-adv-x="10" 
d="M182 -155l46 8q13 -40 61 -40q28 0 44 13t16 36q0 22 -18.5 34.5t-50.5 12.5h-29l26 91h43l-15 -55q44 -2 69.5 -24t25.5 -58q0 -42 -30.5 -66.5t-81.5 -24.5q-84 0 -106 73z" />
    <glyph glyph-name="uni00B9" unicode="&#xb9;" horiz-adv-x="175" 
d="M88 646l-63 -26v45l82 35h33v-350h-52v296z" />
    <glyph glyph-name="ordmasculine" unicode="&#xba;" horiz-adv-x="474" 
d="M139.5 343.5q-44.5 26.5 -70.5 71.5t-26 99t26 99t70.5 71.5t97.5 26.5t97.5 -26.5t70.5 -71.5t26 -99t-26 -99t-70.5 -71.5t-97.5 -26.5t-97.5 26.5zM122.5 442.5q17.5 -32.5 48 -51.5t66.5 -19t66.5 19t48 51.5t17.5 71.5t-17.5 71.5t-48 51.5t-66.5 19t-66.5 -19
t-48 -51.5t-17.5 -71.5t17.5 -71.5z" />
    <glyph glyph-name="guillemotright" unicode="&#xbb;" horiz-adv-x="608" 
d="M572 250l-234 -250h-79l228 248l-231 253h82zM129 501l234 -251l-234 -250h-79l228 248l-231 253h82z" />
    <glyph glyph-name="onequarter" unicode="&#xbc;" horiz-adv-x="613" 
d="M497 88h-198v42l192 220h58v-218h43v-44h-43v-88h-52v88zM25 665l82 35h33v-350h-52v296l-63 -26v45zM436 701h62l-394 -700h-61zM497 132v157l-137 -157h137z" />
    <glyph glyph-name="onehalf" unicode="&#xbd;" horiz-adv-x="647" 
d="M88 646l-63 -26v45l82 35h33v-350h-52v296zM436 700h62l-394 -700h-61zM384 33q0 43 17.5 73t56.5 52l66 37q23 14 33.5 27t10.5 31q0 24 -17 39.5t-44 15.5q-54 0 -71 -58l-52 13q11 43 43.5 67.5t79.5 24.5q52 0 82.5 -28t30.5 -76q0 -31 -15.5 -53.5t-48.5 -41.5
l-64 -35q-28 -16 -38.5 -32.5t-12.5 -43.5h182v-45h-239v33z" />
    <glyph glyph-name="threequarters" unicode="&#xbe;" horiz-adv-x="707" 
d="M591 88h-198v42l192 220h58v-218h43v-44h-43v-88h-52v88zM87 449q8 -32 26.5 -46.5t50.5 -14.5q33 0 52.5 16t19.5 43t-16 42t-43 15h-48v44h45q25 0 40 14.5t15 37.5q0 26 -18 42t-47 16q-28 0 -46 -15t-25 -43l-52 12q10 43 43.5 68t80.5 25q50 0 82.5 -27.5
t32.5 -68.5q0 -29 -15.5 -50t-42.5 -30q32 -8 50 -30.5t18 -54.5q0 -45 -36 -74t-92 -29q-51 0 -84 24.5t-44 70.5zM530 700h62l-394 -700h-61zM591 132v157l-137 -157h137z" />
    <glyph glyph-name="questiondown" unicode="&#xbf;" horiz-adv-x="516" 
d="M324 275q0 -58 -19 -95.5t-64 -69.5l-44 -31q-43 -30 -59.5 -56.5t-16.5 -61.5q0 -46 39.5 -76.5t98.5 -30.5q66 0 106.5 28t58.5 85l72 -19q-19 -76 -82 -119t-155 -43q-60 0 -108 22.5t-75.5 62t-27.5 89.5q0 52 24 88.5t90 83.5l34 24q37 26 52 59.5t11 83.5h64z
M255 488q15 15 36 15t36 -15t15 -36t-15 -36t-36 -15t-36 15t-15 36t15 36z" />
    <glyph glyph-name="Agrave" unicode="&#xc0;" horiz-adv-x="689" 
d="M299 700h93l288 -700h-84l-88 220h-330l-89 -220h-80zM481 286l-138 343l-138 -343h276zM212 915h96l92 -116h-65z" />
    <glyph glyph-name="Aacute" unicode="&#xc1;" horiz-adv-x="689" 
d="M299 700h93l288 -700h-84l-88 220h-330l-89 -220h-80zM481 286l-138 343l-138 -343h276zM375 915h95l-124 -116h-65z" />
    <glyph glyph-name="Acircumflex" unicode="&#xc2;" horiz-adv-x="689" 
d="M299 700h93l288 -700h-84l-88 220h-330l-89 -220h-80zM481 286l-138 343l-138 -343h276zM344 875l-83 -80h-60l104 121h80l104 -121h-61z" />
    <glyph glyph-name="Atilde" unicode="&#xc3;" horiz-adv-x="689" 
d="M299 700h93l288 -700h-84l-88 220h-330l-89 -220h-80zM481 286l-138 343l-138 -343h276zM211 879.5q23 24.5 60 24.5q19 0 36 -7t46 -23q21 -12 35.5 -18.5t27.5 -6.5q17 0 27.5 13t17.5 44l51 -10q-21 -100 -94 -100q-19 0 -37.5 7.5t-43.5 22.5q-23 13 -37 19t-27 6
q-18 0 -28 -13t-16 -44l-52 10q11 51 34 75.5z" />
    <glyph glyph-name="Adieresis" unicode="&#xc4;" horiz-adv-x="689" 
d="M299 700h93l288 -700h-84l-88 220h-330l-89 -220h-80zM481 286l-138 343l-138 -343h276zM222.5 824q-14.5 14 -14.5 34t14.5 34t35.5 14t35.5 -14t14.5 -34t-14.5 -34t-35.5 -14t-35.5 14zM396.5 892q14.5 14 35.5 14t35.5 -14t14.5 -34t-14.5 -34t-35.5 -14t-35.5 14
t-14.5 34t14.5 34z" />
    <glyph glyph-name="Aring" unicode="&#xc5;" horiz-adv-x="689" 
d="M299 700h93l288 -700h-84l-88 220h-330l-89 -220h-80zM481 286l-138 343l-138 -343h276zM266 814.5q-33 32.5 -33 78.5t33 78.5t79 32.5t79 -32.5t33 -78.5t-33 -78.5t-79 -32.5t-79 32.5zM295.5 843.5q20.5 -20.5 49.5 -20.5t49.5 20.5t20.5 49.5t-20.5 49.5t-49.5 20.5
t-49.5 -20.5t-20.5 -49.5t20.5 -49.5z" />
    <glyph glyph-name="AE" unicode="&#xc6;" horiz-adv-x="963" 
d="M300 700h624v-68h-501l99 -245h261v-67h-234l101 -252h274v-68h-328l-88 220h-330l-89 -220h-80zM481 286l-137 342l-139 -342h276z" />
    <glyph glyph-name="Ccedilla" unicode="&#xc7;" horiz-adv-x="768" 
d="M291 -155l46 8q13 -40 61 -40q28 0 44 13t16 36q0 22 -18.5 34.5t-50.5 12.5h-29l23 82q-97 5 -173 52.5t-118.5 127.5t-42.5 179q0 104 46 186t127.5 128.5t184.5 46.5q80 0 147 -28.5t111.5 -81.5t59.5 -123l-73 -16q-19 82 -84.5 130.5t-161.5 48.5q-84 0 -147 -37
t-97 -103.5t-34 -150.5t34.5 -150t97.5 -103t147 -37q95 0 160.5 48.5t84.5 130.5l73 -16q-22 -102 -103 -165t-196 -68l-12 -45q44 -2 69.5 -24t25.5 -58q0 -42 -30.5 -66.5t-81.5 -24.5q-84 0 -106 73z" />
    <glyph glyph-name="Egrave" unicode="&#xc8;" horiz-adv-x="626" 
d="M82 700h501v-68h-424v-245h277v-67h-277v-252h428v-68h-505v700zM212 915h96l92 -116h-65z" />
    <glyph glyph-name="Eacute" unicode="&#xc9;" horiz-adv-x="626" 
d="M82 700h501v-68h-424v-245h277v-67h-277v-252h428v-68h-505v700zM375 915h95l-124 -116h-65z" />
    <glyph glyph-name="Ecircumflex" unicode="&#xca;" horiz-adv-x="626" 
d="M82 700h501v-68h-424v-245h277v-67h-277v-252h428v-68h-505v700zM344 875l-83 -80h-60l104 121h80l104 -121h-61z" />
    <glyph glyph-name="Edieresis" unicode="&#xcb;" horiz-adv-x="626" 
d="M82 700h501v-68h-424v-245h277v-67h-277v-252h428v-68h-505v700zM222.5 824q-14.5 14 -14.5 34t14.5 34t35.5 14t35.5 -14t14.5 -34t-14.5 -34t-35.5 -14t-35.5 14zM396.5 892q14.5 14 35.5 14t35.5 -14t14.5 -34t-14.5 -34t-35.5 -14t-35.5 14t-14.5 34t14.5 34z" />
    <glyph glyph-name="Igrave" unicode="&#xcc;" horiz-adv-x="241" 
d="M82 700h77v-700h-77v700zM-12 915h96l92 -116h-65z" />
    <glyph glyph-name="Iacute" unicode="&#xcd;" horiz-adv-x="241" 
d="M82 700h77v-700h-77v700zM151 915h95l-124 -116h-65z" />
    <glyph glyph-name="Icircumflex" unicode="&#xce;" horiz-adv-x="241" 
d="M82 700h77v-700h-77v700zM120 875l-83 -80h-60l104 121h80l104 -121h-61z" />
    <glyph glyph-name="Idieresis" unicode="&#xcf;" horiz-adv-x="241" 
d="M82 700h77v-700h-77v700zM-1.5 824q-14.5 14 -14.5 34t14.5 34t35.5 14t35.5 -14t14.5 -34t-14.5 -34t-35.5 -14t-35.5 14zM172.5 892q14.5 14 35.5 14t35.5 -14t14.5 -34t-14.5 -34t-35.5 -14t-35.5 14t-14.5 34t14.5 34z" />
    <glyph glyph-name="Eth" unicode="&#xd0;" horiz-adv-x="754" 
d="M105 317h-87v66h87v317h231q105 0 189 -45t131.5 -125t47.5 -180t-47.5 -180t-131 -125t-189.5 -45h-231v317zM340 70q80 0 145.5 37t103 101t37.5 142t-37.5 142t-103 101t-145.5 37h-158v-247h189v-66h-189v-247h158z" />
    <glyph glyph-name="Ntilde" unicode="&#xd1;" horiz-adv-x="735" 
d="M82 700h77l421 -568v568h73v-700h-68l-430 583v-583h-73v700zM233 879.5q23 24.5 60 24.5q19 0 36 -7t46 -23q21 -12 35.5 -18.5t27.5 -6.5q17 0 27.5 13t17.5 44l51 -10q-21 -100 -94 -100q-19 0 -37.5 7.5t-43.5 22.5q-23 13 -37 19t-27 6q-18 0 -28 -13t-16 -44
l-52 10q11 51 34 75.5z" />
    <glyph glyph-name="Ograve" unicode="&#xd2;" horiz-adv-x="819" 
d="M228 37q-83 48 -131 131t-48 182t48 182t131 131t182 48t181.5 -48t130.5 -131t48 -182t-48 -182t-130.5 -131t-181.5 -48t-182 48zM164.5 203.5q37.5 -66.5 102 -105t143.5 -38.5q78 0 142.5 38.5t102 105t37.5 146.5q0 81 -37.5 147.5t-102 104.5t-142.5 38
q-79 0 -143.5 -38t-102 -104.5t-37.5 -147.5q0 -80 37.5 -146.5zM277 915h96l92 -116h-65z" />
    <glyph glyph-name="Oacute" unicode="&#xd3;" horiz-adv-x="819" 
d="M228 37q-83 48 -131 131t-48 182t48 182t131 131t182 48t181.5 -48t130.5 -131t48 -182t-48 -182t-130.5 -131t-181.5 -48t-182 48zM164.5 203.5q37.5 -66.5 102 -105t143.5 -38.5q78 0 142.5 38.5t102 105t37.5 146.5q0 81 -37.5 147.5t-102 104.5t-142.5 38
q-79 0 -143.5 -38t-102 -104.5t-37.5 -147.5q0 -80 37.5 -146.5zM440 915h95l-124 -116h-65z" />
    <glyph glyph-name="Ocircumflex" unicode="&#xd4;" horiz-adv-x="819" 
d="M228 37q-83 48 -131 131t-48 182t48 182t131 131t182 48t181.5 -48t130.5 -131t48 -182t-48 -182t-130.5 -131t-181.5 -48t-182 48zM164.5 203.5q37.5 -66.5 102 -105t143.5 -38.5q78 0 142.5 38.5t102 105t37.5 146.5q0 81 -37.5 147.5t-102 104.5t-142.5 38
q-79 0 -143.5 -38t-102 -104.5t-37.5 -147.5q0 -80 37.5 -146.5zM409 875l-83 -80h-60l104 121h80l104 -121h-61z" />
    <glyph glyph-name="Otilde" unicode="&#xd5;" horiz-adv-x="819" 
d="M228 37q-83 48 -131 131t-48 182t48 182t131 131t182 48t181.5 -48t130.5 -131t48 -182t-48 -182t-130.5 -131t-181.5 -48t-182 48zM164.5 203.5q37.5 -66.5 102 -105t143.5 -38.5q78 0 142.5 38.5t102 105t37.5 146.5q0 81 -37.5 147.5t-102 104.5t-142.5 38
q-79 0 -143.5 -38t-102 -104.5t-37.5 -147.5q0 -80 37.5 -146.5zM276 879.5q23 24.5 60 24.5q19 0 36 -7t46 -23q21 -12 35.5 -18.5t27.5 -6.5q17 0 27.5 13t17.5 44l51 -10q-21 -100 -94 -100q-19 0 -37.5 7.5t-43.5 22.5q-23 13 -37 19t-27 6q-18 0 -28 -13t-16 -44
l-52 10q11 51 34 75.5z" />
    <glyph glyph-name="Odieresis" unicode="&#xd6;" horiz-adv-x="819" 
d="M228 37q-83 48 -131 131t-48 182t48 182t131 131t182 48t181.5 -48t130.5 -131t48 -182t-48 -182t-130.5 -131t-181.5 -48t-182 48zM164.5 203.5q37.5 -66.5 102 -105t143.5 -38.5q78 0 142.5 38.5t102 105t37.5 146.5q0 81 -37.5 147.5t-102 104.5t-142.5 38
q-79 0 -143.5 -38t-102 -104.5t-37.5 -147.5q0 -80 37.5 -146.5zM287.5 824q-14.5 14 -14.5 34t14.5 34t35.5 14t35.5 -14t14.5 -34t-14.5 -34t-35.5 -14t-35.5 14zM461.5 892q14.5 14 35.5 14t35.5 -14t14.5 -34t-14.5 -34t-35.5 -14t-35.5 14t-14.5 34t14.5 34z" />
    <glyph glyph-name="multiply" unicode="&#xd7;" 
d="M120 202l146 156l-147 158l38 41l148 -157l147 157l39 -40l-148 -157l148 -158l-40 -41l-147 157l-147 -156z" />
    <glyph glyph-name="Oslash" unicode="&#xd8;" horiz-adv-x="819" 
d="M201 54l-45 -54h-79l77 93q-50 50 -77.5 116.5t-27.5 140.5q0 99 48 182t131 131t182 48q112 0 204 -62l42 51h81l-75 -90q51 -51 79.5 -117.5t28.5 -142.5q0 -99 -48 -182t-130.5 -131t-181.5 -48q-115 0 -209 65zM146.5 241q19.5 -51 55.5 -90l365 442q-69 47 -157 47
q-79 0 -143.5 -38t-102 -104.5t-37.5 -147.5q0 -58 19.5 -109zM410 60q78 0 142.5 38.5t102 105t37.5 146.5q0 59 -20 111t-57 91l-367 -442q73 -50 162 -50z" />
    <glyph glyph-name="Ugrave" unicode="&#xd9;" horiz-adv-x="714" 
d="M203.5 26.5q-65.5 37.5 -100.5 106.5t-35 163v404h77v-404q0 -71 26 -124.5t74 -82.5t112 -29t112 29t74 82.5t26 124.5v404h77v-404q0 -93 -35.5 -162.5t-100.5 -107t-153 -37.5t-153.5 37.5zM224 915h96l92 -116h-65z" />
    <glyph glyph-name="Uacute" unicode="&#xda;" horiz-adv-x="714" 
d="M203.5 26.5q-65.5 37.5 -100.5 106.5t-35 163v404h77v-404q0 -71 26 -124.5t74 -82.5t112 -29t112 29t74 82.5t26 124.5v404h77v-404q0 -93 -35.5 -162.5t-100.5 -107t-153 -37.5t-153.5 37.5zM387 915h95l-124 -116h-65z" />
    <glyph glyph-name="Ucircumflex" unicode="&#xdb;" horiz-adv-x="714" 
d="M203.5 26.5q-65.5 37.5 -100.5 106.5t-35 163v404h77v-404q0 -71 26 -124.5t74 -82.5t112 -29t112 29t74 82.5t26 124.5v404h77v-404q0 -93 -35.5 -162.5t-100.5 -107t-153 -37.5t-153.5 37.5zM356 875l-83 -80h-60l104 121h80l104 -121h-61z" />
    <glyph glyph-name="Udieresis" unicode="&#xdc;" horiz-adv-x="714" 
d="M203.5 26.5q-65.5 37.5 -100.5 106.5t-35 163v404h77v-404q0 -71 26 -124.5t74 -82.5t112 -29t112 29t74 82.5t26 124.5v404h77v-404q0 -93 -35.5 -162.5t-100.5 -107t-153 -37.5t-153.5 37.5zM234.5 824q-14.5 14 -14.5 34t14.5 34t35.5 14t35.5 -14t14.5 -34t-14.5 -34
t-35.5 -14t-35.5 14zM408.5 892q14.5 14 35.5 14t35.5 -14t14.5 -34t-14.5 -34t-35.5 -14t-35.5 14t-14.5 34t14.5 34z" />
    <glyph glyph-name="Yacute" unicode="&#xdd;" horiz-adv-x="649" 
d="M286 285l-278 415h90l229 -347l228 347h87l-279 -418v-282h-77v285zM355 915h95l-124 -116h-65z" />
    <glyph glyph-name="Thorn" unicode="&#xde;" horiz-adv-x="647" 
d="M82 700h77v-141h229q61 0 110 -27t77 -75t28 -108q0 -58 -28 -105.5t-77 -74.5t-110 -27h-229v-142h-77v700zM380 209q62 0 103.5 40t41.5 100q0 40 -19 72.5t-52.5 50.5t-73.5 18h-221v-281h221z" />
    <glyph glyph-name="germandbls" unicode="&#xdf;" horiz-adv-x="638" 
d="M301 18q-53 29 -79 83l56 28q47 -80 150 -80q53 0 83.5 21.5t30.5 60.5q0 29 -19 48t-64 34l-80 26q-60 19 -84.5 43t-24.5 61q0 40 26 63.5t76 48.5q46 24 69 43.5t23 52.5q0 43 -42.5 70.5t-109.5 27.5q-83 0 -127 -45t-44 -130v-474h-73v472q0 113 64 176t178 63
q103 0 164.5 -42t61.5 -112q0 -39 -17.5 -66t-42 -43t-61.5 -34q-38 -18 -55.5 -31.5t-17.5 -33.5q0 -18 14 -29.5t54 -24.5l77 -26q66 -22 95 -54.5t29 -82.5q0 -65 -51 -104t-136 -39q-70 0 -123 29z" />
    <glyph glyph-name="agrave" unicode="&#xe0;" horiz-adv-x="526" 
d="M87.5 28q-46.5 38 -46.5 105t49 105t152 48q92 9 147 39q-2 57 -35 88.5t-92 31.5q-55 0 -92.5 -27.5t-50.5 -76.5l-67 18q17 71 73 111.5t138 40.5q92 0 145 -49.5t53 -135.5v-326h-72v75q-26 -40 -73 -62.5t-104 -22.5q-78 0 -124.5 38zM144.5 69q31.5 -21 83.5 -21
q44 0 81 18.5t58.5 50t21.5 70.5v82q-28 -14 -61 -23t-79 -14q-73 -9 -104.5 -33t-31.5 -66q0 -43 31.5 -64zM121 716h96l92 -116h-65z" />
    <glyph glyph-name="aacute" unicode="&#xe1;" horiz-adv-x="526" 
d="M87.5 28q-46.5 38 -46.5 105t49 105t152 48q92 9 147 39q-2 57 -35 88.5t-92 31.5q-55 0 -92.5 -27.5t-50.5 -76.5l-67 18q17 71 73 111.5t138 40.5q92 0 145 -49.5t53 -135.5v-326h-72v75q-26 -40 -73 -62.5t-104 -22.5q-78 0 -124.5 38zM144.5 69q31.5 -21 83.5 -21
q44 0 81 18.5t58.5 50t21.5 70.5v82q-28 -14 -61 -23t-79 -14q-73 -9 -104.5 -33t-31.5 -66q0 -43 31.5 -64zM284 716h95l-124 -116h-65z" />
    <glyph glyph-name="acircumflex" unicode="&#xe2;" horiz-adv-x="526" 
d="M87.5 28q-46.5 38 -46.5 105t49 105t152 48q92 9 147 39q-2 57 -35 88.5t-92 31.5q-55 0 -92.5 -27.5t-50.5 -76.5l-67 18q17 71 73 111.5t138 40.5q92 0 145 -49.5t53 -135.5v-326h-72v75q-26 -40 -73 -62.5t-104 -22.5q-78 0 -124.5 38zM144.5 69q31.5 -21 83.5 -21
q44 0 81 18.5t58.5 50t21.5 70.5v82q-28 -14 -61 -23t-79 -14q-73 -9 -104.5 -33t-31.5 -66q0 -43 31.5 -64zM253 676l-83 -80h-60l104 121h80l104 -121h-61z" />
    <glyph glyph-name="atilde" unicode="&#xe3;" horiz-adv-x="526" 
d="M87.5 28q-46.5 38 -46.5 105t49 105t152 48q92 9 147 39q-2 57 -35 88.5t-92 31.5q-55 0 -92.5 -27.5t-50.5 -76.5l-67 18q17 71 73 111.5t138 40.5q92 0 145 -49.5t53 -135.5v-326h-72v75q-26 -40 -73 -62.5t-104 -22.5q-78 0 -124.5 38zM144.5 69q31.5 -21 83.5 -21
q44 0 81 18.5t58.5 50t21.5 70.5v82q-28 -14 -61 -23t-79 -14q-73 -9 -104.5 -33t-31.5 -66q0 -43 31.5 -64zM120 680.5q23 24.5 60 24.5q19 0 36 -7t46 -23q21 -12 35.5 -18.5t27.5 -6.5q17 0 27.5 13t17.5 44l51 -10q-21 -100 -94 -100q-19 0 -37.5 7.5t-43.5 22.5
q-23 13 -37 19t-27 6q-18 0 -28 -13t-16 -44l-52 10q11 51 34 75.5z" />
    <glyph glyph-name="adieresis" unicode="&#xe4;" horiz-adv-x="526" 
d="M87.5 28q-46.5 38 -46.5 105t49 105t152 48q92 9 147 39q-2 57 -35 88.5t-92 31.5q-55 0 -92.5 -27.5t-50.5 -76.5l-67 18q17 71 73 111.5t138 40.5q92 0 145 -49.5t53 -135.5v-326h-72v75q-26 -40 -73 -62.5t-104 -22.5q-78 0 -124.5 38zM144.5 69q31.5 -21 83.5 -21
q44 0 81 18.5t58.5 50t21.5 70.5v82q-28 -14 -61 -23t-79 -14q-73 -9 -104.5 -33t-31.5 -66q0 -43 31.5 -64zM131.5 625q-14.5 14 -14.5 34t14.5 34t35.5 14t35.5 -14t14.5 -34t-14.5 -34t-35.5 -14t-35.5 14zM305.5 693q14.5 14 35.5 14t35.5 -14t14.5 -34t-14.5 -34
t-35.5 -14t-35.5 14t-14.5 34t14.5 34z" />
    <glyph glyph-name="aring" unicode="&#xe5;" horiz-adv-x="526" 
d="M87.5 28q-46.5 38 -46.5 105t49 105t152 48q92 9 147 39q-2 57 -35 88.5t-92 31.5q-55 0 -92.5 -27.5t-50.5 -76.5l-67 18q17 71 73 111.5t138 40.5q92 0 145 -49.5t53 -135.5v-326h-72v75q-26 -40 -73 -62.5t-104 -22.5q-78 0 -124.5 38zM144.5 69q31.5 -21 83.5 -21
q44 0 81 18.5t58.5 50t21.5 70.5v82q-28 -14 -61 -23t-79 -14q-73 -9 -104.5 -33t-31.5 -66q0 -43 31.5 -64zM175 615.5q-33 32.5 -33 78.5t33 78.5t79 32.5t79 -32.5t33 -78.5t-33 -78.5t-79 -32.5t-79 32.5zM204.5 644.5q20.5 -20.5 49.5 -20.5t49.5 20.5t20.5 49.5
t-20.5 49.5t-49.5 20.5t-49.5 -20.5t-20.5 -49.5t20.5 -49.5z" />
    <glyph glyph-name="ae" unicode="&#xe6;" horiz-adv-x="917" 
d="M506.5 25q-57.5 35 -87.5 97q-19 -58 -77 -95t-130 -37q-78 0 -124.5 38t-46.5 105t49 105t152 48q92 9 147 39v2q0 54 -33.5 86t-93.5 32q-55 0 -92.5 -27.5t-50.5 -76.5l-67 18q17 71 73.5 111.5t138.5 40.5q64 0 109.5 -25.5t66.5 -71.5q34 46 84.5 71.5t113.5 25.5
q68 0 121 -32t83 -89t30 -129v-25h-411q1 -50 25.5 -91.5t65 -65.5t89.5 -24q50 0 94 26.5t69 72.5l60 -30q-34 -66 -93 -100t-132 -34q-75 0 -132.5 35zM144.5 69q31.5 -21 83.5 -21q44 0 81 18.5t58.5 50t21.5 70.5v82q-28 -14 -61 -23t-79 -14q-73 -9 -104.5 -33
t-31.5 -66q0 -43 31.5 -64zM798 294q-8 68 -51.5 110t-108.5 42q-69 0 -118 -43t-57 -109h335z" />
    <glyph glyph-name="ccedilla" unicode="&#xe7;" horiz-adv-x="551" 
d="M183 -155l46 8q13 -40 61 -40q28 0 44 13t16 36q0 22 -18.5 34.5t-50.5 12.5h-29l23 82q-66 6 -119 41t-82.5 92t-29.5 126q0 74 33 133.5t92 93.5t132 34q83 0 142.5 -42.5t77.5 -112.5l-69 -18q-16 51 -55.5 79.5t-95.5 28.5q-53 0 -95 -25.5t-65.5 -70t-23.5 -100.5
q0 -55 23.5 -99.5t65.5 -70t95 -25.5q56 0 95.5 28.5t53.5 78.5l71 -17q-17 -67 -71.5 -108.5t-131.5 -45.5l-12 -46q44 -2 69.5 -24t25.5 -58q0 -42 -30.5 -66.5t-81.5 -24.5q-84 0 -106 73z" />
    <glyph glyph-name="egrave" unicode="&#xe8;" horiz-adv-x="574" 
d="M166 23.5q-57 33.5 -89 93t-32 134.5q0 74 32 133t89.5 93t128.5 34q68 0 121 -32t83 -89t30 -129v-25h-411q1 -50 25 -91.5t64.5 -65.5t88.5 -24q52 0 96 26.5t69 72.5l60 -30q-34 -66 -93 -100t-132 -34t-130 33.5zM455 294q-8 68 -51.5 110t-108.5 42q-69 0 -118 -43
t-57 -109h335zM158 716h96l92 -116h-65z" />
    <glyph glyph-name="eacute" unicode="&#xe9;" horiz-adv-x="574" 
d="M166 23.5q-57 33.5 -89 93t-32 134.5q0 74 32 133t89.5 93t128.5 34q68 0 121 -32t83 -89t30 -129v-25h-411q1 -50 25 -91.5t64.5 -65.5t88.5 -24q52 0 96 26.5t69 72.5l60 -30q-34 -66 -93 -100t-132 -34t-130 33.5zM455 294q-8 68 -51.5 110t-108.5 42q-69 0 -118 -43
t-57 -109h335zM321 716h95l-124 -116h-65z" />
    <glyph glyph-name="ecircumflex" unicode="&#xea;" horiz-adv-x="574" 
d="M166 23.5q-57 33.5 -89 93t-32 134.5q0 74 32 133t89.5 93t128.5 34q68 0 121 -32t83 -89t30 -129v-25h-411q1 -50 25 -91.5t64.5 -65.5t88.5 -24q52 0 96 26.5t69 72.5l60 -30q-34 -66 -93 -100t-132 -34t-130 33.5zM455 294q-8 68 -51.5 110t-108.5 42q-69 0 -118 -43
t-57 -109h335zM290 676l-83 -80h-60l104 121h80l104 -121h-61z" />
    <glyph glyph-name="edieresis" unicode="&#xeb;" horiz-adv-x="574" 
d="M166 23.5q-57 33.5 -89 93t-32 134.5q0 74 32 133t89.5 93t128.5 34q68 0 121 -32t83 -89t30 -129v-25h-411q1 -50 25 -91.5t64.5 -65.5t88.5 -24q52 0 96 26.5t69 72.5l60 -30q-34 -66 -93 -100t-132 -34t-130 33.5zM455 294q-8 68 -51.5 110t-108.5 42q-69 0 -118 -43
t-57 -109h335zM168.5 625q-14.5 14 -14.5 34t14.5 34t35.5 14t35.5 -14t14.5 -34t-14.5 -34t-35.5 -14t-35.5 14zM342.5 693q14.5 14 35.5 14t35.5 -14t14.5 -34t-14.5 -34t-35.5 -14t-35.5 14t-14.5 34t14.5 34z" />
    <glyph glyph-name="igrave" unicode="&#xec;" horiz-adv-x="210" 
d="M68 501h74v-501h-74v501zM-28 716h96l92 -116h-65z" />
    <glyph glyph-name="iacute" unicode="&#xed;" horiz-adv-x="210" 
d="M68 501h74v-501h-74v501zM135 716h95l-124 -116h-65z" />
    <glyph glyph-name="icircumflex" unicode="&#xee;" horiz-adv-x="210" 
d="M68 501h74v-501h-74v501zM104 676l-83 -80h-60l104 121h80l104 -121h-61z" />
    <glyph glyph-name="idieresis" unicode="&#xef;" horiz-adv-x="210" 
d="M68 501h74v-501h-74v501zM-17.5 625q-14.5 14 -14.5 34t14.5 34t35.5 14t35.5 -14t14.5 -34t-14.5 -34t-35.5 -14t-35.5 14zM156.5 693q14.5 14 35.5 14t35.5 -14t14.5 -34t-14.5 -34t-35.5 -14t-35.5 14t-14.5 34t14.5 34z" />
    <glyph glyph-name="eth" unicode="&#xf0;" horiz-adv-x="611" 
d="M169 24q-57 34 -90 92.5t-33 129.5q0 67 32.5 123t88.5 88.5t123 32.5q61 0 109.5 -28t77.5 -78q-21 125 -107 208l-102 -64l-31 46l87 54q-45 32 -107 49l30 54q79 -25 136 -67l110 69l31 -46l-97 -60q62 -60 94 -145t32 -190q0 -90 -32 -158.5t-90.5 -106t-135.5 -37.5
q-69 0 -126 34zM141.5 148q23.5 -42 64.5 -66.5t91 -24.5q49 0 90 24.5t64.5 66.5t23.5 94q0 51 -23.5 93t-64.5 66.5t-90 24.5q-50 0 -91 -24.5t-64.5 -66.5t-23.5 -93q0 -52 23.5 -94z" />
    <glyph glyph-name="ntilde" unicode="&#xf1;" horiz-adv-x="559" 
d="M68 501h74v-59q59 69 158 69q56 0 100 -24.5t68.5 -68.5t24.5 -101v-317h-73v302q0 67 -37.5 105.5t-102.5 38.5q-45 0 -80 -20t-58 -57v-369h-74v501zM147 680.5q23 24.5 60 24.5q19 0 36 -7t46 -23q21 -12 35.5 -18.5t27.5 -6.5q17 0 27.5 13t17.5 44l51 -10
q-21 -100 -94 -100q-19 0 -37.5 7.5t-43.5 22.5q-23 13 -37 19t-27 6q-18 0 -28 -13t-16 -44l-52 10q11 51 34 75.5z" />
    <glyph glyph-name="ograve" unicode="&#xf2;" horiz-adv-x="602" 
d="M172 24.5q-59 34.5 -93 94t-34 131.5t34 131.5t93 94t129 34.5t129 -34.5t93 -94t34 -131.5t-34 -131.5t-93 -94t-129 -34.5t-129 34.5zM142.5 151.5q24.5 -44.5 66.5 -70t92 -25.5t92 25.5t66.5 70t24.5 98.5t-24.5 98.5t-66.5 70t-92 25.5t-92 -25.5t-66.5 -70
t-24.5 -98.5t24.5 -98.5zM168 716h96l92 -116h-65z" />
    <glyph glyph-name="oacute" unicode="&#xf3;" horiz-adv-x="602" 
d="M172 24.5q-59 34.5 -93 94t-34 131.5t34 131.5t93 94t129 34.5t129 -34.5t93 -94t34 -131.5t-34 -131.5t-93 -94t-129 -34.5t-129 34.5zM142.5 151.5q24.5 -44.5 66.5 -70t92 -25.5t92 25.5t66.5 70t24.5 98.5t-24.5 98.5t-66.5 70t-92 25.5t-92 -25.5t-66.5 -70
t-24.5 -98.5t24.5 -98.5zM331 716h95l-124 -116h-65z" />
    <glyph glyph-name="ocircumflex" unicode="&#xf4;" horiz-adv-x="602" 
d="M172 24.5q-59 34.5 -93 94t-34 131.5t34 131.5t93 94t129 34.5t129 -34.5t93 -94t34 -131.5t-34 -131.5t-93 -94t-129 -34.5t-129 34.5zM142.5 151.5q24.5 -44.5 66.5 -70t92 -25.5t92 25.5t66.5 70t24.5 98.5t-24.5 98.5t-66.5 70t-92 25.5t-92 -25.5t-66.5 -70
t-24.5 -98.5t24.5 -98.5zM300 676l-83 -80h-60l104 121h80l104 -121h-61z" />
    <glyph glyph-name="otilde" unicode="&#xf5;" horiz-adv-x="602" 
d="M172 24.5q-59 34.5 -93 94t-34 131.5t34 131.5t93 94t129 34.5t129 -34.5t93 -94t34 -131.5t-34 -131.5t-93 -94t-129 -34.5t-129 34.5zM142.5 151.5q24.5 -44.5 66.5 -70t92 -25.5t92 25.5t66.5 70t24.5 98.5t-24.5 98.5t-66.5 70t-92 25.5t-92 -25.5t-66.5 -70
t-24.5 -98.5t24.5 -98.5zM167 680.5q23 24.5 60 24.5q19 0 36 -7t46 -23q21 -12 35.5 -18.5t27.5 -6.5q17 0 27.5 13t17.5 44l51 -10q-21 -100 -94 -100q-19 0 -37.5 7.5t-43.5 22.5q-23 13 -37 19t-27 6q-18 0 -28 -13t-16 -44l-52 10q11 51 34 75.5z" />
    <glyph glyph-name="odieresis" unicode="&#xf6;" horiz-adv-x="602" 
d="M172 24.5q-59 34.5 -93 94t-34 131.5t34 131.5t93 94t129 34.5t129 -34.5t93 -94t34 -131.5t-34 -131.5t-93 -94t-129 -34.5t-129 34.5zM142.5 151.5q24.5 -44.5 66.5 -70t92 -25.5t92 25.5t66.5 70t24.5 98.5t-24.5 98.5t-66.5 70t-92 25.5t-92 -25.5t-66.5 -70
t-24.5 -98.5t24.5 -98.5zM178.5 625q-14.5 14 -14.5 34t14.5 34t35.5 14t35.5 -14t14.5 -34t-14.5 -34t-35.5 -14t-35.5 14zM352.5 693q14.5 14 35.5 14t35.5 -14t14.5 -34t-14.5 -34t-35.5 -14t-35.5 14t-14.5 34t14.5 34z" />
    <glyph glyph-name="divide" unicode="&#xf7;" 
d="M107 388h396v-60h-396v60zM267.5 211.5q15.5 15.5 37.5 15.5t37.5 -15.5t15.5 -37.5t-15.5 -37.5t-37.5 -15.5t-37.5 15.5t-15.5 37.5t15.5 37.5zM267.5 579.5q15.5 15.5 37.5 15.5t37.5 -15.5t15.5 -37.5t-15.5 -37.5t-37.5 -15.5t-37.5 15.5t-15.5 37.5t15.5 37.5z" />
    <glyph glyph-name="oslash" unicode="&#xf8;" horiz-adv-x="602" 
d="M154 36l-30 -36h-66l58 69q-34 36 -52.5 82.5t-18.5 99.5q0 72 34 131.5t93 94t129 34.5q79 0 145 -45l30 35h66l-57 -68q34 -36 52.5 -83t18.5 -99q0 -72 -34 -132t-92.5 -94.5t-128.5 -34.5q-82 0 -147 46zM161 124l242 289q-46 32 -102 32q-50 0 -92 -25.5t-66.5 -70
t-24.5 -98.5q0 -73 43 -127zM301 56q50 0 92 26t66 70.5t24 98.5q0 73 -43 127l-242 -289q46 -33 103 -33z" />
    <glyph glyph-name="ugrave" unicode="&#xf9;" horiz-adv-x="559" 
d="M159 14.5q-44 24.5 -68.5 68.5t-24.5 101v317h73v-302q0 -67 37.5 -105.5t102.5 -38.5q45 0 80 20t58 58v368h74v-501h-74v58q-59 -68 -157 -68q-57 0 -101 24.5zM146 716h96l92 -116h-65z" />
    <glyph glyph-name="uacute" unicode="&#xfa;" horiz-adv-x="559" 
d="M159 14.5q-44 24.5 -68.5 68.5t-24.5 101v317h73v-302q0 -67 37.5 -105.5t102.5 -38.5q45 0 80 20t58 58v368h74v-501h-74v58q-59 -68 -157 -68q-57 0 -101 24.5zM309 716h95l-124 -116h-65z" />
    <glyph glyph-name="ucircumflex" unicode="&#xfb;" horiz-adv-x="559" 
d="M159 14.5q-44 24.5 -68.5 68.5t-24.5 101v317h73v-302q0 -67 37.5 -105.5t102.5 -38.5q45 0 80 20t58 58v368h74v-501h-74v58q-59 -68 -157 -68q-57 0 -101 24.5zM278 676l-83 -80h-60l104 121h80l104 -121h-61z" />
    <glyph glyph-name="udieresis" unicode="&#xfc;" horiz-adv-x="559" 
d="M159 14.5q-44 24.5 -68.5 68.5t-24.5 101v317h73v-302q0 -67 37.5 -105.5t102.5 -38.5q45 0 80 20t58 58v368h74v-501h-74v58q-59 -68 -157 -68q-57 0 -101 24.5zM156.5 625q-14.5 14 -14.5 34t14.5 34t35.5 14t35.5 -14t14.5 -34t-14.5 -34t-35.5 -14t-35.5 14z
M330.5 693q14.5 14 35.5 14t35.5 -14t14.5 -34t-14.5 -34t-35.5 -14t-35.5 14t-14.5 34t14.5 34z" />
    <glyph glyph-name="yacute" unicode="&#xfd;" horiz-adv-x="520" 
d="M18 -193l26 59q21 -13 50 -13q30 0 51 19.5t39 59.5l30 69l-204 500h82l162 -411l175 411h80l-250 -579q-32 -73 -68.5 -104.5t-92.5 -31.5q-49 0 -80 21zM285 716h95l-124 -116h-65z" />
    <glyph glyph-name="thorn" unicode="&#xfe;" horiz-adv-x="601" 
d="M68 700l74 17v-269q64 61 161 61q70 0 127.5 -34t91 -93.5t33.5 -130.5q0 -72 -33.5 -131.5t-91.5 -93.5t-128 -34q-44 0 -85 15t-75 43v-254h-74v904zM209 75.5q41 -18.5 87 -18.5q52 0 94.5 25.5t67 69.5t24.5 98t-24.5 98.5t-67 70t-94.5 25.5q-47 0 -87.5 -18.5
t-66.5 -51.5v-248q26 -32 67 -50.5z" />
    <glyph glyph-name="ydieresis" unicode="&#xff;" horiz-adv-x="520" 
d="M18 -193l26 59q21 -13 50 -13q30 0 51 19.5t39 59.5l30 69l-204 500h82l162 -411l175 411h80l-250 -579q-32 -73 -68.5 -104.5t-92.5 -31.5q-49 0 -80 21zM132.5 625q-14.5 14 -14.5 34t14.5 34t35.5 14t35.5 -14t14.5 -34t-14.5 -34t-35.5 -14t-35.5 14zM306.5 693
q14.5 14 35.5 14t35.5 -14t14.5 -34t-14.5 -34t-35.5 -14t-35.5 14t-14.5 34t14.5 34z" />
    <glyph glyph-name="Amacron" unicode="&#x100;" horiz-adv-x="689" 
d="M299 700h93l288 -700h-84l-88 220h-330l-89 -220h-80zM481 286l-138 343l-138 -343h276zM203 873h284v-53h-284v53z" />
    <glyph glyph-name="amacron" unicode="&#x101;" horiz-adv-x="526" 
d="M87.5 28q-46.5 38 -46.5 105t49 105t152 48q92 9 147 39q-2 57 -35 88.5t-92 31.5q-55 0 -92.5 -27.5t-50.5 -76.5l-67 18q17 71 73 111.5t138 40.5q92 0 145 -49.5t53 -135.5v-326h-72v75q-26 -40 -73 -62.5t-104 -22.5q-78 0 -124.5 38zM144.5 69q31.5 -21 83.5 -21
q44 0 81 18.5t58.5 50t21.5 70.5v82q-28 -14 -61 -23t-79 -14q-73 -9 -104.5 -33t-31.5 -66q0 -43 31.5 -64zM112 674h284v-53h-284v53z" />
    <glyph glyph-name="Abreve" unicode="&#x102;" horiz-adv-x="689" 
d="M299 700h93l288 -700h-84l-88 220h-330l-89 -220h-80zM481 286l-138 343l-138 -343h276zM244.5 823.5q-40.5 32.5 -53.5 90.5l52 13q21 -87 102 -87q38 0 64.5 22t37.5 65l52 -13q-14 -58 -54.5 -90.5t-99.5 -32.5q-60 0 -100.5 32.5z" />
    <glyph glyph-name="abreve" unicode="&#x103;" horiz-adv-x="526" 
d="M87.5 28q-46.5 38 -46.5 105t49 105t152 48q92 9 147 39q-2 57 -35 88.5t-92 31.5q-55 0 -92.5 -27.5t-50.5 -76.5l-67 18q17 71 73 111.5t138 40.5q92 0 145 -49.5t53 -135.5v-326h-72v75q-26 -40 -73 -62.5t-104 -22.5q-78 0 -124.5 38zM144.5 69q31.5 -21 83.5 -21
q44 0 81 18.5t58.5 50t21.5 70.5v82q-28 -14 -61 -23t-79 -14q-73 -9 -104.5 -33t-31.5 -66q0 -43 31.5 -64zM153.5 624.5q-40.5 32.5 -53.5 90.5l52 13q21 -87 102 -87q38 0 64.5 22t37.5 65l52 -13q-14 -58 -54.5 -90.5t-99.5 -32.5q-60 0 -100.5 32.5z" />
    <glyph glyph-name="Aogonek" unicode="&#x104;" horiz-adv-x="689" 
d="M299 700h93l288 -700q-55 -35 -80.5 -64.5t-25.5 -58.5q0 -25 15 -38.5t43 -13.5t48 14l16 -39q-31 -21 -75 -21t-71 23.5t-27 62.5q0 35 23.5 67t75.5 68h-26l-88 220h-330l-89 -220h-80zM481 286l-138 343l-138 -343h276z" />
    <glyph glyph-name="aogonek" unicode="&#x105;" horiz-adv-x="526" 
d="M87.5 28q-46.5 38 -46.5 105t49 105t152 48q92 9 147 39q-2 57 -35 88.5t-92 31.5q-55 0 -92.5 -27.5t-50.5 -76.5l-67 18q17 71 73 111.5t138 40.5q92 0 145 -49.5t53 -135.5v-326h-1q-55 -35 -80.5 -64.5t-25.5 -58.5q0 -25 15 -38.5t43 -13.5t48 14l16 -39
q-31 -21 -75 -21t-71 23.5t-27 62.5q0 35 23.5 67t75.5 68h-13v75q-26 -40 -73 -62.5t-104 -22.5q-78 0 -124.5 38zM144.5 69q31.5 -21 83.5 -21q44 0 81 18.5t58.5 50t21.5 70.5v82q-28 -14 -61 -23t-79 -14q-73 -9 -104.5 -33t-31.5 -66q0 -43 31.5 -64z" />
    <glyph glyph-name="Cacute" unicode="&#x106;" horiz-adv-x="768" 
d="M222.5 36.5q-81.5 46.5 -127.5 128.5t-46 185q0 104 46 186t127.5 128.5t184.5 46.5q80 0 147 -28.5t111.5 -81.5t59.5 -123l-73 -16q-19 82 -84.5 130.5t-161.5 48.5q-84 0 -147 -37t-97 -103.5t-34 -150.5t34.5 -150t97.5 -103t147 -37q95 0 160.5 48.5t84.5 130.5
l73 -16q-15 -70 -59.5 -123t-111.5 -81.5t-147 -28.5q-103 0 -184.5 46.5zM445 915h95l-124 -116h-65z" />
    <glyph glyph-name="cacute" unicode="&#x107;" horiz-adv-x="551" 
d="M169.5 24q-58.5 34 -92 93.5t-33.5 132.5q0 74 33 133.5t92 93.5t132 34q83 0 142.5 -42.5t77.5 -112.5l-69 -18q-16 51 -55.5 79.5t-95.5 28.5q-53 0 -95 -25.5t-65.5 -70t-23.5 -100.5q0 -55 23.5 -99.5t65.5 -70t95 -25.5q56 0 95.5 28.5t53.5 78.5l71 -17
q-18 -71 -77.5 -113t-142.5 -42q-73 0 -131.5 34zM326 716h95l-124 -116h-65z" />
    <glyph glyph-name="Ccircumflex" unicode="&#x108;" horiz-adv-x="768" 
d="M222.5 36.5q-81.5 46.5 -127.5 128.5t-46 185q0 104 46 186t127.5 128.5t184.5 46.5q80 0 147 -28.5t111.5 -81.5t59.5 -123l-73 -16q-19 82 -84.5 130.5t-161.5 48.5q-84 0 -147 -37t-97 -103.5t-34 -150.5t34.5 -150t97.5 -103t147 -37q95 0 160.5 48.5t84.5 130.5
l73 -16q-15 -70 -59.5 -123t-111.5 -81.5t-147 -28.5q-103 0 -184.5 46.5zM414 875l-83 -80h-60l104 121h80l104 -121h-61z" />
    <glyph glyph-name="ccircumflex" unicode="&#x109;" horiz-adv-x="551" 
d="M169.5 24q-58.5 34 -92 93.5t-33.5 132.5q0 74 33 133.5t92 93.5t132 34q83 0 142.5 -42.5t77.5 -112.5l-69 -18q-16 51 -55.5 79.5t-95.5 28.5q-53 0 -95 -25.5t-65.5 -70t-23.5 -100.5q0 -55 23.5 -99.5t65.5 -70t95 -25.5q56 0 95.5 28.5t53.5 78.5l71 -17
q-18 -71 -77.5 -113t-142.5 -42q-73 0 -131.5 34zM295 676l-83 -80h-60l104 121h80l104 -121h-61z" />
    <glyph glyph-name="Cdotaccent" unicode="&#x10a;" horiz-adv-x="768" 
d="M222.5 36.5q-81.5 46.5 -127.5 128.5t-46 185q0 104 46 186t127.5 128.5t184.5 46.5q80 0 147 -28.5t111.5 -81.5t59.5 -123l-73 -16q-19 82 -84.5 130.5t-161.5 48.5q-84 0 -147 -37t-97 -103.5t-34 -150.5t34.5 -150t97.5 -103t147 -37q95 0 160.5 48.5t84.5 130.5
l73 -16q-15 -70 -59.5 -123t-111.5 -81.5t-147 -28.5q-103 0 -184.5 46.5zM380 811q-15 15 -15 35q0 21 15 35.5t35 14.5q21 0 35.5 -14.5t14.5 -35.5q0 -20 -14.5 -35t-35.5 -15q-20 0 -35 15z" />
    <glyph glyph-name="cdotaccent" unicode="&#x10b;" horiz-adv-x="551" 
d="M169.5 24q-58.5 34 -92 93.5t-33.5 132.5q0 74 33 133.5t92 93.5t132 34q83 0 142.5 -42.5t77.5 -112.5l-69 -18q-16 51 -55.5 79.5t-95.5 28.5q-53 0 -95 -25.5t-65.5 -70t-23.5 -100.5q0 -55 23.5 -99.5t65.5 -70t95 -25.5q56 0 95.5 28.5t53.5 78.5l71 -17
q-18 -71 -77.5 -113t-142.5 -42q-73 0 -131.5 34zM261 612q-15 15 -15 35q0 21 15 35.5t35 14.5q21 0 35.5 -14.5t14.5 -35.5q0 -20 -14.5 -35t-35.5 -15q-20 0 -35 15z" />
    <glyph glyph-name="Ccaron" unicode="&#x10c;" horiz-adv-x="768" 
d="M222.5 36.5q-81.5 46.5 -127.5 128.5t-46 185q0 104 46 186t127.5 128.5t184.5 46.5q80 0 147 -28.5t111.5 -81.5t59.5 -123l-73 -16q-19 82 -84.5 130.5t-161.5 48.5q-84 0 -147 -37t-97 -103.5t-34 -150.5t34.5 -150t97.5 -103t147 -37q95 0 160.5 48.5t84.5 130.5
l73 -16q-15 -70 -59.5 -123t-111.5 -81.5t-147 -28.5q-103 0 -184.5 46.5zM415 838l82 79h62l-104 -120h-80l-104 120h62z" />
    <glyph glyph-name="ccaron" unicode="&#x10d;" horiz-adv-x="551" 
d="M169.5 24q-58.5 34 -92 93.5t-33.5 132.5q0 74 33 133.5t92 93.5t132 34q83 0 142.5 -42.5t77.5 -112.5l-69 -18q-16 51 -55.5 79.5t-95.5 28.5q-53 0 -95 -25.5t-65.5 -70t-23.5 -100.5q0 -55 23.5 -99.5t65.5 -70t95 -25.5q56 0 95.5 28.5t53.5 78.5l71 -17
q-18 -71 -77.5 -113t-142.5 -42q-73 0 -131.5 34zM296 639l82 79h62l-104 -120h-80l-104 120h62z" />
    <glyph glyph-name="Dcaron" unicode="&#x10e;" horiz-adv-x="730" 
d="M82 700h231q105 0 189 -45t131.5 -125t47.5 -180t-47.5 -180t-131 -125t-189.5 -45h-231v700zM317 70q80 0 145.5 37t103 101t37.5 142t-37.5 142t-103 101t-145.5 37h-158v-560h158zM365 838l82 79h62l-104 -120h-80l-104 120h62z" />
    <glyph glyph-name="dcaron" unicode="&#x10f;" horiz-adv-x="657" 
d="M169.5 26.5q-57.5 34.5 -91 93.5t-33.5 131q0 71 33.5 130.5t91.5 93.5t128 34q44 0 85 -14.5t75 -42.5v248l74 17v-717h-73v53q-66 -61 -162 -61q-70 0 -127.5 34.5zM142.5 153.5q24.5 -44.5 67 -70.5t94.5 -26q47 0 87.5 18.5t66.5 51.5v248q-26 32 -67 50.5t-87 18.5
q-52 0 -94.5 -25t-67 -69t-24.5 -98t24.5 -98.5zM604 700l76 11l-25 -203h-56z" />
    <glyph glyph-name="Dcroat" unicode="&#x110;" horiz-adv-x="754" 
d="M105 317h-87v66h87v317h231q105 0 189 -45t131.5 -125t47.5 -180t-47.5 -180t-131 -125t-189.5 -45h-231v317zM340 70q80 0 145.5 37t103 101t37.5 142t-37.5 142t-103 101t-145.5 37h-158v-247h189v-66h-189v-247h158z" />
    <glyph glyph-name="dcroat" unicode="&#x111;" horiz-adv-x="599" 
d="M169.5 26.5q-57.5 34.5 -91 93.5t-33.5 131q0 71 33.5 130.5t91.5 93.5t128 34q44 0 85 -14.5t75 -42.5v134h-164v58h164v56l74 17v-73h62v-58h-62v-586h-73v53q-66 -61 -162 -61q-70 0 -127.5 34.5zM142.5 153.5q24.5 -44.5 67 -70.5t94.5 -26q47 0 87.5 18.5t66.5 51.5
v248q-26 32 -67 50.5t-87 18.5q-52 0 -94.5 -25t-67 -69t-24.5 -98t24.5 -98.5z" />
    <glyph glyph-name="Emacron" unicode="&#x112;" horiz-adv-x="626" 
d="M82 700h501v-68h-424v-245h277v-67h-277v-252h428v-68h-505v700zM203 873h284v-53h-284v53z" />
    <glyph glyph-name="emacron" unicode="&#x113;" horiz-adv-x="574" 
d="M166 23.5q-57 33.5 -89 93t-32 134.5q0 74 32 133t89.5 93t128.5 34q68 0 121 -32t83 -89t30 -129v-25h-411q1 -50 25 -91.5t64.5 -65.5t88.5 -24q52 0 96 26.5t69 72.5l60 -30q-34 -66 -93 -100t-132 -34t-130 33.5zM455 294q-8 68 -51.5 110t-108.5 42q-69 0 -118 -43
t-57 -109h335zM149 674h284v-53h-284v53z" />
    <glyph glyph-name="Ebreve" unicode="&#x114;" horiz-adv-x="626" 
d="M82 700h501v-68h-424v-245h277v-67h-277v-252h428v-68h-505v700zM244.5 823.5q-40.5 32.5 -53.5 90.5l52 13q21 -87 102 -87q38 0 64.5 22t37.5 65l52 -13q-14 -58 -54.5 -90.5t-99.5 -32.5q-60 0 -100.5 32.5z" />
    <glyph glyph-name="ebreve" unicode="&#x115;" horiz-adv-x="574" 
d="M166 23.5q-57 33.5 -89 93t-32 134.5q0 74 32 133t89.5 93t128.5 34q68 0 121 -32t83 -89t30 -129v-25h-411q1 -50 25 -91.5t64.5 -65.5t88.5 -24q52 0 96 26.5t69 72.5l60 -30q-34 -66 -93 -100t-132 -34t-130 33.5zM455 294q-8 68 -51.5 110t-108.5 42q-69 0 -118 -43
t-57 -109h335zM190.5 624.5q-40.5 32.5 -53.5 90.5l52 13q21 -87 102 -87q38 0 64.5 22t37.5 65l52 -13q-14 -58 -54.5 -90.5t-99.5 -32.5q-60 0 -100.5 32.5z" />
    <glyph glyph-name="Edotaccent" unicode="&#x116;" horiz-adv-x="626" 
d="M82 700h501v-68h-424v-245h277v-67h-277v-252h428v-68h-505v700zM310 811q-15 15 -15 35q0 21 15 35.5t35 14.5q21 0 35.5 -14.5t14.5 -35.5q0 -20 -14.5 -35t-35.5 -15q-20 0 -35 15z" />
    <glyph glyph-name="edotaccent" unicode="&#x117;" horiz-adv-x="574" 
d="M166 23.5q-57 33.5 -89 93t-32 134.5q0 74 32 133t89.5 93t128.5 34q68 0 121 -32t83 -89t30 -129v-25h-411q1 -50 25 -91.5t64.5 -65.5t88.5 -24q52 0 96 26.5t69 72.5l60 -30q-34 -66 -93 -100t-132 -34t-130 33.5zM455 294q-8 68 -51.5 110t-108.5 42q-69 0 -118 -43
t-57 -109h335zM256 612q-15 15 -15 35q0 21 15 35.5t35 14.5q21 0 35.5 -14.5t14.5 -35.5q0 -20 -14.5 -35t-35.5 -15q-20 0 -35 15z" />
    <glyph glyph-name="Eogonek" unicode="&#x118;" horiz-adv-x="626" 
d="M82 700h501v-68h-424v-245h277v-67h-277v-252h428v-68q-55 -35 -80.5 -64.5t-25.5 -58.5q0 -25 15 -38.5t43 -13.5t48 14l16 -39q-31 -21 -75 -21t-71 23.5t-27 62.5q0 35 23.5 67t75.5 68h-447v700z" />
    <glyph glyph-name="eogonek" unicode="&#x119;" horiz-adv-x="574" 
d="M166 23.5q-57 33.5 -89 93t-32 134.5q0 74 32 133t89.5 93t128.5 34q68 0 121 -32t83 -89t30 -129v-25h-411q1 -50 25 -91.5t64.5 -65.5t88.5 -24q52 0 96 26.5t69 72.5l60 -30q-24 -48 -62.5 -79t-87.5 -45q-55 -35 -80.5 -64.5t-25.5 -58.5q0 -25 15 -38.5t43 -13.5
t48 14l16 -39q-31 -21 -75 -21t-71 23.5t-27 62.5q0 33 20 62.5t65 62.5h-3q-73 0 -130 33.5zM455 294q-8 68 -51.5 110t-108.5 42q-69 0 -118 -43t-57 -109h335z" />
    <glyph glyph-name="Ecaron" unicode="&#x11a;" horiz-adv-x="626" 
d="M82 700h501v-68h-424v-245h277v-67h-277v-252h428v-68h-505v700zM345 838l82 79h62l-104 -120h-80l-104 120h62z" />
    <glyph glyph-name="ecaron" unicode="&#x11b;" horiz-adv-x="574" 
d="M166 23.5q-57 33.5 -89 93t-32 134.5q0 74 32 133t89.5 93t128.5 34q68 0 121 -32t83 -89t30 -129v-25h-411q1 -50 25 -91.5t64.5 -65.5t88.5 -24q52 0 96 26.5t69 72.5l60 -30q-34 -66 -93 -100t-132 -34t-130 33.5zM455 294q-8 68 -51.5 110t-108.5 42q-69 0 -118 -43
t-57 -109h335zM291 639l82 79h62l-104 -120h-80l-104 120h62z" />
    <glyph glyph-name="Gcircumflex" unicode="&#x11c;" horiz-adv-x="798" 
d="M224.5 37q-82.5 48 -129 130.5t-46.5 182.5q0 104 46.5 186t129 128t185.5 46q80 0 147 -28t111.5 -78.5t59.5 -116.5l-73 -16q-19 76 -85 122.5t-161 46.5q-84 0 -148 -37t-99 -103t-35 -150q0 -82 35.5 -148t100 -104t147.5 -38q74 0 131.5 30.5t91.5 84.5t40 123h-251
v68h329v-31q0 -97 -43 -176t-120.5 -124.5t-176.5 -45.5q-104 0 -186.5 48zM408 875l-83 -80h-60l104 121h80l104 -121h-61z" />
    <glyph glyph-name="gcircumflex" unicode="&#x11d;" horiz-adv-x="596" 
d="M149 -184q-56 30 -84 89l67 35q45 -87 155 -87q76 0 121.5 38.5t45.5 102.5v60q-69 -58 -159 -58q-69 0 -126.5 34t-90.5 93t-33 130t33.5 130t91 93t127.5 34q83 0 158 -59v50h73v-506q0 -63 -29.5 -110t-84 -73t-127.5 -26q-82 0 -138 30zM142 156q24 -44 66 -69.5
t93 -25.5q48 0 87.5 18t65.5 51v246q-26 32 -66 50t-87 18q-51 0 -93 -25t-66 -69t-24 -97t24 -97zM296 676l-83 -80h-60l104 121h80l104 -121h-61z" />
    <glyph glyph-name="Gbreve" unicode="&#x11e;" horiz-adv-x="798" 
d="M224.5 37q-82.5 48 -129 130.5t-46.5 182.5q0 104 46.5 186t129 128t185.5 46q80 0 147 -28t111.5 -78.5t59.5 -116.5l-73 -16q-19 76 -85 122.5t-161 46.5q-84 0 -148 -37t-99 -103t-35 -150q0 -82 35.5 -148t100 -104t147.5 -38q74 0 131.5 30.5t91.5 84.5t40 123h-251
v68h329v-31q0 -97 -43 -176t-120.5 -124.5t-176.5 -45.5q-104 0 -186.5 48zM308.5 823.5q-40.5 32.5 -53.5 90.5l52 13q21 -87 102 -87q38 0 64.5 22t37.5 65l52 -13q-14 -58 -54.5 -90.5t-99.5 -32.5q-60 0 -100.5 32.5z" />
    <glyph glyph-name="gbreve" unicode="&#x11f;" horiz-adv-x="596" 
d="M149 -184q-56 30 -84 89l67 35q45 -87 155 -87q76 0 121.5 38.5t45.5 102.5v60q-69 -58 -159 -58q-69 0 -126.5 34t-90.5 93t-33 130t33.5 130t91 93t127.5 34q83 0 158 -59v50h73v-506q0 -63 -29.5 -110t-84 -73t-127.5 -26q-82 0 -138 30zM142 156q24 -44 66 -69.5
t93 -25.5q48 0 87.5 18t65.5 51v246q-26 32 -66 50t-87 18q-51 0 -93 -25t-66 -69t-24 -97t24 -97zM196.5 624.5q-40.5 32.5 -53.5 90.5l52 13q21 -87 102 -87q38 0 64.5 22t37.5 65l52 -13q-14 -58 -54.5 -90.5t-99.5 -32.5q-60 0 -100.5 32.5z" />
    <glyph glyph-name="Gdotaccent" unicode="&#x120;" horiz-adv-x="798" 
d="M224.5 37q-82.5 48 -129 130.5t-46.5 182.5q0 104 46.5 186t129 128t185.5 46q80 0 147 -28t111.5 -78.5t59.5 -116.5l-73 -16q-19 76 -85 122.5t-161 46.5q-84 0 -148 -37t-99 -103t-35 -150q0 -82 35.5 -148t100 -104t147.5 -38q74 0 131.5 30.5t91.5 84.5t40 123h-251
v68h329v-31q0 -97 -43 -176t-120.5 -124.5t-176.5 -45.5q-104 0 -186.5 48zM374 811q-15 15 -15 35q0 21 15 35.5t35 14.5q21 0 35.5 -14.5t14.5 -35.5q0 -20 -14.5 -35t-35.5 -15q-20 0 -35 15z" />
    <glyph glyph-name="gdotaccent" unicode="&#x121;" horiz-adv-x="596" 
d="M149 -184q-56 30 -84 89l67 35q45 -87 155 -87q76 0 121.5 38.5t45.5 102.5v60q-69 -58 -159 -58q-69 0 -126.5 34t-90.5 93t-33 130t33.5 130t91 93t127.5 34q83 0 158 -59v50h73v-506q0 -63 -29.5 -110t-84 -73t-127.5 -26q-82 0 -138 30zM142 156q24 -44 66 -69.5
t93 -25.5q48 0 87.5 18t65.5 51v246q-26 32 -66 50t-87 18q-51 0 -93 -25t-66 -69t-24 -97t24 -97zM262 612q-15 15 -15 35q0 21 15 35.5t35 14.5q21 0 35.5 -14.5t14.5 -35.5q0 -20 -14.5 -35t-35.5 -15q-20 0 -35 15z" />
    <glyph glyph-name="uni0122" unicode="&#x122;" horiz-adv-x="798" 
d="M224.5 37q-82.5 48 -129 130.5t-46.5 182.5q0 104 46.5 186t129 128t185.5 46q80 0 147 -28t111.5 -78.5t59.5 -116.5l-73 -16q-19 76 -85 122.5t-161 46.5q-84 0 -148 -37t-99 -103t-35 -150q0 -82 35.5 -148t100 -104t147.5 -38q74 0 131.5 30.5t91.5 84.5t40 123h-251
v68h329v-31q0 -97 -43 -176t-120.5 -124.5t-176.5 -45.5q-104 0 -186.5 48zM377 -85h74l-60 -179h-55z" />
    <glyph glyph-name="uni0123" unicode="&#x123;" horiz-adv-x="596" 
d="M149 -184q-56 30 -84 89l67 35q45 -87 155 -87q76 0 121.5 38.5t45.5 102.5v60q-69 -58 -159 -58q-69 0 -126.5 34t-90.5 93t-33 130t33.5 130t91 93t127.5 34q83 0 158 -59v50h73v-506q0 -63 -29.5 -110t-84 -73t-127.5 -26q-82 0 -138 30zM142 156q24 -44 66 -69.5
t93 -25.5q48 0 87.5 18t65.5 51v246q-26 32 -66 50t-87 18q-51 0 -93 -25t-66 -69t-24 -97t24 -97zM320 765h55l-41 -179h-74z" />
    <glyph glyph-name="Hcircumflex" unicode="&#x124;" horiz-adv-x="725" 
d="M82 700h77v-313h407v313h77v-700h-77v318h-407v-318h-77v700zM361 875l-83 -80h-60l104 121h80l104 -121h-61z" />
    <glyph glyph-name="hcircumflex" unicode="&#x125;" horiz-adv-x="559" 
d="M68 700l74 17v-275q59 69 158 69q56 0 100 -24.5t68.5 -68.5t24.5 -101v-317h-73v302q0 67 -37.5 105.5t-102.5 38.5q-45 0 -80 -20t-58 -57v-369h-74v700zM103 875l-83 -80h-60l104 121h80l104 -121h-61z" />
    <glyph glyph-name="Hbar" unicode="&#x126;" horiz-adv-x="737" 
d="M88 521h-68v61h68v118h77v-118h407v118h77v-118h68v-61h-68v-521h-77v318h-407v-318h-77v521zM572 386v135h-407v-135h407z" />
    <glyph glyph-name="hbar" unicode="&#x127;" horiz-adv-x="559" 
d="M68 586h-63v58h63v56l74 17v-73h163v-58h-163v-144q59 69 158 69q56 0 100 -24.5t68.5 -68.5t24.5 -101v-317h-73v302q0 67 -37.5 105.5t-102.5 38.5q-45 0 -80 -20t-58 -57v-369h-74v586z" />
    <glyph glyph-name="Itilde" unicode="&#x128;" horiz-adv-x="241" 
d="M82 700h77v-700h-77v700zM-13 879.5q23 24.5 60 24.5q19 0 36 -7t46 -23q21 -12 35.5 -18.5t27.5 -6.5q17 0 27.5 13t17.5 44l51 -10q-21 -100 -94 -100q-19 0 -37.5 7.5t-43.5 22.5q-23 13 -37 19t-27 6q-18 0 -28 -13t-16 -44l-52 10q11 51 34 75.5z" />
    <glyph glyph-name="itilde" unicode="&#x129;" horiz-adv-x="210" 
d="M68 501h74v-501h-74v501zM-29 680.5q23 24.5 60 24.5q19 0 36 -7t46 -23q21 -12 35.5 -18.5t27.5 -6.5q17 0 27.5 13t17.5 44l51 -10q-21 -100 -94 -100q-19 0 -37.5 7.5t-43.5 22.5q-23 13 -37 19t-27 6q-18 0 -28 -13t-16 -44l-52 10q11 51 34 75.5z" />
    <glyph glyph-name="Imacron" unicode="&#x12a;" horiz-adv-x="241" 
d="M82 700h77v-700h-77v700zM-21 873h284v-53h-284v53z" />
    <glyph glyph-name="imacron" unicode="&#x12b;" horiz-adv-x="210" 
d="M68 501h74v-501h-74v501zM-37 674h284v-53h-284v53z" />
    <glyph glyph-name="Ibreve" unicode="&#x12c;" horiz-adv-x="241" 
d="M82 700h77v-700h-77v700zM20.5 823.5q-40.5 32.5 -53.5 90.5l52 13q21 -87 102 -87q38 0 64.5 22t37.5 65l52 -13q-14 -58 -54.5 -90.5t-99.5 -32.5q-60 0 -100.5 32.5z" />
    <glyph glyph-name="ibreve" unicode="&#x12d;" horiz-adv-x="210" 
d="M68 501h74v-501h-74v501zM4.5 624.5q-40.5 32.5 -53.5 90.5l52 13q21 -87 102 -87q38 0 64.5 22t37.5 65l52 -13q-14 -58 -54.5 -90.5t-99.5 -32.5q-60 0 -100.5 32.5z" />
    <glyph glyph-name="Iogonek" unicode="&#x12e;" horiz-adv-x="241" 
d="M82 700h77v-700q-55 -35 -80.5 -64.5t-25.5 -58.5q0 -25 15 -38.5t43 -13.5t48 14l16 -39q-31 -21 -75 -21t-71 23.5t-27 62.5q0 35 23.5 67t75.5 68h-19v700z" />
    <glyph glyph-name="iogonek" unicode="&#x12f;" horiz-adv-x="210" 
d="M68 501h74v-501q-55 -35 -80.5 -64.5t-25.5 -58.5q0 -25 15 -38.5t43 -13.5t48 14l16 -39q-31 -21 -75 -21t-71 23.5t-27 62.5q0 35 23.5 67t75.5 68h-16v501zM70 682.5q15 14.5 35 14.5q21 0 35.5 -14.5t14.5 -35.5q0 -20 -14.5 -35t-35.5 -15q-20 0 -35 15t-15 35
q0 21 15 35.5z" />
    <glyph glyph-name="Idotaccent" unicode="&#x130;" horiz-adv-x="241" 
d="M82 700h77v-700h-77v700zM86 811q-15 15 -15 35q0 21 15 35.5t35 14.5q21 0 35.5 -14.5t14.5 -35.5q0 -20 -14.5 -35t-35.5 -15q-20 0 -35 15z" />
    <glyph glyph-name="dotlessi" unicode="&#x131;" horiz-adv-x="210" 
d="M68 501h74v-501h-74v501z" />
    <glyph glyph-name="IJ" unicode="&#x132;" horiz-adv-x="841" 
d="M82 700h77v-700h-77v700zM350.5 36q-66.5 47 -97.5 132l70 29q54 -137 185 -137q86 0 137 55.5t51 149.5v435h77v-436q0 -83 -32.5 -145.5t-92.5 -96t-141 -33.5q-90 0 -156.5 47z" />
    <glyph glyph-name="ij" unicode="&#x133;" horiz-adv-x="410" 
d="M68 501h74v-501h-74v501zM70 682.5q15 14.5 35 14.5q21 0 35.5 -14.5t14.5 -35.5q0 -20 -14.5 -35t-35.5 -15q-20 0 -35 15t-15 35q0 21 15 35.5zM150 -191l26 58q15 -12 40 -12q29 0 40.5 16.5t11.5 49.5v580h74v-592q0 -57 -33 -89t-88 -32q-44 0 -71 21zM270 682.5
q15 14.5 35 14.5q21 0 35.5 -14.5t14.5 -35.5q0 -20 -14.5 -35t-35.5 -15q-20 0 -35 15t-15 35q0 21 15 35.5z" />
    <glyph glyph-name="Jcircumflex" unicode="&#x134;" 
d="M119.5 36q-66.5 47 -97.5 132l70 29q54 -137 185 -137q86 0 137 55.5t51 149.5v435h77v-436q0 -83 -32.5 -145.5t-92.5 -96t-141 -33.5q-90 0 -156.5 47zM503 875l-83 -80h-60l104 121h80l104 -121h-61z" />
    <glyph glyph-name="jcircumflex" unicode="&#x135;" horiz-adv-x="210" 
d="M-50 -191l26 58q15 -12 40 -12q29 0 40.5 16.5t11.5 49.5v580h74v-592q0 -57 -33 -89t-88 -32q-44 0 -71 21zM104 676l-83 -80h-60l104 121h80l104 -121h-61z" />
    <glyph glyph-name="uni0136" unicode="&#x136;" horiz-adv-x="627" 
d="M82 700h77v-332l362 332h101l-380 -343l388 -357h-108l-363 336v-336h-77v700zM298 -85h74l-60 -179h-55z" />
    <glyph glyph-name="uni0137" unicode="&#x137;" horiz-adv-x="504" 
d="M68 700l74 17v-442l262 226h90l-275 -238l288 -263h-101l-264 240v-240h-74v700zM216 -85h74l-60 -179h-55z" />
    <glyph glyph-name="kgreenlandic" unicode="&#x138;" horiz-adv-x="504" 
d="M68 501h74v-226l262 226h90l-275 -238l288 -263h-101l-264 240v-240h-74v501z" />
    <glyph glyph-name="Lacute" unicode="&#x139;" horiz-adv-x="614" 
d="M82 700h77v-631h417v-69h-494v700zM150 915h95l-124 -116h-65z" />
    <glyph glyph-name="lacute" unicode="&#x13a;" horiz-adv-x="210" 
d="M68 700l74 17v-717h-74v700zM135 915h95l-124 -116h-65z" />
    <glyph glyph-name="uni013B" unicode="&#x13b;" horiz-adv-x="614" 
d="M82 700h77v-631h417v-69h-494v700zM311 -85h74l-60 -179h-55z" />
    <glyph glyph-name="uni013C" unicode="&#x13c;" horiz-adv-x="210" 
d="M68 700l74 17v-717h-74v700zM68 -85h74l-60 -179h-55z" />
    <glyph glyph-name="Lcaron" unicode="&#x13d;" horiz-adv-x="609" 
d="M82 700h77v-631h417v-69h-494v700zM409 700l76 11l-25 -203h-56z" />
    <glyph glyph-name="lcaron" unicode="&#x13e;" horiz-adv-x="266" 
d="M68 700l74 17v-717h-74v700zM214 700l76 11l-25 -203h-56z" />
    <glyph glyph-name="Ldot" unicode="&#x13f;" horiz-adv-x="609" 
d="M82 700h77v-631h417v-69h-494v700zM385 316q-15 15 -15 35q0 21 15 35.5t35 14.5q21 0 35.5 -14.5t14.5 -35.5q0 -20 -14.5 -35t-35.5 -15q-20 0 -35 15z" />
    <glyph glyph-name="ldot" unicode="&#x140;" horiz-adv-x="304" 
d="M68 700l74 17v-717h-74v700zM217 313q-15 15 -15 35q0 21 15 35.5t35 14.5q21 0 35.5 -14.5t14.5 -35.5q0 -20 -14.5 -35t-35.5 -15q-20 0 -35 15z" />
    <glyph glyph-name="Lslash" unicode="&#x141;" horiz-adv-x="623" 
d="M96 232l-80 -61v74l80 61v394h77v-336l200 151v-74l-200 -151v-221h417v-69h-494v232z" />
    <glyph glyph-name="lslash" unicode="&#x142;" horiz-adv-x="250" 
d="M89 315l-75 -61v74l75 61v311l74 17v-268l75 61v-75l-75 -61v-374h-74v315z" />
    <glyph glyph-name="Nacute" unicode="&#x143;" horiz-adv-x="735" 
d="M82 700h77l421 -568v568h73v-700h-68l-430 583v-583h-73v700zM397 915h95l-124 -116h-65z" />
    <glyph glyph-name="nacute" unicode="&#x144;" horiz-adv-x="559" 
d="M68 501h74v-59q59 69 158 69q56 0 100 -24.5t68.5 -68.5t24.5 -101v-317h-73v302q0 67 -37.5 105.5t-102.5 38.5q-45 0 -80 -20t-58 -57v-369h-74v501zM311 716h95l-124 -116h-65z" />
    <glyph glyph-name="uni0145" unicode="&#x145;" horiz-adv-x="735" 
d="M82 700h77l421 -568v568h73v-700h-68l-430 583v-583h-73v700zM330 -85h74l-60 -179h-55z" />
    <glyph glyph-name="uni0146" unicode="&#x146;" horiz-adv-x="559" 
d="M68 501h74v-59q59 69 158 69q56 0 100 -24.5t68.5 -68.5t24.5 -101v-317h-73v302q0 67 -37.5 105.5t-102.5 38.5q-45 0 -80 -20t-58 -57v-369h-74v501zM244 -85h74l-60 -179h-55z" />
    <glyph glyph-name="Ncaron" unicode="&#x147;" horiz-adv-x="735" 
d="M82 700h77l421 -568v568h73v-700h-68l-430 583v-583h-73v700zM367 838l82 79h62l-104 -120h-80l-104 120h62z" />
    <glyph glyph-name="ncaron" unicode="&#x148;" horiz-adv-x="559" 
d="M68 501h74v-59q59 69 158 69q56 0 100 -24.5t68.5 -68.5t24.5 -101v-317h-73v302q0 67 -37.5 105.5t-102.5 38.5q-45 0 -80 -20t-58 -57v-369h-74v501zM281 639l82 79h62l-104 -120h-80l-104 120h62z" />
    <glyph glyph-name="Eng" unicode="&#x14a;" horiz-adv-x="735" 
d="M478 -202v62q17 -4 38 -4q34 0 49 16t15 52v76l-425 577v-577h-73v700h72l426 -576v576h73v-783q0 -60 -33.5 -92.5t-94.5 -32.5q-25 0 -47 6z" />
    <glyph glyph-name="eng" unicode="&#x14b;" horiz-adv-x="559" 
d="M318 -202v62q17 -4 39 -4q33 0 48 16t15 52v378q0 67 -37.5 105.5t-102.5 38.5q-45 0 -80 -20t-58 -57v-369h-74v501h74v-59q59 69 158 69q56 0 100 -24.5t68.5 -68.5t24.5 -101v-400q0 -60 -33 -92.5t-95 -32.5q-19 0 -47 6z" />
    <glyph glyph-name="Omacron" unicode="&#x14c;" horiz-adv-x="819" 
d="M228 37q-83 48 -131 131t-48 182t48 182t131 131t182 48t181.5 -48t130.5 -131t48 -182t-48 -182t-130.5 -131t-181.5 -48t-182 48zM164.5 203.5q37.5 -66.5 102 -105t143.5 -38.5q78 0 142.5 38.5t102 105t37.5 146.5q0 81 -37.5 147.5t-102 104.5t-142.5 38
q-79 0 -143.5 -38t-102 -104.5t-37.5 -147.5q0 -80 37.5 -146.5zM268 873h284v-53h-284v53z" />
    <glyph glyph-name="omacron" unicode="&#x14d;" horiz-adv-x="602" 
d="M172 24.5q-59 34.5 -93 94t-34 131.5t34 131.5t93 94t129 34.5t129 -34.5t93 -94t34 -131.5t-34 -131.5t-93 -94t-129 -34.5t-129 34.5zM142.5 151.5q24.5 -44.5 66.5 -70t92 -25.5t92 25.5t66.5 70t24.5 98.5t-24.5 98.5t-66.5 70t-92 25.5t-92 -25.5t-66.5 -70
t-24.5 -98.5t24.5 -98.5zM159 674h284v-53h-284v53z" />
    <glyph glyph-name="Obreve" unicode="&#x14e;" horiz-adv-x="819" 
d="M228 37q-83 48 -131 131t-48 182t48 182t131 131t182 48t181.5 -48t130.5 -131t48 -182t-48 -182t-130.5 -131t-181.5 -48t-182 48zM164.5 203.5q37.5 -66.5 102 -105t143.5 -38.5q78 0 142.5 38.5t102 105t37.5 146.5q0 81 -37.5 147.5t-102 104.5t-142.5 38
q-79 0 -143.5 -38t-102 -104.5t-37.5 -147.5q0 -80 37.5 -146.5zM309.5 823.5q-40.5 32.5 -53.5 90.5l52 13q21 -87 102 -87q38 0 64.5 22t37.5 65l52 -13q-14 -58 -54.5 -90.5t-99.5 -32.5q-60 0 -100.5 32.5z" />
    <glyph glyph-name="obreve" unicode="&#x14f;" horiz-adv-x="602" 
d="M172 24.5q-59 34.5 -93 94t-34 131.5t34 131.5t93 94t129 34.5t129 -34.5t93 -94t34 -131.5t-34 -131.5t-93 -94t-129 -34.5t-129 34.5zM142.5 151.5q24.5 -44.5 66.5 -70t92 -25.5t92 25.5t66.5 70t24.5 98.5t-24.5 98.5t-66.5 70t-92 25.5t-92 -25.5t-66.5 -70
t-24.5 -98.5t24.5 -98.5zM200.5 624.5q-40.5 32.5 -53.5 90.5l52 13q21 -87 102 -87q38 0 64.5 22t37.5 65l52 -13q-14 -58 -54.5 -90.5t-99.5 -32.5q-60 0 -100.5 32.5z" />
    <glyph glyph-name="Ohungarumlaut" unicode="&#x150;" horiz-adv-x="819" 
d="M228 37q-83 48 -131 131t-48 182t48 182t131 131t182 48t181.5 -48t130.5 -131t48 -182t-48 -182t-130.5 -131t-181.5 -48t-182 48zM164.5 203.5q37.5 -66.5 102 -105t143.5 -38.5q78 0 142.5 38.5t102 105t37.5 146.5q0 81 -37.5 147.5t-102 104.5t-142.5 38
q-79 0 -143.5 -38t-102 -104.5t-37.5 -147.5q0 -80 37.5 -146.5zM397 915h86l-127 -113h-63zM562 915h87l-130 -113h-61z" />
    <glyph glyph-name="ohungarumlaut" unicode="&#x151;" horiz-adv-x="602" 
d="M172 24.5q-59 34.5 -93 94t-34 131.5t34 131.5t93 94t129 34.5t129 -34.5t93 -94t34 -131.5t-34 -131.5t-93 -94t-129 -34.5t-129 34.5zM142.5 151.5q24.5 -44.5 66.5 -70t92 -25.5t92 25.5t66.5 70t24.5 98.5t-24.5 98.5t-66.5 70t-92 25.5t-92 -25.5t-66.5 -70
t-24.5 -98.5t24.5 -98.5zM288 716h86l-127 -113h-63zM453 716h87l-130 -113h-61z" />
    <glyph glyph-name="OE" unicode="&#x152;" horiz-adv-x="1095" 
d="M223 46.5q-80 46.5 -126.5 127t-46.5 176.5t46.5 176.5t126.5 127t176 46.5h656v-68h-455q61 -41 99.5 -105t46.5 -140h181v-67h-180q-7 -78 -45.5 -144t-100.5 -108h454v-68h-656q-96 0 -176 46.5zM164 208q36 -64 98 -101t137 -37t137 37t98 101t36 142t-36 142
t-98 101t-137 37t-137 -37t-98 -101t-36 -142t36 -142z" />
    <glyph glyph-name="oe" unicode="&#x153;" horiz-adv-x="1012" 
d="M393 82q42 26 66 70.5t24 98.5t-24 98.5t-66 70t-92 25.5t-92 -25.5t-66.5 -70t-24.5 -98.5t24 -98.5t66 -70.5t93 -26q50 0 92 26zM79 382.5q34 59.5 93 94t129 34.5q69 0 126.5 -35t90.5 -94q33 59 88.5 94t126.5 35q68 0 121 -32t83 -89t30 -129v-25h-411
q1 -50 25 -91.5t64.5 -65.5t88.5 -24q53 0 95.5 26t69.5 73l60 -30q-74 -134 -225 -134q-73 0 -129 34t-87 94q-33 -59 -90.5 -93.5t-126.5 -34.5q-70 0 -129 34.5t-93 94.5t-34 132t34 131.5zM893 294q-8 68 -51.5 110t-108.5 42q-69 0 -118 -43t-57 -109h335z" />
    <glyph glyph-name="Racute" unicode="&#x154;" horiz-adv-x="645" 
d="M82 700h295q100 0 161 -52t61 -141q0 -65 -39.5 -114t-103.5 -62q48 -12 72 -48t30 -112l1 -14q8 -109 43 -157h-91q-11 22 -17 51.5t-10 96.5l-1 16q-4 56 -15.5 85t-35 39.5t-66.5 10.5h-207v-299h-77v700zM370 365q68 0 109.5 37.5t41.5 98.5t-41 96t-110 35h-211
v-267h211zM347 915h95l-124 -116h-65z" />
    <glyph glyph-name="racute" unicode="&#x155;" horiz-adv-x="436" 
d="M68 501h74v-61q19 33 51.5 52t69.5 19q56 0 90.5 -37t44.5 -107l-70 -17q-16 96 -86 96q-33 0 -58.5 -19.5t-41.5 -57.5v-369h-74v501zM226 714h95l-124 -116h-65z" />
    <glyph glyph-name="uni0156" unicode="&#x156;" horiz-adv-x="645" 
d="M82 700h295q100 0 161 -52t61 -141q0 -65 -39.5 -114t-103.5 -62q48 -12 72 -48t30 -112l1 -14q8 -109 43 -157h-91q-11 22 -17 51.5t-10 96.5l-1 16q-4 56 -15.5 85t-35 39.5t-66.5 10.5h-207v-299h-77v700zM370 365q68 0 109.5 37.5t41.5 98.5t-41 96t-110 35h-211
v-267h211zM283 -85h74l-60 -179h-55z" />
    <glyph glyph-name="uni0157" unicode="&#x157;" horiz-adv-x="436" 
d="M68 501h74v-61q19 33 51.5 52t69.5 19q56 0 90.5 -37t44.5 -107l-70 -17q-16 96 -86 96q-33 0 -58.5 -19.5t-41.5 -57.5v-369h-74v501zM64 -85h74l-60 -179h-55z" />
    <glyph glyph-name="Rcaron" unicode="&#x158;" horiz-adv-x="645" 
d="M82 700h295q100 0 161 -52t61 -141q0 -65 -39.5 -114t-103.5 -62q48 -12 72 -48t30 -112l1 -14q8 -109 43 -157h-91q-11 22 -17 51.5t-10 96.5l-1 16q-4 56 -15.5 85t-35 39.5t-66.5 10.5h-207v-299h-77v700zM370 365q68 0 109.5 37.5t41.5 98.5t-41 96t-110 35h-211
v-267h211zM317 838l82 79h62l-104 -120h-80l-104 120h62z" />
    <glyph glyph-name="rcaron" unicode="&#x159;" horiz-adv-x="436" 
d="M68 501h74v-61q19 33 51.5 52t69.5 19q56 0 90.5 -37t44.5 -107l-70 -17q-16 96 -86 96q-33 0 -58.5 -19.5t-41.5 -57.5v-369h-74v501zM196 637l82 79h62l-104 -120h-80l-104 120h62z" />
    <glyph glyph-name="Sacute" unicode="&#x15a;" horiz-adv-x="590" 
d="M109.5 40q-76.5 51 -94.5 139l76 19q14 -69 66 -105t136 -36q87 0 135.5 37.5t48.5 104.5q0 34 -14 55.5t-47.5 36.5t-93.5 27l-84 17q-99 20 -145 62.5t-46 113.5q0 60 30.5 105t86.5 70t129 25q101 0 169 -46t88 -130l-73 -19q-19 65 -64.5 96t-120.5 31
q-80 0 -125 -33.5t-45 -96.5q0 -46 28 -69t102 -38l84 -17q116 -23 166.5 -67t50.5 -121q0 -64 -31.5 -112t-89.5 -74t-135 -26q-111 0 -187.5 51zM315 915h95l-124 -116h-65z" />
    <glyph glyph-name="sacute" unicode="&#x15b;" horiz-adv-x="463" 
d="M92.5 28q-55.5 38 -69.5 109l70 11q12 -49 50.5 -73t97.5 -24q55 0 88 23t33 63q0 37 -21.5 55.5t-75.5 25.5l-75 9q-71 8 -109 43.5t-38 91.5q0 67 51.5 106t138.5 39q152 0 193 -137l-68 -12q-28 88 -127 88q-53 0 -86 -23t-33 -60q0 -31 22 -48t69 -23l71 -9
q158 -20 158 -142q0 -68 -54 -109.5t-145 -41.5q-85 0 -140.5 38zM262 713h95l-124 -116h-65z" />
    <glyph glyph-name="Scircumflex" unicode="&#x15c;" horiz-adv-x="590" 
d="M109.5 40q-76.5 51 -94.5 139l76 19q14 -69 66 -105t136 -36q87 0 135.5 37.5t48.5 104.5q0 34 -14 55.5t-47.5 36.5t-93.5 27l-84 17q-99 20 -145 62.5t-46 113.5q0 60 30.5 105t86.5 70t129 25q101 0 169 -46t88 -130l-73 -19q-19 65 -64.5 96t-120.5 31
q-80 0 -125 -33.5t-45 -96.5q0 -46 28 -69t102 -38l84 -17q116 -23 166.5 -67t50.5 -121q0 -64 -31.5 -112t-89.5 -74t-135 -26q-111 0 -187.5 51zM284 875l-83 -80h-60l104 121h80l104 -121h-61z" />
    <glyph glyph-name="scircumflex" unicode="&#x15d;" horiz-adv-x="463" 
d="M92.5 28q-55.5 38 -69.5 109l70 11q12 -49 50.5 -73t97.5 -24q55 0 88 23t33 63q0 37 -21.5 55.5t-75.5 25.5l-75 9q-71 8 -109 43.5t-38 91.5q0 67 51.5 106t138.5 39q152 0 193 -137l-68 -12q-28 88 -127 88q-53 0 -86 -23t-33 -60q0 -31 22 -48t69 -23l71 -9
q158 -20 158 -142q0 -68 -54 -109.5t-145 -41.5q-85 0 -140.5 38zM231 673l-83 -80h-60l104 121h80l104 -121h-61z" />
    <glyph glyph-name="Scedilla" unicode="&#x15e;" horiz-adv-x="590" 
d="M193 -155l46 8q13 -40 61 -40q28 0 44 13t16 36q0 22 -18.5 34.5t-50.5 12.5h-29l23 80q-107 3 -180 54t-90 136l76 19q14 -69 66 -105t136 -36q87 0 135.5 37.5t48.5 104.5q0 34 -14 55.5t-47.5 36.5t-93.5 27l-84 17q-99 20 -145 62.5t-46 113.5q0 60 30.5 105t86.5 70
t129 25q101 0 169 -46t88 -130l-73 -19q-19 65 -64.5 96t-120.5 31q-80 0 -125 -33.5t-45 -96.5q0 -46 28 -69t102 -38l84 -17q116 -23 166.5 -67t50.5 -121q0 -90 -60.5 -146.5t-164.5 -64.5l-12 -45q44 -2 69.5 -24t25.5 -58q0 -42 -30.5 -66.5t-81.5 -24.5q-84 0 -106 73
z" />
    <glyph glyph-name="scedilla" unicode="&#x15f;" horiz-adv-x="463" 
d="M118 -155l46 8q13 -40 61 -40q28 0 44 13t16 36q0 22 -18.5 34.5t-50.5 12.5h-29l23 82q-76 5 -125 42.5t-62 103.5l70 11q12 -49 50.5 -73t97.5 -24q55 0 88 23t33 63q0 37 -21.5 55.5t-75.5 25.5l-75 9q-71 8 -109 43.5t-38 91.5q0 67 51.5 106t138.5 39
q152 0 193 -137l-68 -12q-28 88 -127 88q-53 0 -86 -23t-33 -60q0 -31 22 -48t69 -23l71 -9q158 -20 158 -142q0 -65 -48.5 -105.5t-130.5 -44.5l-12 -46q44 -2 69.5 -24t25.5 -58q0 -42 -30.5 -66.5t-81.5 -24.5q-84 0 -106 73z" />
    <glyph glyph-name="Scaron" unicode="&#x160;" horiz-adv-x="590" 
d="M109.5 40q-76.5 51 -94.5 139l76 19q14 -69 66 -105t136 -36q87 0 135.5 37.5t48.5 104.5q0 34 -14 55.5t-47.5 36.5t-93.5 27l-84 17q-99 20 -145 62.5t-46 113.5q0 60 30.5 105t86.5 70t129 25q101 0 169 -46t88 -130l-73 -19q-19 65 -64.5 96t-120.5 31
q-80 0 -125 -33.5t-45 -96.5q0 -46 28 -69t102 -38l84 -17q116 -23 166.5 -67t50.5 -121q0 -64 -31.5 -112t-89.5 -74t-135 -26q-111 0 -187.5 51zM285 838l82 79h62l-104 -120h-80l-104 120h62z" />
    <glyph glyph-name="scaron" unicode="&#x161;" horiz-adv-x="463" 
d="M92.5 28q-55.5 38 -69.5 109l70 11q12 -49 50.5 -73t97.5 -24q55 0 88 23t33 63q0 37 -21.5 55.5t-75.5 25.5l-75 9q-71 8 -109 43.5t-38 91.5q0 67 51.5 106t138.5 39q152 0 193 -137l-68 -12q-28 88 -127 88q-53 0 -86 -23t-33 -60q0 -31 22 -48t69 -23l71 -9
q158 -20 158 -142q0 -68 -54 -109.5t-145 -41.5q-85 0 -140.5 38zM232 636l82 79h62l-104 -120h-80l-104 120h62z" />
    <glyph glyph-name="uni0162" unicode="&#x162;" horiz-adv-x="627" 
d="M275 631h-253v69h583v-69h-253v-631h-77v631zM197 -155l46 8q13 -40 61 -40q28 0 44 13t16 36q0 22 -18.5 34.5t-50.5 12.5h-29l26 91h43l-15 -55q44 -2 69.5 -24t25.5 -58q0 -42 -30.5 -66.5t-81.5 -24.5q-84 0 -106 73z" />
    <glyph glyph-name="uni0163" unicode="&#x163;" horiz-adv-x="366" 
d="M234 -8l-13 -47q44 -2 69.5 -24t25.5 -58q0 -42 -30.5 -66.5t-81.5 -24.5q-84 0 -106 73l46 8q13 -40 61 -40q28 0 44 13t16 36q0 22 -18.5 34.5t-50.5 12.5h-29l26 91h2q-35 13 -55 48t-20 89v301h-108v63h108v127l73 19v-146h151v-63h-151v-295q0 -45 15.5 -64.5
t44.5 -19.5q20 0 35 5t31 15l23 -57q-22 -16 -46 -23t-53 -7h-9z" />
    <glyph glyph-name="Tcaron" unicode="&#x164;" horiz-adv-x="627" 
d="M275 631h-253v69h583v-69h-253v-631h-77v631zM313 838l82 79h62l-104 -120h-80l-104 120h62z" />
    <glyph glyph-name="tcaron" unicode="&#x165;" horiz-adv-x="375" 
d="M286 768l78 14l-25 -200h-59zM12 501h108v127l73 19v-146h151v-63h-151v-295q0 -45 15.5 -64.5t44.5 -19.5q20 0 35 5t31 15l23 -57q-22 -16 -46 -23t-53 -7q-57 0 -90 37t-33 108v301h-108v63z" />
    <glyph glyph-name="Tbar" unicode="&#x166;" horiz-adv-x="627" 
d="M275 306h-149v66h149v259h-253v69h583v-69h-253v-259h149v-66h-149v-306h-77v306z" />
    <glyph glyph-name="tbar" unicode="&#x167;" horiz-adv-x="375" 
d="M22 322h98v116h-108v63h108v127l73 19v-146h151v-63h-151v-116h164v-59h-164v-120q0 -45 15.5 -64.5t44.5 -19.5q20 0 35 5t31 15l23 -57q-22 -16 -46 -23t-53 -7q-57 0 -90 37t-33 108v126h-98v59z" />
    <glyph glyph-name="Utilde" unicode="&#x168;" horiz-adv-x="714" 
d="M203.5 26.5q-65.5 37.5 -100.5 106.5t-35 163v404h77v-404q0 -71 26 -124.5t74 -82.5t112 -29t112 29t74 82.5t26 124.5v404h77v-404q0 -93 -35.5 -162.5t-100.5 -107t-153 -37.5t-153.5 37.5zM223 879.5q23 24.5 60 24.5q19 0 36 -7t46 -23q21 -12 35.5 -18.5t27.5 -6.5
q17 0 27.5 13t17.5 44l51 -10q-21 -100 -94 -100q-19 0 -37.5 7.5t-43.5 22.5q-23 13 -37 19t-27 6q-18 0 -28 -13t-16 -44l-52 10q11 51 34 75.5z" />
    <glyph glyph-name="utilde" unicode="&#x169;" horiz-adv-x="559" 
d="M159 14.5q-44 24.5 -68.5 68.5t-24.5 101v317h73v-302q0 -67 37.5 -105.5t102.5 -38.5q45 0 80 20t58 58v368h74v-501h-74v58q-59 -68 -157 -68q-57 0 -101 24.5zM145 680.5q23 24.5 60 24.5q19 0 36 -7t46 -23q21 -12 35.5 -18.5t27.5 -6.5q17 0 27.5 13t17.5 44l51 -10
q-21 -100 -94 -100q-19 0 -37.5 7.5t-43.5 22.5q-23 13 -37 19t-27 6q-18 0 -28 -13t-16 -44l-52 10q11 51 34 75.5z" />
    <glyph glyph-name="Umacron" unicode="&#x16a;" horiz-adv-x="714" 
d="M203.5 26.5q-65.5 37.5 -100.5 106.5t-35 163v404h77v-404q0 -71 26 -124.5t74 -82.5t112 -29t112 29t74 82.5t26 124.5v404h77v-404q0 -93 -35.5 -162.5t-100.5 -107t-153 -37.5t-153.5 37.5zM215 873h284v-53h-284v53z" />
    <glyph glyph-name="umacron" unicode="&#x16b;" horiz-adv-x="559" 
d="M159 14.5q-44 24.5 -68.5 68.5t-24.5 101v317h73v-302q0 -67 37.5 -105.5t102.5 -38.5q45 0 80 20t58 58v368h74v-501h-74v58q-59 -68 -157 -68q-57 0 -101 24.5zM137 674h284v-53h-284v53z" />
    <glyph glyph-name="Ubreve" unicode="&#x16c;" horiz-adv-x="714" 
d="M203.5 26.5q-65.5 37.5 -100.5 106.5t-35 163v404h77v-404q0 -71 26 -124.5t74 -82.5t112 -29t112 29t74 82.5t26 124.5v404h77v-404q0 -93 -35.5 -162.5t-100.5 -107t-153 -37.5t-153.5 37.5zM256.5 823.5q-40.5 32.5 -53.5 90.5l52 13q21 -87 102 -87q38 0 64.5 22
t37.5 65l52 -13q-14 -58 -54.5 -90.5t-99.5 -32.5q-60 0 -100.5 32.5z" />
    <glyph glyph-name="ubreve" unicode="&#x16d;" horiz-adv-x="559" 
d="M159 14.5q-44 24.5 -68.5 68.5t-24.5 101v317h73v-302q0 -67 37.5 -105.5t102.5 -38.5q45 0 80 20t58 58v368h74v-501h-74v58q-59 -68 -157 -68q-57 0 -101 24.5zM178.5 624.5q-40.5 32.5 -53.5 90.5l52 13q21 -87 102 -87q38 0 64.5 22t37.5 65l52 -13
q-14 -58 -54.5 -90.5t-99.5 -32.5q-60 0 -100.5 32.5z" />
    <glyph glyph-name="Uring" unicode="&#x16e;" horiz-adv-x="714" 
d="M203.5 26.5q-65.5 37.5 -100.5 106.5t-35 163v404h77v-404q0 -71 26 -124.5t74 -82.5t112 -29t112 29t74 82.5t26 124.5v404h77v-404q0 -93 -35.5 -162.5t-100.5 -107t-153 -37.5t-153.5 37.5zM278 814.5q-33 32.5 -33 78.5t33 78.5t79 32.5t79 -32.5t33 -78.5t-33 -78.5
t-79 -32.5t-79 32.5zM307.5 843.5q20.5 -20.5 49.5 -20.5t49.5 20.5t20.5 49.5t-20.5 49.5t-49.5 20.5t-49.5 -20.5t-20.5 -49.5t20.5 -49.5z" />
    <glyph glyph-name="uring" unicode="&#x16f;" horiz-adv-x="559" 
d="M159 14.5q-44 24.5 -68.5 68.5t-24.5 101v317h73v-302q0 -67 37.5 -105.5t102.5 -38.5q45 0 80 20t58 58v368h74v-501h-74v58q-59 -68 -157 -68q-57 0 -101 24.5zM200 615.5q-33 32.5 -33 78.5t33 78.5t79 32.5t79 -32.5t33 -78.5t-33 -78.5t-79 -32.5t-79 32.5z
M229.5 644.5q20.5 -20.5 49.5 -20.5t49.5 20.5t20.5 49.5t-20.5 49.5t-49.5 20.5t-49.5 -20.5t-20.5 -49.5t20.5 -49.5z" />
    <glyph glyph-name="Uhungarumlaut" unicode="&#x170;" horiz-adv-x="714" 
d="M203.5 26.5q-65.5 37.5 -100.5 106.5t-35 163v404h77v-404q0 -71 26 -124.5t74 -82.5t112 -29t112 29t74 82.5t26 124.5v404h77v-404q0 -93 -35.5 -162.5t-100.5 -107t-153 -37.5t-153.5 37.5zM344 915h86l-127 -113h-63zM509 915h87l-130 -113h-61z" />
    <glyph glyph-name="uhungarumlaut" unicode="&#x171;" horiz-adv-x="559" 
d="M159 14.5q-44 24.5 -68.5 68.5t-24.5 101v317h73v-302q0 -67 37.5 -105.5t102.5 -38.5q45 0 80 20t58 58v368h74v-501h-74v58q-59 -68 -157 -68q-57 0 -101 24.5zM266 716h86l-127 -113h-63zM431 716h87l-130 -113h-61z" />
    <glyph glyph-name="Uogonek" unicode="&#x172;" horiz-adv-x="714" 
d="M203.5 26.5q-65.5 37.5 -100.5 106.5t-35 163v404h77v-404q0 -71 26 -124.5t74 -82.5t112 -29t112 29t74 82.5t26 124.5v404h77v-404q0 -116 -53.5 -193.5t-149.5 -102.5q-54 -35 -79.5 -64.5t-25.5 -58.5q0 -25 15 -38.5t43 -13.5t48 14l16 -39q-31 -21 -75 -21
t-71 23.5t-27 62.5q0 32 20 62t64 62h-14q-88 0 -153.5 37.5z" />
    <glyph glyph-name="uogonek" unicode="&#x173;" horiz-adv-x="559" 
d="M159 14.5q-44 24.5 -68.5 68.5t-24.5 101v317h73v-302q0 -67 37.5 -105.5t102.5 -38.5q45 0 80 20t58 58v368h74v-501q-55 -35 -80.5 -64.5t-25.5 -58.5q0 -25 15 -38.5t43 -13.5t48 14l16 -39q-31 -21 -75 -21t-71 23.5t-27 62.5q0 35 23.5 67t75.5 68h-16v58
q-59 -68 -157 -68q-57 0 -101 24.5z" />
    <glyph glyph-name="Wcircumflex" unicode="&#x174;" horiz-adv-x="892" 
d="M40 700h78l119 -578l173 578h75l173 -576l120 576h75l-151 -700h-78l-177 593l-178 -593h-78zM443 875l-83 -80h-60l104 121h80l104 -121h-61z" />
    <glyph glyph-name="wcircumflex" unicode="&#x175;" horiz-adv-x="713" 
d="M19 501h73l108 -400l125 400h66l124 -400l109 400h70l-142 -501h-71l-124 401l-125 -401h-72zM356 676l-83 -80h-60l104 121h80l104 -121h-61z" />
    <glyph glyph-name="Ycircumflex" unicode="&#x176;" horiz-adv-x="649" 
d="M286 285l-278 415h90l229 -347l228 347h87l-279 -418v-282h-77v285zM324 875l-83 -80h-60l104 121h80l104 -121h-61z" />
    <glyph glyph-name="ycircumflex" unicode="&#x177;" horiz-adv-x="520" 
d="M18 -193l26 59q21 -13 50 -13q30 0 51 19.5t39 59.5l30 69l-204 500h82l162 -411l175 411h80l-250 -579q-32 -73 -68.5 -104.5t-92.5 -31.5q-49 0 -80 21zM254 676l-83 -80h-60l104 121h80l104 -121h-61z" />
    <glyph glyph-name="Ydieresis" unicode="&#x178;" horiz-adv-x="649" 
d="M286 285l-278 415h90l229 -347l228 347h87l-279 -418v-282h-77v285zM202.5 824q-14.5 14 -14.5 34t14.5 34t35.5 14t35.5 -14t14.5 -34t-14.5 -34t-35.5 -14t-35.5 14zM376.5 892q14.5 14 35.5 14t35.5 -14t14.5 -34t-14.5 -34t-35.5 -14t-35.5 14t-14.5 34t14.5 34z" />
    <glyph glyph-name="Zacute" unicode="&#x179;" horiz-adv-x="614" 
d="M29 55l445 577h-441v68h542v-55l-447 -577h455v-68h-554v55zM343 915h95l-124 -116h-65z" />
    <glyph glyph-name="zacute" unicode="&#x17a;" horiz-adv-x="473" 
d="M36 58l302 377h-299v66h389v-57l-303 -378h306v-66h-395v58zM263 716h95l-124 -116h-65z" />
    <glyph glyph-name="Zdotaccent" unicode="&#x17b;" horiz-adv-x="614" 
d="M29 55l445 577h-441v68h542v-55l-447 -577h455v-68h-554v55zM278 811q-15 15 -15 35q0 21 15 35.5t35 14.5q21 0 35.5 -14.5t14.5 -35.5q0 -20 -14.5 -35t-35.5 -15q-20 0 -35 15z" />
    <glyph glyph-name="zdotaccent" unicode="&#x17c;" horiz-adv-x="473" 
d="M36 58l302 377h-299v66h389v-57l-303 -378h306v-66h-395v58zM198 612q-15 15 -15 35q0 21 15 35.5t35 14.5q21 0 35.5 -14.5t14.5 -35.5q0 -20 -14.5 -35t-35.5 -15q-20 0 -35 15z" />
    <glyph glyph-name="Zcaron" unicode="&#x17d;" horiz-adv-x="614" 
d="M29 55l445 577h-441v68h542v-55l-447 -577h455v-68h-554v55zM313 838l82 79h62l-104 -120h-80l-104 120h62z" />
    <glyph glyph-name="zcaron" unicode="&#x17e;" horiz-adv-x="473" 
d="M36 58l302 377h-299v66h389v-57l-303 -378h306v-66h-395v58zM233 639l82 79h62l-104 -120h-80l-104 120h62z" />
    <glyph glyph-name="uni0218" unicode="&#x218;" horiz-adv-x="590" 
d="M109.5 40q-76.5 51 -94.5 139l76 19q14 -69 66 -105t136 -36q87 0 135.5 37.5t48.5 104.5q0 34 -14 55.5t-47.5 36.5t-93.5 27l-84 17q-99 20 -145 62.5t-46 113.5q0 60 30.5 105t86.5 70t129 25q101 0 169 -46t88 -130l-73 -19q-19 65 -64.5 96t-120.5 31
q-80 0 -125 -33.5t-45 -96.5q0 -46 28 -69t102 -38l84 -17q116 -23 166.5 -67t50.5 -121q0 -64 -31.5 -112t-89.5 -74t-135 -26q-111 0 -187.5 51zM272 -85h74l-60 -179h-55z" />
    <glyph glyph-name="uni0219" unicode="&#x219;" horiz-adv-x="463" 
d="M92.5 28q-55.5 38 -69.5 109l70 11q12 -49 50.5 -73t97.5 -24q55 0 88 23t33 63q0 37 -21.5 55.5t-75.5 25.5l-75 9q-71 8 -109 43.5t-38 91.5q0 67 51.5 106t138.5 39q152 0 193 -137l-68 -12q-28 88 -127 88q-53 0 -86 -23t-33 -60q0 -31 22 -48t69 -23l71 -9
q158 -20 158 -142q0 -68 -54 -109.5t-145 -41.5q-85 0 -140.5 38zM197 -85h74l-60 -179h-55z" />
    <glyph glyph-name="uni021A" unicode="&#x21a;" horiz-adv-x="627" 
d="M275 631h-253v69h583v-69h-253v-631h-77v631zM276 -85h74l-60 -179h-55z" />
    <glyph glyph-name="uni021B" unicode="&#x21b;" horiz-adv-x="366" 
d="M153 29q-33 37 -33 108v301h-108v63h108v127l73 19v-146h151v-63h-151v-295q0 -45 15.5 -64.5t44.5 -19.5q20 0 35 5t31 15l23 -57q-22 -16 -46 -23t-53 -7q-57 0 -90 37zM177 -85h74l-60 -179h-55z" />
    <glyph glyph-name="uni0237" unicode="&#x237;" horiz-adv-x="210" 
d="M-50 -191l26 58q15 -12 40 -12q29 0 40.5 16.5t11.5 49.5v580h74v-592q0 -57 -33 -89t-88 -32q-44 0 -71 21z" />
    <glyph glyph-name="uni02BB" unicode="&#x2bb;" horiz-adv-x="252" 
d="M143 642q-12 -20 -14 -52h43v-92h-92v69q0 52 13.5 83.5t58.5 60.5l28 -35q-25 -14 -37 -34z" />
    <glyph glyph-name="uni02BC" unicode="&#x2bc;" horiz-adv-x="252" 
d="M109 556q12 20 14 52h-43v92h92v-69q0 -52 -13.5 -83.5t-58.5 -60.5l-28 35q25 14 37 34z" />
    <glyph glyph-name="circumflex" unicode="&#x2c6;" 
d="M304 676l-83 -80h-60l104 121h80l104 -121h-61z" />
    <glyph glyph-name="caron" unicode="&#x2c7;" 
d="M305 639l82 79h62l-104 -120h-80l-104 120h62z" />
    <glyph glyph-name="breve" unicode="&#x2d8;" 
d="M204.5 624.5q-40.5 32.5 -53.5 90.5l52 13q21 -87 102 -87q38 0 64.5 22t37.5 65l52 -13q-14 -58 -54.5 -90.5t-99.5 -32.5q-60 0 -100.5 32.5z" />
    <glyph glyph-name="dotaccent" unicode="&#x2d9;" 
d="M70 612q-15 15 -15 35q0 21 15 35.5t35 14.5q21 0 35.5 -14.5t14.5 -35.5q0 -20 -14.5 -35t-35.5 -15q-20 0 -35 15z" />
    <glyph glyph-name="ring" unicode="&#x2da;" 
d="M226 615.5q-33 32.5 -33 78.5t33 78.5t79 32.5t79 -32.5t33 -78.5t-33 -78.5t-79 -32.5t-79 32.5zM255.5 644.5q20.5 -20.5 49.5 -20.5t49.5 20.5t20.5 49.5t-20.5 49.5t-49.5 20.5t-49.5 -20.5t-20.5 -49.5t20.5 -49.5z" />
    <glyph glyph-name="tilde" unicode="&#x2dc;" 
d="M171 679.5q23 24.5 60 24.5q19 0 36 -7t46 -23q21 -12 35.5 -18.5t27.5 -6.5q17 0 27.5 13t17.5 44l51 -10q-21 -100 -94 -100q-19 0 -37.5 7.5t-43.5 22.5q-23 13 -37 19t-27 6q-18 0 -28 -13t-16 -44l-52 10q11 51 34 75.5z" />
    <glyph glyph-name="hungarumlaut" unicode="&#x2dd;" 
d="M292 716h86l-127 -113h-63zM457 716h87l-130 -113h-61z" />
    <glyph glyph-name="gravecomb" unicode="&#x300;" horiz-adv-x="0" 
d="M172 716h96l92 -116h-65z" />
    <glyph glyph-name="acutecomb" unicode="&#x301;" horiz-adv-x="0" 
d="M335 716h95l-124 -116h-65z" />
    <glyph glyph-name="uni0302" unicode="&#x302;" horiz-adv-x="0" 
d="M304 676l-83 -80h-60l104 121h80l104 -121h-61z" />
    <glyph glyph-name="tildecomb" unicode="&#x303;" horiz-adv-x="0" 
d="M171 679.5q23 24.5 60 24.5q19 0 36 -7t46 -23q21 -12 35.5 -18.5t27.5 -6.5q17 0 27.5 13t17.5 44l51 -10q-21 -100 -94 -100q-19 0 -37.5 7.5t-43.5 22.5q-23 13 -37 19t-27 6q-18 0 -28 -13t-16 -44l-52 10q11 51 34 75.5z" />
    <glyph glyph-name="uni0304" unicode="&#x304;" horiz-adv-x="0" 
d="M163 674h284v-53h-284v53z" />
    <glyph glyph-name="uni0306" unicode="&#x306;" horiz-adv-x="0" 
d="M204.5 624.5q-40.5 32.5 -53.5 90.5l52 13q21 -87 102 -87q38 0 64.5 22t37.5 65l52 -13q-14 -58 -54.5 -90.5t-99.5 -32.5q-60 0 -100.5 32.5z" />
    <glyph glyph-name="uni0307" unicode="&#x307;" horiz-adv-x="0" 
d="M70 612q-15 15 -15 35q0 21 15 35.5t35 14.5q21 0 35.5 -14.5t14.5 -35.5q0 -20 -14.5 -35t-35.5 -15q-20 0 -35 15z" />
    <glyph glyph-name="uni0308" unicode="&#x308;" horiz-adv-x="0" 
d="M182.5 625q-14.5 14 -14.5 34t14.5 34t35.5 14t35.5 -14t14.5 -34t-14.5 -34t-35.5 -14t-35.5 14zM356.5 693q14.5 14 35.5 14t35.5 -14t14.5 -34t-14.5 -34t-35.5 -14t-35.5 14t-14.5 34t14.5 34z" />
    <glyph glyph-name="uni030A" unicode="&#x30a;" horiz-adv-x="0" 
d="M226 615.5q-33 32.5 -33 78.5t33 78.5t79 32.5t79 -32.5t33 -78.5t-33 -78.5t-79 -32.5t-79 32.5zM255.5 644.5q20.5 -20.5 49.5 -20.5t49.5 20.5t20.5 49.5t-20.5 49.5t-49.5 20.5t-49.5 -20.5t-20.5 -49.5t20.5 -49.5z" />
    <glyph glyph-name="uni030B" unicode="&#x30b;" horiz-adv-x="0" 
d="M292 716h86l-127 -113h-63zM457 716h87l-130 -113h-61z" />
    <glyph glyph-name="uni030C" unicode="&#x30c;" horiz-adv-x="0" 
d="M305 639l82 79h62l-104 -120h-80l-104 120h62z" />
    <glyph glyph-name="uni0326" unicode="&#x326;" horiz-adv-x="0" 
d="M268 -85h74l-60 -179h-55z" />
    <glyph glyph-name="uni0327" unicode="&#x327;" horiz-adv-x="0" 
d="M182 -155l46 8q13 -40 61 -40q28 0 44 13t16 36q0 22 -18.5 34.5t-50.5 12.5h-29l26 91h43l-15 -55q44 -2 69.5 -24t25.5 -58q0 -42 -30.5 -66.5t-81.5 -24.5q-84 0 -106 73z" />
    <glyph glyph-name="uni0328" unicode="&#x328;" horiz-adv-x="0" 
d="M228 -197.5q-27 23.5 -27 62.5t28.5 74t94.5 77l34 -16q-55 -35 -80.5 -64.5t-25.5 -58.5q0 -25 15 -38.5t43 -13.5t48 14l16 -39q-31 -21 -75 -21t-71 23.5z" />
    <glyph glyph-name="Wgrave" unicode="&#x1e80;" horiz-adv-x="892" 
d="M40 700h78l119 -578l173 578h75l173 -576l120 576h75l-151 -700h-78l-177 593l-178 -593h-78zM311 915h96l92 -116h-65z" />
    <glyph glyph-name="wgrave" unicode="&#x1e81;" horiz-adv-x="713" 
d="M19 501h73l108 -400l125 400h66l124 -400l109 400h70l-142 -501h-71l-124 401l-125 -401h-72zM224 716h96l92 -116h-65z" />
    <glyph glyph-name="Wacute" unicode="&#x1e82;" horiz-adv-x="892" 
d="M40 700h78l119 -578l173 578h75l173 -576l120 576h75l-151 -700h-78l-177 593l-178 -593h-78zM474 915h95l-124 -116h-65z" />
    <glyph glyph-name="wacute" unicode="&#x1e83;" horiz-adv-x="713" 
d="M19 501h73l108 -400l125 400h66l124 -400l109 400h70l-142 -501h-71l-124 401l-125 -401h-72zM387 716h95l-124 -116h-65z" />
    <glyph glyph-name="Wdieresis" unicode="&#x1e84;" horiz-adv-x="892" 
d="M40 700h78l119 -578l173 578h75l173 -576l120 576h75l-151 -700h-78l-177 593l-178 -593h-78zM321.5 824q-14.5 14 -14.5 34t14.5 34t35.5 14t35.5 -14t14.5 -34t-14.5 -34t-35.5 -14t-35.5 14zM495.5 892q14.5 14 35.5 14t35.5 -14t14.5 -34t-14.5 -34t-35.5 -14
t-35.5 14t-14.5 34t14.5 34z" />
    <glyph glyph-name="wdieresis" unicode="&#x1e85;" horiz-adv-x="713" 
d="M19 501h73l108 -400l125 400h66l124 -400l109 400h70l-142 -501h-71l-124 401l-125 -401h-72zM234.5 625q-14.5 14 -14.5 34t14.5 34t35.5 14t35.5 -14t14.5 -34t-14.5 -34t-35.5 -14t-35.5 14zM408.5 693q14.5 14 35.5 14t35.5 -14t14.5 -34t-14.5 -34t-35.5 -14
t-35.5 14t-14.5 34t14.5 34z" />
    <glyph glyph-name="Ygrave" unicode="&#x1ef2;" horiz-adv-x="649" 
d="M286 285l-278 415h90l229 -347l228 347h87l-279 -418v-282h-77v285zM192 915h96l92 -116h-65z" />
    <glyph glyph-name="ygrave" unicode="&#x1ef3;" horiz-adv-x="520" 
d="M18 -193l26 59q21 -13 50 -13q30 0 51 19.5t39 59.5l30 69l-204 500h82l162 -411l175 411h80l-250 -579q-32 -73 -68.5 -104.5t-92.5 -31.5q-49 0 -80 21zM122 716h96l92 -116h-65z" />
    <glyph glyph-name="uni2002" unicode="&#x2002;" horiz-adv-x="510" 
 />
    <glyph glyph-name="uni2003" unicode="&#x2003;" horiz-adv-x="1010" 
 />
    <glyph glyph-name="uni2009" unicode="&#x2009;" horiz-adv-x="185" 
 />
    <glyph glyph-name="uni200A" unicode="&#x200a;" horiz-adv-x="110" 
 />
    <glyph glyph-name="uni200B" unicode="&#x200b;" horiz-adv-x="10" 
 />
    <glyph glyph-name="endash" unicode="&#x2013;" horiz-adv-x="557" 
d="M54 314h449v-66h-449v66z" />
    <glyph glyph-name="emdash" unicode="&#x2014;" horiz-adv-x="707" 
d="M54 314h599v-66h-599v66z" />
    <glyph glyph-name="uni2015" unicode="&#x2015;" horiz-adv-x="957" 
d="M54 314h849v-66h-849v66z" />
    <glyph glyph-name="quoteleft" unicode="&#x2018;" horiz-adv-x="252" 
d="M143 642q-12 -20 -14 -52h43v-92h-92v69q0 52 13.5 83.5t58.5 60.5l28 -35q-25 -14 -37 -34z" />
    <glyph glyph-name="quoteright" unicode="&#x2019;" horiz-adv-x="252" 
d="M109 556q12 20 14 52h-43v92h92v-69q0 -52 -13.5 -83.5t-58.5 -60.5l-28 35q25 14 37 34z" />
    <glyph glyph-name="quotesinglbase" unicode="&#x201a;" horiz-adv-x="252" 
d="M109 -52q12 20 14 52h-43v92h92v-69q0 -52 -13.5 -83.5t-58.5 -60.5l-28 35q25 14 37 34z" />
    <glyph glyph-name="quotedblleft" unicode="&#x201c;" horiz-adv-x="388" 
d="M143 642q-12 -20 -14 -52h43v-92h-92v69q0 52 13.5 83.5t58.5 60.5l28 -35q-25 -14 -37 -34zM216 567q0 52 13.5 83.5t58.5 60.5l28 -35q-25 -14 -37 -34t-14 -52h43v-92h-92v69z" />
    <glyph glyph-name="quotedblright" unicode="&#x201d;" horiz-adv-x="388" 
d="M245 556q12 20 14 52h-43v92h92v-69q0 -52 -13.5 -83.5t-58.5 -60.5l-28 35q25 14 37 34zM109 556q12 20 14 52h-43v92h92v-69q0 -52 -13.5 -83.5t-58.5 -60.5l-28 35q25 14 37 34z" />
    <glyph glyph-name="quotedblbase" unicode="&#x201e;" horiz-adv-x="388" 
d="M245 -52q12 20 14 52h-43v92h92v-69q0 -52 -13.5 -83.5t-58.5 -60.5l-28 35q25 14 37 34zM109 -52q12 20 14 52h-43v92h92v-69q0 -52 -13.5 -83.5t-58.5 -60.5l-28 35q25 14 37 34z" />
    <glyph glyph-name="dagger" unicode="&#x2020;" horiz-adv-x="435" 
d="M185 442h-126v60h126v198h66v-198h126v-60h-126v-442h-66v442z" />
    <glyph glyph-name="daggerdbl" unicode="&#x2021;" horiz-adv-x="435" 
d="M185 198h-126v60h126v184h-126v60h126v198h66v-198h126v-60h-126v-184h126v-60h-126v-198h-66v198z" />
    <glyph glyph-name="bullet" unicode="&#x2022;" horiz-adv-x="338" 
d="M97.5 281.5q-29.5 29.5 -29.5 70.5q0 42 29.5 72t70.5 30q42 0 72 -30t30 -72q0 -41 -29.5 -70.5t-72.5 -29.5q-41 0 -70.5 29.5z" />
    <glyph glyph-name="ellipsis" unicode="&#x2026;" horiz-adv-x="649" 
d="M94 9q-15 15 -15 36t15 36t36 15t36 -15t15 -36t-15 -36t-36 -15t-36 15zM289 9q-15 15 -15 36t15 36t36 15t36 -15t15 -36t-15 -36t-36 -15t-36 15zM483 9q-15 15 -15 36t15 36t36 15t36 -15t15 -36t-15 -36t-36 -15t-36 15z" />
    <glyph glyph-name="perthousand" unicode="&#x2030;" horiz-adv-x="1094" 
d="M73 395q-41 50 -41 130t41 130t108 50q65 0 106 -50t42 -130q-1 -80 -42 -130t-106 -50q-67 0 -108 50zM110 427q26 -36 71 -36q44 0 70.5 36.5t26.5 97.5q0 62 -26.5 98.5t-70.5 36.5q-45 0 -71 -36.5t-27 -98.5q1 -62 27 -98zM540 700h62l-394 -700h-61zM463 305
q41 50 108 50q65 0 106 -50t42 -130q-1 -80 -42 -130t-106 -50q-67 0 -108 50t-41 130t41 130zM500 77q26 -36 71 -36q44 0 70.5 36.5t26.5 97.5q0 62 -26.5 98.5t-70.5 36.5q-45 0 -71 -36.5t-27 -98.5q1 -62 27 -98zM807 305q41 50 108 50q65 0 106 -50t42 -130
q-1 -80 -42 -130t-106 -50q-67 0 -108 50t-41 130t41 130zM844 77q26 -36 71 -36q44 0 70.5 36.5t26.5 97.5q0 62 -26.5 98.5t-70.5 36.5q-45 0 -71 -36.5t-27 -98.5q1 -62 27 -98z" />
    <glyph glyph-name="minute" unicode="&#x2032;" horiz-adv-x="260" 
d="M126 700h80l-80 -211h-58z" />
    <glyph glyph-name="second" unicode="&#x2033;" horiz-adv-x="396" 
d="M126 700h80l-80 -211h-58zM262 700h80l-80 -211h-58z" />
    <glyph glyph-name="guilsinglleft" unicode="&#x2039;" horiz-adv-x="399" 
d="M36 251l234 250h79l-228 -248l231 -253h-82z" />
    <glyph glyph-name="guilsinglright" unicode="&#x203a;" horiz-adv-x="399" 
d="M363 250l-234 -250h-79l228 248l-231 253h82z" />
    <glyph glyph-name="fraction" unicode="&#x2044;" horiz-adv-x="588" 
d="M428 700h62l-394 -700h-61z" />
    <glyph glyph-name="uni2070" unicode="&#x2070;" horiz-adv-x="360" 
d="M73 395q-41 50 -41 130t41 130t108 50q65 0 106 -50t42 -130q-1 -80 -42 -130t-106 -50q-67 0 -108 50zM110 427q26 -36 71 -36q44 0 70.5 36.5t26.5 97.5q0 62 -26.5 98.5t-70.5 36.5q-45 0 -71 -36.5t-27 -98.5q1 -62 27 -98z" />
    <glyph glyph-name="uni2074" unicode="&#x2074;" horiz-adv-x="340" 
d="M224 438h-198v42l192 220h58v-218h43v-44h-43v-88h-52v88zM224 482v157l-137 -157h137z" />
    <glyph glyph-name="uni2075" unicode="&#x2075;" horiz-adv-x="317" 
d="M71.5 366.5q-32.5 24.5 -42.5 70.5l51 13q9 -31 26.5 -45t44.5 -14q34 0 55 18.5t21 49.5t-20 49.5t-54 18.5q-36 0 -74 -19l-35 11l8 181h215v-45h-171l-4 -104q37 17 73 17q53 0 85 -29.5t32 -78.5q0 -52 -36.5 -85t-93.5 -33q-48 0 -80.5 24.5z" />
    <glyph glyph-name="uni2076" unicode="&#x2076;" horiz-adv-x="335" 
d="M71 388.5q-40 48.5 -40 126.5q0 89 41.5 140.5t112.5 51.5q43 0 71 -20t38 -57l-52 -12q-15 41 -62 41q-46 0 -71.5 -38.5t-26.5 -105.5q41 53 101 53q52 0 85 -31t33 -80q0 -50 -35.5 -83.5t-90.5 -33.5q-64 0 -104 48.5zM115 410.5q25 -26.5 60 -26.5q32 0 53.5 20.5
t21.5 51.5t-21.5 51t-55.5 20q-25 0 -48.5 -11.5t-40.5 -33.5q6 -45 31 -71.5z" />
    <glyph glyph-name="uni2077" unicode="&#x2077;" horiz-adv-x="308" 
d="M233 655h-212v45h271v-39l-170 -311h-61z" />
    <glyph glyph-name="uni2078" unicode="&#x2078;" horiz-adv-x="337" 
d="M71 373.5q-38 28.5 -38 72.5q0 29 18.5 52t49.5 34q-25 11 -40 32.5t-15 46.5q0 41 35 68t87 27t87.5 -27t35.5 -68q0 -25 -15 -46.5t-40 -32.5q30 -11 48.5 -34t18.5 -52q0 -44 -37.5 -72.5t-96.5 -28.5q-60 0 -98 28.5zM108.5 405.5q23.5 -17.5 60.5 -17.5
q35 0 59 17.5t24 43.5q0 27 -24 44.5t-59 17.5q-37 0 -60.5 -17.5t-23.5 -44.5q0 -26 23.5 -43.5zM117.5 568.5q20.5 -15.5 51.5 -15.5q30 0 50 15.5t20 39.5t-20 40t-50 16q-31 0 -51.5 -16t-20.5 -40t20.5 -39.5z" />
    <glyph glyph-name="uni2079" unicode="&#x2079;" horiz-adv-x="335" 
d="M264 660.5q40 -48.5 40 -126.5q0 -89 -41.5 -140.5t-112.5 -51.5q-43 0 -71 20t-38 57l52 12q15 -41 62 -41q46 0 71.5 38.5t26.5 105.5q-41 -53 -101 -53q-52 0 -85 31t-33 80q0 50 35.5 83.5t90.5 33.5q64 0 104 -48.5zM106.5 542q21.5 -20 55.5 -20q25 0 48.5 11.5
t40.5 33.5q-6 45 -31 71.5t-60 26.5q-32 0 -53.5 -20.5t-21.5 -51.5t21.5 -51z" />
    <glyph glyph-name="uni2080" unicode="&#x2080;" horiz-adv-x="360" 
d="M73 45q-41 50 -41 130t41 130t108 50q65 0 106 -50t42 -130q-1 -80 -42 -130t-106 -50q-67 0 -108 50zM110 77q26 -36 71 -36q44 0 70.5 36.5t26.5 97.5q0 62 -26.5 98.5t-70.5 36.5q-45 0 -71 -36.5t-27 -98.5q1 -62 27 -98z" />
    <glyph glyph-name="uni2081" unicode="&#x2081;" horiz-adv-x="175" 
d="M88 296l-63 -26v45l82 35h33v-350h-52v296z" />
    <glyph glyph-name="uni2082" unicode="&#x2082;" horiz-adv-x="299" 
d="M55.5 106q17.5 30 56.5 52l66 37q23 14 33.5 27t10.5 31q0 24 -17 39.5t-44 15.5q-54 0 -71 -58l-52 13q11 43 43.5 67.5t79.5 24.5q52 0 82.5 -28t30.5 -76q0 -31 -15.5 -53.5t-48.5 -41.5l-64 -35q-28 -16 -38.5 -32.5t-12.5 -43.5h182v-45h-239v33q0 43 17.5 73z" />
    <glyph glyph-name="uni2083" unicode="&#x2083;" horiz-adv-x="321" 
d="M78 15.5q-33 24.5 -44 70.5l53 13q8 -32 26.5 -46.5t50.5 -14.5q33 0 52.5 16t19.5 43t-16 42t-43 15h-48v44h45q25 0 40 14.5t15 37.5q0 26 -18 42t-47 16q-28 0 -46 -15t-25 -43l-52 12q10 43 43.5 68t80.5 25q50 0 82.5 -27.5t32.5 -68.5q0 -29 -15.5 -50t-42.5 -30
q32 -8 50 -30.5t18 -54.5q0 -45 -36 -74t-92 -29q-51 0 -84 24.5z" />
    <glyph glyph-name="uni2084" unicode="&#x2084;" horiz-adv-x="340" 
d="M224 88h-198v42l192 220h58v-218h43v-44h-43v-88h-52v88zM224 132v157l-137 -157h137z" />
    <glyph glyph-name="uni2085" unicode="&#x2085;" horiz-adv-x="317" 
d="M71.5 16.5q-32.5 24.5 -42.5 70.5l51 13q9 -31 26.5 -45t44.5 -14q34 0 55 18.5t21 49.5t-20 49.5t-54 18.5q-36 0 -74 -19l-35 11l8 181h215v-45h-171l-4 -104q37 17 73 17q53 0 85 -29.5t32 -78.5q0 -52 -36.5 -85t-93.5 -33q-48 0 -80.5 24.5z" />
    <glyph glyph-name="uni2086" unicode="&#x2086;" horiz-adv-x="335" 
d="M71 38.5q-40 48.5 -40 126.5q0 89 41.5 140.5t112.5 51.5q43 0 71 -20t38 -57l-52 -12q-15 41 -62 41q-46 0 -71.5 -38.5t-26.5 -105.5q41 53 101 53q52 0 85 -31t33 -80q0 -50 -35.5 -83.5t-90.5 -33.5q-64 0 -104 48.5zM115 60.5q25 -26.5 60 -26.5q32 0 53.5 20.5
t21.5 51.5t-21.5 51t-55.5 20q-25 0 -48.5 -11.5t-40.5 -33.5q6 -45 31 -71.5z" />
    <glyph glyph-name="uni2087" unicode="&#x2087;" horiz-adv-x="308" 
d="M233 305h-212v45h271v-39l-170 -311h-61z" />
    <glyph glyph-name="uni2088" unicode="&#x2088;" horiz-adv-x="337" 
d="M71 23.5q-38 28.5 -38 72.5q0 29 18.5 52t49.5 34q-25 11 -40 32.5t-15 46.5q0 41 35 68t87 27t87.5 -27t35.5 -68q0 -25 -15 -46.5t-40 -32.5q30 -11 48.5 -34t18.5 -52q0 -44 -37.5 -72.5t-96.5 -28.5q-60 0 -98 28.5zM108.5 55.5q23.5 -17.5 60.5 -17.5q35 0 59 17.5
t24 43.5q0 27 -24 44.5t-59 17.5q-37 0 -60.5 -17.5t-23.5 -44.5q0 -26 23.5 -43.5zM117.5 218.5q20.5 -15.5 51.5 -15.5q30 0 50 15.5t20 39.5t-20 40t-50 16q-31 0 -51.5 -16t-20.5 -40t20.5 -39.5z" />
    <glyph glyph-name="uni2089" unicode="&#x2089;" horiz-adv-x="335" 
d="M264 310.5q40 -48.5 40 -126.5q0 -89 -41.5 -140.5t-112.5 -51.5q-43 0 -71 20t-38 57l52 12q15 -41 62 -41q46 0 71.5 38.5t26.5 105.5q-41 -53 -101 -53q-52 0 -85 31t-33 80q0 50 35.5 83.5t90.5 33.5q64 0 104 -48.5zM106.5 192q21.5 -20 55.5 -20q25 0 48.5 11.5
t40.5 33.5q-6 45 -31 71.5t-60 26.5q-32 0 -53.5 -20.5t-21.5 -51.5t21.5 -51z" />
    <glyph glyph-name="uni20A8" unicode="&#x20a8;" horiz-adv-x="1098" 
d="M82 700h295q100 0 161 -52t61 -141q0 -65 -39.5 -114t-103.5 -62q48 -12 72 -48t30 -112l1 -14q8 -109 43 -157h-91q-11 22 -17 51.5t-10 96.5l-1 16q-4 56 -15.5 85t-35 39.5t-66.5 10.5h-207v-299h-77v700zM370 365q68 0 109.5 37.5t41.5 98.5t-41 96t-110 35h-211
v-267h211zM727.5 28q-55.5 38 -69.5 109l70 11q12 -49 50.5 -73t97.5 -24q55 0 88 23t33 63q0 37 -21.5 55.5t-75.5 25.5l-75 9q-71 8 -109 43.5t-38 91.5q0 67 51.5 106t138.5 39q152 0 193 -137l-68 -12q-28 88 -127 88q-53 0 -86 -23t-33 -60q0 -31 22 -48t69 -23l71 -9
q158 -20 158 -142q0 -68 -54 -109.5t-145 -41.5q-85 0 -140.5 38z" />
    <glyph glyph-name="Euro" unicode="&#x20ac;" horiz-adv-x="795" 
d="M318 23q-68 33 -114.5 93.5t-63.5 142.5h-102v51h95q-1 14 -1 36q0 26 1 47h-95v50h103q17 81 63 141.5t114.5 93.5t148.5 33q101 0 177 -51t108 -139l-72 -21q-26 66 -82.5 103.5t-132.5 37.5q-91 0 -158 -53.5t-89 -144.5h283l-18 -50h-274q-1 -21 -1 -47q0 -22 1 -36
h245l-18 -51h-218q22 -91 89.5 -145t159.5 -54q75 0 131 37.5t82 103.5l71 -22q-32 -87 -107.5 -138t-176.5 -51q-81 0 -149 33z" />
    <glyph glyph-name="uni20B9" unicode="&#x20b9;" horiz-adv-x="598" 
d="M58 362h203q61 0 100.5 27t50.5 74h-354v69h354q-11 47 -51 73t-100 26h-203v69h505v-69h-149q59 -38 75 -99h74v-69h-73q-11 -77 -71 -122.5t-152 -45.5h-94l326 -295h-113l-328 295v67z" />
    <glyph glyph-name="trademark" unicode="&#x2122;" horiz-adv-x="685" 
d="M329 700h55l88 -181l88 181h55v-279h-42l2 225l-103 -206l-102 203l1 -222h-42v279zM38 700h241v-38h-99v-241h-43v241h-99v38z" />
    <glyph glyph-name="arrowup" unicode="&#x2191;" horiz-adv-x="515" 
d="M221 609l-163 -215l-48 38l246 318l245 -318l-47 -37l-165 219v-614h-68v609z" />
    <glyph glyph-name="arrowdown" unicode="&#x2193;" horiz-adv-x="515" 
d="M290 91l163 215l48 -38l-246 -318l-245 318l47 37l165 -219v614h68v-609z" />
    <glyph glyph-name="minus" unicode="&#x2212;" 
d="M107 388h396v-60h-396v60z" />
    <glyph glyph-name="uni2215" unicode="&#x2215;" horiz-adv-x="588" 
d="M428 700h62l-393 -700h-62z" />
    <glyph glyph-name="notequal" unicode="&#x2260;" 
d="M200 245h-93v60h134l71 103h-205v60h246l83 121h58l-83 -121h92v-60h-133l-71 -103h204v-60h-245l-84 -122h-58z" />
    <glyph glyph-name="uniFEFF" unicode="&#xfeff;" horiz-adv-x="10" 
 />
    <glyph glyph-name="uniFFFD" unicode="&#xfffd;" 
d="M108 750h394v-850h-394v850z" />
    <glyph glyph-name="i.loclTRK" horiz-adv-x="210" 
d="M68 501h74v-501h-74v501zM70 682.5q15 14.5 35 14.5q21 0 35.5 -14.5t14.5 -35.5q0 -20 -14.5 -35t-35.5 -15q-20 0 -35 15t-15 35q0 21 15 35.5z" />
    <glyph glyph-name="a.ss01" horiz-adv-x="600" 
d="M169.5 26.5q-57.5 34.5 -91 93.5t-33.5 131q0 71 33.5 130.5t91.5 93.5t128 34q44 0 85 -14.5t75 -42.5v49h74v-501h-73v53q-66 -61 -162 -61q-70 0 -127.5 34.5zM142.5 153.5q24.5 -44.5 67 -70.5t94.5 -26q47 0 87.5 18.5t66.5 51.5v248q-26 32 -67 50.5t-87 18.5
q-52 0 -94.5 -25t-67 -69t-24.5 -98t24.5 -98.5z" />
    <glyph glyph-name="aacute.ss01" horiz-adv-x="600" 
d="M169.5 26.5q-57.5 34.5 -91 93.5t-33.5 131q0 71 33.5 130.5t91.5 93.5t128 34q44 0 85 -14.5t75 -42.5v49h74v-501h-73v53q-66 -61 -162 -61q-70 0 -127.5 34.5zM142.5 153.5q24.5 -44.5 67 -70.5t94.5 -26q47 0 87.5 18.5t66.5 51.5v248q-26 32 -67 50.5t-87 18.5
q-52 0 -94.5 -25t-67 -69t-24.5 -98t24.5 -98.5zM330 716h95l-124 -116h-65z" />
    <glyph glyph-name="abreve.ss01" horiz-adv-x="600" 
d="M169.5 26.5q-57.5 34.5 -91 93.5t-33.5 131q0 71 33.5 130.5t91.5 93.5t128 34q44 0 85 -14.5t75 -42.5v49h74v-501h-73v53q-66 -61 -162 -61q-70 0 -127.5 34.5zM142.5 153.5q24.5 -44.5 67 -70.5t94.5 -26q47 0 87.5 18.5t66.5 51.5v248q-26 32 -67 50.5t-87 18.5
q-52 0 -94.5 -25t-67 -69t-24.5 -98t24.5 -98.5zM199.5 624.5q-40.5 32.5 -53.5 90.5l52 13q21 -87 102 -87q38 0 64.5 22t37.5 65l52 -13q-14 -58 -54.5 -90.5t-99.5 -32.5q-60 0 -100.5 32.5z" />
    <glyph glyph-name="acircumflex.ss01" horiz-adv-x="600" 
d="M169.5 26.5q-57.5 34.5 -91 93.5t-33.5 131q0 71 33.5 130.5t91.5 93.5t128 34q44 0 85 -14.5t75 -42.5v49h74v-501h-73v53q-66 -61 -162 -61q-70 0 -127.5 34.5zM142.5 153.5q24.5 -44.5 67 -70.5t94.5 -26q47 0 87.5 18.5t66.5 51.5v248q-26 32 -67 50.5t-87 18.5
q-52 0 -94.5 -25t-67 -69t-24.5 -98t24.5 -98.5zM299 676l-83 -80h-60l104 121h80l104 -121h-61z" />
    <glyph glyph-name="adieresis.ss01" horiz-adv-x="600" 
d="M169.5 26.5q-57.5 34.5 -91 93.5t-33.5 131q0 71 33.5 130.5t91.5 93.5t128 34q44 0 85 -14.5t75 -42.5v49h74v-501h-73v53q-66 -61 -162 -61q-70 0 -127.5 34.5zM142.5 153.5q24.5 -44.5 67 -70.5t94.5 -26q47 0 87.5 18.5t66.5 51.5v248q-26 32 -67 50.5t-87 18.5
q-52 0 -94.5 -25t-67 -69t-24.5 -98t24.5 -98.5zM177.5 625q-14.5 14 -14.5 34t14.5 34t35.5 14t35.5 -14t14.5 -34t-14.5 -34t-35.5 -14t-35.5 14zM351.5 693q14.5 14 35.5 14t35.5 -14t14.5 -34t-14.5 -34t-35.5 -14t-35.5 14t-14.5 34t14.5 34z" />
    <glyph glyph-name="agrave.ss01" horiz-adv-x="600" 
d="M169.5 26.5q-57.5 34.5 -91 93.5t-33.5 131q0 71 33.5 130.5t91.5 93.5t128 34q44 0 85 -14.5t75 -42.5v49h74v-501h-73v53q-66 -61 -162 -61q-70 0 -127.5 34.5zM142.5 153.5q24.5 -44.5 67 -70.5t94.5 -26q47 0 87.5 18.5t66.5 51.5v248q-26 32 -67 50.5t-87 18.5
q-52 0 -94.5 -25t-67 -69t-24.5 -98t24.5 -98.5zM167 716h96l92 -116h-65z" />
    <glyph glyph-name="amacron.ss01" horiz-adv-x="600" 
d="M169.5 26.5q-57.5 34.5 -91 93.5t-33.5 131q0 71 33.5 130.5t91.5 93.5t128 34q44 0 85 -14.5t75 -42.5v49h74v-501h-73v53q-66 -61 -162 -61q-70 0 -127.5 34.5zM142.5 153.5q24.5 -44.5 67 -70.5t94.5 -26q47 0 87.5 18.5t66.5 51.5v248q-26 32 -67 50.5t-87 18.5
q-52 0 -94.5 -25t-67 -69t-24.5 -98t24.5 -98.5zM158 674h284v-53h-284v53z" />
    <glyph glyph-name="aogonek.ss01" horiz-adv-x="600" 
d="M169.5 26.5q-57.5 34.5 -91 93.5t-33.5 131q0 71 33.5 130.5t91.5 93.5t128 34q44 0 85 -14.5t75 -42.5v49h74v-501q-55 -35 -80.5 -64.5t-25.5 -58.5q0 -25 15 -38.5t43 -13.5t48 14l16 -39q-31 -21 -75 -21t-71 23.5t-27 62.5q0 35 23.5 67t75.5 68h-15v53
q-66 -61 -162 -61q-70 0 -127.5 34.5zM142.5 153.5q24.5 -44.5 67 -70.5t94.5 -26q47 0 87.5 18.5t66.5 51.5v248q-26 32 -67 50.5t-87 18.5q-52 0 -94.5 -25t-67 -69t-24.5 -98t24.5 -98.5z" />
    <glyph glyph-name="aring.ss01" horiz-adv-x="600" 
d="M169.5 26.5q-57.5 34.5 -91 93.5t-33.5 131q0 71 33.5 130.5t91.5 93.5t128 34q44 0 85 -14.5t75 -42.5v49h74v-501h-73v53q-66 -61 -162 -61q-70 0 -127.5 34.5zM142.5 153.5q24.5 -44.5 67 -70.5t94.5 -26q47 0 87.5 18.5t66.5 51.5v248q-26 32 -67 50.5t-87 18.5
q-52 0 -94.5 -25t-67 -69t-24.5 -98t24.5 -98.5zM221 615.5q-33 32.5 -33 78.5t33 78.5t79 32.5t79 -32.5t33 -78.5t-33 -78.5t-79 -32.5t-79 32.5zM250.5 644.5q20.5 -20.5 49.5 -20.5t49.5 20.5t20.5 49.5t-20.5 49.5t-49.5 20.5t-49.5 -20.5t-20.5 -49.5t20.5 -49.5z" />
    <glyph glyph-name="atilde.ss01" horiz-adv-x="600" 
d="M169.5 26.5q-57.5 34.5 -91 93.5t-33.5 131q0 71 33.5 130.5t91.5 93.5t128 34q44 0 85 -14.5t75 -42.5v49h74v-501h-73v53q-66 -61 -162 -61q-70 0 -127.5 34.5zM142.5 153.5q24.5 -44.5 67 -70.5t94.5 -26q47 0 87.5 18.5t66.5 51.5v248q-26 32 -67 50.5t-87 18.5
q-52 0 -94.5 -25t-67 -69t-24.5 -98t24.5 -98.5zM166 680.5q23 24.5 60 24.5q19 0 36 -7t46 -23q21 -12 35.5 -18.5t27.5 -6.5q17 0 27.5 13t17.5 44l51 -10q-21 -100 -94 -100q-19 0 -37.5 7.5t-43.5 22.5q-23 13 -37 19t-27 6q-18 0 -28 -13t-16 -44l-52 10q11 51 34 75.5
z" />
    <glyph glyph-name="g.ss02" horiz-adv-x="540" 
d="M91.5 -182.5q-60.5 31.5 -60.5 87.5q0 33 26 60.5t74 45.5q-38 24 -38 69q0 26 17 47.5t47 35.5q-44 25 -70.5 67.5t-26.5 92.5q0 52 27.5 95t75 68t104.5 25q37 0 71.5 -11.5t62.5 -32.5q17 30 46 47.5t63 17.5q11 0 23 -2l3 -64q-16 2 -29 2q-48 0 -78 -27
q45 -51 45 -118q0 -52 -27.5 -95t-75 -68t-104.5 -25q-33 0 -63 9q-43 -18 -43 -49q0 -38 61 -42l181 -9q63 -4 96.5 -31t33.5 -75q0 -46 -33.5 -80.5t-95 -53t-143.5 -18.5q-109 0 -169.5 31.5zM142 -139.5q41 -19.5 114 -19.5q93 0 148 23.5t55 63.5q0 46 -70 49l-168 9
l-30 3q-43 -10 -66.5 -29.5t-23.5 -45.5q0 -34 41 -53.5zM170 232.5q39 -36.5 97 -36.5t97 36.5t39 90.5t-39 90.5t-97 36.5t-97 -36.5t-39 -90.5t39 -90.5z" />
    <glyph glyph-name="gbreve.ss02" horiz-adv-x="540" 
d="M91.5 -182.5q-60.5 31.5 -60.5 87.5q0 33 26 60.5t74 45.5q-38 24 -38 69q0 26 17 47.5t47 35.5q-44 25 -70.5 67.5t-26.5 92.5q0 52 27.5 95t75 68t104.5 25q37 0 71.5 -11.5t62.5 -32.5q17 30 46 47.5t63 17.5q11 0 23 -2l3 -64q-16 2 -29 2q-48 0 -78 -27
q45 -51 45 -118q0 -52 -27.5 -95t-75 -68t-104.5 -25q-33 0 -63 9q-43 -18 -43 -49q0 -38 61 -42l181 -9q63 -4 96.5 -31t33.5 -75q0 -46 -33.5 -80.5t-95 -53t-143.5 -18.5q-109 0 -169.5 31.5zM142 -139.5q41 -19.5 114 -19.5q93 0 148 23.5t55 63.5q0 46 -70 49l-168 9
l-30 3q-43 -10 -66.5 -29.5t-23.5 -45.5q0 -34 41 -53.5zM170 232.5q39 -36.5 97 -36.5t97 36.5t39 90.5t-39 90.5t-97 36.5t-97 -36.5t-39 -90.5t39 -90.5zM169.5 624.5q-40.5 32.5 -53.5 90.5l52 13q21 -87 102 -87q38 0 64.5 22t37.5 65l52 -13q-14 -58 -54.5 -90.5
t-99.5 -32.5q-60 0 -100.5 32.5z" />
    <glyph glyph-name="gcircumflex.ss02" horiz-adv-x="540" 
d="M91.5 -182.5q-60.5 31.5 -60.5 87.5q0 33 26 60.5t74 45.5q-38 24 -38 69q0 26 17 47.5t47 35.5q-44 25 -70.5 67.5t-26.5 92.5q0 52 27.5 95t75 68t104.5 25q37 0 71.5 -11.5t62.5 -32.5q17 30 46 47.5t63 17.5q11 0 23 -2l3 -64q-16 2 -29 2q-48 0 -78 -27
q45 -51 45 -118q0 -52 -27.5 -95t-75 -68t-104.5 -25q-33 0 -63 9q-43 -18 -43 -49q0 -38 61 -42l181 -9q63 -4 96.5 -31t33.5 -75q0 -46 -33.5 -80.5t-95 -53t-143.5 -18.5q-109 0 -169.5 31.5zM142 -139.5q41 -19.5 114 -19.5q93 0 148 23.5t55 63.5q0 46 -70 49l-168 9
l-30 3q-43 -10 -66.5 -29.5t-23.5 -45.5q0 -34 41 -53.5zM170 232.5q39 -36.5 97 -36.5t97 36.5t39 90.5t-39 90.5t-97 36.5t-97 -36.5t-39 -90.5t39 -90.5zM269 676l-83 -80h-60l104 121h80l104 -121h-61z" />
    <glyph glyph-name="uni0123.ss02" horiz-adv-x="540" 
d="M91.5 -182.5q-60.5 31.5 -60.5 87.5q0 33 26 60.5t74 45.5q-38 24 -38 69q0 26 17 47.5t47 35.5q-44 25 -70.5 67.5t-26.5 92.5q0 52 27.5 95t75 68t104.5 25q37 0 71.5 -11.5t62.5 -32.5q17 30 46 47.5t63 17.5q11 0 23 -2l3 -64q-16 2 -29 2q-48 0 -78 -27
q45 -51 45 -118q0 -52 -27.5 -95t-75 -68t-104.5 -25q-33 0 -63 9q-43 -18 -43 -49q0 -38 61 -42l181 -9q63 -4 96.5 -31t33.5 -75q0 -46 -33.5 -80.5t-95 -53t-143.5 -18.5q-109 0 -169.5 31.5zM142 -139.5q41 -19.5 114 -19.5q93 0 148 23.5t55 63.5q0 46 -70 49l-168 9
l-30 3q-43 -10 -66.5 -29.5t-23.5 -45.5q0 -34 41 -53.5zM170 232.5q39 -36.5 97 -36.5t97 36.5t39 90.5t-39 90.5t-97 36.5t-97 -36.5t-39 -90.5t39 -90.5zM293 765h55l-41 -179h-74z" />
    <glyph glyph-name="gdotaccent.ss02" horiz-adv-x="540" 
d="M91.5 -182.5q-60.5 31.5 -60.5 87.5q0 33 26 60.5t74 45.5q-38 24 -38 69q0 26 17 47.5t47 35.5q-44 25 -70.5 67.5t-26.5 92.5q0 52 27.5 95t75 68t104.5 25q37 0 71.5 -11.5t62.5 -32.5q17 30 46 47.5t63 17.5q11 0 23 -2l3 -64q-16 2 -29 2q-48 0 -78 -27
q45 -51 45 -118q0 -52 -27.5 -95t-75 -68t-104.5 -25q-33 0 -63 9q-43 -18 -43 -49q0 -38 61 -42l181 -9q63 -4 96.5 -31t33.5 -75q0 -46 -33.5 -80.5t-95 -53t-143.5 -18.5q-109 0 -169.5 31.5zM142 -139.5q41 -19.5 114 -19.5q93 0 148 23.5t55 63.5q0 46 -70 49l-168 9
l-30 3q-43 -10 -66.5 -29.5t-23.5 -45.5q0 -34 41 -53.5zM170 232.5q39 -36.5 97 -36.5t97 36.5t39 90.5t-39 90.5t-97 36.5t-97 -36.5t-39 -90.5t39 -90.5zM235 612q-15 15 -15 35q0 21 15 35.5t35 14.5q21 0 35.5 -14.5t14.5 -35.5q0 -20 -14.5 -35t-35.5 -15
q-20 0 -35 15z" />
    <glyph glyph-name="zero.tf" 
d="M171.5 33q-58.5 44 -91.5 125.5t-33 191.5t33 191.5t91.5 125.5t133.5 44t133.5 -44t91.5 -125.5t33 -191.5t-33 -191.5t-91.5 -125.5t-133.5 -44t-133.5 44zM163 147l238 464q-41 35 -96 35q-56 0 -97.5 -36.5t-64.5 -103.5t-23 -156q0 -122 43 -203zM305 54
q56 0 97.5 36.5t64.5 103.5t23 156q0 122 -43 203l-238 -464q41 -35 96 -35z" />
    <glyph glyph-name="one.tf" 
d="M89 63h177v559l-177 -78v66l204 90h45v-637h202v-63h-451v63z" />
    <glyph glyph-name="two.tf" 
d="M115.5 196q36.5 60 120.5 113l115 73q53 34 75.5 64t22.5 69q0 57 -38 92.5t-101 35.5q-121 0 -158 -127l-73 19q20 81 81.5 128.5t149.5 47.5q63 0 110.5 -24.5t73.5 -69t26 -102.5t-28.5 -101.5t-91.5 -83.5l-127 -80q-44 -28 -68 -52.5t-34.5 -55.5t-12.5 -79h372v-63
h-451v53q0 83 36.5 143z" />
    <glyph glyph-name="three.tf" 
d="M126 35q-63 46 -84 130l73 19q20 -67 60 -97t108 -30q78 0 123 36.5t45 101.5q0 60 -37.5 96t-100.5 36h-93v62h90q55 0 88 34t33 88q0 59 -41.5 95.5t-106.5 36.5q-60 0 -100.5 -33t-57.5 -94l-73 19q18 80 81.5 128t151.5 48q62 0 112.5 -25t79 -68.5t28.5 -96.5
q0 -57 -31.5 -100.5t-84.5 -60.5q64 -16 100 -62t36 -109q0 -58 -30.5 -103.5t-85.5 -71t-126 -25.5q-94 0 -157 46z" />
    <glyph glyph-name="four.tf" 
d="M412 187h-378v57l372 456h77v-450h97v-63h-97v-187h-71v187zM412 250v363l-294 -363h294z" />
    <glyph glyph-name="five.tf" 
d="M134.5 35q-61.5 46 -82.5 130l73 19q20 -66 58.5 -96.5t99.5 -30.5q84 0 132.5 43t48.5 118q0 70 -47 113t-123 43q-78 0 -157 -40l-50 16l16 350h408v-63h-346l-11 -242q40 19 77 28t78 9q68 0 120 -26.5t80.5 -74.5t28.5 -110q0 -69 -31.5 -121.5t-89 -81.5t-134.5 -29
q-87 0 -148.5 46z" />
    <glyph glyph-name="six.tf" 
d="M184 33q-62 43 -97 119.5t-35 173.5q0 120 36.5 206.5t103 132.5t154.5 46q78 0 130 -35.5t69 -100.5l-73 -19q-16 44 -49.5 65.5t-86.5 21.5q-99 0 -154.5 -83t-57.5 -227q39 50 93 78t112 28q67 0 120.5 -28t83.5 -78t30 -112q0 -66 -31 -118.5t-85 -82.5t-121 -30
q-80 0 -142 43zM191.5 114q54.5 -61 133.5 -61q47 0 85 21.5t59.5 59.5t21.5 85q0 46 -22 83t-61 57.5t-89 20.5q-54 0 -104.5 -27t-88.5 -76q11 -102 65.5 -163z" />
    <glyph glyph-name="seven.tf" 
d="M476 637h-420v63h498v-56l-344 -644h-82z" />
    <glyph glyph-name="eight.tf" 
d="M177 15q-57 26 -89 71.5t-32 102.5q0 63 46 113t119 67q-62 17 -100 61t-38 99q0 51 29 92.5t79.5 65.5t113.5 24t113.5 -24t79.5 -65.5t29 -92.5q0 -55 -38 -99t-100 -61q73 -17 119 -67t46 -113q0 -57 -32 -102.5t-89 -71.5t-128 -26t-128 26zM150.5 118.5
q23.5 -33.5 64 -52.5t90.5 -19t90.5 19t64 52.5t23.5 73.5t-23.5 73.5t-64 52.5t-90.5 19t-90.5 -19t-64 -52.5t-23.5 -73.5t23.5 -73.5zM173 461.5q20 -29.5 55 -46t77 -16.5t77 16.5t55 46t20 64.5t-20 64.5t-55 46t-77 16.5t-77 -16.5t-55 -46t-20 -64.5t20 -64.5z" />
    <glyph glyph-name="nine.tf" 
d="M426 667q62 -43 97 -119.5t35 -173.5q0 -120 -36.5 -206.5t-103 -132.5t-154.5 -46q-78 0 -130 35.5t-69 100.5l73 19q16 -44 49.5 -65.5t86.5 -21.5q99 0 154.5 83t57.5 227q-39 -50 -93 -78t-112 -28q-67 0 -120.5 28t-83.5 78t-30 112q0 66 31 118.5t85 82.5t121 30
q80 0 142 -43zM141 398q22 -37 61 -57.5t89 -20.5q54 0 104.5 27t88.5 76q-11 102 -65.5 163t-133.5 61q-47 0 -85 -21.5t-59.5 -59.5t-21.5 -85q0 -46 22 -83z" />
    <glyph glyph-name="exclamdown.case" horiz-adv-x="208" 
d="M143 0h-77l9 511h59zM68 696q15 15 36 15t36 -15t15 -36t-15 -36t-36 -15t-36 15t-15 36t15 36z" />
    <glyph glyph-name="questiondown.case" horiz-adv-x="516" 
d="M324 479q0 -58 -19 -95.5t-64 -69.5l-44 -31q-43 -30 -59.5 -56.5t-16.5 -61.5q0 -46 39.5 -76.5t98.5 -30.5q66 0 106.5 28t58.5 85l72 -19q-19 -76 -82 -119t-155 -43q-60 0 -108 22.5t-75.5 62t-27.5 89.5q0 52 24 88.5t90 83.5l34 24q37 26 52 59.5t11 83.5h64z
M255 692q15 15 36 15t36 -15t15 -36t-15 -36t-36 -15t-36 15t-15 36t15 36z" />
    <glyph glyph-name="periodcentered.case" horiz-adv-x="260" 
d="M94 311q-15 15 -15 36t15 36t36 15t36 -15t15 -36t-15 -36t-36 -15t-36 15z" />
    <glyph glyph-name="hyphen.case" horiz-adv-x="457" 
d="M54 379h349v-66h-349v66z" />
    <glyph glyph-name="endash.case" horiz-adv-x="557" 
d="M54 379h449v-66h-449v66z" />
    <glyph glyph-name="emdash.case" horiz-adv-x="707" 
d="M54 379h599v-66h-599v66z" />
    <glyph glyph-name="uni2015.case" horiz-adv-x="957" 
d="M54 379h849v-66h-849v66z" />
    <glyph glyph-name="at.case" horiz-adv-x="790" 
d="M225 37q-82 46 -129 126t-47 179q0 104 46.5 188t128 132.5t181.5 48.5q93 0 169 -40.5t120 -110.5t44 -156q0 -61 -23 -109.5t-63.5 -76.5t-90.5 -28q-65 0 -93 41q-51 -45 -106 -45q-40 0 -73 20t-51.5 54.5t-18.5 76.5q0 48 22.5 88.5t61.5 64.5t85 24q29 0 55.5 -10
t45.5 -29l5 26h56l-39 -192q-2 -8 -2 -22q0 -26 15 -39.5t43 -13.5q34 0 62.5 22t44.5 60.5t16 85.5q0 75 -37.5 135.5t-103.5 95t-146 34.5q-85 0 -154.5 -42.5t-110 -116.5t-40.5 -164q0 -88 40.5 -158t112 -110t160.5 -40q94 0 170 41l18 -41q-88 -45 -191 -45
q-101 0 -183 46zM302 263q28 -30 72 -30q46 0 81 35q-1 6 -1 18q0 13 3 28l21 106q-14 22 -38 34t-53 12q-30 0 -56 -17t-41.5 -46t-15.5 -62q0 -48 28 -78z" />
    <glyph glyph-name="caronSlovak" 
d="M277 700l76 11l-25 -203h-56z" />
    <glyph glyph-name="cordinal" horiz-adv-x="417" 
d="M136.5 345q-44.5 26 -70 71t-25.5 99t25.5 99t70 71t97.5 26q42 0 81.5 -15.5t68.5 -44.5l-39 -44q-22 23 -50.5 35.5t-58.5 12.5q-37 0 -67.5 -18.5t-48 -50.5t-17.5 -71t17.5 -71t48 -50.5t67.5 -18.5q30 0 58.5 12.5t50.5 35.5l39 -44q-29 -28 -68.5 -44t-81.5 -16
q-53 0 -97.5 26z" />
    <glyph glyph-name="reversequotedblleft" horiz-adv-x="396" 
d="M61 719h80l57 -211h-58zM276 719l58 -211h-58l-80 211h80z" />
    <glyph glyph-name="reversequoteleft" horiz-adv-x="260" 
d="M61 719h80l57 -211h-58z" />
    </font>
</defs>
</svg>
