<?xml version="1.0" standalone="no"?>
<!DOCTYPE svg PUBLIC "-//W3C//DTD SVG 1.1//EN" "http://www.w3.org/Graphics/SVG/1.1/DTD/svg11.dtd" >
<svg xmlns="http://www.w3.org/2000/svg" xmlns:xlink="http://www.w3.org/1999/xlink" version="1.1">
<metadata>
Created by FontForge 20201107 at Fri Jul  5 11:45:18 2024
 By 
Initial Copyright: 2021 The Red Hat Project Authors (https://github.com/RedHatOfficial/RedHatFont). Modified in 2023 for Grodrej &#38; Boyce under the name G1B Sans.
</metadata>
<defs>
<font id="GEG-BodyCopyHighlight" horiz-adv-x="630" >
  <font-face 
    font-family="GEG Body Copy"
    font-weight="700"
    font-stretch="normal"
    units-per-em="1000"
    panose-1="0 0 0 0 0 0 0 0 0 0"
    ascent="800"
    descent="-200"
    x-height="521"
    cap-height="700"
    bbox="-66 -286 1173 1005"
    underline-thickness="100"
    underline-position="-250"
    unicode-range="U+000D-FFFD"
  />
<missing-glyph horiz-adv-x="544" 
d="M75 750h394v-850h-394v850z" />
    <glyph glyph-name="fi" unicode="fi" horiz-adv-x="702" 
d="M187 675.5q48 49.5 130 49.5q66 0 106 -30.5t54 -85.5l-118 -38q-6 38 -42 38q-21 0 -31 -15.5t-10 -44.5v-28h142v-114h-142v-407h-137v407h-116v114h116v20q0 85 48 134.5zM497 521h137v-521h-137v521zM510 716q23 23 55 23t55 -23t23 -55t-23 -55t-55 -23t-55 23
t-23 55t23 55z" />
    <glyph glyph-name="fl" unicode="fl" horiz-adv-x="702" 
d="M187 675.5q48 49.5 130 49.5q66 0 106 -30.5t54 -85.5l-118 -38q-6 38 -42 38q-21 0 -31 -15.5t-10 -44.5v-28h142v-114h-142v-407h-137v407h-116v114h116v20q0 85 48 134.5zM497 700l137 23v-723h-137v700z" />
    <glyph glyph-name=".notdef" horiz-adv-x="544" 
d="M75 750h394v-850h-394v850z" />
    <glyph glyph-name=".null" horiz-adv-x="231" 
 />
    <glyph glyph-name="nonmarkingreturn" unicode="&#xd;" horiz-adv-x="231" 
 />
    <glyph glyph-name="space" unicode=" " horiz-adv-x="231" 
 />
    <glyph glyph-name="exclam" unicode="!" horiz-adv-x="271" 
d="M66 700h139l-17 -491h-105zM78 128q24 24 57 24q34 0 57.5 -24t23.5 -57t-23.5 -57t-57.5 -24q-33 0 -57 24t-24 57t24 57z" />
    <glyph glyph-name="quotedbl" unicode="&#x22;" horiz-adv-x="465" 
d="M74 705h133l-16 -280h-100zM258 705h133l-16 -280h-100z" />
    <glyph glyph-name="numbersign" unicode="#" horiz-adv-x="768" 
d="M141 194h-97v98h125l33 116h-108v98h136l55 194h123l-55 -194h151l56 194h122l-56 -194h98v-98h-125l-33 -116h108v-98h-136l-56 -194h-122l56 194h-152l-56 -194h-123zM443 292l34 116h-152l-33 -116h151z" />
    <glyph glyph-name="dollar" unicode="$" horiz-adv-x="605" 
d="M261 12q-90 11 -156 62.5t-84 129.5l141 31q13 -38 39 -62.5t60 -34.5v159l-29 4q-96 15 -142.5 59.5t-46.5 126.5q0 55 28.5 99t78 71t111.5 33v77h67v-78q85 -8 146 -54.5t85 -123.5l-136 -31q-29 68 -95 84v-146l27 -4q108 -16 159.5 -60.5t51.5 -128.5
q0 -59 -31 -106.5t-85 -76t-122 -32.5v-77h-67v79zM202 450.5q19 -14.5 59 -21.5v138q-37 -5 -57.5 -24.5t-20.5 -48.5t19 -43.5zM397.5 159.5q23.5 22.5 23.5 55.5q0 32 -21.5 47.5t-71.5 23.5v-153q46 4 69.5 26.5z" />
    <glyph glyph-name="percent" unicode="%" horiz-adv-x="823" 
d="M80.5 394.5q-43.5 49.5 -43.5 131.5q0 80 44 130t116 50q71 0 115 -50t44 -130q0 -82 -43.5 -131.5t-115.5 -49.5q-73 0 -116.5 49.5zM140.5 446.5q20.5 -28.5 56.5 -28.5t56.5 29t20.5 79q0 49 -21 78t-56 29q-36 0 -56.5 -29t-21.5 -78q1 -51 21.5 -79.5zM554 700h102
l-397 -700h-101zM511 306q44 50 116 50q71 0 115 -50t44 -130q0 -82 -43.5 -131.5t-115.5 -49.5q-73 0 -116.5 49.5t-43.5 131.5q0 80 44 130zM570.5 96.5q20.5 -28.5 56.5 -28.5t56.5 29t20.5 79q0 49 -21 78t-56 29q-36 0 -56.5 -29t-21.5 -78q1 -51 21.5 -79.5z" />
    <glyph glyph-name="ampersand" unicode="&#x26;" horiz-adv-x="714" 
d="M157.5 14q-55.5 25 -86.5 70.5t-31 104.5q0 64 30 107t105 86q-31 41 -44.5 76.5t-13.5 76.5q0 49 25.5 89.5t70 63.5t99.5 23q54 0 97.5 -21.5t68 -59t24.5 -84.5q0 -90 -99 -152l-51 -31q51 -55 134 -131q34 63 55 158l118 -19q-31 -134 -85 -216q25 -21 70.5 -56.5
t130.5 -98.5h-210q-31 24 -72 58q-86 -69 -207 -69q-73 0 -128.5 25zM201 124.5q35 -27.5 95 -27.5q64 0 110 37q-89 80 -165 167q-41 -24 -58 -47.5t-17 -54.5q0 -47 35 -74.5zM250 493.5q10 -21.5 36 -52.5l41 24q27 16 39 34.5t12 42.5q0 28 -20 47.5t-49 19.5
q-30 0 -49.5 -20.5t-19.5 -51.5q0 -22 10 -43.5z" />
    <glyph glyph-name="quotesingle" unicode="'" horiz-adv-x="281" 
d="M74 705h133l-16 -280h-100z" />
    <glyph glyph-name="parenleft" unicode="(" horiz-adv-x="442" 
d="M135 -25q-67 120 -67 273t67 272.5t192 193.5l76 -85q-102 -63 -155 -160.5t-53 -220.5q0 -124 53 -222t155 -159l-76 -86q-125 74 -192 194z" />
    <glyph glyph-name="parenright" unicode=")" horiz-adv-x="442" 
d="M307 520.5q67 -119.5 67 -272.5t-67 -273t-192 -193l-76 85q102 62 155 159.5t53 221.5q0 123 -53 221t-155 160l76 85q125 -74 192 -193.5z" />
    <glyph glyph-name="asterisk" unicode="*" horiz-adv-x="505" 
d="M211 432l-105 -65l-48 75l113 66l-113 67l49 74l104 -66l-2 117h89l-2 -116l104 65l49 -74l-113 -67l113 -66l-50 -75l-103 64l2 -115h-89z" />
    <glyph glyph-name="plus" unicode="+" 
d="M262 305h-164v103h164v176h106v-176h164v-103h-164v-176h-106v176z" />
    <glyph glyph-name="comma" unicode="," horiz-adv-x="267" 
d="M128 0h-69v148h149v-111q0 -125 -117 -189l-45 56q72 34 82 96z" />
    <glyph glyph-name="hyphen" unicode="-" horiz-adv-x="488" 
d="M56 343h376v-116h-376v116z" />
    <glyph glyph-name="period" unicode="." horiz-adv-x="280" 
d="M83 14q-24 24 -24 57q0 34 24 57.5t57 23.5t57 -23.5t24 -57.5q0 -33 -24 -57t-57 -24t-57 24z" />
    <glyph glyph-name="slash" unicode="/" horiz-adv-x="542" 
d="M365 700h132l-407 -908h-132z" />
    <glyph glyph-name="zero" unicode="0" horiz-adv-x="715" 
d="M196.5 34q-69.5 45 -108 127t-38.5 189t38.5 189t108 127t160.5 45t161 -45t108.5 -127t38.5 -189t-38.5 -189t-108.5 -127t-161 -45t-160.5 45zM230 173.5q47 -65.5 127 -65.5t127.5 65t47.5 177t-47.5 177t-127.5 65t-127 -65.5t-47 -176.5t47 -176.5z" />
    <glyph glyph-name="one" unicode="1" horiz-adv-x="379" 
d="M173 561l-137 -56v119l187 76h87v-700h-137v561z" />
    <glyph glyph-name="two" unicode="2" 
d="M99.5 228.5q35.5 61.5 113.5 104.5l110 59q57 30 77.5 54.5t20.5 57.5q0 38 -27.5 61.5t-71.5 23.5q-47 0 -78 -26t-44 -77l-136 31q26 94 93 144t165 50q110 0 174 -58t64 -156q0 -66 -38.5 -117t-121.5 -92l-89 -47q-50 -26 -69.5 -53.5t-21.5 -69.5h343v-118h-499v81
q0 86 35.5 147.5z" />
    <glyph glyph-name="three" unicode="3" 
d="M124 40q-68 51 -90 150l136 31q12 -56 45.5 -83t89.5 -27q52 0 85.5 26t33.5 71q0 42 -25.5 66t-69.5 24h-94v113h86q45 0 69.5 22t24.5 60q0 43 -29 69.5t-77 26.5q-49 0 -81 -26t-43 -76l-136 31q23 92 91.5 142.5t170.5 50.5q69 0 122 -25t83 -70t30 -101
q0 -54 -30.5 -94t-84.5 -60q62 -14 97.5 -58t35.5 -106q0 -58 -34 -105.5t-94.5 -75t-135.5 -27.5q-108 0 -176 51z" />
    <glyph glyph-name="four" unicode="4" 
d="M391 159h-361v114l344 427h143v-423h84v-118h-84v-159h-126v159zM391 277v271l-219 -271h219z" />
    <glyph glyph-name="five" unicode="5" 
d="M140.5 40q-67.5 51 -89.5 150l136 31q23 -110 122 -110q51 0 86.5 32t35.5 84q0 51 -34.5 81.5t-91.5 30.5q-66 0 -134 -36l-93 28l16 369h444v-118h-329l-8 -171q65 30 137 30q70 0 123 -26.5t82 -75t29 -111.5q0 -70 -33.5 -124.5t-92.5 -84.5t-132 -30
q-106 0 -173.5 51z" />
    <glyph glyph-name="six" unicode="6" 
d="M182.5 32.5q-67.5 43.5 -104.5 123.5t-37 185q0 112 38 195.5t108.5 129t164.5 45.5q92 0 151.5 -43t82.5 -124l-134 -30q-27 75 -110 75q-81 0 -126 -67.5t-46 -187.5q75 101 192 101q65 0 117.5 -27.5t82.5 -76.5t30 -111q0 -65 -33 -118t-91.5 -83t-130.5 -30
q-87 0 -154.5 43.5zM233 143.5q42 -41.5 101 -41.5q55 0 92 33t37 84q0 50 -35.5 81.5t-94.5 31.5q-43 0 -84 -19t-72 -54q14 -74 56 -115.5z" />
    <glyph glyph-name="seven" unicode="7" 
d="M440 582h-392v118h533v-98l-300 -602h-155z" />
    <glyph glyph-name="eight" unicode="8" 
d="M176.5 15q-60.5 26 -94 73t-33.5 107q0 58 39 103t102 64q-54 20 -86.5 61t-32.5 91q0 56 32 101t87.5 70.5t124.5 25.5t124.5 -25.5t87.5 -70.5t32 -101q0 -50 -32.5 -91t-86.5 -61q63 -19 102 -64t39 -103q0 -60 -33.5 -107t-94 -73t-138.5 -26t-138.5 26zM219 128
q38 -30 96 -30t96 30t38 76t-38 76.5t-96 30.5t-96 -30.5t-38 -76.5t38 -76zM232 435.5q33 -27.5 83 -27.5t83 27.5t33 69.5q0 43 -33 70.5t-83 27.5t-83 -27.5t-33 -70.5q0 -42 33 -69.5z" />
    <glyph glyph-name="nine" unicode="9" 
d="M447.5 667.5q67.5 -43.5 104.5 -123.5t37 -185q0 -112 -38 -195.5t-108.5 -129t-164.5 -45.5q-92 0 -151.5 43t-82.5 124l134 30q27 -75 110 -75q81 0 126 67.5t46 187.5q-75 -101 -192 -101q-65 0 -117.5 27.5t-82.5 76.5t-30 111q0 65 33 118t91.5 83t130.5 30
q87 0 154.5 -43.5zM202.5 399.5q35.5 -31.5 94.5 -31.5q43 0 84 19t72 54q-14 74 -56 115.5t-101 41.5q-55 0 -92 -33t-37 -84q0 -50 35.5 -81.5z" />
    <glyph glyph-name="colon" unicode=":" horiz-adv-x="280" 
d="M83 14q-24 24 -24 57q0 34 24 57.5t57 23.5t57 -23.5t24 -57.5q0 -33 -24 -57t-57 -24t-57 24zM83 392q-24 24 -24 57q0 34 24 57.5t57 23.5t57 -23.5t24 -57.5q0 -33 -24 -57t-57 -24t-57 24z" />
    <glyph glyph-name="semicolon" unicode=";" horiz-adv-x="267" 
d="M76 392q-24 24 -24 57q0 34 24 57.5t57 23.5t57 -23.5t24 -57.5q0 -33 -24 -57t-57 -24t-57 24zM128 0h-69v148h149v-111q0 -125 -117 -189l-45 56q72 34 82 96z" />
    <glyph glyph-name="less" unicode="&#x3c;" 
d="M91 348l345 287l69 -79l-253 -207l253 -207l-71 -82z" />
    <glyph glyph-name="equal" unicode="=" 
d="M98 309h434v-103h-434v103zM98 500h434v-103h-434v103z" />
    <glyph glyph-name="greater" unicode="&#x3e;" 
d="M539 348l-345 -288l-69 80l253 206l-253 208l71 81z" />
    <glyph glyph-name="question" unicode="?" horiz-adv-x="556" 
d="M193 238q0 57 17.5 91.5t60.5 66.5l52 37q29 22 41 41.5t12 41.5q0 35 -28.5 57t-76.5 22q-50 0 -84.5 -24.5t-46.5 -69.5l-123 27q20 86 92 134t167 48q70 0 123 -24t82 -67t29 -96q0 -55 -25 -93.5t-94 -85.5l-27 -19q-32 -22 -44 -47.5t-11 -65.5h-115q-1 9 -1 26z
M195 129.5q24 23.5 57 23.5q34 0 57.5 -23.5t23.5 -57.5q0 -33 -23.5 -57t-57.5 -24q-33 0 -57 24t-24 57q0 34 24 57.5z" />
    <glyph glyph-name="at" unicode="@" horiz-adv-x="817" 
d="M235 -98.5q-85 45.5 -133 125.5t-48 180q0 106 48.5 191.5t133.5 134.5t190 49q94 0 171.5 -40.5t122.5 -110t45 -153.5q0 -67 -24.5 -119.5t-68 -82t-99.5 -29.5q-74 0 -104 41q-23 -20 -49.5 -30.5t-54.5 -10.5q-40 0 -73.5 21t-53 56.5t-19.5 78.5q0 51 24 93t65 66.5
t90 24.5q25 0 49 -8.5t42 -23.5l4 19h97l-43 -206q-2 -10 -2 -15q0 -37 43 -37q46 0 75 43.5t29 111.5q0 71 -35 128t-96.5 89.5t-137.5 32.5q-83 0 -151 -40.5t-107 -111t-39 -156.5q0 -85 38 -151t106 -102.5t155 -36.5q91 0 164 35l27 -59q-93 -43 -190 -43
q-106 0 -191 45.5zM334 150.5q21 -23.5 54 -23.5q36 0 64 24q0 20 3 31l17 89q-23 34 -71 34q-36 0 -62 -27.5t-26 -66.5q0 -37 21 -60.5z" />
    <glyph glyph-name="A" unicode="A" horiz-adv-x="762" 
d="M299 700h167l285 -700h-157l-71 184h-289l-72 -184h-151zM479 300l-100 258l-100 -258h200z" />
    <glyph glyph-name="B" unicode="B" horiz-adv-x="721" 
d="M78 700h329q70 0 123.5 -24t83.5 -68t30 -100q0 -47 -25 -84.5t-73 -62.5q59 -23 90.5 -64.5t31.5 -93.5q0 -60 -30.5 -106t-86 -71.5t-128.5 -25.5h-345v700zM412 120q50 0 80 24.5t30 65.5t-30 66t-80 25h-189v-181h189zM398 414q47 0 74.5 22.5t27.5 60.5t-27.5 60.5
t-74.5 22.5h-175v-166h175z" />
    <glyph glyph-name="C" unicode="C" horiz-adv-x="784" 
d="M225.5 35q-82.5 46 -128.5 128.5t-46 186.5t46 186.5t128.5 128.5t187.5 46q84 0 153 -29.5t114.5 -83.5t59.5 -126l-147 -34q-18 67 -64 103.5t-117 36.5q-62 0 -110 -29.5t-75 -81.5t-27 -117t27 -117t75.5 -81.5t110.5 -29.5q70 0 116 37t64 104l147 -35
q-14 -72 -59.5 -126t-114.5 -83.5t-153 -29.5q-105 0 -187.5 46z" />
    <glyph glyph-name="D" unicode="D" horiz-adv-x="768" 
d="M78 700h269q103 0 187.5 -46.5t133.5 -126.5t49 -178q0 -97 -49 -177t-133.5 -126t-187.5 -46h-269v700zM346 129q61 0 111.5 29t80 79.5t29.5 111.5q0 62 -29.5 112.5t-80 80t-111.5 29.5h-123v-442h123z" />
    <glyph glyph-name="E" unicode="E" horiz-adv-x="675" 
d="M78 700h538v-126h-393v-160h259v-122h-259v-166h397v-126h-542v700z" />
    <glyph glyph-name="F" unicode="F" horiz-adv-x="669" 
d="M78 700h541v-126h-396v-165h263v-122h-263v-287h-145v700z" />
    <glyph glyph-name="G" unicode="G" horiz-adv-x="824" 
d="M233 37q-85 48 -133.5 130.5t-48.5 182.5q0 105 46.5 186.5t130.5 127.5t193 46q83 0 152 -28.5t115 -79t60 -114.5l-147 -34q-18 55 -64.5 89t-116.5 34q-65 0 -115 -29.5t-77.5 -81t-27.5 -116.5q0 -64 29 -116.5t80 -82.5t115 -30q75 0 127.5 40.5t66.5 105.5h-207
v126h362v-44q0 -102 -45 -184.5t-125 -129t-181 -46.5q-104 0 -189 48z" />
    <glyph glyph-name="H" unicode="H" horiz-adv-x="769" 
d="M78 700h145v-282h322v282h145v-700h-145v287h-322v-287h-145v700z" />
    <glyph glyph-name="I" unicode="I" horiz-adv-x="302" 
d="M78 700h145v-700h-145v700z" />
    <glyph glyph-name="J" unicode="J" horiz-adv-x="671" 
d="M136.5 43q-73.5 53 -104.5 152l134 51q21 -64 58 -94.5t92 -30.5q64 0 103.5 42.5t39.5 112.5v424h145v-428q0 -84 -36 -148t-101.5 -99t-151.5 -35q-105 0 -178.5 53z" />
    <glyph glyph-name="K" unicode="K" horiz-adv-x="727" 
d="M78 700h145v-313l306 313h177l-340 -333l355 -367h-193l-305 325v-325h-145v700z" />
    <glyph glyph-name="L" unicode="L" horiz-adv-x="658" 
d="M78 700h145v-572h383v-128h-528v700z" />
    <glyph glyph-name="M" unicode="M" horiz-adv-x="912" 
d="M78 700h186l192 -378l192 378h186v-700h-137v516l-243 -466l-242 467v-517h-134v700z" />
    <glyph glyph-name="N" unicode="N" horiz-adv-x="779" 
d="M78 700h138l348 -452v452h136v-700h-128l-357 468v-468h-137v700z" />
    <glyph glyph-name="O" unicode="O" horiz-adv-x="843" 
d="M234 37q-85 48 -134 131t-49 182t49 182t134 131t187 48t187 -48t134 -130.5t49 -182.5t-49 -182.5t-134 -130.5t-187 -48t-187 48zM229 234q29 -52 79.5 -82t112.5 -30t113 30t80 82t29 116t-29 116t-80 82t-113 30t-112.5 -30t-79.5 -82t-29 -116t29 -116z" />
    <glyph glyph-name="P" unicode="P" horiz-adv-x="711" 
d="M78 700h351q68 0 121.5 -28t83 -78t29.5 -114q0 -62 -30 -111t-83.5 -77t-120.5 -28h-206v-264h-145v700zM413 384q47 0 75.5 26t28.5 69q0 44 -28.5 70t-75.5 26h-190v-191h190z" />
    <glyph glyph-name="Q" unicode="Q" horiz-adv-x="843" 
d="M234 37q-85 48 -134 131t-49 182t49 182t134 131t187 48t187 -48t134 -130.5t49 -182.5q0 -66 -22.5 -126t-63.5 -108l93 -116h-162l-29 36q-86 -47 -186 -47q-102 0 -187 48zM229 234q29 -52 79.5 -82t112.5 -30q52 0 98 22l-109 135l100 81l102 -128q31 53 31 118
q0 64 -29 116t-80 82t-113 30t-112.5 -30t-79.5 -82t-29 -116t29 -116z" />
    <glyph glyph-name="R" unicode="R" horiz-adv-x="706" 
d="M78 700h340q70 0 124.5 -24.5t85 -69.5t30.5 -104q0 -63 -36 -111.5t-99 -69.5q44 -11 66 -46.5t29 -103.5l1 -10q9 -97 54 -161h-169q-13 24 -19 52t-10 87l-3 26q-4 42 -14.5 64t-33.5 31t-64 9h-137v-269h-145v700zM405 388q48 0 77.5 26.5t29.5 67.5q0 43 -29.5 68.5
t-77.5 25.5h-182v-188h182z" />
    <glyph glyph-name="S" unicode="S" horiz-adv-x="645" 
d="M128 42.5q-81 53.5 -107 148.5l141 31q24 -58 62.5 -84t100.5 -26q63 0 99.5 25t36.5 68q0 33 -24.5 52t-78.5 28l-120 18q-95 15 -144 64t-49 130q0 62 34 111t95 76t138 27q113 0 187 -48t100 -139l-136 -31q-17 47 -57.5 71.5t-99.5 24.5q-55 0 -87.5 -22.5
t-32.5 -62.5q0 -31 22 -49.5t68 -26.5l114 -15q110 -16 163 -64.5t53 -133.5q0 -67 -35 -118t-99 -79.5t-147 -28.5q-116 0 -197 53.5z" />
    <glyph glyph-name="T" unicode="T" horiz-adv-x="682" 
d="M269 572h-236v128h616v-128h-236v-572h-144v572z" />
    <glyph glyph-name="U" unicode="U" horiz-adv-x="755" 
d="M213 28q-70 38 -108 108.5t-38 165.5v398h145v-398q0 -82 45 -130t121 -48q75 0 120 48t45 130v398h144v-398q0 -94 -38 -164.5t-108.5 -109t-163.5 -38.5q-94 0 -164 38z" />
    <glyph glyph-name="V" unicode="V" horiz-adv-x="762" 
d="M11 700h157l214 -552l219 552h150l-288 -700h-168z" />
    <glyph glyph-name="W" unicode="W" horiz-adv-x="974" 
d="M41 700h149l95 -474l136 474h137l136 -473l95 473h144l-155 -700h-152l-138 488l-140 -488h-152z" />
    <glyph glyph-name="X" unicode="X" horiz-adv-x="729" 
d="M279 362l-253 338h173l166 -230l165 230h167l-249 -338l270 -362h-173l-183 254l-183 -254h-167z" />
    <glyph glyph-name="Y" unicode="Y" horiz-adv-x="735" 
d="M295 268l-286 432h167l196 -304l197 304h158l-287 -433v-267h-145v268z" />
    <glyph glyph-name="Z" unicode="Z" horiz-adv-x="647" 
d="M36 99l386 475h-383v126h572v-99l-386 -475h390v-126h-579v99z" />
    <glyph glyph-name="bracketleft" unicode="[" horiz-adv-x="423" 
d="M71 700h299v-107h-169v-699h169v-107h-299v913z" />
    <glyph glyph-name="backslash" unicode="\" horiz-adv-x="550" 
d="M46 700h138l408 -908h-138z" />
    <glyph glyph-name="bracketright" unicode="]" horiz-adv-x="423" 
d="M352 -213h-299v107h170v699h-170v107h299v-913z" />
    <glyph glyph-name="asciicircum" unicode="^" horiz-adv-x="612" 
d="M250 700h112l178 -350h-109l-125 249l-125 -249h-109z" />
    <glyph glyph-name="underscore" unicode="_" horiz-adv-x="524" 
d="M14 -80h496v-96h-496v96z" />
    <glyph glyph-name="grave" unicode="`" 
d="M153 738h158l88 -130h-111z" />
    <glyph glyph-name="a" unicode="a" horiz-adv-x="592" 
d="M100 33.5q-50 42.5 -50 113.5q0 69 53.5 108t158.5 45q79 4 131 25q-3 41 -28.5 64t-71.5 23q-41 0 -69.5 -20.5t-38.5 -57.5l-126 29q18 80 80.5 124t157.5 44q107 0 168.5 -54.5t61.5 -149.5v-327h-134v59q-25 -32 -68 -50t-93 -18q-82 0 -132 42.5zM202.5 103.5
q22.5 -14.5 63.5 -14.5q56 0 91.5 31.5t35.5 82.5v34q-21 -10 -46 -15t-67 -9q-100 -7 -100 -66q0 -29 22.5 -43.5z" />
    <glyph glyph-name="b" unicode="b" horiz-adv-x="661" 
d="M204 36v-36h-135v700l137 23v-244q61 49 146 49q73 0 133.5 -35.5t95.5 -97t35 -135.5t-35.5 -135t-97 -96.5t-135.5 -35.5q-81 0 -144 43zM261 122q32 -13 69 -13q42 0 77 20t55 54.5t20 76.5t-20 76.5t-55 54.5t-77 20q-79 0 -124 -50v-203q23 -23 55 -36z" />
    <glyph glyph-name="c" unicode="c" horiz-adv-x="602" 
d="M180 25q-63 35 -99 97t-36 139t36 138.5t98.5 96.5t140.5 35q61 0 113 -22.5t87 -62.5t46 -91l-128 -29q-13 41 -44 63.5t-74 22.5q-61 0 -100 -43t-39 -109t39 -108.5t100 -42.5q44 0 74 22.5t40 63.5l132 -29q-11 -51 -46 -91t-87 -62.5t-113 -22.5q-77 0 -140 35z" />
    <glyph glyph-name="d" unicode="d" horiz-adv-x="661" 
d="M176.5 28.5q-60.5 35.5 -96 97t-35.5 135.5t35.5 135t97.5 96.5t136 35.5q78 0 142 -41v213l137 23v-723h-135v43q-64 -50 -148 -50q-73 0 -133.5 35.5zM199.5 184.5q20.5 -34.5 55.5 -54.5t77 -20q77 0 124 50v203q-23 23 -55 36t-69 13q-43 0 -78 -20t-55 -54.5
t-20 -76.5t20.5 -76.5z" />
    <glyph glyph-name="e" unicode="e" horiz-adv-x="616" 
d="M172 25.5q-62 35.5 -94.5 96.5t-32.5 137q0 78 34.5 140t95.5 97t138 35q76 0 135 -35t91 -97.5t32 -141.5v-33h-393q5 -53 43.5 -87t95.5 -34q46 0 79 22t51 62l119 -44q-34 -73 -97.5 -113t-149.5 -40q-85 0 -147 35.5zM440 310q-8 49 -42.5 78.5t-84.5 29.5
q-51 0 -87 -30t-46 -78h260z" />
    <glyph glyph-name="f" unicode="f" horiz-adv-x="448" 
d="M187 675.5q48 49.5 130 49.5q66 0 106 -30.5t54 -85.5l-118 -38q-6 38 -42 38q-21 0 -31 -15.5t-10 -44.5v-28h142v-114h-142v-407h-137v407h-116v114h116v20q0 85 48 134.5z" />
    <glyph glyph-name="g" unicode="g" horiz-adv-x="657" 
d="M156 -173q-69 41 -91 112l146 28q17 -35 44.5 -51.5t70.5 -16.5q57 0 91.5 33.5t34.5 87.5v24q-64 -47 -143 -47q-73 0 -133.5 35.5t-95.5 97t-35 134.5t35.5 133.5t97 96t135.5 35.5q76 0 141 -42v34h135v-502q0 -69 -33 -122t-93 -82t-139 -29q-99 0 -168 41z
M199 187.5q20 -34.5 54.5 -54.5t76.5 -20q76 0 122 48v204q-23 23 -54.5 35t-66.5 12q-42 0 -77 -19.5t-55 -53.5t-20 -75q0 -42 20 -76.5z" />
    <glyph glyph-name="h" unicode="h" horiz-adv-x="623" 
d="M69 700l137 30v-252q59 53 146 53q60 0 107 -26.5t73 -73.5t26 -108v-323h-137v303q0 50 -29.5 80t-78.5 30q-69 0 -107 -52v-361h-137v700z" />
    <glyph glyph-name="i" unicode="i" horiz-adv-x="274" 
d="M69 521h137v-521h-137v521zM82 716q23 23 55 23t55 -23t23 -55t-23 -55t-55 -23t-55 23t-23 55t23 55z" />
    <glyph glyph-name="j" unicode="j" horiz-adv-x="274" 
d="M-19 -202.5q-28 9.5 -47 24.5l45 101q17 -16 41 -16q49 0 49 53v561h137v-566q0 -79 -47 -123t-119 -44q-31 0 -59 9.5zM82 716q23 23 55 23t55 -23t23 -55t-23 -55t-55 -23t-55 23t-23 55t23 55z" />
    <glyph glyph-name="k" unicode="k" horiz-adv-x="598" 
d="M69 700l137 23v-421l225 219h155l-246 -239l261 -282h-175l-220 238v-238h-137v700z" />
    <glyph glyph-name="l" unicode="l" horiz-adv-x="274" 
d="M69 700l137 23v-723h-137v700z" />
    <glyph glyph-name="m" unicode="m" horiz-adv-x="935" 
d="M69 521h137v-40q56 50 136 50q50 0 90.5 -20.5t66.5 -57.5q66 78 172 78q58 0 103 -26.5t70.5 -73.5t25.5 -108v-323h-136v303q0 50 -27 80t-72 30q-63 0 -100 -52q0 -6 1.5 -17t1.5 -21v-323h-137v303q0 50 -26.5 80t-71.5 30q-62 0 -97 -48v-365h-137v521z" />
    <glyph glyph-name="n" unicode="n" horiz-adv-x="623" 
d="M69 521h137v-43q59 53 146 53q60 0 107 -26.5t73 -73.5t26 -108v-323h-137v303q0 50 -29.5 80t-78.5 30q-69 0 -107 -52v-361h-137v521z" />
    <glyph glyph-name="o" unicode="o" horiz-adv-x="646" 
d="M182.5 25.5q-63.5 35.5 -100.5 97.5t-37 137t37 137t100.5 98t140.5 36t140.5 -36t100.5 -98t37 -137t-37 -137t-100.5 -97.5t-140.5 -35.5t-140.5 35.5zM198 183.5q19 -34.5 52 -54.5t73 -20t73 20t52.5 54.5t19.5 76.5t-19.5 77t-52.5 55t-73 20q-39 0 -72 -20
t-52.5 -55t-19.5 -77t19 -76.5z" />
    <glyph glyph-name="p" unicode="p" horiz-adv-x="661" 
d="M69 521h135v-43q62 50 148 50q73 0 133.5 -35.5t95.5 -97t35 -135.5t-35.5 -135t-97 -96.5t-135.5 -35.5q-80 0 -142 41v-238h-137v725zM261 122q32 -13 69 -13q42 0 77 20t55 54.5t20 76.5t-20 76.5t-55 54.5t-77 20q-79 0 -124 -50v-203q23 -23 55 -36z" />
    <glyph glyph-name="q" unicode="q" horiz-adv-x="661" 
d="M310 -7q-73 0 -133.5 35.5t-96 97t-35.5 135.5t35.5 135t97.5 96.5t136 35.5q79 0 144 -42v35h135v-725h-137v245q-63 -48 -146 -48zM199.5 184.5q20.5 -34.5 55.5 -54.5t77 -20q77 0 124 50v203q-23 23 -55 36t-69 13q-43 0 -78 -20t-55 -54.5t-20 -76.5t20.5 -76.5z
" />
    <glyph glyph-name="r" unicode="r" horiz-adv-x="513" 
d="M69 521h137v-45q21 26 53.5 40.5t68.5 14.5q66 0 104.5 -46.5t43.5 -132.5l-130 -26q-2 42 -19 64.5t-46 22.5q-24 0 -43.5 -13.5t-31.5 -38.5v-361h-137v521z" />
    <glyph glyph-name="s" unicode="s" horiz-adv-x="534" 
d="M116.5 29q-62.5 40 -82.5 115l122 23q28 -75 121 -75q44 0 69 15.5t25 43.5q0 23 -15.5 35.5t-52.5 16.5l-99 11q-73 8 -114 47.5t-41 101.5q0 49 27 87t76.5 59t112.5 21q88 0 146 -36.5t80 -106.5l-119 -23q-31 63 -113 63q-39 0 -63 -15t-24 -40q0 -21 17 -32.5
t54 -16.5l85 -9q83 -8 126 -47.5t43 -104.5q0 -51 -28 -90.5t-78.5 -61t-116.5 -21.5q-95 0 -157.5 40z" />
    <glyph glyph-name="t" unicode="t" horiz-adv-x="452" 
d="M172 39q-42 48 -42 131v237h-107v114h107v133l137 31v-164h148v-114h-148v-230q0 -33 14.5 -48.5t38.5 -15.5q31 0 55 19l48 -93q-25 -22 -59.5 -35t-74.5 -13q-75 0 -117 48z" />
    <glyph glyph-name="u" unicode="u" horiz-adv-x="623" 
d="M164 16.5q-47 26.5 -73 73.5t-26 108v323h137v-303q0 -50 29.5 -80t78.5 -30q69 0 108 52v361h137v-521h-137v42q-60 -52 -147 -52q-60 0 -107 26.5z" />
    <glyph glyph-name="v" unicode="v" horiz-adv-x="609" 
d="M15 521h149l143 -347l142 347h145l-223 -521h-133z" />
    <glyph glyph-name="w" unicode="w" horiz-adv-x="802" 
d="M25 521h130l86 -336l104 336h115l103 -337l86 337h128l-144 -521h-131l-101 333l-101 -333h-132z" />
    <glyph glyph-name="x" unicode="x" horiz-adv-x="585" 
d="M213 265l-195 256h159l115 -155l114 155h154l-192 -254l203 -267h-159l-123 166l-123 -166h-153z" />
    <glyph glyph-name="y" unicode="y" horiz-adv-x="606" 
d="M19 -182l45 108q30 -19 59 -19q32 0 54 17.5t32 48.5l9 22l-203 526h151l130 -355l147 355h148l-241 -563q-39 -92 -90.5 -132t-122.5 -40q-68 0 -118 32z" />
    <glyph glyph-name="z" unicode="z" horiz-adv-x="529" 
d="M42 97l262 309h-260v115h435v-97l-263 -309h270v-115h-444v97z" />
    <glyph glyph-name="braceleft" unicode="{" horiz-adv-x="459" 
d="M180 -176q-46 38 -46 101q0 34 13 69l34 90q9 24 9 44q0 31 -20.5 50t-55.5 19h-83v102h83q35 0 55.5 19t20.5 50q0 20 -9 44l-34 90q-13 35 -13 69q0 63 46 101t125 38q51 0 99 -17l-20 -98q-33 11 -63 11q-29 -1 -45.5 -17t-16.5 -43q0 -17 8 -39l37 -99q9 -22 9 -45
q0 -42 -29 -73.5t-78 -41.5q49 -10 78 -41.5t29 -73.5q0 -22 -9 -45l-37 -99q-8 -22 -8 -39q0 -27 16.5 -43t45.5 -17q30 0 63 11l20 -98q-48 -17 -99 -17q-79 0 -125 38z" />
    <glyph glyph-name="bar" unicode="|" horiz-adv-x="363" 
d="M120 700h122v-908h-122v908z" />
    <glyph glyph-name="braceright" unicode="}" horiz-adv-x="459" 
d="M279 672q46 -38 46 -101q0 -34 -13 -69l-34 -90q-9 -24 -9 -44q0 -31 20.5 -50t55.5 -19h83v-102h-83q-35 0 -55.5 -19t-20.5 -50q0 -20 9 -44l34 -90q13 -35 13 -69q0 -63 -46 -101t-125 -38q-51 0 -99 17l20 98q33 -11 63 -11q30 1 46 17t16 43q0 17 -8 39l-36 99
q-9 24 -9 46q0 42 28.5 73t77.5 41q-49 10 -77.5 41t-28.5 73q0 22 9 46l36 99q8 22 8 39q0 27 -16 43t-46 17q-30 0 -63 -11l-20 98q48 17 99 17q79 0 125 -38z" />
    <glyph glyph-name="asciitilde" unicode="~" horiz-adv-x="624" 
d="M91.5 422q36.5 44 94.5 44q46 0 93 -25l85 -42q39 -19 59 -19q53 0 63 79l92 -11q-10 -82 -46.5 -126t-94.5 -44q-47 0 -93 25l-85 42q-41 19 -59 19q-53 0 -62 -79l-92 11q9 82 45.5 126z" />
    <glyph glyph-name="uni00A0" unicode="&#xa0;" horiz-adv-x="231" 
 />
    <glyph glyph-name="exclamdown" unicode="&#xa1;" horiz-adv-x="271" 
d="M205 -204h-139l17 491h105zM78 482.5q24 23.5 57 23.5q34 0 57.5 -23.5t23.5 -57.5q0 -33 -23.5 -57t-57.5 -24q-33 0 -57 24t-24 57q0 34 24 57.5z" />
    <glyph glyph-name="cent" unicode="&#xa2;" horiz-adv-x="595" 
d="M344 608v-78q84 -7 145 -54.5t77 -120.5l-128 -29q-11 35 -35.5 56.5t-58.5 27.5v-299q34 5 57.5 27t32.5 57l132 -29q-16 -73 -77 -120.5t-145 -54.5v-107h-61v108q-68 8 -122 45t-85 95.5t-31 128.5t30.5 128t84.5 95t123 45v79h61zM208.5 165.5q27.5 -39.5 74.5 -51.5
v293q-46 -12 -74 -52t-28 -95t27.5 -94.5z" />
    <glyph glyph-name="sterling" unicode="&#xa3;" horiz-adv-x="678" 
d="M77.5 24q-40.5 34 -40.5 88q0 52 37.5 87t93.5 35q28 0 50 -6q-11 39 -25 70h-131v89h87q-28 60 -28 113q0 59 32 107.5t88 76t125 27.5q97 0 163 -50.5t91 -143.5l-135 -31q-28 103 -124 103q-47 0 -76 -28.5t-29 -76.5q0 -45 26 -97h193v-89h-143q28 -56 28 -109
q0 -25 -4 -44q23 -15 44 -23.5t45 -8.5q77 0 77 107l130 -5q0 -104 -48.5 -164.5t-131.5 -60.5q-48 0 -85 17t-71 47q-24 -30 -58 -47t-74 -17q-66 0 -106.5 34zM147 84q11 -11 29 -11q22 0 35 16t15 46q-24 16 -51 16q-17 0 -28 -11t-11 -28t11 -28z" />
    <glyph glyph-name="currency" unicode="&#xa4;" horiz-adv-x="716" 
d="M42 111l95 96q-50 69 -50 156t50 156l-95 98l66 66l98 -98q67 45 152 45q87 0 153 -46l98 98l65 -65l-96 -97q51 -69 51 -157q0 -44 -13.5 -84t-37.5 -73l97 -96l-65 -66l-99 98q-66 -46 -153 -46q-85 0 -153 46l-96 -97zM233.5 286q19.5 -35 52.5 -55t72 -20q40 0 73 20
t52.5 55t19.5 77t-19.5 77t-52.5 55t-73 20q-39 0 -72.5 -20t-52.5 -55t-19 -77t19.5 -77z" />
    <glyph glyph-name="yen" unicode="&#xa5;" horiz-adv-x="740" 
d="M301 131h-180v73h180v60h-180v73h139l-243 363h167l194 -304l187 304h159l-236 -363h131v-73h-173v-60h173v-73h-173v-131h-145v131z" />
    <glyph glyph-name="brokenbar" unicode="&#xa6;" horiz-adv-x="367" 
d="M120 700h127v-412h-127v412zM120 204h127v-412h-127v412z" />
    <glyph glyph-name="section" unicode="&#xa7;" horiz-adv-x="539" 
d="M130 -17.5q-57 36.5 -79 106.5l119 24q16 -32 41 -47.5t65 -15.5q33 0 53 12.5t20 34.5q0 19 -10.5 30.5t-42.5 22.5l-105 35q-85 29 -118.5 62.5t-33.5 89.5q0 40 18 71t53 51q-43 39 -43 95q0 71 56 114t146 43q83 0 140 -36.5t79 -106.5l-119 -23q-16 32 -41 47.5
t-65 15.5q-33 0 -53 -13t-20 -35q0 -19 10.5 -30t42.5 -22l105 -35q85 -29 118.5 -62.5t33.5 -90.5q0 -39 -18.5 -70t-53.5 -51q44 -38 44 -96q0 -71 -55.5 -114t-146.5 -43q-83 0 -140 36.5zM169.5 312.5q16.5 -16.5 52.5 -27.5l114 -37l7 -2q20 8 31.5 23.5t11.5 35.5
q0 23 -16 39.5t-52 28.5l-115 36l-7 2q-20 -8 -31.5 -23.5t-11.5 -34.5q0 -24 16.5 -40.5z" />
    <glyph glyph-name="dieresis" unicode="&#xa8;" 
d="M151.5 625.5q-20.5 20.5 -20.5 51.5t20.5 51.5t51.5 20.5t51.5 -20.5t20.5 -51.5t-20.5 -51.5t-51.5 -20.5t-51.5 20.5zM375.5 728.5q20.5 20.5 51.5 20.5t51.5 -20.5t20.5 -51.5t-20.5 -51.5t-51.5 -20.5t-51.5 20.5t-20.5 51.5t20.5 51.5z" />
    <glyph glyph-name="copyright" unicode="&#xa9;" horiz-adv-x="818" 
d="M228.5 37q-82.5 48 -130 131t-47.5 182t47.5 182t130 131t180.5 48q99 0 181 -48t129.5 -130.5t47.5 -182.5t-47.5 -182.5t-129.5 -130.5t-181 -48q-98 0 -180.5 48zM160.5 202q38.5 -68 104.5 -107.5t144 -39.5q79 0 145.5 39.5t105 107.5t38.5 148t-38.5 148
t-105 107.5t-145.5 39.5q-78 0 -144 -39.5t-104.5 -107.5t-38.5 -148t38.5 -148zM247.5 449q24.5 43 68 67.5t99.5 24.5q66 0 112 -33.5t56 -89.5l-100 -20q-16 49 -70 49q-36 0 -59.5 -27.5t-23.5 -68.5q0 -42 23.5 -68.5t59.5 -26.5q53 0 70 48l100 -20q-10 -56 -56 -89.5
t-112 -33.5q-56 0 -99.5 24.5t-68 68t-24.5 97.5q0 55 24.5 98z" />
    <glyph glyph-name="ordfeminine" unicode="&#xaa;" horiz-adv-x="468" 
d="M82.5 336q-38.5 33 -38.5 84q0 55 40.5 85t119.5 33q56 3 97 17q-3 63 -74 63q-60 0 -81 -54l-102 23q17 60 65.5 92t119.5 32q82 0 129.5 -41t47.5 -112v-248h-105v45q-19 -24 -51 -38t-68 -14q-61 0 -99.5 33zM161.5 390q16.5 -11 44.5 -11q43 0 69 25.5t26 66.5v16
q-31 -12 -85 -15q-71 -6 -71 -52q0 -19 16.5 -30z" />
    <glyph glyph-name="guillemotleft" unicode="&#xab;" horiz-adv-x="709" 
d="M34 261l242 260h140l-236 -259l239 -262h-143zM281 261l242 260h140l-236 -259l239 -262h-143z" />
    <glyph glyph-name="logicalnot" unicode="&#xac;" horiz-adv-x="624" 
d="M446 240h-372v103h478v-343h-106v240z" />
    <glyph glyph-name="uni00AD" unicode="&#xad;" horiz-adv-x="496" 
d="M56 343h376v-116h-376v116z" />
    <glyph glyph-name="registered" unicode="&#xae;" horiz-adv-x="517" 
d="M155 333.5q-47 27.5 -74 75t-27 104.5t27 104t74 74.5t103 27.5t103 -27.5t74.5 -74.5t27.5 -104t-27.5 -104.5t-74.5 -75t-103 -27.5t-103 27.5zM146 396.5q44 -45.5 112 -45.5q69 0 113 45.5t44 116.5t-44 116.5t-113 45.5q-68 0 -112 -45.5t-44 -116.5t44 -116.5z
M185 608h90q29 0 47.5 -14.5t18.5 -38.5q0 -16 -9 -29t-25 -20q19 -4 21 -23l5 -42q1 -14 4 -21h-47q-4 6 -5 19l-3 32q-1 15 -20 15h-29v-66h-48v188zM267 520q13 0 20.5 7t7.5 19q0 25 -28 25h-34v-51h34z" />
    <glyph glyph-name="macron" unicode="&#xaf;" 
d="M155 711h320v-86h-320v86z" />
    <glyph glyph-name="degree" unicode="&#xb0;" horiz-adv-x="433" 
d="M139.5 434q-34.5 20 -54.5 54.5t-20 74.5t20 74t54.5 54t76.5 20t77 -20t55 -54t20 -74t-20 -74.5t-55 -54.5t-77 -20t-76.5 20zM161 508.5q23 -22.5 55 -22.5t55 22.5t23 54.5q0 31 -23 53.5t-55 22.5t-55 -22.5t-23 -53.5q0 -32 23 -54.5z" />
    <glyph glyph-name="plusminus" unicode="&#xb1;" 
d="M98 101h434v-102h-434v102zM98 459h165v157h104v-157h165v-102h-165v-158h-104v158h-165v102z" />
    <glyph glyph-name="uni00B2" unicode="&#xb2;" horiz-adv-x="336" 
d="M113 514l78 37q18 10 27 20t9 24q0 20 -12.5 31.5t-34.5 11.5t-37 -13t-21 -37l-78 17q14 49 48.5 74.5t87.5 25.5q59 0 92.5 -30t33.5 -83q0 -36 -17.5 -59.5t-53.5 -40.5l-65 -27q-20 -10 -29 -22t-11 -27h176v-66h-262v44q0 88 69 120z" />
    <glyph glyph-name="uni00B3" unicode="&#xb3;" horiz-adv-x="358" 
d="M32 448l77 17q5 -27 20.5 -40t43.5 -13q22 0 37 11.5t15 31.5t-11 30t-31 10h-48v63h44q20 0 31.5 9.5t11.5 27.5q0 19 -13 31t-34 12q-50 0 -58 -48l-76 17q12 48 46.5 73.5t88.5 25.5q52 0 85.5 -27.5t33.5 -70.5q0 -54 -57 -78q31 -6 48.5 -27.5t17.5 -53.5
q0 -44 -38.5 -74t-96.5 -30q-113 0 -137 103z" />
    <glyph glyph-name="acute" unicode="&#xb4;" 
d="M324 738h156l-135 -130h-111z" />
    <glyph glyph-name="uni00B5" unicode="&#xb5;" horiz-adv-x="645" 
d="M78 521h137v-311q0 -50 29 -79.5t78 -29.5q69 0 108 62v358h137v-521h-137v85q-59 -94 -154 -94q-35 0 -61 14v-209h-137v725z" />
    <glyph glyph-name="paragraph" unicode="&#xb6;" horiz-adv-x="730" 
d="M329 253h-38q-73 0 -129.5 28t-88 78t-31.5 114q0 68 31 119.5t87.5 79.5t130.5 28h359v-700h-113v253h-96v-253h-112v253zM197.5 392.5q33.5 -31.5 88.5 -31.5h43v228h-43q-55 0 -88.5 -31t-33.5 -82q0 -52 33.5 -83.5zM537 361v228h-96v-228h96z" />
    <glyph glyph-name="periodcentered" unicode="&#xb7;" horiz-adv-x="280" 
d="M83 228.5q-24 23.5 -24 57.5q0 33 24 57t57 24t57 -24t24 -57q0 -34 -24 -57.5t-57 -23.5t-57 23.5z" />
    <glyph glyph-name="cedilla" unicode="&#xb8;" horiz-adv-x="30" 
d="M239.5 -215.5q-32.5 20.5 -44.5 60.5l74 15q14 -32 53 -32q23 0 37 10.5t14 27.5t-14.5 27t-40.5 10h-42l28 97h67l-14 -46q44 -4 69.5 -27.5t25.5 -61.5q0 -46 -35.5 -73.5t-94.5 -27.5q-50 0 -82.5 20.5z" />
    <glyph glyph-name="uni00B9" unicode="&#xb9;" horiz-adv-x="225" 
d="M104 615l-73 -29v72l105 42h53v-350h-85v265z" />
    <glyph glyph-name="ordmasculine" unicode="&#xba;" horiz-adv-x="513" 
d="M150 328q-48 27 -76 74t-28 104t28 104t76 74t106 27t106.5 -27t76.5 -74t28 -104t-28 -104t-76.5 -74t-106.5 -27t-106 27zM182 428q30 -32 74 -32t74 31.5t30 78.5t-30 79t-74 32t-74 -32.5t-30 -78.5t30 -78z" />
    <glyph glyph-name="guillemotright" unicode="&#xbb;" horiz-adv-x="709" 
d="M675 260l-243 -260h-139l235 259l-238 262h142zM185 521l242 -261l-242 -260h-140l236 259l-239 262h143z" />
    <glyph glyph-name="onequarter" unicode="&#xbc;" horiz-adv-x="695" 
d="M541 77h-196v68l182 205h99v-204h44v-69h-44v-77h-85v77zM31 658l105 42h53v-350h-85v265l-73 -29v72zM464 700h103l-397 -700h-102zM541 146v113l-101 -113h101z" />
    <glyph glyph-name="onehalf" unicode="&#xbd;" horiz-adv-x="723" 
d="M104 615l-73 -29v72l105 42h53v-350h-85v265zM464 700h103l-397 -700h-102zM430 44q0 88 69 120l78 37q18 10 27 20t9 24q0 20 -12.5 31.5t-34.5 11.5t-37 -13t-21 -37l-78 17q14 49 48.5 74.5t87.5 25.5q59 0 92.5 -30t33.5 -83q0 -36 -17.5 -59.5t-53.5 -40.5l-65 -27
q-20 -10 -29 -22t-11 -27h176v-66h-262v44z" />
    <glyph glyph-name="threequarters" unicode="&#xbe;" horiz-adv-x="788" 
d="M635 77h-197v68l183 205h98v-204h44v-69h-44v-77h-84v77zM109 465q5 -27 20.5 -40t43.5 -13q22 0 37 11.5t15 31.5t-11 30t-31 10h-48v63h44q20 0 31.5 9.5t11.5 27.5q0 19 -13 31t-34 12q-50 0 -58 -48l-76 17q12 48 46.5 73.5t88.5 25.5q52 0 85.5 -27.5t33.5 -70.5
q0 -54 -57 -78q31 -6 48.5 -27.5t17.5 -53.5q0 -44 -38.5 -74t-96.5 -30q-113 0 -137 103zM557 700h103l-397 -700h-102zM635 146v113l-102 -113h102z" />
    <glyph glyph-name="questiondown" unicode="&#xbf;" horiz-adv-x="556" 
d="M353 258q0 -56 -17.5 -91t-60.5 -66l-51 -38q-30 -21 -42 -40.5t-12 -42.5q0 -35 28.5 -57t76.5 -22q51 0 85.5 25t46.5 70l123 -27q-20 -86 -92 -134.5t-168 -48.5q-69 0 -122 24.5t-82 67t-29 95.5q0 55 25 93.5t94 86.5l27 19q31 21 44 46.5t11 66.5h114q1 -10 1 -27z
M237.5 481.5q23.5 23.5 57.5 23.5q33 0 57 -23.5t24 -57.5q0 -33 -24 -57t-57 -24q-34 0 -57.5 24t-23.5 57q0 34 23.5 57.5z" />
    <glyph glyph-name="Agrave" unicode="&#xc0;" horiz-adv-x="762" 
d="M299 700h167l285 -700h-157l-71 184h-289l-72 -184h-151zM479 300l-100 258l-100 -258h200zM205 917h158l88 -130h-111z" />
    <glyph glyph-name="Aacute" unicode="&#xc1;" horiz-adv-x="762" 
d="M299 700h167l285 -700h-157l-71 184h-289l-72 -184h-151zM479 300l-100 258l-100 -258h200zM390 917h156l-135 -130h-111z" />
    <glyph glyph-name="Acircumflex" unicode="&#xc2;" horiz-adv-x="762" 
d="M299 700h167l285 -700h-157l-71 184h-289l-72 -184h-151zM479 300l-100 258l-100 -258h200zM379 858l-73 -74h-110l115 136h140l115 -136h-113z" />
    <glyph glyph-name="Atilde" unicode="&#xc3;" horiz-adv-x="762" 
d="M299 700h167l285 -700h-157l-71 184h-289l-72 -184h-151zM479 300l-100 258l-100 -258h200zM228.5 885q28.5 30 72.5 30q21 0 41 -7.5t47 -21.5q22 -11 35 -16t24 -5q17 0 26.5 12t17.5 42l82 -18q-24 -122 -113 -122q-19 0 -38 7t-48 21q-17 8 -33.5 15t-28.5 7
q-17 0 -26.5 -12.5t-15.5 -40.5l-84 18q13 61 41.5 91z" />
    <glyph glyph-name="Adieresis" unicode="&#xc4;" horiz-adv-x="762" 
d="M299 700h167l285 -700h-157l-71 184h-289l-72 -184h-151zM479 300l-100 258l-100 -258h200zM217.5 804.5q-20.5 20.5 -20.5 51.5t20.5 51.5t51.5 20.5t51.5 -20.5t20.5 -51.5t-20.5 -51.5t-51.5 -20.5t-51.5 20.5zM441.5 907.5q20.5 20.5 51.5 20.5t51.5 -20.5
t20.5 -51.5t-20.5 -51.5t-51.5 -20.5t-51.5 20.5t-20.5 51.5t20.5 51.5z" />
    <glyph glyph-name="Aring" unicode="&#xc5;" horiz-adv-x="762" 
d="M299 700h167l285 -700h-157l-71 184h-289l-72 -184h-151zM479 300l-100 258l-100 -258h200zM294 799q-36 35 -36 85q0 33 16.5 60.5t45 44t61.5 16.5t61.5 -16.5t45 -44t16.5 -60.5q0 -50 -36 -85t-87 -35t-87 35zM336.5 840q18.5 -18 44.5 -18t44.5 18t18.5 44
t-18.5 44.5t-44.5 18.5t-44.5 -18.5t-18.5 -44.5t18.5 -44z" />
    <glyph glyph-name="AE" unicode="&#xc6;" horiz-adv-x="1012" 
d="M299 700h658v-126h-438l63 -160h247v-122h-200l65 -166h263v-126h-363l-71 184h-289l-72 -184h-151zM479 300l-99 258l-101 -258h200z" />
    <glyph glyph-name="Ccedilla" unicode="&#xc7;" horiz-adv-x="784" 
d="M320.5 -215.5q-32.5 20.5 -44.5 60.5l74 15q14 -32 53 -32q23 0 37 10.5t14 27.5t-14.5 27t-40.5 10h-42l25 87q-97 7 -172 54.5t-117 127t-42 178.5q0 104 46 186.5t128.5 128.5t187.5 46q84 0 153 -29.5t114.5 -83.5t59.5 -126l-147 -34q-18 67 -64 103.5t-117 36.5
q-62 0 -110 -29.5t-75 -81.5t-27 -117t27 -117t75.5 -81.5t110.5 -29.5q70 0 116 37t64 104l147 -35q-20 -100 -98.5 -164t-192.5 -74l-11 -36q44 -4 69.5 -27.5t25.5 -61.5q0 -46 -35.5 -73.5t-94.5 -27.5q-50 0 -82.5 20.5z" />
    <glyph glyph-name="Egrave" unicode="&#xc8;" horiz-adv-x="675" 
d="M78 700h538v-126h-393v-160h259v-122h-259v-166h397v-126h-542v700zM183 917h158l88 -130h-111z" />
    <glyph glyph-name="Eacute" unicode="&#xc9;" horiz-adv-x="675" 
d="M78 700h538v-126h-393v-160h259v-122h-259v-166h397v-126h-542v700zM368 917h156l-135 -130h-111z" />
    <glyph glyph-name="Ecircumflex" unicode="&#xca;" horiz-adv-x="675" 
d="M78 700h538v-126h-393v-160h259v-122h-259v-166h397v-126h-542v700zM357 858l-73 -74h-110l115 136h140l115 -136h-113z" />
    <glyph glyph-name="Edieresis" unicode="&#xcb;" horiz-adv-x="675" 
d="M78 700h538v-126h-393v-160h259v-122h-259v-166h397v-126h-542v700zM195.5 804.5q-20.5 20.5 -20.5 51.5t20.5 51.5t51.5 20.5t51.5 -20.5t20.5 -51.5t-20.5 -51.5t-51.5 -20.5t-51.5 20.5zM419.5 907.5q20.5 20.5 51.5 20.5t51.5 -20.5t20.5 -51.5t-20.5 -51.5
t-51.5 -20.5t-51.5 20.5t-20.5 51.5t20.5 51.5z" />
    <glyph glyph-name="Igrave" unicode="&#xcc;" horiz-adv-x="302" 
d="M78 700h145v-700h-145v700zM-25 917h158l88 -130h-111z" />
    <glyph glyph-name="Iacute" unicode="&#xcd;" horiz-adv-x="302" 
d="M78 700h145v-700h-145v700zM160 917h156l-135 -130h-111z" />
    <glyph glyph-name="Icircumflex" unicode="&#xce;" horiz-adv-x="302" 
d="M78 700h145v-700h-145v700zM149 858l-73 -74h-110l115 136h140l115 -136h-113z" />
    <glyph glyph-name="Idieresis" unicode="&#xcf;" horiz-adv-x="302" 
d="M78 700h145v-700h-145v700zM-12.5 804.5q-20.5 20.5 -20.5 51.5t20.5 51.5t51.5 20.5t51.5 -20.5t20.5 -51.5t-20.5 -51.5t-51.5 -20.5t-51.5 20.5zM211.5 907.5q20.5 20.5 51.5 20.5t51.5 -20.5t20.5 -51.5t-20.5 -51.5t-51.5 -20.5t-51.5 20.5t-20.5 51.5t20.5 51.5z
" />
    <glyph glyph-name="Eth" unicode="&#xd0;" horiz-adv-x="800" 
d="M110 293h-78v115h78v292h269q103 0 187.5 -46.5t133 -126.5t48.5 -178q0 -97 -48.5 -177t-133 -126t-187.5 -46h-269v293zM377 129q62 0 112.5 29t80 79.5t29.5 111.5q0 62 -29.5 112.5t-80 80t-112.5 29.5h-122v-163h165v-115h-165v-164h122z" />
    <glyph glyph-name="Ntilde" unicode="&#xd1;" horiz-adv-x="779" 
d="M78 700h138l348 -452v452h136v-700h-128l-357 468v-468h-137v700zM236.5 885q28.5 30 72.5 30q21 0 41 -7.5t47 -21.5q22 -11 35 -16t24 -5q17 0 26.5 12t17.5 42l82 -18q-24 -122 -113 -122q-19 0 -38 7t-48 21q-17 8 -33.5 15t-28.5 7q-17 0 -26.5 -12.5t-15.5 -40.5
l-84 18q13 61 41.5 91z" />
    <glyph glyph-name="Ograve" unicode="&#xd2;" horiz-adv-x="843" 
d="M234 37q-85 48 -134 131t-49 182t49 182t134 131t187 48t187 -48t134 -130.5t49 -182.5t-49 -182.5t-134 -130.5t-187 -48t-187 48zM229 234q29 -52 79.5 -82t112.5 -30t113 30t80 82t29 116t-29 116t-80 82t-113 30t-112.5 -30t-79.5 -82t-29 -116t29 -116zM245 917h158
l88 -130h-111z" />
    <glyph glyph-name="Oacute" unicode="&#xd3;" horiz-adv-x="843" 
d="M234 37q-85 48 -134 131t-49 182t49 182t134 131t187 48t187 -48t134 -130.5t49 -182.5t-49 -182.5t-134 -130.5t-187 -48t-187 48zM229 234q29 -52 79.5 -82t112.5 -30t113 30t80 82t29 116t-29 116t-80 82t-113 30t-112.5 -30t-79.5 -82t-29 -116t29 -116zM430 917h156
l-135 -130h-111z" />
    <glyph glyph-name="Ocircumflex" unicode="&#xd4;" horiz-adv-x="843" 
d="M234 37q-85 48 -134 131t-49 182t49 182t134 131t187 48t187 -48t134 -130.5t49 -182.5t-49 -182.5t-134 -130.5t-187 -48t-187 48zM229 234q29 -52 79.5 -82t112.5 -30t113 30t80 82t29 116t-29 116t-80 82t-113 30t-112.5 -30t-79.5 -82t-29 -116t29 -116zM419 858
l-73 -74h-110l115 136h140l115 -136h-113z" />
    <glyph glyph-name="Otilde" unicode="&#xd5;" horiz-adv-x="843" 
d="M234 37q-85 48 -134 131t-49 182t49 182t134 131t187 48t187 -48t134 -130.5t49 -182.5t-49 -182.5t-134 -130.5t-187 -48t-187 48zM229 234q29 -52 79.5 -82t112.5 -30t113 30t80 82t29 116t-29 116t-80 82t-113 30t-112.5 -30t-79.5 -82t-29 -116t29 -116zM268.5 885
q28.5 30 72.5 30q21 0 41 -7.5t47 -21.5q22 -11 35 -16t24 -5q17 0 26.5 12t17.5 42l82 -18q-24 -122 -113 -122q-19 0 -38 7t-48 21q-17 8 -33.5 15t-28.5 7q-17 0 -26.5 -12.5t-15.5 -40.5l-84 18q13 61 41.5 91z" />
    <glyph glyph-name="Odieresis" unicode="&#xd6;" horiz-adv-x="843" 
d="M234 37q-85 48 -134 131t-49 182t49 182t134 131t187 48t187 -48t134 -130.5t49 -182.5t-49 -182.5t-134 -130.5t-187 -48t-187 48zM229 234q29 -52 79.5 -82t112.5 -30t113 30t80 82t29 116t-29 116t-80 82t-113 30t-112.5 -30t-79.5 -82t-29 -116t29 -116zM257.5 804.5
q-20.5 20.5 -20.5 51.5t20.5 51.5t51.5 20.5t51.5 -20.5t20.5 -51.5t-20.5 -51.5t-51.5 -20.5t-51.5 20.5zM481.5 907.5q20.5 20.5 51.5 20.5t51.5 -20.5t20.5 -51.5t-20.5 -51.5t-51.5 -20.5t-51.5 20.5t-20.5 51.5t20.5 51.5z" />
    <glyph glyph-name="multiply" unicode="&#xd7;" 
d="M111 206l141 152l-142 153l63 67l143 -153l142 152l62 -65l-143 -152l143 -153l-63 -67l-143 152l-141 -151z" />
    <glyph glyph-name="Oslash" unicode="&#xd8;" horiz-adv-x="843" 
d="M227 42l-35 -42h-128l85 103q-47 49 -72.5 112.5t-25.5 134.5q0 99 49 182t134 131t187 48t189 -49l32 38h129l-82 -99q49 -49 75.5 -113.5t26.5 -137.5q0 -100 -49 -182.5t-134 -130.5t-187 -48q-107 0 -194 53zM242 215l279 339q-46 24 -100 24q-62 0 -112.5 -30
t-79.5 -82t-29 -116q0 -77 42 -135zM421 122q62 0 113 30t80 82t29 116q0 80 -46 140l-282 -341q49 -27 106 -27z" />
    <glyph glyph-name="Ugrave" unicode="&#xd9;" horiz-adv-x="755" 
d="M213 28q-70 38 -108 108.5t-38 165.5v398h145v-398q0 -82 45 -130t121 -48q75 0 120 48t45 130v398h144v-398q0 -94 -38 -164.5t-108.5 -109t-163.5 -38.5q-94 0 -164 38zM201 917h158l88 -130h-111z" />
    <glyph glyph-name="Uacute" unicode="&#xda;" horiz-adv-x="755" 
d="M213 28q-70 38 -108 108.5t-38 165.5v398h145v-398q0 -82 45 -130t121 -48q75 0 120 48t45 130v398h144v-398q0 -94 -38 -164.5t-108.5 -109t-163.5 -38.5q-94 0 -164 38zM387 917h156l-135 -130h-111z" />
    <glyph glyph-name="Ucircumflex" unicode="&#xdb;" horiz-adv-x="755" 
d="M213 28q-70 38 -108 108.5t-38 165.5v398h145v-398q0 -82 45 -130t121 -48q75 0 120 48t45 130v398h144v-398q0 -94 -38 -164.5t-108.5 -109t-163.5 -38.5q-94 0 -164 38zM376 858l-73 -74h-110l115 136h140l115 -136h-113z" />
    <glyph glyph-name="Udieresis" unicode="&#xdc;" horiz-adv-x="755" 
d="M213 28q-70 38 -108 108.5t-38 165.5v398h145v-398q0 -82 45 -130t121 -48q75 0 120 48t45 130v398h144v-398q0 -94 -38 -164.5t-108.5 -109t-163.5 -38.5q-94 0 -164 38zM214.5 804.5q-20.5 20.5 -20.5 51.5t20.5 51.5t51.5 20.5t51.5 -20.5t20.5 -51.5t-20.5 -51.5
t-51.5 -20.5t-51.5 20.5zM438.5 907.5q20.5 20.5 51.5 20.5t51.5 -20.5t20.5 -51.5t-20.5 -51.5t-51.5 -20.5t-51.5 20.5t-20.5 51.5t20.5 51.5z" />
    <glyph glyph-name="Yacute" unicode="&#xdd;" horiz-adv-x="735" 
d="M295 268l-286 432h167l196 -304l197 304h158l-287 -433v-267h-145v268zM377 917h156l-135 -130h-111z" />
    <glyph glyph-name="Thorn" unicode="&#xde;" horiz-adv-x="708" 
d="M78 700h145v-130h206q66 0 119 -29t83 -79.5t30 -113.5q0 -61 -30 -110.5t-83 -78t-119 -28.5h-206v-131h-145v700zM413 251q44 0 72.5 27t28.5 70t-28.5 70.5t-72.5 27.5h-190v-195h190z" />
    <glyph glyph-name="germandbls" unicode="&#xdf;" horiz-adv-x="715" 
d="M346 18q-55 29 -88 84l94 59q39 -69 127 -69q41 0 63 14t22 41q0 20 -14.5 33t-49.5 24l-82 25q-55 16 -80 44.5t-25 69.5t24.5 66t70.5 53q35 22 51 36.5t16 35.5q0 29 -34 48.5t-90 19.5q-146 0 -146 -149v-453h-136v446q0 126 76 195.5t208 69.5q76 0 133.5 -20.5
t89.5 -59t32 -88.5q0 -37 -15 -62t-35.5 -39.5t-52.5 -30.5q-31 -16 -45 -27t-14 -29q0 -14 11 -23.5t40 -18.5l66 -20q67 -21 96.5 -55t29.5 -87q0 -74 -57.5 -118t-154.5 -44q-76 0 -131 29z" />
    <glyph glyph-name="agrave" unicode="&#xe0;" horiz-adv-x="592" 
d="M100 33.5q-50 42.5 -50 113.5q0 69 53.5 108t158.5 45q79 4 131 25q-3 41 -28.5 64t-71.5 23q-41 0 -69.5 -20.5t-38.5 -57.5l-126 29q18 80 80.5 124t157.5 44q107 0 168.5 -54.5t61.5 -149.5v-327h-134v59q-25 -32 -68 -50t-93 -18q-82 0 -132 42.5zM202.5 103.5
q22.5 -14.5 63.5 -14.5q56 0 91.5 31.5t35.5 82.5v34q-21 -10 -46 -15t-67 -9q-100 -7 -100 -66q0 -29 22.5 -43.5zM116 738h158l88 -130h-111z" />
    <glyph glyph-name="aacute" unicode="&#xe1;" horiz-adv-x="592" 
d="M100 33.5q-50 42.5 -50 113.5q0 69 53.5 108t158.5 45q79 4 131 25q-3 41 -28.5 64t-71.5 23q-41 0 -69.5 -20.5t-38.5 -57.5l-126 29q18 80 80.5 124t157.5 44q107 0 168.5 -54.5t61.5 -149.5v-327h-134v59q-25 -32 -68 -50t-93 -18q-82 0 -132 42.5zM202.5 103.5
q22.5 -14.5 63.5 -14.5q56 0 91.5 31.5t35.5 82.5v34q-21 -10 -46 -15t-67 -9q-100 -7 -100 -66q0 -29 22.5 -43.5zM301 738h156l-135 -130h-111z" />
    <glyph glyph-name="acircumflex" unicode="&#xe2;" horiz-adv-x="592" 
d="M100 33.5q-50 42.5 -50 113.5q0 69 53.5 108t158.5 45q79 4 131 25q-3 41 -28.5 64t-71.5 23q-41 0 -69.5 -20.5t-38.5 -57.5l-126 29q18 80 80.5 124t157.5 44q107 0 168.5 -54.5t61.5 -149.5v-327h-134v59q-25 -32 -68 -50t-93 -18q-82 0 -132 42.5zM202.5 103.5
q22.5 -14.5 63.5 -14.5q56 0 91.5 31.5t35.5 82.5v34q-21 -10 -46 -15t-67 -9q-100 -7 -100 -66q0 -29 22.5 -43.5zM290 679l-73 -74h-110l115 136h140l115 -136h-113z" />
    <glyph glyph-name="atilde" unicode="&#xe3;" horiz-adv-x="592" 
d="M100 33.5q-50 42.5 -50 113.5q0 69 53.5 108t158.5 45q79 4 131 25q-3 41 -28.5 64t-71.5 23q-41 0 -69.5 -20.5t-38.5 -57.5l-126 29q18 80 80.5 124t157.5 44q107 0 168.5 -54.5t61.5 -149.5v-327h-134v59q-25 -32 -68 -50t-93 -18q-82 0 -132 42.5zM202.5 103.5
q22.5 -14.5 63.5 -14.5q56 0 91.5 31.5t35.5 82.5v34q-21 -10 -46 -15t-67 -9q-100 -7 -100 -66q0 -29 22.5 -43.5zM139.5 706q28.5 30 72.5 30q21 0 41 -7.5t47 -21.5q22 -11 35 -16t24 -5q17 0 26.5 12t17.5 42l82 -18q-24 -122 -113 -122q-19 0 -38 7t-48 21
q-17 8 -33.5 15t-28.5 7q-17 0 -26.5 -12.5t-15.5 -40.5l-84 18q13 61 41.5 91z" />
    <glyph glyph-name="adieresis" unicode="&#xe4;" horiz-adv-x="592" 
d="M100 33.5q-50 42.5 -50 113.5q0 69 53.5 108t158.5 45q79 4 131 25q-3 41 -28.5 64t-71.5 23q-41 0 -69.5 -20.5t-38.5 -57.5l-126 29q18 80 80.5 124t157.5 44q107 0 168.5 -54.5t61.5 -149.5v-327h-134v59q-25 -32 -68 -50t-93 -18q-82 0 -132 42.5zM202.5 103.5
q22.5 -14.5 63.5 -14.5q56 0 91.5 31.5t35.5 82.5v34q-21 -10 -46 -15t-67 -9q-100 -7 -100 -66q0 -29 22.5 -43.5zM128.5 625.5q-20.5 20.5 -20.5 51.5t20.5 51.5t51.5 20.5t51.5 -20.5t20.5 -51.5t-20.5 -51.5t-51.5 -20.5t-51.5 20.5zM352.5 728.5q20.5 20.5 51.5 20.5
t51.5 -20.5t20.5 -51.5t-20.5 -51.5t-51.5 -20.5t-51.5 20.5t-20.5 51.5t20.5 51.5z" />
    <glyph glyph-name="aring" unicode="&#xe5;" horiz-adv-x="592" 
d="M100 33.5q-50 42.5 -50 113.5q0 69 53.5 108t158.5 45q79 4 131 25q-3 41 -28.5 64t-71.5 23q-41 0 -69.5 -20.5t-38.5 -57.5l-126 29q18 80 80.5 124t157.5 44q107 0 168.5 -54.5t61.5 -149.5v-327h-134v59q-25 -32 -68 -50t-93 -18q-82 0 -132 42.5zM202.5 103.5
q22.5 -14.5 63.5 -14.5q56 0 91.5 31.5t35.5 82.5v34q-21 -10 -46 -15t-67 -9q-100 -7 -100 -66q0 -29 22.5 -43.5zM205 620q-36 35 -36 85q0 33 16.5 60.5t45 44t61.5 16.5t61.5 -16.5t45 -44t16.5 -60.5q0 -50 -36 -85t-87 -35t-87 35zM247.5 661q18.5 -18 44.5 -18
t44.5 18t18.5 44t-18.5 44.5t-44.5 18.5t-44.5 -18.5t-18.5 -44.5t18.5 -44z" />
    <glyph glyph-name="ae" unicode="&#xe6;" horiz-adv-x="961" 
d="M526 21q-58 31 -91 86q-23 -58 -77.5 -87t-125.5 -29q-82 0 -132 42t-50 112q0 71 53.5 110t158.5 45q79 4 131 25q-2 40 -27.5 63.5t-72.5 23.5q-41 0 -69.5 -20.5t-38.5 -57.5l-126 29q18 80 80.5 124t157.5 44q121 0 176 -72q35 35 81.5 53.5t102.5 18.5q76 0 135 -35
t91.5 -97.5t32.5 -141.5v-33h-393q5 -53 43 -87t96 -34q45 0 77.5 22t51.5 62l119 -44q-34 -73 -97.5 -113t-149.5 -40q-79 0 -137 31zM202.5 103q22.5 -14 63.5 -14q56 0 91.5 31.5t35.5 82.5v34q-21 -10 -46 -15t-67 -9q-100 -7 -100 -68q0 -28 22.5 -42zM784 310
q-8 49 -42 78.5t-85 29.5t-87 -30t-45 -78h259z" />
    <glyph glyph-name="ccedilla" unicode="&#xe7;" horiz-adv-x="602" 
d="M227.5 -215.5q-32.5 20.5 -44.5 60.5l74 15q14 -32 53 -32q23 0 37 10.5t14 27.5t-14.5 27t-40.5 10h-42l26 88q-70 7 -126 43.5t-87.5 95.5t-31.5 131q0 77 36 138.5t98.5 96.5t140.5 35q61 0 113 -22.5t87 -62.5t46 -91l-128 -29q-13 41 -44 63.5t-74 22.5
q-61 0 -100 -43t-39 -109t39 -108.5t100 -42.5q44 0 74 22.5t40 63.5l132 -29q-16 -70 -73 -117t-136 -57l-12 -38q44 -4 69.5 -27.5t25.5 -61.5q0 -46 -35.5 -73.5t-94.5 -27.5q-50 0 -82.5 20.5z" />
    <glyph glyph-name="egrave" unicode="&#xe8;" horiz-adv-x="616" 
d="M172 25.5q-62 35.5 -94.5 96.5t-32.5 137q0 78 34.5 140t95.5 97t138 35q76 0 135 -35t91 -97.5t32 -141.5v-33h-393q5 -53 43.5 -87t95.5 -34q46 0 79 22t51 62l119 -44q-34 -73 -97.5 -113t-149.5 -40q-85 0 -147 35.5zM440 310q-8 49 -42.5 78.5t-84.5 29.5
q-51 0 -87 -30t-46 -78h260zM135 738h158l88 -130h-111z" />
    <glyph glyph-name="eacute" unicode="&#xe9;" horiz-adv-x="616" 
d="M172 25.5q-62 35.5 -94.5 96.5t-32.5 137q0 78 34.5 140t95.5 97t138 35q76 0 135 -35t91 -97.5t32 -141.5v-33h-393q5 -53 43.5 -87t95.5 -34q46 0 79 22t51 62l119 -44q-34 -73 -97.5 -113t-149.5 -40q-85 0 -147 35.5zM440 310q-8 49 -42.5 78.5t-84.5 29.5
q-51 0 -87 -30t-46 -78h260zM320 738h156l-135 -130h-111z" />
    <glyph glyph-name="ecircumflex" unicode="&#xea;" horiz-adv-x="616" 
d="M172 25.5q-62 35.5 -94.5 96.5t-32.5 137q0 78 34.5 140t95.5 97t138 35q76 0 135 -35t91 -97.5t32 -141.5v-33h-393q5 -53 43.5 -87t95.5 -34q46 0 79 22t51 62l119 -44q-34 -73 -97.5 -113t-149.5 -40q-85 0 -147 35.5zM440 310q-8 49 -42.5 78.5t-84.5 29.5
q-51 0 -87 -30t-46 -78h260zM309 679l-73 -74h-110l115 136h140l115 -136h-113z" />
    <glyph glyph-name="edieresis" unicode="&#xeb;" horiz-adv-x="616" 
d="M172 25.5q-62 35.5 -94.5 96.5t-32.5 137q0 78 34.5 140t95.5 97t138 35q76 0 135 -35t91 -97.5t32 -141.5v-33h-393q5 -53 43.5 -87t95.5 -34q46 0 79 22t51 62l119 -44q-34 -73 -97.5 -113t-149.5 -40q-85 0 -147 35.5zM440 310q-8 49 -42.5 78.5t-84.5 29.5
q-51 0 -87 -30t-46 -78h260zM147.5 625.5q-20.5 20.5 -20.5 51.5t20.5 51.5t51.5 20.5t51.5 -20.5t20.5 -51.5t-20.5 -51.5t-51.5 -20.5t-51.5 20.5zM371.5 728.5q20.5 20.5 51.5 20.5t51.5 -20.5t20.5 -51.5t-20.5 -51.5t-51.5 -20.5t-51.5 20.5t-20.5 51.5t20.5 51.5z" />
    <glyph glyph-name="igrave" unicode="&#xec;" horiz-adv-x="274" 
d="M69 521h137v-521h-137v521zM-39 738h158l88 -130h-111z" />
    <glyph glyph-name="iacute" unicode="&#xed;" horiz-adv-x="274" 
d="M69 521h137v-521h-137v521zM146 738h156l-135 -130h-111z" />
    <glyph glyph-name="icircumflex" unicode="&#xee;" horiz-adv-x="274" 
d="M69 521h137v-521h-137v521zM135 679l-73 -74h-110l115 136h140l115 -136h-113z" />
    <glyph glyph-name="idieresis" unicode="&#xef;" horiz-adv-x="274" 
d="M69 521h137v-521h-137v521zM-26.5 625.5q-20.5 20.5 -20.5 51.5t20.5 51.5t51.5 20.5t51.5 -20.5t20.5 -51.5t-20.5 -51.5t-51.5 -20.5t-51.5 20.5zM197.5 728.5q20.5 20.5 51.5 20.5t51.5 -20.5t20.5 -51.5t-20.5 -51.5t-51.5 -20.5t-51.5 20.5t-20.5 51.5t20.5 51.5z
" />
    <glyph glyph-name="eth" unicode="&#xf0;" horiz-adv-x="627" 
d="M172.5 24.5q-59.5 33.5 -93.5 92t-34 129.5q0 63 33 118t88.5 87.5t119.5 32.5q88 0 142 -54q-16 71 -81 138l-88 -56l-51 71l67 44q-35 24 -82 41l70 92q65 -28 118 -66l98 63l51 -71l-81 -52q63 -65 95.5 -147t32.5 -175q0 -98 -33.5 -170.5t-95 -111.5t-145.5 -39
q-71 0 -130.5 33.5zM194.5 175.5q17.5 -29.5 47 -47t65.5 -17.5q53 0 90.5 37.5t37.5 92.5q0 54 -37.5 91.5t-90.5 37.5q-35 0 -65 -17t-47.5 -47t-17.5 -65q0 -36 17.5 -65.5z" />
    <glyph glyph-name="ntilde" unicode="&#xf1;" horiz-adv-x="623" 
d="M69 521h137v-43q59 53 146 53q60 0 107 -26.5t73 -73.5t26 -108v-323h-137v303q0 50 -29.5 80t-78.5 30q-69 0 -107 -52v-361h-137v521zM161.5 706q28.5 30 72.5 30q21 0 41 -7.5t47 -21.5q22 -11 35 -16t24 -5q17 0 26.5 12t17.5 42l82 -18q-24 -122 -113 -122
q-19 0 -38 7t-48 21q-17 8 -33.5 15t-28.5 7q-17 0 -26.5 -12.5t-15.5 -40.5l-84 18q13 61 41.5 91z" />
    <glyph glyph-name="ograve" unicode="&#xf2;" horiz-adv-x="646" 
d="M182.5 25.5q-63.5 35.5 -100.5 97.5t-37 137t37 137t100.5 98t140.5 36t140.5 -36t100.5 -98t37 -137t-37 -137t-100.5 -97.5t-140.5 -35.5t-140.5 35.5zM198 183.5q19 -34.5 52 -54.5t73 -20t73 20t52.5 54.5t19.5 76.5t-19.5 77t-52.5 55t-73 20q-39 0 -72 -20
t-52.5 -55t-19.5 -77t19 -76.5zM147 738h158l88 -130h-111z" />
    <glyph glyph-name="oacute" unicode="&#xf3;" horiz-adv-x="646" 
d="M182.5 25.5q-63.5 35.5 -100.5 97.5t-37 137t37 137t100.5 98t140.5 36t140.5 -36t100.5 -98t37 -137t-37 -137t-100.5 -97.5t-140.5 -35.5t-140.5 35.5zM198 183.5q19 -34.5 52 -54.5t73 -20t73 20t52.5 54.5t19.5 76.5t-19.5 77t-52.5 55t-73 20q-39 0 -72 -20
t-52.5 -55t-19.5 -77t19 -76.5zM332 738h156l-135 -130h-111z" />
    <glyph glyph-name="ocircumflex" unicode="&#xf4;" horiz-adv-x="646" 
d="M182.5 25.5q-63.5 35.5 -100.5 97.5t-37 137t37 137t100.5 98t140.5 36t140.5 -36t100.5 -98t37 -137t-37 -137t-100.5 -97.5t-140.5 -35.5t-140.5 35.5zM198 183.5q19 -34.5 52 -54.5t73 -20t73 20t52.5 54.5t19.5 76.5t-19.5 77t-52.5 55t-73 20q-39 0 -72 -20
t-52.5 -55t-19.5 -77t19 -76.5zM321 679l-73 -74h-110l115 136h140l115 -136h-113z" />
    <glyph glyph-name="otilde" unicode="&#xf5;" horiz-adv-x="646" 
d="M182.5 25.5q-63.5 35.5 -100.5 97.5t-37 137t37 137t100.5 98t140.5 36t140.5 -36t100.5 -98t37 -137t-37 -137t-100.5 -97.5t-140.5 -35.5t-140.5 35.5zM198 183.5q19 -34.5 52 -54.5t73 -20t73 20t52.5 54.5t19.5 76.5t-19.5 77t-52.5 55t-73 20q-39 0 -72 -20
t-52.5 -55t-19.5 -77t19 -76.5zM170.5 706q28.5 30 72.5 30q21 0 41 -7.5t47 -21.5q22 -11 35 -16t24 -5q17 0 26.5 12t17.5 42l82 -18q-24 -122 -113 -122q-19 0 -38 7t-48 21q-17 8 -33.5 15t-28.5 7q-17 0 -26.5 -12.5t-15.5 -40.5l-84 18q13 61 41.5 91z" />
    <glyph glyph-name="odieresis" unicode="&#xf6;" horiz-adv-x="646" 
d="M182.5 25.5q-63.5 35.5 -100.5 97.5t-37 137t37 137t100.5 98t140.5 36t140.5 -36t100.5 -98t37 -137t-37 -137t-100.5 -97.5t-140.5 -35.5t-140.5 35.5zM198 183.5q19 -34.5 52 -54.5t73 -20t73 20t52.5 54.5t19.5 76.5t-19.5 77t-52.5 55t-73 20q-39 0 -72 -20
t-52.5 -55t-19.5 -77t19 -76.5zM159.5 625.5q-20.5 20.5 -20.5 51.5t20.5 51.5t51.5 20.5t51.5 -20.5t20.5 -51.5t-20.5 -51.5t-51.5 -20.5t-51.5 20.5zM383.5 728.5q20.5 20.5 51.5 20.5t51.5 -20.5t20.5 -51.5t-20.5 -51.5t-51.5 -20.5t-51.5 20.5t-20.5 51.5t20.5 51.5z
" />
    <glyph glyph-name="divide" unicode="&#xf7;" 
d="M98 410h434v-103h-434v103zM258.5 198q23.5 24 56.5 24t56.5 -24t23.5 -57t-23.5 -57t-56.5 -24t-56.5 24t-23.5 57t23.5 57zM258.5 633q23.5 24 56.5 24t56.5 -24t23.5 -57t-23.5 -57t-56.5 -24t-56.5 24t-23.5 57t23.5 57z" />
    <glyph glyph-name="oslash" unicode="&#xf8;" horiz-adv-x="646" 
d="M178 29l-24 -29h-93l60 73q-36 36 -56 84.5t-20 102.5q0 75 37 137t100.5 98t140.5 36q80 0 144 -39l24 29h94l-60 -72q36 -38 56 -86.5t20 -102.5q0 -75 -37 -137t-100.5 -97.5t-140.5 -35.5q-79 0 -145 39zM204 174l184 222q-30 16 -65 16q-39 0 -72.5 -20t-52.5 -55
t-19 -77q0 -48 25 -86zM323 109q40 0 73 20t52 55t19 76q0 50 -26 87l-183 -222q30 -16 65 -16z" />
    <glyph glyph-name="ugrave" unicode="&#xf9;" horiz-adv-x="623" 
d="M164 16.5q-47 26.5 -73 73.5t-26 108v323h137v-303q0 -50 29.5 -80t78.5 -30q69 0 108 52v361h137v-521h-137v42q-60 -52 -147 -52q-60 0 -107 26.5zM136 738h158l88 -130h-111z" />
    <glyph glyph-name="uacute" unicode="&#xfa;" horiz-adv-x="623" 
d="M164 16.5q-47 26.5 -73 73.5t-26 108v323h137v-303q0 -50 29.5 -80t78.5 -30q69 0 108 52v361h137v-521h-137v42q-60 -52 -147 -52q-60 0 -107 26.5zM321 738h156l-135 -130h-111z" />
    <glyph glyph-name="ucircumflex" unicode="&#xfb;" horiz-adv-x="623" 
d="M164 16.5q-47 26.5 -73 73.5t-26 108v323h137v-303q0 -50 29.5 -80t78.5 -30q69 0 108 52v361h137v-521h-137v42q-60 -52 -147 -52q-60 0 -107 26.5zM310 679l-73 -74h-110l115 136h140l115 -136h-113z" />
    <glyph glyph-name="udieresis" unicode="&#xfc;" horiz-adv-x="623" 
d="M164 16.5q-47 26.5 -73 73.5t-26 108v323h137v-303q0 -50 29.5 -80t78.5 -30q69 0 108 52v361h137v-521h-137v42q-60 -52 -147 -52q-60 0 -107 26.5zM148.5 625.5q-20.5 20.5 -20.5 51.5t20.5 51.5t51.5 20.5t51.5 -20.5t20.5 -51.5t-20.5 -51.5t-51.5 -20.5t-51.5 20.5z
M372.5 728.5q20.5 20.5 51.5 20.5t51.5 -20.5t20.5 -51.5t-20.5 -51.5t-51.5 -20.5t-51.5 20.5t-20.5 51.5t20.5 51.5z" />
    <glyph glyph-name="yacute" unicode="&#xfd;" horiz-adv-x="606" 
d="M19 -182l45 108q30 -19 59 -19q32 0 54 17.5t32 48.5l9 22l-203 526h151l130 -355l147 355h148l-241 -563q-39 -92 -90.5 -132t-122.5 -40q-68 0 -118 32zM310 738h156l-135 -130h-111z" />
    <glyph glyph-name="thorn" unicode="&#xfe;" horiz-adv-x="664" 
d="M69 700l137 30v-251q61 49 146 49q73 0 133.5 -35.5t95.5 -97t35 -135.5t-35.5 -135t-97 -96.5t-135.5 -35.5q-80 0 -142 41v-243h-137v909zM261 122q32 -13 69 -13q42 0 77 20t55 54.5t20 76.5t-20 76.5t-55 54.5t-77 20q-79 0 -124 -50v-203q23 -23 55 -36z" />
    <glyph glyph-name="ydieresis" unicode="&#xff;" horiz-adv-x="606" 
d="M19 -182l45 108q30 -19 59 -19q32 0 54 17.5t32 48.5l9 22l-203 526h151l130 -355l147 355h148l-241 -563q-39 -92 -90.5 -132t-122.5 -40q-68 0 -118 32zM137.5 625.5q-20.5 20.5 -20.5 51.5t20.5 51.5t51.5 20.5t51.5 -20.5t20.5 -51.5t-20.5 -51.5t-51.5 -20.5
t-51.5 20.5zM361.5 728.5q20.5 20.5 51.5 20.5t51.5 -20.5t20.5 -51.5t-20.5 -51.5t-51.5 -20.5t-51.5 20.5t-20.5 51.5t20.5 51.5z" />
    <glyph glyph-name="Amacron" unicode="&#x100;" horiz-adv-x="762" 
d="M299 700h167l285 -700h-157l-71 184h-289l-72 -184h-151zM479 300l-100 258l-100 -258h200zM221 890h320v-86h-320v86z" />
    <glyph glyph-name="amacron" unicode="&#x101;" horiz-adv-x="592" 
d="M100 33.5q-50 42.5 -50 113.5q0 69 53.5 108t158.5 45q79 4 131 25q-3 41 -28.5 64t-71.5 23q-41 0 -69.5 -20.5t-38.5 -57.5l-126 29q18 80 80.5 124t157.5 44q107 0 168.5 -54.5t61.5 -149.5v-327h-134v59q-25 -32 -68 -50t-93 -18q-82 0 -132 42.5zM202.5 103.5
q22.5 -14.5 63.5 -14.5q56 0 91.5 31.5t35.5 82.5v34q-21 -10 -46 -15t-67 -9q-100 -7 -100 -66q0 -29 22.5 -43.5zM132 711h320v-86h-320v86z" />
    <glyph glyph-name="Abreve" unicode="&#x102;" horiz-adv-x="762" 
d="M299 700h167l285 -700h-157l-71 184h-289l-72 -184h-151zM479 300l-100 258l-100 -258h200zM267.5 814q-45.5 35 -61.5 100l84 22q24 -80 91 -80q68 0 91 80l84 -22q-16 -64 -61.5 -99.5t-113.5 -35.5t-113.5 35z" />
    <glyph glyph-name="abreve" unicode="&#x103;" horiz-adv-x="592" 
d="M100 33.5q-50 42.5 -50 113.5q0 69 53.5 108t158.5 45q79 4 131 25q-3 41 -28.5 64t-71.5 23q-41 0 -69.5 -20.5t-38.5 -57.5l-126 29q18 80 80.5 124t157.5 44q107 0 168.5 -54.5t61.5 -149.5v-327h-134v59q-25 -32 -68 -50t-93 -18q-82 0 -132 42.5zM202.5 103.5
q22.5 -14.5 63.5 -14.5q56 0 91.5 31.5t35.5 82.5v34q-21 -10 -46 -15t-67 -9q-100 -7 -100 -66q0 -29 22.5 -43.5zM178.5 635q-45.5 35 -61.5 100l84 22q24 -80 91 -80q68 0 91 80l84 -22q-16 -64 -61.5 -99.5t-113.5 -35.5t-113.5 35z" />
    <glyph glyph-name="Aogonek" unicode="&#x104;" horiz-adv-x="762" 
d="M299 700h167l285 -700h-1q-45 -28 -66.5 -53.5t-21.5 -51.5q0 -21 13 -32.5t37 -11.5q23 0 39 12l24 -58q-15 -12 -38.5 -19t-49.5 -7q-47 0 -76 25.5t-29 66.5q0 36 22 67t69 62h-79l-71 184h-289l-72 -184h-151zM479 300l-100 258l-100 -258h200z" />
    <glyph glyph-name="aogonek" unicode="&#x105;" horiz-adv-x="592" 
d="M100 33.5q-50 42.5 -50 113.5q0 69 53.5 108t158.5 45q79 4 131 25q-3 41 -28.5 64t-71.5 23q-41 0 -69.5 -20.5t-38.5 -57.5l-126 29q18 80 80.5 124t157.5 44q107 0 168.5 -54.5t61.5 -149.5v-327q-45 -28 -66.5 -53.5t-21.5 -51.5q0 -21 13 -32.5t37 -11.5q23 0 39 12
l24 -58q-15 -12 -38.5 -19t-49.5 -7q-47 0 -76 25.5t-29 66.5q0 36 22 67t69 62h-57v59q-25 -32 -68 -50t-93 -18q-82 0 -132 42.5zM202.5 103.5q22.5 -14.5 63.5 -14.5q56 0 91.5 31.5t35.5 82.5v34q-21 -10 -46 -15t-67 -9q-100 -7 -100 -66q0 -29 22.5 -43.5z" />
    <glyph glyph-name="Cacute" unicode="&#x106;" horiz-adv-x="784" 
d="M225.5 35q-82.5 46 -128.5 128.5t-46 186.5t46 186.5t128.5 128.5t187.5 46q84 0 153 -29.5t114.5 -83.5t59.5 -126l-147 -34q-18 67 -64 103.5t-117 36.5q-62 0 -110 -29.5t-75 -81.5t-27 -117t27 -117t75.5 -81.5t110.5 -29.5q70 0 116 37t64 104l147 -35
q-14 -72 -59.5 -126t-114.5 -83.5t-153 -29.5q-105 0 -187.5 46zM432 917h156l-135 -130h-111z" />
    <glyph glyph-name="cacute" unicode="&#x107;" horiz-adv-x="602" 
d="M180 25q-63 35 -99 97t-36 139t36 138.5t98.5 96.5t140.5 35q61 0 113 -22.5t87 -62.5t46 -91l-128 -29q-13 41 -44 63.5t-74 22.5q-61 0 -100 -43t-39 -109t39 -108.5t100 -42.5q44 0 74 22.5t40 63.5l132 -29q-11 -51 -46 -91t-87 -62.5t-113 -22.5q-77 0 -140 35z
M324 738h156l-135 -130h-111z" />
    <glyph glyph-name="Ccircumflex" unicode="&#x108;" horiz-adv-x="784" 
d="M225.5 35q-82.5 46 -128.5 128.5t-46 186.5t46 186.5t128.5 128.5t187.5 46q84 0 153 -29.5t114.5 -83.5t59.5 -126l-147 -34q-18 67 -64 103.5t-117 36.5q-62 0 -110 -29.5t-75 -81.5t-27 -117t27 -117t75.5 -81.5t110.5 -29.5q70 0 116 37t64 104l147 -35
q-14 -72 -59.5 -126t-114.5 -83.5t-153 -29.5q-105 0 -187.5 46zM421 858l-73 -74h-110l115 136h140l115 -136h-113z" />
    <glyph glyph-name="ccircumflex" unicode="&#x109;" horiz-adv-x="602" 
d="M180 25q-63 35 -99 97t-36 139t36 138.5t98.5 96.5t140.5 35q61 0 113 -22.5t87 -62.5t46 -91l-128 -29q-13 41 -44 63.5t-74 22.5q-61 0 -100 -43t-39 -109t39 -108.5t100 -42.5q44 0 74 22.5t40 63.5l132 -29q-11 -51 -46 -91t-87 -62.5t-113 -22.5q-77 0 -140 35z
M313 679l-73 -74h-110l115 136h140l115 -136h-113z" />
    <glyph glyph-name="Cdotaccent" unicode="&#x10a;" horiz-adv-x="784" 
d="M225.5 35q-82.5 46 -128.5 128.5t-46 186.5t46 186.5t128.5 128.5t187.5 46q84 0 153 -29.5t114.5 -83.5t59.5 -126l-147 -34q-18 67 -64 103.5t-117 36.5q-62 0 -110 -29.5t-75 -81.5t-27 -117t27 -117t75.5 -81.5t110.5 -29.5q70 0 116 37t64 104l147 -35
q-14 -72 -59.5 -126t-114.5 -83.5t-153 -29.5q-105 0 -187.5 46zM368 785q-23 23 -23 55t22.5 55t54.5 23t55 -23t23 -55t-23 -55t-55 -23q-31 0 -54 23z" />
    <glyph glyph-name="cdotaccent" unicode="&#x10b;" horiz-adv-x="602" 
d="M180 25q-63 35 -99 97t-36 139t36 138.5t98.5 96.5t140.5 35q61 0 113 -22.5t87 -62.5t46 -91l-128 -29q-13 41 -44 63.5t-74 22.5q-61 0 -100 -43t-39 -109t39 -108.5t100 -42.5q44 0 74 22.5t40 63.5l132 -29q-11 -51 -46 -91t-87 -62.5t-113 -22.5q-77 0 -140 35z
M261 606q-23 23 -23 55t22.5 55t54.5 23t55 -23t23 -55t-23 -55t-55 -23q-31 0 -54 23z" />
    <glyph glyph-name="Ccaron" unicode="&#x10c;" horiz-adv-x="784" 
d="M225.5 35q-82.5 46 -128.5 128.5t-46 186.5t46 186.5t128.5 128.5t187.5 46q84 0 153 -29.5t114.5 -83.5t59.5 -126l-147 -34q-18 67 -64 103.5t-117 36.5q-62 0 -110 -29.5t-75 -81.5t-27 -117t27 -117t75.5 -81.5t110.5 -29.5q70 0 116 37t64 104l147 -35
q-14 -72 -59.5 -126t-114.5 -83.5t-153 -29.5q-105 0 -187.5 46zM424 847l74 73h110l-115 -135h-140l-115 135h113z" />
    <glyph glyph-name="ccaron" unicode="&#x10d;" horiz-adv-x="602" 
d="M180 25q-63 35 -99 97t-36 139t36 138.5t98.5 96.5t140.5 35q61 0 113 -22.5t87 -62.5t46 -91l-128 -29q-13 41 -44 63.5t-74 22.5q-61 0 -100 -43t-39 -109t39 -108.5t100 -42.5q44 0 74 22.5t40 63.5l132 -29q-11 -51 -46 -91t-87 -62.5t-113 -22.5q-77 0 -140 35z
M316 668l74 73h110l-115 -135h-140l-115 135h113z" />
    <glyph glyph-name="Dcaron" unicode="&#x10e;" horiz-adv-x="768" 
d="M78 700h269q103 0 187.5 -46.5t133.5 -126.5t49 -178q0 -97 -49 -177t-133.5 -126t-187.5 -46h-269v700zM346 129q61 0 111.5 29t80 79.5t29.5 111.5q0 62 -29.5 112.5t-80 80t-111.5 29.5h-123v-442h123zM385 847l74 73h110l-115 -135h-140l-115 135h113z" />
    <glyph glyph-name="dcaron" unicode="&#x10f;" horiz-adv-x="794" 
d="M176.5 28.5q-60.5 35.5 -96 97t-35.5 135.5t35.5 135t97.5 96.5t136 35.5q78 0 142 -41v213l137 23v-723h-135v43q-64 -50 -148 -50q-73 0 -133.5 35.5zM199.5 184.5q20.5 -34.5 55.5 -54.5t77 -20q77 0 124 50v203q-23 23 -55 36t-69 13q-43 0 -78 -20t-55 -54.5
t-20 -76.5t20.5 -76.5zM669 700l111 21l-36 -220h-79z" />
    <glyph glyph-name="Dcroat" unicode="&#x110;" horiz-adv-x="800" 
d="M110 293h-78v115h78v292h269q103 0 187.5 -46.5t133 -126.5t48.5 -178q0 -97 -48.5 -177t-133 -126t-187.5 -46h-269v293zM377 129q62 0 112.5 29t80 79.5t29.5 111.5q0 62 -29.5 112.5t-80 80t-112.5 29.5h-122v-163h165v-115h-165v-164h122z" />
    <glyph glyph-name="dcroat" unicode="&#x111;" horiz-adv-x="660" 
d="M176.5 28.5q-60.5 35.5 -96 97t-35.5 135.5t35.5 135t97.5 96.5t136 35.5q78 0 142 -41v92h-140v84h140v37l137 30v-67h55v-84h-55v-579h-135v43q-64 -50 -148 -50q-73 0 -133.5 35.5zM199.5 184.5q20.5 -34.5 55.5 -54.5t77 -20q77 0 124 50v203q-23 23 -55 36t-69 13
q-43 0 -78 -20t-55 -54.5t-20 -76.5t20.5 -76.5z" />
    <glyph glyph-name="Emacron" unicode="&#x112;" horiz-adv-x="675" 
d="M78 700h538v-126h-393v-160h259v-122h-259v-166h397v-126h-542v700zM199 890h320v-86h-320v86z" />
    <glyph glyph-name="emacron" unicode="&#x113;" horiz-adv-x="616" 
d="M172 25.5q-62 35.5 -94.5 96.5t-32.5 137q0 78 34.5 140t95.5 97t138 35q76 0 135 -35t91 -97.5t32 -141.5v-33h-393q5 -53 43.5 -87t95.5 -34q46 0 79 22t51 62l119 -44q-34 -73 -97.5 -113t-149.5 -40q-85 0 -147 35.5zM440 310q-8 49 -42.5 78.5t-84.5 29.5
q-51 0 -87 -30t-46 -78h260zM151 711h320v-86h-320v86z" />
    <glyph glyph-name="Ebreve" unicode="&#x114;" horiz-adv-x="675" 
d="M78 700h538v-126h-393v-160h259v-122h-259v-166h397v-126h-542v700zM245.5 814q-45.5 35 -61.5 100l84 22q24 -80 91 -80q68 0 91 80l84 -22q-16 -64 -61.5 -99.5t-113.5 -35.5t-113.5 35z" />
    <glyph glyph-name="ebreve" unicode="&#x115;" horiz-adv-x="616" 
d="M172 25.5q-62 35.5 -94.5 96.5t-32.5 137q0 78 34.5 140t95.5 97t138 35q76 0 135 -35t91 -97.5t32 -141.5v-33h-393q5 -53 43.5 -87t95.5 -34q46 0 79 22t51 62l119 -44q-34 -73 -97.5 -113t-149.5 -40q-85 0 -147 35.5zM440 310q-8 49 -42.5 78.5t-84.5 29.5
q-51 0 -87 -30t-46 -78h260zM197.5 635q-45.5 35 -61.5 100l84 22q24 -80 91 -80q68 0 91 80l84 -22q-16 -64 -61.5 -99.5t-113.5 -35.5t-113.5 35z" />
    <glyph glyph-name="Edotaccent" unicode="&#x116;" horiz-adv-x="675" 
d="M78 700h538v-126h-393v-160h259v-122h-259v-166h397v-126h-542v700zM305 785q-23 23 -23 55t22.5 55t54.5 23t55 -23t23 -55t-23 -55t-55 -23q-31 0 -54 23z" />
    <glyph glyph-name="edotaccent" unicode="&#x117;" horiz-adv-x="616" 
d="M172 25.5q-62 35.5 -94.5 96.5t-32.5 137q0 78 34.5 140t95.5 97t138 35q76 0 135 -35t91 -97.5t32 -141.5v-33h-393q5 -53 43.5 -87t95.5 -34q46 0 79 22t51 62l119 -44q-34 -73 -97.5 -113t-149.5 -40q-85 0 -147 35.5zM440 310q-8 49 -42.5 78.5t-84.5 29.5
q-51 0 -87 -30t-46 -78h260zM257 606q-23 23 -23 55t22.5 55t54.5 23t55 -23t23 -55t-23 -55t-55 -23q-31 0 -54 23z" />
    <glyph glyph-name="Eogonek" unicode="&#x118;" horiz-adv-x="675" 
d="M78 700h538v-126h-393v-160h259v-122h-259v-166h397v-126h-1q-45 -28 -66.5 -53.5t-21.5 -51.5q0 -21 13 -32.5t37 -11.5q23 0 39 12l24 -58q-15 -12 -38.5 -19t-49.5 -7q-47 0 -76 25.5t-29 66.5q0 36 22 67t69 62h-464v700z" />
    <glyph glyph-name="eogonek" unicode="&#x119;" horiz-adv-x="616" 
d="M257 -195.5q-29 25.5 -29 66.5q0 33 18.5 62t58.5 57q-81 3 -139.5 39t-89.5 96t-31 134q0 78 34.5 140t95.5 97t138 35q76 0 135 -35t91 -97.5t32 -141.5v-33h-393q5 -53 43.5 -87t95.5 -34q46 0 79 22t51 62l119 -44q-26 -56 -70 -93t-102 -51q-44 -28 -65 -53t-21 -51
q0 -21 13 -32.5t37 -11.5q23 0 39 12l24 -58q-15 -12 -38.5 -19t-49.5 -7q-47 0 -76 25.5zM440 310q-8 49 -42.5 78.5t-84.5 29.5q-51 0 -87 -30t-46 -78h260z" />
    <glyph glyph-name="Ecaron" unicode="&#x11a;" horiz-adv-x="675" 
d="M78 700h538v-126h-393v-160h259v-122h-259v-166h397v-126h-542v700zM360 847l74 73h110l-115 -135h-140l-115 135h113z" />
    <glyph glyph-name="ecaron" unicode="&#x11b;" horiz-adv-x="616" 
d="M172 25.5q-62 35.5 -94.5 96.5t-32.5 137q0 78 34.5 140t95.5 97t138 35q76 0 135 -35t91 -97.5t32 -141.5v-33h-393q5 -53 43.5 -87t95.5 -34q46 0 79 22t51 62l119 -44q-34 -73 -97.5 -113t-149.5 -40q-85 0 -147 35.5zM440 310q-8 49 -42.5 78.5t-84.5 29.5
q-51 0 -87 -30t-46 -78h260zM312 668l74 73h110l-115 -135h-140l-115 135h113z" />
    <glyph glyph-name="Gcircumflex" unicode="&#x11c;" horiz-adv-x="824" 
d="M233 37q-85 48 -133.5 130.5t-48.5 182.5q0 105 46.5 186.5t130.5 127.5t193 46q83 0 152 -28.5t115 -79t60 -114.5l-147 -34q-18 55 -64.5 89t-116.5 34q-65 0 -115 -29.5t-77.5 -81t-27.5 -116.5q0 -64 29 -116.5t80 -82.5t115 -30q75 0 127.5 40.5t66.5 105.5h-207
v126h362v-44q0 -102 -45 -184.5t-125 -129t-181 -46.5q-104 0 -189 48zM418 858l-73 -74h-110l115 136h140l115 -136h-113z" />
    <glyph glyph-name="gcircumflex" unicode="&#x11d;" horiz-adv-x="657" 
d="M156 -173q-69 41 -91 112l146 28q17 -35 44.5 -51.5t70.5 -16.5q57 0 91.5 33.5t34.5 87.5v24q-64 -47 -143 -47q-73 0 -133.5 35.5t-95.5 97t-35 134.5t35.5 133.5t97 96t135.5 35.5q76 0 141 -42v34h135v-502q0 -69 -33 -122t-93 -82t-139 -29q-99 0 -168 41z
M199 187.5q20 -34.5 54.5 -54.5t76.5 -20q76 0 122 48v204q-23 23 -54.5 35t-66.5 12q-42 0 -77 -19.5t-55 -53.5t-20 -75q0 -42 20 -76.5zM325 679l-73 -74h-110l115 136h140l115 -136h-113z" />
    <glyph glyph-name="Gbreve" unicode="&#x11e;" horiz-adv-x="824" 
d="M233 37q-85 48 -133.5 130.5t-48.5 182.5q0 105 46.5 186.5t130.5 127.5t193 46q83 0 152 -28.5t115 -79t60 -114.5l-147 -34q-18 55 -64.5 89t-116.5 34q-65 0 -115 -29.5t-77.5 -81t-27.5 -116.5q0 -64 29 -116.5t80 -82.5t115 -30q75 0 127.5 40.5t66.5 105.5h-207
v126h362v-44q0 -102 -45 -184.5t-125 -129t-181 -46.5q-104 0 -189 48zM306.5 814q-45.5 35 -61.5 100l84 22q24 -80 91 -80q68 0 91 80l84 -22q-16 -64 -61.5 -99.5t-113.5 -35.5t-113.5 35z" />
    <glyph glyph-name="gbreve" unicode="&#x11f;" horiz-adv-x="657" 
d="M156 -173q-69 41 -91 112l146 28q17 -35 44.5 -51.5t70.5 -16.5q57 0 91.5 33.5t34.5 87.5v24q-64 -47 -143 -47q-73 0 -133.5 35.5t-95.5 97t-35 134.5t35.5 133.5t97 96t135.5 35.5q76 0 141 -42v34h135v-502q0 -69 -33 -122t-93 -82t-139 -29q-99 0 -168 41z
M199 187.5q20 -34.5 54.5 -54.5t76.5 -20q76 0 122 48v204q-23 23 -54.5 35t-66.5 12q-42 0 -77 -19.5t-55 -53.5t-20 -75q0 -42 20 -76.5zM213.5 635q-45.5 35 -61.5 100l84 22q24 -80 91 -80q68 0 91 80l84 -22q-16 -64 -61.5 -99.5t-113.5 -35.5t-113.5 35z" />
    <glyph glyph-name="Gdotaccent" unicode="&#x120;" horiz-adv-x="824" 
d="M233 37q-85 48 -133.5 130.5t-48.5 182.5q0 105 46.5 186.5t130.5 127.5t193 46q83 0 152 -28.5t115 -79t60 -114.5l-147 -34q-18 55 -64.5 89t-116.5 34q-65 0 -115 -29.5t-77.5 -81t-27.5 -116.5q0 -64 29 -116.5t80 -82.5t115 -30q75 0 127.5 40.5t66.5 105.5h-207
v126h362v-44q0 -102 -45 -184.5t-125 -129t-181 -46.5q-104 0 -189 48zM366 785q-23 23 -23 55t22.5 55t54.5 23t55 -23t23 -55t-23 -55t-55 -23q-31 0 -54 23z" />
    <glyph glyph-name="gdotaccent" unicode="&#x121;" horiz-adv-x="657" 
d="M156 -173q-69 41 -91 112l146 28q17 -35 44.5 -51.5t70.5 -16.5q57 0 91.5 33.5t34.5 87.5v24q-64 -47 -143 -47q-73 0 -133.5 35.5t-95.5 97t-35 134.5t35.5 133.5t97 96t135.5 35.5q76 0 141 -42v34h135v-502q0 -69 -33 -122t-93 -82t-139 -29q-99 0 -168 41z
M199 187.5q20 -34.5 54.5 -54.5t76.5 -20q76 0 122 48v204q-23 23 -54.5 35t-66.5 12q-42 0 -77 -19.5t-55 -53.5t-20 -75q0 -42 20 -76.5zM273 606q-23 23 -23 55t22.5 55t54.5 23t55 -23t23 -55t-23 -55t-55 -23q-31 0 -54 23z" />
    <glyph glyph-name="uni0122" unicode="&#x122;" horiz-adv-x="824" 
d="M233 37q-85 48 -133.5 130.5t-48.5 182.5q0 105 46.5 186.5t130.5 127.5t193 46q83 0 152 -28.5t115 -79t60 -114.5l-147 -34q-18 55 -64.5 89t-116.5 34q-65 0 -115 -29.5t-77.5 -81t-27.5 -116.5q0 -64 29 -116.5t80 -82.5t115 -30q75 0 127.5 40.5t66.5 105.5h-207
v126h362v-44q0 -102 -45 -184.5t-125 -129t-181 -46.5q-104 0 -189 48zM361 -81h129l-81 -205h-99z" />
    <glyph glyph-name="uni0123" unicode="&#x123;" horiz-adv-x="657" 
d="M156 -173q-69 41 -91 112l146 28q17 -35 44.5 -51.5t70.5 -16.5q57 0 91.5 33.5t34.5 87.5v24q-64 -47 -143 -47q-73 0 -133.5 35.5t-95.5 97t-35 134.5t35.5 133.5t97 96t135.5 35.5q76 0 141 -42v34h135v-502q0 -69 -33 -122t-93 -82t-139 -29q-99 0 -168 41z
M199 187.5q20 -34.5 54.5 -54.5t76.5 -20q76 0 122 48v204q-23 23 -54.5 35t-66.5 12q-42 0 -77 -19.5t-55 -53.5t-20 -75q0 -42 20 -76.5zM343 807h99l-51 -205h-129z" />
    <glyph glyph-name="Hcircumflex" unicode="&#x124;" horiz-adv-x="769" 
d="M78 700h145v-282h322v282h145v-700h-145v287h-322v-287h-145v700zM382 858l-73 -74h-110l115 136h140l115 -136h-113z" />
    <glyph glyph-name="hcircumflex" unicode="&#x125;" horiz-adv-x="623" 
d="M69 700l137 30v-252q59 53 146 53q60 0 107 -26.5t73 -73.5t26 -108v-323h-137v303q0 50 -29.5 80t-78.5 30q-69 0 -107 -52v-361h-137v700zM134 858l-73 -74h-110l115 136h140l115 -136h-113z" />
    <glyph glyph-name="Hbar" unicode="&#x126;" horiz-adv-x="786" 
d="M87 498h-62v114h62v88h145v-88h322v88h145v-88h62v-114h-62v-498h-145v287h-322v-287h-145v498zM554 418v80h-322v-80h322z" />
    <glyph glyph-name="hbar" unicode="&#x127;" horiz-adv-x="623" 
d="M69 579h-58v84h58v37l137 30v-67h138v-84h-138v-101q59 53 146 53q60 0 107 -26.5t73 -73.5t26 -108v-323h-137v303q0 50 -29.5 80t-78.5 30q-69 0 -107 -52v-361h-137v579z" />
    <glyph glyph-name="Itilde" unicode="&#x128;" horiz-adv-x="302" 
d="M78 700h145v-700h-145v700zM-1.5 885q28.5 30 72.5 30q21 0 41 -7.5t47 -21.5q22 -11 35 -16t24 -5q17 0 26.5 12t17.5 42l82 -18q-24 -122 -113 -122q-19 0 -38 7t-48 21q-17 8 -33.5 15t-28.5 7q-17 0 -26.5 -12.5t-15.5 -40.5l-84 18q13 61 41.5 91z" />
    <glyph glyph-name="itilde" unicode="&#x129;" horiz-adv-x="274" 
d="M69 521h137v-521h-137v521zM-15.5 706q28.5 30 72.5 30q21 0 41 -7.5t47 -21.5q22 -11 35 -16t24 -5q17 0 26.5 12t17.5 42l82 -18q-24 -122 -113 -122q-19 0 -38 7t-48 21q-17 8 -33.5 15t-28.5 7q-17 0 -26.5 -12.5t-15.5 -40.5l-84 18q13 61 41.5 91z" />
    <glyph glyph-name="Imacron" unicode="&#x12a;" horiz-adv-x="302" 
d="M78 700h145v-700h-145v700zM-9 890h320v-86h-320v86z" />
    <glyph glyph-name="imacron" unicode="&#x12b;" horiz-adv-x="274" 
d="M69 521h137v-521h-137v521zM-23 711h320v-86h-320v86z" />
    <glyph glyph-name="Ibreve" unicode="&#x12c;" horiz-adv-x="302" 
d="M78 700h145v-700h-145v700zM37.5 814q-45.5 35 -61.5 100l84 22q24 -80 91 -80q68 0 91 80l84 -22q-16 -64 -61.5 -99.5t-113.5 -35.5t-113.5 35z" />
    <glyph glyph-name="ibreve" unicode="&#x12d;" horiz-adv-x="274" 
d="M69 521h137v-521h-137v521zM23.5 635q-45.5 35 -61.5 100l84 22q24 -80 91 -80q68 0 91 80l84 -22q-16 -64 -61.5 -99.5t-113.5 -35.5t-113.5 35z" />
    <glyph glyph-name="Iogonek" unicode="&#x12e;" horiz-adv-x="302" 
d="M78 700h145v-700q-45 -28 -66.5 -53.5t-21.5 -51.5q0 -21 13 -32.5t37 -11.5q23 0 39 12l24 -58q-15 -12 -38.5 -19t-49.5 -7q-47 0 -76 25.5t-29 66.5q0 36 22 67t69 62h-68v700z" />
    <glyph glyph-name="iogonek" unicode="&#x12f;" horiz-adv-x="274" 
d="M69 521h137v-521h-1q-45 -28 -66.5 -53.5t-21.5 -51.5q0 -21 13 -32.5t37 -11.5q23 0 39 12l24 -58q-15 -12 -38.5 -19t-49.5 -7q-47 0 -76 25.5t-29 66.5q0 36 22 67t69 62h-59v521zM82.5 716q22.5 23 54.5 23t55 -23t23 -55t-23 -55t-55 -23q-31 0 -54 23t-23 55
t22.5 55z" />
    <glyph glyph-name="Idotaccent" unicode="&#x130;" horiz-adv-x="302" 
d="M78 700h145v-700h-145v700zM97 785q-23 23 -23 55t22.5 55t54.5 23t55 -23t23 -55t-23 -55t-55 -23q-31 0 -54 23z" />
    <glyph glyph-name="dotlessi" unicode="&#x131;" horiz-adv-x="274" 
d="M69 521h137v-521h-137v521z" />
    <glyph glyph-name="IJ" unicode="&#x132;" horiz-adv-x="943" 
d="M78 700h145v-700h-145v700zM408.5 43q-73.5 53 -104.5 152l134 51q21 -64 58 -94.5t92 -30.5q64 0 103.5 42.5t39.5 112.5v424h145v-428q0 -84 -36 -148t-101.5 -99t-151.5 -35q-105 0 -178.5 53z" />
    <glyph glyph-name="ij" unicode="&#x133;" horiz-adv-x="519" 
d="M69 521h137v-521h-137v521zM82 716q23 23 55 23t55 -23t23 -55t-23 -55t-55 -23t-55 23t-23 55t23 55zM225 -202.5q-28 9.5 -47 24.5l45 101q17 -16 41 -16q49 0 49 53v561h137v-566q0 -79 -47 -123t-119 -44q-31 0 -59 9.5zM326 716q23 23 55 23t55 -23t23 -55t-23 -55
t-55 -23t-55 23t-23 55t23 55z" />
    <glyph glyph-name="Jcircumflex" unicode="&#x134;" horiz-adv-x="671" 
d="M136.5 43q-73.5 53 -104.5 152l134 51q21 -64 58 -94.5t92 -30.5q64 0 103.5 42.5t39.5 112.5v424h145v-428q0 -84 -36 -148t-101.5 -99t-151.5 -35q-105 0 -178.5 53zM532 858l-73 -74h-110l115 136h140l115 -136h-113z" />
    <glyph glyph-name="jcircumflex" unicode="&#x135;" horiz-adv-x="274" 
d="M-19 -202.5q-28 9.5 -47 24.5l45 101q17 -16 41 -16q49 0 49 53v561h137v-566q0 -79 -47 -123t-119 -44q-31 0 -59 9.5zM135 679l-73 -74h-110l115 136h140l115 -136h-113z" />
    <glyph glyph-name="uni0136" unicode="&#x136;" horiz-adv-x="727" 
d="M78 700h145v-313l306 313h177l-340 -333l355 -367h-193l-305 325v-325h-145v700zM310 -81h129l-81 -205h-99z" />
    <glyph glyph-name="uni0137" unicode="&#x137;" horiz-adv-x="598" 
d="M69 700l137 23v-421l225 219h155l-246 -239l261 -282h-175l-220 238v-238h-137v700zM238 -81h129l-81 -205h-99z" />
    <glyph glyph-name="kgreenlandic" unicode="&#x138;" horiz-adv-x="598" 
d="M69 521h137v-219l225 219h155l-246 -239l261 -282h-175l-220 238v-238h-137v521z" />
    <glyph glyph-name="Lacute" unicode="&#x139;" horiz-adv-x="658" 
d="M78 700h145v-572h383v-128h-528v700zM159 917h156l-135 -130h-111z" />
    <glyph glyph-name="lacute" unicode="&#x13a;" horiz-adv-x="274" 
d="M69 700l137 23v-723h-137v700zM146 917h156l-135 -130h-111z" />
    <glyph glyph-name="uni013B" unicode="&#x13b;" horiz-adv-x="658" 
d="M78 700h145v-572h383v-128h-528v700zM301 -81h129l-81 -205h-99z" />
    <glyph glyph-name="uni013C" unicode="&#x13c;" horiz-adv-x="274" 
d="M69 700l137 23v-723h-137v700zM73 -81h129l-81 -205h-99z" />
    <glyph glyph-name="Lcaron" unicode="&#x13d;" horiz-adv-x="653" 
d="M78 700h145v-572h383v-128h-528v700zM420 700l111 21l-36 -220h-79z" />
    <glyph glyph-name="lcaron" unicode="&#x13e;" horiz-adv-x="405" 
d="M69 700l137 23v-723h-137v700zM282 700l111 21l-36 -220h-79z" />
    <glyph glyph-name="Ldot" unicode="&#x13f;" horiz-adv-x="653" 
d="M78 700h145v-572h383v-128h-528v700zM408 300q-23 23 -23 55t22.5 55t54.5 23t55 -23t23 -55t-23 -55t-55 -23q-31 0 -54 23z" />
    <glyph glyph-name="ldot" unicode="&#x140;" horiz-adv-x="395" 
d="M69 700l137 23v-723h-137v700zM265 289q-23 23 -23 55t22.5 55t54.5 23t55 -23t23 -55t-23 -55t-55 -23q-31 0 -54 23z" />
    <glyph glyph-name="Lslash" unicode="&#x141;" horiz-adv-x="678" 
d="M104 209l-78 -50v122l78 51v368h145v-280l177 115v-123l-177 -114v-170h382v-128h-527v209z" />
    <glyph glyph-name="lslash" unicode="&#x142;" horiz-adv-x="319" 
d="M93 259l-70 -50v125l70 50v316l136 30v-250l70 50v-125l-70 -50v-355h-136v259z" />
    <glyph glyph-name="Nacute" unicode="&#x143;" horiz-adv-x="779" 
d="M78 700h138l348 -452v452h136v-700h-128l-357 468v-468h-137v700zM398 917h156l-135 -130h-111z" />
    <glyph glyph-name="nacute" unicode="&#x144;" horiz-adv-x="623" 
d="M69 521h137v-43q59 53 146 53q60 0 107 -26.5t73 -73.5t26 -108v-323h-137v303q0 50 -29.5 80t-78.5 30q-69 0 -107 -52v-361h-137v521zM323 738h156l-135 -130h-111z" />
    <glyph glyph-name="uni0145" unicode="&#x145;" horiz-adv-x="779" 
d="M78 700h138l348 -452v452h136v-700h-128l-357 468v-468h-137v700zM325 -81h129l-81 -205h-99z" />
    <glyph glyph-name="uni0146" unicode="&#x146;" horiz-adv-x="623" 
d="M69 521h137v-43q59 53 146 53q60 0 107 -26.5t73 -73.5t26 -108v-323h-137v303q0 50 -29.5 80t-78.5 30q-69 0 -107 -52v-361h-137v521zM250 -81h129l-81 -205h-99z" />
    <glyph glyph-name="Ncaron" unicode="&#x147;" horiz-adv-x="779" 
d="M78 700h138l348 -452v452h136v-700h-128l-357 468v-468h-137v700zM390 847l74 73h110l-115 -135h-140l-115 135h113z" />
    <glyph glyph-name="ncaron" unicode="&#x148;" horiz-adv-x="623" 
d="M69 521h137v-43q59 53 146 53q60 0 107 -26.5t73 -73.5t26 -108v-323h-137v303q0 50 -29.5 80t-78.5 30q-69 0 -107 -52v-361h-137v521zM315 668l74 73h110l-115 -135h-140l-115 135h113z" />
    <glyph glyph-name="Eng" unicode="&#x14a;" horiz-adv-x="779" 
d="M492 -209.5q-21 2.5 -32 6.5v104q20 -4 45 -4q30 0 44.5 13t14.5 41v53l-349 458v-462h-137v700h133l353 -459v459h136v-758q0 -74 -44 -114t-124 -40q-19 0 -40 2.5z" />
    <glyph glyph-name="eng" unicode="&#x14b;" horiz-adv-x="623" 
d="M318 -206v105q20 -4 45 -4q30 0 44 12.5t14 40.5v355q0 50 -29.5 80t-78.5 30q-69 0 -107 -52v-361h-137v521h137v-43q59 53 146 53q60 0 107 -26.5t73 -73.5t26 -108v-384q0 -74 -44 -114t-124 -40q-41 0 -72 9z" />
    <glyph glyph-name="Omacron" unicode="&#x14c;" horiz-adv-x="843" 
d="M234 37q-85 48 -134 131t-49 182t49 182t134 131t187 48t187 -48t134 -130.5t49 -182.5t-49 -182.5t-134 -130.5t-187 -48t-187 48zM229 234q29 -52 79.5 -82t112.5 -30t113 30t80 82t29 116t-29 116t-80 82t-113 30t-112.5 -30t-79.5 -82t-29 -116t29 -116zM261 890h320
v-86h-320v86z" />
    <glyph glyph-name="omacron" unicode="&#x14d;" horiz-adv-x="646" 
d="M182.5 25.5q-63.5 35.5 -100.5 97.5t-37 137t37 137t100.5 98t140.5 36t140.5 -36t100.5 -98t37 -137t-37 -137t-100.5 -97.5t-140.5 -35.5t-140.5 35.5zM198 183.5q19 -34.5 52 -54.5t73 -20t73 20t52.5 54.5t19.5 76.5t-19.5 77t-52.5 55t-73 20q-39 0 -72 -20
t-52.5 -55t-19.5 -77t19 -76.5zM163 711h320v-86h-320v86z" />
    <glyph glyph-name="Obreve" unicode="&#x14e;" horiz-adv-x="843" 
d="M234 37q-85 48 -134 131t-49 182t49 182t134 131t187 48t187 -48t134 -130.5t49 -182.5t-49 -182.5t-134 -130.5t-187 -48t-187 48zM229 234q29 -52 79.5 -82t112.5 -30t113 30t80 82t29 116t-29 116t-80 82t-113 30t-112.5 -30t-79.5 -82t-29 -116t29 -116zM307.5 814
q-45.5 35 -61.5 100l84 22q24 -80 91 -80q68 0 91 80l84 -22q-16 -64 -61.5 -99.5t-113.5 -35.5t-113.5 35z" />
    <glyph glyph-name="obreve" unicode="&#x14f;" horiz-adv-x="646" 
d="M182.5 25.5q-63.5 35.5 -100.5 97.5t-37 137t37 137t100.5 98t140.5 36t140.5 -36t100.5 -98t37 -137t-37 -137t-100.5 -97.5t-140.5 -35.5t-140.5 35.5zM198 183.5q19 -34.5 52 -54.5t73 -20t73 20t52.5 54.5t19.5 76.5t-19.5 77t-52.5 55t-73 20q-39 0 -72 -20
t-52.5 -55t-19.5 -77t19 -76.5zM209.5 635q-45.5 35 -61.5 100l84 22q24 -80 91 -80q68 0 91 80l84 -22q-16 -64 -61.5 -99.5t-113.5 -35.5t-113.5 35z" />
    <glyph glyph-name="Ohungarumlaut" unicode="&#x150;" horiz-adv-x="843" 
d="M234 37q-85 48 -134 131t-49 182t49 182t134 131t187 48t187 -48t134 -130.5t49 -182.5t-49 -182.5t-134 -130.5t-187 -48t-187 48zM229 234q29 -52 79.5 -82t112.5 -30t113 30t80 82t29 116t-29 116t-80 82t-113 30t-112.5 -30t-79.5 -82t-29 -116t29 -116zM354 916h136
l-132 -127h-105zM561 916h138l-142 -127h-97z" />
    <glyph glyph-name="ohungarumlaut" unicode="&#x151;" horiz-adv-x="646" 
d="M182.5 25.5q-63.5 35.5 -100.5 97.5t-37 137t37 137t100.5 98t140.5 36t140.5 -36t100.5 -98t37 -137t-37 -137t-100.5 -97.5t-140.5 -35.5t-140.5 35.5zM198 183.5q19 -34.5 52 -54.5t73 -20t73 20t52.5 54.5t19.5 76.5t-19.5 77t-52.5 55t-73 20q-39 0 -72 -20
t-52.5 -55t-19.5 -77t19 -76.5zM256 737h136l-132 -127h-105zM463 737h138l-142 -127h-97z" />
    <glyph glyph-name="OE" unicode="&#x152;" horiz-adv-x="1130" 
d="M233.5 46.5q-82.5 46.5 -130.5 127t-48 176.5t48 176.5t130.5 127t181.5 46.5h659v-126h-390q66 -65 83 -160h183v-122h-182q-7 -47 -28.5 -90t-54.5 -76h389v-126h-659q-99 0 -181.5 46.5zM232 237.5q28 -50.5 76 -79.5t107 -29q58 0 106.5 29t76.5 80t28 112t-28 112
t-76.5 80t-106.5 29q-59 0 -107 -29t-76 -79.5t-28 -112.5t28 -112.5z" />
    <glyph glyph-name="oe" unicode="&#x153;" horiz-adv-x="1038" 
d="M396 129q33 20 52 55t19 76q0 42 -19 77t-52 55t-73 20q-39 0 -72.5 -20t-52.5 -55t-19 -77q0 -41 19 -76t52 -55t73 -20t73 20zM82 397q37 62 100.5 98t140.5 36q63 0 116.5 -26.5t91.5 -73.5q35 47 88 73.5t116 26.5q76 0 135 -35t91 -97.5t32 -141.5v-33h-392
q5 -53 43 -87t95 -34q46 0 78.5 22t51.5 62l119 -44q-35 -74 -97.5 -113.5t-149.5 -39.5q-66 0 -120 26.5t-91 74.5q-38 -48 -91 -74.5t-116 -26.5q-77 0 -140.5 35.5t-100.5 97.5t-37 137t37 137zM862 310q-8 49 -42.5 78.5t-84.5 29.5q-51 0 -87 -30t-45 -78h259z" />
    <glyph glyph-name="Racute" unicode="&#x154;" horiz-adv-x="706" 
d="M78 700h340q70 0 124.5 -24.5t85 -69.5t30.5 -104q0 -63 -36 -111.5t-99 -69.5q44 -11 66 -46.5t29 -103.5l1 -10q9 -97 54 -161h-169q-13 24 -19 52t-10 87l-3 26q-4 42 -14.5 64t-33.5 31t-64 9h-137v-269h-145v700zM405 388q48 0 77.5 26.5t29.5 67.5q0 43 -29.5 68.5
t-77.5 25.5h-182v-188h182zM361 917h156l-135 -130h-111z" />
    <glyph glyph-name="racute" unicode="&#x155;" horiz-adv-x="513" 
d="M69 521h137v-45q21 26 53.5 40.5t68.5 14.5q66 0 104.5 -46.5t43.5 -132.5l-130 -26q-2 42 -19 64.5t-46 22.5q-24 0 -43.5 -13.5t-31.5 -38.5v-361h-137v521zM258 737h156l-135 -130h-111z" />
    <glyph glyph-name="uni0156" unicode="&#x156;" horiz-adv-x="706" 
d="M78 700h340q70 0 124.5 -24.5t85 -69.5t30.5 -104q0 -63 -36 -111.5t-99 -69.5q44 -11 66 -46.5t29 -103.5l1 -10q9 -97 54 -161h-169q-13 24 -19 52t-10 87l-3 26q-4 42 -14.5 64t-33.5 31t-64 9h-137v-269h-145v700zM405 388q48 0 77.5 26.5t29.5 67.5q0 43 -29.5 68.5
t-77.5 25.5h-182v-188h182zM297 -81h129l-81 -205h-99z" />
    <glyph glyph-name="uni0157" unicode="&#x157;" horiz-adv-x="513" 
d="M69 521h137v-45q21 26 53.5 40.5t68.5 14.5q66 0 104.5 -46.5t43.5 -132.5l-130 -26q-2 42 -19 64.5t-46 22.5q-24 0 -43.5 -13.5t-31.5 -38.5v-361h-137v521zM69 -81h129l-81 -205h-99z" />
    <glyph glyph-name="Rcaron" unicode="&#x158;" horiz-adv-x="706" 
d="M78 700h340q70 0 124.5 -24.5t85 -69.5t30.5 -104q0 -63 -36 -111.5t-99 -69.5q44 -11 66 -46.5t29 -103.5l1 -10q9 -97 54 -161h-169q-13 24 -19 52t-10 87l-3 26q-4 42 -14.5 64t-33.5 31t-64 9h-137v-269h-145v700zM405 388q48 0 77.5 26.5t29.5 67.5q0 43 -29.5 68.5
t-77.5 25.5h-182v-188h182zM353 847l74 73h110l-115 -135h-140l-115 135h113z" />
    <glyph glyph-name="rcaron" unicode="&#x159;" horiz-adv-x="513" 
d="M69 521h137v-45q21 26 53.5 40.5t68.5 14.5q66 0 104.5 -46.5t43.5 -132.5l-130 -26q-2 42 -19 64.5t-46 22.5q-24 0 -43.5 -13.5t-31.5 -38.5v-361h-137v521zM250 667l74 73h110l-115 -135h-140l-115 135h113z" />
    <glyph glyph-name="Sacute" unicode="&#x15a;" horiz-adv-x="645" 
d="M128 42.5q-81 53.5 -107 148.5l141 31q24 -58 62.5 -84t100.5 -26q63 0 99.5 25t36.5 68q0 33 -24.5 52t-78.5 28l-120 18q-95 15 -144 64t-49 130q0 62 34 111t95 76t138 27q113 0 187 -48t100 -139l-136 -31q-17 47 -57.5 71.5t-99.5 24.5q-55 0 -87.5 -22.5
t-32.5 -62.5q0 -31 22 -49.5t68 -26.5l114 -15q110 -16 163 -64.5t53 -133.5q0 -67 -35 -118t-99 -79.5t-147 -28.5q-116 0 -197 53.5zM320 917h156l-135 -130h-111z" />
    <glyph glyph-name="sacute" unicode="&#x15b;" horiz-adv-x="534" 
d="M116.5 29q-62.5 40 -82.5 115l122 23q28 -75 121 -75q44 0 69 15.5t25 43.5q0 23 -15.5 35.5t-52.5 16.5l-99 11q-73 8 -114 47.5t-41 101.5q0 49 27 87t76.5 59t112.5 21q88 0 146 -36.5t80 -106.5l-119 -23q-31 63 -113 63q-39 0 -63 -15t-24 -40q0 -21 17 -32.5
t54 -16.5l85 -9q83 -8 126 -47.5t43 -104.5q0 -51 -28 -90.5t-78.5 -61t-116.5 -21.5q-95 0 -157.5 40zM272 737h156l-135 -130h-111z" />
    <glyph glyph-name="Scircumflex" unicode="&#x15c;" horiz-adv-x="645" 
d="M128 42.5q-81 53.5 -107 148.5l141 31q24 -58 62.5 -84t100.5 -26q63 0 99.5 25t36.5 68q0 33 -24.5 52t-78.5 28l-120 18q-95 15 -144 64t-49 130q0 62 34 111t95 76t138 27q113 0 187 -48t100 -139l-136 -31q-17 47 -57.5 71.5t-99.5 24.5q-55 0 -87.5 -22.5
t-32.5 -62.5q0 -31 22 -49.5t68 -26.5l114 -15q110 -16 163 -64.5t53 -133.5q0 -67 -35 -118t-99 -79.5t-147 -28.5q-116 0 -197 53.5zM309 858l-73 -74h-110l115 136h140l115 -136h-113z" />
    <glyph glyph-name="scircumflex" unicode="&#x15d;" horiz-adv-x="534" 
d="M116.5 29q-62.5 40 -82.5 115l122 23q28 -75 121 -75q44 0 69 15.5t25 43.5q0 23 -15.5 35.5t-52.5 16.5l-99 11q-73 8 -114 47.5t-41 101.5q0 49 27 87t76.5 59t112.5 21q88 0 146 -36.5t80 -106.5l-119 -23q-31 63 -113 63q-39 0 -63 -15t-24 -40q0 -21 17 -32.5
t54 -16.5l85 -9q83 -8 126 -47.5t43 -104.5q0 -51 -28 -90.5t-78.5 -61t-116.5 -21.5q-95 0 -157.5 40zM261 678l-73 -74h-110l115 136h140l115 -136h-113z" />
    <glyph glyph-name="Scedilla" unicode="&#x15e;" horiz-adv-x="645" 
d="M233.5 -215.5q-32.5 20.5 -44.5 60.5l74 15q14 -32 53 -32q23 0 37 10.5t14 27.5t-14.5 27t-40.5 10h-42l25 87q-105 7 -177 60t-97 141l141 31q24 -58 62.5 -84t100.5 -26q63 0 99.5 25t36.5 68q0 33 -24.5 52t-78.5 28l-120 18q-95 15 -144 64t-49 130q0 62 34 111
t95 76t138 27q113 0 187 -48t100 -139l-136 -31q-17 47 -57.5 71.5t-99.5 24.5q-55 0 -87.5 -22.5t-32.5 -62.5q0 -31 22 -49.5t68 -26.5l114 -15q110 -16 163 -64.5t53 -133.5q0 -62 -30.5 -110.5t-85.5 -78t-128 -35.5l-11 -37q44 -4 69.5 -27.5t25.5 -61.5
q0 -46 -35.5 -73.5t-94.5 -27.5q-50 0 -82.5 20.5z" />
    <glyph glyph-name="scedilla" unicode="&#x15f;" horiz-adv-x="534" 
d="M179.5 -215.5q-32.5 20.5 -44.5 60.5l74 15q14 -32 53 -32q23 0 37 10.5t14 27.5t-14.5 27t-40.5 10h-42l25 87q-82 7 -135 46.5t-72 107.5l122 23q28 -75 121 -75q44 0 69 15.5t25 43.5q0 23 -15.5 35.5t-52.5 16.5l-99 11q-73 8 -114 47.5t-41 101.5q0 49 27 87
t76.5 59t112.5 21q88 0 146 -36.5t80 -106.5l-119 -23q-31 63 -113 63q-39 0 -63 -15t-24 -40q0 -21 17 -32.5t54 -16.5l85 -9q83 -8 126 -47.5t43 -104.5q0 -71 -51.5 -117t-137.5 -54l-11 -37q44 -4 69.5 -27.5t25.5 -61.5q0 -46 -35.5 -73.5t-94.5 -27.5
q-50 0 -82.5 20.5z" />
    <glyph glyph-name="Scaron" unicode="&#x160;" horiz-adv-x="645" 
d="M128 42.5q-81 53.5 -107 148.5l141 31q24 -58 62.5 -84t100.5 -26q63 0 99.5 25t36.5 68q0 33 -24.5 52t-78.5 28l-120 18q-95 15 -144 64t-49 130q0 62 34 111t95 76t138 27q113 0 187 -48t100 -139l-136 -31q-17 47 -57.5 71.5t-99.5 24.5q-55 0 -87.5 -22.5
t-32.5 -62.5q0 -31 22 -49.5t68 -26.5l114 -15q110 -16 163 -64.5t53 -133.5q0 -67 -35 -118t-99 -79.5t-147 -28.5q-116 0 -197 53.5zM312 847l74 73h110l-115 -135h-140l-115 135h113z" />
    <glyph glyph-name="scaron" unicode="&#x161;" horiz-adv-x="534" 
d="M116.5 29q-62.5 40 -82.5 115l122 23q28 -75 121 -75q44 0 69 15.5t25 43.5q0 23 -15.5 35.5t-52.5 16.5l-99 11q-73 8 -114 47.5t-41 101.5q0 49 27 87t76.5 59t112.5 21q88 0 146 -36.5t80 -106.5l-119 -23q-31 63 -113 63q-39 0 -63 -15t-24 -40q0 -21 17 -32.5
t54 -16.5l85 -9q83 -8 126 -47.5t43 -104.5q0 -51 -28 -90.5t-78.5 -61t-116.5 -21.5q-95 0 -157.5 40zM264 667l74 73h110l-115 -135h-140l-115 135h113z" />
    <glyph glyph-name="uni0162" unicode="&#x162;" horiz-adv-x="682" 
d="M269 572h-236v128h616v-128h-236v-572h-144v572zM248.5 -215.5q-32.5 20.5 -44.5 60.5l74 15q14 -32 53 -32q23 0 37 10.5t14 27.5t-14.5 27t-40.5 10h-42l28 97h67l-14 -46q44 -4 69.5 -27.5t25.5 -61.5q0 -46 -35.5 -73.5t-94.5 -27.5q-50 0 -82.5 20.5z" />
    <glyph glyph-name="uni0163" unicode="&#x163;" horiz-adv-x="452" 
d="M167.5 -215.5q-32.5 20.5 -44.5 60.5l74 15q14 -32 53 -32q23 0 37 10.5t14 27.5t-14.5 27t-40.5 10h-42l28 97q-49 16 -75.5 60.5t-26.5 109.5v237h-107v114h107v133l137 31v-164h148v-114h-148v-230q0 -33 14.5 -48.5t38.5 -15.5q31 0 55 19l48 -93q-50 -45 -127 -48
l-11 -37q44 -4 69.5 -27.5t25.5 -61.5q0 -46 -35.5 -73.5t-94.5 -27.5q-50 0 -82.5 20.5z" />
    <glyph glyph-name="Tcaron" unicode="&#x164;" horiz-adv-x="682" 
d="M269 572h-236v128h616v-128h-236v-572h-144v572zM342 847l74 73h110l-115 -135h-140l-115 135h113z" />
    <glyph glyph-name="tcaron" unicode="&#x165;" horiz-adv-x="454" 
d="M347 786l111 22l-35 -220h-81zM23 521h107v133l137 31v-164h148v-114h-148v-230q0 -33 14.5 -48.5t38.5 -15.5q31 0 55 19l48 -93q-25 -22 -59.5 -35t-74.5 -13q-75 0 -117 48t-42 131v237h-107v114z" />
    <glyph glyph-name="Tbar" unicode="&#x166;" horiz-adv-x="682" 
d="M269 280h-137v115h137v177h-236v128h616v-128h-236v-177h137v-115h-137v-280h-144v280z" />
    <glyph glyph-name="tbar" unicode="&#x167;" horiz-adv-x="454" 
d="M33 328h97v79h-107v114h107v133l137 31v-164h148v-114h-148v-79h159v-99h-159v-52q0 -33 14.5 -48.5t38.5 -15.5q31 0 55 19l48 -93q-25 -22 -59.5 -35t-74.5 -13q-75 0 -117 48t-42 131v59h-97v99z" />
    <glyph glyph-name="Utilde" unicode="&#x168;" horiz-adv-x="755" 
d="M213 28q-70 38 -108 108.5t-38 165.5v398h145v-398q0 -82 45 -130t121 -48q75 0 120 48t45 130v398h144v-398q0 -94 -38 -164.5t-108.5 -109t-163.5 -38.5q-94 0 -164 38zM225.5 885q28.5 30 72.5 30q21 0 41 -7.5t47 -21.5q22 -11 35 -16t24 -5q17 0 26.5 12t17.5 42
l82 -18q-24 -122 -113 -122q-19 0 -38 7t-48 21q-17 8 -33.5 15t-28.5 7q-17 0 -26.5 -12.5t-15.5 -40.5l-84 18q13 61 41.5 91z" />
    <glyph glyph-name="utilde" unicode="&#x169;" horiz-adv-x="623" 
d="M164 16.5q-47 26.5 -73 73.5t-26 108v323h137v-303q0 -50 29.5 -80t78.5 -30q69 0 108 52v361h137v-521h-137v42q-60 -52 -147 -52q-60 0 -107 26.5zM159.5 706q28.5 30 72.5 30q21 0 41 -7.5t47 -21.5q22 -11 35 -16t24 -5q17 0 26.5 12t17.5 42l82 -18
q-24 -122 -113 -122q-19 0 -38 7t-48 21q-17 8 -33.5 15t-28.5 7q-17 0 -26.5 -12.5t-15.5 -40.5l-84 18q13 61 41.5 91z" />
    <glyph glyph-name="Umacron" unicode="&#x16a;" horiz-adv-x="755" 
d="M213 28q-70 38 -108 108.5t-38 165.5v398h145v-398q0 -82 45 -130t121 -48q75 0 120 48t45 130v398h144v-398q0 -94 -38 -164.5t-108.5 -109t-163.5 -38.5q-94 0 -164 38zM218 890h320v-86h-320v86z" />
    <glyph glyph-name="umacron" unicode="&#x16b;" horiz-adv-x="623" 
d="M164 16.5q-47 26.5 -73 73.5t-26 108v323h137v-303q0 -50 29.5 -80t78.5 -30q69 0 108 52v361h137v-521h-137v42q-60 -52 -147 -52q-60 0 -107 26.5zM152 711h320v-86h-320v86z" />
    <glyph glyph-name="Ubreve" unicode="&#x16c;" horiz-adv-x="755" 
d="M213 28q-70 38 -108 108.5t-38 165.5v398h145v-398q0 -82 45 -130t121 -48q75 0 120 48t45 130v398h144v-398q0 -94 -38 -164.5t-108.5 -109t-163.5 -38.5q-94 0 -164 38zM264.5 814q-45.5 35 -61.5 100l84 22q24 -80 91 -80q68 0 91 80l84 -22q-16 -64 -61.5 -99.5
t-113.5 -35.5t-113.5 35z" />
    <glyph glyph-name="ubreve" unicode="&#x16d;" horiz-adv-x="623" 
d="M164 16.5q-47 26.5 -73 73.5t-26 108v323h137v-303q0 -50 29.5 -80t78.5 -30q69 0 108 52v361h137v-521h-137v42q-60 -52 -147 -52q-60 0 -107 26.5zM198.5 635q-45.5 35 -61.5 100l84 22q24 -80 91 -80q68 0 91 80l84 -22q-16 -64 -61.5 -99.5t-113.5 -35.5t-113.5 35z
" />
    <glyph glyph-name="Uring" unicode="&#x16e;" horiz-adv-x="755" 
d="M213 28q-70 38 -108 108.5t-38 165.5v398h145v-398q0 -82 45 -130t121 -48q75 0 120 48t45 130v398h144v-398q0 -94 -38 -164.5t-108.5 -109t-163.5 -38.5q-94 0 -164 38zM291 799q-36 35 -36 85q0 33 16.5 60.5t45 44t61.5 16.5t61.5 -16.5t45 -44t16.5 -60.5
q0 -50 -36 -85t-87 -35t-87 35zM333.5 840q18.5 -18 44.5 -18t44.5 18t18.5 44t-18.5 44.5t-44.5 18.5t-44.5 -18.5t-18.5 -44.5t18.5 -44z" />
    <glyph glyph-name="uring" unicode="&#x16f;" horiz-adv-x="623" 
d="M164 16.5q-47 26.5 -73 73.5t-26 108v323h137v-303q0 -50 29.5 -80t78.5 -30q69 0 108 52v361h137v-521h-137v42q-60 -52 -147 -52q-60 0 -107 26.5zM225 620q-36 35 -36 85q0 33 16.5 60.5t45 44t61.5 16.5t61.5 -16.5t45 -44t16.5 -60.5q0 -50 -36 -85t-87 -35t-87 35z
M267.5 661q18.5 -18 44.5 -18t44.5 18t18.5 44t-18.5 44.5t-44.5 18.5t-44.5 -18.5t-18.5 -44.5t18.5 -44z" />
    <glyph glyph-name="Uhungarumlaut" unicode="&#x170;" horiz-adv-x="755" 
d="M213 28q-70 38 -108 108.5t-38 165.5v398h145v-398q0 -82 45 -130t121 -48q75 0 120 48t45 130v398h144v-398q0 -94 -38 -164.5t-108.5 -109t-163.5 -38.5q-94 0 -164 38zM311 916h136l-132 -127h-105zM518 916h138l-142 -127h-97z" />
    <glyph glyph-name="uhungarumlaut" unicode="&#x171;" horiz-adv-x="623" 
d="M164 16.5q-47 26.5 -73 73.5t-26 108v323h137v-303q0 -50 29.5 -80t78.5 -30q69 0 108 52v361h137v-521h-137v42q-60 -52 -147 -52q-60 0 -107 26.5zM245 737h136l-132 -127h-105zM452 737h138l-142 -127h-97z" />
    <glyph glyph-name="Uogonek" unicode="&#x172;" horiz-adv-x="755" 
d="M325 -195.5q-29 25.5 -29 66.5q0 33 18.5 62t58.5 57q-93 1 -162 39.5t-106.5 108.5t-37.5 164v398h145v-398q0 -82 45 -130t121 -48q75 0 120 48t45 130v398h144v-398q0 -118 -60 -198.5t-164 -104.5q-44 -27 -65.5 -52.5t-21.5 -51.5q0 -21 13 -32.5t37 -11.5
q23 0 39 12l24 -58q-15 -12 -38.5 -19t-49.5 -7q-47 0 -76 25.5z" />
    <glyph glyph-name="uogonek" unicode="&#x173;" horiz-adv-x="623" 
d="M164 16.5q-47 26.5 -73 73.5t-26 108v323h137v-303q0 -50 29.5 -80t78.5 -30q69 0 108 52v361h137v-521h-1q-45 -28 -66.5 -53.5t-21.5 -51.5q0 -21 13 -32.5t37 -11.5q23 0 39 12l24 -58q-15 -12 -38.5 -19t-49.5 -7q-47 0 -76 25.5t-29 66.5q0 36 22 67t69 62h-59v42
q-60 -52 -147 -52q-60 0 -107 26.5z" />
    <glyph glyph-name="Wcircumflex" unicode="&#x174;" horiz-adv-x="974" 
d="M41 700h149l95 -474l136 474h137l136 -473l95 473h144l-155 -700h-152l-138 488l-140 -488h-152zM483 858l-73 -74h-110l115 136h140l115 -136h-113z" />
    <glyph glyph-name="wcircumflex" unicode="&#x175;" horiz-adv-x="802" 
d="M25 521h130l86 -336l104 336h115l103 -337l86 337h128l-144 -521h-131l-101 333l-101 -333h-132zM399 679l-73 -74h-110l115 136h140l115 -136h-113z" />
    <glyph glyph-name="Ycircumflex" unicode="&#x176;" horiz-adv-x="735" 
d="M295 268l-286 432h167l196 -304l197 304h158l-287 -433v-267h-145v268zM366 858l-73 -74h-110l115 136h140l115 -136h-113z" />
    <glyph glyph-name="ycircumflex" unicode="&#x177;" horiz-adv-x="606" 
d="M19 -182l45 108q30 -19 59 -19q32 0 54 17.5t32 48.5l9 22l-203 526h151l130 -355l147 355h148l-241 -563q-39 -92 -90.5 -132t-122.5 -40q-68 0 -118 32zM299 679l-73 -74h-110l115 136h140l115 -136h-113z" />
    <glyph glyph-name="Ydieresis" unicode="&#x178;" horiz-adv-x="735" 
d="M295 268l-286 432h167l196 -304l197 304h158l-287 -433v-267h-145v268zM204.5 804.5q-20.5 20.5 -20.5 51.5t20.5 51.5t51.5 20.5t51.5 -20.5t20.5 -51.5t-20.5 -51.5t-51.5 -20.5t-51.5 20.5zM428.5 907.5q20.5 20.5 51.5 20.5t51.5 -20.5t20.5 -51.5t-20.5 -51.5
t-51.5 -20.5t-51.5 20.5t-20.5 51.5t20.5 51.5z" />
    <glyph glyph-name="Zacute" unicode="&#x179;" horiz-adv-x="647" 
d="M36 99l386 475h-383v126h572v-99l-386 -475h390v-126h-579v99zM341 917h156l-135 -130h-111z" />
    <glyph glyph-name="zacute" unicode="&#x17a;" horiz-adv-x="529" 
d="M42 97l262 309h-260v115h435v-97l-263 -309h270v-115h-444v97zM269 738h156l-135 -130h-111z" />
    <glyph glyph-name="Zdotaccent" unicode="&#x17b;" horiz-adv-x="647" 
d="M36 99l386 475h-383v126h572v-99l-386 -475h390v-126h-579v99zM277 785q-23 23 -23 55t22.5 55t54.5 23t55 -23t23 -55t-23 -55t-55 -23q-31 0 -54 23z" />
    <glyph glyph-name="zdotaccent" unicode="&#x17c;" horiz-adv-x="529" 
d="M42 97l262 309h-260v115h435v-97l-263 -309h270v-115h-444v97zM206 606q-23 23 -23 55t22.5 55t54.5 23t55 -23t23 -55t-23 -55t-55 -23q-31 0 -54 23z" />
    <glyph glyph-name="Zcaron" unicode="&#x17d;" horiz-adv-x="647" 
d="M36 99l386 475h-383v126h572v-99l-386 -475h390v-126h-579v99zM333 847l74 73h110l-115 -135h-140l-115 135h113z" />
    <glyph glyph-name="zcaron" unicode="&#x17e;" horiz-adv-x="529" 
d="M42 97l262 309h-260v115h435v-97l-263 -309h270v-115h-444v97zM261 668l74 73h110l-115 -135h-140l-115 135h113z" />
    <glyph glyph-name="uni0218" unicode="&#x218;" horiz-adv-x="645" 
d="M128 42.5q-81 53.5 -107 148.5l141 31q24 -58 62.5 -84t100.5 -26q63 0 99.5 25t36.5 68q0 33 -24.5 52t-78.5 28l-120 18q-95 15 -144 64t-49 130q0 62 34 111t95 76t138 27q113 0 187 -48t100 -139l-136 -31q-17 47 -57.5 71.5t-99.5 24.5q-55 0 -87.5 -22.5
t-32.5 -62.5q0 -31 22 -49.5t68 -26.5l114 -15q110 -16 163 -64.5t53 -133.5q0 -67 -35 -118t-99 -79.5t-147 -28.5q-116 0 -197 53.5zM262 -81h129l-81 -205h-99z" />
    <glyph glyph-name="uni0219" unicode="&#x219;" horiz-adv-x="534" 
d="M116.5 29q-62.5 40 -82.5 115l122 23q28 -75 121 -75q44 0 69 15.5t25 43.5q0 23 -15.5 35.5t-52.5 16.5l-99 11q-73 8 -114 47.5t-41 101.5q0 49 27 87t76.5 59t112.5 21q88 0 146 -36.5t80 -106.5l-119 -23q-31 63 -113 63q-39 0 -63 -15t-24 -40q0 -21 17 -32.5
t54 -16.5l85 -9q83 -8 126 -47.5t43 -104.5q0 -51 -28 -90.5t-78.5 -61t-116.5 -21.5q-95 0 -157.5 40zM208 -81h129l-81 -205h-99z" />
    <glyph glyph-name="uni021A" unicode="&#x21a;" horiz-adv-x="682" 
d="M269 572h-236v128h616v-128h-236v-572h-144v572zM277 -81h129l-81 -205h-99z" />
    <glyph glyph-name="uni021B" unicode="&#x21b;" horiz-adv-x="452" 
d="M172 39q-42 48 -42 131v237h-107v114h107v133l137 31v-164h148v-114h-148v-230q0 -33 14.5 -48.5t38.5 -15.5q31 0 55 19l48 -93q-25 -22 -59.5 -35t-74.5 -13q-75 0 -117 48zM196 -81h129l-81 -205h-99z" />
    <glyph glyph-name="uni0237" unicode="&#x237;" horiz-adv-x="274" 
d="M-19 -202.5q-28 9.5 -47 24.5l45 101q17 -16 41 -16q49 0 49 53v561h137v-566q0 -79 -47 -123t-119 -44q-31 0 -59 9.5z" />
    <glyph glyph-name="uni02BB" unicode="&#x2bb;" horiz-adv-x="267" 
d="M139 592h69v-148h-149v111q0 125 117 190l45 -57q-72 -34 -82 -96z" />
    <glyph glyph-name="uni02BC" unicode="&#x2bc;" horiz-adv-x="267" 
d="M128 552h-69v148h149v-111q0 -125 -117 -189l-45 56q72 34 82 96z" />
    <glyph glyph-name="circumflex" unicode="&#x2c6;" 
d="M313 679l-73 -74h-110l115 136h140l115 -136h-113z" />
    <glyph glyph-name="caron" unicode="&#x2c7;" 
d="M316 668l74 73h110l-115 -135h-140l-115 135h113z" />
    <glyph glyph-name="breve" unicode="&#x2d8;" 
d="M201.5 635q-45.5 35 -61.5 100l84 22q24 -80 91 -80q68 0 91 80l84 -22q-16 -64 -61.5 -99.5t-113.5 -35.5t-113.5 35z" />
    <glyph glyph-name="dotaccent" unicode="&#x2d9;" 
d="M67 606q-23 23 -23 55t22.5 55t54.5 23t55 -23t23 -55t-23 -55t-55 -23q-31 0 -54 23z" />
    <glyph glyph-name="ring" unicode="&#x2da;" 
d="M228 620q-36 35 -36 85q0 33 16.5 60.5t45 44t61.5 16.5t61.5 -16.5t45 -44t16.5 -60.5q0 -50 -36 -85t-87 -35t-87 35zM270.5 661q18.5 -18 44.5 -18t44.5 18t18.5 44t-18.5 44.5t-44.5 18.5t-44.5 -18.5t-18.5 -44.5t18.5 -44z" />
    <glyph glyph-name="tilde" unicode="&#x2dc;" 
d="M162.5 706q28.5 30 72.5 30q21 0 41 -7.5t47 -21.5q22 -11 35 -16t24 -5q17 0 26.5 12t17.5 42l82 -18q-24 -122 -113 -122q-19 0 -38 7t-48 21q-17 8 -33.5 15t-28.5 7q-17 0 -26.5 -12.5t-15.5 -40.5l-84 18q13 61 41.5 91z" />
    <glyph glyph-name="hungarumlaut" unicode="&#x2dd;" 
d="M248 737h136l-132 -127h-105zM455 737h138l-142 -127h-97z" />
    <glyph glyph-name="gravecomb" unicode="&#x300;" horiz-adv-x="0" 
d="M153 738h158l88 -130h-111z" />
    <glyph glyph-name="acutecomb" unicode="&#x301;" horiz-adv-x="0" 
d="M324 738h156l-135 -130h-111z" />
    <glyph glyph-name="uni0302" unicode="&#x302;" horiz-adv-x="0" 
d="M313 679l-73 -74h-110l115 136h140l115 -136h-113z" />
    <glyph glyph-name="tildecomb" unicode="&#x303;" horiz-adv-x="0" 
d="M162.5 706q28.5 30 72.5 30q21 0 41 -7.5t47 -21.5q22 -11 35 -16t24 -5q17 0 26.5 12t17.5 42l82 -18q-24 -122 -113 -122q-19 0 -38 7t-48 21q-17 8 -33.5 15t-28.5 7q-17 0 -26.5 -12.5t-15.5 -40.5l-84 18q13 61 41.5 91z" />
    <glyph glyph-name="uni0304" unicode="&#x304;" horiz-adv-x="0" 
d="M155 711h320v-86h-320v86z" />
    <glyph glyph-name="uni0306" unicode="&#x306;" horiz-adv-x="0" 
d="M201.5 635q-45.5 35 -61.5 100l84 22q24 -80 91 -80q68 0 91 80l84 -22q-16 -64 -61.5 -99.5t-113.5 -35.5t-113.5 35z" />
    <glyph glyph-name="uni0307" unicode="&#x307;" horiz-adv-x="0" 
d="M67 606q-23 23 -23 55t22.5 55t54.5 23t55 -23t23 -55t-23 -55t-55 -23q-31 0 -54 23z" />
    <glyph glyph-name="uni0308" unicode="&#x308;" horiz-adv-x="0" 
d="M151.5 625.5q-20.5 20.5 -20.5 51.5t20.5 51.5t51.5 20.5t51.5 -20.5t20.5 -51.5t-20.5 -51.5t-51.5 -20.5t-51.5 20.5zM375.5 728.5q20.5 20.5 51.5 20.5t51.5 -20.5t20.5 -51.5t-20.5 -51.5t-51.5 -20.5t-51.5 20.5t-20.5 51.5t20.5 51.5z" />
    <glyph glyph-name="uni030A" unicode="&#x30a;" horiz-adv-x="0" 
d="M228 620q-36 35 -36 85q0 33 16.5 60.5t45 44t61.5 16.5t61.5 -16.5t45 -44t16.5 -60.5q0 -50 -36 -85t-87 -35t-87 35zM270.5 661q18.5 -18 44.5 -18t44.5 18t18.5 44t-18.5 44.5t-44.5 18.5t-44.5 -18.5t-18.5 -44.5t18.5 -44z" />
    <glyph glyph-name="uni030B" unicode="&#x30b;" horiz-adv-x="0" 
d="M248 737h136l-132 -127h-105zM455 737h138l-142 -127h-97z" />
    <glyph glyph-name="uni030C" unicode="&#x30c;" horiz-adv-x="0" 
d="M316 668l74 73h110l-115 -135h-140l-115 135h113z" />
    <glyph glyph-name="uni0326" unicode="&#x326;" horiz-adv-x="0" 
d="M144 -81h129l-81 -205h-99z" />
    <glyph glyph-name="uni0327" unicode="&#x327;" horiz-adv-x="0" 
d="M239.5 -215.5q-32.5 20.5 -44.5 60.5l74 15q14 -32 53 -32q23 0 37 10.5t14 27.5t-14.5 27t-40.5 10h-42l28 97h67l-14 -46q44 -4 69.5 -27.5t25.5 -61.5q0 -46 -35.5 -73.5t-94.5 -27.5q-50 0 -82.5 20.5z" />
    <glyph glyph-name="uni0328" unicode="&#x328;" horiz-adv-x="0" 
d="M240 -195.5q-29 25.5 -29 66.5q0 42 30 77.5t95 71.5l43 -20q-45 -28 -66.5 -53.5t-21.5 -51.5q0 -21 13 -32.5t37 -11.5q23 0 39 12l24 -58q-15 -12 -38.5 -19t-49.5 -7q-47 0 -76 25.5z" />
    <glyph glyph-name="Wgrave" unicode="&#x1e80;" horiz-adv-x="974" 
d="M41 700h149l95 -474l136 474h137l136 -473l95 473h144l-155 -700h-152l-138 488l-140 -488h-152zM309 917h158l88 -130h-111z" />
    <glyph glyph-name="wgrave" unicode="&#x1e81;" horiz-adv-x="802" 
d="M25 521h130l86 -336l104 336h115l103 -337l86 337h128l-144 -521h-131l-101 333l-101 -333h-132zM225 738h158l88 -130h-111z" />
    <glyph glyph-name="Wacute" unicode="&#x1e82;" horiz-adv-x="974" 
d="M41 700h149l95 -474l136 474h137l136 -473l95 473h144l-155 -700h-152l-138 488l-140 -488h-152zM494 917h156l-135 -130h-111z" />
    <glyph glyph-name="wacute" unicode="&#x1e83;" horiz-adv-x="802" 
d="M25 521h130l86 -336l104 336h115l103 -337l86 337h128l-144 -521h-131l-101 333l-101 -333h-132zM410 738h156l-135 -130h-111z" />
    <glyph glyph-name="Wdieresis" unicode="&#x1e84;" horiz-adv-x="974" 
d="M41 700h149l95 -474l136 474h137l136 -473l95 473h144l-155 -700h-152l-138 488l-140 -488h-152zM321.5 804.5q-20.5 20.5 -20.5 51.5t20.5 51.5t51.5 20.5t51.5 -20.5t20.5 -51.5t-20.5 -51.5t-51.5 -20.5t-51.5 20.5zM545.5 907.5q20.5 20.5 51.5 20.5t51.5 -20.5
t20.5 -51.5t-20.5 -51.5t-51.5 -20.5t-51.5 20.5t-20.5 51.5t20.5 51.5z" />
    <glyph glyph-name="wdieresis" unicode="&#x1e85;" horiz-adv-x="802" 
d="M25 521h130l86 -336l104 336h115l103 -337l86 337h128l-144 -521h-131l-101 333l-101 -333h-132zM237.5 625.5q-20.5 20.5 -20.5 51.5t20.5 51.5t51.5 20.5t51.5 -20.5t20.5 -51.5t-20.5 -51.5t-51.5 -20.5t-51.5 20.5zM461.5 728.5q20.5 20.5 51.5 20.5t51.5 -20.5
t20.5 -51.5t-20.5 -51.5t-51.5 -20.5t-51.5 20.5t-20.5 51.5t20.5 51.5z" />
    <glyph glyph-name="Ygrave" unicode="&#x1ef2;" horiz-adv-x="735" 
d="M295 268l-286 432h167l196 -304l197 304h158l-287 -433v-267h-145v268zM192 917h158l88 -130h-111z" />
    <glyph glyph-name="ygrave" unicode="&#x1ef3;" horiz-adv-x="606" 
d="M19 -182l45 108q30 -19 59 -19q32 0 54 17.5t32 48.5l9 22l-203 526h151l130 -355l147 355h148l-241 -563q-39 -92 -90.5 -132t-122.5 -40q-68 0 -118 32zM125 738h158l88 -130h-111z" />
    <glyph glyph-name="uni2002" unicode="&#x2002;" horiz-adv-x="530" 
 />
    <glyph glyph-name="uni2003" unicode="&#x2003;" horiz-adv-x="1030" 
 />
    <glyph glyph-name="uni2009" unicode="&#x2009;" horiz-adv-x="205" 
 />
    <glyph glyph-name="uni200A" unicode="&#x200a;" horiz-adv-x="130" 
 />
    <glyph glyph-name="uni200B" unicode="&#x200b;" horiz-adv-x="30" 
 />
    <glyph glyph-name="endash" unicode="&#x2013;" horiz-adv-x="588" 
d="M56 343h476v-116h-476v116z" />
    <glyph glyph-name="emdash" unicode="&#x2014;" horiz-adv-x="738" 
d="M56 343h626v-116h-626v116z" />
    <glyph glyph-name="uni2015" unicode="&#x2015;" horiz-adv-x="988" 
d="M56 343h876v-116h-876v116z" />
    <glyph glyph-name="quoteleft" unicode="&#x2018;" horiz-adv-x="267" 
d="M140 559h68v-149h-149v111q0 125 117 190l45 -56q-71 -35 -81 -96z" />
    <glyph glyph-name="quoteright" unicode="&#x2019;" horiz-adv-x="267" 
d="M128 552h-69v148h149v-111q0 -125 -117 -189l-45 56q72 34 82 96z" />
    <glyph glyph-name="quotesinglbase" unicode="&#x201a;" horiz-adv-x="267" 
d="M128 0h-69v148h149v-111q0 -125 -117 -189l-45 56q72 34 82 96z" />
    <glyph glyph-name="quotedblleft" unicode="&#x201c;" horiz-adv-x="459" 
d="M139 559h69v-148h-149v111q0 125 117 189l45 -56q-72 -34 -82 -96zM251 522q0 125 117 189l45 -56q-72 -34 -82 -96h69v-148h-149v111z" />
    <glyph glyph-name="quotedblright" unicode="&#x201d;" horiz-adv-x="459" 
d="M320 552h-69v148h149v-111q0 -125 -117 -189l-45 56q72 34 82 96zM128 552h-69v148h149v-111q0 -125 -117 -189l-45 56q72 34 82 96z" />
    <glyph glyph-name="quotedblbase" unicode="&#x201e;" horiz-adv-x="459" 
d="M320 0h-69v148h149v-111q0 -125 -117 -189l-45 56q72 34 82 96zM128 0h-69v148h149v-111q0 -125 -117 -189l-45 56q72 34 82 96z" />
    <glyph glyph-name="dagger" unicode="&#x2020;" horiz-adv-x="479" 
d="M184 413h-121v106h121v181h111v-181h121v-106h-121v-413h-111v413z" />
    <glyph glyph-name="daggerdbl" unicode="&#x2021;" horiz-adv-x="479" 
d="M184 181h-121v106h121v126h-121v106h121v181h111v-181h121v-106h-121v-126h121v-106h-121v-181h-111v181z" />
    <glyph glyph-name="bullet" unicode="&#x2022;" horiz-adv-x="385" 
d="M109 249.5q-34 33.5 -34 81.5q0 49 34 83t83 34t83.5 -34t34.5 -83q0 -48 -34 -81.5t-84 -33.5q-49 0 -83 33.5z" />
    <glyph glyph-name="ellipsis" unicode="&#x2026;" horiz-adv-x="737" 
d="M83 14q-24 24 -24 57q0 34 24 57.5t57 23.5t57 -23.5t24 -57.5q0 -33 -24 -57t-57 -24t-57 24zM312 14q-24 24 -24 57q0 34 24 57.5t57 23.5t57 -23.5t24 -57.5q0 -33 -24 -57t-57 -24t-57 24zM540 14q-24 24 -24 57q0 34 24 57.5t57 23.5t57 -23.5t24 -57.5
q0 -33 -24 -57t-57 -24t-57 24z" />
    <glyph glyph-name="perthousand" unicode="&#x2030;" horiz-adv-x="1178" 
d="M80.5 394.5q-43.5 49.5 -43.5 131.5q0 80 44 130t116 50q71 0 115 -50t44 -130q0 -82 -43.5 -131.5t-115.5 -49.5q-73 0 -116.5 49.5zM140.5 446.5q20.5 -28.5 56.5 -28.5t56.5 29t20.5 79q0 49 -21 78t-56 29q-36 0 -56.5 -29t-21.5 -78q1 -51 21.5 -79.5zM554 700h102
l-397 -700h-101zM511 306q44 50 116 50q71 0 115 -50t44 -130q0 -82 -43.5 -131.5t-115.5 -49.5q-73 0 -116.5 49.5t-43.5 131.5q0 80 44 130zM570.5 96.5q20.5 -28.5 56.5 -28.5t56.5 29t20.5 79q0 49 -21 78t-56 29q-36 0 -56.5 -29t-21.5 -78q1 -51 21.5 -79.5z
M865.5 306.5q43.5 49.5 115.5 49.5t116 -50t44 -130q0 -82 -43.5 -131.5t-116.5 -49.5q-72 0 -115.5 49.5t-43.5 131.5q0 81 43.5 130.5zM924.5 97q20.5 -29 56.5 -29q37 0 57.5 29t20.5 79q0 49 -21 78t-57 29q-35 0 -56 -29t-21 -78q0 -50 20.5 -79z" />
    <glyph glyph-name="minute" unicode="&#x2032;" horiz-adv-x="280" 
d="M102 700h143l-108 -263h-103z" />
    <glyph glyph-name="second" unicode="&#x2033;" horiz-adv-x="472" 
d="M102 700h143l-108 -263h-103zM294 700h143l-108 -263h-103z" />
    <glyph glyph-name="guilsinglleft" unicode="&#x2039;" horiz-adv-x="461" 
d="M34 261l242 260h140l-236 -259l239 -262h-143z" />
    <glyph glyph-name="guilsinglright" unicode="&#x203a;" horiz-adv-x="461" 
d="M427 260l-242 -260h-140l236 259l-239 262h143z" />
    <glyph glyph-name="fraction" unicode="&#x2044;" horiz-adv-x="607" 
d="M429 700h102l-396 -700h-102z" />
    <glyph glyph-name="uni2070" unicode="&#x2070;" horiz-adv-x="392" 
d="M80.5 394.5q-43.5 49.5 -43.5 131.5q0 80 44 130t116 50q71 0 115 -50t44 -130q0 -82 -43.5 -131.5t-115.5 -49.5q-73 0 -116.5 49.5zM140.5 446.5q20.5 -28.5 56.5 -28.5t56.5 29t20.5 79q0 49 -21 78t-56 29q-36 0 -56.5 -29t-21.5 -78q1 -51 21.5 -79.5z" />
    <glyph glyph-name="uni2074" unicode="&#x2074;" horiz-adv-x="386" 
d="M233 427h-197v68l183 205h98v-204h44v-69h-44v-77h-84v77zM233 496v113l-102 -113h102z" />
    <glyph glyph-name="uni2075" unicode="&#x2075;" horiz-adv-x="353" 
d="M45 445l78 17q10 -53 57 -53q21 0 37 14t16 37q0 24 -15.5 38.5t-41.5 14.5q-34 0 -65 -19l-53 16l8 190h230v-67h-165l-3 -78q28 14 67 14q54 0 87 -29.5t33 -78.5q0 -53 -38 -87.5t-94 -34.5q-112 0 -138 106z" />
    <glyph glyph-name="uni2076" unicode="&#x2076;" horiz-adv-x="368" 
d="M75.5 388.5q-42.5 49.5 -42.5 131.5q0 85 43.5 136t117.5 51q49 0 80.5 -23t43.5 -67l-77 -16q-13 36 -52 36q-38 0 -60 -30.5t-22 -82.5q35 43 95 43q51 0 84.5 -31t33.5 -79q0 -51 -38 -84.5t-96 -33.5q-68 0 -110.5 49.5zM138.5 422q19.5 -19 47.5 -19q25 0 42.5 15
t17.5 38q0 22 -16.5 37t-43.5 15q-21 0 -40.5 -9t-33.5 -25q7 -33 26.5 -52z" />
    <glyph glyph-name="uni2077" unicode="&#x2077;" horiz-adv-x="350" 
d="M226 627h-193v73h290v-62l-146 -288h-102z" />
    <glyph glyph-name="uni2078" unicode="&#x2078;" horiz-adv-x="366" 
d="M79 373.5q-40 29.5 -40 76.5q0 25 14.5 46t39.5 32q-20 13 -32 32.5t-12 42.5q0 44 38 73.5t95 29.5q58 0 96.5 -29.5t38.5 -73.5q0 -23 -11.5 -42.5t-32.5 -32.5q25 -11 39.5 -32t14.5 -46q0 -47 -40 -76.5t-104 -29.5t-104 29.5zM140.5 425q16.5 -11 42.5 -11
q27 0 43.5 11t16.5 30q0 18 -17 29.5t-43 11.5t-42.5 -11.5t-16.5 -29.5q0 -19 16.5 -30zM146.5 569q14.5 -11 36.5 -11t36.5 11t14.5 28t-14.5 28.5t-36.5 11.5t-36.5 -11.5t-14.5 -28.5t14.5 -28z" />
    <glyph glyph-name="uni2079" unicode="&#x2079;" horiz-adv-x="368" 
d="M292.5 661.5q42.5 -49.5 42.5 -131.5q0 -85 -43.5 -136t-117.5 -51q-49 0 -80.5 23.5t-43.5 66.5l77 17q11 -36 52 -36q38 0 60 30t22 82q-35 -42 -95 -42q-51 0 -84.5 31t-33.5 78q0 51 37.5 84.5t95.5 33.5q69 0 111.5 -49.5zM138.5 557.5q16.5 -14.5 43.5 -14.5
q21 0 40.5 8.5t33.5 24.5q-7 34 -26.5 53t-47.5 19q-26 0 -43 -15.5t-17 -38.5q0 -22 16.5 -36.5z" />
    <glyph glyph-name="uni2080" unicode="&#x2080;" horiz-adv-x="392" 
d="M80.5 44.5q-43.5 49.5 -43.5 131.5q0 80 44 130t116 50q71 0 115 -50t44 -130q0 -82 -43.5 -131.5t-115.5 -49.5q-73 0 -116.5 49.5zM140.5 96.5q20.5 -28.5 56.5 -28.5t56.5 29t20.5 79q0 49 -21 78t-56 29q-36 0 -56.5 -29t-21.5 -78q1 -51 21.5 -79.5z" />
    <glyph glyph-name="uni2081" unicode="&#x2081;" horiz-adv-x="225" 
d="M104 265l-73 -29v72l105 42h53v-350h-85v265z" />
    <glyph glyph-name="uni2082" unicode="&#x2082;" horiz-adv-x="336" 
d="M113 164l78 37q18 10 27 20t9 24q0 20 -12.5 31.5t-34.5 11.5t-37 -13t-21 -37l-78 17q14 49 48.5 74.5t87.5 25.5q59 0 92.5 -30t33.5 -83q0 -36 -17.5 -59.5t-53.5 -40.5l-65 -27q-20 -10 -29 -22t-11 -27h176v-66h-262v44q0 88 69 120z" />
    <glyph glyph-name="uni2083" unicode="&#x2083;" horiz-adv-x="358" 
d="M32 98l77 17q5 -27 20.5 -40t43.5 -13q22 0 37 11.5t15 31.5t-11 30t-31 10h-48v63h44q20 0 31.5 9.5t11.5 27.5q0 19 -13 31t-34 12q-50 0 -58 -48l-76 17q12 48 46.5 73.5t88.5 25.5q52 0 85.5 -27.5t33.5 -70.5q0 -54 -57 -78q31 -6 48.5 -27.5t17.5 -53.5
q0 -44 -38.5 -74t-96.5 -30q-113 0 -137 103z" />
    <glyph glyph-name="uni2084" unicode="&#x2084;" horiz-adv-x="386" 
d="M233 77h-197v68l183 205h98v-204h44v-69h-44v-77h-84v77zM233 146v113l-102 -113h102z" />
    <glyph glyph-name="uni2085" unicode="&#x2085;" horiz-adv-x="353" 
d="M45 95l78 17q10 -53 57 -53q21 0 37 14t16 37q0 24 -15.5 38.5t-41.5 14.5q-34 0 -65 -19l-53 16l8 190h230v-67h-165l-3 -78q28 14 67 14q54 0 87 -29.5t33 -78.5q0 -53 -38 -87.5t-94 -34.5q-112 0 -138 106z" />
    <glyph glyph-name="uni2086" unicode="&#x2086;" horiz-adv-x="368" 
d="M75.5 38.5q-42.5 49.5 -42.5 131.5q0 85 43.5 136t117.5 51q49 0 80.5 -23t43.5 -67l-77 -16q-13 36 -52 36q-38 0 -60 -30.5t-22 -82.5q35 43 95 43q51 0 84.5 -31t33.5 -79q0 -51 -38 -84.5t-96 -33.5q-68 0 -110.5 49.5zM138.5 72q19.5 -19 47.5 -19q25 0 42.5 15
t17.5 38q0 22 -16.5 37t-43.5 15q-21 0 -40.5 -9t-33.5 -25q7 -33 26.5 -52z" />
    <glyph glyph-name="uni2087" unicode="&#x2087;" horiz-adv-x="350" 
d="M226 277h-193v73h290v-62l-146 -288h-102z" />
    <glyph glyph-name="uni2088" unicode="&#x2088;" horiz-adv-x="366" 
d="M79 23.5q-40 29.5 -40 76.5q0 25 14.5 46t39.5 32q-20 13 -32 32.5t-12 42.5q0 44 38 73.5t95 29.5q58 0 96.5 -29.5t38.5 -73.5q0 -23 -11.5 -42.5t-32.5 -32.5q25 -11 39.5 -32t14.5 -46q0 -47 -40 -76.5t-104 -29.5t-104 29.5zM140.5 75q16.5 -11 42.5 -11
q27 0 43.5 11t16.5 30q0 18 -17 29.5t-43 11.5t-42.5 -11.5t-16.5 -29.5q0 -19 16.5 -30zM146.5 219q14.5 -11 36.5 -11t36.5 11t14.5 28t-14.5 28.5t-36.5 11.5t-36.5 -11.5t-14.5 -28.5t14.5 -28z" />
    <glyph glyph-name="uni2089" unicode="&#x2089;" horiz-adv-x="368" 
d="M292.5 311.5q42.5 -49.5 42.5 -131.5q0 -85 -43.5 -136t-117.5 -51q-49 0 -80.5 23.5t-43.5 66.5l77 17q11 -36 52 -36q38 0 60 30t22 82q-35 -42 -95 -42q-51 0 -84.5 31t-33.5 78q0 51 37.5 84.5t95.5 33.5q69 0 111.5 -49.5zM138.5 207.5q16.5 -14.5 43.5 -14.5
q21 0 40.5 8.5t33.5 24.5q-7 34 -26.5 53t-47.5 19q-26 0 -43 -15.5t-17 -38.5q0 -22 16.5 -36.5z" />
    <glyph glyph-name="uni20A8" unicode="&#x20a8;" horiz-adv-x="1211" 
d="M78 700h340q70 0 124.5 -24.5t85 -69.5t30.5 -104q0 -63 -36 -111.5t-99 -69.5q44 -11 66 -46.5t29 -103.5l1 -10q9 -97 54 -161h-169q-13 24 -19 52t-10 87l-3 26q-4 42 -14.5 64t-33.5 31t-64 9h-137v-269h-145v700zM405 388q48 0 77.5 26.5t29.5 67.5q0 43 -29.5 68.5
t-77.5 25.5h-182v-188h182zM792.5 29q-62.5 40 -82.5 115l122 23q28 -75 121 -75q44 0 69 15.5t25 43.5q0 23 -15.5 35.5t-52.5 16.5l-99 11q-73 8 -114 47.5t-41 101.5q0 49 27 87t76.5 59t112.5 21q88 0 146 -36.5t80 -106.5l-119 -23q-31 63 -113 63q-39 0 -63 -15
t-24 -40q0 -21 17 -32.5t54 -16.5l85 -9q83 -8 126 -47.5t43 -104.5q0 -51 -28 -90.5t-78.5 -61t-116.5 -21.5q-95 0 -157.5 40z" />
    <glyph glyph-name="Euro" unicode="&#x20ac;" horiz-adv-x="822" 
d="M323 21q-70 32 -118 90.5t-66 137.5h-89v70h79q-1 8 -1 30t1 32h-79v71h90q18 78 65.5 136.5t117.5 90.5t154 32q109 0 189 -52.5t112 -143.5l-138 -43q-22 53 -64.5 82.5t-99.5 29.5q-63 0 -113.5 -35.5t-72.5 -96.5h240l-27 -71h-233q-2 -34 0 -62h211l-27 -70h-164
q22 -61 72.5 -97t114.5 -36q56 0 98.5 29.5t64.5 83.5l138 -44q-32 -91 -112 -143.5t-189 -52.5q-84 0 -154 32z" />
    <glyph glyph-name="uni20B9" unicode="&#x20b9;" horiz-adv-x="604" 
d="M62 368h175q90 0 111 61h-286v105h284q-23 61 -109 61h-175v105h497v-105h-119q33 -28 47 -61h72v-105h-60q-13 -77 -76.5 -121.5t-155.5 -44.5h-17l268 -263h-198l-258 263v105z" />
    <glyph glyph-name="trademark" unicode="&#x2122;" horiz-adv-x="719" 
d="M343 700h85l73 -148l73 148h85v-279h-67l2 197l-93 -179l-95 178l1 -196h-64v279zM41 700h257v-59h-93v-220h-71v220h-93v59z" />
    <glyph glyph-name="arrowup" unicode="&#x2191;" horiz-adv-x="645" 
d="M258 514l-144 -179l-80 69l288 346l288 -345l-82 -71l-143 179v-513h-127v514z" />
    <glyph glyph-name="arrowdown" unicode="&#x2193;" horiz-adv-x="645" 
d="M386 186l143 179l81 -69l-289 -346l-287 345l82 71l142 -179v513h128v-514z" />
    <glyph glyph-name="minus" unicode="&#x2212;" 
d="M98 410h434v-103h-434v103z" />
    <glyph glyph-name="uni2215" unicode="&#x2215;" horiz-adv-x="607" 
d="M430 700h100l-397 -700h-99z" />
    <glyph glyph-name="notequal" unicode="&#x2260;" 
d="M175 206h-77v103h139l56 88h-195v103h258l69 112h101l-69 -112h75v-103h-138l-55 -88h193v-103h-255l-71 -113h-102z" />
    <glyph glyph-name="uniFEFF" unicode="&#xfeff;" horiz-adv-x="30" 
 />
    <glyph glyph-name="uniFFFD" unicode="&#xfffd;" horiz-adv-x="569" 
d="M87 750h394v-850h-394v850z" />
    <glyph glyph-name="i.loclTRK" horiz-adv-x="274" 
d="M69 521h137v-521h-137v521zM82 716q23 23 55 23t55 -23t23 -55t-23 -55t-55 -23t-55 23t-23 55t23 55z" />
    <glyph glyph-name="a.ss01" horiz-adv-x="661" 
d="M176.5 28.5q-60.5 35.5 -96 97t-35.5 135.5t35.5 135t97.5 96.5t136 35.5q78 0 142 -41v34h137v-521h-135v43q-64 -50 -148 -50q-73 0 -133.5 35.5zM199.5 184.5q20.5 -34.5 55.5 -54.5t77 -20q77 0 124 50v203q-23 23 -55 36t-69 13q-43 0 -78 -20t-55 -54.5t-20 -76.5
t20.5 -76.5z" />
    <glyph glyph-name="aacute.ss01" horiz-adv-x="661" 
d="M176.5 28.5q-60.5 35.5 -96 97t-35.5 135.5t35.5 135t97.5 96.5t136 35.5q78 0 142 -41v34h137v-521h-135v43q-64 -50 -148 -50q-73 0 -133.5 35.5zM199.5 184.5q20.5 -34.5 55.5 -54.5t77 -20q77 0 124 50v203q-23 23 -55 36t-69 13q-43 0 -78 -20t-55 -54.5t-20 -76.5
t20.5 -76.5zM339 738h156l-135 -130h-111z" />
    <glyph glyph-name="abreve.ss01" horiz-adv-x="661" 
d="M176.5 28.5q-60.5 35.5 -96 97t-35.5 135.5t35.5 135t97.5 96.5t136 35.5q78 0 142 -41v34h137v-521h-135v43q-64 -50 -148 -50q-73 0 -133.5 35.5zM199.5 184.5q20.5 -34.5 55.5 -54.5t77 -20q77 0 124 50v203q-23 23 -55 36t-69 13q-43 0 -78 -20t-55 -54.5t-20 -76.5
t20.5 -76.5zM216.5 635q-45.5 35 -61.5 100l84 22q24 -80 91 -80q68 0 91 80l84 -22q-16 -64 -61.5 -99.5t-113.5 -35.5t-113.5 35z" />
    <glyph glyph-name="acircumflex.ss01" horiz-adv-x="661" 
d="M176.5 28.5q-60.5 35.5 -96 97t-35.5 135.5t35.5 135t97.5 96.5t136 35.5q78 0 142 -41v34h137v-521h-135v43q-64 -50 -148 -50q-73 0 -133.5 35.5zM199.5 184.5q20.5 -34.5 55.5 -54.5t77 -20q77 0 124 50v203q-23 23 -55 36t-69 13q-43 0 -78 -20t-55 -54.5t-20 -76.5
t20.5 -76.5zM328 679l-73 -74h-110l115 136h140l115 -136h-113z" />
    <glyph glyph-name="adieresis.ss01" horiz-adv-x="661" 
d="M176.5 28.5q-60.5 35.5 -96 97t-35.5 135.5t35.5 135t97.5 96.5t136 35.5q78 0 142 -41v34h137v-521h-135v43q-64 -50 -148 -50q-73 0 -133.5 35.5zM199.5 184.5q20.5 -34.5 55.5 -54.5t77 -20q77 0 124 50v203q-23 23 -55 36t-69 13q-43 0 -78 -20t-55 -54.5t-20 -76.5
t20.5 -76.5zM166.5 625.5q-20.5 20.5 -20.5 51.5t20.5 51.5t51.5 20.5t51.5 -20.5t20.5 -51.5t-20.5 -51.5t-51.5 -20.5t-51.5 20.5zM390.5 728.5q20.5 20.5 51.5 20.5t51.5 -20.5t20.5 -51.5t-20.5 -51.5t-51.5 -20.5t-51.5 20.5t-20.5 51.5t20.5 51.5z" />
    <glyph glyph-name="agrave.ss01" horiz-adv-x="661" 
d="M176.5 28.5q-60.5 35.5 -96 97t-35.5 135.5t35.5 135t97.5 96.5t136 35.5q78 0 142 -41v34h137v-521h-135v43q-64 -50 -148 -50q-73 0 -133.5 35.5zM199.5 184.5q20.5 -34.5 55.5 -54.5t77 -20q77 0 124 50v203q-23 23 -55 36t-69 13q-43 0 -78 -20t-55 -54.5t-20 -76.5
t20.5 -76.5zM154 738h158l88 -130h-111z" />
    <glyph glyph-name="amacron.ss01" horiz-adv-x="661" 
d="M176.5 28.5q-60.5 35.5 -96 97t-35.5 135.5t35.5 135t97.5 96.5t136 35.5q78 0 142 -41v34h137v-521h-135v43q-64 -50 -148 -50q-73 0 -133.5 35.5zM199.5 184.5q20.5 -34.5 55.5 -54.5t77 -20q77 0 124 50v203q-23 23 -55 36t-69 13q-43 0 -78 -20t-55 -54.5t-20 -76.5
t20.5 -76.5zM170 711h320v-86h-320v86z" />
    <glyph glyph-name="aogonek.ss01" horiz-adv-x="661" 
d="M176.5 28.5q-60.5 35.5 -96 97t-35.5 135.5t35.5 135t97.5 96.5t136 35.5q78 0 142 -41v34h137v-521h-1q-45 -28 -66.5 -53.5t-21.5 -51.5q0 -21 13 -32.5t37 -11.5q23 0 39 12l24 -58q-15 -12 -38.5 -19t-49.5 -7q-47 0 -76 25.5t-29 66.5q0 36 22 67t69 62h-57v43
q-64 -50 -148 -50q-73 0 -133.5 35.5zM199.5 184.5q20.5 -34.5 55.5 -54.5t77 -20q77 0 124 50v203q-23 23 -55 36t-69 13q-43 0 -78 -20t-55 -54.5t-20 -76.5t20.5 -76.5z" />
    <glyph glyph-name="aring.ss01" horiz-adv-x="661" 
d="M176.5 28.5q-60.5 35.5 -96 97t-35.5 135.5t35.5 135t97.5 96.5t136 35.5q78 0 142 -41v34h137v-521h-135v43q-64 -50 -148 -50q-73 0 -133.5 35.5zM199.5 184.5q20.5 -34.5 55.5 -54.5t77 -20q77 0 124 50v203q-23 23 -55 36t-69 13q-43 0 -78 -20t-55 -54.5t-20 -76.5
t20.5 -76.5zM243 620q-36 35 -36 85q0 33 16.5 60.5t45 44t61.5 16.5t61.5 -16.5t45 -44t16.5 -60.5q0 -50 -36 -85t-87 -35t-87 35zM285.5 661q18.5 -18 44.5 -18t44.5 18t18.5 44t-18.5 44.5t-44.5 18.5t-44.5 -18.5t-18.5 -44.5t18.5 -44z" />
    <glyph glyph-name="atilde.ss01" horiz-adv-x="661" 
d="M176.5 28.5q-60.5 35.5 -96 97t-35.5 135.5t35.5 135t97.5 96.5t136 35.5q78 0 142 -41v34h137v-521h-135v43q-64 -50 -148 -50q-73 0 -133.5 35.5zM199.5 184.5q20.5 -34.5 55.5 -54.5t77 -20q77 0 124 50v203q-23 23 -55 36t-69 13q-43 0 -78 -20t-55 -54.5t-20 -76.5
t20.5 -76.5zM177.5 706q28.5 30 72.5 30q21 0 41 -7.5t47 -21.5q22 -11 35 -16t24 -5q17 0 26.5 12t17.5 42l82 -18q-24 -122 -113 -122q-19 0 -38 7t-48 21q-17 8 -33.5 15t-28.5 7q-17 0 -26.5 -12.5t-15.5 -40.5l-84 18q13 61 41.5 91z" />
    <glyph glyph-name="g.ss02" horiz-adv-x="629" 
d="M101 -182.5q-66 31.5 -66 90.5q0 32 26.5 58.5t71.5 40.5q-34 27 -34 72q0 30 17.5 55t49.5 40q-45 27 -71 69t-26 91q0 54 31 99.5t84.5 71.5t118.5 26q86 0 152 -45q47 72 122 72q19 0 32 -5l3 -103q-13 3 -37 3q-40 0 -72 -15q34 -49 34 -104q0 -54 -31 -99t-84.5 -71
t-118.5 -26q-29 0 -66 7q-20 -9 -20 -27q0 -31 55 -34l175 -4q75 -2 117.5 -34t42.5 -87q0 -53 -38.5 -92t-109 -60t-165.5 -21q-127 0 -193 31.5zM292 -128q82 0 130 16t48 44q0 15 -11.5 23t-33.5 8l-151 4q-34 1 -61 6q-26 -6 -40.5 -18.5t-14.5 -29.5q0 -53 134 -53z
M227 266.5q30 -26.5 76 -26.5q45 0 75.5 27t30.5 67q0 41 -30.5 68t-75.5 27q-46 0 -76 -27t-30 -68t30 -67.5z" />
    <glyph glyph-name="gbreve.ss02" horiz-adv-x="629" 
d="M101 -182.5q-66 31.5 -66 90.5q0 32 26.5 58.5t71.5 40.5q-34 27 -34 72q0 30 17.5 55t49.5 40q-45 27 -71 69t-26 91q0 54 31 99.5t84.5 71.5t118.5 26q86 0 152 -45q47 72 122 72q19 0 32 -5l3 -103q-13 3 -37 3q-40 0 -72 -15q34 -49 34 -104q0 -54 -31 -99t-84.5 -71
t-118.5 -26q-29 0 -66 7q-20 -9 -20 -27q0 -31 55 -34l175 -4q75 -2 117.5 -34t42.5 -87q0 -53 -38.5 -92t-109 -60t-165.5 -21q-127 0 -193 31.5zM292 -128q82 0 130 16t48 44q0 15 -11.5 23t-33.5 8l-151 4q-34 1 -61 6q-26 -6 -40.5 -18.5t-14.5 -29.5q0 -53 134 -53z
M227 266.5q30 -26.5 76 -26.5q45 0 75.5 27t30.5 67q0 41 -30.5 68t-75.5 27q-46 0 -76 -27t-30 -68t30 -67.5zM190.5 635q-45.5 35 -61.5 100l84 22q24 -80 91 -80q68 0 91 80l84 -22q-16 -64 -61.5 -99.5t-113.5 -35.5t-113.5 35z" />
    <glyph glyph-name="gcircumflex.ss02" horiz-adv-x="629" 
d="M101 -182.5q-66 31.5 -66 90.5q0 32 26.5 58.5t71.5 40.5q-34 27 -34 72q0 30 17.5 55t49.5 40q-45 27 -71 69t-26 91q0 54 31 99.5t84.5 71.5t118.5 26q86 0 152 -45q47 72 122 72q19 0 32 -5l3 -103q-13 3 -37 3q-40 0 -72 -15q34 -49 34 -104q0 -54 -31 -99t-84.5 -71
t-118.5 -26q-29 0 -66 7q-20 -9 -20 -27q0 -31 55 -34l175 -4q75 -2 117.5 -34t42.5 -87q0 -53 -38.5 -92t-109 -60t-165.5 -21q-127 0 -193 31.5zM292 -128q82 0 130 16t48 44q0 15 -11.5 23t-33.5 8l-151 4q-34 1 -61 6q-26 -6 -40.5 -18.5t-14.5 -29.5q0 -53 134 -53z
M227 266.5q30 -26.5 76 -26.5q45 0 75.5 27t30.5 67q0 41 -30.5 68t-75.5 27q-46 0 -76 -27t-30 -68t30 -67.5zM302 679l-73 -74h-110l115 136h140l115 -136h-113z" />
    <glyph glyph-name="uni0123.ss02" horiz-adv-x="629" 
d="M101 -182.5q-66 31.5 -66 90.5q0 32 26.5 58.5t71.5 40.5q-34 27 -34 72q0 30 17.5 55t49.5 40q-45 27 -71 69t-26 91q0 54 31 99.5t84.5 71.5t118.5 26q86 0 152 -45q47 72 122 72q19 0 32 -5l3 -103q-13 3 -37 3q-40 0 -72 -15q34 -49 34 -104q0 -54 -31 -99t-84.5 -71
t-118.5 -26q-29 0 -66 7q-20 -9 -20 -27q0 -31 55 -34l175 -4q75 -2 117.5 -34t42.5 -87q0 -53 -38.5 -92t-109 -60t-165.5 -21q-127 0 -193 31.5zM292 -128q82 0 130 16t48 44q0 15 -11.5 23t-33.5 8l-151 4q-34 1 -61 6q-26 -6 -40.5 -18.5t-14.5 -29.5q0 -53 134 -53z
M227 266.5q30 -26.5 76 -26.5q45 0 75.5 27t30.5 67q0 41 -30.5 68t-75.5 27q-46 0 -76 -27t-30 -68t30 -67.5zM319 807h99l-51 -205h-129z" />
    <glyph glyph-name="gdotaccent.ss02" horiz-adv-x="629" 
d="M101 -182.5q-66 31.5 -66 90.5q0 32 26.5 58.5t71.5 40.5q-34 27 -34 72q0 30 17.5 55t49.5 40q-45 27 -71 69t-26 91q0 54 31 99.5t84.5 71.5t118.5 26q86 0 152 -45q47 72 122 72q19 0 32 -5l3 -103q-13 3 -37 3q-40 0 -72 -15q34 -49 34 -104q0 -54 -31 -99t-84.5 -71
t-118.5 -26q-29 0 -66 7q-20 -9 -20 -27q0 -31 55 -34l175 -4q75 -2 117.5 -34t42.5 -87q0 -53 -38.5 -92t-109 -60t-165.5 -21q-127 0 -193 31.5zM292 -128q82 0 130 16t48 44q0 15 -11.5 23t-33.5 8l-151 4q-34 1 -61 6q-26 -6 -40.5 -18.5t-14.5 -29.5q0 -53 134 -53z
M227 266.5q30 -26.5 76 -26.5q45 0 75.5 27t30.5 67q0 41 -30.5 68t-75.5 27q-46 0 -76 -27t-30 -68t30 -67.5zM249 606q-23 23 -23 55t22.5 55t54.5 23t55 -23t23 -55t-23 -55t-55 -23q-31 0 -54 23z" />
    <glyph glyph-name="zero.tf" 
d="M174 32.5q-61 43.5 -94.5 125t-33.5 192.5t33.5 192.5t94.5 125t141 43.5t141 -43.5t94.5 -125t33.5 -192.5t-33.5 -192.5t-94.5 -125t-141 -43.5t-141 43.5zM197 213l190 354q-31 28 -72 28q-64 0 -101.5 -66.5t-37.5 -178.5q0 -77 21 -137zM315 105q64 0 101.5 66.5
t37.5 178.5q0 79 -21 137l-190 -354q31 -28 72 -28z" />
    <glyph glyph-name="one.tf" 
d="M76 118h177v445l-177 -74v116l226 95h82v-582h180v-118h-488v118z" />
    <glyph glyph-name="two.tf" 
d="M99.5 228.5q35.5 61.5 113.5 104.5l110 59q57 30 77.5 54.5t20.5 57.5q0 38 -27.5 61.5t-71.5 23.5q-47 0 -78 -26t-44 -77l-136 31q26 94 93 144t165 50q110 0 174 -58t64 -156q0 -66 -38.5 -117t-121.5 -92l-89 -47q-50 -26 -69.5 -53.5t-21.5 -69.5h343v-118h-499v81
q0 86 35.5 147.5z" />
    <glyph glyph-name="three.tf" 
d="M124 40q-68 51 -90 150l136 31q12 -56 45.5 -83t89.5 -27q52 0 85.5 26t33.5 71q0 42 -25.5 66t-69.5 24h-94v113h86q45 0 69.5 22t24.5 60q0 43 -29 69.5t-77 26.5q-49 0 -81 -26t-43 -76l-136 31q23 92 91.5 142.5t170.5 50.5q69 0 122 -25t83 -70t30 -101
q0 -54 -30.5 -94t-84.5 -60q62 -14 97.5 -58t35.5 -106q0 -58 -34 -105.5t-94.5 -75t-135.5 -27.5q-108 0 -176 51z" />
    <glyph glyph-name="four.tf" 
d="M391 159h-361v114l344 427h143v-423h84v-118h-84v-159h-126v159zM391 277v271l-219 -271h219z" />
    <glyph glyph-name="five.tf" 
d="M140.5 40q-67.5 51 -89.5 150l136 31q23 -110 122 -110q51 0 86.5 32t35.5 84q0 51 -34.5 81.5t-91.5 30.5q-66 0 -134 -36l-93 28l16 369h444v-118h-329l-8 -171q65 30 137 30q70 0 123 -26.5t82 -75t29 -111.5q0 -70 -33.5 -124.5t-92.5 -84.5t-132 -30
q-106 0 -173.5 51z" />
    <glyph glyph-name="six.tf" 
d="M182.5 32.5q-67.5 43.5 -104.5 123.5t-37 185q0 112 38 195.5t108.5 129t164.5 45.5q92 0 151.5 -43t82.5 -124l-134 -30q-27 75 -110 75q-81 0 -126 -67.5t-46 -187.5q75 101 192 101q65 0 117.5 -27.5t82.5 -76.5t30 -111q0 -65 -33 -118t-91.5 -83t-130.5 -30
q-87 0 -154.5 43.5zM233 143.5q42 -41.5 101 -41.5q55 0 92 33t37 84q0 50 -35.5 81.5t-94.5 31.5q-43 0 -84 -19t-72 -54q14 -74 56 -115.5z" />
    <glyph glyph-name="seven.tf" 
d="M440 582h-392v118h533v-98l-300 -602h-155z" />
    <glyph glyph-name="eight.tf" 
d="M176.5 15q-60.5 26 -94 73t-33.5 107q0 58 39 103t102 64q-54 20 -86.5 61t-32.5 91q0 56 32 101t87.5 70.5t124.5 25.5t124.5 -25.5t87.5 -70.5t32 -101q0 -50 -32.5 -91t-86.5 -61q63 -19 102 -64t39 -103q0 -60 -33.5 -107t-94 -73t-138.5 -26t-138.5 26zM219 128
q38 -30 96 -30t96 30t38 76t-38 76.5t-96 30.5t-96 -30.5t-38 -76.5t38 -76zM232 435.5q33 -27.5 83 -27.5t83 27.5t33 69.5q0 43 -33 70.5t-83 27.5t-83 -27.5t-33 -70.5q0 -42 33 -69.5z" />
    <glyph glyph-name="nine.tf" 
d="M447.5 667.5q67.5 -43.5 104.5 -123.5t37 -185q0 -112 -38 -195.5t-108.5 -129t-164.5 -45.5q-92 0 -151.5 43t-82.5 124l134 30q27 -75 110 -75q81 0 126 67.5t46 187.5q-75 -101 -192 -101q-65 0 -117.5 27.5t-82.5 76.5t-30 111q0 65 33 118t91.5 83t130.5 30
q87 0 154.5 -43.5zM202.5 399.5q35.5 -31.5 94.5 -31.5q43 0 84 19t72 54q-14 74 -56 115.5t-101 41.5q-55 0 -92 -33t-37 -84q0 -50 35.5 -81.5z" />
    <glyph glyph-name="exclamdown.case" horiz-adv-x="283" 
d="M217 0h-139l17 491h105zM90.5 686.5q23.5 23.5 57.5 23.5q33 0 57 -23.5t24 -57.5q0 -33 -24 -57t-57 -24q-34 0 -57.5 24t-23.5 57q0 34 23.5 57.5z" />
    <glyph glyph-name="questiondown.case" horiz-adv-x="558" 
d="M365 462q0 -56 -17.5 -91t-60.5 -67l-51 -37q-30 -22 -42 -41.5t-12 -41.5q0 -35 28 -57.5t77 -22.5q50 0 84.5 25t46.5 70l123 -27q-20 -86 -91.5 -134.5t-167.5 -48.5q-69 0 -122.5 24.5t-82.5 67t-29 95.5q0 55 25 94t94 86l28 19q31 21 43 47t11 66h115q1 -9 1 -26z
M249 684.5q24 23.5 57 23.5t57 -23.5t24 -57.5q0 -33 -24 -57t-57 -24t-57 24t-24 57q0 34 24 57.5z" />
    <glyph glyph-name="periodcentered.case" horiz-adv-x="286" 
d="M83 293.5q-24 23.5 -24 57.5q0 33 24 57t57 24t57 -24t24 -57q0 -34 -24 -57.5t-57 -23.5t-57 23.5z" />
    <glyph glyph-name="hyphen.case" horiz-adv-x="488" 
d="M56 408h376v-116h-376v116z" />
    <glyph glyph-name="endash.case" horiz-adv-x="588" 
d="M56 408h476v-116h-476v116z" />
    <glyph glyph-name="emdash.case" horiz-adv-x="738" 
d="M56 408h626v-116h-626v116z" />
    <glyph glyph-name="uni2015.case" horiz-adv-x="988" 
d="M56 408h876v-116h-876v116z" />
    <glyph glyph-name="at.case" horiz-adv-x="819" 
d="M235 32.5q-85 45.5 -133 125.5t-48 180q0 106 48.5 191.5t133.5 134.5t190 49q94 0 171.5 -40.5t122.5 -110t45 -153.5q0 -67 -24.5 -119.5t-68 -82t-99.5 -29.5q-74 0 -104 41q-23 -20 -49.5 -30.5t-54.5 -10.5q-40 0 -73.5 21t-53 56.5t-19.5 78.5q0 51 24 93t65 66.5
t90 24.5q25 0 49 -8.5t42 -23.5l4 19h97l-43 -206q-2 -10 -2 -15q0 -37 43 -37q46 0 75 43.5t29 111.5q0 71 -35 128t-96.5 89.5t-137.5 32.5q-83 0 -151 -40.5t-107 -111t-39 -156.5q0 -85 38 -151t106 -102.5t155 -36.5q91 0 164 35l27 -59q-93 -43 -190 -43
q-106 0 -191 45.5zM334 281.5q21 -23.5 54 -23.5q36 0 64 24q0 20 3 31l17 89q-23 34 -71 34q-36 0 -62 -27.5t-26 -66.5q0 -37 21 -60.5z" />
    <glyph glyph-name="caronSlovak" 
d="M325 700l111 21l-36 -220h-79z" />
    <glyph glyph-name="cordinal" horiz-adv-x="449" 
d="M146 329q-47 27 -74.5 73.5t-27.5 103.5t27.5 104t74.5 74t104 27q48 0 91 -18.5t73 -52.5l-66 -69q-42 45 -95 45q-43 0 -72 -31.5t-29 -78.5t29 -78.5t72 -31.5q52 0 95 46l66 -69q-30 -34 -73 -52.5t-91 -18.5q-57 0 -104 27z" />
    <glyph glyph-name="reversequotedblleft" horiz-adv-x="472" 
d="M33 741h142l69 -263h-103zM367 741l68 -263h-103l-107 263h142z" />
    <glyph glyph-name="reversequoteleft" horiz-adv-x="280" 
d="M33 741h142l69 -263h-103z" />
    </font>
</defs>
</svg>
