<?xml version="1.0" standalone="no"?>
<!DOCTYPE svg PUBLIC "-//W3C//DTD SVG 1.1//EN" "http://www.w3.org/Graphics/SVG/1.1/DTD/svg11.dtd" >
<svg xmlns="http://www.w3.org/2000/svg" xmlns:xlink="http://www.w3.org/1999/xlink" version="1.1">
<metadata>
Created by FontForge 20201107 at Fri Jul  5 11:45:18 2024
 By 
Initial Copyright: 2021 The Red Hat Project Authors (https://github.com/RedHatOfficial/RedHatFont). Modified in 2023 for Grodrej &#38; Boyce under the name G1B Sans.
</metadata>
<defs>
<font id="GEG-HeadlineItalic" horiz-adv-x="592" >
  <font-face 
    font-family="GEG Headline"
    font-weight="500"
    font-style="italic"
    font-stretch="normal"
    units-per-em="1000"
    panose-1="2 1 6 3 4 2 1 9 3 3"
    ascent="800"
    descent="-200"
    x-height="509"
    cap-height="700"
    bbox="-170 -273 1131 1004"
    underline-thickness="100"
    underline-position="-250"
    slope="-12"
    unicode-range="U+000D-FFFD"
  />
<missing-glyph horiz-adv-x="506" 
d="M56 750h394v-850h-394v850z" />
    <glyph glyph-name="fi" unicode="fi" horiz-adv-x="599" 
d="M246 676.5q45 40.5 110 40.5q55 0 89 -27.5t45 -78.5l-84 -25q-7 44 -53 44q-28 0 -45 -18t-24 -55l-10 -48h147l-19 -84h-146l-89 -425h-99l89 425h-117l18 84h117l11 54q15 73 60 113.5zM501 509h97l-107 -509h-98zM539.5 693.5q20.5 20.5 47.5 20.5q23 0 38.5 -15.5
t15.5 -38.5q0 -28 -20.5 -48.5t-47.5 -20.5q-22 0 -38 16t-16 39q0 27 20.5 47.5z" />
    <glyph glyph-name="fl" unicode="fl" horiz-adv-x="599" 
d="M246 676.5q45 40.5 110 40.5q55 0 89 -27.5t45 -78.5l-84 -25q-7 44 -53 44q-28 0 -45 -18t-24 -55l-10 -48h147l-19 -84h-146l-89 -425h-99l89 425h-117l18 84h117l11 54q15 73 60 113.5zM542 700l102 22l-153 -722h-98z" />
    <glyph glyph-name=".notdef" horiz-adv-x="506" 
d="M56 750h394v-850h-394v850z" />
    <glyph glyph-name=".null" horiz-adv-x="201" 
 />
    <glyph glyph-name="nonmarkingreturn" unicode="&#xd;" horiz-adv-x="201" 
 />
    <glyph glyph-name="space" unicode=" " horiz-adv-x="201" 
 />
    <glyph glyph-name="exclam" unicode="!" horiz-adv-x="202" 
d="M145 700h101l-119 -503h-76zM15.5 95.5q21.5 21.5 49.5 21.5q23 0 38.5 -16.5t15.5 -40.5q0 -28 -21 -49t-48 -21q-24 0 -40 16t-16 40q0 28 21.5 49.5z" />
    <glyph glyph-name="quotedbl" unicode="&#x22;" horiz-adv-x="357" 
d="M147 702h97l-64 -235h-71zM298 702h97l-64 -235h-71z" />
    <glyph glyph-name="numbersign" unicode="#" horiz-adv-x="689" 
d="M106 209h-103l15 74h124l66 134h-112l16 74h132l103 209h91l-103 -209h174l103 209h89l-103 -209h104l-16 -74h-124l-66 -134h112l-16 -74h-132l-103 -209h-90l103 209h-174l-103 -209h-90zM407 283l65 134h-174l-65 -134h174z" />
    <glyph glyph-name="dollar" unicode="$" horiz-adv-x="556" 
d="M238 10l-16 -77h-57l18 87q-69 19 -117.5 67t-62.5 114l102 24q8 -40 33.5 -69.5t64.5 -43.5l44 209l-17 5q-70 19 -108 65t-38 107q0 55 29.5 99t81.5 69t119 25h11l16 76h57l-18 -83q68 -16 116 -60.5t66 -109.5l-99 -24q-13 40 -39 66.5t-62 37.5l-42 -194l29 -8
q80 -22 120.5 -66t40.5 -109q0 -59 -32 -106.5t-87.5 -74.5t-124.5 -27q-19 0 -28 1zM267 414l39 187q-53 -1 -86 -29t-33 -70q0 -63 80 -88zM269 100q59 0 97.5 31t38.5 77q0 34 -22.5 57.5t-71.5 38.5l-10 3l-44 -207h12z" />
    <glyph glyph-name="percent" unicode="%" horiz-adv-x="770" 
d="M109.5 382.5q-35.5 37.5 -35.5 101.5q0 60 24 110.5t65 80.5t89 30q60 0 95.5 -37.5t35.5 -101.5q0 -60 -24 -110.5t-65 -80.5t-89 -30q-60 0 -95.5 37.5zM633 700h76l-538 -700h-73zM156.5 425q19.5 -23 54.5 -23q29 0 54.5 22t40.5 59t15 80q0 40 -20 63t-55 23
q-29 0 -54 -22t-40 -59t-15 -80q0 -40 19.5 -63zM450 244.5q24 50.5 65 80.5t89 30q60 0 95.5 -37.5t35.5 -101.5q0 -60 -24 -110.5t-65 -80.5t-90 -30q-59 0 -94.5 37.5t-35.5 101.5q0 60 24 110.5zM508.5 75q19.5 -23 53.5 -23q30 0 55 22t40 59t15 80q0 40 -20 63t-55 23
q-29 0 -53.5 -22t-39.5 -59t-15 -80q0 -40 19.5 -63z" />
    <glyph glyph-name="ampersand" unicode="&#x26;" horiz-adv-x="644" 
d="M116.5 12.5q-51.5 22.5 -79.5 63.5t-28 95q0 74 44 125.5t147 98.5q-18 34 -26 63t-8 61q0 55 25 98.5t69.5 68t99.5 24.5q69 0 113 -38t44 -97q0 -55 -34 -98.5t-106 -79.5l-56 -27q55 -86 135 -177q57 67 98 168l83 -22q-53 -125 -125 -206q47 -49 145 -133h-141
q-20 16 -70 66q-96 -76 -211 -76q-67 0 -118.5 22.5zM142 102.5q39 -31.5 104 -31.5q77 0 145 53q-85 96 -155 207q-71 -34 -102 -67.5t-31 -77.5q0 -52 39 -83.5zM285 432l56 27q43 22 63.5 47t20.5 57t-19.5 51.5t-53.5 19.5q-42 0 -69 -29.5t-27 -75.5q0 -42 29 -97z" />
    <glyph glyph-name="quotesingle" unicode="'" horiz-adv-x="203" 
d="M147 702h97l-64 -235h-71z" />
    <glyph glyph-name="parenleft" unicode="(" horiz-adv-x="382" 
d="M83 -61.5q-42 90.5 -42 202.5q0 122 43.5 233.5t124 198.5t188.5 138l40 -69q-90 -43 -158.5 -118.5t-106 -172.5t-37.5 -201q0 -97 34.5 -174.5t101.5 -130.5l-65 -60q-81 63 -123 153.5z" />
    <glyph glyph-name="parenright" unicode=")" horiz-adv-x="382" 
d="M300 561.5q42 -90.5 42 -202.5q0 -122 -43.5 -233.5t-124 -198.5t-188.5 -138l-40 69q90 43 158.5 118.5t106 172.5t37.5 201q0 97 -35 174.5t-101 129.5l65 60q81 -62 123 -152.5z" />
    <glyph glyph-name="asterisk" unicode="*" horiz-adv-x="441" 
d="M232 461l-122 -63l-26 61l132 63l-100 78l46 52l95 -77l25 125h66l-28 -126l121 61l27 -60l-131 -63l101 -76l-48 -54l-94 77l-25 -128h-68z" />
    <glyph glyph-name="plus" unicode="+" horiz-adv-x="591" 
d="M272 317h-167l17 79h166l39 178h78l-38 -178h166l-17 -79h-166l-38 -178h-78z" />
    <glyph glyph-name="comma" unicode="," horiz-adv-x="232" 
d="M58 0h-54l24 115h116l-18 -86q-11 -55 -38.5 -95t-82.5 -68l-33 44q68 34 86 90z" />
    <glyph glyph-name="hyphen" unicode="-" horiz-adv-x="435" 
d="M409 326l-18 -87h-354l19 87h353z" />
    <glyph glyph-name="period" unicode="." horiz-adv-x="242" 
d="M32 9q-16 16 -16 39q0 29 21.5 50t49.5 21q23 0 39 -16t16 -40q0 -28 -21.5 -49t-48.5 -21q-24 0 -40 16z" />
    <glyph glyph-name="slash" unicode="/" horiz-adv-x="467" 
d="M436 700h104l-607 -906h-103z" />
    <glyph glyph-name="zero" unicode="0" horiz-adv-x="654" 
d="M168 23q-57 34 -88 96.5t-31 145.5q0 119 47 222t126.5 163.5t171.5 60.5q75 0 132 -34t88.5 -96.5t31.5 -145.5q0 -119 -47 -222t-127 -163.5t-172 -60.5q-75 0 -132 34zM189.5 127.5q44.5 -51.5 121.5 -51.5q63 0 118 48.5t87.5 130.5t32.5 177q0 90 -44 141.5
t-121 51.5q-63 0 -118.5 -48.5t-88 -131t-32.5 -177.5q0 -89 44.5 -140.5z" />
    <glyph glyph-name="one" unicode="1" horiz-adv-x="300" 
d="M217 597l-135 -53l18 88l173 68h63l-149 -700h-98z" />
    <glyph glyph-name="two" unicode="2" 
d="M101 214.5q48 62.5 135 103.5l143 67q59 28 87 65t28 79t-30 67t-83 25q-54 0 -90.5 -29.5t-52.5 -87.5l-98 24q22 87 86 135t160 48q94 0 151 -48.5t57 -130.5q0 -71 -43 -129.5t-128 -98.5l-140 -65q-63 -29 -89 -61t-41 -92h355l-18 -86h-469l13 64q19 88 67 150.5z
" />
    <glyph glyph-name="three" unicode="3" 
d="M105 37q-66 48 -88 138l99 24q17 -62 55.5 -91t101.5 -29q72 0 115 34t43 92q0 48 -33 79t-86 31h-82l17 83h88q60 0 98.5 34t38.5 85q0 46 -31 75t-89 29q-54 0 -91.5 -30t-54.5 -87l-98 24q22 84 89 133.5t159 49.5q69 0 117.5 -24t73.5 -64.5t25 -90.5
q0 -65 -39.5 -113.5t-116.5 -70.5q60 -19 86.5 -55.5t26.5 -88.5q0 -61 -33 -110t-92 -77t-133 -28q-100 0 -166 48z" />
    <glyph glyph-name="four" unicode="4" 
d="M377 176h-372l17 80l456 444h104l-93 -439h90l-18 -85h-90l-38 -176h-94zM395 261l68 320l-328 -320h260z" />
    <glyph glyph-name="five" unicode="5" 
d="M122 38q-63 49 -84 137l99 24q16 -61 54 -90.5t99 -29.5q62 0 102 44t40 109q0 59 -39 93.5t-107 34.5q-55 0 -125 -30l-64 27l87 343h411l-19 -86h-326l-53 -204q60 25 122 25q98 0 155.5 -52.5t57.5 -141.5q0 -72 -31.5 -129.5t-89 -90t-133.5 -32.5q-93 0 -156 49z
" />
    <glyph glyph-name="six" unicode="6" 
d="M171.5 23.5q-56.5 34.5 -90 100t-33.5 155.5q0 125 45.5 223.5t123 153.5t170.5 55q82 0 138.5 -39.5t74.5 -109.5l-98 -23q-28 82 -125 82q-55 0 -104 -34.5t-83 -98t-44 -147.5q83 95 195 95q62 0 110.5 -26.5t75.5 -72.5t27 -103q0 -71 -34.5 -127t-93.5 -87t-129 -31
q-69 0 -125.5 34.5zM188 128q45 -55 118 -55q43 0 78.5 20.5t55.5 56.5t20 81q0 59 -38.5 94t-104.5 35q-47 0 -93 -21t-82 -59q1 -97 46 -152z" />
    <glyph glyph-name="seven" unicode="7" 
d="M518 614h-403l19 86h510l-16 -73l-456 -627h-115z" />
    <glyph glyph-name="eight" unicode="8" 
d="M147.5 14.5q-55.5 24.5 -86.5 68t-31 97.5q0 70 50.5 124t132.5 71q-44 19 -68 54.5t-24 78.5q0 58 33 104.5t89 72.5t122 26q65 0 114 -23.5t75 -63t26 -87.5q0 -63 -42.5 -111.5t-115.5 -68.5q53 -21 84.5 -62t31.5 -93q0 -61 -35.5 -109.5t-96 -75.5t-132.5 -27
q-71 0 -126.5 24.5zM169.5 103.5q42.5 -35.5 112.5 -35.5q71 0 116 38t45 97q0 52 -42.5 87.5t-110.5 35.5q-72 0 -117.5 -37.5t-45.5 -95.5q0 -54 42.5 -89.5zM250 432.5q36 -29.5 94 -29.5q38 0 70.5 16.5t52 44.5t19.5 63q0 47 -33.5 76.5t-95.5 29.5q-39 0 -71.5 -16.5
t-52 -45t-19.5 -63.5q0 -46 36 -75.5z" />
    <glyph glyph-name="nine" unicode="9" 
d="M460.5 676.5q56.5 -34.5 90 -100t33.5 -155.5q0 -125 -45.5 -223.5t-123 -153.5t-170.5 -55q-82 0 -138.5 39.5t-74.5 109.5l98 23q28 -82 125 -82q55 0 104 34.5t83 98t44 147.5q-83 -95 -195 -95q-62 0 -110.5 26.5t-75.5 72.5t-27 103q0 71 34.5 127t93.5 87t129 31
q69 0 125.5 -34.5zM210.5 375q38.5 -35 104.5 -35q47 0 93 21t82 59q-1 97 -46 152t-118 55q-43 0 -78.5 -20.5t-55.5 -56.5t-20 -81q0 -59 38.5 -94z" />
    <glyph glyph-name="colon" unicode=":" horiz-adv-x="242" 
d="M33 9q-16 16 -16 39q0 29 21.5 50t49.5 21q23 0 39 -16t16 -40q0 -28 -21.5 -49t-48.5 -21q-24 0 -40 16zM118 409q-16 16 -16 39q0 29 21.5 50t49.5 21q23 0 39 -16t16 -40q0 -28 -21.5 -49t-48.5 -21q-24 0 -40 16z" />
    <glyph glyph-name="semicolon" unicode=";" horiz-adv-x="232" 
d="M107 409q-16 16 -16 39q0 29 21.5 50t49.5 21q23 0 39 -16t16 -40q0 -28 -21.5 -49t-48.5 -21q-24 0 -40 16zM58 0h-54l24 115h116l-18 -86q-11 -55 -38.5 -95t-82.5 -68l-33 44q68 34 86 90z" />
    <glyph glyph-name="less" unicode="&#x3c;" horiz-adv-x="591" 
d="M127 350l378 262l42 -65l-299 -203l212 -199l-60 -58z" />
    <glyph glyph-name="equal" unicode="=" 
d="M104 307h410l-17 -79h-410zM141 481h410l-17 -79h-410z" />
    <glyph glyph-name="greater" unicode="&#x3e;" 
d="M510 349l-378 -262l-42 65l299 203l-212 199l60 58z" />
    <glyph glyph-name="question" unicode="?" horiz-adv-x="496" 
d="M202.5 317.5q26.5 42.5 80.5 73.5l63 36q38 22 57 51t19 60q0 37 -32 61t-82 24q-58 0 -96 -26.5t-53 -78.5l-93 22q19 79 84.5 125t159.5 46q62 0 109.5 -21.5t74 -59t26.5 -85.5q0 -58 -30.5 -100.5t-104.5 -84.5l-52 -29q-39 -22 -58 -51t-27 -76h-83
q11 71 37.5 113.5zM135 98.5q21 21.5 49 21.5q24 0 40 -16.5t16 -40.5q0 -28 -21.5 -49t-49.5 -21q-23 0 -39 16t-16 39q0 29 21 50.5z" />
    <glyph glyph-name="at" unicode="@" horiz-adv-x="765" 
d="M209.5 -98.5q-82.5 45.5 -130 125.5t-47.5 180q0 105 47 189.5t129.5 133t184.5 48.5q94 0 170.5 -40.5t121 -110t44.5 -154.5q0 -63 -23.5 -113.5t-65 -79t-93.5 -28.5q-71 0 -98 41q-24 -21 -51 -32t-54 -11q-40 0 -73.5 20t-52.5 55t-19 77q0 49 23 90.5t63 65.5
t87 24q28 0 53.5 -9.5t44.5 -26.5l4 23h73l-41 -197q-2 -7 -2 -20q0 -22 13 -34t38 -12q51 0 83.5 46t32.5 117q0 73 -36.5 132t-100.5 93t-143 34q-84 0 -153 -42t-108.5 -114.5t-39.5 -160.5q0 -87 39.5 -155.5t109.5 -107t158 -38.5q92 0 168 38l21 -48q-91 -44 -191 -44
q-103 0 -185.5 45.5zM295 136.5q25 -27.5 65 -27.5t74 31q-1 5 -1 14q0 13 3 26l20 99q-13 20 -34.5 30.5t-48.5 10.5q-42 0 -72.5 -33t-30.5 -79q0 -44 25 -71.5z" />
    <glyph glyph-name="A" unicode="A" horiz-adv-x="679" 
d="M372 700h122l135 -700h-107l-37 205h-306l-123 -205h-113zM470 292l-56 306l-184 -306h240z" />
    <glyph glyph-name="B" unicode="B" horiz-adv-x="650" 
d="M161 700h277q92 0 146 -43.5t54 -117.5q0 -62 -36 -109.5t-102 -72.5q51 -19 77.5 -54.5t26.5 -81.5q0 -63 -34 -113.5t-94 -79t-135 -28.5h-329zM343 89q70 0 113.5 36.5t43.5 94.5q0 46 -33.5 72.5t-91.5 26.5h-193l-49 -230h210zM392 403q62 0 102 33.5t40 86.5
q0 41 -30 64.5t-82 23.5h-178l-44 -208h192z" />
    <glyph glyph-name="C" unicode="C" horiz-adv-x="752" 
d="M217 30.5q-76 40.5 -118.5 115.5t-42.5 175q0 110 50.5 199t139 140t197.5 51q82 0 148.5 -29t108.5 -82.5t53 -123.5l-103 -24q-14 77 -69.5 119.5t-141.5 42.5q-80 0 -143 -37.5t-98 -103.5t-35 -149q0 -72 29 -126t82 -83.5t122 -29.5q81 0 139 43t81 121l103 -24
q-29 -107 -117.5 -171t-209.5 -64q-99 0 -175 40.5z" />
    <glyph glyph-name="D" unicode="D" horiz-adv-x="705" 
d="M161 700h210q94 0 166.5 -39.5t113 -109.5t40.5 -161q0 -105 -55 -195t-148 -142.5t-203 -52.5h-273zM296 94q79 0 145 39t105 105.5t39 145.5q0 65 -28 115.5t-78.5 78.5t-116.5 28h-119l-109 -512h162z" />
    <glyph glyph-name="E" unicode="E" horiz-adv-x="608" 
d="M161 700h506l-20 -92h-403l-45 -210h264l-19 -89h-264l-47 -217h408l-19 -92h-510z" />
    <glyph glyph-name="F" unicode="F" horiz-adv-x="601" 
d="M161 700h507l-20 -92h-404l-46 -215h266l-19 -89h-266l-65 -304h-102z" />
    <glyph glyph-name="G" unicode="G" horiz-adv-x="769" 
d="M215.5 32q-75.5 43 -118.5 118.5t-43 168.5q0 110 51.5 199.5t141 140.5t198.5 51q81 0 147.5 -28.5t109 -79t53.5 -114.5l-103 -24q-14 69 -70 109t-141 40q-81 0 -145.5 -37.5t-100.5 -103.5t-36 -149q0 -69 30.5 -123t84 -84.5t120.5 -30.5q94 0 159 54.5t83 145.5
h-231l18 92h335l-11 -63q-17 -98 -67.5 -171.5t-127 -113.5t-167.5 -40q-94 0 -169.5 43z" />
    <glyph glyph-name="H" unicode="H" horiz-adv-x="702" 
d="M161 700h102l-64 -300h365l64 300h103l-149 -700h-103l65 305h-365l-65 -305h-102z" />
    <glyph glyph-name="I" unicode="I" horiz-adv-x="235" 
d="M161 700h102l-149 -700h-102z" />
    <glyph glyph-name="J" unicode="J" horiz-adv-x="587" 
d="M78.5 41q-63.5 51 -81.5 144l95 34q25 -134 147 -134q73 0 124.5 48.5t69.5 134.5l92 432h104l-96 -446q-27 -125 -104 -194.5t-189 -69.5q-98 0 -161.5 51z" />
    <glyph glyph-name="K" unicode="K" horiz-adv-x="628" 
d="M161 700h102l-67 -314l395 314h138l-433 -340l288 -360h-132l-266 340l-72 -340h-102z" />
    <glyph glyph-name="L" unicode="L" horiz-adv-x="594" 
d="M161 700h102l-129 -607h395l-20 -93h-497z" />
    <glyph glyph-name="M" unicode="M" horiz-adv-x="836" 
d="M161 700h133l120 -448l310 448h141l-149 -700h-95l121 571l-367 -521l-145 524l-121 -574h-97z" />
    <glyph glyph-name="N" unicode="N" horiz-adv-x="712" 
d="M161 700h97l273 -531l113 531h96l-149 -700h-88l-279 546l-115 -546h-97z" />
    <glyph glyph-name="O" unicode="O" horiz-adv-x="787" 
d="M218 32.5q-76 43.5 -119.5 119t-43.5 168.5q0 105 52 195t140 143t192 53q93 0 169 -43.5t119.5 -119t43.5 -168.5q0 -105 -52 -195t-140 -143t-192 -53q-93 0 -169 43.5zM189.5 203.5q30.5 -54.5 84 -86t120.5 -31.5q74 0 136.5 39t99.5 105t37 144q0 68 -30.5 122.5
t-84 86t-120.5 31.5q-74 0 -136.5 -39t-99.5 -105t-37 -144q0 -68 30.5 -122.5z" />
    <glyph glyph-name="P" unicode="P" horiz-adv-x="640" 
d="M161 700h291q94 0 150 -50t56 -134q0 -66 -33 -119.5t-91 -84t-129 -30.5h-231l-60 -282h-102zM404 371q66 0 108.5 38.5t42.5 97.5q0 47 -31.5 74t-87.5 27h-193l-50 -237h211z" />
    <glyph glyph-name="Q" unicode="Q" horiz-adv-x="787" 
d="M218 32.5q-76 43.5 -119.5 119t-43.5 168.5q0 105 52 195t140 143t192 53q93 0 169 -43.5t119.5 -119t43.5 -168.5q0 -80 -30.5 -152t-85.5 -127l64 -101h-113l-27 42q-87 -53 -192 -53q-93 0 -169 43.5zM189.5 203.5q30.5 -54.5 84 -86t120.5 -31.5q70 0 134 37l-96 152
l79 56l90 -144q31 39 48.5 87t17.5 100q0 68 -30.5 122.5t-84 86t-120.5 31.5q-74 0 -136.5 -39t-99.5 -105t-37 -144q0 -68 30.5 -122.5z" />
    <glyph glyph-name="R" unicode="R" horiz-adv-x="638" 
d="M161 700h307q90 0 143.5 -43t53.5 -117q0 -76 -51.5 -136t-131.5 -79q35 -10 53.5 -37t18.5 -76q0 -19 -3 -43l-1 -15q-5 -37 -5 -61q0 -55 20 -93h-120q-11 27 -11 59q0 24 9 85l2 15q5 33 5 51q0 43 -20.5 60t-65.5 17h-187l-60 -287h-105zM396 374q46 0 82.5 18.5
t57 51t20.5 71.5q0 44 -30.5 69t-81.5 25h-198l-51 -235h201z" />
    <glyph glyph-name="S" unicode="S" horiz-adv-x="595" 
d="M95 41.5q-77 52.5 -96 142.5l103 24q31 -128 188 -128q68 0 109.5 32t41.5 86q0 38 -26 62t-85 41l-89 25q-160 46 -160 176q0 62 32 109.5t88.5 73.5t127.5 26q105 0 175.5 -47t93.5 -133l-99 -24q-19 58 -61 86t-113 28q-58 0 -100 -30.5t-42 -79.5q0 -36 24 -59
t74 -37l87 -23q92 -26 135 -69t43 -114q0 -65 -33.5 -115t-93.5 -77.5t-137 -27.5q-110 0 -187 52.5z" />
    <glyph glyph-name="T" unicode="T" horiz-adv-x="611" 
d="M329 607h-242l21 93h584l-20 -93h-241l-129 -607h-102z" />
    <glyph glyph-name="U" unicode="U" horiz-adv-x="690" 
d="M179.5 20q-59.5 30 -91 85.5t-31.5 128.5q0 37 9 79l82 387h103l-84 -395q-6 -30 -6 -57q0 -74 44 -118t119 -44q81 0 139 55t78 151l87 408h103l-89 -415q-31 -142 -115 -218.5t-208 -76.5q-80 0 -139.5 30z" />
    <glyph glyph-name="V" unicode="V" horiz-adv-x="679" 
d="M91 700h107l108 -597l360 597h111l-429 -700h-122z" />
    <glyph glyph-name="W" unicode="W" horiz-adv-x="882" 
d="M121 700h102l-6 -533l268 533h98l42 -533l220 533h105l-298 -700h-107l-41 550l-276 -550h-106z" />
    <glyph glyph-name="X" unicode="X" horiz-adv-x="642" 
d="M285 366l-172 334h116l131 -258l240 258h126l-322 -341l185 -359h-115l-144 283l-263 -283h-126z" />
    <glyph glyph-name="Y" unicode="Y" horiz-adv-x="645" 
d="M275 279l-185 421h109l143 -329l280 329h123l-367 -424l-59 -276h-103z" />
    <glyph glyph-name="Z" unicode="Z" horiz-adv-x="589" 
d="M-20 73l518 535h-401l19 92h544l-17 -73l-519 -535h413l-20 -92h-553z" />
    <glyph glyph-name="bracketleft" unicode="[" horiz-adv-x="352" 
d="M146 700h266l-17 -79h-172l-160 -751h173l-17 -79h-266z" />
    <glyph glyph-name="backslash" unicode="\" horiz-adv-x="430" 
d="M321 -206l-221 906h97l221 -906h-97z" />
    <glyph glyph-name="bracketright" unicode="]" horiz-adv-x="352" 
d="M201 -209h-266l17 79h173l159 751h-172l17 79h266z" />
    <glyph glyph-name="asciicircum" unicode="^" 
d="M352 700h83l98 -350h-79l-76 269l-189 -269h-86z" />
    <glyph glyph-name="underscore" unicode="_" horiz-adv-x="469" 
d="M-77 -80h479l-15 -73h-479z" />
    <glyph glyph-name="grave" unicode="`" 
d="M215 725h118l89 -122h-82z" />
    <glyph glyph-name="a" unicode="a" horiz-adv-x="520" 
d="M54 29.5q-46 38.5 -46 102.5q0 143 231 162q92 7 150 31q2 14 2 20q0 39 -28.5 62.5t-76.5 23.5q-46 0 -81.5 -23.5t-55.5 -69.5l-94 23q33 78 92.5 118t140.5 40q60 0 106 -21t70.5 -58.5t24.5 -84.5q0 -21 -4 -38l-68 -317h-97l14 67q-29 -35 -73 -55.5t-93 -20.5
q-68 0 -114 38.5zM129 84q24 -19 67 -19q62 0 108 42.5t61 107.5l8 36q-52 -20 -136 -28q-70 -6 -101 -25.5t-31 -58.5q0 -36 24 -55z" />
    <glyph glyph-name="b" unicode="b" horiz-adv-x="587" 
d="M183 9.5q-42 17.5 -73 49.5l-13 -59h-96l149 700l102 22l-52 -244q59 38 130 38q64 0 115.5 -30.5t81 -84t29.5 -119.5q0 -79 -38 -145.5t-102.5 -105.5t-141.5 -39q-49 0 -91 17.5zM188 98.5q38 -19.5 83 -19.5q52 0 95.5 26t68.5 70.5t25 97.5q0 68 -43 112.5
t-110 44.5q-74 0 -128 -48l-49 -231q20 -33 58 -52.5z" />
    <glyph glyph-name="c" unicode="c" horiz-adv-x="550" 
d="M151.5 21.5q-56.5 30.5 -88.5 86t-32 126.5q0 80 37.5 145t102.5 102.5t143 37.5q81 0 140 -39.5t83 -114.5l-94 -27q-15 43 -51.5 68t-84.5 25q-49 0 -89.5 -25t-64 -69t-23.5 -98q0 -71 42 -115.5t110 -44.5q47 0 83 24.5t58 70.5l88 -31q-34 -75 -92.5 -113.5
t-138.5 -38.5q-72 0 -128.5 30.5z" />
    <glyph glyph-name="d" unicode="d" horiz-adv-x="587" 
d="M141 22.5q-51 30.5 -80.5 84.5t-29.5 120q0 78 37.5 144.5t102.5 105.5t142 39q49 0 91 -16.5t73 -48.5l52 249l102 22l-153 -722h-97l6 31q-61 -39 -131 -39q-64 0 -115 30.5zM170 122.5q43 -44.5 110 -44.5q36 0 69 12.5t58 36.5l50 233q-20 32 -58 51t-83 19
q-52 0 -95 -26t-68.5 -71t-25.5 -98q0 -68 43 -112.5z" />
    <glyph glyph-name="e" unicode="e" horiz-adv-x="563" 
d="M147 21q-55 31 -85 87t-30 129q0 77 35 142t96.5 102.5t137.5 37.5q67 0 119 -29.5t81 -82.5t29 -120q0 -20 -5 -55h-396q-1 -43 17.5 -79t52.5 -57t79 -21q49 0 87 24.5t59 66.5l82 -38q-35 -67 -94 -102.5t-137 -35.5q-73 0 -128 31zM438 302q-5 62 -42.5 97.5
t-97.5 35.5t-103.5 -36t-57.5 -97h301z" />
    <glyph glyph-name="f" unicode="f" horiz-adv-x="374" 
d="M246 676.5q45 40.5 110 40.5q55 0 89 -27.5t45 -78.5l-84 -25q-7 44 -53 44q-28 0 -45 -18t-24 -55l-10 -48h147l-19 -84h-146l-89 -425h-99l89 425h-117l18 84h117l11 54q15 73 60 113.5z" />
    <glyph glyph-name="g" unicode="g" horiz-adv-x="588" 
d="M69.5 -179.5q-61.5 34.5 -86.5 98.5l99 32q40 -79 139 -79q67 0 106 30.5t51 86.5l9 44q-58 -36 -131 -36q-64 0 -115 30t-80 82.5t-29 118.5q0 78 37.5 145t102 106t141.5 39q48 0 90.5 -17t72.5 -49l12 57h97l-111 -531q-18 -91 -83 -141.5t-171 -50.5
q-89 0 -150.5 34.5zM170.5 125q42.5 -43 109.5 -43q75 0 127 46l49 232q-20 32 -58 51t-82 19q-52 0 -95 -26t-68 -70.5t-25 -97.5q0 -68 42.5 -111z" />
    <glyph glyph-name="h" unicode="h" horiz-adv-x="549" 
d="M150 700l102 22l-55 -258q65 54 147 54q77 0 123 -44.5t46 -117.5q0 -29 -5 -50l-65 -306h-97l62 295q4 17 4 37q0 47 -28 73.5t-77 26.5q-37 0 -70 -15.5t-59 -44.5l-79 -372h-98z" />
    <glyph glyph-name="i" unicode="i" horiz-adv-x="207" 
d="M109 509h97l-107 -509h-98zM147.5 693.5q20.5 20.5 47.5 20.5q23 0 38.5 -15.5t15.5 -38.5q0 -28 -20.5 -48.5t-47.5 -20.5q-22 0 -38 16t-16 39q0 27 20.5 47.5z" />
    <glyph glyph-name="j" unicode="j" horiz-adv-x="207" 
d="M-115.5 -204.5q-22.5 7.5 -38.5 20.5l33 76q21 -16 45 -16q27 0 41.5 15t22.5 49l121 569h98l-125 -584q-15 -70 -55 -103.5t-94 -33.5q-26 0 -48.5 7.5zM148.5 693.5q20.5 20.5 46.5 20.5q23 0 38.5 -15.5t15.5 -38.5q0 -28 -20.5 -48.5t-46.5 -20.5q-23 0 -38.5 16
t-15.5 39q0 27 20.5 47.5z" />
    <glyph glyph-name="k" unicode="k" horiz-adv-x="506" 
d="M150 700l102 22l-92 -434l281 221h126l-321 -250l222 -259h-120l-199 237l-50 -237h-98z" />
    <glyph glyph-name="l" unicode="l" horiz-adv-x="207" 
d="M150 700l102 22l-153 -722h-98z" />
    <glyph glyph-name="m" unicode="m" horiz-adv-x="853" 
d="M109 509h97l-10 -47q64 56 142 56q51 0 88 -24t55 -67q81 91 181 91q71 0 114 -43t43 -113q0 -24 -6 -51l-66 -311h-97l64 303q4 16 4 34q0 43 -25 69t-69 26q-71 0 -130 -72q0 -21 -5 -49l-67 -311h-97l63 298q5 23 5 39q0 44 -25 69.5t-69 25.5q-68 0 -122 -62
l-78 -370h-98z" />
    <glyph glyph-name="n" unicode="n" horiz-adv-x="549" 
d="M109 509h97l-9 -45q65 54 147 54q77 0 123 -44.5t46 -117.5q0 -29 -5 -50l-65 -306h-97l62 295q4 17 4 37q0 47 -28 73.5t-77 26.5q-76 0 -130 -60l-78 -372h-98z" />
    <glyph glyph-name="o" unicode="o" horiz-adv-x="584" 
d="M149.5 22q-55.5 32 -87 87.5t-31.5 124.5q0 76 38 141.5t102 104.5t138 39q69 0 124.5 -31.5t87 -87t31.5 -124.5q0 -77 -38 -142.5t-102 -104.5t-138 -39q-69 0 -124.5 32zM146.5 156.5q19.5 -36.5 54 -57.5t77.5 -21q48 0 89 26.5t65 70.5t24 96q0 45 -20 81.5
t-54.5 57.5t-76.5 21q-48 0 -89 -26t-65 -70t-24 -96q0 -46 19.5 -82.5z" />
    <glyph glyph-name="p" unicode="p" horiz-adv-x="587" 
d="M109 509h97l-7 -32q60 39 131 39q64 0 115.5 -30.5t81 -84t29.5 -119.5q0 -79 -38 -145.5t-102.5 -105.5t-141.5 -39q-49 0 -91 17t-72 49l-56 -262h-98zM188.5 98.5q37.5 -19.5 82.5 -19.5q52 0 95.5 26t68.5 70.5t25 97.5q0 68 -43 112.5t-110 44.5q-36 0 -68.5 -12
t-58.5 -35l-49 -232q20 -33 57.5 -52.5z" />
    <glyph glyph-name="q" unicode="q" horiz-adv-x="587" 
d="M256 -8q-64 0 -115 30.5t-80.5 84.5t-29.5 120q0 78 37.5 144.5t102.5 105.5t142 39q49 0 91 -16.5t73 -48.5l12 58h97l-151 -713h-98l50 235q-62 -39 -131 -39zM170 122.5q43 -44.5 110 -44.5q73 0 128 49l49 232q-20 32 -58 51.5t-83 19.5q-52 0 -95 -26t-68.5 -71
t-25.5 -98q0 -68 43 -112.5z" />
    <glyph glyph-name="r" unicode="r" horiz-adv-x="440" 
d="M109 509h97l-9 -45q21 25 55 40t68 15q54 0 85 -41t33 -118l-92 -20q-6 92 -70 92q-28 0 -53.5 -15.5t-45.5 -44.5l-78 -372h-98z" />
    <glyph glyph-name="s" unicode="s" horiz-adv-x="461" 
d="M66 29q-58 39 -74 111l91 16q13 -44 47.5 -66t83.5 -22q52 0 83.5 21.5t31.5 56.5q0 24 -17 38.5t-55 22.5l-88 21q-125 29 -125 132q0 70 54.5 113t144.5 43q81 0 133.5 -34.5t73.5 -104.5l-89 -17q-28 78 -123 78q-49 0 -76.5 -19t-27.5 -51q0 -24 16.5 -38.5
t55.5 -22.5l84 -19q67 -15 99.5 -47t32.5 -83q0 -48 -27 -86t-75 -60t-109 -22q-87 0 -145 39z" />
    <glyph glyph-name="t" unicode="t" horiz-adv-x="375" 
d="M119.5 25.5q-35.5 33.5 -35.5 91.5q0 22 4 41l57 267h-107l19 84h105l28 130l104 24l-33 -154h147l-18 -84h-147l-58 -274q-3 -12 -3 -23q0 -24 13 -35.5t34 -11.5q16 0 29.5 4.5t27.5 15.5l32 -72q-46 -37 -105 -37q-58 0 -93.5 33.5z" />
    <glyph glyph-name="u" unicode="u" horiz-adv-x="548" 
d="M80 36.5q-46 45.5 -46 118.5q0 21 5 49l65 305h98l-63 -295q-4 -17 -4 -36q0 -47 28.5 -74t77.5 -27q77 0 130 62l78 370h98l-109 -509h-97l10 45q-68 -54 -147 -54q-78 0 -124 45.5z" />
    <glyph glyph-name="v" unicode="v" horiz-adv-x="522" 
d="M53 509h104l74 -381l238 381h108l-324 -509h-94z" />
    <glyph glyph-name="w" unicode="w" horiz-adv-x="709" 
d="M62 509h92l18 -374l193 374h84l34 -374l177 374h94l-246 -509h-95l-33 373l-192 -373h-94z" />
    <glyph glyph-name="x" unicode="x" horiz-adv-x="498" 
d="M195 264l-131 245h110l91 -175l165 175h116l-240 -249l139 -260h-109l-98 188l-179 -188h-117z" />
    <glyph glyph-name="y" unicode="y" horiz-adv-x="519" 
d="M-37.5 -205.5q-26.5 8.5 -44.5 22.5l38 80q23 -20 58 -20q28 0 49 13.5t40 43.5l43 67l-93 508h104l66 -394l244 394h108l-377 -599q-41 -65 -84.5 -94.5t-95.5 -29.5q-29 0 -55.5 8.5z" />
    <glyph glyph-name="z" unicode="z" horiz-adv-x="460" 
d="M-14 74l346 349h-269l18 86h400l-15 -73l-348 -350h278l-19 -86h-406z" />
    <glyph glyph-name="braceleft" unicode="{" horiz-adv-x="384" 
d="M70 -183.5q-37 30.5 -37 79.5t35 100l60 89q24 36 24 66q0 27 -18 43.5t-50 16.5h-79l16 77h80q45 0 72 27t27 69q0 14 -3 27l-20 99q-4 19 -4 40q0 71 47 115.5t123 44.5q52 0 97 -21l-32 -72q-35 15 -64 15q-38 0 -61.5 -23t-23.5 -64q0 -14 3 -29l22 -114q2 -16 2 -24
q0 -49 -34 -85.5t-87 -46.5q35 -12 55.5 -37t20.5 -57q0 -34 -23 -69l-66 -104q-22 -35 -22 -63q0 -24 17 -38t47 -14q29 0 54 7l2 -75q-39 -10 -77 -10q-66 0 -103 30.5z" />
    <glyph glyph-name="bar" unicode="|" horiz-adv-x="281" 
d="M190 700h90l-193 -908h-91z" />
    <glyph glyph-name="braceright" unicode="}" horiz-adv-x="384" 
d="M308.5 679.5q36.5 -30.5 36.5 -79.5t-35 -100l-59 -89q-24 -36 -24 -67q0 -27 17.5 -43t49.5 -16h80l-16 -77h-80q-45 0 -72 -27t-27 -69q0 -13 3 -27l19 -99q4 -19 4 -41q0 -70 -47 -114.5t-123 -44.5q-51 0 -96 21l32 72q35 -15 64 -15q38 0 61 22.5t23 63.5
q0 13 -3 30l-21 114q-2 16 -2 24q0 50 33.5 86t86.5 46q-35 12 -55.5 37t-20.5 57q0 35 23 69l67 104q22 35 22 62q0 25 -17.5 39t-46.5 14q-30 0 -55 -7l-1 75q38 10 77 10q66 0 102.5 -30.5z" />
    <glyph glyph-name="asciitilde" unicode="~" 
d="M130 426.5q37 36.5 82 36.5q22 0 44.5 -8t52.5 -27l65 -42q22 -13 34 -18t24 -5q49 0 76 79l68 -16q-22 -69 -59 -105.5t-83 -36.5q-22 0 -44.5 8t-52.5 27l-65 42q-20 14 -32.5 18.5t-25.5 4.5q-49 0 -75 -78l-68 16q22 68 59 104.5z" />
    <glyph glyph-name="uni00A0" unicode="&#xa0;" horiz-adv-x="201" 
 />
    <glyph glyph-name="exclamdown" unicode="&#xa1;" horiz-adv-x="203" 
d="M55 -204h-101l119 503h77zM102.5 485q21.5 21 48.5 21q24 0 40 -16t16 -40q0 -28 -21.5 -49.5t-49.5 -21.5q-23 0 -39 16.5t-16 40.5q0 28 21.5 49z" />
    <glyph glyph-name="cent" unicode="&#xa2;" horiz-adv-x="550" 
d="M386 608l-20 -94q62 -11 106.5 -49t64.5 -100l-94 -27q-12 33 -36.5 56t-58.5 32l-73 -347h7q47 0 83 24.5t58 70.5l88 -31q-34 -75 -92.5 -113.5t-138.5 -38.5q-16 0 -23 1l-23 -108h-55l25 117q-79 21 -126 83.5t-47 149.5q0 79 37.5 144t101.5 103t142 38l19 89h55z
M154.5 146q24.5 -39 67.5 -56l72 341q-46 -3 -83.5 -29t-59 -68.5t-21.5 -94.5q0 -54 24.5 -93z" />
    <glyph glyph-name="sterling" unicode="&#xa3;" horiz-adv-x="621" 
d="M16 21.5q-36 31.5 -36 80.5q0 51 39 85.5t97 34.5q40 0 78 -20v13q0 41 -13 91h-141l15 70h104q-16 52 -16 102q0 67 31 120t86.5 83t126.5 30q94 0 158 -50t79 -133l-98 -24q-11 57 -47.5 87t-94.5 30q-67 0 -105.5 -40t-38.5 -109q0 -46 16 -96h191l-15 -70h-153
q11 -44 11 -81q0 -44 -13 -88q30 -27 58 -41.5t62 -14.5q42 0 64 28t27 90l96 -5q-5 -97 -52.5 -150.5t-124.5 -53.5q-53 0 -91 20t-74 55q-26 -35 -61 -55t-75 -20q-54 0 -90 31.5zM76 72q14 -13 38 -13t41.5 17t27.5 49q-34 29 -67 29q-24 0 -39 -14.5t-15 -35.5
q0 -19 14 -32z" />
    <glyph glyph-name="currency" unicode="&#xa4;" horiz-adv-x="674" 
d="M34 107l94 95q-25 33 -39 74t-14 86q0 89 53 160l-94 95l51 52l95 -96q69 52 158 52q44 0 84.5 -13.5t72.5 -39.5l96 96l49 -50l-95 -95q26 -34 40 -75t14 -86q0 -91 -52 -159l94 -96l-50 -51l-96 95q-33 -25 -73 -38.5t-84 -13.5q-91 0 -160 53l-94 -95zM192 272.5
q22 -40.5 60.5 -64t85.5 -23.5q46 0 84 23.5t60 64t22 89.5t-22 89.5t-60 64t-84 23.5t-84.5 -23.5t-61 -64t-22.5 -89.5t22 -89.5z" />
    <glyph glyph-name="yen" unicode="&#xa5;" horiz-adv-x="648" 
d="M244 133h-179l13 61h179l14 69h-177l12 62h150l-166 375h109l143 -329l280 329h123l-326 -375h148l-13 -62h-179l-14 -69h178l-13 -61h-178l-29 -133h-103z" />
    <glyph glyph-name="brokenbar" unicode="&#xa6;" horiz-adv-x="285" 
d="M103 287l89 413h92l-89 -413h-92zM86 207h92l-87 -414h-92z" />
    <glyph glyph-name="section" unicode="&#xa7;" horiz-adv-x="508" 
d="M98.5 -16.5q-51.5 35.5 -72.5 104.5l89 16q30 -77 116 -77q41 0 64 18t23 49q0 41 -52 63l-100 45q-59 27 -85.5 58t-26.5 74q0 50 29 87.5t81 55.5q-30 35 -30 81q0 44 22.5 79t63 54.5t92.5 19.5q79 0 130.5 -35.5t71.5 -103.5l-89 -17q-30 78 -116 78q-40 0 -63 -18
t-23 -49q0 -40 51 -64l100 -45q60 -26 86.5 -57t26.5 -75q0 -49 -29 -86.5t-82 -55.5q31 -34 31 -81q0 -44 -23 -79t-63.5 -55t-91.5 -20q-79 0 -130.5 35.5zM204 275l103 -45l8 -4q39 8 63 30t24 53q0 46 -66 75l-102 45l-10 4q-39 -8 -62 -30t-23 -53q0 -45 65 -75z" />
    <glyph glyph-name="dieresis" unicode="&#xa8;" 
d="M245.5 617q-14.5 15 -14.5 37q0 26 19 45.5t45 19.5q21 0 36 -15t15 -37q0 -25 -19.5 -45t-44.5 -20q-22 0 -36.5 15zM439 699.5q20 19.5 46 19.5q21 0 35 -15t14 -37q0 -26 -19.5 -45.5t-44.5 -19.5q-21 0 -36 15t-15 37q0 26 20 45.5z" />
    <glyph glyph-name="copyright" unicode="&#xa9;" horiz-adv-x="777" 
d="M209.5 31.5q-73.5 41.5 -115.5 114t-42 163.5q0 107 53 198.5t142.5 146t193.5 54.5q91 0 164.5 -41.5t115.5 -114t42 -162.5q0 -107 -53 -199t-142.5 -146.5t-192.5 -54.5q-92 0 -165.5 41.5zM144 175q35 -62 96.5 -97.5t136.5 -35.5q87 0 163 47t121 125.5t45 168.5
q0 77 -35 139.5t-96.5 98t-137.5 35.5q-86 0 -162 -47t-121 -126t-45 -169q0 -77 35 -139zM256.5 438.5q25.5 46.5 71 73t101.5 26.5q61 0 101.5 -30t51.5 -84l-71 -16q-9 27 -31 43t-55 16q-52 0 -85 -36t-33 -93q0 -48 28 -76t71 -28q32 0 54.5 15.5t33.5 44.5l70 -15
q-16 -54 -58.5 -84t-102.5 -30q-78 0 -125 46t-47 124q0 57 25.5 103.5z" />
    <glyph glyph-name="ordfeminine" unicode="&#xaa;" horiz-adv-x="404" 
d="M98 339.5q-33 28.5 -33 72.5q0 57 47.5 89.5t129.5 37.5q63 4 108 22q2 12 2 18q0 28 -20.5 44.5t-58.5 16.5q-34 0 -60 -16.5t-40 -48.5l-75 23q21 54 67.5 83.5t108.5 29.5q71 0 113.5 -35t42.5 -89q0 -15 -3 -30l-51 -239h-78l11 51q-23 -27 -56 -42.5t-67 -15.5
q-55 0 -88 28.5zM160 384q18 -13 48 -13q42 0 78.5 31t46.5 77l5 25q-41 -16 -99 -19q-44 -2 -70.5 -20t-26.5 -46q0 -22 18 -35z" />
    <glyph glyph-name="guillemotleft" unicode="&#xab;" horiz-adv-x="623" 
d="M128 252l174 -252h-102l-179 255l287 254h105zM352 252l174 -252h-102l-179 255l287 254h105z" />
    <glyph glyph-name="logicalnot" unicode="&#xac;" horiz-adv-x="544" 
d="M405 239h-366l18 87h460l-69 -326h-94z" />
    <glyph glyph-name="uni00AD" unicode="&#xad;" horiz-adv-x="444" 
d="M409 326l-18 -87h-354l19 87h353z" />
    <glyph glyph-name="registered" unicode="&#xae;" horiz-adv-x="471" 
d="M179 332q-40 23 -63 64t-23 93q0 60 30.5 112t81.5 83.5t110 31.5q50 0 90.5 -23t63.5 -64t23 -92q0 -60 -30.5 -112.5t-82 -84t-110.5 -31.5q-50 0 -90 23zM172.5 387q38.5 -40 100.5 -40q48 0 88.5 25.5t64.5 68.5t24 93q0 64 -38 103.5t-100 39.5q-49 0 -89.5 -25
t-64.5 -68t-24 -93q0 -64 38.5 -104zM244 607h73q31 0 47.5 -13.5t16.5 -36.5q0 -21 -12.5 -34t-35.5 -17q24 -3 21 -24l-4 -42q-1 -14 0 -21h-37q-2 7 -1 20l4 33v3q0 12 -16 12h-42l-15 -68h-39zM306 518q16 0 26 9.5t10 24.5q0 24 -28 24h-37l-12 -58h41z" />
    <glyph glyph-name="macron" unicode="&#xaf;" 
d="M240 689h291l-15 -67h-291z" />
    <glyph glyph-name="degree" unicode="&#xb0;" horiz-adv-x="367" 
d="M143 457.5q-36 36.5 -36 92.5q0 42 21.5 78.5t57.5 58t78 21.5q56 0 92.5 -36.5t36.5 -92.5q0 -42 -21.5 -78.5t-58 -58t-78.5 -21.5q-56 0 -92 36.5zM188 501q20 -22 51 -22q38 0 65.5 28t27.5 66q0 33 -20.5 55t-51.5 22q-37 0 -64.5 -28t-27.5 -66q0 -33 20 -55z" />
    <glyph glyph-name="plusminus" unicode="&#xb1;" horiz-adv-x="591" 
d="M55 79h411l-17 -80h-411zM130 430h167l35 168h78l-36 -168h167l-18 -78h-166l-35 -168h-77l35 168h-167z" />
    <glyph glyph-name="uni00B2" unicode="&#xb2;" horiz-adv-x="283" 
d="M147 512l78 35q52 25 52 61q0 19 -13.5 30t-36.5 11q-49 0 -64 -53l-62 14q12 45 45.5 69.5t83.5 24.5t79.5 -24.5t29.5 -67.5q0 -77 -90 -116l-67 -31q-27 -12 -39 -25t-17 -36h171l-11 -54h-243l8 37q19 90 96 125z" />
    <glyph glyph-name="uni00B3" unicode="&#xb3;" horiz-adv-x="303" 
d="M104.5 367q-33.5 25 -45.5 73l63 15q13 -57 71 -57q31 0 50 14.5t19 40.5q0 21 -14 34t-38 13h-43l10 52h45q28 0 45.5 14t17.5 37q0 21 -14 33.5t-39 12.5q-50 0 -67 -54l-63 14q13 45 48.5 70.5t83.5 25.5q53 0 83.5 -26t30.5 -66q0 -33 -21 -57.5t-59 -34.5
q57 -19 57 -72q0 -46 -38.5 -76.5t-94.5 -30.5q-54 0 -87.5 25z" />
    <glyph glyph-name="acute" unicode="&#xb4;" 
d="M430 725h119l-151 -122h-85z" />
    <glyph glyph-name="uni00B5" unicode="&#xb5;" horiz-adv-x="559" 
d="M106 509h100l-64 -302q-4 -17 -4 -36q0 -44 27 -69t76 -25q82 0 140 67l77 365h100l-108 -509h-100l11 52q-71 -62 -165 -62q-58 0 -94 28l-48 -225h-100z" />
    <glyph glyph-name="paragraph" unicode="&#xb6;" horiz-adv-x="671" 
d="M320 274h-26q-93 0 -149.5 51t-56.5 134q0 69 32.5 124t89.5 86t129 31h350l-149 -700h-85l59 274h-109l-58 -274h-85zM210.5 386.5q33.5 -30.5 90.5 -30.5h37l55 261h-64q-66 0 -109 -41.5t-43 -105.5q0 -53 33.5 -83.5zM531 356l55 261h-108l-55 -261h108z" />
    <glyph glyph-name="periodcentered" unicode="&#xb7;" horiz-adv-x="242" 
d="M80 236.5q-16 16.5 -16 39.5q0 28 21.5 49.5t49.5 21.5q23 0 38.5 -16.5t15.5 -40.5q0 -27 -21 -48.5t-48 -21.5q-24 0 -40 16.5z" />
    <glyph glyph-name="cedilla" unicode="&#xb8;" horiz-adv-x="0" 
d="M129.5 -211.5q-29.5 19.5 -40.5 56.5l58 11q6 -18 21 -27.5t37 -9.5q26 0 41.5 13t15.5 35q0 19 -15 29.5t-41 10.5h-33l46 93h53l-26 -52q36 -5 56.5 -25t20.5 -51q0 -47 -32 -75t-87 -28q-45 0 -74.5 19.5z" />
    <glyph glyph-name="uni00B9" unicode="&#xb9;" horiz-adv-x="166" 
d="M161 633l-73 -27l13 56l98 38h40l-75 -350h-63z" />
    <glyph glyph-name="ordmasculine" unicode="&#xba;" horiz-adv-x="455" 
d="M174.5 335q-42.5 24 -66.5 66t-24 94q0 57 29 106.5t77.5 79t105.5 29.5q51 0 93 -24t66 -66t24 -94q0 -57 -28.5 -106.5t-77 -79t-104.5 -29.5q-52 0 -94.5 24zM193.5 415.5q31.5 -33.5 79.5 -33.5q34 0 63.5 19t47 51.5t17.5 69.5q0 50 -31.5 83.5t-78.5 33.5
q-34 0 -64 -19t-47.5 -51t-17.5 -70q0 -50 31.5 -83.5z" />
    <glyph glyph-name="guillemotright" unicode="&#xbb;" horiz-adv-x="623" 
d="M495 257l-173 252h101l180 -255l-288 -254h-105zM270 257l-173 252h101l180 -255l-288 -254h-104z" />
    <glyph glyph-name="onequarter" unicode="&#xbc;" horiz-adv-x="621" 
d="M462 83h-194l11 53l230 214h73l-44 -212h42l-12 -55h-42l-18 -83h-64zM528 700h76l-537 -700h-74zM101 662l98 38h40l-75 -350h-63l60 283l-73 -27zM474 138l30 140l-150 -140h120z" />
    <glyph glyph-name="onehalf" unicode="&#xbd;" horiz-adv-x="652" 
d="M161 633l-73 -27l13 56l98 38h40l-75 -350h-63zM525 700h76l-538 -700h-73zM340 37q19 90 96 125l77 35q52 25 52 61q0 19 -13 30t-36 11q-50 0 -64 -53l-62 14q12 45 45.5 69.5t82.5 24.5q51 0 80 -24.5t29 -67.5q0 -77 -89 -116l-68 -31q-26 -12 -38 -25t-18 -36h172
l-11 -54h-244z" />
    <glyph glyph-name="threequarters" unicode="&#xbe;" horiz-adv-x="714" 
d="M556 83h-194l11 53l230 214h73l-45 -212h43l-12 -55h-42l-18 -83h-64zM122 455q13 -57 71 -57q31 0 50 14.5t19 40.5q0 21 -14 34t-38 13h-43l10 52h45q28 0 45.5 14t17.5 37q0 21 -14 33.5t-39 12.5q-50 0 -67 -54l-63 14q13 45 48.5 70.5t83.5 25.5q53 0 83.5 -26
t30.5 -66q0 -33 -21 -57.5t-59 -34.5q57 -19 57 -72q0 -46 -38.5 -76.5t-94.5 -30.5q-54 0 -87.5 25t-45.5 73zM621 700h76l-537 -700h-74zM567 138l30 140l-149 -140h119z" />
    <glyph glyph-name="questiondown" unicode="&#xbf;" horiz-adv-x="495" 
d="M297 179.5q-26 -42.5 -80 -73.5l-63 -36q-39 -23 -58 -51.5t-19 -59.5q0 -38 32 -62t82 -24q58 0 96 27t54 79l93 -22q-19 -79 -85 -125t-160 -46q-62 0 -109.5 21.5t-74 59t-26.5 85.5q0 57 30.5 99.5t105.5 85.5l52 29q39 22 58 51t26 76h83q-11 -71 -37 -113.5z
M281 482.5q21 21.5 49 21.5q24 0 39.5 -16t15.5 -40q0 -29 -21 -50t-49 -21q-23 0 -39 16.5t-16 40.5q0 27 21 48.5z" />
    <glyph glyph-name="Agrave" unicode="&#xc0;" horiz-adv-x="679" 
d="M372 700h122l135 -700h-107l-37 205h-306l-123 -205h-113zM470 292l-56 306l-184 -306h240zM290 916h118l89 -122h-82z" />
    <glyph glyph-name="Aacute" unicode="&#xc1;" horiz-adv-x="679" 
d="M372 700h122l135 -700h-107l-37 205h-306l-123 -205h-113zM470 292l-56 306l-184 -306h240zM505 916h119l-151 -122h-85z" />
    <glyph glyph-name="Acircumflex" unicode="&#xc2;" horiz-adv-x="679" 
d="M372 700h122l135 -700h-107l-37 205h-306l-123 -205h-113zM470 292l-56 306l-184 -306h240zM420 918h104l78 -127h-77l-61 77l-94 -77h-83z" />
    <glyph glyph-name="Atilde" unicode="&#xc3;" horiz-adv-x="679" 
d="M372 700h122l135 -700h-107l-37 205h-306l-123 -205h-113zM470 292l-56 306l-184 -306h240zM323.5 886.5q26.5 24.5 60.5 24.5q21 0 40 -8.5t44 -24.5q20 -12 33.5 -18.5t25.5 -6.5q15 0 26 11.5t25 41.5l61 -20q-43 -101 -111 -101q-21 0 -40 8.5t-44 24.5
q-20 12 -33.5 18.5t-26.5 6.5q-14 0 -25.5 -12t-23.5 -40l-61 20q23 51 49.5 75.5z" />
    <glyph glyph-name="Adieresis" unicode="&#xc4;" horiz-adv-x="679" 
d="M372 700h122l135 -700h-107l-37 205h-306l-123 -205h-113zM470 292l-56 306l-184 -306h240zM320.5 808q-14.5 15 -14.5 37q0 26 19 45.5t45 19.5q21 0 36 -15t15 -37q0 -25 -19.5 -45t-44.5 -20q-22 0 -36.5 15zM514 890.5q20 19.5 46 19.5q21 0 35 -15t14 -37
q0 -26 -19.5 -45.5t-44.5 -19.5q-21 0 -36 15t-15 37q0 26 20 45.5z" />
    <glyph glyph-name="Aring" unicode="&#xc5;" horiz-adv-x="679" 
d="M372 700h122l135 -700h-107l-37 205h-306l-123 -205h-113zM470 292l-56 306l-184 -306h240zM379.5 803q-29.5 29 -29.5 73q0 33 17 62.5t46 47.5t61 18q46 0 75.5 -29t29.5 -73q0 -33 -17 -62.5t-46 -47.5t-61 -18q-46 0 -75.5 29zM415.5 838.5q16.5 -16.5 40.5 -16.5
q30 0 51.5 22t21.5 53q0 26 -16 42.5t-41 16.5q-29 0 -51 -22.5t-22 -53.5q0 -25 16.5 -41.5z" />
    <glyph glyph-name="AE" unicode="&#xc6;" horiz-adv-x="938" 
d="M373 700h627l-19 -92h-464l36 -210h250l-19 -89h-217l38 -217h266l-19 -92h-334l-35 205h-307l-125 -205h-108zM470 292l-52 308l-189 -308h241z" />
    <glyph glyph-name="Ccedilla" unicode="&#xc7;" horiz-adv-x="752" 
d="M263.5 -211.5q-29.5 19.5 -40.5 56.5l58 11q6 -18 21 -27.5t37 -9.5q26 0 41.5 13t15.5 35q0 19 -15 29.5t-41 10.5h-33l42 85q-87 8 -153.5 51t-103 114.5t-36.5 163.5q0 110 50.5 199t139 140t197.5 51q82 0 148.5 -29t108.5 -82.5t53 -123.5l-103 -24
q-14 77 -69.5 119.5t-141.5 42.5q-80 0 -143 -37.5t-98 -103.5t-35 -149q0 -72 29 -126t82 -83.5t122 -29.5q81 0 139 43t81 121l103 -24q-28 -105 -114 -169t-204 -66l-21 -42q36 -5 56.5 -25t20.5 -51q0 -47 -32 -75t-87 -28q-45 0 -74.5 19.5z" />
    <glyph glyph-name="Egrave" unicode="&#xc8;" horiz-adv-x="608" 
d="M161 700h506l-20 -92h-403l-45 -210h264l-19 -89h-264l-47 -217h408l-19 -92h-510zM270 916h118l89 -122h-82z" />
    <glyph glyph-name="Eacute" unicode="&#xc9;" horiz-adv-x="608" 
d="M161 700h506l-20 -92h-403l-45 -210h264l-19 -89h-264l-47 -217h408l-19 -92h-510zM485 916h119l-151 -122h-85z" />
    <glyph glyph-name="Ecircumflex" unicode="&#xca;" horiz-adv-x="608" 
d="M161 700h506l-20 -92h-403l-45 -210h264l-19 -89h-264l-47 -217h408l-19 -92h-510zM401 918h104l78 -127h-77l-61 77l-94 -77h-83z" />
    <glyph glyph-name="Edieresis" unicode="&#xcb;" horiz-adv-x="608" 
d="M161 700h506l-20 -92h-403l-45 -210h264l-19 -89h-264l-47 -217h408l-19 -92h-510zM300.5 808q-14.5 15 -14.5 37q0 26 19 45.5t45 19.5q21 0 36 -15t15 -37q0 -25 -19.5 -45t-44.5 -20q-22 0 -36.5 15zM494 890.5q20 19.5 46 19.5q21 0 35 -15t14 -37q0 -26 -19.5 -45.5
t-44.5 -19.5q-21 0 -36 15t-15 37q0 26 20 45.5z" />
    <glyph glyph-name="Igrave" unicode="&#xcc;" horiz-adv-x="235" 
d="M161 700h102l-149 -700h-102zM75 916h118l89 -122h-82z" />
    <glyph glyph-name="Iacute" unicode="&#xcd;" horiz-adv-x="235" 
d="M161 700h102l-149 -700h-102zM290 916h119l-151 -122h-85z" />
    <glyph glyph-name="Icircumflex" unicode="&#xce;" horiz-adv-x="235" 
d="M161 700h102l-149 -700h-102zM205 918h104l78 -127h-77l-61 77l-94 -77h-83z" />
    <glyph glyph-name="Idieresis" unicode="&#xcf;" horiz-adv-x="235" 
d="M161 700h102l-149 -700h-102zM105.5 808q-14.5 15 -14.5 37q0 26 19 45.5t45 19.5q21 0 36 -15t15 -37q0 -25 -19.5 -45t-44.5 -20q-22 0 -36.5 15zM299 890.5q20 19.5 46 19.5q21 0 35 -15t14 -37q0 -26 -19.5 -45.5t-44.5 -19.5q-21 0 -36 15t-15 37q0 26 20 45.5z" />
    <glyph glyph-name="Eth" unicode="&#xd0;" horiz-adv-x="727" 
d="M99 307h-82l19 86h82l65 307h211q93 0 166 -39.5t113.5 -110t40.5 -160.5q0 -105 -55 -194.5t-148.5 -142.5t-203.5 -53h-273zM318 94q79 0 145.5 39t105 105.5t38.5 145.5q0 65 -28 115.5t-78.5 78.5t-115.5 28h-120l-45 -213h178l-17 -86h-180l-45 -213h162z" />
    <glyph glyph-name="Ntilde" unicode="&#xd1;" horiz-adv-x="712" 
d="M161 700h97l273 -531l113 531h96l-149 -700h-88l-279 546l-115 -546h-97zM346.5 886.5q26.5 24.5 60.5 24.5q21 0 40 -8.5t44 -24.5q20 -12 33.5 -18.5t25.5 -6.5q15 0 26 11.5t25 41.5l61 -20q-43 -101 -111 -101q-21 0 -40 8.5t-44 24.5q-20 12 -33.5 18.5t-26.5 6.5
q-14 0 -25.5 -12t-23.5 -40l-61 20q23 51 49.5 75.5z" />
    <glyph glyph-name="Ograve" unicode="&#xd2;" horiz-adv-x="787" 
d="M218 32.5q-76 43.5 -119.5 119t-43.5 168.5q0 105 52 195t140 143t192 53q93 0 169 -43.5t119.5 -119t43.5 -168.5q0 -105 -52 -195t-140 -143t-192 -53q-93 0 -169 43.5zM189.5 203.5q30.5 -54.5 84 -86t120.5 -31.5q74 0 136.5 39t99.5 105t37 144q0 68 -30.5 122.5
t-84 86t-120.5 31.5q-74 0 -136.5 -39t-99.5 -105t-37 -144q0 -68 30.5 -122.5zM306 916h118l89 -122h-82z" />
    <glyph glyph-name="Oacute" unicode="&#xd3;" horiz-adv-x="787" 
d="M218 32.5q-76 43.5 -119.5 119t-43.5 168.5q0 105 52 195t140 143t192 53q93 0 169 -43.5t119.5 -119t43.5 -168.5q0 -105 -52 -195t-140 -143t-192 -53q-93 0 -169 43.5zM189.5 203.5q30.5 -54.5 84 -86t120.5 -31.5q74 0 136.5 39t99.5 105t37 144q0 68 -30.5 122.5
t-84 86t-120.5 31.5q-74 0 -136.5 -39t-99.5 -105t-37 -144q0 -68 30.5 -122.5zM521 916h119l-151 -122h-85z" />
    <glyph glyph-name="Ocircumflex" unicode="&#xd4;" horiz-adv-x="787" 
d="M218 32.5q-76 43.5 -119.5 119t-43.5 168.5q0 105 52 195t140 143t192 53q93 0 169 -43.5t119.5 -119t43.5 -168.5q0 -105 -52 -195t-140 -143t-192 -53q-93 0 -169 43.5zM189.5 203.5q30.5 -54.5 84 -86t120.5 -31.5q74 0 136.5 39t99.5 105t37 144q0 68 -30.5 122.5
t-84 86t-120.5 31.5q-74 0 -136.5 -39t-99.5 -105t-37 -144q0 -68 30.5 -122.5zM437 918h104l78 -127h-77l-61 77l-94 -77h-83z" />
    <glyph glyph-name="Otilde" unicode="&#xd5;" horiz-adv-x="787" 
d="M218 32.5q-76 43.5 -119.5 119t-43.5 168.5q0 105 52 195t140 143t192 53q93 0 169 -43.5t119.5 -119t43.5 -168.5q0 -105 -52 -195t-140 -143t-192 -53q-93 0 -169 43.5zM189.5 203.5q30.5 -54.5 84 -86t120.5 -31.5q74 0 136.5 39t99.5 105t37 144q0 68 -30.5 122.5
t-84 86t-120.5 31.5q-74 0 -136.5 -39t-99.5 -105t-37 -144q0 -68 30.5 -122.5zM339.5 886.5q26.5 24.5 60.5 24.5q21 0 40 -8.5t44 -24.5q20 -12 33.5 -18.5t25.5 -6.5q15 0 26 11.5t25 41.5l61 -20q-43 -101 -111 -101q-21 0 -40 8.5t-44 24.5q-20 12 -33.5 18.5
t-26.5 6.5q-14 0 -25.5 -12t-23.5 -40l-61 20q23 51 49.5 75.5z" />
    <glyph glyph-name="Odieresis" unicode="&#xd6;" horiz-adv-x="787" 
d="M218 32.5q-76 43.5 -119.5 119t-43.5 168.5q0 105 52 195t140 143t192 53q93 0 169 -43.5t119.5 -119t43.5 -168.5q0 -105 -52 -195t-140 -143t-192 -53q-93 0 -169 43.5zM189.5 203.5q30.5 -54.5 84 -86t120.5 -31.5q74 0 136.5 39t99.5 105t37 144q0 68 -30.5 122.5
t-84 86t-120.5 31.5q-74 0 -136.5 -39t-99.5 -105t-37 -144q0 -68 30.5 -122.5zM336.5 808q-14.5 15 -14.5 37q0 26 19 45.5t45 19.5q21 0 36 -15t15 -37q0 -25 -19.5 -45t-44.5 -20q-22 0 -36.5 15zM530 890.5q20 19.5 46 19.5q21 0 35 -15t14 -37q0 -26 -19.5 -45.5
t-44.5 -19.5q-21 0 -36 15t-15 37q0 26 20 45.5z" />
    <glyph glyph-name="multiply" unicode="&#xd7;" horiz-adv-x="591" 
d="M93 204l178 155l-112 155l58 50l112 -154l179 155l39 -51l-180 -156l113 -155l-60 -51l-112 155l-178 -154z" />
    <glyph glyph-name="Oslash" unicode="&#xd8;" horiz-adv-x="788" 
d="M270.5 9q-55.5 20 -98.5 56l-66 -65h-102l118 116q-32 42 -49.5 94t-17.5 110q0 105 52 195t140 143t192 53q61 0 115.5 -19.5t98.5 -54.5l64 63h103l-117 -115q33 -42 50.5 -94.5t17.5 -110.5q0 -105 -52 -195t-140 -143t-192 -53q-61 0 -116.5 20zM198 191l381 373
q-61 50 -147 50q-74 0 -136.5 -39t-99.5 -105t-37 -144q0 -75 39 -135zM314 99.5q38 -13.5 80 -13.5q74 0 136.5 39t99.5 105t37 144q0 77 -40 136l-381 -372q30 -25 68 -38.5z" />
    <glyph glyph-name="Ugrave" unicode="&#xd9;" horiz-adv-x="690" 
d="M179.5 20q-59.5 30 -91 85.5t-31.5 128.5q0 37 9 79l82 387h103l-84 -395q-6 -30 -6 -57q0 -74 44 -118t119 -44q81 0 139 55t78 151l87 408h103l-89 -415q-31 -142 -115 -218.5t-208 -76.5q-80 0 -139.5 30zM298 916h118l89 -122h-82z" />
    <glyph glyph-name="Uacute" unicode="&#xda;" horiz-adv-x="690" 
d="M179.5 20q-59.5 30 -91 85.5t-31.5 128.5q0 37 9 79l82 387h103l-84 -395q-6 -30 -6 -57q0 -74 44 -118t119 -44q81 0 139 55t78 151l87 408h103l-89 -415q-31 -142 -115 -218.5t-208 -76.5q-80 0 -139.5 30zM513 916h119l-151 -122h-85z" />
    <glyph glyph-name="Ucircumflex" unicode="&#xdb;" horiz-adv-x="690" 
d="M179.5 20q-59.5 30 -91 85.5t-31.5 128.5q0 37 9 79l82 387h103l-84 -395q-6 -30 -6 -57q0 -74 44 -118t119 -44q81 0 139 55t78 151l87 408h103l-89 -415q-31 -142 -115 -218.5t-208 -76.5q-80 0 -139.5 30zM429 918h104l78 -127h-77l-61 77l-94 -77h-83z" />
    <glyph glyph-name="Udieresis" unicode="&#xdc;" horiz-adv-x="690" 
d="M179.5 20q-59.5 30 -91 85.5t-31.5 128.5q0 37 9 79l82 387h103l-84 -395q-6 -30 -6 -57q0 -74 44 -118t119 -44q81 0 139 55t78 151l87 408h103l-89 -415q-31 -142 -115 -218.5t-208 -76.5q-80 0 -139.5 30zM328.5 808q-14.5 15 -14.5 37q0 26 19 45.5t45 19.5
q21 0 36 -15t15 -37q0 -25 -19.5 -45t-44.5 -20q-22 0 -36.5 15zM522 890.5q20 19.5 46 19.5q21 0 35 -15t14 -37q0 -26 -19.5 -45.5t-44.5 -19.5q-21 0 -36 15t-15 37q0 26 20 45.5z" />
    <glyph glyph-name="Yacute" unicode="&#xdd;" horiz-adv-x="645" 
d="M275 279l-185 421h109l143 -329l280 329h123l-367 -424l-59 -276h-103zM488 916h119l-151 -122h-85z" />
    <glyph glyph-name="Thorn" unicode="&#xde;" horiz-adv-x="640" 
d="M161 700h102l-29 -137h179q92 0 147.5 -50.5t55.5 -134.5q0 -68 -32.5 -123t-89.5 -86.5t-128 -31.5h-222l-30 -137h-102zM363 226q66 0 107 40t41 104q0 47 -31 74.5t-85 27.5h-180l-53 -246h201z" />
    <glyph glyph-name="germandbls" unicode="&#xdf;" horiz-adv-x="627" 
d="M276.5 21q-53.5 31 -75.5 86l78 39q16 -38 49.5 -58t80.5 -20q45 0 70.5 18t25.5 48q0 20 -14 35t-47 30l-73 31q-42 18 -62.5 42.5t-20.5 58.5q0 32 17.5 54.5t42 36.5t65.5 32q52 23 76.5 41t24.5 49q0 36 -36 60.5t-91 24.5q-155 0 -188 -154l-102 -475h-96l103 483
q23 111 96.5 169.5t187.5 58.5q64 0 115 -20t79.5 -56t28.5 -82q0 -43 -20.5 -70.5t-48.5 -42.5t-73 -33q-44 -16 -64.5 -29.5t-20.5 -35.5q0 -31 45 -49l66 -29q53 -23 76.5 -52t23.5 -72q0 -66 -52.5 -108t-138.5 -42q-74 0 -127.5 31z" />
    <glyph glyph-name="agrave" unicode="&#xe0;" horiz-adv-x="520" 
d="M54 29.5q-46 38.5 -46 102.5q0 143 231 162q92 7 150 31q2 14 2 20q0 39 -28.5 62.5t-76.5 23.5q-46 0 -81.5 -23.5t-55.5 -69.5l-94 23q33 78 92.5 118t140.5 40q60 0 106 -21t70.5 -58.5t24.5 -84.5q0 -21 -4 -38l-68 -317h-97l14 67q-29 -35 -73 -55.5t-93 -20.5
q-68 0 -114 38.5zM129 84q24 -19 67 -19q62 0 108 42.5t61 107.5l8 36q-52 -20 -136 -28q-70 -6 -101 -25.5t-31 -58.5q0 -36 24 -55zM170 725h118l89 -122h-82z" />
    <glyph glyph-name="aacute" unicode="&#xe1;" horiz-adv-x="520" 
d="M54 29.5q-46 38.5 -46 102.5q0 143 231 162q92 7 150 31q2 14 2 20q0 39 -28.5 62.5t-76.5 23.5q-46 0 -81.5 -23.5t-55.5 -69.5l-94 23q33 78 92.5 118t140.5 40q60 0 106 -21t70.5 -58.5t24.5 -84.5q0 -21 -4 -38l-68 -317h-97l14 67q-29 -35 -73 -55.5t-93 -20.5
q-68 0 -114 38.5zM129 84q24 -19 67 -19q62 0 108 42.5t61 107.5l8 36q-52 -20 -136 -28q-70 -6 -101 -25.5t-31 -58.5q0 -36 24 -55zM385 725h119l-151 -122h-85z" />
    <glyph glyph-name="acircumflex" unicode="&#xe2;" horiz-adv-x="520" 
d="M54 29.5q-46 38.5 -46 102.5q0 143 231 162q92 7 150 31q2 14 2 20q0 39 -28.5 62.5t-76.5 23.5q-46 0 -81.5 -23.5t-55.5 -69.5l-94 23q33 78 92.5 118t140.5 40q60 0 106 -21t70.5 -58.5t24.5 -84.5q0 -21 -4 -38l-68 -317h-97l14 67q-29 -35 -73 -55.5t-93 -20.5
q-68 0 -114 38.5zM129 84q24 -19 67 -19q62 0 108 42.5t61 107.5l8 36q-52 -20 -136 -28q-70 -6 -101 -25.5t-31 -58.5q0 -36 24 -55zM301 727h104l78 -127h-77l-61 77l-94 -77h-83z" />
    <glyph glyph-name="atilde" unicode="&#xe3;" horiz-adv-x="520" 
d="M54 29.5q-46 38.5 -46 102.5q0 143 231 162q92 7 150 31q2 14 2 20q0 39 -28.5 62.5t-76.5 23.5q-46 0 -81.5 -23.5t-55.5 -69.5l-94 23q33 78 92.5 118t140.5 40q60 0 106 -21t70.5 -58.5t24.5 -84.5q0 -21 -4 -38l-68 -317h-97l14 67q-29 -35 -73 -55.5t-93 -20.5
q-68 0 -114 38.5zM129 84q24 -19 67 -19q62 0 108 42.5t61 107.5l8 36q-52 -20 -136 -28q-70 -6 -101 -25.5t-31 -58.5q0 -36 24 -55zM203.5 695.5q26.5 24.5 60.5 24.5q21 0 40 -8.5t44 -24.5q20 -12 33.5 -18.5t25.5 -6.5q15 0 26 11.5t25 41.5l61 -20q-43 -101 -111 -101
q-21 0 -40 8.5t-44 24.5q-20 12 -33.5 18.5t-26.5 6.5q-14 0 -25.5 -12t-23.5 -40l-61 20q23 51 49.5 75.5z" />
    <glyph glyph-name="adieresis" unicode="&#xe4;" horiz-adv-x="520" 
d="M54 29.5q-46 38.5 -46 102.5q0 143 231 162q92 7 150 31q2 14 2 20q0 39 -28.5 62.5t-76.5 23.5q-46 0 -81.5 -23.5t-55.5 -69.5l-94 23q33 78 92.5 118t140.5 40q60 0 106 -21t70.5 -58.5t24.5 -84.5q0 -21 -4 -38l-68 -317h-97l14 67q-29 -35 -73 -55.5t-93 -20.5
q-68 0 -114 38.5zM129 84q24 -19 67 -19q62 0 108 42.5t61 107.5l8 36q-52 -20 -136 -28q-70 -6 -101 -25.5t-31 -58.5q0 -36 24 -55zM200.5 617q-14.5 15 -14.5 37q0 26 19 45.5t45 19.5q21 0 36 -15t15 -37q0 -25 -19.5 -45t-44.5 -20q-22 0 -36.5 15zM394 699.5
q20 19.5 46 19.5q21 0 35 -15t14 -37q0 -26 -19.5 -45.5t-44.5 -19.5q-21 0 -36 15t-15 37q0 26 20 45.5z" />
    <glyph glyph-name="aring" unicode="&#xe5;" horiz-adv-x="520" 
d="M54 29.5q-46 38.5 -46 102.5q0 143 231 162q92 7 150 31q2 14 2 20q0 39 -28.5 62.5t-76.5 23.5q-46 0 -81.5 -23.5t-55.5 -69.5l-94 23q33 78 92.5 118t140.5 40q60 0 106 -21t70.5 -58.5t24.5 -84.5q0 -21 -4 -38l-68 -317h-97l14 67q-29 -35 -73 -55.5t-93 -20.5
q-68 0 -114 38.5zM129 84q24 -19 67 -19q62 0 108 42.5t61 107.5l8 36q-52 -20 -136 -28q-70 -6 -101 -25.5t-31 -58.5q0 -36 24 -55zM260.5 612q-29.5 29 -29.5 73q0 33 17 62.5t46 47.5t61 18q46 0 75.5 -29t29.5 -73q0 -33 -17 -62.5t-46 -47.5t-61 -18q-46 0 -75.5 29z
M296.5 647.5q16.5 -16.5 40.5 -16.5q30 0 51.5 22t21.5 53q0 26 -16 42.5t-41 16.5q-29 0 -51 -22.5t-22 -53.5q0 -25 16.5 -41.5z" />
    <glyph glyph-name="ae" unicode="&#xe6;" horiz-adv-x="906" 
d="M477 30q-58 40 -82 110q-31 -71 -93 -110t-133 -39q-69 0 -115 38.5t-46 102.5q0 143 231 162q92 7 150 31q2 14 2 20q0 39 -28.5 62.5t-76.5 23.5q-46 0 -81.5 -23.5t-55.5 -69.5l-94 23q33 78 92.5 118t140.5 40q60 0 103.5 -20.5t66.5 -57.5q35 37 83 57.5t103 20.5
q67 0 119 -29.5t81 -82.5t29 -120q0 -20 -5 -55h-396q-1 -43 17.5 -79t52.5 -57t79 -21q49 0 87 24.5t59 66.5l82 -38q-35 -67 -94 -102.5t-137 -35.5q-83 0 -141 40zM129 84q24 -19 67 -19q62 0 108 42.5t61 107.5l8 36q-52 -20 -136 -28q-70 -6 -101 -25.5t-31 -58.5
q0 -36 24 -55zM781 302q-6 62 -43.5 97.5t-97.5 35.5t-103 -36t-57 -97h301z" />
    <glyph glyph-name="ccedilla" unicode="&#xe7;" horiz-adv-x="550" 
d="M277 -9l-22 -43q36 -5 56.5 -25t20.5 -51q0 -47 -32 -75t-87 -28q-45 0 -74.5 19.5t-40.5 56.5l58 11q6 -18 21 -27.5t37 -9.5q26 0 41.5 13t15.5 35q0 19 -15 29.5t-41 10.5h-33l44 89q-88 16 -141.5 80t-53.5 158q0 80 37.5 145t102.5 102.5t143 37.5q81 0 140 -39.5
t83 -114.5l-94 -27q-15 43 -51.5 68t-84.5 25q-49 0 -89.5 -25t-64 -69t-23.5 -98q0 -71 42 -115.5t110 -44.5q47 0 83 24.5t58 70.5l88 -31q-34 -75 -92.5 -113.5t-138.5 -38.5h-3z" />
    <glyph glyph-name="egrave" unicode="&#xe8;" horiz-adv-x="563" 
d="M147 21q-55 31 -85 87t-30 129q0 77 35 142t96.5 102.5t137.5 37.5q67 0 119 -29.5t81 -82.5t29 -120q0 -20 -5 -55h-396q-1 -43 17.5 -79t52.5 -57t79 -21q49 0 87 24.5t59 66.5l82 -38q-35 -67 -94 -102.5t-137 -35.5q-73 0 -128 31zM438 302q-5 62 -42.5 97.5
t-97.5 35.5t-103.5 -36t-57.5 -97h301zM169 725h118l89 -122h-82z" />
    <glyph glyph-name="eacute" unicode="&#xe9;" horiz-adv-x="563" 
d="M147 21q-55 31 -85 87t-30 129q0 77 35 142t96.5 102.5t137.5 37.5q67 0 119 -29.5t81 -82.5t29 -120q0 -20 -5 -55h-396q-1 -43 17.5 -79t52.5 -57t79 -21q49 0 87 24.5t59 66.5l82 -38q-35 -67 -94 -102.5t-137 -35.5q-73 0 -128 31zM438 302q-5 62 -42.5 97.5
t-97.5 35.5t-103.5 -36t-57.5 -97h301zM384 725h119l-151 -122h-85z" />
    <glyph glyph-name="ecircumflex" unicode="&#xea;" horiz-adv-x="563" 
d="M147 21q-55 31 -85 87t-30 129q0 77 35 142t96.5 102.5t137.5 37.5q67 0 119 -29.5t81 -82.5t29 -120q0 -20 -5 -55h-396q-1 -43 17.5 -79t52.5 -57t79 -21q49 0 87 24.5t59 66.5l82 -38q-35 -67 -94 -102.5t-137 -35.5q-73 0 -128 31zM438 302q-5 62 -42.5 97.5
t-97.5 35.5t-103.5 -36t-57.5 -97h301zM300 727h104l78 -127h-77l-61 77l-94 -77h-83z" />
    <glyph glyph-name="edieresis" unicode="&#xeb;" horiz-adv-x="563" 
d="M147 21q-55 31 -85 87t-30 129q0 77 35 142t96.5 102.5t137.5 37.5q67 0 119 -29.5t81 -82.5t29 -120q0 -20 -5 -55h-396q-1 -43 17.5 -79t52.5 -57t79 -21q49 0 87 24.5t59 66.5l82 -38q-35 -67 -94 -102.5t-137 -35.5q-73 0 -128 31zM438 302q-5 62 -42.5 97.5
t-97.5 35.5t-103.5 -36t-57.5 -97h301zM199.5 617q-14.5 15 -14.5 37q0 26 19 45.5t45 19.5q21 0 36 -15t15 -37q0 -25 -19.5 -45t-44.5 -20q-22 0 -36.5 15zM393 699.5q20 19.5 46 19.5q21 0 35 -15t14 -37q0 -26 -19.5 -45.5t-44.5 -19.5q-21 0 -36 15t-15 37
q0 26 20 45.5z" />
    <glyph glyph-name="igrave" unicode="&#xec;" horiz-adv-x="207" 
d="M109 509h97l-107 -509h-98zM20 725h118l89 -122h-82z" />
    <glyph glyph-name="iacute" unicode="&#xed;" horiz-adv-x="207" 
d="M109 509h97l-107 -509h-98zM235 725h119l-151 -122h-85z" />
    <glyph glyph-name="icircumflex" unicode="&#xee;" horiz-adv-x="207" 
d="M109 509h97l-107 -509h-98zM150 727h104l78 -127h-77l-61 77l-94 -77h-83z" />
    <glyph glyph-name="idieresis" unicode="&#xef;" horiz-adv-x="207" 
d="M109 509h97l-107 -509h-98zM50.5 617q-14.5 15 -14.5 37q0 26 19 45.5t45 19.5q21 0 36 -15t15 -37q0 -25 -19.5 -45t-44.5 -20q-22 0 -36.5 15zM244 699.5q20 19.5 46 19.5q21 0 35 -15t14 -37q0 -26 -19.5 -45.5t-44.5 -19.5q-21 0 -36 15t-15 37q0 26 20 45.5z" />
    <glyph glyph-name="eth" unicode="&#xf0;" horiz-adv-x="578" 
d="M141 20q-52 29 -81 81t-29 118q0 73 36 135t97 98.5t133 36.5q57 0 100.5 -25.5t66.5 -69.5q0 103 -55 181l-105 -50l-26 60l87 41q-38 35 -84 55l59 65q63 -32 110 -79l115 55l27 -60l-100 -48q65 -97 65 -232q0 -113 -38 -202t-106 -139t-154 -50q-66 0 -118 29z
M163.5 120q39.5 -40 100.5 -40q45 0 85 25.5t64 67.5t24 90q0 61 -39.5 101.5t-98.5 40.5q-46 0 -86.5 -25t-64.5 -67.5t-24 -90.5q0 -62 39.5 -102z" />
    <glyph glyph-name="ntilde" unicode="&#xf1;" horiz-adv-x="549" 
d="M109 509h97l-9 -45q65 54 147 54q77 0 123 -44.5t46 -117.5q0 -29 -5 -50l-65 -306h-97l62 295q4 17 4 37q0 47 -28 73.5t-77 26.5q-76 0 -130 -60l-78 -372h-98zM223.5 695.5q26.5 24.5 60.5 24.5q21 0 40 -8.5t44 -24.5q20 -12 33.5 -18.5t25.5 -6.5q15 0 26 11.5
t25 41.5l61 -20q-43 -101 -111 -101q-21 0 -40 8.5t-44 24.5q-20 12 -33.5 18.5t-26.5 6.5q-14 0 -25.5 -12t-23.5 -40l-61 20q23 51 49.5 75.5z" />
    <glyph glyph-name="ograve" unicode="&#xf2;" horiz-adv-x="584" 
d="M149.5 22q-55.5 32 -87 87.5t-31.5 124.5q0 76 38 141.5t102 104.5t138 39q69 0 124.5 -31.5t87 -87t31.5 -124.5q0 -77 -38 -142.5t-102 -104.5t-138 -39q-69 0 -124.5 32zM146.5 156.5q19.5 -36.5 54 -57.5t77.5 -21q48 0 89 26.5t65 70.5t24 96q0 45 -20 81.5
t-54.5 57.5t-76.5 21q-48 0 -89 -26t-65 -70t-24 -96q0 -46 19.5 -82.5zM178 725h118l89 -122h-82z" />
    <glyph glyph-name="oacute" unicode="&#xf3;" horiz-adv-x="584" 
d="M149.5 22q-55.5 32 -87 87.5t-31.5 124.5q0 76 38 141.5t102 104.5t138 39q69 0 124.5 -31.5t87 -87t31.5 -124.5q0 -77 -38 -142.5t-102 -104.5t-138 -39q-69 0 -124.5 32zM146.5 156.5q19.5 -36.5 54 -57.5t77.5 -21q48 0 89 26.5t65 70.5t24 96q0 45 -20 81.5
t-54.5 57.5t-76.5 21q-48 0 -89 -26t-65 -70t-24 -96q0 -46 19.5 -82.5zM393 725h119l-151 -122h-85z" />
    <glyph glyph-name="ocircumflex" unicode="&#xf4;" horiz-adv-x="584" 
d="M149.5 22q-55.5 32 -87 87.5t-31.5 124.5q0 76 38 141.5t102 104.5t138 39q69 0 124.5 -31.5t87 -87t31.5 -124.5q0 -77 -38 -142.5t-102 -104.5t-138 -39q-69 0 -124.5 32zM146.5 156.5q19.5 -36.5 54 -57.5t77.5 -21q48 0 89 26.5t65 70.5t24 96q0 45 -20 81.5
t-54.5 57.5t-76.5 21q-48 0 -89 -26t-65 -70t-24 -96q0 -46 19.5 -82.5zM309 727h104l78 -127h-77l-61 77l-94 -77h-83z" />
    <glyph glyph-name="otilde" unicode="&#xf5;" horiz-adv-x="584" 
d="M149.5 22q-55.5 32 -87 87.5t-31.5 124.5q0 76 38 141.5t102 104.5t138 39q69 0 124.5 -31.5t87 -87t31.5 -124.5q0 -77 -38 -142.5t-102 -104.5t-138 -39q-69 0 -124.5 32zM146.5 156.5q19.5 -36.5 54 -57.5t77.5 -21q48 0 89 26.5t65 70.5t24 96q0 45 -20 81.5
t-54.5 57.5t-76.5 21q-48 0 -89 -26t-65 -70t-24 -96q0 -46 19.5 -82.5zM211.5 695.5q26.5 24.5 60.5 24.5q21 0 40 -8.5t44 -24.5q20 -12 33.5 -18.5t25.5 -6.5q15 0 26 11.5t25 41.5l61 -20q-43 -101 -111 -101q-21 0 -40 8.5t-44 24.5q-20 12 -33.5 18.5t-26.5 6.5
q-14 0 -25.5 -12t-23.5 -40l-61 20q23 51 49.5 75.5z" />
    <glyph glyph-name="odieresis" unicode="&#xf6;" horiz-adv-x="584" 
d="M149.5 22q-55.5 32 -87 87.5t-31.5 124.5q0 76 38 141.5t102 104.5t138 39q69 0 124.5 -31.5t87 -87t31.5 -124.5q0 -77 -38 -142.5t-102 -104.5t-138 -39q-69 0 -124.5 32zM146.5 156.5q19.5 -36.5 54 -57.5t77.5 -21q48 0 89 26.5t65 70.5t24 96q0 45 -20 81.5
t-54.5 57.5t-76.5 21q-48 0 -89 -26t-65 -70t-24 -96q0 -46 19.5 -82.5zM208.5 617q-14.5 15 -14.5 37q0 26 19 45.5t45 19.5q21 0 36 -15t15 -37q0 -25 -19.5 -45t-44.5 -20q-22 0 -36.5 15zM402 699.5q20 19.5 46 19.5q21 0 35 -15t14 -37q0 -26 -19.5 -45.5t-44.5 -19.5
q-21 0 -36 15t-15 37q0 26 20 45.5z" />
    <glyph glyph-name="divide" unicode="&#xf7;" horiz-adv-x="591" 
d="M123 397h410l-17 -79h-410zM234.5 206q21.5 21 50.5 21q25 0 42 -17.5t17 -43.5q0 -27 -21 -48t-50 -21q-25 0 -42.5 17.5t-17.5 42.5q0 28 21.5 49zM318.5 601q21.5 21 50.5 21q25 0 42 -17.5t17 -43.5q0 -27 -21 -48t-50 -21q-25 0 -42.5 17.5t-17.5 42.5q0 28 21.5 49
z" />
    <glyph glyph-name="oslash" unicode="&#xf8;" horiz-adv-x="583" 
d="M189 4q-40 14 -70 40l-45 -44h-82l86 85q-47 64 -47 149q0 76 38 141.5t102 104.5t138 39q44 0 84 -14t71 -39l44 43h83l-86 -85q22 -31 34.5 -69t12.5 -79q0 -77 -38 -142.5t-102 -104.5t-138 -39q-45 0 -85 14zM148 154l249 245q-40 32 -92 32q-48 0 -89 -26t-65 -70
t-24 -96q0 -49 21 -85zM278 78q48 0 89 26.5t65 70.5t24 96q0 45 -21 84l-250 -245q42 -32 93 -32z" />
    <glyph glyph-name="ugrave" unicode="&#xf9;" horiz-adv-x="548" 
d="M80 36.5q-46 45.5 -46 118.5q0 21 5 49l65 305h98l-63 -295q-4 -17 -4 -36q0 -47 28.5 -74t77.5 -27q77 0 130 62l78 370h98l-109 -509h-97l10 45q-68 -54 -147 -54q-78 0 -124 45.5zM180 725h118l89 -122h-82z" />
    <glyph glyph-name="uacute" unicode="&#xfa;" horiz-adv-x="548" 
d="M80 36.5q-46 45.5 -46 118.5q0 21 5 49l65 305h98l-63 -295q-4 -17 -4 -36q0 -47 28.5 -74t77.5 -27q77 0 130 62l78 370h98l-109 -509h-97l10 45q-68 -54 -147 -54q-78 0 -124 45.5zM395 725h119l-151 -122h-85z" />
    <glyph glyph-name="ucircumflex" unicode="&#xfb;" horiz-adv-x="548" 
d="M80 36.5q-46 45.5 -46 118.5q0 21 5 49l65 305h98l-63 -295q-4 -17 -4 -36q0 -47 28.5 -74t77.5 -27q77 0 130 62l78 370h98l-109 -509h-97l10 45q-68 -54 -147 -54q-78 0 -124 45.5zM311 727h104l78 -127h-77l-61 77l-94 -77h-83z" />
    <glyph glyph-name="udieresis" unicode="&#xfc;" horiz-adv-x="548" 
d="M80 36.5q-46 45.5 -46 118.5q0 21 5 49l65 305h98l-63 -295q-4 -17 -4 -36q0 -47 28.5 -74t77.5 -27q77 0 130 62l78 370h98l-109 -509h-97l10 45q-68 -54 -147 -54q-78 0 -124 45.5zM210.5 617q-14.5 15 -14.5 37q0 26 19 45.5t45 19.5q21 0 36 -15t15 -37
q0 -25 -19.5 -45t-44.5 -20q-22 0 -36.5 15zM404 699.5q20 19.5 46 19.5q21 0 35 -15t14 -37q0 -26 -19.5 -45.5t-44.5 -19.5q-21 0 -36 15t-15 37q0 26 20 45.5z" />
    <glyph glyph-name="yacute" unicode="&#xfd;" horiz-adv-x="519" 
d="M-37.5 -205.5q-26.5 8.5 -44.5 22.5l38 80q23 -20 58 -20q28 0 49 13.5t40 43.5l43 67l-93 508h104l66 -394l244 394h108l-377 -599q-41 -65 -84.5 -94.5t-95.5 -29.5q-29 0 -55.5 8.5zM382 725h119l-151 -122h-85z" />
    <glyph glyph-name="thorn" unicode="&#xfe;" horiz-adv-x="586" 
d="M150 700l102 22l-52 -244q59 38 130 38q64 0 115.5 -30.5t81 -84t29.5 -119.5q0 -79 -38 -145.5t-102.5 -105.5t-141.5 -39q-49 0 -91 17t-73 49l-56 -265h-97zM188 98.5q38 -19.5 83 -19.5q52 0 95.5 26t68.5 70.5t25 97.5q0 68 -43 112.5t-110 44.5q-36 0 -69 -12
t-59 -35l-49 -232q20 -33 58 -52.5z" />
    <glyph glyph-name="ydieresis" unicode="&#xff;" horiz-adv-x="519" 
d="M-37.5 -205.5q-26.5 8.5 -44.5 22.5l38 80q23 -20 58 -20q28 0 49 13.5t40 43.5l43 67l-93 508h104l66 -394l244 394h108l-377 -599q-41 -65 -84.5 -94.5t-95.5 -29.5q-29 0 -55.5 8.5zM197.5 617q-14.5 15 -14.5 37q0 26 19 45.5t45 19.5q21 0 36 -15t15 -37
q0 -25 -19.5 -45t-44.5 -20q-22 0 -36.5 15zM391 699.5q20 19.5 46 19.5q21 0 35 -15t14 -37q0 -26 -19.5 -45.5t-44.5 -19.5q-21 0 -36 15t-15 37q0 26 20 45.5z" />
    <glyph glyph-name="Amacron" unicode="&#x100;" horiz-adv-x="679" 
d="M372 700h122l135 -700h-107l-37 205h-306l-123 -205h-113zM470 292l-56 306l-184 -306h240zM315 880h291l-15 -67h-291z" />
    <glyph glyph-name="amacron" unicode="&#x101;" horiz-adv-x="520" 
d="M54 29.5q-46 38.5 -46 102.5q0 143 231 162q92 7 150 31q2 14 2 20q0 39 -28.5 62.5t-76.5 23.5q-46 0 -81.5 -23.5t-55.5 -69.5l-94 23q33 78 92.5 118t140.5 40q60 0 106 -21t70.5 -58.5t24.5 -84.5q0 -21 -4 -38l-68 -317h-97l14 67q-29 -35 -73 -55.5t-93 -20.5
q-68 0 -114 38.5zM129 84q24 -19 67 -19q62 0 108 42.5t61 107.5l8 36q-52 -20 -136 -28q-70 -6 -101 -25.5t-31 -58.5q0 -36 24 -55zM195 689h291l-15 -67h-291z" />
    <glyph glyph-name="Abreve" unicode="&#x102;" horiz-adv-x="679" 
d="M372 700h122l135 -700h-107l-37 205h-306l-123 -205h-113zM470 292l-56 306l-184 -306h240zM353 822.5q-39 36.5 -40 97.5l63 13q1 -43 22.5 -65t59.5 -22q68 0 108 82l64 -20q-26 -59 -71.5 -90.5t-102.5 -31.5q-64 0 -103 36.5z" />
    <glyph glyph-name="abreve" unicode="&#x103;" horiz-adv-x="520" 
d="M54 29.5q-46 38.5 -46 102.5q0 143 231 162q92 7 150 31q2 14 2 20q0 39 -28.5 62.5t-76.5 23.5q-46 0 -81.5 -23.5t-55.5 -69.5l-94 23q33 78 92.5 118t140.5 40q60 0 106 -21t70.5 -58.5t24.5 -84.5q0 -21 -4 -38l-68 -317h-97l14 67q-29 -35 -73 -55.5t-93 -20.5
q-68 0 -114 38.5zM129 84q24 -19 67 -19q62 0 108 42.5t61 107.5l8 36q-52 -20 -136 -28q-70 -6 -101 -25.5t-31 -58.5q0 -36 24 -55zM233 631.5q-39 36.5 -40 97.5l63 13q1 -43 22.5 -65t59.5 -22q68 0 108 82l64 -20q-26 -59 -71.5 -90.5t-102.5 -31.5q-64 0 -103 36.5z
" />
    <glyph glyph-name="Aogonek" unicode="&#x104;" horiz-adv-x="679" 
d="M372 700h122l135 -700q-63 -33 -93 -63.5t-30 -62.5q0 -19 13 -29.5t34 -10.5q23 0 41 12l14 -47q-15 -10 -36.5 -15.5t-41.5 -5.5q-40 0 -64.5 20t-24.5 53q0 80 119 149h-38l-37 205h-306l-123 -205h-113zM470 292l-56 306l-184 -306h240z" />
    <glyph glyph-name="aogonek" unicode="&#x105;" horiz-adv-x="520" 
d="M54 29.5q-46 38.5 -46 102.5q0 143 231 162q92 7 150 31q2 14 2 20q0 39 -28.5 62.5t-76.5 23.5q-46 0 -81.5 -23.5t-55.5 -69.5l-94 23q33 78 92.5 118t140.5 40q60 0 106 -21t70.5 -58.5t24.5 -84.5q0 -21 -4 -38l-68 -316l1 -1q-63 -33 -93 -63.5t-30 -62.5
q0 -19 13 -29.5t34 -10.5q23 0 41 12l14 -47q-15 -10 -36.5 -15.5t-41.5 -5.5q-40 0 -64.5 20t-24.5 53q0 80 119 149h-29l14 67q-29 -35 -73 -55.5t-93 -20.5q-68 0 -114 38.5zM129 84q24 -19 67 -19q62 0 108 42.5t61 107.5l8 36q-52 -20 -136 -28q-70 -6 -101 -25.5
t-31 -58.5q0 -36 24 -55z" />
    <glyph glyph-name="Cacute" unicode="&#x106;" horiz-adv-x="752" 
d="M217 30.5q-76 40.5 -118.5 115.5t-42.5 175q0 110 50.5 199t139 140t197.5 51q82 0 148.5 -29t108.5 -82.5t53 -123.5l-103 -24q-14 77 -69.5 119.5t-141.5 42.5q-80 0 -143 -37.5t-98 -103.5t-35 -149q0 -72 29 -126t82 -83.5t122 -29.5q81 0 139 43t81 121l103 -24
q-29 -107 -117.5 -171t-209.5 -64q-99 0 -175 40.5zM529 916h119l-151 -122h-85z" />
    <glyph glyph-name="cacute" unicode="&#x107;" horiz-adv-x="550" 
d="M151.5 21.5q-56.5 30.5 -88.5 86t-32 126.5q0 80 37.5 145t102.5 102.5t143 37.5q81 0 140 -39.5t83 -114.5l-94 -27q-15 43 -51.5 68t-84.5 25q-49 0 -89.5 -25t-64 -69t-23.5 -98q0 -71 42 -115.5t110 -44.5q47 0 83 24.5t58 70.5l88 -31q-34 -75 -92.5 -113.5
t-138.5 -38.5q-72 0 -128.5 30.5zM417 725h119l-151 -122h-85z" />
    <glyph glyph-name="Ccircumflex" unicode="&#x108;" horiz-adv-x="752" 
d="M217 30.5q-76 40.5 -118.5 115.5t-42.5 175q0 110 50.5 199t139 140t197.5 51q82 0 148.5 -29t108.5 -82.5t53 -123.5l-103 -24q-14 77 -69.5 119.5t-141.5 42.5q-80 0 -143 -37.5t-98 -103.5t-35 -149q0 -72 29 -126t82 -83.5t122 -29.5q81 0 139 43t81 121l103 -24
q-29 -107 -117.5 -171t-209.5 -64q-99 0 -175 40.5zM445 918h104l78 -127h-77l-61 77l-94 -77h-83z" />
    <glyph glyph-name="ccircumflex" unicode="&#x109;" horiz-adv-x="550" 
d="M151.5 21.5q-56.5 30.5 -88.5 86t-32 126.5q0 80 37.5 145t102.5 102.5t143 37.5q81 0 140 -39.5t83 -114.5l-94 -27q-15 43 -51.5 68t-84.5 25q-49 0 -89.5 -25t-64 -69t-23.5 -98q0 -71 42 -115.5t110 -44.5q47 0 83 24.5t58 70.5l88 -31q-34 -75 -92.5 -113.5
t-138.5 -38.5q-72 0 -128.5 30.5zM333 727h104l78 -127h-77l-61 77l-94 -77h-83z" />
    <glyph glyph-name="Cdotaccent" unicode="&#x10a;" horiz-adv-x="752" 
d="M217 30.5q-76 40.5 -118.5 115.5t-42.5 175q0 110 50.5 199t139 140t197.5 51q82 0 148.5 -29t108.5 -82.5t53 -123.5l-103 -24q-14 77 -69.5 119.5t-141.5 42.5q-80 0 -143 -37.5t-98 -103.5t-35 -149q0 -72 29 -126t82 -83.5t122 -29.5q81 0 139 43t81 121l103 -24
q-29 -107 -117.5 -171t-209.5 -64q-99 0 -175 40.5zM437.5 798q-15.5 16 -15.5 39q0 27 20.5 47.5t47.5 20.5q23 0 38.5 -15.5t15.5 -38.5q0 -28 -20.5 -48.5t-47.5 -20.5q-23 0 -38.5 16z" />
    <glyph glyph-name="cdotaccent" unicode="&#x10b;" horiz-adv-x="550" 
d="M151.5 21.5q-56.5 30.5 -88.5 86t-32 126.5q0 80 37.5 145t102.5 102.5t143 37.5q81 0 140 -39.5t83 -114.5l-94 -27q-15 43 -51.5 68t-84.5 25q-49 0 -89.5 -25t-64 -69t-23.5 -98q0 -71 42 -115.5t110 -44.5q47 0 83 24.5t58 70.5l88 -31q-34 -75 -92.5 -113.5
t-138.5 -38.5q-72 0 -128.5 30.5zM325.5 607q-15.5 16 -15.5 39q0 27 20.5 47.5t47.5 20.5q23 0 38.5 -15.5t15.5 -38.5q0 -28 -20.5 -48.5t-47.5 -20.5q-23 0 -38.5 16z" />
    <glyph glyph-name="Ccaron" unicode="&#x10c;" horiz-adv-x="752" 
d="M217 30.5q-76 40.5 -118.5 115.5t-42.5 175q0 110 50.5 199t139 140t197.5 51q82 0 148.5 -29t108.5 -82.5t53 -123.5l-103 -24q-14 77 -69.5 119.5t-141.5 42.5q-80 0 -143 -37.5t-98 -103.5t-35 -149q0 -72 29 -126t82 -83.5t122 -29.5q81 0 139 43t81 121l103 -24
q-29 -107 -117.5 -171t-209.5 -64q-99 0 -175 40.5zM341 918h78l60 -76l93 76h84l-133 -126h-103z" />
    <glyph glyph-name="ccaron" unicode="&#x10d;" horiz-adv-x="550" 
d="M151.5 21.5q-56.5 30.5 -88.5 86t-32 126.5q0 80 37.5 145t102.5 102.5t143 37.5q81 0 140 -39.5t83 -114.5l-94 -27q-15 43 -51.5 68t-84.5 25q-49 0 -89.5 -25t-64 -69t-23.5 -98q0 -71 42 -115.5t110 -44.5q47 0 83 24.5t58 70.5l88 -31q-34 -75 -92.5 -113.5
t-138.5 -38.5q-72 0 -128.5 30.5zM229 727h78l60 -76l93 76h84l-133 -126h-103z" />
    <glyph glyph-name="Dcaron" unicode="&#x10e;" horiz-adv-x="705" 
d="M161 700h210q94 0 166.5 -39.5t113 -109.5t40.5 -161q0 -105 -55 -195t-148 -142.5t-203 -52.5h-273zM296 94q79 0 145 39t105 105.5t39 145.5q0 65 -28 115.5t-78.5 78.5t-116.5 28h-119l-109 -512h162zM332 918h78l60 -76l93 76h84l-133 -126h-103z" />
    <glyph glyph-name="dcaron" unicode="&#x10f;" horiz-adv-x="708" 
d="M141 22.5q-51 30.5 -80.5 84.5t-29.5 120q0 78 37.5 144.5t102.5 105.5t142 39q49 0 91 -16.5t73 -48.5l52 249l102 22l-153 -722h-97l6 31q-61 -39 -131 -39q-64 0 -115 30.5zM170 122.5q43 -44.5 110 -44.5q36 0 69 12.5t58 36.5l50 233q-20 32 -58 51t-83 19
q-52 0 -95 -26t-68.5 -71t-25.5 -98q0 -68 43 -112.5zM715 703l92 18l-76 -216h-67z" />
    <glyph glyph-name="Dcroat" unicode="&#x110;" horiz-adv-x="727" 
d="M99 307h-82l19 86h82l65 307h211q93 0 166 -39.5t113.5 -110t40.5 -160.5q0 -105 -55 -194.5t-148.5 -142.5t-203.5 -53h-273zM318 94q79 0 145.5 39t105 105.5t38.5 145.5q0 65 -28 115.5t-78.5 78.5t-115.5 28h-120l-45 -213h178l-17 -86h-180l-45 -213h162z" />
    <glyph glyph-name="dcroat" unicode="&#x111;" horiz-adv-x="586" 
d="M141 22.5q-51 30.5 -80.5 84.5t-29.5 120q0 78 37.5 144.5t102.5 105.5t142 39q49 0 91 -16.5t73 -48.5l28 132h-150l14 69h150l10 48l102 22l-15 -70h59l-15 -69h-59l-123 -583h-97l6 31q-61 -39 -131 -39q-64 0 -115 30.5zM170 122.5q43 -44.5 110 -44.5q36 0 69 12.5
t58 36.5l50 233q-20 32 -58 51t-83 19q-52 0 -95 -26t-68.5 -71t-25.5 -98q0 -68 43 -112.5z" />
    <glyph glyph-name="Emacron" unicode="&#x112;" horiz-adv-x="608" 
d="M161 700h506l-20 -92h-403l-45 -210h264l-19 -89h-264l-47 -217h408l-19 -92h-510zM295 880h291l-15 -67h-291z" />
    <glyph glyph-name="emacron" unicode="&#x113;" horiz-adv-x="563" 
d="M147 21q-55 31 -85 87t-30 129q0 77 35 142t96.5 102.5t137.5 37.5q67 0 119 -29.5t81 -82.5t29 -120q0 -20 -5 -55h-396q-1 -43 17.5 -79t52.5 -57t79 -21q49 0 87 24.5t59 66.5l82 -38q-35 -67 -94 -102.5t-137 -35.5q-73 0 -128 31zM438 302q-5 62 -42.5 97.5
t-97.5 35.5t-103.5 -36t-57.5 -97h301zM194 689h291l-15 -67h-291z" />
    <glyph glyph-name="Ebreve" unicode="&#x114;" horiz-adv-x="608" 
d="M161 700h506l-20 -92h-403l-45 -210h264l-19 -89h-264l-47 -217h408l-19 -92h-510zM333 822.5q-39 36.5 -40 97.5l63 13q1 -43 22.5 -65t59.5 -22q68 0 108 82l64 -20q-26 -59 -71.5 -90.5t-102.5 -31.5q-64 0 -103 36.5z" />
    <glyph glyph-name="ebreve" unicode="&#x115;" horiz-adv-x="563" 
d="M147 21q-55 31 -85 87t-30 129q0 77 35 142t96.5 102.5t137.5 37.5q67 0 119 -29.5t81 -82.5t29 -120q0 -20 -5 -55h-396q-1 -43 17.5 -79t52.5 -57t79 -21q49 0 87 24.5t59 66.5l82 -38q-35 -67 -94 -102.5t-137 -35.5q-73 0 -128 31zM438 302q-5 62 -42.5 97.5
t-97.5 35.5t-103.5 -36t-57.5 -97h301zM232 631.5q-39 36.5 -40 97.5l63 13q1 -43 22.5 -65t59.5 -22q68 0 108 82l64 -20q-26 -59 -71.5 -90.5t-102.5 -31.5q-64 0 -103 36.5z" />
    <glyph glyph-name="Edotaccent" unicode="&#x116;" horiz-adv-x="608" 
d="M161 700h506l-20 -92h-403l-45 -210h264l-19 -89h-264l-47 -217h408l-19 -92h-510zM393.5 798q-15.5 16 -15.5 39q0 27 20.5 47.5t47.5 20.5q23 0 38.5 -15.5t15.5 -38.5q0 -28 -20.5 -48.5t-47.5 -20.5q-23 0 -38.5 16z" />
    <glyph glyph-name="edotaccent" unicode="&#x117;" horiz-adv-x="563" 
d="M147 21q-55 31 -85 87t-30 129q0 77 35 142t96.5 102.5t137.5 37.5q67 0 119 -29.5t81 -82.5t29 -120q0 -20 -5 -55h-396q-1 -43 17.5 -79t52.5 -57t79 -21q49 0 87 24.5t59 66.5l82 -38q-35 -67 -94 -102.5t-137 -35.5q-73 0 -128 31zM438 302q-5 62 -42.5 97.5
t-97.5 35.5t-103.5 -36t-57.5 -97h301zM292.5 607q-15.5 16 -15.5 39q0 27 20.5 47.5t47.5 20.5q23 0 38.5 -15.5t15.5 -38.5q0 -28 -20.5 -48.5t-47.5 -20.5q-23 0 -38.5 16z" />
    <glyph glyph-name="Eogonek" unicode="&#x118;" horiz-adv-x="608" 
d="M161 700h506l-20 -92h-403l-45 -210h264l-19 -89h-264l-47 -217h408l-19 -92q-63 -33 -93 -63.5t-30 -62.5q0 -19 13 -29.5t34 -10.5q23 0 41 12l14 -47q-15 -10 -36.5 -15.5t-41.5 -5.5q-40 0 -64.5 20t-24.5 53q0 80 119 149h-441z" />
    <glyph glyph-name="eogonek" unicode="&#x119;" horiz-adv-x="563" 
d="M190.5 -202q-24.5 20 -24.5 53q0 75 103 139q-72 1 -125.5 32.5t-82.5 87t-29 127.5q0 77 35 142t96.5 102.5t137.5 37.5q67 0 119 -29.5t81 -82.5t29 -120q0 -20 -5 -55h-396q-1 -43 17.5 -79t52.5 -57t79 -21q49 0 87 24.5t59 66.5l82 -38q-52 -99 -152 -128
q-63 -33 -93 -63.5t-30 -62.5q0 -19 13 -29.5t34 -10.5q23 0 41 12l14 -47q-15 -10 -36.5 -15.5t-41.5 -5.5q-40 0 -64.5 20zM438 302q-5 62 -42.5 97.5t-97.5 35.5t-103.5 -36t-57.5 -97h301z" />
    <glyph glyph-name="Ecaron" unicode="&#x11a;" horiz-adv-x="608" 
d="M161 700h506l-20 -92h-403l-45 -210h264l-19 -89h-264l-47 -217h408l-19 -92h-510zM297 918h78l60 -76l93 76h84l-133 -126h-103z" />
    <glyph glyph-name="ecaron" unicode="&#x11b;" horiz-adv-x="563" 
d="M147 21q-55 31 -85 87t-30 129q0 77 35 142t96.5 102.5t137.5 37.5q67 0 119 -29.5t81 -82.5t29 -120q0 -20 -5 -55h-396q-1 -43 17.5 -79t52.5 -57t79 -21q49 0 87 24.5t59 66.5l82 -38q-35 -67 -94 -102.5t-137 -35.5q-73 0 -128 31zM438 302q-5 62 -42.5 97.5
t-97.5 35.5t-103.5 -36t-57.5 -97h301zM196 727h78l60 -76l93 76h84l-133 -126h-103z" />
    <glyph glyph-name="Gcircumflex" unicode="&#x11c;" horiz-adv-x="769" 
d="M215.5 32q-75.5 43 -118.5 118.5t-43 168.5q0 110 51.5 199.5t141 140.5t198.5 51q81 0 147.5 -28.5t109 -79t53.5 -114.5l-103 -24q-14 69 -70 109t-141 40q-81 0 -145.5 -37.5t-100.5 -103.5t-36 -149q0 -69 30.5 -123t84 -84.5t120.5 -30.5q94 0 159 54.5t83 145.5
h-231l18 92h335l-11 -63q-17 -98 -67.5 -171.5t-127 -113.5t-167.5 -40q-94 0 -169.5 43zM442 918h104l78 -127h-77l-61 77l-94 -77h-83z" />
    <glyph glyph-name="gcircumflex" unicode="&#x11d;" horiz-adv-x="588" 
d="M69.5 -179.5q-61.5 34.5 -86.5 98.5l99 32q40 -79 139 -79q67 0 106 30.5t51 86.5l9 44q-58 -36 -131 -36q-64 0 -115 30t-80 82.5t-29 118.5q0 78 37.5 145t102 106t141.5 39q48 0 90.5 -17t72.5 -49l12 57h97l-111 -531q-18 -91 -83 -141.5t-171 -50.5
q-89 0 -150.5 34.5zM170.5 125q42.5 -43 109.5 -43q75 0 127 46l49 232q-20 32 -58 51t-82 19q-52 0 -95 -26t-68 -70.5t-25 -97.5q0 -68 42.5 -111zM318 727h104l78 -127h-77l-61 77l-94 -77h-83z" />
    <glyph glyph-name="Gbreve" unicode="&#x11e;" horiz-adv-x="769" 
d="M215.5 32q-75.5 43 -118.5 118.5t-43 168.5q0 110 51.5 199.5t141 140.5t198.5 51q81 0 147.5 -28.5t109 -79t53.5 -114.5l-103 -24q-14 69 -70 109t-141 40q-81 0 -145.5 -37.5t-100.5 -103.5t-36 -149q0 -69 30.5 -123t84 -84.5t120.5 -30.5q94 0 159 54.5t83 145.5
h-231l18 92h335l-11 -63q-17 -98 -67.5 -171.5t-127 -113.5t-167.5 -40q-94 0 -169.5 43zM375 822.5q-39 36.5 -40 97.5l63 13q1 -43 22.5 -65t59.5 -22q68 0 108 82l64 -20q-26 -59 -71.5 -90.5t-102.5 -31.5q-64 0 -103 36.5z" />
    <glyph glyph-name="gbreve" unicode="&#x11f;" horiz-adv-x="588" 
d="M69.5 -179.5q-61.5 34.5 -86.5 98.5l99 32q40 -79 139 -79q67 0 106 30.5t51 86.5l9 44q-58 -36 -131 -36q-64 0 -115 30t-80 82.5t-29 118.5q0 78 37.5 145t102 106t141.5 39q48 0 90.5 -17t72.5 -49l12 57h97l-111 -531q-18 -91 -83 -141.5t-171 -50.5
q-89 0 -150.5 34.5zM170.5 125q42.5 -43 109.5 -43q75 0 127 46l49 232q-20 32 -58 51t-82 19q-52 0 -95 -26t-68 -70.5t-25 -97.5q0 -68 42.5 -111zM250 631.5q-39 36.5 -40 97.5l63 13q1 -43 22.5 -65t59.5 -22q68 0 108 82l64 -20q-26 -59 -71.5 -90.5t-102.5 -31.5
q-64 0 -103 36.5z" />
    <glyph glyph-name="Gdotaccent" unicode="&#x120;" horiz-adv-x="769" 
d="M215.5 32q-75.5 43 -118.5 118.5t-43 168.5q0 110 51.5 199.5t141 140.5t198.5 51q81 0 147.5 -28.5t109 -79t53.5 -114.5l-103 -24q-14 69 -70 109t-141 40q-81 0 -145.5 -37.5t-100.5 -103.5t-36 -149q0 -69 30.5 -123t84 -84.5t120.5 -30.5q94 0 159 54.5t83 145.5
h-231l18 92h335l-11 -63q-17 -98 -67.5 -171.5t-127 -113.5t-167.5 -40q-94 0 -169.5 43zM434.5 798q-15.5 16 -15.5 39q0 27 20.5 47.5t47.5 20.5q23 0 38.5 -15.5t15.5 -38.5q0 -28 -20.5 -48.5t-47.5 -20.5q-23 0 -38.5 16z" />
    <glyph glyph-name="gdotaccent" unicode="&#x121;" horiz-adv-x="588" 
d="M69.5 -179.5q-61.5 34.5 -86.5 98.5l99 32q40 -79 139 -79q67 0 106 30.5t51 86.5l9 44q-58 -36 -131 -36q-64 0 -115 30t-80 82.5t-29 118.5q0 78 37.5 145t102 106t141.5 39q48 0 90.5 -17t72.5 -49l12 57h97l-111 -531q-18 -91 -83 -141.5t-171 -50.5
q-89 0 -150.5 34.5zM170.5 125q42.5 -43 109.5 -43q75 0 127 46l49 232q-20 32 -58 51t-82 19q-52 0 -95 -26t-68 -70.5t-25 -97.5q0 -68 42.5 -111zM310.5 607q-15.5 16 -15.5 39q0 27 20.5 47.5t47.5 20.5q23 0 38.5 -15.5t15.5 -38.5q0 -28 -20.5 -48.5t-47.5 -20.5
q-23 0 -38.5 16z" />
    <glyph glyph-name="uni0122" unicode="&#x122;" horiz-adv-x="769" 
d="M215.5 32q-75.5 43 -118.5 118.5t-43 168.5q0 110 51.5 199.5t141 140.5t198.5 51q81 0 147.5 -28.5t109 -79t53.5 -114.5l-103 -24q-14 69 -70 109t-141 40q-81 0 -145.5 -37.5t-100.5 -103.5t-36 -149q0 -69 30.5 -123t84 -84.5t120.5 -30.5q94 0 159 54.5t83 145.5
h-231l18 92h335l-11 -63q-17 -98 -67.5 -171.5t-127 -113.5t-167.5 -40q-94 0 -169.5 43zM327 -84h96l-108 -189h-73z" />
    <glyph glyph-name="uni0123" unicode="&#x123;" horiz-adv-x="588" 
d="M69.5 -179.5q-61.5 34.5 -86.5 98.5l99 32q40 -79 139 -79q67 0 106 30.5t51 86.5l9 44q-58 -36 -131 -36q-64 0 -115 30t-80 82.5t-29 118.5q0 78 37.5 145t102 106t141.5 39q48 0 90.5 -17t72.5 -49l12 57h97l-111 -531q-18 -91 -83 -141.5t-171 -50.5
q-89 0 -150.5 34.5zM170.5 125q42.5 -43 109.5 -43q75 0 127 46l49 232q-20 32 -58 51t-82 19q-52 0 -95 -26t-68 -70.5t-25 -97.5q0 -68 42.5 -111zM403 782h73l-85 -189h-96z" />
    <glyph glyph-name="Hcircumflex" unicode="&#x124;" horiz-adv-x="702" 
d="M161 700h102l-64 -300h365l64 300h103l-149 -700h-103l65 305h-365l-65 -305h-102zM439 918h104l78 -127h-77l-61 77l-94 -77h-83z" />
    <glyph glyph-name="hcircumflex" unicode="&#x125;" horiz-adv-x="549" 
d="M150 700l102 22l-55 -258q65 54 147 54q77 0 123 -44.5t46 -117.5q0 -29 -5 -50l-65 -306h-97l62 295q4 17 4 37q0 47 -28 73.5t-77 26.5q-37 0 -70 -15.5t-59 -44.5l-79 -372h-98zM189 918h104l78 -127h-77l-61 77l-94 -77h-83z" />
    <glyph glyph-name="Hbar" unicode="&#x126;" horiz-adv-x="723" 
d="M130 510h-67l18 86h67l23 104h102l-22 -104h365l23 104h102l-22 -104h67l-18 -86h-68l-108 -510h-102l65 305h-366l-65 -305h-102zM575 400l23 110h-366l-23 -110h366z" />
    <glyph glyph-name="hbar" unicode="&#x127;" horiz-adv-x="548" 
d="M125 583h-61l14 69h62l10 48l102 22l-15 -70h148l-14 -69h-149l-25 -119q65 54 147 54q77 0 123 -44.5t46 -117.5q0 -29 -5 -50l-65 -306h-97l62 295q4 17 4 37q0 47 -28 73.5t-77 26.5q-37 0 -70 -15.5t-59 -44.5l-79 -372h-98z" />
    <glyph glyph-name="Itilde" unicode="&#x128;" horiz-adv-x="235" 
d="M161 700h102l-149 -700h-102zM108.5 886.5q26.5 24.5 60.5 24.5q21 0 40 -8.5t44 -24.5q20 -12 33.5 -18.5t25.5 -6.5q15 0 26 11.5t25 41.5l61 -20q-43 -101 -111 -101q-21 0 -40 8.5t-44 24.5q-20 12 -33.5 18.5t-26.5 6.5q-14 0 -25.5 -12t-23.5 -40l-61 20
q23 51 49.5 75.5z" />
    <glyph glyph-name="itilde" unicode="&#x129;" horiz-adv-x="207" 
d="M109 509h97l-107 -509h-98zM53.5 695.5q26.5 24.5 60.5 24.5q21 0 40 -8.5t44 -24.5q20 -12 33.5 -18.5t25.5 -6.5q15 0 26 11.5t25 41.5l61 -20q-43 -101 -111 -101q-21 0 -40 8.5t-44 24.5q-20 12 -33.5 18.5t-26.5 6.5q-14 0 -25.5 -12t-23.5 -40l-61 20
q23 51 49.5 75.5z" />
    <glyph glyph-name="Imacron" unicode="&#x12a;" horiz-adv-x="235" 
d="M161 700h102l-149 -700h-102zM100 880h291l-15 -67h-291z" />
    <glyph glyph-name="imacron" unicode="&#x12b;" horiz-adv-x="207" 
d="M109 509h97l-107 -509h-98zM45 689h291l-15 -67h-291z" />
    <glyph glyph-name="Ibreve" unicode="&#x12c;" horiz-adv-x="235" 
d="M161 700h102l-149 -700h-102zM138 822.5q-39 36.5 -40 97.5l63 13q1 -43 22.5 -65t59.5 -22q68 0 108 82l64 -20q-26 -59 -71.5 -90.5t-102.5 -31.5q-64 0 -103 36.5z" />
    <glyph glyph-name="ibreve" unicode="&#x12d;" horiz-adv-x="207" 
d="M109 509h97l-107 -509h-98zM83 631.5q-39 36.5 -40 97.5l63 13q1 -43 22.5 -65t59.5 -22q68 0 108 82l64 -20q-26 -59 -71.5 -90.5t-102.5 -31.5q-64 0 -103 36.5z" />
    <glyph glyph-name="Iogonek" unicode="&#x12e;" horiz-adv-x="235" 
d="M161 700h102l-149 -699l1 -1q-63 -33 -93 -63.5t-30 -62.5q0 -19 13 -29.5t34 -10.5q23 0 41 12l14 -47q-15 -10 -36.5 -15.5t-41.5 -5.5q-40 0 -64.5 20t-24.5 53q0 80 119 149h-34z" />
    <glyph glyph-name="iogonek" unicode="&#x12f;" horiz-adv-x="207" 
d="M109 509h97l-107 -509q-63 -33 -93 -63.5t-30 -62.5q0 -19 13 -29.5t34 -10.5q23 0 41 12l14 -47q-15 -10 -36.5 -15.5t-41.5 -5.5q-40 0 -64.5 20t-24.5 53q0 80 119 149h-29zM147.5 693.5q20.5 20.5 47.5 20.5q23 0 38.5 -15.5t15.5 -38.5q0 -28 -20.5 -48.5
t-47.5 -20.5q-23 0 -38.5 16t-15.5 39q0 27 20.5 47.5z" />
    <glyph glyph-name="Idotaccent" unicode="&#x130;" horiz-adv-x="235" 
d="M161 700h102l-149 -700h-102zM197.5 798q-15.5 16 -15.5 39q0 27 20.5 47.5t47.5 20.5q23 0 38.5 -15.5t15.5 -38.5q0 -28 -20.5 -48.5t-47.5 -20.5q-23 0 -38.5 16z" />
    <glyph glyph-name="dotlessi" unicode="&#x131;" horiz-adv-x="207" 
d="M109 509h97l-107 -509h-98z" />
    <glyph glyph-name="IJ" unicode="&#x132;" horiz-adv-x="830" 
d="M161 700h102l-149 -700h-102zM321.5 41q-63.5 51 -81.5 144l95 34q25 -134 147 -134q73 0 124.5 48.5t69.5 134.5l92 432h104l-96 -446q-27 -125 -104 -194.5t-189 -69.5q-98 0 -161.5 51z" />
    <glyph glyph-name="ij" unicode="&#x133;" horiz-adv-x="423" 
d="M109 509h97l-107 -509h-98zM147.5 693.5q20.5 20.5 47.5 20.5q23 0 38.5 -15.5t15.5 -38.5q0 -28 -20.5 -48.5t-47.5 -20.5q-22 0 -38 16t-16 39q0 27 20.5 47.5zM99.5 -204.5q-22.5 7.5 -38.5 20.5l33 76q21 -16 45 -16q27 0 41.5 15t22.5 49l121 569h98l-125 -584
q-15 -70 -55 -103.5t-94 -33.5q-26 0 -48.5 7.5zM363.5 693.5q20.5 20.5 46.5 20.5q23 0 38.5 -15.5t15.5 -38.5q0 -28 -20.5 -48.5t-46.5 -20.5q-23 0 -38.5 16t-15.5 39q0 27 20.5 47.5z" />
    <glyph glyph-name="Jcircumflex" unicode="&#x134;" horiz-adv-x="587" 
d="M78.5 41q-63.5 51 -81.5 144l95 34q25 -134 147 -134q73 0 124.5 48.5t69.5 134.5l92 432h104l-96 -446q-27 -125 -104 -194.5t-189 -69.5q-98 0 -161.5 51zM570 918h104l78 -127h-77l-61 77l-94 -77h-83z" />
    <glyph glyph-name="jcircumflex" unicode="&#x135;" horiz-adv-x="207" 
d="M-115.5 -204.5q-22.5 7.5 -38.5 20.5l33 76q21 -16 45 -16q27 0 41.5 15t22.5 49l121 569h98l-125 -584q-15 -70 -55 -103.5t-94 -33.5q-26 0 -48.5 7.5zM151 727h104l78 -127h-77l-61 77l-94 -77h-83z" />
    <glyph glyph-name="uni0136" unicode="&#x136;" horiz-adv-x="628" 
d="M161 700h102l-67 -314l395 314h138l-433 -340l288 -360h-132l-266 340l-72 -340h-102zM209 -84h96l-108 -189h-73z" />
    <glyph glyph-name="uni0137" unicode="&#x137;" horiz-adv-x="506" 
d="M150 700l102 22l-92 -434l281 221h126l-321 -250l222 -259h-120l-199 237l-50 -237h-98zM141 -84h96l-108 -189h-73z" />
    <glyph glyph-name="kgreenlandic" unicode="&#x138;" horiz-adv-x="506" 
d="M109 509h97l-47 -224l285 224h126l-324 -252l216 -257h-121l-193 234l-49 -234h-98z" />
    <glyph glyph-name="Lacute" unicode="&#x139;" horiz-adv-x="594" 
d="M161 700h102l-129 -607h395l-20 -93h-497zM289 916h119l-151 -122h-85z" />
    <glyph glyph-name="lacute" unicode="&#x13a;" horiz-adv-x="207" 
d="M150 700l102 22l-153 -722h-98zM275 916h119l-151 -122h-85z" />
    <glyph glyph-name="uni013B" unicode="&#x13b;" horiz-adv-x="594" 
d="M161 700h102l-129 -607h395l-20 -93h-497zM214 -84h96l-108 -189h-73z" />
    <glyph glyph-name="uni013C" unicode="&#x13c;" horiz-adv-x="207" 
d="M150 700l102 22l-153 -722h-98zM-17 -84h96l-108 -189h-73z" />
    <glyph glyph-name="Lcaron" unicode="&#x13d;" horiz-adv-x="594" 
d="M161 700h102l-129 -607h395l-20 -93h-497zM472 703l92 18l-76 -216h-67z" />
    <glyph glyph-name="lcaron" unicode="&#x13e;" horiz-adv-x="328" 
d="M150 700l102 22l-153 -722h-98zM336 703l92 18l-76 -216h-67z" />
    <glyph glyph-name="Ldot" unicode="&#x13f;" horiz-adv-x="594" 
d="M161 700h102l-129 -607h395l-20 -93h-497zM394.5 307q-15.5 16 -15.5 39q0 27 20.5 47.5t47.5 20.5q23 0 38.5 -15.5t15.5 -38.5q0 -28 -20.5 -48.5t-47.5 -20.5q-23 0 -38.5 16z" />
    <glyph glyph-name="ldot" unicode="&#x140;" horiz-adv-x="315" 
d="M150 700l102 22l-153 -722h-98zM239.5 301q-15.5 16 -15.5 39q0 27 20.5 47.5t47.5 20.5q23 0 38.5 -15.5t15.5 -38.5q0 -28 -20.5 -48.5t-47.5 -20.5q-23 0 -38.5 16z" />
    <glyph glyph-name="Lslash" unicode="&#x141;" horiz-adv-x="613" 
d="M77 221l-89 -56l20 96l90 56l82 383h102l-67 -313l219 136l-20 -95l-219 -137l-42 -198h394l-19 -93h-497z" />
    <glyph glyph-name="lslash" unicode="&#x142;" horiz-adv-x="247" 
d="M85 291l-82 -56l20 95l82 56l67 314l102 22l-56 -262l87 58l-21 -95l-86 -58l-77 -365h-98z" />
    <glyph glyph-name="Nacute" unicode="&#x143;" horiz-adv-x="712" 
d="M161 700h97l273 -531l113 531h96l-149 -700h-88l-279 546l-115 -546h-97zM528 916h119l-151 -122h-85z" />
    <glyph glyph-name="nacute" unicode="&#x144;" horiz-adv-x="549" 
d="M109 509h97l-9 -45q65 54 147 54q77 0 123 -44.5t46 -117.5q0 -29 -5 -50l-65 -306h-97l62 295q4 17 4 37q0 47 -28 73.5t-77 26.5q-76 0 -130 -60l-78 -372h-98zM405 725h119l-151 -122h-85z" />
    <glyph glyph-name="uni0145" unicode="&#x145;" horiz-adv-x="712" 
d="M161 700h97l273 -531l113 531h96l-149 -700h-88l-279 546l-115 -546h-97zM236 -84h96l-108 -189h-73z" />
    <glyph glyph-name="uni0146" unicode="&#x146;" horiz-adv-x="549" 
d="M109 509h97l-9 -45q65 54 147 54q77 0 123 -44.5t46 -117.5q0 -29 -5 -50l-65 -306h-97l62 295q4 17 4 37q0 47 -28 73.5t-77 26.5q-76 0 -130 -60l-78 -372h-98zM156 -84h96l-108 -189h-73z" />
    <glyph glyph-name="Ncaron" unicode="&#x147;" horiz-adv-x="712" 
d="M161 700h97l273 -531l113 531h96l-149 -700h-88l-279 546l-115 -546h-97zM340 918h78l60 -76l93 76h84l-133 -126h-103z" />
    <glyph glyph-name="ncaron" unicode="&#x148;" horiz-adv-x="549" 
d="M109 509h97l-9 -45q65 54 147 54q77 0 123 -44.5t46 -117.5q0 -29 -5 -50l-65 -306h-97l62 295q4 17 4 37q0 47 -28 73.5t-77 26.5q-76 0 -130 -60l-78 -372h-98zM217 727h78l60 -76l93 76h84l-133 -126h-103z" />
    <glyph glyph-name="Eng" unicode="&#x14a;" horiz-adv-x="712" 
d="M351 -199l18 79q24 -6 45 -6q28 0 43.5 14t22.5 45l17 79l-273 529l-115 -541h-97l149 700h98l273 -527l112 527h96l-166 -778q-13 -63 -54.5 -97t-103.5 -34q-38 0 -65 10z" />
    <glyph glyph-name="eng" unicode="&#x14b;" horiz-adv-x="548" 
d="M232.5 -207q-18.5 3 -29.5 7l17 79q20 -6 46 -6q27 0 42.5 14t22.5 45l77 364q4 17 4 36q0 47 -28 73.5t-77 26.5q-76 0 -130 -60l-78 -372h-98l108 509h97l-9 -45q65 54 147 54q77 0 123.5 -44.5t46.5 -117.5q0 -20 -5 -48l-83 -387q-14 -62 -55 -96.5t-104 -34.5
q-16 0 -34.5 3z" />
    <glyph glyph-name="Omacron" unicode="&#x14c;" horiz-adv-x="787" 
d="M218 32.5q-76 43.5 -119.5 119t-43.5 168.5q0 105 52 195t140 143t192 53q93 0 169 -43.5t119.5 -119t43.5 -168.5q0 -105 -52 -195t-140 -143t-192 -53q-93 0 -169 43.5zM189.5 203.5q30.5 -54.5 84 -86t120.5 -31.5q74 0 136.5 39t99.5 105t37 144q0 68 -30.5 122.5
t-84 86t-120.5 31.5q-74 0 -136.5 -39t-99.5 -105t-37 -144q0 -68 30.5 -122.5zM331 880h291l-15 -67h-291z" />
    <glyph glyph-name="omacron" unicode="&#x14d;" horiz-adv-x="584" 
d="M149.5 22q-55.5 32 -87 87.5t-31.5 124.5q0 76 38 141.5t102 104.5t138 39q69 0 124.5 -31.5t87 -87t31.5 -124.5q0 -77 -38 -142.5t-102 -104.5t-138 -39q-69 0 -124.5 32zM146.5 156.5q19.5 -36.5 54 -57.5t77.5 -21q48 0 89 26.5t65 70.5t24 96q0 45 -20 81.5
t-54.5 57.5t-76.5 21q-48 0 -89 -26t-65 -70t-24 -96q0 -46 19.5 -82.5zM203 689h291l-15 -67h-291z" />
    <glyph glyph-name="Obreve" unicode="&#x14e;" horiz-adv-x="787" 
d="M218 32.5q-76 43.5 -119.5 119t-43.5 168.5q0 105 52 195t140 143t192 53q93 0 169 -43.5t119.5 -119t43.5 -168.5q0 -105 -52 -195t-140 -143t-192 -53q-93 0 -169 43.5zM189.5 203.5q30.5 -54.5 84 -86t120.5 -31.5q74 0 136.5 39t99.5 105t37 144q0 68 -30.5 122.5
t-84 86t-120.5 31.5q-74 0 -136.5 -39t-99.5 -105t-37 -144q0 -68 30.5 -122.5zM369 822.5q-39 36.5 -40 97.5l63 13q1 -43 22.5 -65t59.5 -22q68 0 108 82l64 -20q-26 -59 -71.5 -90.5t-102.5 -31.5q-64 0 -103 36.5z" />
    <glyph glyph-name="obreve" unicode="&#x14f;" horiz-adv-x="584" 
d="M149.5 22q-55.5 32 -87 87.5t-31.5 124.5q0 76 38 141.5t102 104.5t138 39q69 0 124.5 -31.5t87 -87t31.5 -124.5q0 -77 -38 -142.5t-102 -104.5t-138 -39q-69 0 -124.5 32zM146.5 156.5q19.5 -36.5 54 -57.5t77.5 -21q48 0 89 26.5t65 70.5t24 96q0 45 -20 81.5
t-54.5 57.5t-76.5 21q-48 0 -89 -26t-65 -70t-24 -96q0 -46 19.5 -82.5zM241 631.5q-39 36.5 -40 97.5l63 13q1 -43 22.5 -65t59.5 -22q68 0 108 82l64 -20q-26 -59 -71.5 -90.5t-102.5 -31.5q-64 0 -103 36.5z" />
    <glyph glyph-name="Ohungarumlaut" unicode="&#x150;" horiz-adv-x="787" 
d="M218 32.5q-76 43.5 -119.5 119t-43.5 168.5q0 105 52 195t140 143t192 53q93 0 169 -43.5t119.5 -119t43.5 -168.5q0 -105 -52 -195t-140 -143t-192 -53q-93 0 -169 43.5zM189.5 203.5q30.5 -54.5 84 -86t120.5 -31.5q74 0 136.5 39t99.5 105t37 144q0 68 -30.5 122.5
t-84 86t-120.5 31.5q-74 0 -136.5 -39t-99.5 -105t-37 -144q0 -68 30.5 -122.5zM547 916l-152 -119h-80l127 119h105zM620 916h106l-156 -119h-76z" />
    <glyph glyph-name="ohungarumlaut" unicode="&#x151;" horiz-adv-x="584" 
d="M149.5 22q-55.5 32 -87 87.5t-31.5 124.5q0 76 38 141.5t102 104.5t138 39q69 0 124.5 -31.5t87 -87t31.5 -124.5q0 -77 -38 -142.5t-102 -104.5t-138 -39q-69 0 -124.5 32zM146.5 156.5q19.5 -36.5 54 -57.5t77.5 -21q48 0 89 26.5t65 70.5t24 96q0 45 -20 81.5
t-54.5 57.5t-76.5 21q-48 0 -89 -26t-65 -70t-24 -96q0 -46 19.5 -82.5zM419 725l-152 -119h-80l127 119h105zM492 725h106l-156 -119h-76z" />
    <glyph glyph-name="OE" unicode="&#x152;" horiz-adv-x="1070" 
d="M211.5 41q-73.5 41 -115 113.5t-41.5 162.5q0 102 52 190t140 140.5t190 52.5h694l-19 -92h-455q45 -37 71 -92t27 -118h187l-19 -89h-175q-14 -65 -49.5 -121.5t-87.5 -95.5h391l-19 -92h-608q-90 0 -163.5 41zM189 205.5q29 -51.5 79.5 -80.5t113.5 -29
q73 0 134.5 38.5t97.5 103t36 140.5q0 65 -28.5 116t-78.5 80t-113 29q-72 0 -134 -38.5t-99 -103t-37 -139.5q0 -65 29 -116.5z" />
    <glyph glyph-name="oe" unicode="&#x153;" horiz-adv-x="988" 
d="M367 104.5q41 26.5 65 70.5t24 96q0 45 -20 81.5t-54.5 57.5t-76.5 21q-48 0 -89 -26t-65 -70t-24 -96q0 -46 19.5 -82.5t54 -57.5t77.5 -21q48 0 89 26.5zM69 375.5q38 65.5 102 104.5t138 39q67 0 120 -31.5t82 -86.5q36 55 90.5 86.5t123.5 31.5q67 0 119 -29.5
t81 -82.5t29 -120q0 -20 -5 -55h-396q-1 -43 17.5 -79t52.5 -57t79 -21q49 0 87 24.5t59 66.5l82 -38q-35 -67 -93.5 -102.5t-137.5 -35.5q-71 0 -125 31.5t-82 88.5q-39 -55 -96.5 -87.5t-122.5 -32.5q-68 0 -123.5 32t-87 87.5t-31.5 124.5q0 76 38 141.5zM862 302
q-5 62 -42.5 97.5t-97.5 35.5t-103 -36t-57 -97h300z" />
    <glyph glyph-name="Racute" unicode="&#x154;" horiz-adv-x="638" 
d="M161 700h307q90 0 143.5 -43t53.5 -117q0 -76 -51.5 -136t-131.5 -79q35 -10 53.5 -37t18.5 -76q0 -19 -3 -43l-1 -15q-5 -37 -5 -61q0 -55 20 -93h-120q-11 27 -11 59q0 24 9 85l2 15q5 33 5 51q0 43 -20.5 60t-65.5 17h-187l-60 -287h-105zM396 374q46 0 82.5 18.5
t57 51t20.5 71.5q0 44 -30.5 69t-81.5 25h-198l-51 -235h201zM489 916h119l-151 -122h-85z" />
    <glyph glyph-name="racute" unicode="&#x155;" horiz-adv-x="440" 
d="M109 509h97l-9 -45q21 25 55 40t68 15q54 0 85 -41t33 -118l-92 -20q-6 92 -70 92q-28 0 -53.5 -15.5t-45.5 -44.5l-78 -372h-98zM340 724h119l-151 -122h-85z" />
    <glyph glyph-name="uni0156" unicode="&#x156;" horiz-adv-x="638" 
d="M161 700h307q90 0 143.5 -43t53.5 -117q0 -76 -51.5 -136t-131.5 -79q35 -10 53.5 -37t18.5 -76q0 -19 -3 -43l-1 -15q-5 -37 -5 -61q0 -55 20 -93h-120q-11 27 -11 59q0 24 9 85l2 15q5 33 5 51q0 43 -20.5 60t-65.5 17h-187l-60 -287h-105zM396 374q46 0 82.5 18.5
t57 51t20.5 71.5q0 44 -30.5 69t-81.5 25h-198l-51 -235h201zM201 -84h96l-108 -189h-73z" />
    <glyph glyph-name="uni0157" unicode="&#x157;" horiz-adv-x="440" 
d="M109 509h97l-9 -45q21 25 55 40t68 15q54 0 85 -41t33 -118l-92 -20q-6 92 -70 92q-28 0 -53.5 -15.5t-45.5 -44.5l-78 -372h-98zM-19 -84h96l-108 -189h-73z" />
    <glyph glyph-name="Rcaron" unicode="&#x158;" horiz-adv-x="638" 
d="M161 700h307q90 0 143.5 -43t53.5 -117q0 -76 -51.5 -136t-131.5 -79q35 -10 53.5 -37t18.5 -76q0 -19 -3 -43l-1 -15q-5 -37 -5 -61q0 -55 20 -93h-120q-11 27 -11 59q0 24 9 85l2 15q5 33 5 51q0 43 -20.5 60t-65.5 17h-187l-60 -287h-105zM396 374q46 0 82.5 18.5
t57 51t20.5 71.5q0 44 -30.5 69t-81.5 25h-198l-51 -235h201zM301 918h78l60 -76l93 76h84l-133 -126h-103z" />
    <glyph glyph-name="rcaron" unicode="&#x159;" horiz-adv-x="440" 
d="M109 509h97l-9 -45q21 25 55 40t68 15q54 0 85 -41t33 -118l-92 -20q-6 92 -70 92q-28 0 -53.5 -15.5t-45.5 -44.5l-78 -372h-98zM152 726h78l60 -76l93 76h84l-133 -126h-103z" />
    <glyph glyph-name="Sacute" unicode="&#x15a;" horiz-adv-x="595" 
d="M95 41.5q-77 52.5 -96 142.5l103 24q31 -128 188 -128q68 0 109.5 32t41.5 86q0 38 -26 62t-85 41l-89 25q-160 46 -160 176q0 62 32 109.5t88.5 73.5t127.5 26q105 0 175.5 -47t93.5 -133l-99 -24q-19 58 -61 86t-113 28q-58 0 -100 -30.5t-42 -79.5q0 -36 24 -59
t74 -37l87 -23q92 -26 135 -69t43 -114q0 -65 -33.5 -115t-93.5 -77.5t-137 -27.5q-110 0 -187 52.5zM409 916h119l-151 -122h-85z" />
    <glyph glyph-name="sacute" unicode="&#x15b;" horiz-adv-x="461" 
d="M66 29q-58 39 -74 111l91 16q13 -44 47.5 -66t83.5 -22q52 0 83.5 21.5t31.5 56.5q0 24 -17 38.5t-55 22.5l-88 21q-125 29 -125 132q0 70 54.5 113t144.5 43q81 0 133.5 -34.5t73.5 -104.5l-89 -17q-28 78 -123 78q-49 0 -76.5 -19t-27.5 -51q0 -24 16.5 -38.5
t55.5 -22.5l84 -19q67 -15 99.5 -47t32.5 -83q0 -48 -27 -86t-75 -60t-109 -22q-87 0 -145 39zM320 725h119l-151 -122h-85z" />
    <glyph glyph-name="Scircumflex" unicode="&#x15c;" horiz-adv-x="595" 
d="M95 41.5q-77 52.5 -96 142.5l103 24q31 -128 188 -128q68 0 109.5 32t41.5 86q0 38 -26 62t-85 41l-89 25q-160 46 -160 176q0 62 32 109.5t88.5 73.5t127.5 26q105 0 175.5 -47t93.5 -133l-99 -24q-19 58 -61 86t-113 28q-58 0 -100 -30.5t-42 -79.5q0 -36 24 -59
t74 -37l87 -23q92 -26 135 -69t43 -114q0 -65 -33.5 -115t-93.5 -77.5t-137 -27.5q-110 0 -187 52.5zM325 918h104l78 -127h-77l-61 77l-94 -77h-83z" />
    <glyph glyph-name="scircumflex" unicode="&#x15d;" horiz-adv-x="461" 
d="M66 29q-58 39 -74 111l91 16q13 -44 47.5 -66t83.5 -22q52 0 83.5 21.5t31.5 56.5q0 24 -17 38.5t-55 22.5l-88 21q-125 29 -125 132q0 70 54.5 113t144.5 43q81 0 133.5 -34.5t73.5 -104.5l-89 -17q-28 78 -123 78q-49 0 -76.5 -19t-27.5 -51q0 -24 16.5 -38.5
t55.5 -22.5l84 -19q67 -15 99.5 -47t32.5 -83q0 -48 -27 -86t-75 -60t-109 -22q-87 0 -145 39zM236 727h104l78 -127h-77l-61 77l-94 -77h-83z" />
    <glyph glyph-name="Scedilla" unicode="&#x15e;" horiz-adv-x="595" 
d="M154.5 -211.5q-29.5 19.5 -40.5 56.5l58 11q6 -18 21 -27.5t37 -9.5q26 0 41.5 13t15.5 35q0 19 -15 29.5t-41 10.5h-33l42 84q-94 10 -159 61t-82 132l103 24q31 -128 188 -128q68 0 109.5 32t41.5 86q0 38 -26 62t-85 41l-89 25q-160 46 -160 176q0 62 32 109.5
t88.5 73.5t127.5 26q105 0 175.5 -47t93.5 -133l-99 -24q-19 58 -61 86t-113 28q-58 0 -100 -30.5t-42 -79.5q0 -36 24 -59t74 -37l87 -23q92 -26 135 -69t43 -114q0 -64 -32 -113t-90 -77t-132 -30l-21 -41q36 -5 56.5 -25t20.5 -51q0 -47 -32 -75t-87 -28
q-45 0 -74.5 19.5z" />
    <glyph glyph-name="scedilla" unicode="&#x15f;" horiz-adv-x="461" 
d="M88.5 -211.5q-29.5 19.5 -40.5 56.5l58 11q6 -18 21 -27.5t37 -9.5q26 0 41.5 13t15.5 35q0 19 -15 29.5t-41 10.5h-33l42 85q-72 8 -119.5 46t-62.5 102l91 16q13 -44 47.5 -66t83.5 -22q52 0 83.5 21.5t31.5 56.5q0 24 -17 38.5t-55 22.5l-88 21q-125 29 -125 132
q0 70 54.5 113t144.5 43q81 0 133.5 -34.5t73.5 -104.5l-89 -17q-28 78 -123 78q-49 0 -76.5 -19t-27.5 -51q0 -24 16.5 -38.5t55.5 -22.5l84 -19q67 -15 99.5 -47t32.5 -83q0 -45 -25 -82.5t-69.5 -60t-101.5 -25.5l-21 -42q36 -5 56.5 -25t20.5 -51q0 -47 -32 -75t-87 -28
q-45 0 -74.5 19.5z" />
    <glyph glyph-name="Scaron" unicode="&#x160;" horiz-adv-x="595" 
d="M95 41.5q-77 52.5 -96 142.5l103 24q31 -128 188 -128q68 0 109.5 32t41.5 86q0 38 -26 62t-85 41l-89 25q-160 46 -160 176q0 62 32 109.5t88.5 73.5t127.5 26q105 0 175.5 -47t93.5 -133l-99 -24q-19 58 -61 86t-113 28q-58 0 -100 -30.5t-42 -79.5q0 -36 24 -59
t74 -37l87 -23q92 -26 135 -69t43 -114q0 -65 -33.5 -115t-93.5 -77.5t-137 -27.5q-110 0 -187 52.5zM221 918h78l60 -76l93 76h84l-133 -126h-103z" />
    <glyph glyph-name="scaron" unicode="&#x161;" horiz-adv-x="461" 
d="M66 29q-58 39 -74 111l91 16q13 -44 47.5 -66t83.5 -22q52 0 83.5 21.5t31.5 56.5q0 24 -17 38.5t-55 22.5l-88 21q-125 29 -125 132q0 70 54.5 113t144.5 43q81 0 133.5 -34.5t73.5 -104.5l-89 -17q-28 78 -123 78q-49 0 -76.5 -19t-27.5 -51q0 -24 16.5 -38.5
t55.5 -22.5l84 -19q67 -15 99.5 -47t32.5 -83q0 -48 -27 -86t-75 -60t-109 -22q-87 0 -145 39zM132 727h78l60 -76l93 76h84l-133 -126h-103z" />
    <glyph glyph-name="uni0162" unicode="&#x162;" horiz-adv-x="611" 
d="M329 607h-242l21 93h584l-20 -93h-241l-129 -607h-102zM135.5 -211.5q-29.5 19.5 -40.5 56.5l58 11q6 -18 21 -27.5t37 -9.5q26 0 41.5 13t15.5 35q0 19 -15 29.5t-41 10.5h-33l46 93h53l-26 -52q36 -5 56.5 -25t20.5 -51q0 -47 -32 -75t-87 -28q-45 0 -74.5 19.5z" />
    <glyph glyph-name="uni0163" unicode="&#x163;" horiz-adv-x="375" 
d="M78.5 -211.5q-29.5 19.5 -40.5 56.5l58 11q6 -18 21 -27.5t37 -9.5q26 0 41.5 13t15.5 35q0 19 -15 29.5t-41 10.5h-33l45 91q-39 12 -61 42.5t-22 76.5q0 21 4 41l57 267h-107l19 84h105l28 130l104 24l-33 -154h147l-18 -84h-147l-58 -274q-3 -12 -3 -23
q0 -24 13 -35.5t34 -11.5q16 0 29.5 4.5t27.5 15.5l32 -72q-45 -36 -101 -37l-22 -44q36 -5 56.5 -25t20.5 -51q0 -47 -32 -75t-87 -28q-45 0 -74.5 19.5z" />
    <glyph glyph-name="Tcaron" unicode="&#x164;" horiz-adv-x="611" 
d="M329 607h-242l21 93h584l-20 -93h-241l-129 -607h-102zM289 918h78l60 -76l93 76h84l-133 -126h-103z" />
    <glyph glyph-name="tcaron" unicode="&#x165;" horiz-adv-x="377" 
d="M404 775l93 18l-73 -208h-67zM57 509h105l28 130l104 24l-33 -154h147l-18 -84h-147l-58 -274q-3 -12 -3 -23q0 -24 13 -35.5t34 -11.5q16 0 29.5 4.5t27.5 15.5l32 -72q-46 -37 -105 -37q-58 0 -93.5 33.5t-35.5 91.5q0 22 4 41l57 267h-107z" />
    <glyph glyph-name="Tbar" unicode="&#x166;" horiz-adv-x="611" 
d="M262 295h-143l19 86h143l48 226h-242l21 93h584l-20 -93h-241l-48 -226h144l-18 -86h-144l-63 -295h-102z" />
    <glyph glyph-name="tbar" unicode="&#x167;" horiz-adv-x="381" 
d="M360 249h-154l-21 -98q-3 -12 -3 -23q0 -24 13 -35.5t34 -11.5q16 0 29.5 4.5t27.5 15.5l32 -72q-46 -37 -105 -37q-58 0 -93.5 33.5t-35.5 91.5q0 22 4 41l19 91h-95l16 75h95l22 101h-107l19 84h105l28 130l104 24l-33 -154h147l-18 -84h-147l-21 -101h154z" />
    <glyph glyph-name="Utilde" unicode="&#x168;" horiz-adv-x="690" 
d="M179.5 20q-59.5 30 -91 85.5t-31.5 128.5q0 37 9 79l82 387h103l-84 -395q-6 -30 -6 -57q0 -74 44 -118t119 -44q81 0 139 55t78 151l87 408h103l-89 -415q-31 -142 -115 -218.5t-208 -76.5q-80 0 -139.5 30zM331.5 886.5q26.5 24.5 60.5 24.5q21 0 40 -8.5t44 -24.5
q20 -12 33.5 -18.5t25.5 -6.5q15 0 26 11.5t25 41.5l61 -20q-43 -101 -111 -101q-21 0 -40 8.5t-44 24.5q-20 12 -33.5 18.5t-26.5 6.5q-14 0 -25.5 -12t-23.5 -40l-61 20q23 51 49.5 75.5z" />
    <glyph glyph-name="utilde" unicode="&#x169;" horiz-adv-x="548" 
d="M80 36.5q-46 45.5 -46 118.5q0 21 5 49l65 305h98l-63 -295q-4 -17 -4 -36q0 -47 28.5 -74t77.5 -27q77 0 130 62l78 370h98l-109 -509h-97l10 45q-68 -54 -147 -54q-78 0 -124 45.5zM213.5 695.5q26.5 24.5 60.5 24.5q21 0 40 -8.5t44 -24.5q20 -12 33.5 -18.5
t25.5 -6.5q15 0 26 11.5t25 41.5l61 -20q-43 -101 -111 -101q-21 0 -40 8.5t-44 24.5q-20 12 -33.5 18.5t-26.5 6.5q-14 0 -25.5 -12t-23.5 -40l-61 20q23 51 49.5 75.5z" />
    <glyph glyph-name="Umacron" unicode="&#x16a;" horiz-adv-x="690" 
d="M179.5 20q-59.5 30 -91 85.5t-31.5 128.5q0 37 9 79l82 387h103l-84 -395q-6 -30 -6 -57q0 -74 44 -118t119 -44q81 0 139 55t78 151l87 408h103l-89 -415q-31 -142 -115 -218.5t-208 -76.5q-80 0 -139.5 30zM323 880h291l-15 -67h-291z" />
    <glyph glyph-name="umacron" unicode="&#x16b;" horiz-adv-x="548" 
d="M80 36.5q-46 45.5 -46 118.5q0 21 5 49l65 305h98l-63 -295q-4 -17 -4 -36q0 -47 28.5 -74t77.5 -27q77 0 130 62l78 370h98l-109 -509h-97l10 45q-68 -54 -147 -54q-78 0 -124 45.5zM205 689h291l-15 -67h-291z" />
    <glyph glyph-name="Ubreve" unicode="&#x16c;" horiz-adv-x="690" 
d="M179.5 20q-59.5 30 -91 85.5t-31.5 128.5q0 37 9 79l82 387h103l-84 -395q-6 -30 -6 -57q0 -74 44 -118t119 -44q81 0 139 55t78 151l87 408h103l-89 -415q-31 -142 -115 -218.5t-208 -76.5q-80 0 -139.5 30zM361 822.5q-39 36.5 -40 97.5l63 13q1 -43 22.5 -65t59.5 -22
q68 0 108 82l64 -20q-26 -59 -71.5 -90.5t-102.5 -31.5q-64 0 -103 36.5z" />
    <glyph glyph-name="ubreve" unicode="&#x16d;" horiz-adv-x="548" 
d="M80 36.5q-46 45.5 -46 118.5q0 21 5 49l65 305h98l-63 -295q-4 -17 -4 -36q0 -47 28.5 -74t77.5 -27q77 0 130 62l78 370h98l-109 -509h-97l10 45q-68 -54 -147 -54q-78 0 -124 45.5zM243 631.5q-39 36.5 -40 97.5l63 13q1 -43 22.5 -65t59.5 -22q68 0 108 82l64 -20
q-26 -59 -71.5 -90.5t-102.5 -31.5q-64 0 -103 36.5z" />
    <glyph glyph-name="Uring" unicode="&#x16e;" horiz-adv-x="690" 
d="M179.5 20q-59.5 30 -91 85.5t-31.5 128.5q0 37 9 79l82 387h103l-84 -395q-6 -30 -6 -57q0 -74 44 -118t119 -44q81 0 139 55t78 151l87 408h103l-89 -415q-31 -142 -115 -218.5t-208 -76.5q-80 0 -139.5 30zM388.5 803q-29.5 29 -29.5 73q0 33 17 62.5t46 47.5t61 18
q46 0 75.5 -29t29.5 -73q0 -33 -17 -62.5t-46 -47.5t-61 -18q-46 0 -75.5 29zM424.5 838.5q16.5 -16.5 40.5 -16.5q30 0 51.5 22t21.5 53q0 26 -16 42.5t-41 16.5q-29 0 -51 -22.5t-22 -53.5q0 -25 16.5 -41.5z" />
    <glyph glyph-name="uring" unicode="&#x16f;" horiz-adv-x="548" 
d="M80 36.5q-46 45.5 -46 118.5q0 21 5 49l65 305h98l-63 -295q-4 -17 -4 -36q0 -47 28.5 -74t77.5 -27q77 0 130 62l78 370h98l-109 -509h-97l10 45q-68 -54 -147 -54q-78 0 -124 45.5zM270.5 612q-29.5 29 -29.5 73q0 33 17 62.5t46 47.5t61 18q46 0 75.5 -29t29.5 -73
q0 -33 -17 -62.5t-46 -47.5t-61 -18q-46 0 -75.5 29zM306.5 647.5q16.5 -16.5 40.5 -16.5q30 0 51.5 22t21.5 53q0 26 -16 42.5t-41 16.5q-29 0 -51 -22.5t-22 -53.5q0 -25 16.5 -41.5z" />
    <glyph glyph-name="Uhungarumlaut" unicode="&#x170;" horiz-adv-x="690" 
d="M179.5 20q-59.5 30 -91 85.5t-31.5 128.5q0 37 9 79l82 387h103l-84 -395q-6 -30 -6 -57q0 -74 44 -118t119 -44q81 0 139 55t78 151l87 408h103l-89 -415q-31 -142 -115 -218.5t-208 -76.5q-80 0 -139.5 30zM539 916l-152 -119h-80l127 119h105zM612 916h106l-156 -119
h-76z" />
    <glyph glyph-name="uhungarumlaut" unicode="&#x171;" horiz-adv-x="548" 
d="M80 36.5q-46 45.5 -46 118.5q0 21 5 49l65 305h98l-63 -295q-4 -17 -4 -36q0 -47 28.5 -74t77.5 -27q77 0 130 62l78 370h98l-109 -509h-97l10 45q-68 -54 -147 -54q-78 0 -124 45.5zM421 725l-152 -119h-80l127 119h105zM494 725h106l-156 -119h-76z" />
    <glyph glyph-name="Uogonek" unicode="&#x172;" horiz-adv-x="690" 
d="M179.5 20q-59.5 30 -91 85.5t-31.5 128.5q0 37 9 79l82 387h103l-84 -395q-6 -30 -6 -57q0 -74 44 -118t119 -44q81 0 139 55t78 151l87 408h103l-89 -415q-25 -116 -86.5 -189t-151.5 -96q-63 -33 -93 -63.5t-30 -62.5q0 -19 13 -29.5t34 -10.5q23 0 41 12l14 -47
q-15 -10 -36.5 -15.5t-41.5 -5.5q-40 0 -64.5 20t-24.5 53q0 75 103 139q-80 0 -139.5 30z" />
    <glyph glyph-name="uogonek" unicode="&#x173;" horiz-adv-x="548" 
d="M80 36.5q-46 45.5 -46 118.5q0 21 5 49l65 305h98l-63 -295q-4 -17 -4 -36q0 -47 28.5 -74t77.5 -27q77 0 130 62l78 370h98l-109 -508l1 -1q-63 -33 -93 -63.5t-30 -62.5q0 -19 13 -29.5t34 -10.5q23 0 41 12l14 -47q-15 -10 -36.5 -15.5t-41.5 -5.5q-40 0 -64.5 20
t-24.5 53q0 80 119 149h-29l10 45q-68 -54 -147 -54q-78 0 -124 45.5z" />
    <glyph glyph-name="Wcircumflex" unicode="&#x174;" horiz-adv-x="882" 
d="M121 700h102l-6 -533l268 533h98l42 -533l220 533h105l-298 -700h-107l-41 550l-276 -550h-106zM526 918h104l78 -127h-77l-61 77l-94 -77h-83z" />
    <glyph glyph-name="wcircumflex" unicode="&#x175;" horiz-adv-x="709" 
d="M62 509h92l18 -374l193 374h84l34 -374l177 374h94l-246 -509h-95l-33 373l-192 -373h-94zM400 727h104l78 -127h-77l-61 77l-94 -77h-83z" />
    <glyph glyph-name="Ycircumflex" unicode="&#x176;" horiz-adv-x="645" 
d="M275 279l-185 421h109l143 -329l280 329h123l-367 -424l-59 -276h-103zM404 918h104l78 -127h-77l-61 77l-94 -77h-83z" />
    <glyph glyph-name="ycircumflex" unicode="&#x177;" horiz-adv-x="519" 
d="M-37.5 -205.5q-26.5 8.5 -44.5 22.5l38 80q23 -20 58 -20q28 0 49 13.5t40 43.5l43 67l-93 508h104l66 -394l244 394h108l-377 -599q-41 -65 -84.5 -94.5t-95.5 -29.5q-29 0 -55.5 8.5zM297 727h104l78 -127h-77l-61 77l-94 -77h-83z" />
    <glyph glyph-name="Ydieresis" unicode="&#x178;" horiz-adv-x="645" 
d="M275 279l-185 421h109l143 -329l280 329h123l-367 -424l-59 -276h-103zM303.5 808q-14.5 15 -14.5 37q0 26 19 45.5t45 19.5q21 0 36 -15t15 -37q0 -25 -19.5 -45t-44.5 -20q-22 0 -36.5 15zM497 890.5q20 19.5 46 19.5q21 0 35 -15t14 -37q0 -26 -19.5 -45.5
t-44.5 -19.5q-21 0 -36 15t-15 37q0 26 20 45.5z" />
    <glyph glyph-name="Zacute" unicode="&#x179;" horiz-adv-x="589" 
d="M-20 73l518 535h-401l19 92h544l-17 -73l-519 -535h413l-20 -92h-553zM445 916h119l-151 -122h-85z" />
    <glyph glyph-name="zacute" unicode="&#x17a;" horiz-adv-x="460" 
d="M-14 74l346 349h-269l18 86h400l-15 -73l-348 -350h278l-19 -86h-406zM348 725h119l-151 -122h-85z" />
    <glyph glyph-name="Zdotaccent" unicode="&#x17b;" horiz-adv-x="589" 
d="M-20 73l518 535h-401l19 92h544l-17 -73l-519 -535h413l-20 -92h-553zM353.5 798q-15.5 16 -15.5 39q0 27 20.5 47.5t47.5 20.5q23 0 38.5 -15.5t15.5 -38.5q0 -28 -20.5 -48.5t-47.5 -20.5q-23 0 -38.5 16z" />
    <glyph glyph-name="zdotaccent" unicode="&#x17c;" horiz-adv-x="460" 
d="M-14 74l346 349h-269l18 86h400l-15 -73l-348 -350h278l-19 -86h-406zM256.5 607q-15.5 16 -15.5 39q0 27 20.5 47.5t47.5 20.5q23 0 38.5 -15.5t15.5 -38.5q0 -28 -20.5 -48.5t-47.5 -20.5q-23 0 -38.5 16z" />
    <glyph glyph-name="Zcaron" unicode="&#x17d;" horiz-adv-x="589" 
d="M-20 73l518 535h-401l19 92h544l-17 -73l-519 -535h413l-20 -92h-553zM257 918h78l60 -76l93 76h84l-133 -126h-103z" />
    <glyph glyph-name="zcaron" unicode="&#x17e;" horiz-adv-x="460" 
d="M-14 74l346 349h-269l18 86h400l-15 -73l-348 -350h278l-19 -86h-406zM160 727h78l60 -76l93 76h84l-133 -126h-103z" />
    <glyph glyph-name="uni0218" unicode="&#x218;" horiz-adv-x="595" 
d="M95 41.5q-77 52.5 -96 142.5l103 24q31 -128 188 -128q68 0 109.5 32t41.5 86q0 38 -26 62t-85 41l-89 25q-160 46 -160 176q0 62 32 109.5t88.5 73.5t127.5 26q105 0 175.5 -47t93.5 -133l-99 -24q-19 58 -61 86t-113 28q-58 0 -100 -30.5t-42 -79.5q0 -36 24 -59
t74 -37l87 -23q92 -26 135 -69t43 -114q0 -65 -33.5 -115t-93.5 -77.5t-137 -27.5q-110 0 -187 52.5zM204 -84h96l-108 -189h-73z" />
    <glyph glyph-name="uni0219" unicode="&#x219;" horiz-adv-x="461" 
d="M66 29q-58 39 -74 111l91 16q13 -44 47.5 -66t83.5 -22q52 0 83.5 21.5t31.5 56.5q0 24 -17 38.5t-55 22.5l-88 21q-125 29 -125 132q0 70 54.5 113t144.5 43q81 0 133.5 -34.5t73.5 -104.5l-89 -17q-28 78 -123 78q-49 0 -76.5 -19t-27.5 -51q0 -24 16.5 -38.5
t55.5 -22.5l84 -19q67 -15 99.5 -47t32.5 -83q0 -48 -27 -86t-75 -60t-109 -22q-87 0 -145 39zM137 -84h96l-108 -189h-73z" />
    <glyph glyph-name="uni021A" unicode="&#x21a;" horiz-adv-x="611" 
d="M329 607h-242l21 93h584l-20 -93h-241l-129 -607h-102zM185 -84h96l-108 -189h-73z" />
    <glyph glyph-name="uni021B" unicode="&#x21b;" horiz-adv-x="375" 
d="M119.5 25.5q-35.5 33.5 -35.5 91.5q0 22 4 41l57 267h-107l19 84h105l28 130l104 24l-33 -154h147l-18 -84h-147l-58 -274q-3 -12 -3 -23q0 -24 13 -35.5t34 -11.5q16 0 29.5 4.5t27.5 15.5l32 -72q-46 -37 -105 -37q-58 0 -93.5 33.5zM128 -84h96l-108 -189h-73z" />
    <glyph glyph-name="uni0237" unicode="&#x237;" horiz-adv-x="207" 
d="M-115.5 -204.5q-22.5 7.5 -38.5 20.5l33 76q21 -16 45 -16q27 0 41.5 15t22.5 49l121 569h98l-125 -584q-15 -70 -55 -103.5t-94 -33.5q-26 0 -48.5 7.5z" />
    <glyph glyph-name="uni02BB" unicode="&#x2bb;" horiz-adv-x="233" 
d="M189 577h53l-24 -115h-115l18 86q11 56 38.5 95.5t82.5 67.5l33 -44q-68 -34 -86 -90z" />
    <glyph glyph-name="uni02BC" unicode="&#x2bc;" horiz-adv-x="233" 
d="M188 611h-54l24 115h116l-18 -86q-11 -55 -38.5 -95t-82.5 -68l-33 44q68 34 86 90z" />
    <glyph glyph-name="circumflex" unicode="&#x2c6;" 
d="M346 727h104l78 -127h-77l-61 77l-94 -77h-83z" />
    <glyph glyph-name="caron" unicode="&#x2c7;" 
d="M242 727h78l60 -76l93 76h84l-133 -126h-103z" />
    <glyph glyph-name="breve" unicode="&#x2d8;" 
d="M278 631.5q-39 36.5 -40 97.5l63 13q1 -43 22.5 -65t59.5 -22q68 0 108 82l64 -20q-26 -59 -71.5 -90.5t-102.5 -31.5q-64 0 -103 36.5z" />
    <glyph glyph-name="dotaccent" unicode="&#x2d9;" 
d="M142.5 607q-15.5 16 -15.5 39q0 27 20.5 47.5t47.5 20.5q23 0 38.5 -15.5t15.5 -38.5q0 -28 -20.5 -48.5t-47.5 -20.5q-23 0 -38.5 16z" />
    <glyph glyph-name="ring" unicode="&#x2da;" 
d="M304.5 612q-29.5 29 -29.5 73q0 33 17 62.5t46 47.5t61 18q46 0 75.5 -29t29.5 -73q0 -33 -17 -62.5t-46 -47.5t-61 -18q-46 0 -75.5 29zM340.5 647.5q16.5 -16.5 40.5 -16.5q30 0 51.5 22t21.5 53q0 26 -16 42.5t-41 16.5q-29 0 -51 -22.5t-22 -53.5q0 -25 16.5 -41.5z
" />
    <glyph glyph-name="tilde" unicode="&#x2dc;" 
d="M248.5 695.5q26.5 24.5 60.5 24.5q21 0 40 -8.5t44 -24.5q20 -12 33.5 -18.5t25.5 -6.5q15 0 26 11.5t25 41.5l61 -20q-43 -101 -111 -101q-21 0 -40 8.5t-44 24.5q-20 12 -33.5 18.5t-26.5 6.5q-14 0 -25.5 -12t-23.5 -40l-61 20q23 51 49.5 75.5z" />
    <glyph glyph-name="hungarumlaut" unicode="&#x2dd;" 
d="M455 725l-152 -119h-80l127 119h105zM528 725h106l-156 -119h-76z" />
    <glyph glyph-name="gravecomb" unicode="&#x300;" horiz-adv-x="0" 
d="M215 725h118l89 -122h-82z" />
    <glyph glyph-name="acutecomb" unicode="&#x301;" horiz-adv-x="0" 
d="M430 725h119l-151 -122h-85z" />
    <glyph glyph-name="uni0302" unicode="&#x302;" horiz-adv-x="0" 
d="M346 727h104l78 -127h-77l-61 77l-94 -77h-83z" />
    <glyph glyph-name="tildecomb" unicode="&#x303;" horiz-adv-x="0" 
d="M248.5 695.5q26.5 24.5 60.5 24.5q21 0 40 -8.5t44 -24.5q20 -12 33.5 -18.5t25.5 -6.5q15 0 26 11.5t25 41.5l61 -20q-43 -101 -111 -101q-21 0 -40 8.5t-44 24.5q-20 12 -33.5 18.5t-26.5 6.5q-14 0 -25.5 -12t-23.5 -40l-61 20q23 51 49.5 75.5z" />
    <glyph glyph-name="uni0304" unicode="&#x304;" horiz-adv-x="0" 
d="M240 689h291l-15 -67h-291z" />
    <glyph glyph-name="uni0306" unicode="&#x306;" horiz-adv-x="0" 
d="M278 631.5q-39 36.5 -40 97.5l63 13q1 -43 22.5 -65t59.5 -22q68 0 108 82l64 -20q-26 -59 -71.5 -90.5t-102.5 -31.5q-64 0 -103 36.5z" />
    <glyph glyph-name="uni0307" unicode="&#x307;" horiz-adv-x="0" 
d="M142.5 607q-15.5 16 -15.5 39q0 27 20.5 47.5t47.5 20.5q23 0 38.5 -15.5t15.5 -38.5q0 -28 -20.5 -48.5t-47.5 -20.5q-23 0 -38.5 16z" />
    <glyph glyph-name="uni0308" unicode="&#x308;" horiz-adv-x="0" 
d="M245.5 617q-14.5 15 -14.5 37q0 26 19 45.5t45 19.5q21 0 36 -15t15 -37q0 -25 -19.5 -45t-44.5 -20q-22 0 -36.5 15zM439 699.5q20 19.5 46 19.5q21 0 35 -15t14 -37q0 -26 -19.5 -45.5t-44.5 -19.5q-21 0 -36 15t-15 37q0 26 20 45.5z" />
    <glyph glyph-name="uni030A" unicode="&#x30a;" horiz-adv-x="0" 
d="M304.5 612q-29.5 29 -29.5 73q0 33 17 62.5t46 47.5t61 18q46 0 75.5 -29t29.5 -73q0 -33 -17 -62.5t-46 -47.5t-61 -18q-46 0 -75.5 29zM340.5 647.5q16.5 -16.5 40.5 -16.5q30 0 51.5 22t21.5 53q0 26 -16 42.5t-41 16.5q-29 0 -51 -22.5t-22 -53.5q0 -25 16.5 -41.5z
" />
    <glyph glyph-name="uni030B" unicode="&#x30b;" horiz-adv-x="0" 
d="M455 725l-152 -119h-80l127 119h105zM528 725h106l-156 -119h-76z" />
    <glyph glyph-name="uni030C" unicode="&#x30c;" horiz-adv-x="0" 
d="M242 727h78l60 -76l93 76h84l-133 -126h-103z" />
    <glyph glyph-name="uni0326" unicode="&#x326;" horiz-adv-x="0" 
d="M183 -84h96l-108 -189h-73z" />
    <glyph glyph-name="uni0327" unicode="&#x327;" horiz-adv-x="0" 
d="M129.5 -211.5q-29.5 19.5 -40.5 56.5l58 11q6 -18 21 -27.5t37 -9.5q26 0 41.5 13t15.5 35q0 19 -15 29.5t-41 10.5h-33l46 93h53l-26 -52q36 -5 56.5 -25t20.5 -51q0 -47 -32 -75t-87 -28q-45 0 -74.5 19.5z" />
    <glyph glyph-name="uni0328" unicode="&#x328;" horiz-adv-x="0" 
d="M130.5 -202q-24.5 20 -24.5 53q0 91 155 168l33 -19q-63 -33 -93 -63.5t-30 -62.5q0 -19 13 -29.5t34 -10.5q23 0 41 12l14 -47q-15 -10 -36.5 -15.5t-41.5 -5.5q-40 0 -64.5 20z" />
    <glyph glyph-name="Wgrave" unicode="&#x1e80;" horiz-adv-x="882" 
d="M121 700h102l-6 -533l268 533h98l42 -533l220 533h105l-298 -700h-107l-41 550l-276 -550h-106zM395 916h118l89 -122h-82z" />
    <glyph glyph-name="wgrave" unicode="&#x1e81;" horiz-adv-x="709" 
d="M62 509h92l18 -374l193 374h84l34 -374l177 374h94l-246 -509h-95l-33 373l-192 -373h-94zM269 725h118l89 -122h-82z" />
    <glyph glyph-name="Wacute" unicode="&#x1e82;" horiz-adv-x="882" 
d="M121 700h102l-6 -533l268 533h98l42 -533l220 533h105l-298 -700h-107l-41 550l-276 -550h-106zM610 916h119l-151 -122h-85z" />
    <glyph glyph-name="wacute" unicode="&#x1e83;" horiz-adv-x="709" 
d="M62 509h92l18 -374l193 374h84l34 -374l177 374h94l-246 -509h-95l-33 373l-192 -373h-94zM484 725h119l-151 -122h-85z" />
    <glyph glyph-name="Wdieresis" unicode="&#x1e84;" horiz-adv-x="882" 
d="M121 700h102l-6 -533l268 533h98l42 -533l220 533h105l-298 -700h-107l-41 550l-276 -550h-106zM425.5 808q-14.5 15 -14.5 37q0 26 19 45.5t45 19.5q21 0 36 -15t15 -37q0 -25 -19.5 -45t-44.5 -20q-22 0 -36.5 15zM619 890.5q20 19.5 46 19.5q21 0 35 -15t14 -37
q0 -26 -19.5 -45.5t-44.5 -19.5q-21 0 -36 15t-15 37q0 26 20 45.5z" />
    <glyph glyph-name="wdieresis" unicode="&#x1e85;" horiz-adv-x="709" 
d="M62 509h92l18 -374l193 374h84l34 -374l177 374h94l-246 -509h-95l-33 373l-192 -373h-94zM299.5 617q-14.5 15 -14.5 37q0 26 19 45.5t45 19.5q21 0 36 -15t15 -37q0 -25 -19.5 -45t-44.5 -20q-22 0 -36.5 15zM493 699.5q20 19.5 46 19.5q21 0 35 -15t14 -37
q0 -26 -19.5 -45.5t-44.5 -19.5q-21 0 -36 15t-15 37q0 26 20 45.5z" />
    <glyph glyph-name="Ygrave" unicode="&#x1ef2;" horiz-adv-x="645" 
d="M275 279l-185 421h109l143 -329l280 329h123l-367 -424l-59 -276h-103zM273 916h118l89 -122h-82z" />
    <glyph glyph-name="ygrave" unicode="&#x1ef3;" horiz-adv-x="519" 
d="M-37.5 -205.5q-26.5 8.5 -44.5 22.5l38 80q23 -20 58 -20q28 0 49 13.5t40 43.5l43 67l-93 508h104l66 -394l244 394h108l-377 -599q-41 -65 -84.5 -94.5t-95.5 -29.5q-29 0 -55.5 8.5zM167 725h118l89 -122h-82z" />
    <glyph glyph-name="uni2002" unicode="&#x2002;" horiz-adv-x="492" 
 />
    <glyph glyph-name="uni2003" unicode="&#x2003;" horiz-adv-x="992" 
 />
    <glyph glyph-name="uni2009" unicode="&#x2009;" horiz-adv-x="167" 
 />
    <glyph glyph-name="uni200A" unicode="&#x200a;" horiz-adv-x="92" 
 />
    <glyph glyph-name="uni200B" unicode="&#x200b;" horiz-adv-x="0" 
 />
    <glyph glyph-name="endash" unicode="&#x2013;" horiz-adv-x="533" 
d="M507 326l-18 -87h-452l19 87h451z" />
    <glyph glyph-name="emdash" unicode="&#x2014;" horiz-adv-x="680" 
d="M654 326l-18 -87h-599l19 87h598z" />
    <glyph glyph-name="uni2015" unicode="&#x2015;" horiz-adv-x="925" 
d="M899 326l-18 -87h-844l19 87h843z" />
    <glyph glyph-name="quoteleft" unicode="&#x2018;" horiz-adv-x="233" 
d="M189 577h53l-24 -115h-115l18 86q11 56 38.5 95.5t82.5 67.5l33 -44q-68 -34 -86 -90z" />
    <glyph glyph-name="quoteright" unicode="&#x2019;" horiz-adv-x="233" 
d="M183 585h-54l24 115h116l-18 -86q-11 -55 -38.5 -95t-82.5 -68l-33 44q68 34 86 90z" />
    <glyph glyph-name="quotesinglbase" unicode="&#x201a;" horiz-adv-x="232" 
d="M58 0h-54l24 115h116l-18 -86q-11 -55 -38.5 -95t-82.5 -68l-33 44q68 34 86 90z" />
    <glyph glyph-name="quotedblleft" unicode="&#x201c;" horiz-adv-x="392" 
d="M189 577h54l-24 -115h-116l18 86q11 55 38.5 95t82.5 68l33 -44q-68 -34 -86 -90zM279 548q11 55 38.5 95t82.5 68l33 -44q-68 -34 -86 -90h54l-24 -115h-116z" />
    <glyph glyph-name="quotedblright" unicode="&#x201d;" horiz-adv-x="392" 
d="M342 585h-54l24 115h116l-18 -86q-11 -55 -38.5 -95t-82.5 -68l-33 44q68 34 86 90zM183 585h-54l24 115h116l-18 -86q-11 -55 -38.5 -95t-82.5 -68l-33 44q68 34 86 90z" />
    <glyph glyph-name="quotedblbase" unicode="&#x201e;" horiz-adv-x="391" 
d="M217 0h-54l24 115h116l-18 -86q-11 -55 -38.5 -95t-82.5 -68l-33 44q68 34 86 90zM58 0h-54l24 115h116l-18 -86q-11 -55 -38.5 -95t-82.5 -68l-33 44q68 34 86 90z" />
    <glyph glyph-name="dagger" unicode="&#x2020;" horiz-adv-x="418" 
d="M206 430h-122l17 79h122l40 191h83l-41 -191h122l-17 -79h-122l-91 -430h-83z" />
    <glyph glyph-name="daggerdbl" unicode="&#x2021;" horiz-adv-x="418" 
d="M155 191h-121l16 79h122l34 160h-122l17 79h122l40 191h83l-41 -191h122l-17 -79h-122l-34 -160h122l-17 -79h-122l-40 -191h-83z" />
    <glyph glyph-name="bullet" unicode="&#x2022;" horiz-adv-x="325" 
d="M102.5 265q-27.5 27 -27.5 66q0 32 16 59.5t43.5 44t59.5 16.5q40 0 66.5 -26.5t26.5 -66.5q0 -31 -16.5 -59t-43.5 -44.5t-57 -16.5q-40 0 -67.5 27z" />
    <glyph glyph-name="ellipsis" unicode="&#x2026;" horiz-adv-x="663" 
d="M32 9q-16 16 -16 39q0 29 21.5 50t49.5 21q23 0 39 -16t16 -40q0 -28 -21.5 -49t-48.5 -21q-24 0 -40 16zM242 9q-16 16 -16 39q0 29 21.5 50t49.5 21q23 0 39 -16t16 -40q0 -28 -21.5 -49t-48.5 -21q-24 0 -40 16zM453 9q-16 16 -16 39q0 29 21.5 50t49.5 21
q23 0 39 -16t16 -40q0 -28 -21.5 -49t-48.5 -21q-24 0 -40 16z" />
    <glyph glyph-name="perthousand" unicode="&#x2030;" horiz-adv-x="1116" 
d="M109.5 382.5q-35.5 37.5 -35.5 101.5q0 60 24 110.5t65 80.5t89 30q60 0 95.5 -37.5t35.5 -101.5q0 -60 -24 -110.5t-65 -80.5t-89 -30q-60 0 -95.5 37.5zM633 700h76l-538 -700h-73zM156.5 425q19.5 -23 54.5 -23q29 0 54.5 22t40.5 59t15 80q0 40 -20 63t-55 23
q-29 0 -54 -22t-40 -59t-15 -80q0 -40 19.5 -63zM450 244.5q24 50.5 65 80.5t89 30q60 0 95.5 -37.5t35.5 -101.5q0 -60 -24 -110.5t-65 -80.5t-90 -30q-59 0 -94.5 37.5t-35.5 101.5q0 60 24 110.5zM508.5 75q19.5 -23 53.5 -23q30 0 55 22t40 59t15 80q0 40 -20 63t-55 23
q-29 0 -53.5 -22t-39.5 -59t-15 -80q0 -40 19.5 -63zM796 244.5q24 50.5 64.5 80.5t89.5 30q59 0 94.5 -37.5t35.5 -101.5q0 -60 -24 -110.5t-65 -80.5t-89 -30q-60 0 -95 37.5t-35 101.5q0 60 24 110.5zM854.5 74.5q19.5 -22.5 53.5 -22.5q29 0 54.5 22t40.5 59t15 80
q0 40 -20 63t-55 23q-29 0 -54 -22t-39.5 -59t-14.5 -80q0 -41 19.5 -63.5z" />
    <glyph glyph-name="minute" unicode="&#x2032;" horiz-adv-x="243" 
d="M201 700h106l-141 -232h-76z" />
    <glyph glyph-name="second" unicode="&#x2033;" horiz-adv-x="402" 
d="M201 700h106l-141 -232h-76zM360 700h106l-141 -232h-76z" />
    <glyph glyph-name="guilsinglleft" unicode="&#x2039;" horiz-adv-x="390" 
d="M128 252l174 -252h-102l-179 255l287 254h105z" />
    <glyph glyph-name="guilsinglright" unicode="&#x203a;" horiz-adv-x="398" 
d="M270 257l-173 252h101l180 -255l-288 -254h-104z" />
    <glyph glyph-name="fraction" unicode="&#x2044;" horiz-adv-x="558" 
d="M521 700h76l-537 -700h-74z" />
    <glyph glyph-name="uni2070" unicode="&#x2070;" horiz-adv-x="343" 
d="M109.5 382.5q-35.5 37.5 -35.5 101.5q0 60 24 110.5t65 80.5t89 30q60 0 95.5 -37.5t35.5 -101.5q0 -60 -24 -110.5t-65 -80.5t-89 -30q-60 0 -95.5 37.5zM156.5 425q19.5 -23 54.5 -23q29 0 54.5 22t40.5 59t15 80q0 40 -20 63t-55 23q-29 0 -54 -22t-40 -59t-15 -80
q0 -40 19.5 -63z" />
    <glyph glyph-name="uni2074" unicode="&#x2074;" horiz-adv-x="327" 
d="M248 433h-194l12 53l229 214h74l-45 -212h42l-12 -55h-41l-18 -83h-64zM260 488l30 140l-150 -140h120z" />
    <glyph glyph-name="uni2075" unicode="&#x2075;" horiz-adv-x="296" 
d="M106.5 367q-32.5 26 -43.5 73l63 15q13 -57 68 -57q27 0 45 19t18 46t-18 42.5t-50 15.5q-26 0 -58 -14l-40 17l44 176h217l-12 -54h-162l-24 -89q30 12 57 12q50 0 80 -27.5t30 -72.5q0 -55 -36.5 -91.5t-96.5 -36.5q-49 0 -81.5 26z" />
    <glyph glyph-name="uni2076" unicode="&#x2076;" horiz-adv-x="317" 
d="M114 378.5q-36 39.5 -36 108.5q0 61 23 110.5t63 77.5t88 28q43 0 72.5 -21.5t40.5 -59.5l-62 -13q-14 38 -58 38q-39 0 -69 -35t-37 -92q40 43 95 43q47 0 76 -28t29 -72q0 -54 -37.5 -89t-94.5 -35t-93 39.5zM157 415.5q21 -24.5 54 -24.5q31 0 50.5 19.5t19.5 48.5
q0 27 -17 42.5t-48 15.5q-44 0 -81 -34q1 -43 22 -67.5z" />
    <glyph glyph-name="uni2077" unicode="&#x2077;" horiz-adv-x="294" 
d="M293 644h-197l11 56h274l-10 -48l-220 -302h-80z" />
    <glyph glyph-name="uni2078" unicode="&#x2078;" horiz-adv-x="317" 
d="M98 371q-36 26 -36 67q0 33 22.5 60t57.5 38q-17 11 -26 27t-9 35q0 29 18.5 53.5t49.5 39t67 14.5q51 0 83.5 -25.5t32.5 -63.5q0 -29 -18.5 -53.5t-48.5 -37.5q21 -11 33 -29t12 -41q0 -30 -19.5 -55.5t-52.5 -40t-73 -14.5q-57 0 -93 26zM146 412.5q19 -13.5 50 -13.5
q32 0 54 16.5t22 39.5q0 22 -19 36t-49 14q-32 0 -54.5 -16.5t-22.5 -40.5q0 -22 19 -35.5zM186.5 566.5q16.5 -12.5 41.5 -12.5q26 0 46 16t20 38q0 19 -16 31.5t-41 12.5q-28 0 -47.5 -16t-19.5 -38q0 -19 16.5 -31.5z" />
    <glyph glyph-name="uni2079" unicode="&#x2079;" horiz-adv-x="317" 
d="M317 671.5q36 -39.5 36 -108.5q0 -61 -23 -110.5t-62.5 -77.5t-87.5 -28q-43 0 -73 21.5t-41 59.5l62 13q15 -38 58 -38q39 0 69 35t38 92q-41 -43 -96 -43q-47 0 -75.5 28t-28.5 72q0 54 37.5 89t94.5 35q56 0 92 -39.5zM167.5 548.5q16.5 -15.5 47.5 -15.5q44 0 81 34
q-1 43 -22 67.5t-54 24.5q-30 0 -49.5 -19.5t-19.5 -48.5q0 -27 16.5 -42.5z" />
    <glyph glyph-name="uni2080" unicode="&#x2080;" horiz-adv-x="343" 
d="M35.5 32.5q-35.5 37.5 -35.5 101.5q0 60 24 110.5t65 80.5t89 30q60 0 95.5 -37.5t35.5 -101.5q0 -60 -24 -110.5t-65 -80.5t-89 -30q-60 0 -95.5 37.5zM82.5 75q19.5 -23 54.5 -23q29 0 54.5 22t40.5 59t15 80q0 40 -20 63t-55 23q-29 0 -54 -22t-40 -59t-15 -80
q0 -40 19.5 -63z" />
    <glyph glyph-name="uni2081" unicode="&#x2081;" horiz-adv-x="166" 
d="M87 283l-73 -27l13 56l98 38h40l-75 -350h-63z" />
    <glyph glyph-name="uni2082" unicode="&#x2082;" horiz-adv-x="283" 
d="M73 162l78 35q52 25 52 61q0 19 -13.5 30t-36.5 11q-49 0 -64 -53l-62 14q12 45 45.5 69.5t83.5 24.5t79.5 -24.5t29.5 -67.5q0 -77 -90 -116l-67 -31q-27 -12 -39 -25t-17 -36h171l-11 -54h-243l8 37q19 90 96 125z" />
    <glyph glyph-name="uni2083" unicode="&#x2083;" horiz-adv-x="303" 
d="M30.5 17q-33.5 25 -45.5 73l63 15q13 -57 71 -57q31 0 50 14.5t19 40.5q0 21 -14 34t-38 13h-43l10 52h45q28 0 45.5 14t17.5 37q0 21 -14 33.5t-39 12.5q-50 0 -67 -54l-63 14q13 45 48.5 70.5t83.5 25.5q53 0 83.5 -26t30.5 -66q0 -33 -21 -57.5t-59 -34.5
q57 -19 57 -72q0 -46 -38.5 -76.5t-94.5 -30.5q-54 0 -87.5 25z" />
    <glyph glyph-name="uni2084" unicode="&#x2084;" horiz-adv-x="327" 
d="M174 83h-194l12 53l229 214h74l-45 -212h42l-12 -55h-41l-18 -83h-64zM186 138l30 140l-150 -140h120z" />
    <glyph glyph-name="uni2085" unicode="&#x2085;" horiz-adv-x="296" 
d="M32.5 17q-32.5 26 -43.5 73l63 15q13 -57 68 -57q27 0 45 19t18 46t-18 42.5t-50 15.5q-26 0 -58 -14l-40 17l44 176h217l-12 -54h-162l-24 -89q30 12 57 12q50 0 80 -27.5t30 -72.5q0 -55 -36.5 -91.5t-96.5 -36.5q-49 0 -81.5 26z" />
    <glyph glyph-name="uni2086" unicode="&#x2086;" horiz-adv-x="317" 
d="M40 28.5q-36 39.5 -36 108.5q0 61 23 110.5t63 77.5t88 28q43 0 72.5 -21.5t40.5 -59.5l-62 -13q-14 38 -58 38q-39 0 -69 -35t-37 -92q40 43 95 43q47 0 76 -28t29 -72q0 -54 -37.5 -89t-94.5 -35t-93 39.5zM83 65.5q21 -24.5 54 -24.5q31 0 50.5 19.5t19.5 48.5
q0 27 -17 42.5t-48 15.5q-44 0 -81 -34q1 -43 22 -67.5z" />
    <glyph glyph-name="uni2087" unicode="&#x2087;" horiz-adv-x="294" 
d="M219 294h-197l11 56h274l-10 -48l-220 -302h-80z" />
    <glyph glyph-name="uni2088" unicode="&#x2088;" horiz-adv-x="317" 
d="M24 21q-36 26 -36 67q0 33 22.5 60t57.5 38q-17 11 -26 27t-9 35q0 29 18.5 53.5t49.5 39t67 14.5q51 0 83.5 -25.5t32.5 -63.5q0 -29 -18.5 -53.5t-48.5 -37.5q21 -11 33 -29t12 -41q0 -30 -19.5 -55.5t-52.5 -40t-73 -14.5q-57 0 -93 26zM72 62.5q19 -13.5 50 -13.5
q32 0 54 16.5t22 39.5q0 22 -19 36t-49 14q-32 0 -54.5 -16.5t-22.5 -40.5q0 -22 19 -35.5zM112.5 216.5q16.5 -12.5 41.5 -12.5q26 0 46 16t20 38q0 19 -16 31.5t-41 12.5q-28 0 -47.5 -16t-19.5 -38q0 -19 16.5 -31.5z" />
    <glyph glyph-name="uni2089" unicode="&#x2089;" horiz-adv-x="317" 
d="M243 321.5q36 -39.5 36 -108.5q0 -61 -23 -110.5t-62.5 -77.5t-87.5 -28q-43 0 -73 21.5t-41 59.5l62 13q15 -38 58 -38q39 0 69 35t38 92q-41 -43 -96 -43q-47 0 -75.5 28t-28.5 72q0 54 37.5 89t94.5 35q56 0 92 -39.5zM93.5 198.5q16.5 -15.5 47.5 -15.5q44 0 81 34
q-1 43 -22 67.5t-54 24.5q-30 0 -49.5 -19.5t-19.5 -48.5q0 -27 16.5 -42.5z" />
    <glyph glyph-name="uni20A8" unicode="&#x20a8;" horiz-adv-x="1118" 
d="M161 700h307q90 0 143.5 -43t53.5 -117q0 -76 -51.5 -136t-131.5 -79q35 -10 53.5 -37t18.5 -76q0 -19 -3 -43l-1 -15q-5 -37 -5 -61q0 -55 20 -93h-120q-11 27 -11 59q0 24 9 85l2 15q5 33 5 51q0 43 -20.5 60t-65.5 17h-187l-60 -287h-105zM396 374q46 0 82.5 18.5
t57 51t20.5 71.5q0 44 -30.5 69t-81.5 25h-198l-51 -235h201zM722 29q-58 39 -74 111l91 16q13 -44 47.5 -66t83.5 -22q52 0 83.5 21.5t31.5 56.5q0 24 -17 38.5t-55 22.5l-88 21q-125 29 -125 132q0 70 54.5 113t144.5 43q81 0 133.5 -34.5t73.5 -104.5l-89 -17
q-28 78 -123 78q-49 0 -76.5 -19t-27.5 -51q0 -24 16.5 -38.5t55.5 -22.5l84 -19q67 -15 99.5 -47t32.5 -83q0 -48 -27 -86t-75 -60t-109 -22q-87 0 -145 39z" />
    <glyph glyph-name="Euro" unicode="&#x20ac;" horiz-adv-x="783" 
d="M296 22.5q-67 32.5 -110 92.5t-55 140h-103l13 59h87q0 32 7 74h-79l14 59h80q44 121 138 192.5t209 71.5q104 0 179 -51.5t103 -140.5l-99 -31q-21 60 -70 93t-117 33q-75 0 -138.5 -45.5t-94.5 -121.5h279l-35 -59h-264q-9 -41 -9 -74h232l-33 -59h-192
q14 -78 71.5 -124t140.5 -46q64 0 114.5 34t77.5 95l99 -32q-37 -89 -115.5 -140.5t-179.5 -51.5q-83 0 -150 32.5z" />
    <glyph glyph-name="uni20B9" unicode="&#x20b9;" horiz-adv-x="574" 
d="M70 364h202q54 0 93.5 22.5t56.5 62.5h-333l17 84h325q-13 83 -119 83h-188l10 48l8 36h501l-18 -84h-138q39 -33 47 -83h74l-18 -84h-63q-21 -74 -89 -120.5t-161 -46.5h-89l252 -282h-135l-252 282z" />
    <glyph glyph-name="trademark" unicode="&#x2122;" horiz-adv-x="659" 
d="M410 700h64l45 -167l117 167h66l-60 -279h-50l45 209l-135 -191l-56 197l-44 -215h-52zM120 700h244l-11 -47h-94l-50 -232h-54l50 232h-95z" />
    <glyph glyph-name="arrowup" unicode="&#x2191;" horiz-adv-x="542" 
d="M223 570l-155 -200l-61 51l263 329l263 -329l-62 -51l-155 202v-572h-93v570z" />
    <glyph glyph-name="arrowdown" unicode="&#x2193;" horiz-adv-x="542" 
d="M316 130l155 200l62 -51l-264 -329l-262 329l61 51l156 -202v572h92v-570z" />
    <glyph glyph-name="minus" unicode="&#x2212;" horiz-adv-x="591" 
d="M123 397h410l-17 -79h-410z" />
    <glyph glyph-name="uni2215" unicode="&#x2215;" horiz-adv-x="558" 
d="M521 700h76l-537 -700h-74z" />
    <glyph glyph-name="notequal" unicode="&#x2260;" horiz-adv-x="591" 
d="M171 228h-84l16 79h135l85 95h-199l17 79h248l103 117h76l-103 -117h86l-17 -79h-135l-85 -95h200l-17 -79h-250l-102 -117h-77z" />
    <glyph glyph-name="uniFEFF" unicode="&#xfeff;" horiz-adv-x="0" 
 />
    <glyph glyph-name="uniFFFD" unicode="&#xfffd;" horiz-adv-x="506" 
d="M57 750h394v-850h-394v850z" />
    <glyph glyph-name="i.loclTRK" horiz-adv-x="207" 
d="M109 509h97l-107 -509h-98zM147.5 693.5q20.5 20.5 47.5 20.5q23 0 38.5 -15.5t15.5 -38.5q0 -28 -20.5 -48.5t-47.5 -20.5q-22 0 -38 16t-16 39q0 27 20.5 47.5z" />
    <glyph glyph-name="a.ss01" horiz-adv-x="587" 
d="M141 22.5q-51 30.5 -80.5 84.5t-29.5 120q0 78 37.5 144.5t102.5 105.5t142 39q49 0 91.5 -17t72.5 -48l12 58h97l-108 -509h-97l6 31q-61 -39 -131 -39q-64 0 -115 30.5zM170 122.5q43 -44.5 110 -44.5q36 0 69 12.5t58 36.5l50 232q-20 32 -58 51.5t-83 19.5
q-52 0 -95 -26t-68.5 -71t-25.5 -98q0 -68 43 -112.5z" />
    <glyph glyph-name="aacute.ss01" horiz-adv-x="587" 
d="M141 22.5q-51 30.5 -80.5 84.5t-29.5 120q0 78 37.5 144.5t102.5 105.5t142 39q49 0 91.5 -17t72.5 -48l12 58h97l-108 -509h-97l6 31q-61 -39 -131 -39q-64 0 -115 30.5zM170 122.5q43 -44.5 110 -44.5q36 0 69 12.5t58 36.5l50 232q-20 32 -58 51.5t-83 19.5
q-52 0 -95 -26t-68.5 -71t-25.5 -98q0 -68 43 -112.5zM402 725h119l-151 -122h-85z" />
    <glyph glyph-name="abreve.ss01" horiz-adv-x="587" 
d="M141 22.5q-51 30.5 -80.5 84.5t-29.5 120q0 78 37.5 144.5t102.5 105.5t142 39q49 0 91.5 -17t72.5 -48l12 58h97l-108 -509h-97l6 31q-61 -39 -131 -39q-64 0 -115 30.5zM170 122.5q43 -44.5 110 -44.5q36 0 69 12.5t58 36.5l50 232q-20 32 -58 51.5t-83 19.5
q-52 0 -95 -26t-68.5 -71t-25.5 -98q0 -68 43 -112.5zM250 631.5q-39 36.5 -40 97.5l63 13q1 -43 22.5 -65t59.5 -22q68 0 108 82l64 -20q-26 -59 -71.5 -90.5t-102.5 -31.5q-64 0 -103 36.5z" />
    <glyph glyph-name="acircumflex.ss01" horiz-adv-x="587" 
d="M141 22.5q-51 30.5 -80.5 84.5t-29.5 120q0 78 37.5 144.5t102.5 105.5t142 39q49 0 91.5 -17t72.5 -48l12 58h97l-108 -509h-97l6 31q-61 -39 -131 -39q-64 0 -115 30.5zM170 122.5q43 -44.5 110 -44.5q36 0 69 12.5t58 36.5l50 232q-20 32 -58 51.5t-83 19.5
q-52 0 -95 -26t-68.5 -71t-25.5 -98q0 -68 43 -112.5zM317 727h104l78 -127h-77l-61 77l-94 -77h-83z" />
    <glyph glyph-name="adieresis.ss01" horiz-adv-x="587" 
d="M141 22.5q-51 30.5 -80.5 84.5t-29.5 120q0 78 37.5 144.5t102.5 105.5t142 39q49 0 91.5 -17t72.5 -48l12 58h97l-108 -509h-97l6 31q-61 -39 -131 -39q-64 0 -115 30.5zM170 122.5q43 -44.5 110 -44.5q36 0 69 12.5t58 36.5l50 232q-20 32 -58 51.5t-83 19.5
q-52 0 -95 -26t-68.5 -71t-25.5 -98q0 -68 43 -112.5zM217.5 617q-14.5 15 -14.5 37q0 26 19 45.5t45 19.5q21 0 36 -15t15 -37q0 -25 -19.5 -45t-44.5 -20q-22 0 -36.5 15zM411 699.5q20 19.5 46 19.5q21 0 35 -15t14 -37q0 -26 -19.5 -45.5t-44.5 -19.5q-21 0 -36 15
t-15 37q0 26 20 45.5z" />
    <glyph glyph-name="agrave.ss01" horiz-adv-x="587" 
d="M141 22.5q-51 30.5 -80.5 84.5t-29.5 120q0 78 37.5 144.5t102.5 105.5t142 39q49 0 91.5 -17t72.5 -48l12 58h97l-108 -509h-97l6 31q-61 -39 -131 -39q-64 0 -115 30.5zM170 122.5q43 -44.5 110 -44.5q36 0 69 12.5t58 36.5l50 232q-20 32 -58 51.5t-83 19.5
q-52 0 -95 -26t-68.5 -71t-25.5 -98q0 -68 43 -112.5zM187 725h118l89 -122h-82z" />
    <glyph glyph-name="amacron.ss01" horiz-adv-x="587" 
d="M141 22.5q-51 30.5 -80.5 84.5t-29.5 120q0 78 37.5 144.5t102.5 105.5t142 39q49 0 91.5 -17t72.5 -48l12 58h97l-108 -509h-97l6 31q-61 -39 -131 -39q-64 0 -115 30.5zM170 122.5q43 -44.5 110 -44.5q36 0 69 12.5t58 36.5l50 232q-20 32 -58 51.5t-83 19.5
q-52 0 -95 -26t-68.5 -71t-25.5 -98q0 -68 43 -112.5zM212 689h291l-15 -67h-291z" />
    <glyph glyph-name="aogonek.ss01" horiz-adv-x="587" 
d="M141 22.5q-51 30.5 -80.5 84.5t-29.5 120q0 78 37.5 144.5t102.5 105.5t142 39q49 0 91.5 -17t72.5 -48l12 58h97l-108 -508l1 -1q-63 -33 -93 -63.5t-30 -62.5q0 -19 13 -29.5t34 -10.5q23 0 41 12l14 -47q-15 -10 -36.5 -15.5t-41.5 -5.5q-40 0 -64.5 20t-24.5 53
q0 80 119 149h-29l6 31q-61 -39 -131 -39q-64 0 -115 30.5zM170 122.5q43 -44.5 110 -44.5q36 0 69 12.5t58 36.5l50 232q-20 32 -58 51.5t-83 19.5q-52 0 -95 -26t-68.5 -71t-25.5 -98q0 -68 43 -112.5z" />
    <glyph glyph-name="aring.ss01" horiz-adv-x="587" 
d="M141 22.5q-51 30.5 -80.5 84.5t-29.5 120q0 78 37.5 144.5t102.5 105.5t142 39q49 0 91.5 -17t72.5 -48l12 58h97l-108 -509h-97l6 31q-61 -39 -131 -39q-64 0 -115 30.5zM170 122.5q43 -44.5 110 -44.5q36 0 69 12.5t58 36.5l50 232q-20 32 -58 51.5t-83 19.5
q-52 0 -95 -26t-68.5 -71t-25.5 -98q0 -68 43 -112.5zM276.5 612q-29.5 29 -29.5 73q0 33 17 62.5t46 47.5t61 18q46 0 75.5 -29t29.5 -73q0 -33 -17 -62.5t-46 -47.5t-61 -18q-46 0 -75.5 29zM312.5 647.5q16.5 -16.5 40.5 -16.5q30 0 51.5 22t21.5 53q0 26 -16 42.5
t-41 16.5q-29 0 -51 -22.5t-22 -53.5q0 -25 16.5 -41.5z" />
    <glyph glyph-name="atilde.ss01" horiz-adv-x="587" 
d="M141 22.5q-51 30.5 -80.5 84.5t-29.5 120q0 78 37.5 144.5t102.5 105.5t142 39q49 0 91.5 -17t72.5 -48l12 58h97l-108 -509h-97l6 31q-61 -39 -131 -39q-64 0 -115 30.5zM170 122.5q43 -44.5 110 -44.5q36 0 69 12.5t58 36.5l50 232q-20 32 -58 51.5t-83 19.5
q-52 0 -95 -26t-68.5 -71t-25.5 -98q0 -68 43 -112.5zM220.5 695.5q26.5 24.5 60.5 24.5q21 0 40 -8.5t44 -24.5q20 -12 33.5 -18.5t25.5 -6.5q15 0 26 11.5t25 41.5l61 -20q-43 -101 -111 -101q-21 0 -40 8.5t-44 24.5q-20 12 -33.5 18.5t-26.5 6.5q-14 0 -25.5 -12
t-23.5 -40l-61 20q23 51 49.5 75.5z" />
    <glyph glyph-name="g.ss02" horiz-adv-x="540" 
d="M19 -180.5q-71 32.5 -71 87.5q0 38 31 68t87 45q-25 22 -25 54q0 35 25 63t66 41q-33 23 -52 57t-19 74q0 55 32 103t86 76t116 28q43 0 81 -13.5t65 -39.5q23 32 55.5 49.5t67.5 17.5q22 0 34 -5l-15 -80q-16 5 -43 5q-42 0 -72 -21q25 -39 25 -85q0 -56 -31 -102.5
t-84.5 -74t-116.5 -27.5q-39 0 -74 11q-26 -5 -40 -17.5t-14 -29.5q0 -29 51 -35l174 -20q58 -7 88.5 -32.5t30.5 -67.5q0 -48 -33.5 -84.5t-93.5 -57t-139 -20.5q-121 0 -192 32.5zM88 -128q47 -18 129 -18q71 0 115 19.5t44 51.5q0 15 -13.5 25.5t-38.5 13.5l-158 18
q-26 4 -39 7q-40 -7 -63 -25t-23 -42q0 -32 47 -50zM186 243q32 -28 80 -28q35 0 66.5 16.5t50 45t18.5 60.5q0 44 -32 73.5t-79 29.5q-36 0 -67.5 -17t-50 -46t-18.5 -63q0 -43 32 -71z" />
    <glyph glyph-name="gbreve.ss02" horiz-adv-x="540" 
d="M19 -180.5q-71 32.5 -71 87.5q0 38 31 68t87 45q-25 22 -25 54q0 35 25 63t66 41q-33 23 -52 57t-19 74q0 55 32 103t86 76t116 28q43 0 81 -13.5t65 -39.5q23 32 55.5 49.5t67.5 17.5q22 0 34 -5l-15 -80q-16 5 -43 5q-42 0 -72 -21q25 -39 25 -85q0 -56 -31 -102.5
t-84.5 -74t-116.5 -27.5q-39 0 -74 11q-26 -5 -40 -17.5t-14 -29.5q0 -29 51 -35l174 -20q58 -7 88.5 -32.5t30.5 -67.5q0 -48 -33.5 -84.5t-93.5 -57t-139 -20.5q-121 0 -192 32.5zM88 -128q47 -18 129 -18q71 0 115 19.5t44 51.5q0 15 -13.5 25.5t-38.5 13.5l-158 18
q-26 4 -39 7q-40 -7 -63 -25t-23 -42q0 -32 47 -50zM186 243q32 -28 80 -28q35 0 66.5 16.5t50 45t18.5 60.5q0 44 -32 73.5t-79 29.5q-36 0 -67.5 -17t-50 -46t-18.5 -63q0 -43 32 -71zM227 631.5q-39 36.5 -40 97.5l63 13q1 -43 22.5 -65t59.5 -22q68 0 108 82l64 -20
q-26 -59 -71.5 -90.5t-102.5 -31.5q-64 0 -103 36.5z" />
    <glyph glyph-name="gcircumflex.ss02" horiz-adv-x="540" 
d="M19 -180.5q-71 32.5 -71 87.5q0 38 31 68t87 45q-25 22 -25 54q0 35 25 63t66 41q-33 23 -52 57t-19 74q0 55 32 103t86 76t116 28q43 0 81 -13.5t65 -39.5q23 32 55.5 49.5t67.5 17.5q22 0 34 -5l-15 -80q-16 5 -43 5q-42 0 -72 -21q25 -39 25 -85q0 -56 -31 -102.5
t-84.5 -74t-116.5 -27.5q-39 0 -74 11q-26 -5 -40 -17.5t-14 -29.5q0 -29 51 -35l174 -20q58 -7 88.5 -32.5t30.5 -67.5q0 -48 -33.5 -84.5t-93.5 -57t-139 -20.5q-121 0 -192 32.5zM88 -128q47 -18 129 -18q71 0 115 19.5t44 51.5q0 15 -13.5 25.5t-38.5 13.5l-158 18
q-26 4 -39 7q-40 -7 -63 -25t-23 -42q0 -32 47 -50zM186 243q32 -28 80 -28q35 0 66.5 16.5t50 45t18.5 60.5q0 44 -32 73.5t-79 29.5q-36 0 -67.5 -17t-50 -46t-18.5 -63q0 -43 32 -71zM295 727h104l78 -127h-77l-61 77l-94 -77h-83z" />
    <glyph glyph-name="uni0123.ss02" horiz-adv-x="540" 
d="M19 -180.5q-71 32.5 -71 87.5q0 38 31 68t87 45q-25 22 -25 54q0 35 25 63t66 41q-33 23 -52 57t-19 74q0 55 32 103t86 76t116 28q43 0 81 -13.5t65 -39.5q23 32 55.5 49.5t67.5 17.5q22 0 34 -5l-15 -80q-16 5 -43 5q-42 0 -72 -21q25 -39 25 -85q0 -56 -31 -102.5
t-84.5 -74t-116.5 -27.5q-39 0 -74 11q-26 -5 -40 -17.5t-14 -29.5q0 -29 51 -35l174 -20q58 -7 88.5 -32.5t30.5 -67.5q0 -48 -33.5 -84.5t-93.5 -57t-139 -20.5q-121 0 -192 32.5zM88 -128q47 -18 129 -18q71 0 115 19.5t44 51.5q0 15 -13.5 25.5t-38.5 13.5l-158 18
q-26 4 -39 7q-40 -7 -63 -25t-23 -42q0 -32 47 -50zM186 243q32 -28 80 -28q35 0 66.5 16.5t50 45t18.5 60.5q0 44 -32 73.5t-79 29.5q-36 0 -67.5 -17t-50 -46t-18.5 -63q0 -43 32 -71zM380 782h73l-85 -189h-96z" />
    <glyph glyph-name="gdotaccent.ss02" horiz-adv-x="540" 
d="M19 -180.5q-71 32.5 -71 87.5q0 38 31 68t87 45q-25 22 -25 54q0 35 25 63t66 41q-33 23 -52 57t-19 74q0 55 32 103t86 76t116 28q43 0 81 -13.5t65 -39.5q23 32 55.5 49.5t67.5 17.5q22 0 34 -5l-15 -80q-16 5 -43 5q-42 0 -72 -21q25 -39 25 -85q0 -56 -31 -102.5
t-84.5 -74t-116.5 -27.5q-39 0 -74 11q-26 -5 -40 -17.5t-14 -29.5q0 -29 51 -35l174 -20q58 -7 88.5 -32.5t30.5 -67.5q0 -48 -33.5 -84.5t-93.5 -57t-139 -20.5q-121 0 -192 32.5zM88 -128q47 -18 129 -18q71 0 115 19.5t44 51.5q0 15 -13.5 25.5t-38.5 13.5l-158 18
q-26 4 -39 7q-40 -7 -63 -25t-23 -42q0 -32 47 -50zM186 243q32 -28 80 -28q35 0 66.5 16.5t50 45t18.5 60.5q0 44 -32 73.5t-79 29.5q-36 0 -67.5 -17t-50 -46t-18.5 -63q0 -43 32 -71zM287.5 607q-15.5 16 -15.5 39q0 27 20.5 47.5t47.5 20.5q23 0 38.5 -15.5t15.5 -38.5
q0 -28 -20.5 -48.5t-47.5 -20.5q-23 0 -38.5 16z" />
    <glyph glyph-name="zero.tf" 
d="M160 22q-50 32 -78 94.5t-28 150.5q0 123 42 224.5t112.5 160t152.5 58.5q65 0 115 -32t78 -94.5t28 -150.5q0 -123 -42 -224.5t-112.5 -160t-152.5 -58.5q-65 0 -115 32zM160 184l282 404q-34 37 -83 37q-56 0 -104.5 -47.5t-77.5 -129t-29 -177.5q0 -51 12 -87zM277 75
q56 0 104.5 47.5t77.5 129t29 177.5q0 53 -11 83l-282 -402q32 -35 82 -35z" />
    <glyph glyph-name="one.tf" 
d="M62 86h177l108 506l-193 -77l19 93l233 92h60l-131 -614h193l-18 -86h-466z" />
    <glyph glyph-name="two.tf" 
d="M101 214.5q48 62.5 135 103.5l143 67q59 28 87 65t28 79t-30 67t-83 25q-54 0 -90.5 -29.5t-52.5 -87.5l-98 24q22 87 86 135t160 48q94 0 151 -48.5t57 -130.5q0 -71 -43 -129.5t-128 -98.5l-140 -65q-63 -29 -89 -61t-41 -92h355l-18 -86h-469l13 64q19 88 67 150.5z
" />
    <glyph glyph-name="three.tf" 
d="M105 37q-66 48 -88 138l99 24q17 -62 55.5 -91t101.5 -29q72 0 115 34t43 92q0 48 -33 79t-86 31h-82l17 83h88q60 0 98.5 34t38.5 85q0 46 -31 75t-89 29q-54 0 -91.5 -30t-54.5 -87l-98 24q22 84 89 133.5t159 49.5q69 0 117.5 -24t73.5 -64.5t25 -90.5
q0 -65 -39.5 -113.5t-116.5 -70.5q60 -19 86.5 -55.5t26.5 -88.5q0 -61 -33 -110t-92 -77t-133 -28q-100 0 -166 48z" />
    <glyph glyph-name="four.tf" 
d="M377 176h-372l17 80l456 444h104l-93 -439h90l-18 -85h-90l-38 -176h-94zM395 261l68 320l-328 -320h260z" />
    <glyph glyph-name="five.tf" 
d="M122 38q-63 49 -84 137l99 24q16 -61 54 -90.5t99 -29.5q62 0 102 44t40 109q0 59 -39 93.5t-107 34.5q-55 0 -125 -30l-64 27l87 343h411l-19 -86h-326l-53 -204q60 25 122 25q98 0 155.5 -52.5t57.5 -141.5q0 -72 -31.5 -129.5t-89 -90t-133.5 -32.5q-93 0 -156 49z
" />
    <glyph glyph-name="six.tf" 
d="M171.5 23.5q-56.5 34.5 -90 100t-33.5 155.5q0 125 45.5 223.5t123 153.5t170.5 55q82 0 138.5 -39.5t74.5 -109.5l-98 -23q-28 82 -125 82q-55 0 -104 -34.5t-83 -98t-44 -147.5q83 95 195 95q62 0 110.5 -26.5t75.5 -72.5t27 -103q0 -71 -34.5 -127t-93.5 -87t-129 -31
q-69 0 -125.5 34.5zM188 128q45 -55 118 -55q43 0 78.5 20.5t55.5 56.5t20 81q0 59 -38.5 94t-104.5 35q-47 0 -93 -21t-82 -59q1 -97 46 -152z" />
    <glyph glyph-name="seven.tf" 
d="M518 614h-403l19 86h510l-16 -73l-456 -627h-115z" />
    <glyph glyph-name="eight.tf" 
d="M147.5 14.5q-55.5 24.5 -86.5 68t-31 97.5q0 70 50.5 124t132.5 71q-44 19 -68 54.5t-24 78.5q0 58 33 104.5t89 72.5t122 26q65 0 114 -23.5t75 -63t26 -87.5q0 -63 -42.5 -111.5t-115.5 -68.5q53 -21 84.5 -62t31.5 -93q0 -61 -35.5 -109.5t-96 -75.5t-132.5 -27
q-71 0 -126.5 24.5zM169.5 103.5q42.5 -35.5 112.5 -35.5q71 0 116 38t45 97q0 52 -42.5 87.5t-110.5 35.5q-72 0 -117.5 -37.5t-45.5 -95.5q0 -54 42.5 -89.5zM250 432.5q36 -29.5 94 -29.5q38 0 70.5 16.5t52 44.5t19.5 63q0 47 -33.5 76.5t-95.5 29.5q-39 0 -71.5 -16.5
t-52 -45t-19.5 -63.5q0 -46 36 -75.5z" />
    <glyph glyph-name="nine.tf" 
d="M460.5 676.5q56.5 -34.5 90 -100t33.5 -155.5q0 -125 -45.5 -223.5t-123 -153.5t-170.5 -55q-82 0 -138 39.5t-75 109.5l98 23q30 -82 125 -82q55 0 104 34t83 98t45 148q-84 -95 -196 -95q-62 0 -110.5 26.5t-75.5 72.5t-27 103q0 71 34.5 127t93.5 87t129 31
q69 0 125.5 -34.5zM210.5 375q38.5 -35 104.5 -35q48 0 93.5 21t82.5 59q-1 97 -46.5 152t-118.5 55q-43 0 -78.5 -20.5t-55.5 -56.5t-20 -81q0 -59 38.5 -94z" />
    <glyph glyph-name="exclamdown.case" horiz-adv-x="191" 
d="M88 0h-101l119 503h77zM135 689q21 21 49 21q24 0 40 -16t16 -40q0 -28 -21.5 -49.5t-49.5 -21.5q-23 0 -39 16.5t-16 40.5q0 28 21 49z" />
    <glyph glyph-name="questiondown.case" horiz-adv-x="474" 
d="M323 383.5q-26 -42.5 -80 -73.5l-63 -37q-39 -22 -58 -50.5t-19 -59.5q0 -38 32 -62t82 -24q58 0 96 26.5t54 78.5l93 -22q-19 -79 -85 -124.5t-160 -45.5q-61 0 -109 21.5t-74.5 59t-26.5 84.5q0 58 30.5 100.5t105.5 84.5l52 30q39 22 58 51t27 76h82
q-11 -71 -37 -113.5zM307 686.5q21 21.5 49 21.5q24 0 39.5 -16t15.5 -40q0 -29 -21 -50t-49 -21q-23 0 -39 16t-16 40q0 28 21 49.5z" />
    <glyph glyph-name="periodcentered.case" horiz-adv-x="242" 
d="M93 301.5q-16 16.5 -16 39.5q0 28 21.5 49.5t49.5 21.5q23 0 38.5 -16.5t15.5 -40.5q0 -27 -21 -48.5t-48 -21.5q-24 0 -40 16.5z" />
    <glyph glyph-name="hyphen.case" horiz-adv-x="443" 
d="M419 391l-18 -87h-354l19 87h353z" />
    <glyph glyph-name="endash.case" horiz-adv-x="543" 
d="M518 391l-18 -87h-452l19 87h451z" />
    <glyph glyph-name="emdash.case" horiz-adv-x="694" 
d="M666 391l-18 -87h-599l19 87h598z" />
    <glyph glyph-name="uni2015.case" horiz-adv-x="943" 
d="M912 391l-18 -87h-844l19 87h843z" />
    <glyph glyph-name="at.case" horiz-adv-x="763" 
d="M237.5 34.5q-82.5 45.5 -130 125.5t-47.5 180q0 105 47 189.5t129.5 133t184.5 48.5q94 0 170.5 -40.5t121 -110t44.5 -154.5q0 -63 -23.5 -113.5t-65 -79t-93.5 -28.5q-71 0 -98 41q-24 -21 -51 -32t-54 -11q-40 0 -73.5 20t-52.5 55t-19 77q0 49 23 90.5t63 65.5t87 24
q28 0 53.5 -9.5t44.5 -26.5l4 23h73l-41 -197q-2 -7 -2 -20q0 -22 13 -34t38 -12q51 0 83.5 46t32.5 117q0 73 -36.5 132t-100.5 93t-143 34q-84 0 -153 -42t-108.5 -114.5t-39.5 -160.5q0 -87 39.5 -155.5t109.5 -107t158 -38.5q92 0 168 38l21 -48q-91 -44 -191 -44
q-103 0 -185.5 45.5zM323 269.5q25 -27.5 65 -27.5t74 31q-1 5 -1 14q0 13 3 26l20 99q-13 20 -34.5 30.5t-48.5 10.5q-42 0 -72.5 -33t-30.5 -79q0 -44 25 -71.5z" />
    <glyph glyph-name="caronSlovak" 
d="M354 703l92 18l-76 -216h-67z" />
    <glyph glyph-name="cordinal" horiz-adv-x="394" 
d="M169 334q-41 23 -64 63.5t-23 91.5q0 59 28.5 110t77.5 81t106 30q46 0 87 -21t66 -56l-55 -50q-39 54 -100 54q-35 0 -65 -19.5t-48 -53t-18 -71.5q0 -47 30.5 -79t76.5 -32q52 0 98 39l40 -54q-65 -56 -146 -56q-50 0 -91 23z" />
    <glyph glyph-name="reversequotedblleft" horiz-adv-x="400" 
d="M252 496h-76l-69 232h105zM370 728l40 -232h-77l-68 232h105z" />
    <glyph glyph-name="reversequoteleft" horiz-adv-x="242" 
d="M252 496h-76l-69 232h105z" />
    </font>
</defs>
</svg>
