<svg width="87" height="87" viewBox="0 0 87 87" fill="none" xmlns="http://www.w3.org/2000/svg">
<path d="M32.8952 35.9462C34.8802 35.9462 36.4894 34.337 36.4894 32.352C36.4894 30.367 34.8802 28.7578 32.8952 28.7578C30.9102 28.7578 29.301 30.367 29.301 32.352C29.301 34.337 30.9102 35.9462 32.8952 35.9462Z" stroke="#333333" stroke-width="1.5" stroke-linecap="round" stroke-linejoin="round"/>
<path d="M54.4604 57.5112C56.4454 57.5112 58.0546 55.902 58.0546 53.917C58.0546 51.9319 56.4454 50.3228 54.4604 50.3228C52.4754 50.3228 50.8662 51.9319 50.8662 53.917C50.8662 55.902 52.4754 57.5112 54.4604 57.5112Z" stroke="#333333" stroke-width="1.5" stroke-linecap="round" stroke-linejoin="round"/>
<path d="M29.3011 32.3518C29.3011 39.0245 31.9518 45.4239 36.6701 50.1422C41.3884 54.8605 47.7878 57.5112 54.4605 57.5112M22.1127 76.2011C30.301 81.5449 40.1791 83.665 49.8391 82.1518C59.4991 80.6385 68.2557 75.5993 74.4177 68.0075C80.5796 60.4156 83.7098 50.8097 83.2036 41.045C82.6973 31.2803 78.5907 22.0496 71.6767 15.1356C64.7627 8.22162 55.532 4.11495 45.7673 3.60872C36.0026 3.1025 26.3967 6.23264 18.8048 12.3946C11.213 18.5566 6.17378 27.3132 4.66054 36.9732C3.1473 46.6332 5.26735 56.5113 10.6112 64.6996L7.73586 79.0764L22.1127 76.2011Z" stroke="#333333" stroke-width="1.5" stroke-linecap="round" stroke-linejoin="round"/>
</svg>
