<svg version="1.1" id="Layer_1" xmlns:x="ns_extend;" xmlns:i="ns_ai;" xmlns:graph="ns_graphs;" xmlns="http://www.w3.org/2000/svg" xmlns:xlink="http://www.w3.org/1999/xlink" x="0px" y="0px" viewBox="0 0 344.5 159.6" style="enable-background:new 0 0 344.5 159.6;" xml:space="preserve">
 <style type="text/css">
  .st0{clip-path:url(#SVGID_2_);}
	.st1{fill:#FFFFFF;}
	.st2{clip-path:url(#SVGID_4_);}
	.st3{clip-path:url(#SVGID_6_);}
	.st4{clip-path:url(#SVGID_8_);}
	.st5{clip-path:url(#SVGID_10_);}
	.st6{clip-path:url(#SVGID_12_);}
	.st7{clip-path:url(#SVGID_14_);}
	.st8{clip-path:url(#SVGID_16_);}
	.st9{clip-path:url(#SVGID_18_);}
	.st10{clip-path:url(#SVGID_20_);}
	.st11{clip-path:url(#SVGID_22_);}
	.st12{clip-path:url(#SVGID_24_);}
	.st13{clip-path:url(#SVGID_26_);}
	.st14{clip-path:url(#SVGID_28_);}
	.st15{clip-path:url(#SVGID_30_);}
	.st16{clip-path:url(#SVGID_32_);}
	.st17{clip-path:url(#SVGID_34_);}
	.st18{clip-path:url(#SVGID_36_);}
	.st19{clip-path:url(#SVGID_38_);}
	.st20{clip-path:url(#SVGID_40_);}
	.st21{clip-path:url(#SVGID_42_);}
	.st22{clip-path:url(#SVGID_44_);}
	.st23{clip-path:url(#SVGID_46_);}
	.st24{clip-path:url(#SVGID_48_);}
	.st25{clip-path:url(#SVGID_50_);}
	.st26{clip-path:url(#SVGID_52_);}
	.st27{clip-path:url(#SVGID_54_);}
	.st28{clip-path:url(#SVGID_56_);}
	.st29{clip-path:url(#SVGID_58_);}
	.st30{clip-path:url(#SVGID_60_);}
	.st31{clip-path:url(#SVGID_62_);}
	.st32{clip-path:url(#SVGID_64_);}
	.st33{clip-path:url(#SVGID_66_);}
	.st34{clip-path:url(#SVGID_68_);}
	.st35{clip-path:url(#SVGID_70_);}
	.st36{clip-path:url(#SVGID_72_);}
	.st37{clip-path:url(#SVGID_74_);}
	.st38{clip-path:url(#SVGID_76_);}
	.st39{clip-path:url(#SVGID_78_);}
	.st40{clip-path:url(#SVGID_80_);}
	.st41{clip-path:url(#SVGID_82_);}
	.st42{clip-path:url(#SVGID_84_);}
 </style>
 <metadata>
  <sfw xmlns="ns_sfw;">
   <slices>
   </slices>
   <sliceSourceBounds bottomLeftOrigin="true" height="225.7" width="386.3" x="-148.7" y="147.3">
   </sliceSourceBounds>
  </sfw>
 </metadata>
 <g id="Layer_1-2">
  <g>
   <defs>
    <path id="SVGID_1_" d="M207.5,85.4l-4,5.8c0,0-1.2,1.3,0.6,1.3h16.1c0.8-0.1,1.6-0.6,2-1.3l3.9-5.8
				C220.2,85.7,213.9,85.7,207.5,85.4 M161.6,81c0,5.1,1.8,12.4,14.1,12.4c7-0.4,13.7-3.5,18.4-8.7c-10.9-0.8-21.7-2.1-32.5-4v0.4
				 M252.4,83.2c0,4.3,1.1,11.2,8.6,11.2c14.9,0,33.4-18.2,34.3-18.4c1-0.2,0.7,0,0.7,0.8s-2.1,8-23.9,33.4s-32.3,35.6-32.3,41.1
				c0,3.9,3,7.2,6.9,7.5c2.3,0,11.8-0.5,34.4-36c16-25.3,23.6-41.2,32.2-53.7l0,0c-15.5,6.5-35,10.7-61.3,14.2 M17.7,142.9
				c0-7.3,26.3-26.5,29.2-26.5c0.8,0,1,0.3,1,0.9c0,5.9-19.2,29.1-26.9,29.1c-1.7,0.2-3.2-1-3.5-2.7c0-0.3,0-0.5,0-0.8 M31.7,80.2
				c0,10.7,10.3,11.9,15.8,11.9c14.3,0,20.9-6.4,23.4-6.4s-1.7,6.4-5.9,9.1c-34.9,20.5-63.7,38.1-64.4,54.5v1
				c0.3,7,7.3,7.4,12.5,7.4s31.9-3.3,72.5-64c2.2-2.7,4.9-4.9,8-6.6c3-2.1,12.5-8.9,14.6-8.9s1.8,0.8,1.8,1.6
				c-0.7,2.3-1.2,4.7-1.4,7.1c0.6,4.3,4.6,7.4,8.9,7c12.5,0,21.3-8.5,28.7-16.2c-2.4-0.5-5.2-1.1-8.3-1.8c-2,2-4.6,3.4-7.3,4.2
				c-2.8,0-3.7-1.5-3.8-2.9c-0.1-1.4,0.2-2.7,0.8-4c-5.6-1.4-11.9-3.1-18.7-5.1c-1.5,1.1-3.2,1.6-5.1,1.7c-0.4,0-0.7-0.4,0.2-1.8
				l0.8-1.2c-4.8-1.5-10-3.1-15.3-4.9C79.4,71.2,67.6,80.4,61,80.4c-2.6,0-5-1.7-5-5.7c2-7.7,5.7-14.9,10.8-21
				c-5.4-2.2-10.9-4.5-16.7-6.9C37.6,59.8,31.6,71.6,31.6,80">
    </path>
   </defs>
   <use href="#SVGID_1_" style="overflow:visible;fill:#FFFFFF;">
   </use>
   <clipPath id="SVGID_2_">
    <use xlink:href="#SVGID_1_" style="overflow:visible;">
    </use>
   </clipPath>
   <g class="st0">
    <rect x="0.8" y="46.9" class="st1" width="312.7" height="111.8">
    </rect>
   </g>
  </g>
  <g>
   <defs>
    <path id="SVGID_3_" d="M138.3,76c3.1,0.7,5.9,1.3,8.4,1.8c3.4-3.9,7.1-7.4,11.3-10.5c-3.7-0.2-7.4-0.4-11-0.7
				C144.6,70.1,141.6,73.3,138.3,76 M198.3,66c-3.9,6.8-9.4,13.1-16,13.1c-1.6,0.3-3.2-0.9-3.4-2.5l0,0c0-0.1,0-0.3,0-0.4
				c0.4-3.3,1.7-6.4,3.8-9c-6.2,0.3-12.5,0.4-18.4,0.2c-1.2,4.3-2,8.7-2.4,13.1c10.8,1.8,21.6,3.2,32.5,4
				c5.7-5.8,10.3-12.5,13.6-19.9c-3.2,0.4-6.4,0.8-9.6,1.2 M114.2,64.4c-1.5,1.4-3.2,2.7-5,3.7c6.8,2,13,3.7,18.6,5.1
				c1.4-3.1,3.2-5.9,5.5-8.4c-5.6-0.8-11.2-1.7-16.7-2.8L114.2,64.4 M90,62.1c5.3,1.8,10.4,3.5,15.3,4.9l4.7-6.2
				c-5-1.1-9.9-2.3-14.7-3.5L90,62.1 M50.7,46.8L50.7,46.8c5.5,2.5,11.1,4.8,16.4,6.9c0.9-1.2,1.9-2.5,2.9-3.7
				c-5.8-1.9-11.3-4-16.7-5.8C52.4,45,51.4,45.9,50.7,46.8 M276.6,61.1c0-2.9,10.2-12.4,13.6-12.4c0.6,0,1.1,0.4,1.1,1
				c0,3.7-10.1,12.7-13.4,12.7C277.2,62.3,276.6,61.8,276.6,61.1L276.6,61.1 M309.6,53.2c-10.2,10.7-22.5,25-33.4,25
				c-2.6,0.3-4.9-1.4-5.3-4c0-0.2,0-0.5,0-0.7c0-1.9,1.5-3.5,4.2-4.4c10.4-3,26.8-16.2,26.8-25c0-2.3-1.2-4.9-4.2-4.9
				c-4.5,0-17.1,2-32.8,20.2c-1.2,1.7-3,3-5,3.4c-1.5,0-3.2-2.7-3.2-8v-1.5c-11.4,3.8-23.1,6.9-35,9.1c-3.8,7.3-10,16.5-14.4,22.9
				c6.5,0.2,12.5,0.2,18.7,0c4.2-6,9.8-14.6,10.1-15c0.4-0.7,1.1-1.1,1.8-1.1c2.5,0-0.6,6.2,8.9,6.2c2-0.2,4.1-0.7,6-1.3
				c0.7,0,0.8,0.6,0.8,1.1c-0.6,2.1-1,4.2-1.3,6.3V83c26.3-3.4,45.9-7.7,61.3-14.2c3.6-5.4,7.6-10.5,12.1-15.2
				c6.8-6.3,8.4-9.7,8.4-11.2c0.2-2-1.2-3.7-3.1-4c0,0-0.1,0-0.1,0h-0.4c-2.4,0-10.6,4-20.9,14.6 M328.6,31.6c0,2.7,4.2,4.5,5.6,4.5
				c4.9-1.3,8.5-5.3,9.3-10.3v-0.7c0-2.4-1.8-4.3-4.2-4.5c-3.4,0-10.9,7.4-10.9,11">
    </path>
   </defs>
   <use xlink:href="#SVGID_3_" style="overflow:visible;fill:#FFFFFF;">
   </use>
   <clipPath id="SVGID_4_">
    <use xlink:href="#SVGID_3_" style="overflow:visible;">
    </use>
   </clipPath>
   <g class="st2">
    <rect x="50.6" y="20.9" class="st1" width="293.1" height="64.6">
    </rect>
   </g>
  </g>
  <g>
   <defs>
    <path id="SVGID_5_" d="M108.4,44.7c-1.9,1.8-7,6.9-13.3,12.7c4.8,1.2,9.7,2.4,14.7,3.5c4.5-5.9,10.3-13.5,11.8-15.2
				c2.5-2.8,3.8-4,3.8-5s-1.5-2-3.5-2C116.9,39.2,112.2,41.3,108.4,44.7 M171,19.1c-0.1-3,2.2-5.5,5.2-5.6c0,0,0,0,0,0
				c0.4,0,0.7,0,1.1,0c16.7,0,25,23,25,24.4c0,0.7-0.5,1.2-1.7,1.2c-6.1,0-29.2-8.8-29.2-19.9 M157.6,15.4c0,8,5,19,25.9,25.7
				c0.5,0,1,0.2,1,0.6s-9.9,13.7-18.8,15.2c-0.8,0.1-1.6-0.5-1.7-1.3v-0.3c0.8-2.5,1.2-5.1,1.4-7.7c0-4-1.3-9.9-9.3-9.9
				s-16.7,3.6-39.1,24.5c5.5,1.1,11.1,2,16.7,2.8c7-8.2,17.7-16.3,20.4-16.3c1.6,0,2.3,0.6,2.4,1.3c0.2,2.9-4.2,4.9-6.7,6.8
				s-4.2,2.8-3.8,4.7c0,1,1.7,1.3,1.8,3.1c0,0.7-0.2,1.4-0.6,2c3.6,0.3,7.3,0.5,11,0.7c1.3-1,2.9-1.5,4.6-1.5c1.2,0,1.8,0.5,1.8,1.3
				v0.4c6.1,0,12.2,0,18.4-0.2c2.6-4.1,5.9-7.8,9.8-10.9c3.6-2.1,5.6-4,5.5-5.3s-2.6-2.7-2.8-4s0.8-2.1,3.3-1.4
				c3.6,0.8,6.1,1,6.2,3.5c-1.2,6-3.5,11.7-6.8,16.8c3.2-0.4,6.4-0.8,9.6-1.2c2.6-5,4.2-10.4,4.8-15.9c-0.1-0.8,0.4-1.5,1.2-1.6
				c0.1,0,0.3,0,0.4,0c1.4,0,5.2,0.4,6.9,0.6c2.5,0.3,4.4,2.5,4.2,5c-0.5,3.5-1.7,6.8-3.6,9.8c11.8-2.3,23.5-5.5,34.9-9.4
				c0.5-7,3.9-9.9,4.2-12v-0.4c0-1.4-0.8-2-2.6-2c-4.4,0-13.1,10.2-14.6,10.2s-2.7-4.7-4.2-6.5c-2-2.7-4.9-3.3-13-3.3
				c-4.2,0-6.4,0.3-10.1,0.3s-5.1,0-5.8-1.9S197.6,4.9,170,4.9c-6.1,0-12.5,2.6-12.5,10.6 M74.1,27.4c-7.3,5-14.2,10.7-20.6,16.8
				l0,0c5.3,2,10.9,4,16.7,5.8c3.3-4.1,7-8,10.9-11.5c16.3-14.5,35.3-21.6,47-21.6c3.9,0.1,7.8,0.4,11.7,1c0.6,0,0.8,0,1.1-0.4
				l9-15.9c0.1-0.1,0.1-0.3,0-0.5c0,0,0,0,0,0l0,0c-1.6-0.5-3.3-0.7-5-0.6c-13.2,0-41.7,6.3-70.9,26.7">
    </path>
   </defs>
   <use xlink:href="#SVGID_5_" style="overflow:visible;fill:#FFFFFF;">
   </use>
   <clipPath id="SVGID_6_">
    <use xlink:href="#SVGID_5_" style="overflow:visible;">
    </use>
   </clipPath>
   <g class="st3">
    <rect x="53.3" y="0.8" class="st1" width="207.3" height="66.8">
    </rect>
   </g>
  </g>
  <g>
   <g>
    <path class="st1" d="M113.5,64c-1.6,1.6-3.5,2.9-5.4,4l2,0.6c1.6-1,3.1-2.2,4.6-3.4c1-1,1.9-1.8,2.8-2.7l-1.9-0.4L113.5,64">
    </path>
   </g>
  </g>
  <g>
   <defs>
    <path id="SVGID_7_" d="M235.7,69.9l-3.5,5.2c-2,3-4.8,7.1-6.9,10.3h2.1c1.8-2.7,4.2-5.9,6.3-9.4l3.5-5.2c0.3-0.4,0.7-0.7,1.2-0.8
				c0,0,0.3,0,0.6,1.1c0.6,1.9,1.5,5.1,8.4,5.1c1.7-0.1,3.4-0.4,5-1l1-0.3v0.3c-0.1,0.5-0.2,1-0.4,1.5c-0.6,1.6-1,3.3-1.1,5v1.6
				l1.6-0.2v-1.2c0.1-1.6,0.5-3.1,1-4.6c0.3-0.6,0.4-1.3,0.5-2c0-1.7-1.1-1.8-1.5-1.8c-0.5,0-1.1,0.2-1.6,0.4
				c-1.4,0.6-2.9,0.9-4.4,1c-5.6,0-6.2-2.2-6.8-4c-0.2-1-0.6-2.2-2.1-2.2c-1,0-2,0.6-2.5,1.5">
    </path>
   </defs>
   <use xlink:href="#SVGID_7_" style="overflow:visible;fill:#FFFFFF;">
   </use>
   <clipPath id="SVGID_8_">
    <use xlink:href="#SVGID_7_" style="overflow:visible;">
    </use>
   </clipPath>
   <g class="st4">
    <polygon class="st1" points="237.3,54.5 263.2,75.5 242.4,99.3 216.6,78.4 			">
    </polygon>
   </g>
  </g>
  <g>
   <defs>
    <path id="SVGID_9_" d="M197.3,66c-1.6,2.7-3.5,5.2-5.7,7.5c-2.4,2.8-5.8,4.6-9.4,4.9c-1.3,0.2-2.4-0.7-2.6-1.9l0,0
				c0-0.1,0-0.2,0-0.3c0.5-3.3,1.8-6.4,3.9-9h-2c-1.9,2.6-3.2,5.7-3.5,9c0,2.1,1.7,3.8,3.8,3.7c0,0,0,0,0,0h0.3
				c4-0.4,7.7-2.3,10.3-5.4c2.5-2.7,4.7-5.6,6.5-8.9l0,0l-1.9,0.2">
    </path>
   </defs>
   <use xlink:href="#SVGID_9_" style="overflow:visible;fill:#FFFFFF;">
   </use>
   <clipPath id="SVGID_10_">
    <use xlink:href="#SVGID_9_" style="overflow:visible;">
    </use>
   </clipPath>
   <g class="st5">
    <polygon class="st1" points="193.6,88.9 171.5,76.2 183.5,56.8 205.6,69.5 			">
    </polygon>
   </g>
  </g>
  <g>
   <g>
    <path class="st1" d="M127,73.3l1.5,0.4c1.4-3.1,3.3-5.9,5.6-8.4l-1.9-0.3C130,67.4,128.2,70.3,127,73.3">
    </path>
    <path class="st1" d="M89,61.9l1.7,0.6l5.3-4.9l-1.8-0.5C92.6,58.6,90.8,60.3,89,61.9">
    </path>
    <path class="st1" d="M146,66.4c-0.9,1.4-1.9,2.8-3,4c-1.8,2-3.7,3.8-5.8,5.4l1.9,0.4c1.8-1.6,3.5-3.2,5.1-4.8
				c1.4-1.4,2.5-3,3.5-4.7h-1.7">
    </path>
    <path class="st1" d="M147.6,75.5l-2.1,2l1.8,0.4l1.4-1.4c2.9-3.6,6.4-6.7,10.4-9.2h-2.8c-3.2,2.5-6.2,5.2-8.8,8.3">
    </path>
    <path class="st1" d="M66.3,53.6l1.5,0.6c0.9-1.3,1.9-2.5,3-4l-1.6-0.6c-1,1.2-2,2.5-2.8,3.7">
    </path>
   </g>
  </g>
  <g>
   <defs>
    <path id="SVGID_11_" d="M301,44c0,8.7-16.3,21.5-26.2,24.3c-2.6,0.4-4.7,2.5-4.9,5.2h1.6c0-1.6,1.4-3,3.8-3.6
				c10.2-2.9,26.9-15.9,27.3-25.4v-0.4L301,44z">
    </path>
   </defs>
   <use xlink:href="#SVGID_11_" style="overflow:visible;fill:#FFFFFF;">
   </use>
   <clipPath id="SVGID_12_">
    <use xlink:href="#SVGID_11_" style="overflow:visible;">
    </use>
   </clipPath>
   <g class="st6">
    <rect x="270" y="44" class="st1" width="32.7" height="29.4">
    </rect>
   </g>
  </g>
  <g>
   <defs>
    <path id="SVGID_13_" d="M264.1,58.8c-1.1,1.5-2.7,2.6-4.5,3.1c-0.8,0-2.4-2.2-2.4-7.2c0-0.6,0-1.3,0-1.9l-1.6,0.6v1.3
				c0,6,2,8.8,4.2,8.8s4.5-2.3,5.7-3.7c2-2.3,4.2-4.4,5.9-6.2l-0.7-1.5c-2.2,2.1-4.4,4.4-6.4,6.7">
    </path>
   </defs>
   <use xlink:href="#SVGID_13_" style="overflow:visible;fill:#FFFFFF;">
   </use>
   <clipPath id="SVGID_14_">
    <use xlink:href="#SVGID_13_" style="overflow:visible;">
    </use>
   </clipPath>
   <g class="st7">
    <polygon class="st1" points="272.6,63.3 255.9,65.4 254.2,52.3 270.9,50.2 			">
    </polygon>
   </g>
  </g>
  <g>
   <defs>
    <path id="SVGID_15_" d="M270.5,52.1l0.7,1.5c13.2-12.6,23.3-13.7,26.3-13.7c3,0,3.5,3.4,3.5,4h1.6c0.3-2.8-1.8-5.3-4.6-5.6h-0.5
				C293.3,38.3,283.4,39.7,270.5,52.1">
    </path>
   </defs>
   <use xlink:href="#SVGID_15_" style="overflow:visible;fill:#FFFFFF;">
   </use>
   <clipPath id="SVGID_16_">
    <use xlink:href="#SVGID_15_" style="overflow:visible;">
    </use>
   </clipPath>
   <g class="st8">
    <polygon class="st1" points="270.7,35.8 304,38.5 302.4,56.2 269.2,53.5 			">
    </polygon>
   </g>
  </g>
  <g>
   <defs>
    <path id="SVGID_17_" d="M277.4,61.3c0-2.6,9.9-11.6,12.8-11.6h0.3c0,3.3-9.8,11.9-12.5,11.9c0,0-0.5,0-0.5-0.4 M275.9,61.2
				c0,1.1,0.9,2,2,2l0,0c3.7,0,14.2-9.2,14.2-13.4c-0.1-1-0.9-1.8-1.9-1.7c-3.8,0-14.4,9.7-14.4,13.2">
    </path>
   </defs>
   <use xlink:href="#SVGID_17_" style="overflow:visible;fill:#FFFFFF;">
   </use>
   <clipPath id="SVGID_18_">
    <use xlink:href="#SVGID_17_" style="overflow:visible;">
    </use>
   </clipPath>
   <g class="st9">
    <polygon class="st1" points="282.1,71 268.1,54.1 285.7,40.4 299.7,57.4 			">
    </polygon>
   </g>
  </g>
  <g>
   <defs>
    <path id="SVGID_19_" d="M329.5,31.9c0-3,7.1-10.1,10.1-10.1c1.9,0,3.3,2.1,3.3,4c-0.6,4.6-3.9,8.5-8.4,9.9
				c-1.2,0-4.8-1.7-4.8-3.8 M328.1,31.9c0,3.2,4.5,5.3,6.4,5.3c5.4-1.4,9.4-5.9,10-11.4c0.1-2.8-2-5.3-4.8-5.5
				c-3.9,0-11.7,8-11.7,11.7">
    </path>
   </defs>
   <use xlink:href="#SVGID_19_" style="overflow:visible;fill:#FFFFFF;">
   </use>
   <clipPath id="SVGID_20_">
    <use xlink:href="#SVGID_19_" style="overflow:visible;">
    </use>
   </clipPath>
   <g class="st10">
    <polygon class="st1" points="330.4,14.5 350.7,22.7 342.1,42.9 321.7,34.6 			">
    </polygon>
   </g>
  </g>
  <g>
   <g>
    <path class="st1" d="M206.5,85.4h1.8c5.2-7.4,10.1-15.1,14.4-23l-2,0.4c-3.9,7.3-10.1,16.6-14.3,22.8">
    </path>
    <path class="st1" d="M49.8,46.5l1.5,0.7l2.8-2.8l-1.6-0.6C51.6,44.7,50.7,45.7,49.8,46.5">
    </path>
    <path class="st1" d="M109.1,60.8l-4.6,6.1l1.6,0.5l4.6-6.3l-1.7-0.4">
    </path>
    <path class="st1" d="M162.9,69c-1,3.7-1.7,7.5-2,11.4l1.6,0.3c0.3-3.8,1-7.5,2-11.1c0.2-1,0.4-1.6,0.5-2h-1.6
				c0,0.6-0.1,1.1-0.4,1.6">
    </path>
    <path class="st1" d="M206.9,64.9c-1.6,3.3-3.4,6.5-5.4,9.6c-2.4,3.7-5.2,7.1-8.4,10.1h2c5.6-5.8,10.2-12.5,13.6-19.9L206.9,64.9">
    </path>
   </g>
  </g>
  <g>
   <defs>
    <path id="SVGID_21_" d="M309.1,52.9l-3.2,3.3c-9.5,10.1-20.1,21.3-29.8,21.3c-2.2,0.2-4.2-1.4-4.5-3.6c0-0.1,0-0.2,0-0.4H270
				c-0.2,2.9,2,5.5,4.9,5.7c0,0,0,0,0.1,0h0.3c3.3,0,6.5-0.8,9.4-2.3c8.5-5.3,16-11.9,22.4-19.6l3.2-3.3
				c10.2-10.7,18.1-14.2,20.1-14.2v-1.5l0,0C327.7,38.1,319.4,42.1,309.1,52.9">
    </path>
   </defs>
   <use xlink:href="#SVGID_21_" style="overflow:visible;fill:#FFFFFF;">
   </use>
   <clipPath id="SVGID_22_">
    <use xlink:href="#SVGID_21_" style="overflow:visible;">
    </use>
   </clipPath>
   <g class="st11">
    <polygon class="st1" points="348.6,69.3 284.5,104.2 251.7,48 315.8,13.1 			">
    </polygon>
   </g>
  </g>
  <g>
   <defs>
    <path id="SVGID_23_" d="M330.2,39.6c1.6,0,2.8,1.2,2.9,2.8l0,0v0.3c0,0.1-0.6,3.4-8.4,10.6c-4.7,5-8.9,10.5-12.5,16.2l2.7-1.1
				c3.3-4.9,7.1-9.6,11.1-13.9c5.7-5.4,8.7-9.4,8.7-11.7c0.1-2.4-1.7-4.4-4.1-4.6c0,0,0,0-0.1,0h-0.4L330.2,39.6z">
    </path>
   </defs>
   <use xlink:href="#SVGID_23_" style="overflow:visible;fill:#FFFFFF;">
   </use>
   <clipPath id="SVGID_24_">
    <use xlink:href="#SVGID_23_" style="overflow:visible;">
    </use>
   </clipPath>
   <g class="st12">
    <polygon class="st1" points="327.8,28 349.9,59.9 319.2,79.6 297.2,47.7 			">
    </polygon>
   </g>
  </g>
  <g>
   <defs>
    <path id="SVGID_25_" d="M126.2,77.5c0.3,2.2,2.3,3.9,4.5,3.6l0,0c3.2-0.8,6-2.5,8.4-4.8l-1.9-0.4c-1.8,1.7-4,3-6.4,3.7
				c-1.9,0-2.9-0.7-3-2.2c0-1.2,0.2-2.4,0.7-3.5l-1.5-0.4c-0.5,1.3-0.8,2.6-0.8,4">
    </path>
   </defs>
   <use xlink:href="#SVGID_25_" style="overflow:visible;fill:#FFFFFF;">
   </use>
   <clipPath id="SVGID_26_">
    <use xlink:href="#SVGID_25_" style="overflow:visible;">
    </use>
   </clipPath>
   <g class="st13">
    <rect x="126.1" y="73.3" class="st1" width="13" height="7.8">
    </rect>
   </g>
  </g>
  <g>
   <defs>
    <path id="SVGID_27_" d="M103.7,67.9c-0.8,1-1,1.7-0.7,2.3c0.2,0.4,0.6,0.6,1,0.7c2.2-0.1,4.4-0.9,6.1-2.2l-2-0.6
				c-1,0.6-2.2,1.1-3.4,1.2c0-0.2,0.1-0.4,0.3-0.6l1-1.3l-1.6-0.5L103.7,67.9">
    </path>
   </defs>
   <use xlink:href="#SVGID_27_" style="overflow:visible;fill:#FFFFFF;">
   </use>
   <clipPath id="SVGID_28_">
    <use xlink:href="#SVGID_27_" style="overflow:visible;">
    </use>
   </clipPath>
   <g class="st14">
    <rect x="102.7" y="66.9" class="st1" width="7.4" height="4.1">
    </rect>
   </g>
  </g>
  <g>
   <defs>
    <path id="SVGID_29_" d="M18.7,142.8c0-6.8,25.6-25.7,28.6-25.7h0.2c0,3.3-7.4,13.7-14.9,21c-4.8,4.7-8.9,7.3-11.2,7.3
				S18.7,144.7,18.7,142.8 M47.4,115.5c-2.1,0-10.1,5.6-16.4,10.7c-5.3,4.2-13.7,11.8-13.7,16.6c-0.2,2.2,1.5,4.1,3.7,4.3
				c0,0,0.1,0,0.1,0h0.4c3.6,0,8.7-4.3,12.5-8c7.1-6.9,15.2-17.9,15.2-21.9c0-0.5-0.1-0.9-0.5-1.3C48.4,115.6,47.9,115.5,47.4,115.5
				L47.4,115.5">
    </path>
   </defs>
   <use xlink:href="#SVGID_29_" style="overflow:visible;fill:#FFFFFF;">
   </use>
   <clipPath id="SVGID_30_">
    <use xlink:href="#SVGID_29_" style="overflow:visible;">
    </use>
   </clipPath>
   <g class="st15">
    <polygon class="st1" points="38.7,101 64.4,136.9 27.4,161.6 1.7,125.8 			">
    </polygon>
   </g>
  </g>
  <g>
   <defs>
    <path id="SVGID_31_" d="M55.5,74.8c0,4.8,3.1,6.4,5.8,6.4c6.6,0,17.9-8.4,29.4-18.7L89.1,62c-10.1,8.9-21.6,17.7-27.8,17.7
				c-2.6,0-4.2-1.8-4.2-4.9c2-7.6,5.7-14.7,10.8-20.7l-1.5-0.5C59.1,63.3,55.5,72,55.5,74.8">
    </path>
   </defs>
   <use xlink:href="#SVGID_31_" style="overflow:visible;fill:#FFFFFF;">
   </use>
   <clipPath id="SVGID_32_">
    <use xlink:href="#SVGID_31_" style="overflow:visible;">
    </use>
   </clipPath>
   <g class="st16">
    <polygon class="st1" points="68.5,37.1 104.6,63.8 77.6,97.7 41.6,71 			">
    </polygon>
   </g>
  </g>
  <g>
   <defs>
    <path id="SVGID_33_" d="M0,150h1.6c0-15.6,26.6-32.3,64.2-54.3l-0.8-1.3C27.1,116.5,0,133.6,0,150.1">
    </path>
   </defs>
   <use xlink:href="#SVGID_33_" style="overflow:visible;fill:#FFFFFF;">
   </use>
   <clipPath id="SVGID_34_">
    <use xlink:href="#SVGID_33_" style="overflow:visible;">
    </use>
   </clipPath>
   <g class="st17">
    <polygon class="st1" points="-25.5,109.1 48.2,66.1 91.3,135 17.6,178 			">
    </polygon>
   </g>
  </g>
  <g>
   <defs>
    <path id="SVGID_35_" d="M31.3,80.1c0,8,6,12.8,16.7,12.8v-1.5c-5.6,0-15-1.5-15-11.3c0-7.6,5.2-19.3,18.5-32.9l-1.5-0.7
				C36.5,60.3,31.3,72.2,31.3,80.1">
    </path>
   </defs>
   <use xlink:href="#SVGID_35_" style="overflow:visible;fill:#FFFFFF;">
   </use>
   <clipPath id="SVGID_36_">
    <use xlink:href="#SVGID_35_" style="overflow:visible;">
    </use>
   </clipPath>
   <g class="st18">
    <polygon class="st1" points="44.4,37.4 74.1,77.1 38.1,102.2 8.5,62.4 			">
    </polygon>
   </g>
  </g>
  <g>
   <g>
    <path class="st1" d="M65.8,95.5c3.6-2.1,7.8-7.3,7.1-9.4c-0.2-0.7-0.9-1.1-1.6-1c-1.5,0.2-2.9,0.7-4.2,1.5
				c-5.9,3.2-12.5,4.9-19.2,4.9v1.5c7,0.1,13.9-1.6,20.1-5c1-0.6,2.2-1.1,3.3-1.3l0,0c-1.3,3.1-3.6,5.8-6.5,7.5">
    </path>
   </g>
  </g>
  <g>
   <defs>
    <path id="SVGID_37_" d="M117.8,93.1c-4,0.5-7.7-2.2-8.3-6.2h-1.6c0.7,4.7,4.9,8,9.6,7.7c12.8,0,22.1-8.9,29.6-16.7l-1.6-0.5
				c-7.2,7.4-16,15.6-27.8,15.6">
    </path>
   </defs>
   <use xlink:href="#SVGID_37_" style="overflow:visible;fill:#FFFFFF;">
   </use>
   <clipPath id="SVGID_38_">
    <use xlink:href="#SVGID_37_" style="overflow:visible;">
    </use>
   </clipPath>
   <g class="st19">
    <polygon class="st1" points="141.5,108.2 101.8,92.1 114,64 153.7,80.1 			">
    </polygon>
   </g>
  </g>
  <g>
   <defs>
    <path id="SVGID_39_" d="M94.1,86.1l-0.7,0.5l-1.8,1.2c-2.5,1.4-4.6,3.4-6.4,5.7c-40.5,60.5-66.8,63.6-71.8,63.6
				c-7.1,0-11.8-1.3-11.8-7.2H0c0,8.8,9,8.8,13.4,8.8c2.9,0,11.1-0.9,23.5-9.4c15.7-10.7,32.4-29.2,49.6-55c1.6-2.1,3.6-3.8,5.8-5.1
				l1.9-1.2l0.7-0.5c9.8-6.9,12.5-8.2,13.4-8.3s0.9,0,0.9,0l1.1-1.1c-0.5-0.5-1-0.6-2.1-0.6S102.9,79.8,94,86">
    </path>
   </defs>
   <use xlink:href="#SVGID_39_" style="overflow:visible;fill:#FFFFFF;">
   </use>
   <clipPath id="SVGID_40_">
    <use xlink:href="#SVGID_39_" style="overflow:visible;">
    </use>
   </clipPath>
   <g class="st20">
    <polygon class="st1" points="25.8,32.3 146,96.4 84.7,203.7 -35.5,139.6 			">
    </polygon>
   </g>
  </g>
  <g>
   <defs>
    <path id="SVGID_41_" d="M160.9,80.9c0,8.6,5.1,13.2,14.9,13.2c7.4-0.5,14.4-3.8,19.4-9.4h-2c-4.6,4.7-10.8,7.6-17.4,7.9
				c-8.9,0-13.3-4-13.3-11.7v-0.4l-1.6-0.3L160.9,80.9">
    </path>
   </defs>
   <use xlink:href="#SVGID_41_" style="overflow:visible;fill:#FFFFFF;">
   </use>
   <clipPath id="SVGID_42_">
    <use xlink:href="#SVGID_41_" style="overflow:visible;">
    </use>
   </clipPath>
   <g class="st21">
    <polygon class="st1" points="194.9,96.5 159.8,94.1 161.1,78 196.2,80.5 			">
    </polygon>
   </g>
  </g>
  <g>
   <defs>
    <path id="SVGID_43_" d="M225.2,85.4l-3.5,5.4c-0.5,0.7-1,1-1.3,1h-16.2l2.7-4l1.5-2.2h-1.8l-1,1.5l-2.7,4
				c-0.3,0.3-0.5,0.8-0.5,1.2c0,0.2,0,0.3,0,0.5c0,0.4,0.6,0.8,1.6,0.8h16.3c1.1-0.1,2-0.7,2.6-1.6l4.5-6.3h-2">
    </path>
   </defs>
   <use xlink:href="#SVGID_43_" style="overflow:visible;fill:#FFFFFF;">
   </use>
   <clipPath id="SVGID_44_">
    <use xlink:href="#SVGID_43_" style="overflow:visible;">
    </use>
   </clipPath>
   <g class="st22">
    <polygon class="st1" points="213,105.1 198.3,88.7 216.5,73.5 231.2,89.9 			">
    </polygon>
   </g>
  </g>
  <g>
   <defs>
    <path id="SVGID_45_" d="M251.4,83.3L251.4,83.3c-0.2,3.4,0.9,6.7,3,9.3c1.7,1.7,4,2.6,6.4,2.5l0,0v-1.5c-2,0.1-3.9-0.6-5.3-2
				c-1.9-2.4-2.8-5.5-2.5-8.5L251.4,83.3">
    </path>
   </defs>
   <use xlink:href="#SVGID_45_" style="overflow:visible;fill:#FFFFFF;">
   </use>
   <clipPath id="SVGID_46_">
    <use xlink:href="#SVGID_45_" style="overflow:visible;">
    </use>
   </clipPath>
   <g class="st23">
    <polygon class="st1" points="256.1,99.7 245.1,89.1 256.1,78.6 267,89.1 			">
    </polygon>
   </g>
  </g>
  <g>
   <defs>
    <path id="SVGID_47_" d="M110,78.6l-0.6,0.6c0.1,0.1,0.1,0.3,0,0.5c0,0.2,0,0.4,0,0.6c0,0.5-0.1,1-0.4,1.5c-0.6,1.7-0.9,3.4-1,5.2
				h1.6c0.1-1.6,0.4-3.2,0.9-4.7c0.2-0.6,0.4-1.3,0.5-2v-0.4c0.1-0.6-0.1-1.2-0.5-1.6L110,78.6z">
    </path>
   </defs>
   <use xlink:href="#SVGID_47_" style="overflow:visible;fill:#FFFFFF;">
   </use>
   <clipPath id="SVGID_48_">
    <use xlink:href="#SVGID_47_" style="overflow:visible;">
    </use>
   </clipPath>
   <g class="st24">
    <polygon class="st1" points="108.2,87.4 106.5,78.3 111,77.5 112.7,86.7 			">
    </polygon>
   </g>
  </g>
  <g>
   <defs>
    <path id="SVGID_49_" d="M271.3,109.6c-5.8,6.8-10.7,12.4-15,17.3c-12,13.7-17.5,19.9-17.5,24.3c0,1.9,0.6,3.7,1.8,5.2l1-1.3
				c-0.8-1.2-1.2-2.6-1.2-4c0-3.8,5.7-10.3,17.1-23.3c4.2-4.9,9.2-10.5,15-17.3c7.8-9.1,13-15.9,16.7-20.8l-1.7-0.4
				C284.1,94.1,278.9,100.7,271.3,109.6">
    </path>
   </defs>
   <use xlink:href="#SVGID_49_" style="overflow:visible;fill:#FFFFFF;">
   </use>
   <clipPath id="SVGID_50_">
    <use xlink:href="#SVGID_49_" style="overflow:visible;">
    </use>
   </clipPath>
   <g class="st25">
    <polygon class="st1" points="204.9,130 258.7,65.6 323.1,115.8 269.3,180.2 			">
    </polygon>
   </g>
  </g>
  <g>
   <defs>
    <path id="SVGID_51_" d="M312.2,69.5c-4.2,6-6.6,10.7-11.5,19.1c-5.6,9.7-12,20.6-20.3,33.6c-19.8,31-29.6,35.8-33.8,35.8
				c-2-0.1-3.9-1.2-5.1-2.8l-1,1.2c1.5,1.8,3.7,3,6.1,3.1c7.8,0,19.9-12.6,35.1-36.4c8.3-13,14.7-23.9,20.3-33.7s8.3-14.6,12.5-21
				l0,0l-2.7,1.1">
    </path>
   </defs>
   <use xlink:href="#SVGID_51_" style="overflow:visible;fill:#FFFFFF;">
   </use>
   <clipPath id="SVGID_52_">
    <use xlink:href="#SVGID_51_" style="overflow:visible;">
    </use>
   </clipPath>
   <g class="st26">
    <polygon class="st1" points="248.6,46.2 344.1,78.2 306.9,181.7 211.4,149.7 			">
    </polygon>
   </g>
  </g>
  <g>
   <defs>
    <path id="SVGID_53_" d="M295,75.2c-0.3,0-0.6,0.3-2.5,1.8c-5.4,4.4-19.8,16.5-31.8,16.5v1.5c12.5,0,27.2-12.3,32.8-16.9l1.4-1.2
				c-1.9,4.4-4.4,8.6-7.4,12.4l1.7,0.4c6.8-9.5,7.4-12.6,7.5-13v-0.3c0-0.4-0.1-0.8-0.5-1c-0.2-0.2-0.5-0.3-0.8-0.3L295,75.2">
    </path>
   </defs>
   <use xlink:href="#SVGID_53_" style="overflow:visible;fill:#FFFFFF;">
   </use>
   <clipPath id="SVGID_54_">
    <use xlink:href="#SVGID_53_" style="overflow:visible;">
    </use>
   </clipPath>
   <g class="st27">
    <rect x="260.8" y="75.2" class="st1" width="35.8" height="19.9">
    </rect>
   </g>
  </g>
  <g>
   <defs>
    <path id="SVGID_55_" d="M211.8,48.8c-0.6,5.6-2.3,11-4.9,15.9l1.8-0.3c2.6-5,4.2-10.4,4.7-15.9c0-0.7,0.2-0.9,0.8-0.9
				s4.2,0.3,6.1,0.5h0.8c2,0.2,3.6,2,3.5,4c-0.6,3.5-1.9,6.9-3.8,9.9l2-0.4c1.8-2.9,2.9-6.1,3.4-9.5c0.1-2.9-2.1-5.4-5-5.6h-0.7
				c-2-0.2-5-0.5-6.2-0.5c-1.2-0.1-2.3,0.8-2.4,2c0,0,0,0,0,0l0,0v0.4">
    </path>
   </defs>
   <use xlink:href="#SVGID_55_" style="overflow:visible;fill:#FFFFFF;">
   </use>
   <clipPath id="SVGID_56_">
    <use xlink:href="#SVGID_55_" style="overflow:visible;">
    </use>
   </clipPath>
   <g class="st28">
    <polygon class="st1" points="214.3,37.4 235.5,53.5 218.8,74 197.6,57.9 			">
    </polygon>
   </g>
  </g>
  <g>
   <defs>
    <path id="SVGID_57_" d="M171.9,19.1c-0.1-2.5,1.8-4.7,4.4-4.8c0,0,0,0,0,0l0,0c0.3-0.1,0.7-0.1,1,0c15.9,0,24.1,22.1,24.2,23.8
				c0,0,0,0.3-0.9,0.3c-5.6,0-28.6-8.6-28.6-19.2 M170.5,19.2c0,11.9,23.9,20.8,30.2,20.8c2.1,0,2.5-1.2,2.5-1.9
				c0-1.5-8.3-25.2-25.8-25.2c-3.4-0.3-6.4,2.1-6.8,5.5l0,0L170.5,19.2">
    </path>
   </defs>
   <use xlink:href="#SVGID_57_" style="overflow:visible;fill:#FFFFFF;">
   </use>
   <clipPath id="SVGID_58_">
    <use xlink:href="#SVGID_57_" style="overflow:visible;">
    </use>
   </clipPath>
   <g class="st29">
    <polygon class="st1" points="161.1,16.1 199,2.5 212,36.6 174.2,50.1 			">
    </polygon>
   </g>
  </g>
  <g>
   <defs>
    <path id="SVGID_59_" d="M156.4,67.2h2.7c0.9-0.5,2-0.8,3.1-0.8c1,0,1,0.3,1,0.6v0.4h1.5v-0.4c0-1.2-1.1-2.2-2.3-2.1c0,0,0,0,0,0
				h-0.3c-2.2,0.1-4.2,0.9-5.9,2.2">
    </path>
   </defs>
   <use xlink:href="#SVGID_59_" style="overflow:visible;fill:#FFFFFF;">
   </use>
   <clipPath id="SVGID_60_">
    <use xlink:href="#SVGID_59_" style="overflow:visible;">
    </use>
   </clipPath>
   <g class="st30">
    <polygon class="st1" points="158.4,61.6 166,65.5 163.1,70.8 155.4,66.9 			">
    </polygon>
   </g>
  </g>
  <g>
   <defs>
    <path id="SVGID_61_" d="M194.7,45.3c-0.5,0.5-0.7,1.2-0.6,2c0.3,0.8,0.9,1.6,1.6,2.1c0.5,0.5,1.2,1.2,1.2,1.5
				c-1.2,2-3,3.7-5.1,4.7c-4.1,3.2-7.6,7.1-10.3,11.6h2c2.4-3.8,5.5-7.3,9-10.1c3.8-2.2,5.9-4.4,5.9-6c0-0.9-0.8-1.7-1.7-2.6
				c-0.8-0.9-1.1-1.1-1.2-1.4c-0.1-0.2-0.1-0.4,0-0.5c0-0.2,1-0.3,2.3,0l1.6,0.4c3,0.7,4.2,1,4.2,2.4c-1,6-3.2,11.7-6.3,16.9
				l1.9-0.2c3-5.1,5.1-10.8,6-16.7c0-2.7-2.5-3.3-5.3-4l-1.5-0.3c-0.6-0.2-1.2-0.3-1.8-0.3c-0.7-0.1-1.5,0.2-2,0.7">
    </path>
   </defs>
   <use xlink:href="#SVGID_61_" style="overflow:visible;fill:#FFFFFF;">
   </use>
   <clipPath id="SVGID_62_">
    <use xlink:href="#SVGID_61_" style="overflow:visible;">
    </use>
   </clipPath>
   <g class="st31">
    <polygon class="st1" points="186.3,35.5 214.6,49.2 200.6,76.4 172.2,62.7 			">
    </polygon>
   </g>
  </g>
  <g>
   <defs>
    <path id="SVGID_63_" d="M107.8,44.1l-2.9,2.8c-2.6,2.5-6.4,6.2-10.7,10.2l1.8,0.5c3.4-3.1,6.8-6.5,10.1-9.6l2.9-2.8
				c3.6-3.2,8.2-5.2,13-5.7c1.5,0,2.7,0.6,2.7,1.2h1.6c0-1.7-2.1-2.7-4.2-2.7C116.8,38.5,111.8,40.6,107.8,44.1">
    </path>
   </defs>
   <use xlink:href="#SVGID_63_" style="overflow:visible;fill:#FFFFFF;">
   </use>
   <clipPath id="SVGID_64_">
    <use xlink:href="#SVGID_63_" style="overflow:visible;">
    </use>
   </clipPath>
   <g class="st32">
    <polygon class="st1" points="124.3,65 89.5,56.6 96.1,30.8 131,39.2 			">
    </polygon>
   </g>
  </g>
  <g>
   <defs>
    <path id="SVGID_65_" d="M124.6,40.8c-0.8,1.5-1.8,2.9-3,4l-0.6,0.7c-1.6,1.8-7.5,9.5-12,15.5l0,0l1.7,0.4l0,0
				c4.5-5.8,10.1-13.2,11.6-14.9l0.8-0.8c2.3-2.5,3.4-3.7,3.4-4.8L124.6,40.8z">
    </path>
   </defs>
   <use xlink:href="#SVGID_65_" style="overflow:visible;fill:#FFFFFF;">
   </use>
   <clipPath id="SVGID_66_">
    <use xlink:href="#SVGID_65_" style="overflow:visible;">
    </use>
   </clipPath>
   <g class="st33">
    <rect x="109" y="40.8" class="st1" width="17.2" height="20.4">
    </rect>
   </g>
  </g>
  <g>
   <defs>
    <path id="SVGID_67_" d="M148.9,1.9c-3.2,5.4-8.6,14.8-8.9,15.2h-0.6c-3.8-0.6-7.6-1-11.4-1c-10.1,0.6-19.8,3.5-28.6,8.5l0.7,1.4
				c8.5-4.9,18-7.7,27.8-8.2c3.8,0,7.5,0.4,11.2,1h0.6c0.3,0.1,0.7,0.1,1.1,0c0.3-0.1,0.6-0.4,0.8-0.7c0.4-0.6,8.8-15.1,9.2-15.7
				c0.2-0.3,0.2-0.7,0-0.9L148.9,1.9z">
    </path>
   </defs>
   <use xlink:href="#SVGID_67_" style="overflow:visible;fill:#FFFFFF;">
   </use>
   <clipPath id="SVGID_68_">
    <use xlink:href="#SVGID_67_" style="overflow:visible;">
    </use>
   </clipPath>
   <g class="st34">
    <polygon class="st1" points="90,22.3 107.3,-16.7 160.1,5.1 142.8,44.1 			">
    </polygon>
   </g>
  </g>
  <g>
   <defs>
    <path id="SVGID_69_" d="M80.4,38c-4.1,3.6-7.8,7.6-11.2,11.9l0,0l1.6,0.5l0,0c7.9-10.1,17.9-18.3,29.2-24.3l-0.7-1.4
				c-6.8,3.7-13.2,8.1-19,13.3">
    </path>
   </defs>
   <use xlink:href="#SVGID_69_" style="overflow:visible;fill:#FFFFFF;">
   </use>
   <clipPath id="SVGID_70_">
    <use xlink:href="#SVGID_69_" style="overflow:visible;">
    </use>
   </clipPath>
   <g class="st35">
    <rect x="69.1" y="24.7" class="st1" width="30.9" height="25.6">
    </rect>
   </g>
  </g>
  <g>
   <defs>
    <path id="SVGID_71_" d="M115.6,62.2L115.6,62.2l1.8,0.3l0,0c21.4-19.9,30.3-23.9,38.2-23.9c2.8-0.3,5.6,1,7.2,3.3
				c1,1.7,1.5,3.8,1.4,5.8c0,2-0.4,4-1,5.8c-0.2,0.5-0.3,1.1-0.3,1.6c0,0.7,0.3,1.4,0.8,1.8l1-1.2c-0.2-0.2-0.3-0.4-0.3-0.7
				c0.1-0.4,0.2-0.8,0.3-1.2c0.7-2.1,1.1-4.3,1.1-6.4c0.1-1.9-0.3-3.8-1-5.6c-1.7-3.3-5.3-5.3-9-4.9C147.4,37,138,41.2,115.6,62.2">
    </path>
   </defs>
   <use xlink:href="#SVGID_71_" style="overflow:visible;fill:#FFFFFF;">
   </use>
   <clipPath id="SVGID_72_">
    <use xlink:href="#SVGID_71_" style="overflow:visible;">
    </use>
   </clipPath>
   <g class="st36">
    <rect x="115.6" y="37.1" class="st1" width="50.2" height="25.5">
    </rect>
   </g>
  </g>
  <g>
   <defs>
    <path id="SVGID_73_" d="M183.2,41.9c-1.4,2.2-10.1,12.9-17.9,14.3c-0.2,0.1-0.3,0.1-0.5,0l-1,1.2c0.5,0.4,1.2,0.6,1.8,0.5
				c9.3-1.6,19.4-14.6,19.4-15.9H183.2z">
    </path>
   </defs>
   <use xlink:href="#SVGID_73_" style="overflow:visible;fill:#FFFFFF;">
   </use>
   <clipPath id="SVGID_74_">
    <use xlink:href="#SVGID_73_" style="overflow:visible;">
    </use>
   </clipPath>
   <g class="st37">
    <polygon class="st1" points="155.5,48.8 175.6,31.6 193.2,50.8 173,68 			">
    </polygon>
   </g>
  </g>
  <g>
   <defs>
    <path id="SVGID_75_" d="M247,45c-1.1,1.1-2.3,2-3.5,2.9c-0.7-0.9-1.3-1.9-1.8-3c-0.5-1.1-1.1-2.2-1.8-3.3
				c-2.2-2.9-5.2-3.7-13.7-3.7h-5.4v1.5h5.3c8,0,10.5,0.6,12.5,3c0.6,0.9,1.2,1.9,1.6,2.9c1,2.2,1.9,4,3.2,4s1.8-0.8,4.6-3.4
				c2.8-2.6,7.5-6.8,10-6.8c1.6,0,1.8,0.4,1.8,1.5c-0.2,1-0.5,1.9-1.1,2.7c-1.8,3-2.8,6.4-3,9.8l1.6-0.6c0.3-3,1.2-5.9,2.8-8.5
				c0.7-1,1.2-2.2,1.3-3.5c0.1-0.7-0.2-1.4-0.6-2c-0.7-0.8-1.8-1.1-2.8-1C255,37.7,250.6,41.7,247,45">
    </path>
   </defs>
   <use xlink:href="#SVGID_75_" style="overflow:visible;fill:#FFFFFF;">
   </use>
   <clipPath id="SVGID_76_">
    <use xlink:href="#SVGID_75_" style="overflow:visible;">
    </use>
   </clipPath>
   <g class="st38">
    <polygon class="st1" points="258,64.3 216.4,52 224.3,26.9 265.9,39.1 			">
    </polygon>
   </g>
  </g>
  <g>
   <defs>
    <path id="SVGID_77_" d="M209.6,37.7c0.9,2.1,2.4,2.4,5.8,2.4h5.6v-1.5h-4.7c-4.2,0-4.6,0-5.1-1.5L209.6,37.7z">
    </path>
   </defs>
   <use xlink:href="#SVGID_77_" style="overflow:visible;fill:#FFFFFF;">
   </use>
   <clipPath id="SVGID_78_">
    <use xlink:href="#SVGID_77_" style="overflow:visible;">
    </use>
   </clipPath>
   <g class="st39">
    <rect x="209.6" y="37" class="st1" width="11.4" height="3">
    </rect>
   </g>
  </g>
  <g>
   <g>
    <path class="st1" d="M150.8,1.3c-0.1-0.3-0.4-0.6-0.7-0.6c-1.7-0.5-3.5-0.7-5.2-0.6c-12.5,0-41.2,5.6-71.4,26.8
				c-7.4,5.1-14.4,10.9-20.8,17.1l1.6,0.6c6.3-6,13.1-11.5,20.3-16.5c29.7-20.9,58.4-26.5,70.4-26.5c1.4,0,2.8,0.1,4.2,0.4
				L150.8,1.3z">
    </path>
   </g>
  </g>
  <g>
   <defs>
    <path id="SVGID_79_" d="M153.6,48c-2.8,0-11.6,6.7-18.3,13.6l-0.9,0.9c-0.7,0.8-1.5,1.6-2.2,2.5l1.9,0.3c0.4-0.6,1-1.2,1.5-1.7
				c0.5-0.6,1.1-1.2,1.7-1.8c6.8-6.8,14.4-11.9,16.3-11.9c1,0,1.6,0.2,1.6,0.6l0,0c0,1.8-2.5,3.4-4.7,4.8l-1.7,1.1l0,0
				c-2.8,2-4.2,2.9-4.2,4.7v0.7c0.1,0.6,0.5,1.1,1,1.5c0.4,0.3,0.6,0.7,0.8,1.1h1.6c-0.1-0.9-0.6-1.7-1.3-2.2
				c-0.2-0.2-0.4-0.4-0.5-0.6c0-1.3,0.2-1.6,3.4-4l0,0l1.6-1c2.7-1.7,5.7-3.6,5.5-6.4c0-1-1-2.1-3.1-2.1l0,0">
    </path>
   </defs>
   <use xlink:href="#SVGID_79_" style="overflow:visible;fill:#FFFFFF;">
   </use>
   <clipPath id="SVGID_80_">
    <use xlink:href="#SVGID_79_" style="overflow:visible;">
    </use>
   </clipPath>
   <g class="st40">
    <polygon class="st1" points="148.1,36.5 165.7,58.9 141.3,76.7 123.7,54.3 			">
    </polygon>
   </g>
  </g>
  <g>
   <defs>
    <path id="SVGID_81_" d="M146.6,64.3v0.4l0,0c-0.1,0.6-0.3,1.2-0.7,1.7h1.7c0.4-0.6,0.6-1.4,0.5-2.1V64L146.6,64.3z">
    </path>
   </defs>
   <use xlink:href="#SVGID_81_" style="overflow:visible;fill:#FFFFFF;">
   </use>
   <clipPath id="SVGID_82_">
    <use xlink:href="#SVGID_81_" style="overflow:visible;">
    </use>
   </clipPath>
   <g class="st41">
    <polygon class="st1" points="147.4,63.2 149.4,65.8 146.8,67.7 144.8,65.2 			">
    </polygon>
   </g>
  </g>
  <g>
   <defs>
    <path id="SVGID_83_" d="M157.3,10.7c-0.6,1.5-0.9,3.1-0.9,4.8c0,6.7,3.5,19,26.4,26.4h2c0-0.9-0.9-1.2-1.4-1.3l0,0
				c-22-7.1-25.3-18.7-25.3-25c0-1.5,0.3-3,0.8-4.3c2.3-3.8,6.6-6,11-5.5c24.2,0,36.4,24.3,39.6,31.8v0.3l1.5-0.6V37
				c-3.2-7.7-15.9-32.7-41.1-32.7c-5.1-0.5-10,2.1-12.5,6.6">
    </path>
   </defs>
   <use xlink:href="#SVGID_83_" style="overflow:visible;fill:#FFFFFF;">
   </use>
   <clipPath id="SVGID_84_">
    <use xlink:href="#SVGID_83_" style="overflow:visible;">
    </use>
   </clipPath>
   <g class="st42">
    <polygon class="st1" points="179,67.9 137.1,19.6 188.5,-22 230.4,26.2 			">
    </polygon>
   </g>
  </g>
 </g>
</svg>