<svg width="88" height="86" viewBox="0 0 88 86" fill="none" xmlns="http://www.w3.org/2000/svg">
<path d="M2.82373 70.2541V43.2165C2.82373 32.4603 7.11572 22.1446 14.7555 14.5388C22.3953 6.93305 32.7571 2.66016 43.5614 2.66016C54.3657 2.66016 64.7275 6.93305 72.3673 14.5388C80.0071 22.1446 84.2991 32.4603 84.2991 43.2165V70.2541" stroke="#333333" stroke-width="1.5" stroke-linecap="round" stroke-linejoin="round"/>
<path d="M84.2991 73.7654C84.2991 76.0936 83.3453 78.3264 81.6476 79.9727C79.9498 81.619 77.6472 82.5438 75.2462 82.5438H70.7198C68.3189 82.5438 66.0163 81.619 64.3185 79.9727C62.6208 78.3264 61.667 76.0936 61.667 73.7654V60.5978C61.667 58.2696 62.6208 56.0368 64.3185 54.3905C66.0163 52.7442 68.3189 51.8193 70.7198 51.8193V51.8193C78.2194 51.8193 84.2991 57.899 84.2991 65.3986V73.7654ZM2.82373 73.7654C2.82373 76.0936 3.77751 78.3264 5.47524 79.9727C7.17297 81.619 9.47559 82.5438 11.8765 82.5438H16.403C18.8039 82.5438 21.1065 81.619 22.8043 79.9727C24.502 78.3264 25.4558 76.0936 25.4558 73.7654V60.5978C25.4558 58.2696 24.502 56.0368 22.8043 54.3905C21.1065 52.7442 18.8039 51.8193 16.403 51.8193V51.8193C8.90335 51.8193 2.82373 57.899 2.82373 65.3986V73.7654Z" stroke="#333333" stroke-width="1.5" stroke-linecap="round" stroke-linejoin="round"/>
</svg>
