<svg width="88" height="86" viewBox="0 0 88 86" fill="none" xmlns="http://www.w3.org/2000/svg">
<path d="M81.0338 41.8841C81.0477 47.2185 79.8014 52.4809 77.3963 57.2424C74.5446 62.9482 70.1607 67.7474 64.7356 71.1024C59.3105 74.4574 53.0584 76.2358 46.6796 76.2382C41.3452 76.2521 36.0829 75.0058 31.3213 72.6007L8.28381 80.2799L15.963 57.2424C13.5579 52.4809 12.3116 47.2185 12.3255 41.8841C12.3279 35.5053 14.1063 29.2533 17.4613 23.8281C20.8163 18.403 25.6155 14.0191 31.3213 11.1674C36.0829 8.76233 41.3452 7.51599 46.6796 7.5299H48.7005C57.1247 7.99466 65.0815 11.5504 71.0474 17.5163C77.0133 23.4822 80.5691 31.439 81.0338 39.8632V41.8841Z" stroke="#333333" stroke-width="1.5" stroke-linecap="round" stroke-linejoin="round"/>
</svg>
